<svg height="512" width="512" style="border-style: solid; border-width: 1px; cursor: auto;" id="figure"><g transform="translate(-455.165530072799,-378.66057025601674) scale(2.605181987858336)"><g class="links"><line stroke-width="0.3324241484167405" stroke="lightgray" x1="367.07517769276706" y1="215.87069099705897" x2="333.7017583433097" y2="233.1317595492367"></line><line stroke-width="0.19192517157353725" stroke="lightgray" x1="292.74099091237326" y1="290.2156893845678" x2="255.2602211776961" y2="292.4319713298095"></line><line stroke-width="0.19192517157353725" stroke="lightgray" x1="292.74099091237326" y1="290.2156893845678" x2="293.0506481452677" y2="259.6534866531011"></line><line stroke-width="0.19192517157353725" stroke="lightgray" x1="333.7017583433097" y1="233.1317595492367" x2="293.0506481452677" y2="259.6534866531011"></line><line stroke-width="0.19192517157353725" stroke="lightgray" x1="204.11266186164352" y1="208.10995373941907" x2="176.96668399281904" y2="221.2393420320493"></line><line stroke-width="0.19192517157353725" stroke="lightgray" x1="204.11266186164352" y1="208.10995373941907" x2="228.42242262169808" y2="242.81467466686072"></line><line stroke-width="0.19192517157353725" stroke="lightgray" x1="176.96668399281904" y1="221.2393420320493" x2="228.42242262169808" y2="242.81467466686072"></line><line stroke-width="0.19192517157353725" stroke="lightgray" x1="176.96668399281904" y1="221.2393420320493" x2="186.34804593717553" y2="251.74327781804047"></line><line stroke-width="0.3838503431470745" stroke="lightgray" x1="222.1290199124189" y1="191.260071429703" x2="215.53832861790673" y2="152.89341402435292"></line><line stroke-width="0.3838503431470745" stroke="lightgray" x1="222.1290199124189" y1="191.260071429703" x2="228.42242262169808" y2="242.81467466686072"></line><line stroke-width="0.3324241484167405" stroke="lightgray" x1="186.34804593717553" y1="251.74327781804047" x2="228.42242262169808" y2="242.81467466686072"></line><line stroke-width="0.27142318060007964" stroke="lightgray" x1="253.52767789089805" y1="218.91649790017365" x2="228.42242262169808" y2="242.81467466686072"></line><line stroke-width="0.3838503431470745" stroke="lightgray" x1="235.53124207196757" y1="209.1173147660414" x2="228.42242262169808" y2="242.81467466686072"></line><line stroke-width="0.27142318060007964" stroke="lightgray" x1="196.38030503782912" y1="232.19754184985393" x2="228.42242262169808" y2="242.81467466686072"></line><line stroke-width="0.19192517157353725" stroke="lightgray" x1="328.4042721999061" y1="259.86968778322733" x2="293.0506481452677" y2="259.6534866531011"></line><line stroke-width="0.19192517157353725" stroke="lightgray" x1="293.0506481452677" y1="259.6534866531011" x2="228.42242262169808" y2="242.81467466686072"></line><line stroke-width="0.7181182359259818" stroke="lightgray" x1="293.0506481452677" y1="259.6534866531011" x2="255.2602211776961" y2="292.4319713298095"></line><line stroke-width="0.3324241484167405" stroke="lightgray" x1="293.0506481452677" y1="259.6534866531011" x2="268.70715722697025" y2="303.16862510311336"></line><line stroke-width="0.19192517157353725" stroke="lightgray" x1="293.0506481452677" y1="259.6534866531011" x2="303.3313034456026" y2="305.8894272486828"></line><line stroke-width="0.3324241484167405" stroke="lightgray" x1="228.42242262169808" y1="242.81467466686072" x2="221.86694169091447" y2="278.04598022133484"></line><line stroke-width="0.47011873915128105" stroke="lightgray" x1="228.42242262169808" y1="242.81467466686072" x2="255.2602211776961" y2="292.4319713298095"></line><line stroke-width="0.3324241484167405" stroke="lightgray" x1="228.42242262169808" y1="242.81467466686072" x2="268.70715722697025" y2="303.16862510311336"></line><line stroke-width="0.3324241484167405" stroke="lightgray" x1="221.86694169091447" y1="278.04598022133484" x2="255.2602211776961" y2="292.4319713298095"></line><line stroke-width="1.1025261715517445" stroke="lightgray" x1="282.60206475631406" y1="333.1930016486252" x2="268.70715722697025" y2="303.16862510311336"></line><line stroke-width="0.27142318060007964" stroke="lightgray" x1="282.60206475631406" y1="333.1930016486252" x2="303.3313034456026" y2="305.8894272486828"></line><line stroke-width="0.19192517157353725" stroke="lightgray" x1="282.60206475631406" y1="333.1930016486252" x2="255.2602211776961" y2="292.4319713298095"></line><line stroke-width="2.1024349164775127" stroke="lightgray" x1="268.70715722697025" y1="303.16862510311336" x2="303.3313034456026" y2="305.8894272486828"></line><line stroke-width="3.481207307541729" stroke="lightgray" x1="268.70715722697025" y1="303.16862510311336" x2="255.2602211776961" y2="292.4319713298095"></line><line stroke-width="0.3838503431470745" stroke="lightgray" x1="268.70715722697025" y1="303.16862510311336" x2="235.75433513682074" y2="322.13531340894474"></line><line stroke-width="0.27142318060007964" stroke="lightgray" x1="268.70715722697025" y1="303.16862510311336" x2="253.54578190863188" y2="333.12043431458335"></line><line stroke-width="0.767700686294149" stroke="lightgray" x1="255.2602211776961" y1="292.4319713298095" x2="235.75433513682074" y2="322.13531340894474"></line><line stroke-width="1.4362364718519636" stroke="lightgray" x1="255.2602211776961" y1="292.4319713298095" x2="303.3313034456026" y2="305.8894272486828"></line><line stroke-width="0.27142318060007964" stroke="lightgray" x1="255.2602211776961" y1="292.4319713298095" x2="253.54578190863188" y2="333.12043431458335"></line></g><g class="nodes"><circle r="0.767700686294149" fill="rgb(254, 235, 216)" stroke="black" stroke-width="1px" transform="translate(367.07517769276706,215.87069099705897)"></circle><circle r="0.3838503431470745" fill="rgb(254, 233, 212)" stroke="black" stroke-width="1px" transform="translate(292.74099091237326,290.2156893845678)"></circle><circle r="0.3838503431470745" fill="rgb(254, 228, 202)" stroke="black" stroke-width="1px" transform="translate(333.7017583433097,233.1317595492367)"></circle><circle r="0.3838503431470745" fill="rgb(253, 176, 112)" stroke="black" stroke-width="1px" transform="translate(204.11266186164352,208.10995373941907)"></circle><circle r="0.3838503431470745" fill="rgb(253, 158, 84)" stroke="black" stroke-width="1px" transform="translate(176.96668399281904,221.2393420320493)"></circle><circle r="1.1515510294412237" fill="rgb(241, 109, 26)" stroke="black" stroke-width="1px" transform="translate(222.1290199124189,191.260071429703)"></circle><circle r="0.767700686294149" fill="rgb(240, 107, 24)" stroke="black" stroke-width="1px" transform="translate(215.53832861790673,152.89341402435292)"></circle><circle r="0.664848296833481" fill="rgb(248, 127, 45)" stroke="black" stroke-width="1px" transform="translate(186.34804593717553,251.74327781804047)"></circle><circle r="0.5428463612001593" fill="rgb(241, 110, 27)" stroke="black" stroke-width="1px" transform="translate(253.52767789089805,218.91649790017365)"></circle><circle r="0.5428463612001593" fill="rgb(245, 120, 37)" stroke="black" stroke-width="1px" transform="translate(235.53124207196757,209.1173147660414)"></circle><circle r="0.5428463612001593" fill="rgb(245, 119, 35)" stroke="black" stroke-width="1px" transform="translate(196.38030503782912,232.19754184985393)"></circle><circle r="0.3838503431470745" fill="rgb(248, 127, 45)" stroke="black" stroke-width="1px" transform="translate(328.4042721999061,259.86968778322733)"></circle><circle r="1.0856927224003186" fill="rgb(231, 92, 13)" stroke="black" stroke-width="1px" transform="translate(293.0506481452677,259.6534866531011)"></circle><circle r="1.0155725486339655" fill="rgb(230, 91, 12)" stroke="black" stroke-width="1px" transform="translate(228.42242262169808,242.81467466686072)"></circle><circle r="1.0155725486339655" fill="rgb(188, 62, 2)" stroke="black" stroke-width="1px" transform="translate(221.86694169091447,278.04598022133484)"></circle><circle r="0.9402374783025621" fill="rgb(205, 70, 3)" stroke="black" stroke-width="1px" transform="translate(282.60206475631406,333.1930016486252)"></circle><circle r="4.410104686206978" fill="rgb(142, 45, 4)" stroke="black" stroke-width="1px" transform="translate(268.70715722697025,303.16862510311336)"></circle><circle r="4.0075152360059505" fill="rgb(138, 43, 4)" stroke="black" stroke-width="1px" transform="translate(255.2602211776961,292.4319713298095)"></circle><circle r="1.8408815758991444" fill="rgb(139, 44, 4)" stroke="black" stroke-width="1px" transform="translate(303.3313034456026,305.8894272486828)"></circle><circle r="1.0155725486339655" fill="rgb(136, 43, 4)" stroke="black" stroke-width="1px" transform="translate(235.75433513682074,322.13531340894474)"></circle><circle r="0.5428463612001593" fill="rgb(136, 42, 4)" stroke="black" stroke-width="1px" transform="translate(253.54578190863188,333.12043431458335)"></circle></g></g><g><text x="505" y="495" font-family="sans-serif" text-anchor="end" font-size="10px" fill="red">21 nodes</text><text x="505" y="505" font-family="sans-serif" text-anchor="end" font-size="10px" fill="red">33 edges</text></g></svg>