<svg height="512" width="512" style="border-style: solid; border-width: 1px; cursor: auto;" id="figure"><g transform="translate(-56.767797579671424,18.353640282197745) scale(1.1627544925562934)"><g class="links"><line stroke-width="1.2900401672087105" stroke="lightgray" x1="235.066009443162" y1="299.86876642113566" x2="267.32699631128315" y2="341.59896459594955"></line><line stroke-width="2.016941577026996" stroke="lightgray" x1="235.066009443162" y1="299.86876642113566" x2="280.0110705435986" y2="240.11996328897536"></line><line stroke-width="1.5504353234263812" stroke="lightgray" x1="235.066009443162" y1="299.86876642113566" x2="191.5442166719807" y2="299.46777736838294"></line><line stroke-width="0.961539169194624" stroke="lightgray" x1="235.066009443162" y1="299.86876642113566" x2="180.54980165948277" y2="255.83418199437557"></line><line stroke-width="0.6081307668242046" stroke="lightgray" x1="235.066009443162" y1="299.86876642113566" x2="308.7835062942341" y2="341.06510636793973"></line><line stroke-width="0.43001338906957015" stroke="lightgray" x1="235.066009443162" y1="299.86876642113566" x2="186.25092236253093" y2="328.94544188455245"></line><line stroke-width="2.3942132232013136" stroke="lightgray" x1="203.41060175442107" y1="339.81046409657336" x2="191.5442166719807" y2="299.46777736838294"></line><line stroke-width="2.580080334417421" stroke="lightgray" x1="203.41060175442107" y1="339.81046409657336" x2="255.24196353339858" y2="360.38551003522895"></line><line stroke-width="2.2754169758122864" stroke="lightgray" x1="203.41060175442107" y1="339.81046409657336" x2="280.0110705435986" y2="240.11996328897536"></line><line stroke-width="1.8743849073236942" stroke="lightgray" x1="203.41060175442107" y1="339.81046409657336" x2="180.54980165948277" y2="255.83418199437557"></line><line stroke-width="1.923078338389248" stroke="lightgray" x1="203.41060175442107" y1="339.81046409657336" x2="229.30439000713173" y2="371.37812078133743"></line><line stroke-width="1.608962773623854" stroke="lightgray" x1="203.41060175442107" y1="339.81046409657336" x2="267.32699631128315" y2="341.59896459594955"></line><line stroke-width="1.3598217338279954" stroke="lightgray" x1="203.41060175442107" y1="339.81046409657336" x2="186.25092236253093" y2="328.94544188455245"></line><line stroke-width="0.6081307668242046" stroke="lightgray" x1="203.41060175442107" y1="339.81046409657336" x2="211.37559689078995" y2="305.12228448881496"></line><line stroke-width="0.43001338906957015" stroke="lightgray" x1="203.41060175442107" y1="339.81046409657336" x2="232.28275206711297" y2="338.94516977252727"></line><line stroke-width="2.6156693305589314" stroke="lightgray" x1="266.55658443507934" y1="320.8062877160509" x2="280.0110705435986" y2="240.11996328897536"></line><line stroke-width="2.150066945347851" stroke="lightgray" x1="266.55658443507934" y1="320.8062877160509" x2="180.54980165948277" y2="255.83418199437557"></line><line stroke-width="2.150066945347851" stroke="lightgray" x1="266.55658443507934" y1="320.8062877160509" x2="186.25092236253093" y2="328.94544188455245"></line><line stroke-width="0.7448050378033788" stroke="lightgray" x1="266.55658443507934" y1="320.8062877160509" x2="308.7835062942341" y2="341.06510636793973"></line><line stroke-width="1.2900401672087105" stroke="lightgray" x1="266.55658443507934" y1="320.8062877160509" x2="314.7376256977355" y2="315.53069905150716"></line><line stroke-width="1.5504353234263812" stroke="lightgray" x1="266.55658443507934" y1="320.8062877160509" x2="267.32699631128315" y2="341.59896459594955"></line><line stroke-width="1.8243923004726135" stroke="lightgray" x1="266.55658443507934" y1="320.8062877160509" x2="191.5442166719807" y2="299.46777736838294"></line><line stroke-width="0.7448050378033788" stroke="lightgray" x1="266.55658443507934" y1="320.8062877160509" x2="276.6862677985474" y2="299.73002225756005"></line><line stroke-width="0.43001338906957015" stroke="lightgray" x1="266.55658443507934" y1="320.8062877160509" x2="278.91606961869576" y2="278.92647873945714"></line><line stroke-width="0.43001338906957015" stroke="lightgray" x1="266.55658443507934" y1="320.8062877160509" x2="255.24196353339858" y2="360.38551003522895"></line><line stroke-width="1.7729906235636606" stroke="lightgray" x1="232.28275206711297" y1="338.94516977252727" x2="180.54980165948277" y2="255.83418199437557"></line><line stroke-width="2.315692969414086" stroke="lightgray" x1="232.28275206711297" y1="338.94516977252727" x2="280.0110705435986" y2="240.11996328897536"></line><line stroke-width="0.43001338906957015" stroke="lightgray" x1="232.28275206711297" y1="338.94516977252727" x2="242.0221969235944" y2="287.4756879843201"></line><line stroke-width="1.608962773623854" stroke="lightgray" x1="232.28275206711297" y1="338.94516977252727" x2="191.5442166719807" y2="299.46777736838294"></line><line stroke-width="0.43001338906957015" stroke="lightgray" x1="232.28275206711297" y1="338.94516977252727" x2="200.18145039310227" y2="276.8861788203534"></line><line stroke-width="1.5504353234263812" stroke="lightgray" x1="232.28275206711297" y1="338.94516977252727" x2="255.24196353339858" y2="360.38551003522895"></line><line stroke-width="1.3598217338279954" stroke="lightgray" x1="232.28275206711297" y1="338.94516977252727" x2="186.25092236253093" y2="328.94544188455245"></line><line stroke-width="1.1377084879061432" stroke="lightgray" x1="232.28275206711297" y1="338.94516977252727" x2="267.32699631128315" y2="341.59896459594955"></line><line stroke-width="0.43001338906957015" stroke="lightgray" x1="232.28275206711297" y1="338.94516977252727" x2="314.7376256977355" y2="315.53069905150716"></line><line stroke-width="0.6081307668242046" stroke="lightgray" x1="232.28275206711297" y1="338.94516977252727" x2="229.30439000713173" y2="371.37812078133743"></line><line stroke-width="1.6654346945126557" stroke="lightgray" x1="242.0221969235944" y1="287.4756879843201" x2="180.54980165948277" y2="255.83418199437557"></line><line stroke-width="2.4702388523602767" stroke="lightgray" x1="242.0221969235944" y1="287.4756879843201" x2="280.0110705435986" y2="240.11996328897536"></line><line stroke-width="1.053313385785344" stroke="lightgray" x1="242.0221969235944" y1="287.4756879843201" x2="191.5442166719807" y2="299.46777736838294"></line><line stroke-width="0.8600267781391403" stroke="lightgray" x1="242.0221969235944" y1="287.4756879843201" x2="314.7376256977355" y2="315.53069905150716"></line><line stroke-width="0.8600267781391403" stroke="lightgray" x1="242.0221969235944" y1="287.4756879843201" x2="186.25092236253093" y2="328.94544188455245"></line><line stroke-width="0.43001338906957015" stroke="lightgray" x1="242.0221969235944" y1="287.4756879843201" x2="267.32699631128315" y2="341.59896459594955"></line><line stroke-width="1.5504353234263812" stroke="lightgray" x1="278.91606961869576" y1="278.92647873945714" x2="308.7835062942341" y2="341.06510636793973"></line><line stroke-width="1.5504353234263812" stroke="lightgray" x1="278.91606961869576" y1="278.92647873945714" x2="180.54980165948277" y2="255.83418199437557"></line><line stroke-width="2.1926466619719043" stroke="lightgray" x1="278.91606961869576" y1="278.92647873945714" x2="280.0110705435986" y2="240.11996328897536"></line><line stroke-width="1.4261930663728781" stroke="lightgray" x1="278.91606961869576" y1="278.92647873945714" x2="276.6862677985474" y2="299.73002225756005"></line><line stroke-width="1.053313385785344" stroke="lightgray" x1="278.91606961869576" y1="278.92647873945714" x2="314.7376256977355" y2="315.53069905150716"></line><line stroke-width="1.2900401672087105" stroke="lightgray" x1="278.91606961869576" y1="278.92647873945714" x2="191.5442166719807" y2="299.46777736838294"></line><line stroke-width="1.7200535562782806" stroke="lightgray" x1="278.91606961869576" y1="278.92647873945714" x2="267.32699631128315" y2="341.59896459594955"></line><line stroke-width="1.4261930663728781" stroke="lightgray" x1="218.27836791310537" y1="329.67525366769405" x2="180.54980165948277" y2="255.83418199437557"></line><line stroke-width="1.053313385785344" stroke="lightgray" x1="218.27836791310537" y1="329.67525366769405" x2="186.25092236253093" y2="328.94544188455245"></line><line stroke-width="1.9705689052558013" stroke="lightgray" x1="218.27836791310537" y1="329.67525366769405" x2="191.5442166719807" y2="299.46777736838294"></line><line stroke-width="1.8743849073236942" stroke="lightgray" x1="218.27836791310537" y1="329.67525366769405" x2="280.0110705435986" y2="240.11996328897536"></line><line stroke-width="2.5439935175366335" stroke="lightgray" x1="218.27836791310537" y1="329.67525366769405" x2="255.24196353339858" y2="360.38551003522895"></line><line stroke-width="1.923078338389248" stroke="lightgray" x1="218.27836791310537" y1="329.67525366769405" x2="229.30439000713173" y2="371.37812078133743"></line><line stroke-width="0.961539169194624" stroke="lightgray" x1="218.27836791310537" y1="329.67525366769405" x2="267.32699631128315" y2="341.59896459594955"></line><line stroke-width="1.2900401672087105" stroke="lightgray" x1="320.2422617431677" y1="216.72241857711438" x2="280.0110705435986" y2="240.11996328897536"></line><line stroke-width="1.3598217338279954" stroke="lightgray" x1="211.37559689078995" y1="305.12228448881496" x2="180.54980165948277" y2="255.83418199437557"></line><line stroke-width="1.4261930663728781" stroke="lightgray" x1="211.37559689078995" y1="305.12228448881496" x2="280.0110705435986" y2="240.11996328897536"></line><line stroke-width="1.2162615336484093" stroke="lightgray" x1="211.37559689078995" y1="305.12228448881496" x2="191.5442166719807" y2="299.46777736838294"></line><line stroke-width="1.2162615336484093" stroke="lightgray" x1="211.37559689078995" y1="305.12228448881496" x2="267.32699631128315" y2="341.59896459594955"></line><line stroke-width="0.8600267781391403" stroke="lightgray" x1="211.37559689078995" y1="305.12228448881496" x2="255.24196353339858" y2="360.38551003522895"></line><line stroke-width="0.961539169194624" stroke="lightgray" x1="211.37559689078995" y1="305.12228448881496" x2="186.25092236253093" y2="328.94544188455245"></line><line stroke-width="1.1377084879061432" stroke="lightgray" x1="316.4236386471743" y1="298.11109703479076" x2="267.32699631128315" y2="341.59896459594955"></line><line stroke-width="0.8600267781391403" stroke="lightgray" x1="316.4236386471743" y1="298.11109703479076" x2="308.7835062942341" y2="341.06510636793973"></line><line stroke-width="0.7448050378033788" stroke="lightgray" x1="316.4236386471743" y1="298.11109703479076" x2="280.0110705435986" y2="240.11996328897536"></line><line stroke-width="1.1377084879061432" stroke="lightgray" x1="200.18145039310227" y1="276.8861788203534" x2="180.54980165948277" y2="255.83418199437557"></line><line stroke-width="0.7448050378033788" stroke="lightgray" x1="200.18145039310227" y1="276.8861788203534" x2="186.25092236253093" y2="328.94544188455245"></line><line stroke-width="0.7448050378033788" stroke="lightgray" x1="200.18145039310227" y1="276.8861788203534" x2="191.5442166719807" y2="299.46777736838294"></line><line stroke-width="0.961539169194624" stroke="lightgray" x1="200.18145039310227" y1="276.8861788203534" x2="280.0110705435986" y2="240.11996328897536"></line><line stroke-width="0.7448050378033788" stroke="lightgray" x1="342.22751538097816" y1="284.72515405973223" x2="280.0110705435986" y2="240.11996328897536"></line><line stroke-width="1.1377084879061432" stroke="lightgray" x1="342.22751538097816" y1="284.72515405973223" x2="314.7376256977355" y2="315.53069905150716"></line><line stroke-width="0.6081307668242046" stroke="lightgray" x1="342.22751538097816" y1="284.72515405973223" x2="308.7835062942341" y2="341.06510636793973"></line><line stroke-width="0.961539169194624" stroke="lightgray" x1="324.4722145819113" y1="238.07822637558942" x2="280.0110705435986" y2="240.11996328897536"></line><line stroke-width="0.43001338906957015" stroke="lightgray" x1="360.2174282995706" y1="332.6057782895698" x2="314.7376256977355" y2="315.53069905150716"></line><line stroke-width="0.8600267781391403" stroke="lightgray" x1="398.68174832624715" y1="3.3643091281731055" x2="370.21941332215147" y2="40.5167746109883"></line><line stroke-width="0.7448050378033788" stroke="lightgray" x1="396.4614445444804" y1="-7.809893679522253" x2="370.21941332215147" y2="40.5167746109883"></line><line stroke-width="0.6081307668242046" stroke="lightgray" x1="224.83544811520284" y1="309.4215389837806" x2="180.54980165948277" y2="255.83418199437557"></line><line stroke-width="0.8600267781391403" stroke="lightgray" x1="224.83544811520284" y1="309.4215389837806" x2="280.0110705435986" y2="240.11996328897536"></line><line stroke-width="0.8600267781391403" stroke="lightgray" x1="224.83544811520284" y1="309.4215389837806" x2="191.5442166719807" y2="299.46777736838294"></line><line stroke-width="0.6081307668242046" stroke="lightgray" x1="224.83544811520284" y1="309.4215389837806" x2="229.30439000713173" y2="371.37812078133743"></line><line stroke-width="0.6081307668242046" stroke="lightgray" x1="224.83544811520284" y1="309.4215389837806" x2="255.24196353339858" y2="360.38551003522895"></line><line stroke-width="0.6081307668242046" stroke="lightgray" x1="319.8905367526047" y1="226.42317200994677" x2="280.0110705435986" y2="240.11996328897536"></line><line stroke-width="0.6081307668242046" stroke="lightgray" x1="333.6054938672101" y1="233.78620608179472" x2="280.0110705435986" y2="240.11996328897536"></line><line stroke-width="0.6081307668242046" stroke="lightgray" x1="256.9042071167542" y1="274.431820017661" x2="180.54980165948277" y2="255.83418199437557"></line><line stroke-width="0.6081307668242046" stroke="lightgray" x1="256.9042071167542" y1="274.431820017661" x2="280.0110705435986" y2="240.11996328897536"></line><line stroke-width="0.43001338906957015" stroke="lightgray" x1="256.9042071167542" y1="274.431820017661" x2="314.7376256977355" y2="315.53069905150716"></line><line stroke-width="0.43001338906957015" stroke="lightgray" x1="256.9042071167542" y1="274.431820017661" x2="267.32699631128315" y2="341.59896459594955"></line><line stroke-width="0.43001338906957015" stroke="lightgray" x1="256.9042071167542" y1="274.431820017661" x2="191.5442166719807" y2="299.46777736838294"></line><line stroke-width="0.6081307668242046" stroke="lightgray" x1="295.8866449247836" y1="200.29951561674858" x2="280.0110705435986" y2="240.11996328897536"></line><line stroke-width="0.6081307668242046" stroke="lightgray" x1="333.407456593596" y1="123.86671348549613" x2="370.21941332215147" y2="40.5167746109883"></line><line stroke-width="0.6081307668242046" stroke="lightgray" x1="333.407456593596" y1="123.86671348549613" x2="280.0110705435986" y2="240.11996328897536"></line><line stroke-width="0.6081307668242046" stroke="lightgray" x1="335.03903148046334" y1="223.4115247660233" x2="280.0110705435986" y2="240.11996328897536"></line><line stroke-width="0.6081307668242046" stroke="lightgray" x1="302.2862069363796" y1="191.48839275860905" x2="280.0110705435986" y2="240.11996328897536"></line><line stroke-width="0.6081307668242046" stroke="lightgray" x1="229.32811880348436" y1="211.1034609747826" x2="180.54980165948277" y2="255.83418199437557"></line><line stroke-width="0.6081307668242046" stroke="lightgray" x1="229.32811880348436" y1="211.1034609747826" x2="280.0110705435986" y2="240.11996328897536"></line><line stroke-width="0.8600267781391403" stroke="lightgray" x1="200.70464579107653" y1="373.36974307937123" x2="255.24196353339858" y2="360.38551003522895"></line><line stroke-width="0.6081307668242046" stroke="lightgray" x1="200.70464579107653" y1="373.36974307937123" x2="191.5442166719807" y2="299.46777736838294"></line><line stroke-width="0.43001338906957015" stroke="lightgray" x1="200.70464579107653" y1="373.36974307937123" x2="229.30439000713173" y2="371.37812078133743"></line><line stroke-width="0.6081307668242046" stroke="lightgray" x1="218.88791725000718" y1="207.27716747926118" x2="180.54980165948277" y2="255.83418199437557"></line><line stroke-width="0.6081307668242046" stroke="lightgray" x1="218.88791725000718" y1="207.27716747926118" x2="280.0110705435986" y2="240.11996328897536"></line><line stroke-width="0.6081307668242046" stroke="lightgray" x1="143.26027567483868" y1="230.08158975435472" x2="180.54980165948277" y2="255.83418199437557"></line><line stroke-width="0.43001338906957015" stroke="lightgray" x1="209.52131079851512" y1="260.872548557229" x2="186.25092236253093" y2="328.94544188455245"></line><line stroke-width="0.43001338906957015" stroke="lightgray" x1="209.52131079851512" y1="260.872548557229" x2="180.54980165948277" y2="255.83418199437557"></line><line stroke-width="0.43001338906957015" stroke="lightgray" x1="209.52131079851512" y1="260.872548557229" x2="280.0110705435986" y2="240.11996328897536"></line><line stroke-width="0.6081307668242046" stroke="lightgray" x1="343.06284057357794" y1="376.52228489366667" x2="308.7835062942341" y2="341.06510636793973"></line><line stroke-width="0.6081307668242046" stroke="lightgray" x1="208.64862968055994" y1="235.55989094621938" x2="180.54980165948277" y2="255.83418199437557"></line><line stroke-width="0.43001338906957015" stroke="lightgray" x1="208.64862968055994" y1="235.55989094621938" x2="191.5442166719807" y2="299.46777736838294"></line><line stroke-width="0.6081307668242046" stroke="lightgray" x1="208.64862968055994" y1="235.55989094621938" x2="280.0110705435986" y2="240.11996328897536"></line><line stroke-width="0.43001338906957015" stroke="lightgray" x1="331.65763708189286" y1="380.903949176133" x2="308.7835062942341" y2="341.06510636793973"></line><line stroke-width="0.43001338906957015" stroke="lightgray" x1="232.45775059960337" y1="416.18356405340086" x2="229.30439000713173" y2="371.37812078133743"></line><line stroke-width="0.43001338906957015" stroke="lightgray" x1="290.5129369255837" y1="187.94240537917617" x2="280.0110705435986" y2="240.11996328897536"></line><line stroke-width="0.43001338906957015" stroke="lightgray" x1="333.66229492633437" y1="213.51230105387327" x2="280.0110705435986" y2="240.11996328897536"></line><line stroke-width="0.43001338906957015" stroke="lightgray" x1="155.53632017277062" y1="220.93565173737022" x2="180.54980165948277" y2="255.83418199437557"></line><line stroke-width="0.43001338906957015" stroke="lightgray" x1="361.0812609133446" y1="310.35725400185294" x2="314.7376256977355" y2="315.53069905150716"></line><line stroke-width="0.43001338906957015" stroke="lightgray" x1="130.980731960629" y1="252.47472227199958" x2="180.54980165948277" y2="255.83418199437557"></line><line stroke-width="0.43001338906957015" stroke="lightgray" x1="346.3800658034204" y1="366.35717116696645" x2="308.7835062942341" y2="341.06510636793973"></line><line stroke-width="0.43001338906957015" stroke="lightgray" x1="167.77457686608582" y1="211.73366045425854" x2="180.54980165948277" y2="255.83418199437557"></line><line stroke-width="0.43001338906957015" stroke="lightgray" x1="319.8430189652436" y1="206.5568214545596" x2="280.0110705435986" y2="240.11996328897536"></line><line stroke-width="0.43001338906957015" stroke="lightgray" x1="282.55959299269006" y1="177.28330846477783" x2="280.0110705435986" y2="240.11996328897536"></line><line stroke-width="0.43001338906957015" stroke="lightgray" x1="216.19920829885152" y1="414.5741211814629" x2="229.30439000713173" y2="371.37812078133743"></line><line stroke-width="0.43001338906957015" stroke="lightgray" x1="148.52216073831877" y1="357.3275692944463" x2="186.25092236253093" y2="328.94544188455245"></line><line stroke-width="0.43001338906957015" stroke="lightgray" x1="137.38848405983097" y1="240.3816546194348" x2="180.54980165948277" y2="255.83418199437557"></line><line stroke-width="0.43001338906957015" stroke="lightgray" x1="311.1277777110434" y1="198.92851025253663" x2="280.0110705435986" y2="240.11996328897536"></line><line stroke-width="0.43001338906957015" stroke="lightgray" x1="294.8311795575481" y1="177.88200189377903" x2="280.0110705435986" y2="240.11996328897536"></line><line stroke-width="0.43001338906957015" stroke="lightgray" x1="364.18023509787696" y1="323.5771928123104" x2="314.7376256977355" y2="315.53069905150716"></line><line stroke-width="0.43001338906957015" stroke="lightgray" x1="368.8823608719846" y1="-7.496106718223972" x2="370.21941332215147" y2="40.5167746109883"></line><line stroke-width="0.43001338906957015" stroke="lightgray" x1="385.4414621743441" y1="-2.261669236162527" x2="370.21941332215147" y2="40.5167746109883"></line><line stroke-width="0.43001338906957015" stroke="lightgray" x1="408.5044119767721" y1="8.706407071900951" x2="370.21941332215147" y2="40.5167746109883"></line><line stroke-width="0.43001338906957015" stroke="lightgray" x1="380.4473913827706" y1="-12.105353966133366" x2="370.21941332215147" y2="40.5167746109883"></line><line stroke-width="0.43001338906957015" stroke="lightgray" x1="247.73600319321795" y1="303.67762213433457" x2="280.0110705435986" y2="240.11996328897536"></line><line stroke-width="0.43001338906957015" stroke="lightgray" x1="247.73600319321795" y1="303.67762213433457" x2="267.32699631128315" y2="341.59896459594955"></line><line stroke-width="0.43001338906957015" stroke="lightgray" x1="247.73600319321795" y1="303.67762213433457" x2="186.25092236253093" y2="328.94544188455245"></line><line stroke-width="0.43001338906957015" stroke="lightgray" x1="177.46076840419602" y1="203.5286061398143" x2="180.54980165948277" y2="255.83418199437557"></line><line stroke-width="0.43001338906957015" stroke="lightgray" x1="306.0476969808292" y1="181.0485250558475" x2="280.0110705435986" y2="240.11996328897536"></line><line stroke-width="0.43001338906957015" stroke="lightgray" x1="315.1126730325372" y1="187.54962955223772" x2="280.0110705435986" y2="240.11996328897536"></line><line stroke-width="0.43001338906957015" stroke="lightgray" x1="291.0687455447038" y1="309.6307506155058" x2="280.0110705435986" y2="240.11996328897536"></line><line stroke-width="0.43001338906957015" stroke="lightgray" x1="291.0687455447038" y1="309.6307506155058" x2="255.24196353339858" y2="360.38551003522895"></line><line stroke-width="0.43001338906957015" stroke="lightgray" x1="323.77063936787374" y1="194.44752846740334" x2="280.0110705435986" y2="240.11996328897536"></line><line stroke-width="0.43001338906957015" stroke="lightgray" x1="293.7772876850857" y1="299.99925357847036" x2="280.0110705435986" y2="240.11996328897536"></line><line stroke-width="0.43001338906957015" stroke="lightgray" x1="293.7772876850857" y1="299.99925357847036" x2="255.24196353339858" y2="360.38551003522895"></line><line stroke-width="0.6081307668242046" stroke="lightgray" x1="223.96338942731228" y1="199.13757358779228" x2="180.54980165948277" y2="255.83418199437557"></line><line stroke-width="0.6081307668242046" stroke="lightgray" x1="223.96338942731228" y1="199.13757358779228" x2="280.0110705435986" y2="240.11996328897536"></line><line stroke-width="0.43001338906957015" stroke="lightgray" x1="222.39925195589632" y1="272.62994724804975" x2="280.0110705435986" y2="240.11996328897536"></line><line stroke-width="0.6081307668242046" stroke="lightgray" x1="222.39925195589632" y1="272.62994724804975" x2="186.25092236253093" y2="328.94544188455245"></line><line stroke-width="0.43001338906957015" stroke="lightgray" x1="140.28999910072602" y1="297.538706983671" x2="180.54980165948277" y2="255.83418199437557"></line><line stroke-width="0.43001338906957015" stroke="lightgray" x1="140.28999910072602" y1="297.538706983671" x2="191.5442166719807" y2="299.46777736838294"></line><line stroke-width="0.43001338906957015" stroke="lightgray" x1="140.28999910072602" y1="297.538706983671" x2="186.25092236253093" y2="328.94544188455245"></line><line stroke-width="0.43001338906957015" stroke="lightgray" x1="146.0237389933747" y1="270.7681331712537" x2="180.54980165948277" y2="255.83418199437557"></line><line stroke-width="0.43001338906957015" stroke="lightgray" x1="146.0237389933747" y1="270.7681331712537" x2="191.5442166719807" y2="299.46777736838294"></line><line stroke-width="0.43001338906957015" stroke="lightgray" x1="330.75951829337714" y1="203.09350929671504" x2="280.0110705435986" y2="240.11996328897536"></line><line stroke-width="0.43001338906957015" stroke="lightgray" x1="125.5966865074808" y1="243.4411255453125" x2="180.54980165948277" y2="255.83418199437557"></line><line stroke-width="0.43001338906957015" stroke="lightgray" x1="144.63719969157668" y1="217.35836792486788" x2="180.54980165948277" y2="255.83418199437557"></line><line stroke-width="0.43001338906957015" stroke="lightgray" x1="135.26325029535454" y1="275.25775210022704" x2="191.5442166719807" y2="299.46777736838294"></line><line stroke-width="0.43001338906957015" stroke="lightgray" x1="135.26325029535454" y1="275.25775210022704" x2="180.54980165948277" y2="255.83418199437557"></line><line stroke-width="0.8600267781391403" stroke="lightgray" x1="211.8844170834646" y1="321.0820578913269" x2="191.5442166719807" y2="299.46777736838294"></line><line stroke-width="0.43001338906957015" stroke="lightgray" x1="211.8844170834646" y1="321.0820578913269" x2="186.25092236253093" y2="328.94544188455245"></line><line stroke-width="0.961539169194624" stroke="lightgray" x1="211.8844170834646" y1="321.0820578913269" x2="255.24196353339858" y2="360.38551003522895"></line><line stroke-width="0.6081307668242046" stroke="lightgray" x1="211.8844170834646" y1="321.0820578913269" x2="180.54980165948277" y2="255.83418199437557"></line><line stroke-width="0.7448050378033788" stroke="lightgray" x1="211.8844170834646" y1="321.0820578913269" x2="229.30439000713173" y2="371.37812078133743"></line><line stroke-width="0.7448050378033788" stroke="lightgray" x1="211.8844170834646" y1="321.0820578913269" x2="280.0110705435986" y2="240.11996328897536"></line><line stroke-width="0.43001338906957015" stroke="lightgray" x1="211.8844170834646" y1="321.0820578913269" x2="267.32699631128315" y2="341.59896459594955"></line><line stroke-width="0.43001338906957015" stroke="lightgray" x1="370.82030806312724" y1="314.7719383530066" x2="314.7376256977355" y2="315.53069905150716"></line><line stroke-width="0.43001338906957015" stroke="lightgray" x1="155.98187968865543" y1="209.04264541820908" x2="180.54980165948277" y2="255.83418199437557"></line><line stroke-width="0.43001338906957015" stroke="lightgray" x1="365.704530613159" y1="299.93852800064855" x2="314.7376256977355" y2="315.53069905150716"></line><line stroke-width="0.43001338906957015" stroke="lightgray" x1="132.40075315840278" y1="223.7649465310007" x2="180.54980165948277" y2="255.83418199437557"></line><line stroke-width="0.43001338906957015" stroke="lightgray" x1="168.03129472865888" y1="198.7121564019504" x2="180.54980165948277" y2="255.83418199437557"></line><line stroke-width="0.43001338906957015" stroke="lightgray" x1="126.80123636653889" y1="232.2615669698222" x2="180.54980165948277" y2="255.83418199437557"></line><line stroke-width="0.43001338906957015" stroke="lightgray" x1="144.5940802117892" y1="204.7250107572925" x2="180.54980165948277" y2="255.83418199437557"></line><line stroke-width="0.43001338906957015" stroke="lightgray" x1="134.60404587035998" y1="213.06257026679594" x2="180.54980165948277" y2="255.83418199437557"></line><line stroke-width="0.43001338906957015" stroke="lightgray" x1="208.98813683997284" y1="225.53885046335452" x2="191.5442166719807" y2="299.46777736838294"></line><line stroke-width="0.43001338906957015" stroke="lightgray" x1="208.98813683997284" y1="225.53885046335452" x2="180.54980165948277" y2="255.83418199437557"></line><line stroke-width="0.6081307668242046" stroke="lightgray" x1="208.98813683997284" y1="225.53885046335452" x2="280.0110705435986" y2="240.11996328897536"></line><line stroke-width="0.6081307668242046" stroke="lightgray" x1="221.50203715560855" y1="288.5857691732952" x2="191.5442166719807" y2="299.46777736838294"></line><line stroke-width="0.7448050378033788" stroke="lightgray" x1="221.50203715560855" y1="288.5857691732952" x2="280.0110705435986" y2="240.11996328897536"></line><line stroke-width="0.6081307668242046" stroke="lightgray" x1="221.50203715560855" y1="288.5857691732952" x2="180.54980165948277" y2="255.83418199437557"></line><line stroke-width="0.43001338906957015" stroke="lightgray" x1="221.50203715560855" y1="288.5857691732952" x2="276.6862677985474" y2="299.73002225756005"></line><line stroke-width="0.43001338906957015" stroke="lightgray" x1="221.50203715560855" y1="288.5857691732952" x2="229.30439000713173" y2="371.37812078133743"></line><line stroke-width="0.43001338906957015" stroke="lightgray" x1="156.78662416470019" y1="198.32774572716158" x2="180.54980165948277" y2="255.83418199437557"></line><line stroke-width="0.43001338906957015" stroke="lightgray" x1="236.70958936651914" y1="273.2593580444564" x2="186.25092236253093" y2="328.94544188455245"></line><line stroke-width="0.6081307668242046" stroke="lightgray" x1="236.70958936651914" y1="273.2593580444564" x2="280.0110705435986" y2="240.11996328897536"></line><line stroke-width="0.6081307668242046" stroke="lightgray" x1="236.70958936651914" y1="273.2593580444564" x2="180.54980165948277" y2="255.83418199437557"></line><line stroke-width="0.43001338906957015" stroke="lightgray" x1="236.70958936651914" y1="273.2593580444564" x2="314.7376256977355" y2="315.53069905150716"></line><line stroke-width="0.43001338906957015" stroke="lightgray" x1="236.70958936651914" y1="273.2593580444564" x2="191.5442166719807" y2="299.46777736838294"></line><line stroke-width="0.43001338906957015" stroke="lightgray" x1="270.5190984161231" y1="403.0657162061232" x2="255.24196353339858" y2="360.38551003522895"></line><line stroke-width="0.43001338906957015" stroke="lightgray" x1="235.25384899103685" y1="327.16428313109344" x2="186.25092236253093" y2="328.94544188455245"></line><line stroke-width="0.43001338906957015" stroke="lightgray" x1="235.25384899103685" y1="327.16428313109344" x2="255.24196353339858" y2="360.38551003522895"></line><line stroke-width="0.43001338906957015" stroke="lightgray" x1="235.25384899103685" y1="327.16428313109344" x2="229.30439000713173" y2="371.37812078133743"></line><line stroke-width="0.43001338906957015" stroke="lightgray" x1="235.25384899103685" y1="327.16428313109344" x2="280.0110705435986" y2="240.11996328897536"></line><line stroke-width="0.43001338906957015" stroke="lightgray" x1="235.25384899103685" y1="327.16428313109344" x2="191.5442166719807" y2="299.46777736838294"></line><line stroke-width="0.7448050378033788" stroke="lightgray" x1="256.8777543508696" y1="293.56767827654426" x2="255.24196353339858" y2="360.38551003522895"></line><line stroke-width="0.43001338906957015" stroke="lightgray" x1="256.8777543508696" y1="293.56767827654426" x2="280.0110705435986" y2="240.11996328897536"></line><line stroke-width="0.43001338906957015" stroke="lightgray" x1="256.8777543508696" y1="293.56767827654426" x2="191.5442166719807" y2="299.46777736838294"></line><line stroke-width="0.43001338906957015" stroke="lightgray" x1="144.12006838884065" y1="282.74406777247106" x2="191.5442166719807" y2="299.46777736838294"></line><line stroke-width="0.43001338906957015" stroke="lightgray" x1="144.12006838884065" y1="282.74406777247106" x2="180.54980165948277" y2="255.83418199437557"></line><line stroke-width="0.43001338906957015" stroke="lightgray" x1="234.54273017311323" y1="254.19145775343878" x2="280.0110705435986" y2="240.11996328897536"></line><line stroke-width="0.43001338906957015" stroke="lightgray" x1="234.54273017311323" y1="254.19145775343878" x2="191.5442166719807" y2="299.46777736838294"></line><line stroke-width="0.43001338906957015" stroke="lightgray" x1="222.20063121402825" y1="247.60087358091963" x2="280.0110705435986" y2="240.11996328897536"></line><line stroke-width="0.43001338906957015" stroke="lightgray" x1="222.20063121402825" y1="247.60087358091963" x2="191.5442166719807" y2="299.46777736838294"></line><line stroke-width="0.6081307668242046" stroke="lightgray" x1="259.8374716327068" y1="304.3924461267119" x2="280.0110705435986" y2="240.11996328897536"></line><line stroke-width="0.43001338906957015" stroke="lightgray" x1="259.8374716327068" y1="304.3924461267119" x2="191.5442166719807" y2="299.46777736838294"></line><line stroke-width="0.43001338906957015" stroke="lightgray" x1="259.8374716327068" y1="304.3924461267119" x2="255.24196353339858" y2="360.38551003522895"></line><line stroke-width="0.43001338906957015" stroke="lightgray" x1="337.8235866515301" y1="263.55092937664165" x2="280.0110705435986" y2="240.11996328897536"></line><line stroke-width="0.43001338906957015" stroke="lightgray" x1="337.8235866515301" y1="263.55092937664165" x2="314.7376256977355" y2="315.53069905150716"></line><line stroke-width="0.43001338906957015" stroke="lightgray" x1="226.75315207110933" y1="237.39516612869812" x2="280.0110705435986" y2="240.11996328897536"></line><line stroke-width="0.43001338906957015" stroke="lightgray" x1="226.75315207110933" y1="237.39516612869812" x2="191.5442166719807" y2="299.46777736838294"></line><line stroke-width="0.6081307668242046" stroke="lightgray" x1="235.58672313489114" y1="244.02276851179406" x2="280.0110705435986" y2="240.11996328897536"></line><line stroke-width="0.43001338906957015" stroke="lightgray" x1="235.58672313489114" y1="244.02276851179406" x2="191.5442166719807" y2="299.46777736838294"></line><line stroke-width="0.43001338906957015" stroke="lightgray" x1="268.1476984853848" y1="197.01991666026288" x2="280.0110705435986" y2="240.11996328897536"></line><line stroke-width="0.43001338906957015" stroke="lightgray" x1="261.6192263397257" y1="188.8953320211278" x2="280.0110705435986" y2="240.11996328897536"></line><line stroke-width="0.43001338906957015" stroke="lightgray" x1="325.356197199805" y1="281.46351571747186" x2="280.0110705435986" y2="240.11996328897536"></line><line stroke-width="0.43001338906957015" stroke="lightgray" x1="325.356197199805" y1="281.46351571747186" x2="308.7835062942341" y2="341.06510636793973"></line><line stroke-width="0.43001338906957015" stroke="lightgray" x1="270.2800781557925" y1="180.53904254939673" x2="280.0110705435986" y2="240.11996328897536"></line><line stroke-width="0.43001338906957015" stroke="lightgray" x1="355.28678103673303" y1="352.12630627386807" x2="308.7835062942341" y2="341.06510636793973"></line><line stroke-width="0.43001338906957015" stroke="lightgray" x1="356.2660146769886" y1="363.0923622105425" x2="308.7835062942341" y2="341.06510636793973"></line><line stroke-width="0.43001338906957015" stroke="lightgray" x1="282.762625762942" y1="198.36445906845123" x2="280.0110705435986" y2="240.11996328897536"></line><line stroke-width="0.43001338906957015" stroke="lightgray" x1="277.8417379252575" y1="188.25636571316934" x2="280.0110705435986" y2="240.11996328897536"></line><line stroke-width="0.43001338906957015" stroke="lightgray" x1="307.06983141265124" y1="209.6296170217847" x2="280.0110705435986" y2="240.11996328897536"></line><line stroke-width="0.43001338906957015" stroke="lightgray" x1="140.9405037888583" y1="345.3626049171024" x2="186.25092236253093" y2="328.94544188455245"></line><line stroke-width="0.43001338906957015" stroke="lightgray" x1="250.91382814786743" y1="323.4630253555929" x2="255.24196353339858" y2="360.38551003522895"></line><line stroke-width="0.43001338906957015" stroke="lightgray" x1="250.91382814786743" y1="323.4630253555929" x2="229.30439000713173" y2="371.37812078133743"></line><line stroke-width="0.43001338906957015" stroke="lightgray" x1="250.91382814786743" y1="323.4630253555929" x2="280.0110705435986" y2="240.11996328897536"></line><line stroke-width="0.43001338906957015" stroke="lightgray" x1="250.91382814786743" y1="323.4630253555929" x2="191.5442166719807" y2="299.46777736838294"></line><line stroke-width="0.43001338906957015" stroke="lightgray" x1="195.80901804880574" y1="363.3179191856527" x2="255.24196353339858" y2="360.38551003522895"></line><line stroke-width="0.43001338906957015" stroke="lightgray" x1="195.80901804880574" y1="363.3179191856527" x2="229.30439000713173" y2="371.37812078133743"></line><line stroke-width="0.43001338906957015" stroke="lightgray" x1="195.80901804880574" y1="363.3179191856527" x2="191.5442166719807" y2="299.46777736838294"></line><line stroke-width="0.43001338906957015" stroke="lightgray" x1="149.29147481596172" y1="319.11470353077385" x2="191.5442166719807" y2="299.46777736838294"></line><line stroke-width="0.43001338906957015" stroke="lightgray" x1="145.5120351212252" y1="308.54945923529107" x2="191.5442166719807" y2="299.46777736838294"></line><line stroke-width="0.6081307668242046" stroke="lightgray" x1="179.71375217206085" y1="382.4034670815693" x2="186.25092236253093" y2="328.94544188455245"></line><line stroke-width="0.43001338906957015" stroke="lightgray" x1="179.71375217206085" y1="382.4034670815693" x2="229.30439000713173" y2="371.37812078133743"></line><line stroke-width="1.7200535562782806" stroke="lightgray" x1="186.25092236253093" y1="328.94544188455245" x2="180.54980165948277" y2="255.83418199437557"></line><line stroke-width="3.0406538341210227" stroke="lightgray" x1="186.25092236253093" y1="328.94544188455245" x2="280.0110705435986" y2="240.11996328897536"></line><line stroke-width="2.650780557044605" stroke="lightgray" x1="186.25092236253093" y1="328.94544188455245" x2="255.24196353339858" y2="360.38551003522895"></line><line stroke-width="2.35528033222649" stroke="lightgray" x1="186.25092236253093" y1="328.94544188455245" x2="191.5442166719807" y2="299.46777736838294"></line><line stroke-width="2.0622717667463815" stroke="lightgray" x1="186.25092236253093" y1="328.94544188455245" x2="267.32699631128315" y2="341.59896459594955"></line><line stroke-width="2.1926466619719043" stroke="lightgray" x1="186.25092236253093" y1="328.94544188455245" x2="229.30439000713173" y2="371.37812078133743"></line><line stroke-width="0.961539169194624" stroke="lightgray" x1="186.25092236253093" y1="328.94544188455245" x2="308.7835062942341" y2="341.06510636793973"></line><line stroke-width="0.961539169194624" stroke="lightgray" x1="186.25092236253093" y1="328.94544188455245" x2="314.7376256977355" y2="315.53069905150716"></line><line stroke-width="2.2754169758122864" stroke="lightgray" x1="229.30439000713173" y1="371.37812078133743" x2="191.5442166719807" y2="299.46777736838294"></line><line stroke-width="2.3942132232013136" stroke="lightgray" x1="229.30439000713173" y1="371.37812078133743" x2="280.0110705435986" y2="240.11996328897536"></line><line stroke-width="1.7200535562782806" stroke="lightgray" x1="229.30439000713173" y1="371.37812078133743" x2="180.54980165948277" y2="255.83418199437557"></line><line stroke-width="3.302995514978298" stroke="lightgray" x1="229.30439000713173" y1="371.37812078133743" x2="255.24196353339858" y2="360.38551003522895"></line><line stroke-width="1.7200535562782806" stroke="lightgray" x1="229.30439000713173" y1="371.37812078133743" x2="267.32699631128315" y2="341.59896459594955"></line><line stroke-width="0.43001338906957015" stroke="lightgray" x1="229.30439000713173" y1="371.37812078133743" x2="308.7835062942341" y2="341.06510636793973"></line><line stroke-width="0.43001338906957015" stroke="lightgray" x1="229.30439000713173" y1="371.37812078133743" x2="314.7376256977355" y2="315.53069905150716"></line><line stroke-width="0.961539169194624" stroke="lightgray" x1="276.6862677985474" y1="299.73002225756005" x2="191.5442166719807" y2="299.46777736838294"></line><line stroke-width="0.8600267781391403" stroke="lightgray" x1="276.6862677985474" y1="299.73002225756005" x2="180.54980165948277" y2="255.83418199437557"></line><line stroke-width="1.3598217338279954" stroke="lightgray" x1="276.6862677985474" y1="299.73002225756005" x2="280.0110705435986" y2="240.11996328897536"></line><line stroke-width="0.7448050378033788" stroke="lightgray" x1="276.6862677985474" y1="299.73002225756005" x2="314.7376256977355" y2="315.53069905150716"></line><line stroke-width="1.053313385785344" stroke="lightgray" x1="276.6862677985474" y1="299.73002225756005" x2="267.32699631128315" y2="341.59896459594955"></line><line stroke-width="0.6081307668242046" stroke="lightgray" x1="276.6862677985474" y1="299.73002225756005" x2="308.7835062942341" y2="341.06510636793973"></line><line stroke-width="0.6081307668242046" stroke="lightgray" x1="276.6862677985474" y1="299.73002225756005" x2="255.24196353339858" y2="360.38551003522895"></line><line stroke-width="0.43001338906957015" stroke="lightgray" x1="370.21941332215147" y1="40.5167746109883" x2="280.0110705435986" y2="240.11996328897536"></line><line stroke-width="2.580080334417421" stroke="lightgray" x1="255.24196353339858" y1="360.38551003522895" x2="191.5442166719807" y2="299.46777736838294"></line><line stroke-width="3.1008706468527625" stroke="lightgray" x1="255.24196353339858" y1="360.38551003522895" x2="280.0110705435986" y2="240.11996328897536"></line><line stroke-width="2.016941577026996" stroke="lightgray" x1="255.24196353339858" y1="360.38551003522895" x2="267.32699631128315" y2="341.59896459594955"></line><line stroke-width="1.7200535562782806" stroke="lightgray" x1="255.24196353339858" y1="360.38551003522895" x2="180.54980165948277" y2="255.83418199437557"></line><line stroke-width="1.1377084879061432" stroke="lightgray" x1="255.24196353339858" y1="360.38551003522895" x2="308.7835062942341" y2="341.06510636793973"></line><line stroke-width="1.053313385785344" stroke="lightgray" x1="255.24196353339858" y1="360.38551003522895" x2="314.7376256977355" y2="315.53069905150716"></line><line stroke-width="2.4702388523602767" stroke="lightgray" x1="267.32699631128315" y1="341.59896459594955" x2="280.0110705435986" y2="240.11996328897536"></line><line stroke-width="1.923078338389248" stroke="lightgray" x1="267.32699631128315" y1="341.59896459594955" x2="191.5442166719807" y2="299.46777736838294"></line><line stroke-width="1.3598217338279954" stroke="lightgray" x1="267.32699631128315" y1="341.59896459594955" x2="180.54980165948277" y2="255.83418199437557"></line><line stroke-width="1.1377084879061432" stroke="lightgray" x1="267.32699631128315" y1="341.59896459594955" x2="314.7376256977355" y2="315.53069905150716"></line><line stroke-width="0.961539169194624" stroke="lightgray" x1="267.32699631128315" y1="341.59896459594955" x2="308.7835062942341" y2="341.06510636793973"></line><line stroke-width="2.580080334417421" stroke="lightgray" x1="191.5442166719807" y1="299.46777736838294" x2="280.0110705435986" y2="240.11996328897536"></line><line stroke-width="1.3598217338279954" stroke="lightgray" x1="191.5442166719807" y1="299.46777736838294" x2="180.54980165948277" y2="255.83418199437557"></line><line stroke-width="0.961539169194624" stroke="lightgray" x1="191.5442166719807" y1="299.46777736838294" x2="308.7835062942341" y2="341.06510636793973"></line><line stroke-width="0.961539169194624" stroke="lightgray" x1="191.5442166719807" y1="299.46777736838294" x2="314.7376256977355" y2="315.53069905150716"></line><line stroke-width="1.608962773623854" stroke="lightgray" x1="314.7376256977355" y1="315.53069905150716" x2="280.0110705435986" y2="240.11996328897536"></line><line stroke-width="0.8600267781391403" stroke="lightgray" x1="314.7376256977355" y1="315.53069905150716" x2="180.54980165948277" y2="255.83418199437557"></line><line stroke-width="0.6081307668242046" stroke="lightgray" x1="314.7376256977355" y1="315.53069905150716" x2="308.7835062942341" y2="341.06510636793973"></line><line stroke-width="1.6654346945126557" stroke="lightgray" x1="280.0110705435986" y1="240.11996328897536" x2="180.54980165948277" y2="255.83418199437557"></line><line stroke-width="1.2162615336484093" stroke="lightgray" x1="280.0110705435986" y1="240.11996328897536" x2="308.7835062942341" y2="341.06510636793973"></line><line stroke-width="0.6081307668242046" stroke="lightgray" x1="308.7835062942341" y1="341.06510636793973" x2="180.54980165948277" y2="255.83418199437557"></line></g><g class="nodes"><circle r="4.033883154053992" fill="rgb(255, 252, 196)" stroke="black" stroke-width="1px" transform="translate(235.066009443162,299.86876642113566)"></circle><circle r="3.7487698146473885" fill="rgb(255, 250, 191)" stroke="black" stroke-width="1px" transform="translate(203.41060175442107,339.81046409657336)"></circle><circle r="3.545981247127321" fill="rgb(255, 248, 187)" stroke="black" stroke-width="1px" transform="translate(266.55658443507934,320.8062877160509)"></circle><circle r="3.545981247127321" fill="rgb(255, 252, 196)" stroke="black" stroke-width="1px" transform="translate(232.28275206711297,338.94516977252727)"></circle><circle r="3.545981247127321" fill="rgb(255, 252, 197)" stroke="black" stroke-width="1px" transform="translate(242.0221969235944,287.4756879843201)"></circle><circle r="3.217925547247708" fill="rgb(255, 249, 189)" stroke="black" stroke-width="1px" transform="translate(278.91606961869576,278.92647873945714)"></circle><circle r="2.9792201512135152" fill="rgb(255, 250, 191)" stroke="black" stroke-width="1px" transform="translate(218.27836791310537,329.67525366769405)"></circle><circle r="2.8523861327457563" fill="rgb(255, 251, 195)" stroke="black" stroke-width="1px" transform="translate(320.2422617431677,216.72241857711438)"></circle><circle r="2.580080334417421" fill="rgb(255, 252, 195)" stroke="black" stroke-width="1px" transform="translate(211.37559689078995,305.12228448881496)"></circle><circle r="2.2754169758122864" fill="rgb(255, 252, 197)" stroke="black" stroke-width="1px" transform="translate(316.4236386471743,298.11109703479076)"></circle><circle r="2.2754169758122864" fill="rgb(255, 253, 199)" stroke="black" stroke-width="1px" transform="translate(200.18145039310227,276.8861788203534)"></circle><circle r="2.2754169758122864" fill="rgb(255, 252, 197)" stroke="black" stroke-width="1px" transform="translate(342.22751538097816,284.72515405973223)"></circle><circle r="1.923078338389248" fill="rgb(255, 251, 194)" stroke="black" stroke-width="1px" transform="translate(324.4722145819113,238.07822637558942)"></circle><circle r="1.923078338389248" fill="rgb(255, 250, 191)" stroke="black" stroke-width="1px" transform="translate(360.2174282995706,332.6057782895698)"></circle><circle r="1.7200535562782806" fill="rgb(255, 252, 196)" stroke="black" stroke-width="1px" transform="translate(398.68174832624715,3.3643091281731055)"></circle><circle r="1.4896100756067576" fill="rgb(255, 252, 196)" stroke="black" stroke-width="1px" transform="translate(396.4614445444804,-7.809893679522253)"></circle><circle r="1.4896100756067576" fill="rgb(255, 253, 198)" stroke="black" stroke-width="1px" transform="translate(224.83544811520284,309.4215389837806)"></circle><circle r="1.2162615336484093" fill="rgb(255, 254, 202)" stroke="black" stroke-width="1px" transform="translate(319.8905367526047,226.42317200994677)"></circle><circle r="1.2162615336484093" fill="rgb(255, 255, 203)" stroke="black" stroke-width="1px" transform="translate(333.6054938672101,233.78620608179472)"></circle><circle r="1.2162615336484093" fill="rgb(255, 252, 197)" stroke="black" stroke-width="1px" transform="translate(256.9042071167542,274.431820017661)"></circle><circle r="1.2162615336484093" fill="rgb(255, 253, 200)" stroke="black" stroke-width="1px" transform="translate(295.8866449247836,200.29951561674858)"></circle><circle r="1.2162615336484093" fill="rgb(255, 251, 193)" stroke="black" stroke-width="1px" transform="translate(333.407456593596,123.86671348549613)"></circle><circle r="1.2162615336484093" fill="rgb(255, 253, 198)" stroke="black" stroke-width="1px" transform="translate(335.03903148046334,223.4115247660233)"></circle><circle r="1.2162615336484093" fill="rgb(255, 254, 201)" stroke="black" stroke-width="1px" transform="translate(302.2862069363796,191.48839275860905)"></circle><circle r="1.2162615336484093" fill="rgb(255, 254, 202)" stroke="black" stroke-width="1px" transform="translate(229.32811880348436,211.1034609747826)"></circle><circle r="1.2162615336484093" fill="rgb(255, 251, 193)" stroke="black" stroke-width="1px" transform="translate(200.70464579107653,373.36974307937123)"></circle><circle r="1.2162615336484093" fill="rgb(255, 254, 202)" stroke="black" stroke-width="1px" transform="translate(218.88791725000718,207.27716747926118)"></circle><circle r="1.2162615336484093" fill="rgb(255, 254, 203)" stroke="black" stroke-width="1px" transform="translate(143.26027567483868,230.08158975435472)"></circle><circle r="1.2162615336484093" fill="rgb(255, 253, 199)" stroke="black" stroke-width="1px" transform="translate(209.52131079851512,260.872548557229)"></circle><circle r="1.2162615336484093" fill="rgb(255, 255, 203)" stroke="black" stroke-width="1px" transform="translate(343.06284057357794,376.52228489366667)"></circle><circle r="1.2162615336484093" fill="rgb(255, 253, 200)" stroke="black" stroke-width="1px" transform="translate(208.64862968055994,235.55989094621938)"></circle><circle r="0.8600267781391403" fill="rgb(255, 255, 204)" stroke="black" stroke-width="1px" transform="translate(331.65763708189286,380.903949176133)"></circle><circle r="0.8600267781391403" fill="rgb(255, 255, 204)" stroke="black" stroke-width="1px" transform="translate(232.45775059960337,416.18356405340086)"></circle><circle r="0.8600267781391403" fill="rgb(255, 255, 204)" stroke="black" stroke-width="1px" transform="translate(290.5129369255837,187.94240537917617)"></circle><circle r="0.8600267781391403" fill="rgb(255, 255, 204)" stroke="black" stroke-width="1px" transform="translate(333.66229492633437,213.51230105387327)"></circle><circle r="0.8600267781391403" fill="rgb(255, 255, 204)" stroke="black" stroke-width="1px" transform="translate(155.53632017277062,220.93565173737022)"></circle><circle r="0.8600267781391403" fill="rgb(255, 255, 204)" stroke="black" stroke-width="1px" transform="translate(361.0812609133446,310.35725400185294)"></circle><circle r="0.8600267781391403" fill="rgb(255, 255, 204)" stroke="black" stroke-width="1px" transform="translate(130.980731960629,252.47472227199958)"></circle><circle r="0.8600267781391403" fill="rgb(255, 255, 204)" stroke="black" stroke-width="1px" transform="translate(346.3800658034204,366.35717116696645)"></circle><circle r="0.8600267781391403" fill="rgb(255, 255, 204)" stroke="black" stroke-width="1px" transform="translate(167.77457686608582,211.73366045425854)"></circle><circle r="0.8600267781391403" fill="rgb(255, 255, 204)" stroke="black" stroke-width="1px" transform="translate(319.8430189652436,206.5568214545596)"></circle><circle r="0.8600267781391403" fill="rgb(255, 254, 203)" stroke="black" stroke-width="1px" transform="translate(282.55959299269006,177.28330846477783)"></circle><circle r="0.8600267781391403" fill="rgb(255, 255, 204)" stroke="black" stroke-width="1px" transform="translate(216.19920829885152,414.5741211814629)"></circle><circle r="0.8600267781391403" fill="rgb(255, 254, 202)" stroke="black" stroke-width="1px" transform="translate(148.52216073831877,357.3275692944463)"></circle><circle r="0.8600267781391403" fill="rgb(255, 255, 203)" stroke="black" stroke-width="1px" transform="translate(137.38848405983097,240.3816546194348)"></circle><circle r="0.8600267781391403" fill="rgb(255, 255, 203)" stroke="black" stroke-width="1px" transform="translate(311.1277777110434,198.92851025253663)"></circle><circle r="0.8600267781391403" fill="rgb(255, 255, 203)" stroke="black" stroke-width="1px" transform="translate(294.8311795575481,177.88200189377903)"></circle><circle r="0.8600267781391403" fill="rgb(255, 255, 203)" stroke="black" stroke-width="1px" transform="translate(364.18023509787696,323.5771928123104)"></circle><circle r="0.8600267781391403" fill="rgb(255, 255, 204)" stroke="black" stroke-width="1px" transform="translate(368.8823608719846,-7.496106718223972)"></circle><circle r="0.8600267781391403" fill="rgb(255, 255, 204)" stroke="black" stroke-width="1px" transform="translate(385.4414621743441,-2.261669236162527)"></circle><circle r="0.8600267781391403" fill="rgb(255, 254, 202)" stroke="black" stroke-width="1px" transform="translate(408.5044119767721,8.706407071900951)"></circle><circle r="0.8600267781391403" fill="rgb(255, 254, 200)" stroke="black" stroke-width="1px" transform="translate(380.4473913827706,-12.105353966133366)"></circle><circle r="0.8600267781391403" fill="rgb(255, 254, 201)" stroke="black" stroke-width="1px" transform="translate(247.73600319321795,303.67762213433457)"></circle><circle r="0.8600267781391403" fill="rgb(255, 255, 203)" stroke="black" stroke-width="1px" transform="translate(177.46076840419602,203.5286061398143)"></circle><circle r="0.8600267781391403" fill="rgb(255, 255, 204)" stroke="black" stroke-width="1px" transform="translate(306.0476969808292,181.0485250558475)"></circle><circle r="0.8600267781391403" fill="rgb(255, 255, 203)" stroke="black" stroke-width="1px" transform="translate(315.1126730325372,187.54962955223772)"></circle><circle r="0.8600267781391403" fill="rgb(255, 254, 202)" stroke="black" stroke-width="1px" transform="translate(291.0687455447038,309.6307506155058)"></circle><circle r="0.8600267781391403" fill="rgb(255, 255, 204)" stroke="black" stroke-width="1px" transform="translate(323.77063936787374,194.44752846740334)"></circle><circle r="0.8600267781391403" fill="rgb(255, 254, 203)" stroke="black" stroke-width="1px" transform="translate(293.7772876850857,299.99925357847036)"></circle><circle r="0.8600267781391403" fill="rgb(255, 252, 197)" stroke="black" stroke-width="1px" transform="translate(223.96338942731228,199.13757358779228)"></circle><circle r="0.8600267781391403" fill="rgb(255, 254, 202)" stroke="black" stroke-width="1px" transform="translate(222.39925195589632,272.62994724804975)"></circle><circle r="0.8600267781391403" fill="rgb(255, 254, 202)" stroke="black" stroke-width="1px" transform="translate(140.28999910072602,297.538706983671)"></circle><circle r="0.8600267781391403" fill="rgb(255, 254, 203)" stroke="black" stroke-width="1px" transform="translate(146.0237389933747,270.7681331712537)"></circle><circle r="0.8600267781391403" fill="rgb(255, 255, 203)" stroke="black" stroke-width="1px" transform="translate(330.75951829337714,203.09350929671504)"></circle><circle r="0.8600267781391403" fill="rgb(255, 255, 204)" stroke="black" stroke-width="1px" transform="translate(125.5966865074808,243.4411255453125)"></circle><circle r="0.8600267781391403" fill="rgb(255, 255, 204)" stroke="black" stroke-width="1px" transform="translate(144.63719969157668,217.35836792486788)"></circle><circle r="0.8600267781391403" fill="rgb(255, 254, 201)" stroke="black" stroke-width="1px" transform="translate(135.26325029535454,275.25775210022704)"></circle><circle r="0.8600267781391403" fill="rgb(255, 239, 165)" stroke="black" stroke-width="1px" transform="translate(211.8844170834646,321.0820578913269)"></circle><circle r="0.8600267781391403" fill="rgb(255, 255, 204)" stroke="black" stroke-width="1px" transform="translate(370.82030806312724,314.7719383530066)"></circle><circle r="0.8600267781391403" fill="rgb(255, 255, 203)" stroke="black" stroke-width="1px" transform="translate(155.98187968865543,209.04264541820908)"></circle><circle r="0.8600267781391403" fill="rgb(255, 254, 202)" stroke="black" stroke-width="1px" transform="translate(365.704530613159,299.93852800064855)"></circle><circle r="0.8600267781391403" fill="rgb(255, 255, 203)" stroke="black" stroke-width="1px" transform="translate(132.40075315840278,223.7649465310007)"></circle><circle r="0.8600267781391403" fill="rgb(255, 255, 204)" stroke="black" stroke-width="1px" transform="translate(168.03129472865888,198.7121564019504)"></circle><circle r="0.8600267781391403" fill="rgb(255, 255, 203)" stroke="black" stroke-width="1px" transform="translate(126.80123636653889,232.2615669698222)"></circle><circle r="0.8600267781391403" fill="rgb(255, 255, 204)" stroke="black" stroke-width="1px" transform="translate(144.5940802117892,204.7250107572925)"></circle><circle r="0.8600267781391403" fill="rgb(255, 254, 203)" stroke="black" stroke-width="1px" transform="translate(134.60404587035998,213.06257026679594)"></circle><circle r="0.8600267781391403" fill="rgb(255, 252, 197)" stroke="black" stroke-width="1px" transform="translate(208.98813683997284,225.53885046335452)"></circle><circle r="0.8600267781391403" fill="rgb(255, 247, 185)" stroke="black" stroke-width="1px" transform="translate(221.50203715560855,288.5857691732952)"></circle><circle r="0.8600267781391403" fill="rgb(255, 255, 204)" stroke="black" stroke-width="1px" transform="translate(156.78662416470019,198.32774572716158)"></circle><circle r="0.8600267781391403" fill="rgb(255, 250, 192)" stroke="black" stroke-width="1px" transform="translate(236.70958936651914,273.2593580444564)"></circle><circle r="0.8600267781391403" fill="rgb(255, 255, 203)" stroke="black" stroke-width="1px" transform="translate(270.5190984161231,403.0657162061232)"></circle><circle r="0.8600267781391403" fill="rgb(255, 254, 200)" stroke="black" stroke-width="1px" transform="translate(235.25384899103685,327.16428313109344)"></circle><circle r="0.8600267781391403" fill="rgb(255, 253, 200)" stroke="black" stroke-width="1px" transform="translate(256.8777543508696,293.56767827654426)"></circle><circle r="0.8600267781391403" fill="rgb(255, 255, 203)" stroke="black" stroke-width="1px" transform="translate(144.12006838884065,282.74406777247106)"></circle><circle r="0.8600267781391403" fill="rgb(255, 255, 203)" stroke="black" stroke-width="1px" transform="translate(234.54273017311323,254.19145775343878)"></circle><circle r="0.8600267781391403" fill="rgb(255, 255, 203)" stroke="black" stroke-width="1px" transform="translate(222.20063121402825,247.60087358091963)"></circle><circle r="0.8600267781391403" fill="rgb(255, 253, 199)" stroke="black" stroke-width="1px" transform="translate(259.8374716327068,304.3924461267119)"></circle><circle r="0.8600267781391403" fill="rgb(255, 246, 183)" stroke="black" stroke-width="1px" transform="translate(337.8235866515301,263.55092937664165)"></circle><circle r="0.8600267781391403" fill="rgb(255, 254, 202)" stroke="black" stroke-width="1px" transform="translate(226.75315207110933,237.39516612869812)"></circle><circle r="0.8600267781391403" fill="rgb(255, 254, 202)" stroke="black" stroke-width="1px" transform="translate(235.58672313489114,244.02276851179406)"></circle><circle r="0.8600267781391403" fill="rgb(255, 255, 204)" stroke="black" stroke-width="1px" transform="translate(268.1476984853848,197.01991666026288)"></circle><circle r="0.8600267781391403" fill="rgb(255, 255, 203)" stroke="black" stroke-width="1px" transform="translate(261.6192263397257,188.8953320211278)"></circle><circle r="0.8600267781391403" fill="rgb(255, 255, 203)" stroke="black" stroke-width="1px" transform="translate(325.356197199805,281.46351571747186)"></circle><circle r="0.8600267781391403" fill="rgb(255, 255, 204)" stroke="black" stroke-width="1px" transform="translate(270.2800781557925,180.53904254939673)"></circle><circle r="0.8600267781391403" fill="rgb(255, 255, 204)" stroke="black" stroke-width="1px" transform="translate(355.28678103673303,352.12630627386807)"></circle><circle r="0.8600267781391403" fill="rgb(255, 255, 204)" stroke="black" stroke-width="1px" transform="translate(356.2660146769886,363.0923622105425)"></circle><circle r="0.8600267781391403" fill="rgb(255, 255, 204)" stroke="black" stroke-width="1px" transform="translate(282.762625762942,198.36445906845123)"></circle><circle r="0.8600267781391403" fill="rgb(255, 255, 204)" stroke="black" stroke-width="1px" transform="translate(277.8417379252575,188.25636571316934)"></circle><circle r="0.8600267781391403" fill="rgb(255, 255, 203)" stroke="black" stroke-width="1px" transform="translate(307.06983141265124,209.6296170217847)"></circle><circle r="0.8600267781391403" fill="rgb(255, 255, 203)" stroke="black" stroke-width="1px" transform="translate(140.9405037888583,345.3626049171024)"></circle><circle r="0.8600267781391403" fill="rgb(255, 253, 200)" stroke="black" stroke-width="1px" transform="translate(250.91382814786743,323.4630253555929)"></circle><circle r="0.8600267781391403" fill="rgb(255, 254, 202)" stroke="black" stroke-width="1px" transform="translate(195.80901804880574,363.3179191856527)"></circle><circle r="0.8600267781391403" fill="rgb(255, 255, 204)" stroke="black" stroke-width="1px" transform="translate(149.29147481596172,319.11470353077385)"></circle><circle r="0.8600267781391403" fill="rgb(255, 255, 204)" stroke="black" stroke-width="1px" transform="translate(145.5120351212252,308.54945923529107)"></circle><circle r="0.8600267781391403" fill="rgb(255, 253, 198)" stroke="black" stroke-width="1px" transform="translate(179.71375217206085,382.4034670815693)"></circle><circle r="2.580080334417421" fill="rgb(255, 228, 142)" stroke="black" stroke-width="1px" transform="translate(186.25092236253093,328.94544188455245)"></circle><circle r="2.4325230672968186" fill="rgb(254, 225, 137)" stroke="black" stroke-width="1px" transform="translate(229.30439000713173,371.37812078133743)"></circle><circle r="1.2162615336484093" fill="rgb(255, 233, 152)" stroke="black" stroke-width="1px" transform="translate(276.6862677985474,299.73002225756005)"></circle><circle r="0.8600267781391403" fill="rgb(255, 229, 144)" stroke="black" stroke-width="1px" transform="translate(370.21941332215147,40.5167746109883)"></circle><circle r="2.4325230672968186" fill="rgb(254, 197, 97)" stroke="black" stroke-width="1px" transform="translate(255.24196353339858,360.38551003522895)"></circle><circle r="1.923078338389248" fill="rgb(254, 201, 102)" stroke="black" stroke-width="1px" transform="translate(267.32699631128315,341.59896459594955)"></circle><circle r="1.923078338389248" fill="rgb(254, 165, 72)" stroke="black" stroke-width="1px" transform="translate(191.5442166719807,299.46777736838294)"></circle><circle r="1.2162615336484093" fill="rgb(253, 155, 66)" stroke="black" stroke-width="1px" transform="translate(314.7376256977355,315.53069905150716)"></circle><circle r="2.4325230672968186" fill="rgb(251, 99, 48)" stroke="black" stroke-width="1px" transform="translate(280.0110705435986,240.11996328897536)"></circle><circle r="0.8600267781391403" fill="rgb(247, 75, 41)" stroke="black" stroke-width="1px" transform="translate(308.7835062942341,341.06510636793973)"></circle><circle r="1.2162615336484093" fill="rgb(157, 0, 38)" stroke="black" stroke-width="1px" transform="translate(180.54980165948277,255.83418199437557)"></circle></g></g><g><text x="505" y="495" font-family="sans-serif" text-anchor="end" font-size="10px" fill="red">116 nodes</text><text x="505" y="505" font-family="sans-serif" text-anchor="end" font-size="10px" fill="red">273 edges</text></g></svg>