<svg height="512" width="512" style="border-style: solid; border-width: 1px; cursor: auto;" id="figure"><g transform="translate(-1140.1875242612605,-1160.0524224447363) scale(5.290643364383959)"><g class="links"><line stroke-width="0.09450646463262788" stroke="lightgray" x1="228.01998461798314" y1="314.0765768190778" x2="238.03359060495117" y2="282.44380433805964"></line><line stroke-width="1.7906418951849568" stroke="lightgray" x1="233.45005442628687" y1="246.6567963012118" x2="266.5061252621964" y2="257.3767768842351"></line><line stroke-width="0.18901292926525576" stroke="lightgray" x1="233.45005442628687" y1="246.6567963012118" x2="243.91395983926725" y2="221.0860063073677"></line><line stroke-width="0.16368999838742265" stroke="lightgray" x1="233.45005442628687" y1="246.6567963012118" x2="238.03359060495117" y2="282.44380433805964"></line><line stroke-width="0.7441446466623307" stroke="lightgray" x1="233.45005442628687" y1="246.6567963012118" x2="258.79230087909883" y2="222.29612989287847"></line><line stroke-width="0.13365232401539562" stroke="lightgray" x1="233.45005442628687" y1="246.6567963012118" x2="272.102608292331" y2="228.72148173082462"></line><line stroke-width="0.3780258585305115" stroke="lightgray" x1="266.5061252621964" y1="257.3767768842351" x2="243.91395983926725" y2="221.0860063073677"></line><line stroke-width="0.2988556818492522" stroke="lightgray" x1="266.5061252621964" y1="257.3767768842351" x2="238.03359060495117" y2="282.44380433805964"></line><line stroke-width="0.5261897258386014" stroke="lightgray" x1="266.5061252621964" y1="257.3767768842351" x2="258.79230087909883" y2="222.29612989287847"></line><line stroke-width="0.13365232401539562" stroke="lightgray" x1="266.5061252621964" y1="257.3767768842351" x2="272.102608292331" y2="228.72148173082462"></line><line stroke-width="0.09450646463262788" stroke="lightgray" x1="266.5061252621964" y1="257.3767768842351" x2="299.17718357089296" y2="267.34493119426423"></line></g><g class="nodes"><circle r="0.18901292926525576" fill="rgb(247, 252, 253)" stroke="black" stroke-width="1px" transform="translate(228.01998461798314,314.0765768190778)"></circle><circle r="2.2916599774239175" fill="rgb(81, 1, 78)" stroke="black" stroke-width="1px" transform="translate(233.45005442628687,246.6567963012118)"></circle><circle r="2.0791422219178135" fill="rgb(81, 1, 78)" stroke="black" stroke-width="1px" transform="translate(266.5061252621964,257.3767768842351)"></circle><circle r="1.1497207638766056" fill="rgb(83, 2, 81)" stroke="black" stroke-width="1px" transform="translate(238.03359060495117,282.44380433805964)"></circle><circle r="0.6547599935496906" fill="rgb(81, 1, 78)" stroke="black" stroke-width="1px" transform="translate(258.79230087909883,222.29612989287847)"></circle><circle r="0.5000812054117092" fill="rgb(81, 1, 78)" stroke="black" stroke-width="1px" transform="translate(243.91395983926725,221.0860063073677)"></circle><circle r="0.4226457584634713" fill="rgb(80, 1, 78)" stroke="black" stroke-width="1px" transform="translate(299.17718357089296,267.34493119426423)"></circle><circle r="0.26730464803079124" fill="rgb(81, 1, 78)" stroke="black" stroke-width="1px" transform="translate(272.102608292331,228.72148173082462)"></circle></g></g><g><text x="505" y="495" font-family="sans-serif" text-anchor="end" font-size="10px" fill="red">8 nodes</text><text x="505" y="505" font-family="sans-serif" text-anchor="end" font-size="10px" fill="red">11 edges</text></g></svg>