<svg height="512" width="512" style="border-style: solid; border-width: 1px; cursor: auto;" id="figure"><g transform="translate(-95.82994560728059,-44.84445844207545) scale(1.0027821333447229)"><g class="links"><line stroke-width="1.7977739907660089" stroke="lightgray" x1="383.07470817081463" y1="224.79095080902965" x2="277.91534114480817" y2="282.4532922923083"></line><line stroke-width="0.7051449738419581" stroke="lightgray" x1="383.07470817081463" y1="224.79095080902965" x2="286.1857429844341" y2="182.75504025331375"></line><line stroke-width="1.31920545006114" stroke="lightgray" x1="383.07470817081463" y1="224.79095080902965" x2="333.88745617920335" y2="219.26707186900873"></line><line stroke-width="0.4986127927232592" stroke="lightgray" x1="383.07470817081463" y1="224.79095080902965" x2="478.5266086540346" y2="231.07320164020786"></line><line stroke-width="0.4986127927232592" stroke="lightgray" x1="383.07470817081463" y1="224.79095080902965" x2="427.07495480190846" y2="215.5391764898478"></line><line stroke-width="0.7051449738419581" stroke="lightgray" x1="277.91534114480817" y1="282.4532922923083" x2="284.21869859263205" y2="338.66110530354644"></line><line stroke-width="0.7051449738419581" stroke="lightgray" x1="277.91534114480817" y1="282.4532922923083" x2="242.68685445628498" y2="295.94126740044624"></line><line stroke-width="1.11493209898022" stroke="lightgray" x1="277.91534114480817" y1="282.4532922923083" x2="314.4062310527177" y2="324.42006546871977"></line><line stroke-width="0.4986127927232592" stroke="lightgray" x1="277.91534114480817" y1="282.4532922923083" x2="324.8048047269495" y2="313.5190524833491"></line><line stroke-width="8.54942844977269" stroke="lightgray" x1="277.91534114480817" y1="282.4532922923083" x2="255.15071101952293" y2="128.21918477214362"></line><line stroke-width="2.949833062624913" stroke="lightgray" x1="277.91534114480817" y1="282.4532922923083" x2="228.70014172463448" y2="197.66414132449304"></line><line stroke-width="0.4986127927232592" stroke="lightgray" x1="277.91534114480817" y1="282.4532922923083" x2="202.96475309592898" y2="281.18628608899644"></line><line stroke-width="0.4986127927232592" stroke="lightgray" x1="277.91534114480817" y1="282.4532922923083" x2="234.50957319083892" y2="287.1626318938213"></line><line stroke-width="0.4986127927232592" stroke="lightgray" x1="277.91534114480817" y1="282.4532922923083" x2="261.4203101393474" y2="248.2249604737207"></line><line stroke-width="0.4986127927232592" stroke="lightgray" x1="277.91534114480817" y1="282.4532922923083" x2="289.73879282100495" y2="317.5755163118693"></line><line stroke-width="0.7051449738419581" stroke="lightgray" x1="277.91534114480817" y1="282.4532922923083" x2="328.77381695286624" y2="272.4031600736459"></line><line stroke-width="0.4986127927232592" stroke="lightgray" x1="277.91534114480817" y1="282.4532922923083" x2="242.13139017298082" y2="266.03839927040974"></line><line stroke-width="0.4986127927232592" stroke="lightgray" x1="277.91534114480817" y1="282.4532922923083" x2="274.90667717241956" y2="319.89019894792716"></line><line stroke-width="0.4986127927232592" stroke="lightgray" x1="277.91534114480817" y1="282.4532922923083" x2="246.89834242516662" y2="307.60180202677805"></line><line stroke-width="0.9972255854465184" stroke="lightgray" x1="277.91534114480817" y1="282.4532922923083" x2="199.47233858731184" y2="295.28252020130265"></line><line stroke-width="0.4986127927232592" stroke="lightgray" x1="277.91534114480817" y1="282.4532922923083" x2="250.16070236899068" y2="256.28602375689275"></line><line stroke-width="0.4986127927232592" stroke="lightgray" x1="277.91534114480817" y1="282.4532922923083" x2="264.7730098092042" y2="325.060921859119"></line><line stroke-width="0.4986127927232592" stroke="lightgray" x1="277.91534114480817" y1="282.4532922923083" x2="259.7625129794082" y2="313.72243676914843"></line><line stroke-width="0.4986127927232592" stroke="lightgray" x1="277.91534114480817" y1="282.4532922923083" x2="312.1182792817282" y2="267.80990058191384"></line><line stroke-width="0.7051449738419581" stroke="lightgray" x1="277.91534114480817" y1="282.4532922923083" x2="232.8404726632373" y2="300.8977716760452"></line><line stroke-width="0.4986127927232592" stroke="lightgray" x1="277.91534114480817" y1="282.4532922923083" x2="286.68888131024244" y2="246.40086738795245"></line><line stroke-width="0.4986127927232592" stroke="lightgray" x1="277.91534114480817" y1="282.4532922923083" x2="299.33838640957805" y2="246.6232683175385"></line><line stroke-width="0.8636226903004943" stroke="lightgray" x1="277.91534114480817" y1="282.4532922923083" x2="253.64023124763628" y2="471.5445106757393"></line><line stroke-width="0.4986127927232592" stroke="lightgray" x1="277.91534114480817" y1="282.4532922923083" x2="317.52149291474973" y2="300.172065421873"></line><line stroke-width="0.4986127927232592" stroke="lightgray" x1="277.91534114480817" y1="282.4532922923083" x2="314.463376721184" y2="313.35668772749915"></line><line stroke-width="0.9972255854465184" stroke="lightgray" x1="277.91534114480817" y1="282.4532922923083" x2="329.8351312099347" y2="302.89550257513275"></line><line stroke-width="8.707898064718188" stroke="lightgray" x1="277.91534114480817" y1="282.4532922923083" x2="155.53876456092087" y2="184.8240488611636"></line><line stroke-width="0.8636226903004943" stroke="lightgray" x1="277.91534114480817" y1="282.4532922923083" x2="303.55480360885656" y2="221.77220464809008"></line><line stroke-width="3.6640407641882953" stroke="lightgray" x1="277.91534114480817" y1="282.4532922923083" x2="210.52196146140798" y2="158.03815811590002"></line><line stroke-width="1.4102899476839161" stroke="lightgray" x1="277.91534114480817" y1="282.4532922923083" x2="348.84019746659305" y2="393.2762582816645"></line><line stroke-width="0.8636226903004943" stroke="lightgray" x1="277.91534114480817" y1="282.4532922923083" x2="206.94042816296866" y2="235.58062361327762"></line><line stroke-width="0.4986127927232592" stroke="lightgray" x1="277.91534114480817" y1="282.4532922923083" x2="314.14263212383474" y2="368.14448269793326"></line><line stroke-width="0.7051449738419581" stroke="lightgray" x1="277.91534114480817" y1="282.4532922923083" x2="238.91383212013523" y2="277.03059263603376"></line><line stroke-width="1.7272453806009886" stroke="lightgray" x1="277.91534114480817" y1="282.4532922923083" x2="286.1857429844341" y2="182.75504025331375"></line><line stroke-width="0.4986127927232592" stroke="lightgray" x1="277.91534114480817" y1="282.4532922923083" x2="240.8309726764113" y2="324.91527353128504"></line><line stroke-width="0.4986127927232592" stroke="lightgray" x1="277.91534114480817" y1="282.4532922923083" x2="315.8436061561528" y2="253.44518209592394"></line><line stroke-width="0.8636226903004943" stroke="lightgray" x1="277.91534114480817" y1="282.4532922923083" x2="333.88745617920335" y2="219.26707186900873"></line><line stroke-width="0.9972255854465184" stroke="lightgray" x1="277.91534114480817" y1="282.4532922923083" x2="249.45726517869335" y2="319.316716644814"></line><line stroke-width="0.7051449738419581" stroke="lightgray" x1="277.91534114480817" y1="282.4532922923083" x2="274.34199313397414" y2="244.26166555595367"></line><line stroke-width="0.4986127927232592" stroke="lightgray" x1="277.91534114480817" y1="282.4532922923083" x2="312.95400933989794" y2="289.5304852855277"></line><line stroke-width="0.4986127927232592" stroke="lightgray" x1="277.91534114480817" y1="282.4532922923083" x2="305.3598079572192" y2="305.5053605086985"></line><line stroke-width="0.4986127927232592" stroke="lightgray" x1="277.91534114480817" y1="282.4532922923083" x2="235.74682455576735" y2="312.4215888533212"></line><line stroke-width="0.4986127927232592" stroke="lightgray" x1="277.91534114480817" y1="282.4532922923083" x2="323.2953234205967" y2="262.66516394149477"></line><line stroke-width="0.4986127927232592" stroke="lightgray" x1="277.91534114480817" y1="282.4532922923083" x2="252.96921790297117" y2="331.00251854244107"></line><line stroke-width="0.4986127927232592" stroke="lightgray" x1="277.91534114480817" y1="282.4532922923083" x2="305.0402732866072" y2="255.98949589990406"></line><line stroke-width="0.4986127927232592" stroke="lightgray" x1="277.91534114480817" y1="282.4532922923083" x2="318.90250124832596" y2="279.0227410120018"></line><line stroke-width="0.4986127927232592" stroke="lightgray" x1="277.91534114480817" y1="282.4532922923083" x2="262.4860553798779" y2="336.7972714746254"></line><line stroke-width="0.4986127927232592" stroke="lightgray" x1="277.91534114480817" y1="282.4532922923083" x2="332.69635386164333" y2="283.4877107988137"></line><line stroke-width="0.4986127927232592" stroke="lightgray" x1="277.91534114480817" y1="282.4532922923083" x2="328.00693885831413" y2="292.24653807407145"></line><line stroke-width="0.4986127927232592" stroke="lightgray" x1="277.91534114480817" y1="282.4532922923083" x2="301.78901189888325" y2="317.5820383171701"></line><line stroke-width="0.4986127927232592" stroke="lightgray" x1="277.91534114480817" y1="282.4532922923083" x2="287.1595772367999" y2="221.76995351388516"></line><line stroke-width="0.4986127927232592" stroke="lightgray" x1="277.91534114480817" y1="282.4532922923083" x2="273.3916143817043" y2="336.33720124650984"></line><line stroke-width="0.4986127927232592" stroke="lightgray" x1="277.91534114480817" y1="282.4532922923083" x2="284.0968221069835" y2="327.7818539610448"></line><line stroke-width="0.4986127927232592" stroke="lightgray" x1="277.91534114480817" y1="282.4532922923083" x2="304.1216500117609" y2="329.1382785557739"></line><line stroke-width="0.4986127927232592" stroke="lightgray" x1="277.91534114480817" y1="282.4532922923083" x2="294.95021227194127" y2="333.14475276535495"></line><line stroke-width="0.7051449738419581" stroke="lightgray" x1="333.88745617920335" y1="219.26707186900873" x2="286.1857429844341" y2="182.75504025331375"></line><line stroke-width="0.4986127927232592" stroke="lightgray" x1="286.1857429844341" y1="182.75504025331375" x2="303.55480360885656" y2="221.77220464809008"></line><line stroke-width="2.22986419796044" stroke="lightgray" x1="286.1857429844341" y1="182.75504025331375" x2="255.15071101952293" y2="128.21918477214362"></line><line stroke-width="2.1734027754372796" stroke="lightgray" x1="286.1857429844341" y1="182.75504025331375" x2="155.53876456092087" y2="184.8240488611636"></line><line stroke-width="0.4986127927232592" stroke="lightgray" x1="286.1857429844341" y1="182.75504025331375" x2="287.1595772367999" y2="221.76995351388516"></line><line stroke-width="0.4986127927232592" stroke="lightgray" x1="286.1857429844341" y1="182.75504025331375" x2="319.234067934221" y2="154.60020738186378"></line><line stroke-width="0.4986127927232592" stroke="lightgray" x1="286.1857429844341" y1="182.75504025331375" x2="210.52196146140798" y2="158.03815811590002"></line><line stroke-width="0.8636226903004943" stroke="lightgray" x1="478.5266086540346" y1="231.07320164020786" x2="558.1027140895724" y2="242.47804305890614"></line><line stroke-width="1.31920545006114" stroke="lightgray" x1="155.53876456092087" y1="184.8240488611636" x2="118.03288181485969" y2="172.22819695535676"></line><line stroke-width="0.4986127927232592" stroke="lightgray" x1="155.53876456092087" y1="184.8240488611636" x2="131.43847377145173" y2="152.93111094217284"></line><line stroke-width="0.4986127927232592" stroke="lightgray" x1="155.53876456092087" y1="184.8240488611636" x2="116.77864184240713" y2="194.55263556050235"></line><line stroke-width="0.4986127927232592" stroke="lightgray" x1="155.53876456092087" y1="184.8240488611636" x2="122.76462456895013" y2="218.44412611587853"></line><line stroke-width="0.4986127927232592" stroke="lightgray" x1="155.53876456092087" y1="184.8240488611636" x2="114.3097041238613" y2="183.1303251922603"></line><line stroke-width="0.7051449738419581" stroke="lightgray" x1="155.53876456092087" y1="184.8240488611636" x2="122.36843711703511" y2="161.18490136671875"></line><line stroke-width="0.7051449738419581" stroke="lightgray" x1="155.53876456092087" y1="184.8240488611636" x2="173.3147651616889" y2="137.47492829442788"></line><line stroke-width="0.4986127927232592" stroke="lightgray" x1="155.53876456092087" y1="184.8240488611636" x2="106.0791763217604" y2="200.34536026315124"></line><line stroke-width="0.7051449738419581" stroke="lightgray" x1="155.53876456092087" y1="184.8240488611636" x2="106.09305224969975" y2="167.07812893124233"></line><line stroke-width="0.4986127927232592" stroke="lightgray" x1="155.53876456092087" y1="184.8240488611636" x2="102.83472689192575" y2="189.15718852468032"></line><line stroke-width="0.7051449738419581" stroke="lightgray" x1="155.53876456092087" y1="184.8240488611636" x2="102.60661208977325" y2="177.80144424706236"></line><line stroke-width="0.4986127927232592" stroke="lightgray" x1="155.53876456092087" y1="184.8240488611636" x2="149.82493303704914" y2="258.9243467156438"></line><line stroke-width="0.4986127927232592" stroke="lightgray" x1="155.53876456092087" y1="184.8240488611636" x2="228.70014172463448" y2="197.66414132449304"></line><line stroke-width="5.109260738312855" stroke="lightgray" x1="155.53876456092087" y1="184.8240488611636" x2="210.52196146140798" y2="158.03815811590002"></line><line stroke-width="0.4986127927232592" stroke="lightgray" x1="155.53876456092087" y1="184.8240488611636" x2="111.77137082933926" y2="211.01124700498227"></line><line stroke-width="1.2213469213960981" stroke="lightgray" x1="155.53876456092087" y1="184.8240488611636" x2="110.74715572963512" y2="156.36566700797698"></line><line stroke-width="4.756462893066989" stroke="lightgray" x1="155.53876456092087" y1="184.8240488611636" x2="255.15071101952293" y2="128.21918477214362"></line><line stroke-width="0.4986127927232592" stroke="lightgray" x1="155.53876456092087" y1="184.8240488611636" x2="200.47004751598493" y2="141.70115845915927"></line><line stroke-width="0.4986127927232592" stroke="lightgray" x1="155.53876456092087" y1="184.8240488611636" x2="165.82704934402153" y2="150.50233636154354"></line><line stroke-width="0.8636226903004943" stroke="lightgray" x1="155.53876456092087" y1="184.8240488611636" x2="133.03984832818333" y2="142.6348237469475"></line><line stroke-width="1.4102899476839161" stroke="lightgray" x1="155.53876456092087" y1="184.8240488611636" x2="119.88816616949492" y2="148.18742127620683"></line><line stroke-width="0.7051449738419581" stroke="lightgray" x1="155.53876456092087" y1="184.8240488611636" x2="206.94042816296866" y2="235.58062361327762"></line><line stroke-width="0.8636226903004943" stroke="lightgray" x1="155.53876456092087" y1="184.8240488611636" x2="176.28323330036642" y2="154.98788239929607"></line><line stroke-width="0.7051449738419581" stroke="lightgray" x1="155.53876456092087" y1="184.8240488611636" x2="158.3590977536362" y2="141.10112162685363"></line><line stroke-width="0.4986127927232592" stroke="lightgray" x1="155.53876456092087" y1="184.8240488611636" x2="162.94593541891106" y2="130.9101482356145"></line><line stroke-width="0.4986127927232592" stroke="lightgray" x1="155.53876456092087" y1="184.8240488611636" x2="122.75964553581625" y2="206.0182110014643"></line><line stroke-width="0.4986127927232592" stroke="lightgray" x1="155.53876456092087" y1="184.8240488611636" x2="134.33763237858122" y2="218.60231268735555"></line><line stroke-width="0.8636226903004943" stroke="lightgray" x1="255.15071101952293" y1="128.21918477214362" x2="288.4948653702435" y2="100.03689490397919"></line><line stroke-width="0.7051449738419581" stroke="lightgray" x1="255.15071101952293" y1="128.21918477214362" x2="274.0897587909539" y2="94.86501071124715"></line><line stroke-width="0.4986127927232592" stroke="lightgray" x1="255.15071101952293" y1="128.21918477214362" x2="283.7536816604441" y2="88.95937345415634"></line><line stroke-width="0.9972255854465184" stroke="lightgray" x1="255.15071101952293" y1="128.21918477214362" x2="228.70014172463448" y2="197.66414132449304"></line><line stroke-width="1.9311190424231537" stroke="lightgray" x1="255.15071101952293" y1="128.21918477214362" x2="236.06260013985886" y2="90.18215045345919"></line><line stroke-width="1.4958383781697777" stroke="lightgray" x1="255.15071101952293" y1="128.21918477214362" x2="256.27908307457744" y2="89.36430471296234"></line><line stroke-width="0.4986127927232592" stroke="lightgray" x1="255.15071101952293" y1="128.21918477214362" x2="270.40316765693586" y2="83.17746924212301"></line><line stroke-width="0.4986127927232592" stroke="lightgray" x1="255.15071101952293" y1="128.21918477214362" x2="293.04135220587074" y2="110.65900351815466"></line><line stroke-width="0.9972255854465184" stroke="lightgray" x1="255.15071101952293" y1="128.21918477214362" x2="258.2540643033723" y2="78.69304840258508"></line><line stroke-width="1.7272453806009886" stroke="lightgray" x1="255.15071101952293" y1="128.21918477214362" x2="200.47004751598493" y2="141.70115845915927"></line><line stroke-width="1.8656382390329669" stroke="lightgray" x1="255.15071101952293" y1="128.21918477214362" x2="210.52196146140798" y2="158.03815811590002"></line><line stroke-width="0.4986127927232592" stroke="lightgray" x1="255.15071101952293" y1="128.21918477214362" x2="244.98529015271205" y2="82.54153947380061"></line><line stroke-width="0.4986127927232592" stroke="lightgray" x1="210.52196146140798" y1="158.03815811590002" x2="173.3147651616889" y2="137.47492829442788"></line><line stroke-width="0.4986127927232592" stroke="lightgray" x1="210.52196146140798" y1="158.03815811590002" x2="176.28323330036642" y2="154.98788239929607"></line><line stroke-width="0.4986127927232592" stroke="lightgray" x1="210.52196146140798" y1="158.03815811590002" x2="165.82704934402153" y2="150.50233636154354"></line><line stroke-width="0.4986127927232592" stroke="lightgray" x1="210.52196146140798" y1="158.03815811590002" x2="158.3590977536362" y2="141.10112162685363"></line><line stroke-width="0.4986127927232592" stroke="lightgray" x1="210.52196146140798" y1="158.03815811590002" x2="209.73702674891194" y2="115.76046205382194"></line><line stroke-width="0.4986127927232592" stroke="lightgray" x1="210.52196146140798" y1="158.03815811590002" x2="195.39192462880885" y2="115.48437086262383"></line><line stroke-width="0.4986127927232592" stroke="lightgray" x1="210.52196146140798" y1="158.03815811590002" x2="162.94593541891106" y2="130.9101482356145"></line><line stroke-width="0.4986127927232592" stroke="lightgray" x1="348.84019746659305" y1="393.2762582816645" x2="372.07335315707917" y2="435.7611473136276"></line><line stroke-width="0.8636226903004943" stroke="lightgray" x1="348.84019746659305" y1="393.2762582816645" x2="384.0497674937234" y2="425.88593307335293"></line><line stroke-width="0.4986127927232592" stroke="lightgray" x1="348.84019746659305" y1="393.2762582816645" x2="345.7722409737471" y2="433.7898992830454"></line><line stroke-width="0.4986127927232592" stroke="lightgray" x1="558.1027140895724" y1="242.47804305890614" x2="600.221662366033" y2="249.61828668671222"></line><line stroke-width="0.9972255854465184" stroke="lightgray" x1="253.64023124763628" y1="471.5445106757393" x2="275.5214901647648" y2="509.5142942110998"></line><line stroke-width="0.4986127927232592" stroke="lightgray" x1="253.64023124763628" y1="471.5445106757393" x2="246.67695452384407" y2="512.1728242813215"></line><line stroke-width="0.4986127927232592" stroke="lightgray" x1="253.64023124763628" y1="471.5445106757393" x2="225.66917469842195" y2="505.59769180181485"></line><line stroke-width="0.8636226903004943" stroke="lightgray" x1="253.64023124763628" y1="471.5445106757393" x2="264.6534958148224" y2="515.1767340339936"></line><line stroke-width="0.4986127927232592" stroke="lightgray" x1="253.64023124763628" y1="471.5445106757393" x2="235.50347712039286" y2="515.1050456408875"></line><line stroke-width="0.4986127927232592" stroke="lightgray" x1="253.64023124763628" y1="471.5445106757393" x2="253.7189804940189" y2="520.594216662649"></line><line stroke-width="0.4986127927232592" stroke="lightgray" x1="199.47233858731184" y1="295.28252020130265" x2="149.82493303704914" y2="258.9243467156438"></line><line stroke-width="0.4986127927232592" stroke="lightgray" x1="202.96475309592898" y1="281.18628608899644" x2="149.82493303704914" y2="258.9243467156438"></line><line stroke-width="0.4986127927232592" stroke="lightgray" x1="314.14263212383474" y1="368.14448269793326" x2="345.7722409737471" y2="433.7898992830454"></line></g><g class="nodes"><circle r="0.9972255854465184" fill="rgb(247, 252, 253)" stroke="black" stroke-width="1px" transform="translate(383.07470817081463,224.79095080902965)"></circle><circle r="3.5955479815320177" fill="rgb(170, 223, 210)" stroke="black" stroke-width="1px" transform="translate(277.91534114480817,282.4532922923083)"></circle><circle r="2.63841090012228" fill="rgb(170, 223, 210)" stroke="black" stroke-width="1px" transform="translate(333.88745617920335,219.26707186900873)"></circle><circle r="1.4102899476839161" fill="rgb(170, 223, 210)" stroke="black" stroke-width="1px" transform="translate(286.1857429844341,182.75504025331375)"></circle><circle r="0.9972255854465184" fill="rgb(170, 223, 210)" stroke="black" stroke-width="1px" transform="translate(478.5266086540346,231.07320164020786)"></circle><circle r="0.9972255854465184" fill="rgb(170, 223, 210)" stroke="black" stroke-width="1px" transform="translate(427.07495480190846,215.5391764898478)"></circle><circle r="8.283577844782497" fill="rgb(55, 162, 102)" stroke="black" stroke-width="1px" transform="translate(155.53876456092087,184.8240488611636)"></circle><circle r="8.22333284272881" fill="rgb(55, 162, 102)" stroke="black" stroke-width="1px" transform="translate(255.15071101952293,128.21918477214362)"></circle><circle r="5.084872719645786" fill="rgb(55, 162, 102)" stroke="black" stroke-width="1px" transform="translate(210.52196146140798,158.03815811590002)"></circle><circle r="3.5955479815320177" fill="rgb(55, 162, 102)" stroke="black" stroke-width="1px" transform="translate(228.70014172463448,197.66414132449304)"></circle><circle r="2.4426938427921963" fill="rgb(55, 162, 102)" stroke="black" stroke-width="1px" transform="translate(348.84019746659305,393.2762582816645)"></circle><circle r="2.22986419796044" fill="rgb(55, 162, 102)" stroke="black" stroke-width="1px" transform="translate(314.4062310527177,324.42006546871977)"></circle><circle r="1.7272453806009886" fill="rgb(55, 162, 102)" stroke="black" stroke-width="1px" transform="translate(558.1027140895724,242.47804305890614)"></circle><circle r="1.7272453806009886" fill="rgb(55, 162, 102)" stroke="black" stroke-width="1px" transform="translate(253.64023124763628,471.5445106757393)"></circle><circle r="1.4102899476839161" fill="rgb(55, 162, 102)" stroke="black" stroke-width="1px" transform="translate(242.68685445628498,295.94126740044624)"></circle><circle r="1.4102899476839161" fill="rgb(55, 162, 102)" stroke="black" stroke-width="1px" transform="translate(199.47233858731184,295.28252020130265)"></circle><circle r="1.4102899476839161" fill="rgb(55, 162, 102)" stroke="black" stroke-width="1px" transform="translate(284.21869859263205,338.66110530354644)"></circle><circle r="1.4102899476839161" fill="rgb(55, 162, 102)" stroke="black" stroke-width="1px" transform="translate(238.91383212013523,277.03059263603376)"></circle><circle r="1.4102899476839161" fill="rgb(55, 162, 102)" stroke="black" stroke-width="1px" transform="translate(328.77381695286624,272.4031600736459)"></circle><circle r="1.4102899476839161" fill="rgb(55, 162, 102)" stroke="black" stroke-width="1px" transform="translate(329.8351312099347,302.89550257513275)"></circle><circle r="1.4102899476839161" fill="rgb(55, 162, 102)" stroke="black" stroke-width="1px" transform="translate(249.45726517869335,319.316716644814)"></circle><circle r="1.4102899476839161" fill="rgb(55, 162, 102)" stroke="black" stroke-width="1px" transform="translate(274.34199313397414,244.26166555595367)"></circle><circle r="1.4102899476839161" fill="rgb(55, 162, 102)" stroke="black" stroke-width="1px" transform="translate(232.8404726632373,300.8977716760452)"></circle><circle r="1.4102899476839161" fill="rgb(55, 162, 102)" stroke="black" stroke-width="1px" transform="translate(206.94042816296866,235.58062361327762)"></circle><circle r="0.9972255854465184" fill="rgb(55, 162, 102)" stroke="black" stroke-width="1px" transform="translate(324.8048047269495,313.5190524833491)"></circle><circle r="0.9972255854465184" fill="rgb(55, 162, 102)" stroke="black" stroke-width="1px" transform="translate(202.96475309592898,281.18628608899644)"></circle><circle r="0.9972255854465184" fill="rgb(55, 162, 102)" stroke="black" stroke-width="1px" transform="translate(234.50957319083892,287.1626318938213)"></circle><circle r="0.9972255854465184" fill="rgb(55, 162, 102)" stroke="black" stroke-width="1px" transform="translate(261.4203101393474,248.2249604737207)"></circle><circle r="0.9972255854465184" fill="rgb(55, 162, 102)" stroke="black" stroke-width="1px" transform="translate(289.73879282100495,317.5755163118693)"></circle><circle r="0.9972255854465184" fill="rgb(55, 162, 102)" stroke="black" stroke-width="1px" transform="translate(242.13139017298082,266.03839927040974)"></circle><circle r="0.9972255854465184" fill="rgb(55, 162, 102)" stroke="black" stroke-width="1px" transform="translate(274.90667717241956,319.89019894792716)"></circle><circle r="0.9972255854465184" fill="rgb(55, 162, 102)" stroke="black" stroke-width="1px" transform="translate(246.89834242516662,307.60180202677805)"></circle><circle r="0.9972255854465184" fill="rgb(55, 162, 102)" stroke="black" stroke-width="1px" transform="translate(250.16070236899068,256.28602375689275)"></circle><circle r="0.9972255854465184" fill="rgb(55, 162, 102)" stroke="black" stroke-width="1px" transform="translate(264.7730098092042,325.060921859119)"></circle><circle r="0.9972255854465184" fill="rgb(55, 162, 102)" stroke="black" stroke-width="1px" transform="translate(259.7625129794082,313.72243676914843)"></circle><circle r="0.9972255854465184" fill="rgb(55, 162, 102)" stroke="black" stroke-width="1px" transform="translate(312.1182792817282,267.80990058191384)"></circle><circle r="0.9972255854465184" fill="rgb(55, 162, 102)" stroke="black" stroke-width="1px" transform="translate(286.68888131024244,246.40086738795245)"></circle><circle r="0.9972255854465184" fill="rgb(55, 162, 102)" stroke="black" stroke-width="1px" transform="translate(299.33838640957805,246.6232683175385)"></circle><circle r="0.9972255854465184" fill="rgb(55, 162, 102)" stroke="black" stroke-width="1px" transform="translate(317.52149291474973,300.172065421873)"></circle><circle r="0.9972255854465184" fill="rgb(55, 162, 102)" stroke="black" stroke-width="1px" transform="translate(314.463376721184,313.35668772749915)"></circle><circle r="0.9972255854465184" fill="rgb(55, 162, 102)" stroke="black" stroke-width="1px" transform="translate(303.55480360885656,221.77220464809008)"></circle><circle r="0.9972255854465184" fill="rgb(55, 162, 102)" stroke="black" stroke-width="1px" transform="translate(314.14263212383474,368.14448269793326)"></circle><circle r="0.9972255854465184" fill="rgb(55, 162, 102)" stroke="black" stroke-width="1px" transform="translate(240.8309726764113,324.91527353128504)"></circle><circle r="0.9972255854465184" fill="rgb(55, 162, 102)" stroke="black" stroke-width="1px" transform="translate(315.8436061561528,253.44518209592394)"></circle><circle r="0.9972255854465184" fill="rgb(55, 162, 102)" stroke="black" stroke-width="1px" transform="translate(262.4860553798779,336.7972714746254)"></circle><circle r="0.9972255854465184" fill="rgb(55, 162, 102)" stroke="black" stroke-width="1px" transform="translate(273.3916143817043,336.33720124650984)"></circle><circle r="0.9972255854465184" fill="rgb(55, 162, 102)" stroke="black" stroke-width="1px" transform="translate(235.74682455576735,312.4215888533212)"></circle><circle r="0.9972255854465184" fill="rgb(55, 162, 102)" stroke="black" stroke-width="1px" transform="translate(323.2953234205967,262.66516394149477)"></circle><circle r="0.9972255854465184" fill="rgb(55, 162, 102)" stroke="black" stroke-width="1px" transform="translate(312.95400933989794,289.5304852855277)"></circle><circle r="0.9972255854465184" fill="rgb(55, 162, 102)" stroke="black" stroke-width="1px" transform="translate(305.3598079572192,305.5053605086985)"></circle><circle r="0.9972255854465184" fill="rgb(55, 162, 102)" stroke="black" stroke-width="1px" transform="translate(252.96921790297117,331.00251854244107)"></circle><circle r="0.9972255854465184" fill="rgb(55, 162, 102)" stroke="black" stroke-width="1px" transform="translate(305.0402732866072,255.98949589990406)"></circle><circle r="0.9972255854465184" fill="rgb(55, 162, 102)" stroke="black" stroke-width="1px" transform="translate(318.90250124832596,279.0227410120018)"></circle><circle r="0.9972255854465184" fill="rgb(55, 162, 102)" stroke="black" stroke-width="1px" transform="translate(284.0968221069835,327.7818539610448)"></circle><circle r="0.9972255854465184" fill="rgb(55, 162, 102)" stroke="black" stroke-width="1px" transform="translate(304.1216500117609,329.1382785557739)"></circle><circle r="0.9972255854465184" fill="rgb(55, 162, 102)" stroke="black" stroke-width="1px" transform="translate(287.1595772367999,221.76995351388516)"></circle><circle r="0.9972255854465184" fill="rgb(55, 162, 102)" stroke="black" stroke-width="1px" transform="translate(319.234067934221,154.60020738186378)"></circle><circle r="0.9972255854465184" fill="rgb(55, 162, 102)" stroke="black" stroke-width="1px" transform="translate(328.00693885831413,292.24653807407145)"></circle><circle r="0.9972255854465184" fill="rgb(55, 162, 102)" stroke="black" stroke-width="1px" transform="translate(301.78901189888325,317.5820383171701)"></circle><circle r="0.9972255854465184" fill="rgb(55, 162, 102)" stroke="black" stroke-width="1px" transform="translate(294.95021227194127,333.14475276535495)"></circle><circle r="0.9972255854465184" fill="rgb(55, 162, 102)" stroke="black" stroke-width="1px" transform="translate(332.69635386164333,283.4877107988137)"></circle><circle r="1.9944511708930368" fill="rgb(0, 68, 27)" stroke="black" stroke-width="1px" transform="translate(275.5214901647648,509.5142942110998)"></circle><circle r="1.7272453806009886" fill="rgb(0, 68, 27)" stroke="black" stroke-width="1px" transform="translate(236.06260013985886,90.18215045345919)"></circle><circle r="1.7272453806009886" fill="rgb(0, 68, 27)" stroke="black" stroke-width="1px" transform="translate(256.27908307457744,89.36430471296234)"></circle><circle r="1.7272453806009886" fill="rgb(0, 68, 27)" stroke="black" stroke-width="1px" transform="translate(264.6534958148224,515.1767340339936)"></circle><circle r="1.4102899476839161" fill="rgb(0, 68, 27)" stroke="black" stroke-width="1px" transform="translate(258.2540643033723,78.69304840258508)"></circle><circle r="1.4102899476839161" fill="rgb(0, 68, 27)" stroke="black" stroke-width="1px" transform="translate(118.03288181485969,172.22819695535676)"></circle><circle r="1.4102899476839161" fill="rgb(0, 68, 27)" stroke="black" stroke-width="1px" transform="translate(122.36843711703511,161.18490136671875)"></circle><circle r="1.4102899476839161" fill="rgb(0, 68, 27)" stroke="black" stroke-width="1px" transform="translate(384.0497674937234,425.88593307335293)"></circle><circle r="0.9972255854465184" fill="rgb(0, 68, 27)" stroke="black" stroke-width="1px" transform="translate(293.04135220587074,110.65900351815466)"></circle><circle r="0.9972255854465184" fill="rgb(0, 68, 27)" stroke="black" stroke-width="1px" transform="translate(134.33763237858122,218.60231268735555)"></circle><circle r="0.9972255854465184" fill="rgb(0, 68, 27)" stroke="black" stroke-width="1px" transform="translate(110.74715572963512,156.36566700797698)"></circle><circle r="0.9972255854465184" fill="rgb(0, 68, 27)" stroke="black" stroke-width="1px" transform="translate(246.67695452384407,512.1728242813215)"></circle><circle r="0.9972255854465184" fill="rgb(0, 68, 27)" stroke="black" stroke-width="1px" transform="translate(122.76462456895013,218.44412611587853)"></circle><circle r="0.9972255854465184" fill="rgb(0, 68, 27)" stroke="black" stroke-width="1px" transform="translate(235.50347712039286,515.1050456408875)"></circle><circle r="0.9972255854465184" fill="rgb(0, 68, 27)" stroke="black" stroke-width="1px" transform="translate(122.75964553581625,206.0182110014643)"></circle><circle r="0.9972255854465184" fill="rgb(0, 68, 27)" stroke="black" stroke-width="1px" transform="translate(116.77864184240713,194.55263556050235)"></circle><circle r="0.9972255854465184" fill="rgb(0, 68, 27)" stroke="black" stroke-width="1px" transform="translate(195.39192462880885,115.48437086262383)"></circle><circle r="0.9972255854465184" fill="rgb(0, 68, 27)" stroke="black" stroke-width="1px" transform="translate(225.66917469842195,505.59769180181485)"></circle><circle r="0.9972255854465184" fill="rgb(0, 68, 27)" stroke="black" stroke-width="1px" transform="translate(173.3147651616889,137.47492829442788)"></circle><circle r="0.9972255854465184" fill="rgb(0, 68, 27)" stroke="black" stroke-width="1px" transform="translate(131.43847377145173,152.93111094217284)"></circle><circle r="0.9972255854465184" fill="rgb(0, 68, 27)" stroke="black" stroke-width="1px" transform="translate(111.77137082933926,211.01124700498227)"></circle><circle r="0.9972255854465184" fill="rgb(0, 68, 27)" stroke="black" stroke-width="1px" transform="translate(158.3590977536362,141.10112162685363)"></circle><circle r="0.9972255854465184" fill="rgb(0, 68, 27)" stroke="black" stroke-width="1px" transform="translate(288.4948653702435,100.03689490397919)"></circle><circle r="0.9972255854465184" fill="rgb(0, 68, 27)" stroke="black" stroke-width="1px" transform="translate(102.83472689192575,189.15718852468032)"></circle><circle r="0.9972255854465184" fill="rgb(0, 68, 27)" stroke="black" stroke-width="1px" transform="translate(119.88816616949492,148.18742127620683)"></circle><circle r="0.9972255854465184" fill="rgb(0, 68, 27)" stroke="black" stroke-width="1px" transform="translate(133.03984832818333,142.6348237469475)"></circle><circle r="0.9972255854465184" fill="rgb(0, 68, 27)" stroke="black" stroke-width="1px" transform="translate(165.82704934402153,150.50233636154354)"></circle><circle r="0.9972255854465184" fill="rgb(0, 68, 27)" stroke="black" stroke-width="1px" transform="translate(270.40316765693586,83.17746924212301)"></circle><circle r="0.9972255854465184" fill="rgb(0, 68, 27)" stroke="black" stroke-width="1px" transform="translate(244.98529015271205,82.54153947380061)"></circle><circle r="0.9972255854465184" fill="rgb(0, 68, 27)" stroke="black" stroke-width="1px" transform="translate(372.07335315707917,435.7611473136276)"></circle><circle r="0.9972255854465184" fill="rgb(0, 68, 27)" stroke="black" stroke-width="1px" transform="translate(149.82493303704914,258.9243467156438)"></circle><circle r="0.9972255854465184" fill="rgb(0, 68, 27)" stroke="black" stroke-width="1px" transform="translate(106.09305224969975,167.07812893124233)"></circle><circle r="0.9972255854465184" fill="rgb(0, 68, 27)" stroke="black" stroke-width="1px" transform="translate(106.0791763217604,200.34536026315124)"></circle><circle r="0.9972255854465184" fill="rgb(0, 68, 27)" stroke="black" stroke-width="1px" transform="translate(176.28323330036642,154.98788239929607)"></circle><circle r="0.9972255854465184" fill="rgb(0, 68, 27)" stroke="black" stroke-width="1px" transform="translate(114.3097041238613,183.1303251922603)"></circle><circle r="0.9972255854465184" fill="rgb(0, 68, 27)" stroke="black" stroke-width="1px" transform="translate(274.0897587909539,94.86501071124715)"></circle><circle r="0.9972255854465184" fill="rgb(0, 68, 27)" stroke="black" stroke-width="1px" transform="translate(345.7722409737471,433.7898992830454)"></circle><circle r="0.9972255854465184" fill="rgb(0, 68, 27)" stroke="black" stroke-width="1px" transform="translate(253.7189804940189,520.594216662649)"></circle><circle r="0.9972255854465184" fill="rgb(0, 68, 27)" stroke="black" stroke-width="1px" transform="translate(209.73702674891194,115.76046205382194)"></circle><circle r="0.9972255854465184" fill="rgb(0, 68, 27)" stroke="black" stroke-width="1px" transform="translate(162.94593541891106,130.9101482356145)"></circle><circle r="0.9972255854465184" fill="rgb(0, 68, 27)" stroke="black" stroke-width="1px" transform="translate(102.60661208977325,177.80144424706236)"></circle><circle r="0.9972255854465184" fill="rgb(0, 68, 27)" stroke="black" stroke-width="1px" transform="translate(600.221662366033,249.61828668671222)"></circle><circle r="0.9972255854465184" fill="rgb(0, 68, 27)" stroke="black" stroke-width="1px" transform="translate(200.47004751598493,141.70115845915927)"></circle><circle r="0.9972255854465184" fill="rgb(0, 68, 27)" stroke="black" stroke-width="1px" transform="translate(283.7536816604441,88.95937345415634)"></circle></g></g><g><text x="505" y="495" font-family="sans-serif" text-anchor="end" font-size="10px" fill="red">105 nodes</text><text x="505" y="505" font-family="sans-serif" text-anchor="end" font-size="10px" fill="red">127 edges</text></g></svg>