<svg height="512" width="512" style="border-style: solid; border-width: 1px; cursor: auto;" id="figure"><g transform="translate(-380.3880195556992,-347.52487665175784) scale(2.51778571169193)"><g class="links"><line stroke-width="0.48643729516145795" stroke="lightgray" x1="193.637558092982" y1="283.914811709156" x2="161.7415011436137" y2="317.1824906683644"></line><line stroke-width="1.588697553340246" stroke="lightgray" x1="193.637558092982" y1="283.914811709156" x2="215.85682590659644" y2="321.0322991277745"></line><line stroke-width="3.725826020890007" stroke="lightgray" x1="193.637558092982" y1="283.914811709156" x2="241.83701316524215" y2="295.79343658933635"></line><line stroke-width="0.3971743883350615" stroke="lightgray" x1="193.637558092982" y1="283.914811709156" x2="207.73933704917533" y2="311.97128239394"></line><line stroke-width="0.3439631100307091" stroke="lightgray" x1="193.637558092982" y1="283.914811709156" x2="289.940579613433" y2="242.2788665755683"></line><line stroke-width="0.48643729516145795" stroke="lightgray" x1="193.637558092982" y1="283.914811709156" x2="157.59902100844658" y2="293.4231037905535"></line><line stroke-width="0.2808447033053412" stroke="lightgray" x1="193.637558092982" y1="283.914811709156" x2="218.0675226162357" y2="271.7001003454428"></line><line stroke-width="0.3439631100307091" stroke="lightgray" x1="193.637558092982" y1="283.914811709156" x2="157.88799362630667" y2="273.72567171533547"></line><line stroke-width="1.0694247691785732" stroke="lightgray" x1="193.637558092982" y1="283.914811709156" x2="194.79071965192105" y2="325.14413100100256"></line><line stroke-width="0.3971743883350615" stroke="lightgray" x1="193.637558092982" y1="283.914811709156" x2="218.34193842077022" y2="235.1494371736737"></line><line stroke-width="0.19858719416753076" stroke="lightgray" x1="241.83701316524215" y1="295.79343658933635" x2="250.38116143396104" y2="331.3757393020681"></line><line stroke-width="0.794348776670123" stroke="lightgray" x1="241.83701316524215" y1="295.79343658933635" x2="207.73933704917533" y2="311.97128239394"></line><line stroke-width="0.3439631100307091" stroke="lightgray" x1="241.83701316524215" y1="295.79343658933635" x2="294.27488018702957" y2="298.5908666874292"></line><line stroke-width="0.48643729516145795" stroke="lightgray" x1="241.83701316524215" y1="295.79343658933635" x2="289.940579613433" y2="242.2788665755683"></line><line stroke-width="1.140796577695592" stroke="lightgray" x1="241.83701316524215" y1="295.79343658933635" x2="215.85682590659644" y2="321.0322991277745"></line><line stroke-width="0.7430452419756525" stroke="lightgray" x1="241.83701316524215" y1="295.79343658933635" x2="218.34193842077022" y2="235.1494371736737"></line><line stroke-width="0.2808447033053412" stroke="lightgray" x1="241.83701316524215" y1="295.79343658933635" x2="218.0675226162357" y2="271.7001003454428"></line><line stroke-width="0.19858719416753076" stroke="lightgray" x1="241.83701316524215" y1="295.79343658933635" x2="237.89809029075658" y2="261.0537080606473"></line><line stroke-width="0.19858719416753076" stroke="lightgray" x1="241.83701316524215" y1="295.79343658933635" x2="194.79071965192105" y2="325.14413100100256"></line><line stroke-width="0.19858719416753076" stroke="lightgray" x1="294.27488018702957" y1="298.5908666874292" x2="311.0984213362353" y2="332.53356044665816"></line><line stroke-width="0.3439631100307091" stroke="lightgray" x1="294.27488018702957" y1="298.5908666874292" x2="327.1067735825756" y2="318.1339953713213"></line><line stroke-width="0.3439631100307091" stroke="lightgray" x1="294.27488018702957" y1="298.5908666874292" x2="289.940579613433" y2="242.2788665755683"></line><line stroke-width="0.2808447033053412" stroke="lightgray" x1="289.940579613433" y1="242.2788665755683" x2="266.11331808914485" y2="217.33379270305917"></line><line stroke-width="0.19858719416753076" stroke="lightgray" x1="289.940579613433" y1="242.2788665755683" x2="331.74926481789726" y2="232.042964618345"></line><line stroke-width="0.2808447033053412" stroke="lightgray" x1="289.940579613433" y1="242.2788665755683" x2="334.49948770172756" y2="200.79754943012387"></line><line stroke-width="0.2808447033053412" stroke="lightgray" x1="289.940579613433" y1="242.2788665755683" x2="300.8409136156438" y2="208.95300832858962"></line><line stroke-width="0.19858719416753076" stroke="lightgray" x1="289.940579613433" y1="242.2788665755683" x2="317.07518095857915" y2="263.85973668600525"></line><line stroke-width="0.3439631100307091" stroke="lightgray" x1="289.940579613433" y1="242.2788665755683" x2="300.01309129784164" y2="186.73339786684681"></line><line stroke-width="0.3971743883350615" stroke="lightgray" x1="289.940579613433" y1="242.2788665755683" x2="281.5886131200262" y2="207.42547450130027"></line><line stroke-width="0.19858719416753076" stroke="lightgray" x1="289.940579613433" y1="242.2788665755683" x2="335.0180086647782" y2="253.82650533371145"></line><line stroke-width="0.19858719416753076" stroke="lightgray" x1="289.940579613433" y1="242.2788665755683" x2="351.06031560283566" y2="227.533606195503"></line><line stroke-width="0.2808447033053412" stroke="lightgray" x1="289.940579613433" y1="242.2788665755683" x2="316.7357861359489" y2="219.88007442330243"></line><line stroke-width="0.19858719416753076" stroke="lightgray" x1="289.940579613433" y1="242.2788665755683" x2="218.34193842077022" y2="235.1494371736737"></line><line stroke-width="0.19858719416753076" stroke="lightgray" x1="194.79071965192105" y1="325.14413100100256" x2="161.7415011436137" y2="317.1824906683644"></line><line stroke-width="0.3971743883350615" stroke="lightgray" x1="300.01309129784164" y1="186.73339786684681" x2="308.911137644234" y2="147.11949672706155"></line><line stroke-width="0.19858719416753076" stroke="lightgray" x1="218.34193842077022" y1="235.1494371736737" x2="182.30453559800836" y2="193.53287342914797"></line><line stroke-width="0.19858719416753076" stroke="lightgray" x1="218.34193842077022" y1="235.1494371736737" x2="237.89809029075658" y2="261.0537080606473"></line><line stroke-width="0.19858719416753076" stroke="lightgray" x1="218.34193842077022" y1="235.1494371736737" x2="190.40040817447667" y2="213.13463980510605"></line><line stroke-width="0.19858719416753076" stroke="lightgray" x1="351.06031560283566" y1="227.533606195503" x2="335.0180086647782" y2="253.82650533371145"></line><line stroke-width="0.19858719416753076" stroke="lightgray" x1="351.06031560283566" y1="227.533606195503" x2="334.49948770172756" y2="200.79754943012387"></line><line stroke-width="0.19858719416753076" stroke="lightgray" x1="334.49948770172756" y1="200.79754943012387" x2="331.74926481789726" y2="232.042964618345"></line><line stroke-width="0.3439631100307091" stroke="lightgray" x1="182.30453559800836" y1="193.53287342914797" x2="155.48539222480474" y2="164.84407390467314"></line></g><g class="nodes"><circle r="4.6826169788011605" fill="rgb(237, 248, 231)" stroke="black" stroke-width="1px" transform="translate(193.637558092982,283.914811709156)"></circle><circle r="4.12755732036851" fill="rgb(236, 248, 230)" stroke="black" stroke-width="1px" transform="translate(241.83701316524215,295.79343658933635)"></circle><circle r="1.486090483951305" fill="rgb(241, 250, 234)" stroke="black" stroke-width="1px" transform="translate(215.85682590659644,321.0322991277745)"></circle><circle r="1.050824658658766" fill="rgb(236, 248, 229)" stroke="black" stroke-width="1px" transform="translate(207.73933704917533,311.97128239394)"></circle><circle r="0.5616894066106825" fill="rgb(241, 250, 235)" stroke="black" stroke-width="1px" transform="translate(218.0675226162357,271.7001003454428)"></circle><circle r="0.6879262200614182" fill="rgb(205, 236, 201)" stroke="black" stroke-width="1px" transform="translate(294.27488018702957,298.5908666874292)"></circle><circle r="0.5616894066106825" fill="rgb(207, 236, 202)" stroke="black" stroke-width="1px" transform="translate(327.1067735825756,318.1339953713213)"></circle><circle r="0.3971743883350615" fill="rgb(223, 243, 217)" stroke="black" stroke-width="1px" transform="translate(157.59902100844658,293.4231037905535)"></circle><circle r="0.3971743883350615" fill="rgb(221, 242, 215)" stroke="black" stroke-width="1px" transform="translate(157.88799362630667,273.72567171533547)"></circle><circle r="0.3971743883350615" fill="rgb(220, 241, 214)" stroke="black" stroke-width="1px" transform="translate(250.38116143396104,331.3757393020681)"></circle><circle r="0.794348776670123" fill="rgb(181, 226, 188)" stroke="black" stroke-width="1px" transform="translate(289.940579613433,242.2788665755683)"></circle><circle r="0.794348776670123" fill="rgb(193, 231, 193)" stroke="black" stroke-width="1px" transform="translate(194.79071965192105,325.14413100100256)"></circle><circle r="0.5616894066106825" fill="rgb(194, 231, 194)" stroke="black" stroke-width="1px" transform="translate(161.7415011436137,317.1824906683644)"></circle><circle r="0.3971743883350615" fill="rgb(199, 233, 197)" stroke="black" stroke-width="1px" transform="translate(311.0984213362353,332.53356044665816)"></circle><circle r="1.2559756954230057" fill="rgb(149, 214, 188)" stroke="black" stroke-width="1px" transform="translate(300.01309129784164,186.73339786684681)"></circle><circle r="1.123378813221365" fill="rgb(163, 219, 186)" stroke="black" stroke-width="1px" transform="translate(218.34193842077022,235.1494371736737)"></circle><circle r="0.794348776670123" fill="rgb(149, 214, 188)" stroke="black" stroke-width="1px" transform="translate(308.911137644234,147.11949672706155)"></circle><circle r="0.5616894066106825" fill="rgb(144, 212, 190)" stroke="black" stroke-width="1px" transform="translate(266.11331808914485,217.33379270305917)"></circle><circle r="0.5616894066106825" fill="rgb(133, 207, 193)" stroke="black" stroke-width="1px" transform="translate(281.5886131200262,207.42547450130027)"></circle><circle r="0.5616894066106825" fill="rgb(134, 208, 192)" stroke="black" stroke-width="1px" transform="translate(316.7357861359489,219.88007442330243)"></circle><circle r="0.5616894066106825" fill="rgb(158, 217, 187)" stroke="black" stroke-width="1px" transform="translate(300.8409136156438,208.95300832858962)"></circle><circle r="0.3971743883350615" fill="rgb(134, 208, 192)" stroke="black" stroke-width="1px" transform="translate(351.06031560283566,227.533606195503)"></circle><circle r="0.3971743883350615" fill="rgb(163, 219, 186)" stroke="black" stroke-width="1px" transform="translate(317.07518095857915,263.85973668600525)"></circle><circle r="0.5616894066106825" fill="rgb(105, 194, 202)" stroke="black" stroke-width="1px" transform="translate(334.49948770172756,200.79754943012387)"></circle><circle r="0.3971743883350615" fill="rgb(120, 201, 197)" stroke="black" stroke-width="1px" transform="translate(335.0180086647782,253.82650533371145)"></circle><circle r="0.3971743883350615" fill="rgb(123, 202, 196)" stroke="black" stroke-width="1px" transform="translate(190.40040817447667,213.13463980510605)"></circle><circle r="0.3971743883350615" fill="rgb(70, 168, 203)" stroke="black" stroke-width="1px" transform="translate(331.74926481789726,232.042964618345)"></circle><circle r="0.3971743883350615" fill="rgb(15, 105, 169)" stroke="black" stroke-width="1px" transform="translate(182.30453559800836,193.53287342914797)"></circle><circle r="0.794348776670123" fill="rgb(10, 90, 156)" stroke="black" stroke-width="1px" transform="translate(155.48539222480474,164.84407390467314)"></circle><circle r="0.3971743883350615" fill="rgb(11, 95, 160)" stroke="black" stroke-width="1px" transform="translate(237.89809029075658,261.0537080606473)"></circle></g></g><g><text x="505" y="495" font-family="sans-serif" text-anchor="end" font-size="10px" fill="red">30 nodes</text><text x="505" y="505" font-family="sans-serif" text-anchor="end" font-size="10px" fill="red">42 edges</text></g></svg>