<svg height="512" width="512" style="border-style: solid; border-width: 1px; cursor: auto;" id="figure"><g transform="translate(-953.0547326675439,-995.4468537536457) scale(4.9796340613100645)"><g class="links"><line stroke-width="1.9650425663640292" stroke="lightgray" x1="255.89883098256604" y1="284.91399474747436" x2="263.8508260268608" y2="248.63509251302582"></line><line stroke-width="0.20081796929007983" stroke="lightgray" x1="255.89883098256604" y1="284.91399474747436" x2="283.60726156230606" y2="287.0695525174123"></line><line stroke-width="0.17391346294161236" stroke="lightgray" x1="255.89883098256604" y1="284.91399474747436" x2="222.67714262919708" y2="263.21663440149996"></line><line stroke-width="0.470959884006964" stroke="lightgray" x1="255.89883098256604" y1="284.91399474747436" x2="291.6147055287133" y2="262.10179883160896"></line><line stroke-width="0.1419997478691273" stroke="lightgray" x1="255.89883098256604" y1="284.91399474747436" x2="290.20478980260094" y2="275.41074838077924"></line><line stroke-width="0.40163593858015967" stroke="lightgray" x1="263.8508260268608" y1="248.63509251302582" x2="283.60726156230606" y2="287.0695525174123"></line><line stroke-width="0.3175210890231996" stroke="lightgray" x1="263.8508260268608" y1="248.63509251302582" x2="222.67714262919708" y2="263.21663440149996"></line><line stroke-width="0.3012269539351197" stroke="lightgray" x1="263.8508260268608" y1="248.63509251302582" x2="291.6147055287133" y2="262.10179883160896"></line><line stroke-width="0.1419997478691273" stroke="lightgray" x1="263.8508260268608" y1="248.63509251302582" x2="290.20478980260094" y2="275.41074838077924"></line><line stroke-width="0.1419997478691273" stroke="lightgray" x1="263.8508260268608" y1="248.63509251302582" x2="248.13633281893718" y2="217.7127257414145"></line><line stroke-width="0.10040898464503992" stroke="lightgray" x1="263.8508260268608" y1="248.63509251302582" x2="272.06684408033624" y2="214.23680609903374"></line><line stroke-width="0.10040898464503992" stroke="lightgray" x1="263.8508260268608" y1="248.63509251302582" x2="291.31311996113106" y2="226.22369816116858"></line><line stroke-width="0.20081796929007983" stroke="lightgray" x1="222.67714262919708" y1="263.21663440149996" x2="192.79303334007992" y2="279.84557030442465"></line><line stroke-width="0.1419997478691273" stroke="lightgray" x1="222.67714262919708" y1="263.21663440149996" x2="192.83309700031353" y2="245.6424669237126"></line></g><g class="nodes"><circle r="2.4595077797129887" fill="rgb(236, 248, 230)" stroke="black" stroke-width="1px" transform="translate(255.89883098256604,284.91399474747436)"></circle><circle r="2.2089976621908782" fill="rgb(232, 246, 226)" stroke="black" stroke-width="1px" transform="translate(263.8508260268608,248.63509251302582)"></circle><circle r="1.1709599185509765" fill="rgb(163, 219, 186)" stroke="black" stroke-width="1px" transform="translate(222.67714262919708,263.21663440149996)"></circle><circle r="0.5313144055345574" fill="rgb(236, 248, 229)" stroke="black" stroke-width="1px" transform="translate(283.60726156230606,287.0695525174123)"></circle><circle r="0.5313144055345574" fill="rgb(240, 249, 233)" stroke="black" stroke-width="1px" transform="translate(291.6147055287133,262.10179883160896)"></circle><circle r="0.2839994957382546" fill="rgb(241, 250, 235)" stroke="black" stroke-width="1px" transform="translate(290.20478980260094,275.41074838077924)"></circle><circle r="0.44904263043608367" fill="rgb(10, 93, 159)" stroke="black" stroke-width="1px" transform="translate(272.06684408033624,214.23680609903374)"></circle><circle r="0.3478269258832247" fill="rgb(93, 186, 204)" stroke="black" stroke-width="1px" transform="translate(192.79303334007992,279.84557030442465)"></circle><circle r="0.20081796929007983" fill="rgb(120, 201, 197)" stroke="black" stroke-width="1px" transform="translate(192.83309700031353,245.6424669237126)"></circle><circle r="0.20081796929007983" fill="rgb(11, 95, 160)" stroke="black" stroke-width="1px" transform="translate(248.13633281893718,217.7127257414145)"></circle><circle r="0.20081796929007983" fill="rgb(123, 202, 196)" stroke="black" stroke-width="1px" transform="translate(291.31311996113106,226.22369816116858)"></circle></g></g><g><text x="505" y="495" font-family="sans-serif" text-anchor="end" font-size="10px" fill="red">11 nodes</text><text x="505" y="505" font-family="sans-serif" text-anchor="end" font-size="10px" fill="red">14 edges</text></g></svg>