<svg height="512" width="512" style="border-style: solid; border-width: 1px; cursor: auto;" id="figure"><g transform="translate(-117.35570672680956,-170.87373568690668) scale(1.5263572438673627)"><g class="links"><line stroke-width="3.3245465980748268" stroke="lightgray" x1="230.72026697636275" y1="201.90164205429446" x2="323.1654546100915" y2="165.36737657730384"></line><line stroke-width="0.3275773099704626" stroke="lightgray" x1="230.72026697636275" y1="201.90164205429446" x2="190.74396579752917" y2="201.26092204118044"></line><line stroke-width="0.3275773099704626" stroke="lightgray" x1="230.72026697636275" y1="201.90164205429446" x2="190.3576564095936" y2="188.56674442931137"></line><line stroke-width="0.3275773099704626" stroke="lightgray" x1="230.72026697636275" y1="201.90164205429446" x2="196.8077631784624" y2="171.94068078523722"></line><line stroke-width="0.56738054427558" stroke="lightgray" x1="230.72026697636275" y1="201.90164205429446" x2="194.92988145153322" y2="214.6190690400791"></line><line stroke-width="4.32104148988439" stroke="lightgray" x1="230.72026697636275" y1="201.90164205429446" x2="296.5453134818818" y2="232.60645188950787"></line><line stroke-width="1.7640578012687256" stroke="lightgray" x1="230.72026697636275" y1="201.90164205429446" x2="272.4405817936109" y2="190.84429451520057"></line><line stroke-width="0.56738054427558" stroke="lightgray" x1="230.72026697636275" y1="201.90164205429446" x2="257.49659487842496" y2="225.92983371992173"></line><line stroke-width="2.948195789734163" stroke="lightgray" x1="230.72026697636275" y1="201.90164205429446" x2="268.75724125598884" y2="160.16755157223977"></line><line stroke-width="0.3275773099704626" stroke="lightgray" x1="230.72026697636275" y1="201.90164205429446" x2="265.43357149276665" y2="209.65356717963004"></line><line stroke-width="0.3275773099704626" stroke="lightgray" x1="230.72026697636275" y1="201.90164205429446" x2="207.5321150104364" y2="166.9101733548421"></line><line stroke-width="3.3566685673128163" stroke="lightgray" x1="230.72026697636275" y1="201.90164205429446" x2="247.89908816866264" y2="247.82076813511688"></line><line stroke-width="0.6551546199409252" stroke="lightgray" x1="230.72026697636275" y1="201.90164205429446" x2="172.96445783433836" y2="323.4704148116715"></line><line stroke-width="0.3275773099704626" stroke="lightgray" x1="230.72026697636275" y1="201.90164205429446" x2="217.59442218156985" y2="163.04286865053106"></line><line stroke-width="0.3275773099704626" stroke="lightgray" x1="230.72026697636275" y1="201.90164205429446" x2="235.19200728819024" y2="146.70827657037017"></line><line stroke-width="1.0358904092976464" stroke="lightgray" x1="230.72026697636275" y1="201.90164205429446" x2="266.044258820416" y2="284.5844732685957"></line><line stroke-width="0.3275773099704626" stroke="lightgray" x1="230.72026697636275" y1="201.90164205429446" x2="230.4430592285369" y2="250.9305585282286"></line><line stroke-width="0.3275773099704626" stroke="lightgray" x1="230.72026697636275" y1="201.90164205429446" x2="200.1560532431876" y2="182.09429587309293"></line><line stroke-width="0.4632642744859235" stroke="lightgray" x1="230.72026697636275" y1="201.90164205429446" x2="286.82460207408315" y2="163.54089532174035"></line><line stroke-width="0.3275773099704626" stroke="lightgray" x1="230.72026697636275" y1="201.90164205429446" x2="230.37253812485608" y2="164.3699659871166"></line><line stroke-width="0.3275773099704626" stroke="lightgray" x1="296.5453134818818" y1="232.60645188950787" x2="344.4581753052704" y2="233.58858268933284"></line><line stroke-width="0.3275773099704626" stroke="lightgray" x1="296.5453134818818" y1="232.60645188950787" x2="324.94816574256106" y2="269.50737966819486"></line><line stroke-width="0.4632642744859235" stroke="lightgray" x1="296.5453134818818" y1="232.60645188950787" x2="280.74759591401096" y2="263.31759742226006"></line><line stroke-width="0.3275773099704626" stroke="lightgray" x1="296.5453134818818" y1="232.60645188950787" x2="341.90038261922393" y2="249.0664520790627"></line><line stroke-width="5.645365136129186" stroke="lightgray" x1="296.5453134818818" y1="232.60645188950787" x2="268.75724125598884" y2="160.16755157223977"></line><line stroke-width="0.4632642744859235" stroke="lightgray" x1="296.5453134818818" y1="232.60645188950787" x2="333.1170101489504" y2="213.21802865158242"></line><line stroke-width="0.8023972607411537" stroke="lightgray" x1="296.5453134818818" y1="232.60645188950787" x2="265.43357149276665" y2="209.65356717963004"></line><line stroke-width="0.3275773099704626" stroke="lightgray" x1="296.5453134818818" y1="232.60645188950787" x2="172.96445783433836" y2="323.4704148116715"></line><line stroke-width="3.340646191499242" stroke="lightgray" x1="296.5453134818818" y1="232.60645188950787" x2="323.1654546100915" y2="165.36737657730384"></line><line stroke-width="1.992574986864215" stroke="lightgray" x1="296.5453134818818" y1="232.60645188950787" x2="247.89908816866264" y2="247.82076813511688"></line><line stroke-width="0.4632642744859235" stroke="lightgray" x1="296.5453134818818" y1="232.60645188950787" x2="298.5807272666461" y2="187.1415567739478"></line><line stroke-width="1.0864510270059713" stroke="lightgray" x1="296.5453134818818" y1="232.60645188950787" x2="286.82460207408315" y2="163.54089532174035"></line><line stroke-width="0.4632642744859235" stroke="lightgray" x1="296.5453134818818" y1="232.60645188950787" x2="257.49659487842496" y2="225.92983371992173"></line><line stroke-width="0.3275773099704626" stroke="lightgray" x1="296.5453134818818" y1="232.60645188950787" x2="266.044258820416" y2="284.5844732685957"></line><line stroke-width="0.4632642744859235" stroke="lightgray" x1="296.5453134818818" y1="232.60645188950787" x2="336.5171676055546" y2="223.02902914581674"></line><line stroke-width="0.3275773099704626" stroke="lightgray" x1="296.5453134818818" y1="232.60645188950787" x2="308.8918045981245" y2="272.4607403446122"></line><line stroke-width="0.6551546199409252" stroke="lightgray" x1="296.5453134818818" y1="232.60645188950787" x2="322.1599679723931" y2="205.93137896183939"></line><line stroke-width="0.4632642744859235" stroke="lightgray" x1="296.5453134818818" y1="232.60645188950787" x2="334.2667651874116" y2="235.89285567610042"></line><line stroke-width="0.3275773099704626" stroke="lightgray" x1="296.5453134818818" y1="232.60645188950787" x2="330.11637890576736" y2="248.85484945700816"></line><line stroke-width="0.3275773099704626" stroke="lightgray" x1="296.5453134818818" y1="232.60645188950787" x2="333.43918583968383" y2="260.3109448481898"></line><line stroke-width="0.3275773099704626" stroke="lightgray" x1="296.5453134818818" y1="232.60645188950787" x2="317.1589983474364" y2="262.6926190316376"></line><line stroke-width="0.3275773099704626" stroke="lightgray" x1="296.5453134818818" y1="232.60645188950787" x2="296.3152973094609" y2="270.2423091597015"></line><line stroke-width="0.3275773099704626" stroke="lightgray" x1="323.1654546100915" y1="165.36737657730384" x2="361.52876545208665" y2="136.1755202211726"></line><line stroke-width="1.6047945214823074" stroke="lightgray" x1="323.1654546100915" y1="165.36737657730384" x2="247.89908816866264" y2="247.82076813511688"></line><line stroke-width="0.3275773099704626" stroke="lightgray" x1="323.1654546100915" y1="165.36737657730384" x2="355.17195569590683" y2="144.75538881586866"></line><line stroke-width="0.56738054427558" stroke="lightgray" x1="323.1654546100915" y1="165.36737657730384" x2="321.83254963789614" y2="124.07415914698785"></line><line stroke-width="0.4632642744859235" stroke="lightgray" x1="323.1654546100915" y1="165.36737657730384" x2="341.4004697305357" y2="129.84633778173225"></line><line stroke-width="2.1229436046005437" stroke="lightgray" x1="323.1654546100915" y1="165.36737657730384" x2="268.75724125598884" y2="160.16755157223977"></line><line stroke-width="0.4632642744859235" stroke="lightgray" x1="323.1654546100915" y1="165.36737657730384" x2="351.8342407825369" y2="127.94409038548518"></line><line stroke-width="0.732485132980474" stroke="lightgray" x1="323.1654546100915" y1="165.36737657730384" x2="334.4405070834501" y2="121.24282473217458"></line><line stroke-width="0.3275773099704626" stroke="lightgray" x1="323.1654546100915" y1="165.36737657730384" x2="367.46877685763644" y2="148.870146991313"></line><line stroke-width="0.3275773099704626" stroke="lightgray" x1="323.1654546100915" y1="165.36737657730384" x2="266.044258820416" y2="284.5844732685957"></line><line stroke-width="0.3275773099704626" stroke="lightgray" x1="323.1654546100915" y1="165.36737657730384" x2="286.82460207408315" y2="163.54089532174035"></line><line stroke-width="0.3275773099704626" stroke="lightgray" x1="323.1654546100915" y1="165.36737657730384" x2="366.26560545861605" y2="159.73642038953213"></line><line stroke-width="0.3275773099704626" stroke="lightgray" x1="323.1654546100915" y1="165.36737657730384" x2="365.6029503105915" y2="170.89369783079874"></line><line stroke-width="0.3275773099704626" stroke="lightgray" x1="323.1654546100915" y1="165.36737657730384" x2="272.4405817936109" y2="190.84429451520057"></line><line stroke-width="1.3103092398818503" stroke="lightgray" x1="247.89908816866264" y1="247.82076813511688" x2="272.4405817936109" y2="190.84429451520057"></line><line stroke-width="0.56738054427558" stroke="lightgray" x1="247.89908816866264" y1="247.82076813511688" x2="225.2040661625347" y2="340.6872135439752"></line><line stroke-width="0.6551546199409252" stroke="lightgray" x1="247.89908816866264" y1="247.82076813511688" x2="172.96445783433836" y2="323.4704148116715"></line><line stroke-width="1.2256820615905184" stroke="lightgray" x1="247.89908816866264" y1="247.82076813511688" x2="268.75724125598884" y2="160.16755157223977"></line><line stroke-width="0.8023972607411537" stroke="lightgray" x1="247.89908816866264" y1="247.82076813511688" x2="266.044258820416" y2="284.5844732685957"></line><line stroke-width="0.8023972607411537" stroke="lightgray" x1="268.75724125598884" y1="160.16755157223977" x2="278.0406426798052" y2="116.99672683672021"></line><line stroke-width="0.732485132980474" stroke="lightgray" x1="268.75724125598884" y1="160.16755157223977" x2="235.19200728819024" y2="146.70827657037017"></line><line stroke-width="1.3103092398818503" stroke="lightgray" x1="268.75724125598884" y1="160.16755157223977" x2="286.82460207408315" y2="163.54089532174035"></line><line stroke-width="0.3275773099704626" stroke="lightgray" x1="268.75724125598884" y1="160.16755157223977" x2="298.5807272666461" y2="187.1415567739478"></line><line stroke-width="0.3275773099704626" stroke="lightgray" x1="225.2040661625347" y1="340.6872135439752" x2="229.3472728880959" y2="381.851921165795"></line><line stroke-width="0.56738054427558" stroke="lightgray" x1="225.2040661625347" y1="340.6872135439752" x2="244.92275629586166" y2="376.8463031845035"></line><line stroke-width="0.3275773099704626" stroke="lightgray" x1="225.2040661625347" y1="340.6872135439752" x2="195.88631931369557" y2="360.25069823452844"></line><line stroke-width="0.4632642744859235" stroke="lightgray" x1="225.2040661625347" y1="340.6872135439752" x2="172.96445783433836" y2="323.4704148116715"></line><line stroke-width="0.3275773099704626" stroke="lightgray" x1="286.82460207408315" y1="163.54089532174035" x2="278.0406426798052" y2="116.99672683672021"></line><line stroke-width="0.3275773099704626" stroke="lightgray" x1="195.88631931369557" y1="360.25069823452844" x2="172.96445783433836" y2="323.4704148116715"></line><line stroke-width="0.3275773099704626" stroke="lightgray" x1="172.96445783433836" y1="323.4704148116715" x2="176.2844071274281" y2="376.2568808237016"></line><line stroke-width="0.3275773099704626" stroke="lightgray" x1="172.96445783433836" y1="323.4704148116715" x2="127.44531951868795" y2="332.60365721288645"></line><line stroke-width="0.3275773099704626" stroke="lightgray" x1="172.96445783433836" y1="323.4704148116715" x2="119.07197902472795" y2="361.84305547185824"></line><line stroke-width="0.4632642744859235" stroke="lightgray" x1="172.96445783433836" y1="323.4704148116715" x2="142.14773126859106" y2="339.7397162390817"></line><line stroke-width="0.3275773099704626" stroke="lightgray" x1="172.96445783433836" y1="323.4704148116715" x2="142.68414276059175" y2="304.31028706744917"></line><line stroke-width="0.56738054427558" stroke="lightgray" x1="172.96445783433836" y1="323.4704148116715" x2="136.76819712910827" y2="401.19325370179655"></line><line stroke-width="0.6551546199409252" stroke="lightgray" x1="172.96445783433836" y1="323.4704148116715" x2="170.26728087725007" y2="358.9768102630013"></line><line stroke-width="0.3275773099704626" stroke="lightgray" x1="172.96445783433836" y1="323.4704148116715" x2="148.54701817717003" y2="369.946236976094"></line><line stroke-width="0.3275773099704626" stroke="lightgray" x1="172.96445783433836" y1="323.4704148116715" x2="123.93861997857822" y2="315.8816638110699"></line><line stroke-width="0.3275773099704626" stroke="lightgray" x1="172.96445783433836" y1="323.4704148116715" x2="108.90829965406051" y2="348.30748839530287"></line><line stroke-width="0.3275773099704626" stroke="lightgray" x1="172.96445783433836" y1="323.4704148116715" x2="104.0777100865903" y2="324.7150613389757"></line><line stroke-width="0.4632642744859235" stroke="lightgray" x1="172.96445783433836" y1="323.4704148116715" x2="152.25989545512127" y2="352.7455092677154"></line><line stroke-width="0.3275773099704626" stroke="lightgray" x1="172.96445783433836" y1="323.4704148116715" x2="266.044258820416" y2="284.5844732685957"></line><line stroke-width="0.6551546199409252" stroke="lightgray" x1="136.76819712910827" y1="401.19325370179655" x2="127.56499508320468" y2="442.64828403976327"></line><line stroke-width="0.56738054427558" stroke="lightgray" x1="136.76819712910827" y1="401.19325370179655" x2="110.01111156804879" y2="434.3139954781559"></line><line stroke-width="0.3275773099704626" stroke="lightgray" x1="266.044258820416" y1="284.5844732685957" x2="338.6051070271506" y2="373.00694630528625"></line><line stroke-width="0.3275773099704626" stroke="lightgray" x1="266.044258820416" y1="284.5844732685957" x2="230.4430592285369" y2="250.9305585282286"></line><line stroke-width="0.3275773099704626" stroke="lightgray" x1="266.044258820416" y1="284.5844732685957" x2="279.91448082504076" y2="322.4022762879996"></line><line stroke-width="0.3275773099704626" stroke="lightgray" x1="148.54701817717003" y1="369.946236976094" x2="176.2844071274281" y2="376.2568808237016"></line><line stroke-width="0.3275773099704626" stroke="lightgray" x1="108.90829965406051" y1="348.30748839530287" x2="123.93861997857822" y2="315.8816638110699"></line><line stroke-width="0.3275773099704626" stroke="lightgray" x1="108.90829965406051" y1="348.30748839530287" x2="104.0777100865903" y2="324.7150613389757"></line><line stroke-width="0.3275773099704626" stroke="lightgray" x1="104.0777100865903" y1="324.7150613389757" x2="119.07197902472795" y2="361.84305547185824"></line><line stroke-width="0.3275773099704626" stroke="lightgray" x1="119.07197902472795" y1="361.84305547185824" x2="127.44531951868795" y2="332.60365721288645"></line><line stroke-width="0.4632642744859235" stroke="lightgray" x1="338.6051070271506" y1="373.00694630528625" x2="386.8801074952868" y2="408.163604211197"></line><line stroke-width="0.3275773099704626" stroke="lightgray" x1="338.6051070271506" y1="373.00694630528625" x2="365.53253941387277" y2="426.1581385412847"></line><line stroke-width="0.3275773099704626" stroke="lightgray" x1="386.8801074952868" y1="408.163604211197" x2="365.53253941387277" y2="426.1581385412847"></line></g><g class="nodes"><circle r="5.362671684338493" fill="rgb(241, 250, 235)" stroke="black" stroke-width="1px" transform="translate(230.72026697636275,201.90164205429446)"></circle><circle r="4.946308910056717" fill="rgb(240, 249, 234)" stroke="black" stroke-width="1px" transform="translate(296.5453134818818,232.60645188950787)"></circle><circle r="4.195036426209844" fill="rgb(241, 250, 234)" stroke="black" stroke-width="1px" transform="translate(323.1654546100915,165.36737657730384)"></circle><circle r="3.6477465450505298" fill="rgb(231, 246, 225)" stroke="black" stroke-width="1px" transform="translate(247.89908816866264,247.82076813511688)"></circle><circle r="3.588429639953686" fill="rgb(231, 246, 225)" stroke="black" stroke-width="1px" transform="translate(268.75724125598884,160.16755157223977)"></circle><circle r="2.1729020540119426" fill="rgb(232, 246, 227)" stroke="black" stroke-width="1px" transform="translate(272.4405817936109,190.84429451520057)"></circle><circle r="0.926528548971847" fill="rgb(233, 247, 227)" stroke="black" stroke-width="1px" transform="translate(280.74759591401096,263.31759742226006)"></circle><circle r="0.926528548971847" fill="rgb(230, 245, 224)" stroke="black" stroke-width="1px" transform="translate(257.49659487842496,225.92983371992173)"></circle><circle r="0.6551546199409252" fill="rgb(232, 246, 226)" stroke="black" stroke-width="1px" transform="translate(344.4581753052704,233.58858268933284)"></circle><circle r="0.6551546199409252" fill="rgb(232, 246, 226)" stroke="black" stroke-width="1px" transform="translate(217.59442218156985,163.04286865053106)"></circle><circle r="0.6551546199409252" fill="rgb(235, 247, 229)" stroke="black" stroke-width="1px" transform="translate(341.4004697305357,129.84633778173225)"></circle><circle r="0.6551546199409252" fill="rgb(232, 246, 226)" stroke="black" stroke-width="1px" transform="translate(308.8918045981245,272.4607403446122)"></circle><circle r="0.6551546199409252" fill="rgb(228, 244, 222)" stroke="black" stroke-width="1px" transform="translate(351.8342407825369,127.94409038548518)"></circle><circle r="0.6551546199409252" fill="rgb(233, 246, 227)" stroke="black" stroke-width="1px" transform="translate(333.1170101489504,213.21802865158242)"></circle><circle r="0.6551546199409252" fill="rgb(232, 246, 226)" stroke="black" stroke-width="1px" transform="translate(194.92988145153322,214.6190690400791)"></circle><circle r="0.6551546199409252" fill="rgb(231, 246, 225)" stroke="black" stroke-width="1px" transform="translate(367.46877685763644,148.870146991313)"></circle><circle r="0.6551546199409252" fill="rgb(234, 247, 228)" stroke="black" stroke-width="1px" transform="translate(333.43918583968383,260.3109448481898)"></circle><circle r="0.6551546199409252" fill="rgb(235, 247, 229)" stroke="black" stroke-width="1px" transform="translate(190.74396579752917,201.26092204118044)"></circle><circle r="0.6551546199409252" fill="rgb(234, 247, 228)" stroke="black" stroke-width="1px" transform="translate(336.5171676055546,223.02902914581674)"></circle><circle r="0.6551546199409252" fill="rgb(235, 247, 228)" stroke="black" stroke-width="1px" transform="translate(355.17195569590683,144.75538881586866)"></circle><circle r="0.6551546199409252" fill="rgb(234, 247, 228)" stroke="black" stroke-width="1px" transform="translate(265.43357149276665,209.65356717963004)"></circle><circle r="0.6551546199409252" fill="rgb(227, 244, 221)" stroke="black" stroke-width="1px" transform="translate(196.8077631784624,171.94068078523722)"></circle><circle r="0.6551546199409252" fill="rgb(233, 247, 227)" stroke="black" stroke-width="1px" transform="translate(207.5321150104364,166.9101733548421)"></circle><circle r="0.6551546199409252" fill="rgb(235, 247, 229)" stroke="black" stroke-width="1px" transform="translate(317.1589983474364,262.6926190316376)"></circle><circle r="0.6551546199409252" fill="rgb(232, 246, 226)" stroke="black" stroke-width="1px" transform="translate(190.3576564095936,188.56674442931137)"></circle><circle r="0.6551546199409252" fill="rgb(230, 245, 224)" stroke="black" stroke-width="1px" transform="translate(334.4405070834501,121.24282473217458)"></circle><circle r="0.6551546199409252" fill="rgb(231, 246, 225)" stroke="black" stroke-width="1px" transform="translate(330.11637890576736,248.85484945700816)"></circle><circle r="0.6551546199409252" fill="rgb(226, 244, 220)" stroke="black" stroke-width="1px" transform="translate(296.3152973094609,270.2423091597015)"></circle><circle r="0.6551546199409252" fill="rgb(233, 247, 227)" stroke="black" stroke-width="1px" transform="translate(324.94816574256106,269.50737966819486)"></circle><circle r="0.6551546199409252" fill="rgb(235, 247, 229)" stroke="black" stroke-width="1px" transform="translate(200.1560532431876,182.09429587309293)"></circle><circle r="0.6551546199409252" fill="rgb(232, 246, 226)" stroke="black" stroke-width="1px" transform="translate(321.83254963789614,124.07415914698785)"></circle><circle r="0.6551546199409252" fill="rgb(234, 247, 228)" stroke="black" stroke-width="1px" transform="translate(366.26560545861605,159.73642038953213)"></circle><circle r="0.6551546199409252" fill="rgb(229, 245, 224)" stroke="black" stroke-width="1px" transform="translate(334.2667651874116,235.89285567610042)"></circle><circle r="0.6551546199409252" fill="rgb(234, 247, 228)" stroke="black" stroke-width="1px" transform="translate(322.1599679723931,205.93137896183939)"></circle><circle r="0.6551546199409252" fill="rgb(229, 245, 224)" stroke="black" stroke-width="1px" transform="translate(341.90038261922393,249.0664520790627)"></circle><circle r="0.6551546199409252" fill="rgb(235, 247, 229)" stroke="black" stroke-width="1px" transform="translate(230.37253812485608,164.3699659871166)"></circle><circle r="0.6551546199409252" fill="rgb(228, 245, 223)" stroke="black" stroke-width="1px" transform="translate(365.6029503105915,170.89369783079874)"></circle><circle r="0.6551546199409252" fill="rgb(220, 241, 214)" stroke="black" stroke-width="1px" transform="translate(361.52876545208665,136.1755202211726)"></circle><circle r="0.6551546199409252" fill="rgb(223, 243, 217)" stroke="black" stroke-width="1px" transform="translate(235.19200728819024,146.70827657037017)"></circle><circle r="0.6551546199409252" fill="rgb(221, 242, 215)" stroke="black" stroke-width="1px" transform="translate(298.5807272666461,187.1415567739478)"></circle><circle r="1.13476108855116" fill="rgb(205, 236, 201)" stroke="black" stroke-width="1px" transform="translate(225.2040661625347,340.6872135439752)"></circle><circle r="0.926528548971847" fill="rgb(207, 236, 202)" stroke="black" stroke-width="1px" transform="translate(244.92275629586166,376.8463031845035)"></circle><circle r="1.3103092398818503" fill="rgb(193, 231, 193)" stroke="black" stroke-width="1px" transform="translate(286.82460207408315,163.54089532174035)"></circle><circle r="0.926528548971847" fill="rgb(194, 231, 194)" stroke="black" stroke-width="1px" transform="translate(278.0406426798052,116.99672683672021)"></circle><circle r="0.6551546199409252" fill="rgb(199, 233, 197)" stroke="black" stroke-width="1px" transform="translate(229.3472728880959,381.851921165795)"></circle><circle r="0.6551546199409252" fill="rgb(193, 231, 193)" stroke="black" stroke-width="1px" transform="translate(195.88631931369557,360.25069823452844)"></circle><circle r="1.13476108855116" fill="rgb(177, 225, 187)" stroke="black" stroke-width="1px" transform="translate(172.96445783433836,323.4704148116715)"></circle><circle r="1.9654638598227754" fill="rgb(149, 214, 188)" stroke="black" stroke-width="1px" transform="translate(136.76819712910827,401.19325370179655)"></circle><circle r="1.853057097943694" fill="rgb(163, 219, 186)" stroke="black" stroke-width="1px" transform="translate(266.044258820416,284.5844732685957)"></circle><circle r="1.3103092398818503" fill="rgb(149, 214, 188)" stroke="black" stroke-width="1px" transform="translate(127.56499508320468,442.64828403976327)"></circle><circle r="0.926528548971847" fill="rgb(158, 217, 187)" stroke="black" stroke-width="1px" transform="translate(142.14773126859106,339.7397162390817)"></circle><circle r="0.6551546199409252" fill="rgb(149, 214, 188)" stroke="black" stroke-width="1px" transform="translate(148.54701817717003,369.946236976094)"></circle><circle r="0.6551546199409252" fill="rgb(163, 219, 186)" stroke="black" stroke-width="1px" transform="translate(142.68414276059175,304.31028706744917)"></circle><circle r="0.926528548971847" fill="rgb(133, 207, 193)" stroke="black" stroke-width="1px" transform="translate(170.26728087725007,358.9768102630013)"></circle><circle r="0.926528548971847" fill="rgb(134, 208, 192)" stroke="black" stroke-width="1px" transform="translate(152.25989545512127,352.7455092677154)"></circle><circle r="0.6551546199409252" fill="rgb(134, 208, 192)" stroke="black" stroke-width="1px" transform="translate(108.90829965406051,348.30748839530287)"></circle><circle r="0.6551546199409252" fill="rgb(139, 210, 191)" stroke="black" stroke-width="1px" transform="translate(176.2844071274281,376.2568808237016)"></circle><circle r="0.6551546199409252" fill="rgb(145, 212, 189)" stroke="black" stroke-width="1px" transform="translate(110.01111156804879,434.3139954781559)"></circle><circle r="0.6551546199409252" fill="rgb(120, 201, 197)" stroke="black" stroke-width="1px" transform="translate(123.93861997857822,315.8816638110699)"></circle><circle r="0.6551546199409252" fill="rgb(121, 202, 197)" stroke="black" stroke-width="1px" transform="translate(104.0777100865903,324.7150613389757)"></circle><circle r="0.6551546199409252" fill="rgb(123, 202, 196)" stroke="black" stroke-width="1px" transform="translate(279.91448082504076,322.4022762879996)"></circle><circle r="0.6551546199409252" fill="rgb(90, 184, 205)" stroke="black" stroke-width="1px" transform="translate(119.07197902472795,361.84305547185824)"></circle><circle r="0.6551546199409252" fill="rgb(70, 168, 203)" stroke="black" stroke-width="1px" transform="translate(127.44531951868795,332.60365721288645)"></circle><circle r="0.6551546199409252" fill="rgb(15, 105, 169)" stroke="black" stroke-width="1px" transform="translate(338.6051070271506,373.00694630528625)"></circle><circle r="1.13476108855116" fill="rgb(12, 98, 164)" stroke="black" stroke-width="1px" transform="translate(386.8801074952868,408.163604211197)"></circle><circle r="0.6551546199409252" fill="rgb(11, 95, 160)" stroke="black" stroke-width="1px" transform="translate(230.4430592285369,250.9305585282286)"></circle><circle r="0.6551546199409252" fill="rgb(8, 64, 129)" stroke="black" stroke-width="1px" transform="translate(365.53253941387277,426.1581385412847)"></circle></g></g><g><text x="505" y="495" font-family="sans-serif" text-anchor="end" font-size="10px" fill="red">67 nodes</text><text x="505" y="505" font-family="sans-serif" text-anchor="end" font-size="10px" fill="red">97 edges</text></g></svg>