<svg height="512" width="512" style="border-style: solid; border-width: 1px; cursor: auto;" id="figure"><g transform="translate(-353.88787294507597,-337.6077186366358) scale(2.489778794912192)"><g class="links"><line stroke-width="0.4919091101162594" stroke="lightgray" x1="198.78182100743942" y1="296.42264166388287" x2="174.59719949723168" y2="335.00544579189454"></line><line stroke-width="1.6065684261485045" stroke="lightgray" x1="198.78182100743942" y1="296.42264166388287" x2="228.21207770242805" y2="327.9408077561491"></line><line stroke-width="3.7677369326208345" stroke="lightgray" x1="198.78182100743942" y1="296.42264166388287" x2="248.72318473470898" y2="297.6285151071519"></line><line stroke-width="0.4016421065371261" stroke="lightgray" x1="198.78182100743942" y1="296.42264166388287" x2="218.70180798846732" y2="320.51163225317896"></line><line stroke-width="0.3478322674906471" stroke="lightgray" x1="198.78182100743942" y1="296.42264166388287" x2="286.70165508484826" y2="236.02172402601852"></line><line stroke-width="0.4919091101162594" stroke="lightgray" x1="198.78182100743942" y1="296.42264166388287" x2="164.92984179033394" y2="311.9535300771222"></line><line stroke-width="0.28400385714245163" stroke="lightgray" x1="198.78182100743942" y1="296.42264166388287" x2="219.645041154066" y2="279.19240500555435"></line><line stroke-width="0.3478322674906471" stroke="lightgray" x1="198.78182100743942" y1="296.42264166388287" x2="161.98599887047698" y2="292.13143146087526"></line><line stroke-width="1.0814544685935492" stroke="lightgray" x1="198.78182100743942" y1="296.42264166388287" x2="208.87100366483637" y2="335.92530983720326"></line><line stroke-width="0.4016421065371261" stroke="lightgray" x1="198.78182100743942" y1="296.42264166388287" x2="215.8696054564139" y2="242.932397966692"></line><line stroke-width="0.20082105326856306" stroke="lightgray" x1="248.72318473470898" y1="297.6285151071519" x2="264.0539108460634" y2="330.94775064243254"></line><line stroke-width="0.8032842130742522" stroke="lightgray" x1="248.72318473470898" y1="297.6285151071519" x2="218.70180798846732" y2="320.51163225317896"></line><line stroke-width="0.3478322674906471" stroke="lightgray" x1="248.72318473470898" y1="297.6285151071519" x2="300.297862741751" y2="289.83199776133955"></line><line stroke-width="0.4919091101162594" stroke="lightgray" x1="248.72318473470898" y1="297.6285151071519" x2="286.70165508484826" y2="236.02172402601852"></line><line stroke-width="1.153629121245011" stroke="lightgray" x1="248.72318473470898" y1="297.6285151071519" x2="228.21207770242805" y2="327.9408077561491"></line><line stroke-width="0.7514035773820421" stroke="lightgray" x1="248.72318473470898" y1="297.6285151071519" x2="215.8696054564139" y2="242.932397966692"></line><line stroke-width="0.28400385714245163" stroke="lightgray" x1="248.72318473470898" y1="297.6285151071519" x2="219.645041154066" y2="279.19240500555435"></line><line stroke-width="0.20082105326856306" stroke="lightgray" x1="248.72318473470898" y1="297.6285151071519" x2="239.232701207844" y2="265.03513789080546"></line><line stroke-width="0.20082105326856306" stroke="lightgray" x1="248.72318473470898" y1="297.6285151071519" x2="208.87100366483637" y2="335.92530983720326"></line><line stroke-width="0.20082105326856306" stroke="lightgray" x1="300.297862741751" y1="289.83199776133955" x2="323.27118234575704" y2="319.86038905560446"></line><line stroke-width="0.3478322674906471" stroke="lightgray" x1="300.297862741751" y1="289.83199776133955" x2="336.1441659480539" y2="302.681664625846"></line><line stroke-width="0.3478322674906471" stroke="lightgray" x1="300.297862741751" y1="289.83199776133955" x2="286.70165508484826" y2="236.02172402601852"></line><line stroke-width="0.28400385714245163" stroke="lightgray" x1="286.70165508484826" y1="236.02172402601852" x2="259.5009067353838" y2="214.49263592634165"></line><line stroke-width="0.20082105326856306" stroke="lightgray" x1="286.70165508484826" y1="236.02172402601852" x2="326.2304543158008" y2="218.05330512560658"></line><line stroke-width="0.28400385714245163" stroke="lightgray" x1="286.70165508484826" y1="236.02172402601852" x2="322.73383794294637" y2="186.7331915050915"></line><line stroke-width="0.28400385714245163" stroke="lightgray" x1="286.70165508484826" y1="236.02172402601852" x2="293.002763364082" y2="201.37714596647115"></line><line stroke-width="0.20082105326856306" stroke="lightgray" x1="286.70165508484826" y1="236.02172402601852" x2="317.57323771825617" y2="251.95043196955857"></line><line stroke-width="0.3478322674906471" stroke="lightgray" x1="286.70165508484826" y1="236.02172402601852" x2="286.3789196194613" y2="179.46095001038094"></line><line stroke-width="0.4016421065371261" stroke="lightgray" x1="286.70165508484826" y1="236.02172402601852" x2="273.47479291870104" y2="202.7546307061285"></line><line stroke-width="0.20082105326856306" stroke="lightgray" x1="286.70165508484826" y1="236.02172402601852" x2="333.28192712364506" y2="238.80798452530985"></line><line stroke-width="0.20082105326856306" stroke="lightgray" x1="286.70165508484826" y1="236.02172402601852" x2="344.15386892155135" y2="209.85739518977792"></line><line stroke-width="0.28400385714245163" stroke="lightgray" x1="286.70165508484826" y1="236.02172402601852" x2="309.6345599850013" y2="209.7505725837568"></line><line stroke-width="0.20082105326856306" stroke="lightgray" x1="286.70165508484826" y1="236.02172402601852" x2="215.8696054564139" y2="242.932397966692"></line><line stroke-width="0.20082105326856306" stroke="lightgray" x1="208.87100366483637" y1="335.92530983720326" x2="174.59719949723168" y2="335.00544579189454"></line><line stroke-width="0.4016421065371261" stroke="lightgray" x1="286.3789196194613" y1="179.46095001038094" x2="288.1655391365362" y2="138.73420424648606"></line><line stroke-width="0.20082105326856306" stroke="lightgray" x1="215.8696054564139" y1="242.932397966692" x2="176.0269153502338" y2="205.73867269242794"></line><line stroke-width="0.20082105326856306" stroke="lightgray" x1="215.8696054564139" y1="242.932397966692" x2="239.232701207844" y2="265.03513789080546"></line><line stroke-width="0.20082105326856306" stroke="lightgray" x1="215.8696054564139" y1="242.932397966692" x2="183.94936293288413" y2="227.36523503222435"></line><line stroke-width="0.20082105326856306" stroke="lightgray" x1="344.15386892155135" y1="209.85739518977792" x2="333.28192712364506" y2="238.80798452530985"></line><line stroke-width="0.20082105326856306" stroke="lightgray" x1="344.15386892155135" y1="209.85739518977792" x2="322.73383794294637" y2="186.7331915050915"></line><line stroke-width="0.20082105326856306" stroke="lightgray" x1="322.73383794294637" y1="186.7331915050915" x2="326.2304543158008" y2="218.05330512560658"></line><line stroke-width="0.3478322674906471" stroke="lightgray" x1="176.0269153502338" y1="205.73867269242794" x2="145.86965124005897" y2="180.92274319252834"></line></g><g class="nodes"><circle r="4.73529059956806" fill="rgb(237, 248, 231)" stroke="black" stroke-width="1px" transform="translate(198.78182100743942,296.42264166388287)"></circle><circle r="4.173987209887766" fill="rgb(236, 248, 230)" stroke="black" stroke-width="1px" transform="translate(248.72318473470898,297.6285151071519)"></circle><circle r="1.5028071547640842" fill="rgb(241, 250, 234)" stroke="black" stroke-width="1px" transform="translate(228.21207770242805,327.9408077561491)"></circle><circle r="1.0626451299493453" fill="rgb(236, 248, 229)" stroke="black" stroke-width="1px" transform="translate(218.70180798846732,320.51163225317896)"></circle><circle r="0.5680077142849033" fill="rgb(241, 250, 235)" stroke="black" stroke-width="1px" transform="translate(219.645041154066,279.19240500555435)"></circle><circle r="0.6956645349812942" fill="rgb(205, 236, 201)" stroke="black" stroke-width="1px" transform="translate(300.297862741751,289.83199776133955)"></circle><circle r="0.5680077142849033" fill="rgb(207, 236, 202)" stroke="black" stroke-width="1px" transform="translate(336.1441659480539,302.681664625846)"></circle><circle r="0.4016421065371261" fill="rgb(223, 243, 217)" stroke="black" stroke-width="1px" transform="translate(164.92984179033394,311.9535300771222)"></circle><circle r="0.4016421065371261" fill="rgb(221, 242, 215)" stroke="black" stroke-width="1px" transform="translate(161.98599887047698,292.13143146087526)"></circle><circle r="0.4016421065371261" fill="rgb(220, 241, 214)" stroke="black" stroke-width="1px" transform="translate(264.0539108460634,330.94775064243254)"></circle><circle r="0.8032842130742522" fill="rgb(181, 226, 188)" stroke="black" stroke-width="1px" transform="translate(286.70165508484826,236.02172402601852)"></circle><circle r="0.8032842130742522" fill="rgb(193, 231, 193)" stroke="black" stroke-width="1px" transform="translate(208.87100366483637,335.92530983720326)"></circle><circle r="0.5680077142849033" fill="rgb(194, 231, 194)" stroke="black" stroke-width="1px" transform="translate(174.59719949723168,335.00544579189454)"></circle><circle r="0.4016421065371261" fill="rgb(199, 233, 197)" stroke="black" stroke-width="1px" transform="translate(323.27118234575704,319.86038905560446)"></circle><circle r="1.2701038608853221" fill="rgb(149, 214, 188)" stroke="black" stroke-width="1px" transform="translate(286.3789196194613,179.46095001038094)"></circle><circle r="1.1360154285698065" fill="rgb(163, 219, 186)" stroke="black" stroke-width="1px" transform="translate(215.8696054564139,242.932397966692)"></circle><circle r="0.8032842130742522" fill="rgb(149, 214, 188)" stroke="black" stroke-width="1px" transform="translate(288.1655391365362,138.73420424648606)"></circle><circle r="0.5680077142849033" fill="rgb(144, 212, 190)" stroke="black" stroke-width="1px" transform="translate(259.5009067353838,214.49263592634165)"></circle><circle r="0.5680077142849033" fill="rgb(133, 207, 193)" stroke="black" stroke-width="1px" transform="translate(273.47479291870104,202.7546307061285)"></circle><circle r="0.5680077142849033" fill="rgb(134, 208, 192)" stroke="black" stroke-width="1px" transform="translate(309.6345599850013,209.7505725837568)"></circle><circle r="0.5680077142849033" fill="rgb(158, 217, 187)" stroke="black" stroke-width="1px" transform="translate(293.002763364082,201.37714596647115)"></circle><circle r="0.4016421065371261" fill="rgb(134, 208, 192)" stroke="black" stroke-width="1px" transform="translate(344.15386892155135,209.85739518977792)"></circle><circle r="0.4016421065371261" fill="rgb(163, 219, 186)" stroke="black" stroke-width="1px" transform="translate(317.57323771825617,251.95043196955857)"></circle><circle r="0.5680077142849033" fill="rgb(105, 194, 202)" stroke="black" stroke-width="1px" transform="translate(322.73383794294637,186.7331915050915)"></circle><circle r="0.4016421065371261" fill="rgb(120, 201, 197)" stroke="black" stroke-width="1px" transform="translate(333.28192712364506,238.80798452530985)"></circle><circle r="0.4016421065371261" fill="rgb(123, 202, 196)" stroke="black" stroke-width="1px" transform="translate(183.94936293288413,227.36523503222435)"></circle><circle r="0.4016421065371261" fill="rgb(70, 168, 203)" stroke="black" stroke-width="1px" transform="translate(326.2304543158008,218.05330512560658)"></circle><circle r="0.4016421065371261" fill="rgb(15, 105, 169)" stroke="black" stroke-width="1px" transform="translate(176.0269153502338,205.73867269242794)"></circle><circle r="0.8032842130742522" fill="rgb(10, 90, 156)" stroke="black" stroke-width="1px" transform="translate(145.86965124005897,180.92274319252834)"></circle><circle r="0.4016421065371261" fill="rgb(11, 95, 160)" stroke="black" stroke-width="1px" transform="translate(239.232701207844,265.03513789080546)"></circle></g></g><g><text x="505" y="495" font-family="sans-serif" text-anchor="end" font-size="10px" fill="red">30 nodes</text><text x="505" y="505" font-family="sans-serif" text-anchor="end" font-size="10px" fill="red">42 edges</text></g></svg>