<svg height="512" width="512" style="border-style: solid; border-width: 1px; cursor: auto;" id="figure"><g transform="translate(-771.7047894523537,-774.5009106184107) scale(4.166305089209633)"><g class="links"><line stroke-width="0.7099911860057665" stroke="lightgray" x1="266.02206213188066" y1="279.73205868340716" x2="303.9173591586628" y2="279.98749892588705"></line><line stroke-width="0.9600833146760307" stroke="lightgray" x1="266.02206213188066" y1="279.73205868340716" x2="304.4817729739985" y2="261.7444751686802"></line><line stroke-width="2.2515949549499856" stroke="lightgray" x1="266.02206213188066" y1="279.73205868340716" x2="273.5215391600777" y2="259.89540316583395"></line><line stroke-width="0.24002082866900767" stroke="lightgray" x1="266.02206213188066" y1="279.73205868340716" x2="279.246997299443" y2="305.0718512642588"></line><line stroke-width="0.20786413506475293" stroke="lightgray" x1="266.02206213188066" y1="279.73205868340716" x2="242.51565528535951" y2="231.35262425172397"></line><line stroke-width="0.16972035557786982" stroke="lightgray" x1="266.02206213188066" y1="279.73205868340716" x2="295.46427916318663" y2="294.71059285706366"></line><line stroke-width="0.24002082866900767" stroke="lightgray" x1="266.02206213188066" y1="279.73205868340716" x2="222.34351632744125" y2="273.24044543348725"></line><line stroke-width="0.48004165733801535" stroke="lightgray" x1="273.5215391600777" y1="259.89540316583395" x2="279.246997299443" y2="305.0718512642588"></line><line stroke-width="0.20786413506475293" stroke="lightgray" x1="273.5215391600777" y1="259.89540316583395" x2="281.60845135341924" y2="217.65489947830713"></line><line stroke-width="0.29396427893952637" stroke="lightgray" x1="273.5215391600777" y1="259.89540316583395" x2="242.51565528535951" y2="231.35262425172397"></line><line stroke-width="0.6894073433815427" stroke="lightgray" x1="273.5215391600777" y1="259.89540316583395" x2="304.4817729739985" y2="261.7444751686802"></line><line stroke-width="0.4490378532844976" stroke="lightgray" x1="273.5215391600777" y1="259.89540316583395" x2="222.34351632744125" y2="273.24044543348725"></line><line stroke-width="0.16972035557786982" stroke="lightgray" x1="273.5215391600777" y1="259.89540316583395" x2="295.46427916318663" y2="294.71059285706366"></line><line stroke-width="0.12001041433450384" stroke="lightgray" x1="273.5215391600777" y1="259.89540316583395" x2="248.1597185577113" y2="291.9629610145232"></line><line stroke-width="0.12001041433450384" stroke="lightgray" x1="273.5215391600777" y1="259.89540316583395" x2="303.9173591586628" y2="279.98749892588705"></line><line stroke-width="0.12001041433450384" stroke="lightgray" x1="281.60845135341924" y1="217.65489947830713" x2="303.264364620878" y2="188.72203475656818"></line><line stroke-width="0.20786413506475293" stroke="lightgray" x1="281.60845135341924" y1="217.65489947830713" x2="242.51565528535951" y2="231.35262425172397"></line><line stroke-width="0.20786413506475293" stroke="lightgray" x1="221.76201533210948" y1="202.09967753539115" x2="242.51565528535951" y2="231.35262425172397"></line><line stroke-width="0.24002082866900767" stroke="lightgray" x1="242.51565528535951" y1="231.35262425172397" x2="208.71800945389788" y2="221.01384373649648"></line><line stroke-width="0.16972035557786982" stroke="lightgray" x1="242.51565528535951" y1="231.35262425172397" x2="243.64564993721368" y2="195.9168586207362"></line><line stroke-width="0.12001041433450384" stroke="lightgray" x1="242.51565528535951" y1="231.35262425172397" x2="222.34351632744125" y2="273.24044543348725"></line><line stroke-width="0.12001041433450384" stroke="lightgray" x1="222.34351632744125" y1="273.24044543348725" x2="198.55682587625444" y2="300.0522983900992"></line><line stroke-width="0.12001041433450384" stroke="lightgray" x1="222.34351632744125" y1="273.24044543348725" x2="248.1597185577113" y2="291.9629610145232"></line><line stroke-width="0.12001041433450384" stroke="lightgray" x1="222.34351632744125" y1="273.24044543348725" x2="186.77442911867763" y2="276.84210260822624"></line></g><g class="nodes"><circle r="2.8500894276301145" fill="rgb(237, 248, 231)" stroke="black" stroke-width="1px" transform="translate(266.02206213188066,279.73205868340716)"></circle><circle r="2.505891019827145" fill="rgb(236, 248, 230)" stroke="black" stroke-width="1px" transform="translate(273.5215391600777,259.89540316583395)"></circle><circle r="0.8980757065689952" fill="rgb(241, 250, 234)" stroke="black" stroke-width="1px" transform="translate(304.4817729739985,261.7444751686802)"></circle><circle r="0.6350354221338366" fill="rgb(236, 248, 229)" stroke="black" stroke-width="1px" transform="translate(279.246997299443,305.0718512642588)"></circle><circle r="0.5367028889197315" fill="rgb(206, 236, 201)" stroke="black" stroke-width="1px" transform="translate(281.60845135341924,217.65489947830713)"></circle><circle r="0.33944071115573965" fill="rgb(241, 250, 235)" stroke="black" stroke-width="1px" transform="translate(295.46427916318663,294.71059285706366)"></circle><circle r="0.8980757065689952" fill="rgb(149, 214, 188)" stroke="black" stroke-width="1px" transform="translate(221.76201533210948,202.09967753539115)"></circle><circle r="0.8980757065689952" fill="rgb(155, 216, 187)" stroke="black" stroke-width="1px" transform="translate(242.51565528535951,231.35262425172397)"></circle><circle r="0.6788814223114793" fill="rgb(163, 219, 186)" stroke="black" stroke-width="1px" transform="translate(222.34351632744125,273.24044543348725)"></circle><circle r="0.5879285578790527" fill="rgb(193, 231, 193)" stroke="black" stroke-width="1px" transform="translate(303.9173591586628,279.98749892588705)"></circle><circle r="0.24002082866900767" fill="rgb(199, 233, 197)" stroke="black" stroke-width="1px" transform="translate(303.264364620878,188.72203475656818)"></circle><circle r="0.41572827012950586" fill="rgb(93, 186, 204)" stroke="black" stroke-width="1px" transform="translate(208.71800945389788,221.01384373649648)"></circle><circle r="0.24002082866900767" fill="rgb(120, 201, 197)" stroke="black" stroke-width="1px" transform="translate(243.64564993721368,195.9168586207362)"></circle><circle r="0.24002082866900767" fill="rgb(123, 202, 196)" stroke="black" stroke-width="1px" transform="translate(186.77442911867763,276.84210260822624)"></circle><circle r="0.5367028889197315" fill="rgb(10, 93, 159)" stroke="black" stroke-width="1px" transform="translate(198.55682587625444,300.0522983900992)"></circle><circle r="0.24002082866900767" fill="rgb(11, 95, 160)" stroke="black" stroke-width="1px" transform="translate(248.1597185577113,291.9629610145232)"></circle></g></g><g><text x="505" y="495" font-family="sans-serif" text-anchor="end" font-size="10px" fill="red">16 nodes</text><text x="505" y="505" font-family="sans-serif" text-anchor="end" font-size="10px" fill="red">24 edges</text></g></svg>