<svg height="512" width="512" style="border-style: solid; border-width: 1px; cursor: auto;" id="figure"><g transform="translate(-292.3152224782781,-335.1057101743812) scale(2.2820785573197955)"><g class="links"><line stroke-width="1.2962042354159362" stroke="lightgray" x1="305.6613504644491" y1="276.5305293896889" x2="337.7682675505048" y2="269.5225860869823"></line><line stroke-width="1.7527880392942434" stroke="lightgray" x1="305.6613504644491" y1="276.5305293896889" x2="322.9308433740269" y2="236.0824663208972"></line><line stroke-width="4.110652321567864" stroke="lightgray" x1="305.6613504644491" y1="276.5305293896889" x2="286.78700019640564" y2="268.8021080247978"></line><line stroke-width="0.43819700982356086" stroke="lightgray" x1="305.6613504644491" y1="276.5305293896889" x2="302.6138144526655" y2="308.18994439923347"></line><line stroke-width="0.8763940196471217" stroke="lightgray" x1="305.6613504644491" y1="276.5305293896889" x2="345.1276121089025" y2="284.3117070795342"></line><line stroke-width="0.3794897423695829" stroke="lightgray" x1="305.6613504644491" y1="276.5305293896889" x2="225.6276302435364" y2="228.1714124574448"></line><line stroke-width="2.0785509223764453" stroke="lightgray" x1="305.6613504644491" y1="276.5305293896889" x2="347.59663141527676" y2="247.1533437145206"></line><line stroke-width="0.3098520771419081" stroke="lightgray" x1="305.6613504644491" y1="276.5305293896889" x2="318.39881106364237" y2="302.5550824758419"></line><line stroke-width="0.43819700982356086" stroke="lightgray" x1="305.6613504644491" y1="276.5305293896889" x2="252.02188932660033" y2="310.84424536706933"></line><line stroke-width="0.43819700982356086" stroke="lightgray" x1="305.6613504644491" y1="276.5305293896889" x2="240.07364595807226" y2="299.3869569839892"></line><line stroke-width="0.21909850491178043" stroke="lightgray" x1="305.6613504644491" y1="276.5305293896889" x2="338.00714903978263" y2="299.7654850016823"></line><line stroke-width="0.3098520771419081" stroke="lightgray" x1="286.78700019640564" y1="268.8021080247978" x2="299.3328267746262" y2="234.9791820332756"></line><line stroke-width="0.21909850491178043" stroke="lightgray" x1="286.78700019640564" y1="268.8021080247978" x2="317.4988361473476" y2="252.2541969239133"></line><line stroke-width="0.8763940196471217" stroke="lightgray" x1="286.78700019640564" y1="268.8021080247978" x2="302.6138144526655" y2="308.18994439923347"></line><line stroke-width="0.3794897423695829" stroke="lightgray" x1="286.78700019640564" y1="268.8021080247978" x2="265.002368469819" y2="231.4911288125924"></line><line stroke-width="0.6197041542838162" stroke="lightgray" x1="286.78700019640564" y1="268.8021080247978" x2="225.6276302435364" y2="228.1714124574448"></line><line stroke-width="0.21909850491178043" stroke="lightgray" x1="286.78700019640564" y1="268.8021080247978" x2="243.52965302368236" y2="257.8577323716214"></line><line stroke-width="1.2586250872285427" stroke="lightgray" x1="286.78700019640564" y1="268.8021080247978" x2="322.9308433740269" y2="236.0824663208972"></line><line stroke-width="0.789970893836923" stroke="lightgray" x1="286.78700019640564" y1="268.8021080247978" x2="347.59663141527676" y2="247.1533437145206"></line><line stroke-width="0.7589794847391658" stroke="lightgray" x1="286.78700019640564" y1="268.8021080247978" x2="252.02188932660033" y2="310.84424536706933"></line><line stroke-width="0.8197915393342899" stroke="lightgray" x1="286.78700019640564" y1="268.8021080247978" x2="240.07364595807226" y2="299.3869569839892"></line><line stroke-width="0.3098520771419081" stroke="lightgray" x1="286.78700019640564" y1="268.8021080247978" x2="318.39881106364237" y2="302.5550824758419"></line><line stroke-width="0.21909850491178043" stroke="lightgray" x1="286.78700019640564" y1="268.8021080247978" x2="278.640860750223" y2="314.9079130342279"></line><line stroke-width="0.21909850491178043" stroke="lightgray" x1="286.78700019640564" y1="268.8021080247978" x2="337.7682675505048" y2="269.5225860869823"></line><line stroke-width="0.3098520771419081" stroke="lightgray" x1="322.9308433740269" y1="236.0824663208972" x2="347.59663141527676" y2="247.1533437145206"></line><line stroke-width="0.7266675329202152" stroke="lightgray" x1="265.002368469819" y1="231.4911288125924" x2="225.6276302435364" y2="228.1714124574448"></line><line stroke-width="0.21909850491178043" stroke="lightgray" x1="265.002368469819" y1="231.4911288125924" x2="243.52965302368236" y2="257.8577323716214"></line><line stroke-width="0.48991915075131265" stroke="lightgray" x1="347.59663141527676" y1="247.1533437145206" x2="337.7682675505048" y2="269.5225860869823"></line><line stroke-width="0.3098520771419081" stroke="lightgray" x1="225.6276302435364" y1="228.1714124574448" x2="190.99523900969305" y2="237.4111601806438"></line><line stroke-width="0.21909850491178043" stroke="lightgray" x1="225.6276302435364" y1="228.1714124574448" x2="235.92294738129462" y2="179.42860788578056"></line><line stroke-width="0.3098520771419081" stroke="lightgray" x1="225.6276302435364" y1="228.1714124574448" x2="207.18502041369507" y2="167.76267716512405"></line><line stroke-width="0.3098520771419081" stroke="lightgray" x1="225.6276302435364" y1="228.1714124574448" x2="193.85407468990564" y2="212.83910821614685"></line><line stroke-width="0.21909850491178043" stroke="lightgray" x1="225.6276302435364" y1="228.1714124574448" x2="244.84957916538784" y2="198.50349112242208"></line><line stroke-width="0.3794897423695829" stroke="lightgray" x1="225.6276302435364" y1="228.1714124574448" x2="170.96253954057215" y2="221.37709662531398"></line><line stroke-width="0.5366795404405359" stroke="lightgray" x1="225.6276302435364" y1="228.1714124574448" x2="243.52965302368236" y2="257.8577323716214"></line><line stroke-width="0.3098520771419081" stroke="lightgray" x1="225.6276302435364" y1="228.1714124574448" x2="205.82714430639768" y2="259.25322803942646"></line><line stroke-width="0.3794897423695829" stroke="lightgray" x1="225.6276302435364" y1="228.1714124574448" x2="178.99617493771711" y2="186.27541812069836"></line><line stroke-width="0.21909850491178043" stroke="lightgray" x1="225.6276302435364" y1="228.1714124574448" x2="205.37843654321304" y2="189.76346798987197"></line><line stroke-width="0.3098520771419081" stroke="lightgray" x1="225.6276302435364" y1="228.1714124574448" x2="221.85240436728412" y2="193.76808895314346"></line><line stroke-width="0.21909850491178043" stroke="lightgray" x1="225.6276302435364" y1="228.1714124574448" x2="252.02188932660033" y2="310.84424536706933"></line><line stroke-width="0.21909850491178043" stroke="lightgray" x1="225.6276302435364" y1="228.1714124574448" x2="240.07364595807226" y2="299.3869569839892"></line><line stroke-width="1.0954925245589022" stroke="lightgray" x1="252.02188932660033" y1="310.84424536706933" x2="240.07364595807226" y2="299.3869569839892"></line><line stroke-width="0.21909850491178043" stroke="lightgray" x1="252.02188932660033" y1="310.84424536706933" x2="250.49604453528204" y2="349.5116787180719"></line><line stroke-width="0.21909850491178043" stroke="lightgray" x1="252.02188932660033" y1="310.84424536706933" x2="224.08165055591195" y2="344.9658554745384"></line><line stroke-width="0.21909850491178043" stroke="lightgray" x1="252.02188932660033" y1="310.84424536706933" x2="278.640860750223" y2="314.9079130342279"></line><line stroke-width="0.21909850491178043" stroke="lightgray" x1="252.02188932660033" y1="310.84424536706933" x2="216.68874322997553" y2="327.659827284768"></line><line stroke-width="0.43819700982356086" stroke="lightgray" x1="170.96253954057215" y1="221.37709662531398" x2="131.28412223439318" y2="213.69492173028553"></line><line stroke-width="0.21909850491178043" stroke="lightgray" x1="240.07364595807226" y1="299.3869569839892" x2="250.49604453528204" y2="349.5116787180719"></line><line stroke-width="0.21909850491178043" stroke="lightgray" x1="240.07364595807226" y1="299.3869569839892" x2="224.08165055591195" y2="344.9658554745384"></line><line stroke-width="0.21909850491178043" stroke="lightgray" x1="240.07364595807226" y1="299.3869569839892" x2="278.640860750223" y2="314.9079130342279"></line><line stroke-width="0.21909850491178043" stroke="lightgray" x1="240.07364595807226" y1="299.3869569839892" x2="216.68874322997553" y2="327.659827284768"></line><line stroke-width="0.3098520771419081" stroke="lightgray" x1="243.52965302368236" y1="257.8577323716214" x2="205.82714430639768" y2="259.25322803942646"></line><line stroke-width="0.3098520771419081" stroke="lightgray" x1="178.99617493771711" y1="186.27541812069836" x2="207.18502041369507" y2="167.76267716512405"></line><line stroke-width="0.21909850491178043" stroke="lightgray" x1="178.99617493771711" y1="186.27541812069836" x2="205.37843654321304" y2="189.76346798987197"></line><line stroke-width="0.21909850491178043" stroke="lightgray" x1="207.18502041369507" y1="167.76267716512405" x2="235.92294738129462" y2="179.42860788578056"></line><line stroke-width="0.48991915075131265" stroke="lightgray" x1="250.49604453528204" y1="349.5116787180719" x2="224.08165055591195" y2="344.9658554745384"></line></g><g class="nodes"><circle r="5.184816941663745" fill="rgb(237, 248, 231)" stroke="black" stroke-width="1px" transform="translate(305.6613504644491,276.5305293896889)"></circle><circle r="4.5538769084349955" fill="rgb(236, 248, 230)" stroke="black" stroke-width="1px" transform="translate(286.78700019640564,268.8021080247978)"></circle><circle r="1.6395830786685799" fill="rgb(241, 250, 234)" stroke="black" stroke-width="1px" transform="translate(322.9308433740269,236.0824663208972)"></circle><circle r="1.1593603132452694" fill="rgb(236, 248, 229)" stroke="black" stroke-width="1px" transform="translate(302.6138144526655,308.18994439923347)"></circle><circle r="0.6197041542838162" fill="rgb(241, 250, 235)" stroke="black" stroke-width="1px" transform="translate(318.39881106364237,302.5550824758419)"></circle><circle r="1.0733590808810718" fill="rgb(205, 235, 201)" stroke="black" stroke-width="1px" transform="translate(265.002368469819,231.4911288125924)"></circle><circle r="0.8763940196471217" fill="rgb(224, 243, 219)" stroke="black" stroke-width="1px" transform="translate(347.59663141527676,247.1533437145206)"></circle><circle r="0.6197041542838162" fill="rgb(225, 243, 219)" stroke="black" stroke-width="1px" transform="translate(345.1276121089025,284.3117070795342)"></circle><circle r="0.43819700982356086" fill="rgb(220, 241, 214)" stroke="black" stroke-width="1px" transform="translate(317.4988361473476,252.2541969239133)"></circle><circle r="0.43819700982356086" fill="rgb(226, 244, 220)" stroke="black" stroke-width="1px" transform="translate(338.00714903978263,299.7654850016823)"></circle><circle r="0.43819700982356086" fill="rgb(226, 244, 220)" stroke="black" stroke-width="1px" transform="translate(299.3328267746262,234.9791820332756)"></circle><circle r="1.2394083085676324" fill="rgb(188, 229, 191)" stroke="black" stroke-width="1px" transform="translate(225.6276302435364,228.1714124574448)"></circle><circle r="1.0733590808810718" fill="rgb(193, 231, 193)" stroke="black" stroke-width="1px" transform="translate(337.7682675505048,269.5225860869823)"></circle><circle r="0.9798383015026253" fill="rgb(165, 220, 186)" stroke="black" stroke-width="1px" transform="translate(252.02188932660033,310.84424536706933)"></circle><circle r="1.3857006149176305" fill="rgb(149, 214, 188)" stroke="black" stroke-width="1px" transform="translate(170.96253954057215,221.37709662531398)"></circle><circle r="1.3145910294706826" fill="rgb(159, 218, 187)" stroke="black" stroke-width="1px" transform="translate(240.07364595807226,299.3869569839892)"></circle><circle r="0.8763940196471217" fill="rgb(149, 214, 188)" stroke="black" stroke-width="1px" transform="translate(131.28412223439318,213.69492173028553)"></circle><circle r="0.7589794847391658" fill="rgb(145, 212, 189)" stroke="black" stroke-width="1px" transform="translate(243.52965302368236,257.8577323716214)"></circle><circle r="0.7589794847391658" fill="rgb(125, 204, 195)" stroke="black" stroke-width="1px" transform="translate(178.99617493771711,186.27541812069836)"></circle><circle r="0.6197041542838162" fill="rgb(144, 212, 190)" stroke="black" stroke-width="1px" transform="translate(190.99523900969305,237.4111601806438)"></circle><circle r="0.6197041542838162" fill="rgb(158, 217, 187)" stroke="black" stroke-width="1px" transform="translate(193.85407468990564,212.83910821614685)"></circle><circle r="0.6197041542838162" fill="rgb(134, 208, 192)" stroke="black" stroke-width="1px" transform="translate(221.85240436728412,193.76808895314346)"></circle><circle r="0.43819700982356086" fill="rgb(163, 219, 186)" stroke="black" stroke-width="1px" transform="translate(244.84957916538784,198.50349112242208)"></circle><circle r="0.6197041542838162" fill="rgb(105, 194, 202)" stroke="black" stroke-width="1px" transform="translate(207.18502041369507,167.76267716512405)"></circle><circle r="0.43819700982356086" fill="rgb(123, 202, 196)" stroke="black" stroke-width="1px" transform="translate(216.68874322997553,327.659827284768)"></circle><circle r="0.43819700982356086" fill="rgb(126, 204, 195)" stroke="black" stroke-width="1px" transform="translate(205.82714430639768,259.25322803942646)"></circle><circle r="0.43819700982356086" fill="rgb(120, 201, 197)" stroke="black" stroke-width="1px" transform="translate(205.37843654321304,189.76346798987197)"></circle><circle r="0.43819700982356086" fill="rgb(70, 168, 203)" stroke="black" stroke-width="1px" transform="translate(235.92294738129462,179.42860788578056)"></circle><circle r="0.6197041542838162" fill="rgb(14, 103, 168)" stroke="black" stroke-width="1px" transform="translate(250.49604453528204,349.5116787180719)"></circle><circle r="0.9798383015026253" fill="rgb(10, 93, 159)" stroke="black" stroke-width="1px" transform="translate(224.08165055591195,344.9658554745384)"></circle><circle r="0.43819700982356086" fill="rgb(11, 95, 160)" stroke="black" stroke-width="1px" transform="translate(278.640860750223,314.9079130342279)"></circle></g></g><g><text x="505" y="495" font-family="sans-serif" text-anchor="end" font-size="10px" fill="red">31 nodes</text><text x="505" y="505" font-family="sans-serif" text-anchor="end" font-size="10px" fill="red">56 edges</text></g></svg>