<svg height="512" width="512" style="border-style: solid; border-width: 1px; cursor: auto;" id="figure"><g transform="translate(-311.95636920154084,-267.9555393202203) scale(1.9389845191954123)"><g class="links"><line stroke-width="4.87907142659287" stroke="lightgray" x1="283.16460379147406" y1="209.21463350469875" x2="231.95050155703" y2="196.33309089574524"></line><line stroke-width="1.4813327774586238" stroke="lightgray" x1="283.16460379147406" y1="209.21463350469875" x2="218.14075494375535" y2="182.56008151408005"></line><line stroke-width="0.25786693759034063" stroke="lightgray" x1="283.16460379147406" y1="209.21463350469875" x2="295.3262780158433" y2="173.95789835292499"></line><line stroke-width="2.8247907710601283" stroke="lightgray" x1="283.16460379147406" y1="209.21463350469875" x2="253.83993046771081" y2="187.9436400852436"></line><line stroke-width="4.677282610472729" stroke="lightgray" x1="283.16460379147406" y1="209.21463350469875" x2="229.97806053905117" y2="256.870740419321"></line><line stroke-width="0.25786693759034063" stroke="lightgray" x1="283.16460379147406" y1="209.21463350469875" x2="309.25814316818753" y2="181.5911804990062"></line><line stroke-width="0.3646789204278762" stroke="lightgray" x1="283.16460379147406" y1="209.21463350469875" x2="272.2196082498541" y2="171.16914280962047"></line><line stroke-width="0.25786693759034063" stroke="lightgray" x1="283.16460379147406" y1="209.21463350469875" x2="320.4913665676224" y2="180.678573024267"></line><line stroke-width="0.3646789204278762" stroke="lightgray" x1="283.16460379147406" y1="209.21463350469875" x2="297.7352050733749" y2="163.29884114360073"></line><line stroke-width="0.3646789204278762" stroke="lightgray" x1="283.16460379147406" y1="209.21463350469875" x2="309.85603331389615" y2="169.7758518597855"></line><line stroke-width="0.5157338751806813" stroke="lightgray" x1="283.16460379147406" y1="209.21463350469875" x2="268.90067874234364" y2="241.19731703766087"></line><line stroke-width="0.6822517882098547" stroke="lightgray" x1="283.16460379147406" y1="209.21463350469875" x2="284.66167887428685" y2="166.0260216082218"></line><line stroke-width="2.110731852379355" stroke="lightgray" x1="283.16460379147406" y1="209.21463350469875" x2="252.5340974025981" y2="153.60830861895803"></line><line stroke-width="0.4466386374986627" stroke="lightgray" x1="283.16460379147406" y1="209.21463350469875" x2="240.53561506339042" y2="339.6565939769943"></line><line stroke-width="0.4466386374986627" stroke="lightgray" x1="283.16460379147406" y1="209.21463350469875" x2="256.89845123457235" y2="340.5018722820353"></line><line stroke-width="0.25786693759034063" stroke="lightgray" x1="283.16460379147406" y1="209.21463350469875" x2="320.3263481469537" y2="192.273753645097"></line><line stroke-width="0.25786693759034063" stroke="lightgray" x1="283.16460379147406" y1="209.21463350469875" x2="253.15609869962108" y2="225.37564404000832"></line><line stroke-width="1.1816947607341894" stroke="lightgray" x1="283.16460379147406" y1="209.21463350469875" x2="256.5939935759515" y2="273.8392166780368"></line><line stroke-width="0.3646789204278762" stroke="lightgray" x1="283.16460379147406" y1="209.21463350469875" x2="244.00391659775957" y2="214.31806189558688"></line><line stroke-width="0.4466386374986627" stroke="lightgray" x1="283.16460379147406" y1="209.21463350469875" x2="303.9341268062271" y2="290.9609212411388"></line><line stroke-width="0.4466386374986627" stroke="lightgray" x1="283.16460379147406" y1="209.21463350469875" x2="309.82622217778334" y2="274.19776912731743"></line><line stroke-width="0.25786693759034063" stroke="lightgray" x1="283.16460379147406" y1="209.21463350469875" x2="324.59741598287843" y2="202.3897630586608"></line><line stroke-width="0.25786693759034063" stroke="lightgray" x1="283.16460379147406" y1="209.21463350469875" x2="272.9611480275202" y2="152.27215509813954"></line><line stroke-width="0.25786693759034063" stroke="lightgray" x1="283.16460379147406" y1="209.21463350469875" x2="321.10293800901513" y2="214.70739848264614"></line><line stroke-width="0.25786693759034063" stroke="lightgray" x1="229.97806053905117" y1="256.870740419321" x2="193.64107240649116" y2="249.7155041555878"></line><line stroke-width="3.352270188674428" stroke="lightgray" x1="229.97806053905117" y1="256.870740419321" x2="256.5939935759515" y2="273.8392166780368"></line><line stroke-width="0.25786693759034063" stroke="lightgray" x1="229.97806053905117" y1="256.870740419321" x2="184.68556803651524" y2="241.23168182733585"></line><line stroke-width="0.5766080016016975" stroke="lightgray" x1="229.97806053905117" y1="256.870740419321" x2="199.478590706429" y2="281.7675311426057"></line><line stroke-width="0.25786693759034063" stroke="lightgray" x1="229.97806053905117" y1="256.870740419321" x2="188.8076832538904" y2="231.14365173193295"></line><line stroke-width="0.5157338751806813" stroke="lightgray" x1="229.97806053905117" y1="256.870740419321" x2="183.19710967874838" y2="263.8441033176718"></line><line stroke-width="0.25786693759034063" stroke="lightgray" x1="229.97806053905117" y1="256.870740419321" x2="196.28766746084517" y2="222.08373119961345"></line><line stroke-width="0.3646789204278762" stroke="lightgray" x1="229.97806053905117" y1="256.870740419321" x2="253.15609869962108" y2="225.37564404000832"></line><line stroke-width="1.0314677503613625" stroke="lightgray" x1="229.97806053905117" y1="256.870740419321" x2="268.90067874234364" y2="241.19731703766087"></line><line stroke-width="0.4466386374986627" stroke="lightgray" x1="229.97806053905117" y1="256.870740419321" x2="214.48727964827364" y2="315.2000379993417"></line><line stroke-width="0.4466386374986627" stroke="lightgray" x1="229.97806053905117" y1="256.870740419321" x2="238.09940562208956" y2="308.8469453817589"></line><line stroke-width="0.4466386374986627" stroke="lightgray" x1="229.97806053905117" y1="256.870740419321" x2="181.5890787775885" y2="252.31031214065797"></line><line stroke-width="0.6316424186304492" stroke="lightgray" x1="229.97806053905117" y1="256.870740419321" x2="240.53561506339042" y2="339.6565939769943"></line><line stroke-width="0.6316424186304492" stroke="lightgray" x1="229.97806053905117" y1="256.870740419321" x2="256.89845123457235" y2="340.5018722820353"></line><line stroke-width="1.9296994636793459" stroke="lightgray" x1="229.97806053905117" y1="256.870740419321" x2="253.83993046771081" y2="187.9436400852436"></line><line stroke-width="1.8772996424699209" stroke="lightgray" x1="229.97806053905117" y1="256.870740419321" x2="231.95050155703" y2="196.33309089574524"></line><line stroke-width="0.3646789204278762" stroke="lightgray" x1="229.97806053905117" y1="256.870740419321" x2="188.5134264128454" y2="276.71144986689336"></line><line stroke-width="0.5766080016016975" stroke="lightgray" x1="229.97806053905117" y1="256.870740419321" x2="210.1747225218607" y2="287.9955204231375"></line><line stroke-width="0.9648497318396729" stroke="lightgray" x1="229.97806053905117" y1="256.870740419321" x2="303.9341268062271" y2="290.9609212411388"></line><line stroke-width="0.9648497318396729" stroke="lightgray" x1="229.97806053905117" y1="256.870740419321" x2="309.82622217778334" y2="274.19776912731743"></line><line stroke-width="0.3646789204278762" stroke="lightgray" x1="229.97806053905117" y1="256.870740419321" x2="244.00391659775957" y2="214.31806189558688"></line><line stroke-width="0.3646789204278762" stroke="lightgray" x1="229.97806053905117" y1="256.870740419321" x2="194.8761992865646" y2="266.3937703094545"></line><line stroke-width="0.25786693759034063" stroke="lightgray" x1="229.97806053905117" y1="256.870740419321" x2="279.5562783533503" y2="266.4417780155579"></line><line stroke-width="0.25786693759034063" stroke="lightgray" x1="229.97806053905117" y1="256.870740419321" x2="272.89847693547006" y2="287.1080757080232"></line><line stroke-width="0.25786693759034063" stroke="lightgray" x1="229.97806053905117" y1="256.870740419321" x2="218.14075494375535" y2="182.56008151408005"></line><line stroke-width="0.25786693759034063" stroke="lightgray" x1="229.97806053905117" y1="256.870740419321" x2="200.8624252592772" y2="235.18188694924163"></line><line stroke-width="0.25786693759034063" stroke="lightgray" x1="229.97806053905117" y1="256.870740419321" x2="207.1406214153799" y2="222.82505414263846"></line><line stroke-width="0.25786693759034063" stroke="lightgray" x1="229.97806053905117" y1="256.870740419321" x2="217.90463049433484" y2="220.0728080326046"></line><line stroke-width="0.4466386374986627" stroke="lightgray" x1="253.83993046771081" y1="187.9436400852436" x2="252.5340974025981" y2="153.60830861895803"></line><line stroke-width="0.4466386374986627" stroke="lightgray" x1="253.83993046771081" y1="187.9436400852436" x2="256.5939935759515" y2="273.8392166780368"></line><line stroke-width="1.2632848372608985" stroke="lightgray" x1="253.83993046771081" y1="187.9436400852436" x2="231.95050155703" y2="196.33309089574524"></line><line stroke-width="0.3646789204278762" stroke="lightgray" x1="253.83993046771081" y1="187.9436400852436" x2="218.14075494375535" y2="182.56008151408005"></line><line stroke-width="0.25786693759034063" stroke="lightgray" x1="253.83993046771081" y1="187.9436400852436" x2="227.92564689647034" y2="148.63474140335492"></line><line stroke-width="0.25786693759034063" stroke="lightgray" x1="253.83993046771081" y1="187.9436400852436" x2="303.9341268062271" y2="290.9609212411388"></line><line stroke-width="0.25786693759034063" stroke="lightgray" x1="253.83993046771081" y1="187.9436400852436" x2="309.82622217778334" y2="274.19776912731743"></line><line stroke-width="0.25786693759034063" stroke="lightgray" x1="253.83993046771081" y1="187.9436400852436" x2="272.9611480275202" y2="152.27215509813954"></line><line stroke-width="0.25786693759034063" stroke="lightgray" x1="253.83993046771081" y1="187.9436400852436" x2="240.8816042176085" y2="141.34718207048888"></line><line stroke-width="0.8932772749973255" stroke="lightgray" x1="268.90067874234364" y1="241.19731703766087" x2="256.5939935759515" y2="273.8392166780368"></line><line stroke-width="1.3645035764197093" stroke="lightgray" x1="231.95050155703" y1="196.33309089574524" x2="218.14075494375535" y2="182.56008151408005"></line><line stroke-width="0.5766080016016975" stroke="lightgray" x1="231.95050155703" y1="196.33309089574524" x2="252.5340974025981" y2="153.60830861895803"></line><line stroke-width="0.4466386374986627" stroke="lightgray" x1="231.95050155703" y1="196.33309089574524" x2="256.5939935759515" y2="273.8392166780368"></line><line stroke-width="0.4466386374986627" stroke="lightgray" x1="256.5939935759515" y1="273.8392166780368" x2="214.48727964827364" y2="315.2000379993417"></line><line stroke-width="0.4466386374986627" stroke="lightgray" x1="256.5939935759515" y1="273.8392166780368" x2="238.09940562208956" y2="308.8469453817589"></line><line stroke-width="0.4466386374986627" stroke="lightgray" x1="256.5939935759515" y1="273.8392166780368" x2="240.53561506339042" y2="339.6565939769943"></line><line stroke-width="0.4466386374986627" stroke="lightgray" x1="256.5939935759515" y1="273.8392166780368" x2="256.89845123457235" y2="340.5018722820353"></line><line stroke-width="0.3646789204278762" stroke="lightgray" x1="256.5939935759515" y1="273.8392166780368" x2="303.9341268062271" y2="290.9609212411388"></line><line stroke-width="0.3646789204278762" stroke="lightgray" x1="256.5939935759515" y1="273.8392166780368" x2="309.82622217778334" y2="274.19776912731743"></line><line stroke-width="1.0632126210395316" stroke="lightgray" x1="214.48727964827364" y1="315.2000379993417" x2="238.09940562208956" y2="308.8469453817589"></line><line stroke-width="0.5157338751806813" stroke="lightgray" x1="214.48727964827364" y1="315.2000379993417" x2="240.53561506339042" y2="339.6565939769943"></line><line stroke-width="0.3646789204278762" stroke="lightgray" x1="214.48727964827364" y1="315.2000379993417" x2="256.89845123457235" y2="340.5018722820353"></line><line stroke-width="0.25786693759034063" stroke="lightgray" x1="303.9341268062271" y1="290.9609212411388" x2="240.53561506339042" y2="339.6565939769943"></line><line stroke-width="0.25786693759034063" stroke="lightgray" x1="303.9341268062271" y1="290.9609212411388" x2="256.89845123457235" y2="340.5018722820353"></line><line stroke-width="1.5255613762080247" stroke="lightgray" x1="303.9341268062271" y1="290.9609212411388" x2="309.82622217778334" y2="274.19776912731743"></line><line stroke-width="0.25786693759034063" stroke="lightgray" x1="303.9341268062271" y1="290.9609212411388" x2="360.76889049597736" y2="303.8500425327946"></line><line stroke-width="0.25786693759034063" stroke="lightgray" x1="303.9341268062271" y1="290.9609212411388" x2="364.96561824273755" y2="279.2078412331164"></line><line stroke-width="0.25786693759034063" stroke="lightgray" x1="303.9341268062271" y1="290.9609212411388" x2="279.5562783533503" y2="266.4417780155579"></line><line stroke-width="0.25786693759034063" stroke="lightgray" x1="303.9341268062271" y1="290.9609212411388" x2="272.89847693547006" y2="287.1080757080232"></line><line stroke-width="0.25786693759034063" stroke="lightgray" x1="303.9341268062271" y1="290.9609212411388" x2="339.32061442157595" y2="300.2619577518698"></line><line stroke-width="1.2095031480111385" stroke="lightgray" x1="240.53561506339042" y1="339.6565939769943" x2="256.89845123457235" y2="340.5018722820353"></line><line stroke-width="0.25786693759034063" stroke="lightgray" x1="240.53561506339042" y1="339.6565939769943" x2="225.05035707474062" y2="368.20764634311865"></line><line stroke-width="0.3646789204278762" stroke="lightgray" x1="240.53561506339042" y1="339.6565939769943" x2="219.34748023572365" y2="394.6086919805786"></line><line stroke-width="0.3646789204278762" stroke="lightgray" x1="240.53561506339042" y1="339.6565939769943" x2="203.70448377918686" y2="378.4906460514003"></line><line stroke-width="0.3646789204278762" stroke="lightgray" x1="240.53561506339042" y1="339.6565939769943" x2="233.68088800079488" y2="380.9976457240292"></line><line stroke-width="0.4466386374986627" stroke="lightgray" x1="240.53561506339042" y1="339.6565939769943" x2="205.98598683026836" y2="360.0468383302049"></line><line stroke-width="0.5157338751806813" stroke="lightgray" x1="240.53561506339042" y1="339.6565939769943" x2="271.0181304069634" y2="372.2526182533741"></line><line stroke-width="0.4466386374986627" stroke="lightgray" x1="240.53561506339042" y1="339.6565939769943" x2="238.09940562208956" y2="308.8469453817589"></line><line stroke-width="0.4466386374986627" stroke="lightgray" x1="240.53561506339042" y1="339.6565939769943" x2="243.9634456275829" y2="396.4138649660616"></line><line stroke-width="0.3646789204278762" stroke="lightgray" x1="240.53561506339042" y1="339.6565939769943" x2="255.49007485615056" y2="377.4634268525601"></line><line stroke-width="0.25786693759034063" stroke="lightgray" x1="240.53561506339042" y1="339.6565939769943" x2="309.82622217778334" y2="274.19776912731743"></line><line stroke-width="1.2632848372608985" stroke="lightgray" x1="233.68088800079488" y1="380.9976457240292" x2="205.98598683026836" y2="360.0468383302049"></line><line stroke-width="0.3646789204278762" stroke="lightgray" x1="233.68088800079488" y1="380.9976457240292" x2="256.89845123457235" y2="340.5018722820353"></line><line stroke-width="0.3646789204278762" stroke="lightgray" x1="238.09940562208956" y1="308.8469453817589" x2="256.89845123457235" y2="340.5018722820353"></line><line stroke-width="0.4466386374986627" stroke="lightgray" x1="205.98598683026836" y1="360.0468383302049" x2="256.89845123457235" y2="340.5018722820353"></line><line stroke-width="0.3646789204278762" stroke="lightgray" x1="256.89845123457235" y1="340.5018722820353" x2="225.05035707474062" y2="368.20764634311865"></line><line stroke-width="0.4466386374986627" stroke="lightgray" x1="256.89845123457235" y1="340.5018722820353" x2="219.34748023572365" y2="394.6086919805786"></line><line stroke-width="0.4466386374986627" stroke="lightgray" x1="256.89845123457235" y1="340.5018722820353" x2="203.70448377918686" y2="378.4906460514003"></line><line stroke-width="0.6316424186304492" stroke="lightgray" x1="256.89845123457235" y1="340.5018722820353" x2="271.0181304069634" y2="372.2526182533741"></line><line stroke-width="0.6822517882098547" stroke="lightgray" x1="256.89845123457235" y1="340.5018722820353" x2="243.9634456275829" y2="396.4138649660616"></line><line stroke-width="0.5157338751806813" stroke="lightgray" x1="256.89845123457235" y1="340.5018722820353" x2="255.49007485615056" y2="377.4634268525601"></line><line stroke-width="0.25786693759034063" stroke="lightgray" x1="256.89845123457235" y1="340.5018722820353" x2="309.82622217778334" y2="274.19776912731743"></line><line stroke-width="0.25786693759034063" stroke="lightgray" x1="309.82622217778334" y1="274.19776912731743" x2="360.76889049597736" y2="303.8500425327946"></line><line stroke-width="0.25786693759034063" stroke="lightgray" x1="309.82622217778334" y1="274.19776912731743" x2="364.96561824273755" y2="279.2078412331164"></line><line stroke-width="0.25786693759034063" stroke="lightgray" x1="309.82622217778334" y1="274.19776912731743" x2="279.5562783533503" y2="266.4417780155579"></line><line stroke-width="0.25786693759034063" stroke="lightgray" x1="309.82622217778334" y1="274.19776912731743" x2="272.89847693547006" y2="287.1080757080232"></line><line stroke-width="0.25786693759034063" stroke="lightgray" x1="309.82622217778334" y1="274.19776912731743" x2="339.32061442157595" y2="300.2619577518698"></line><line stroke-width="0.25786693759034063" stroke="lightgray" x1="243.9634456275829" y1="396.4138649660616" x2="219.34748023572365" y2="394.6086919805786"></line><line stroke-width="0.25786693759034063" stroke="lightgray" x1="243.9634456275829" y1="396.4138649660616" x2="203.70448377918686" y2="378.4906460514003"></line><line stroke-width="0.3646789204278762" stroke="lightgray" x1="219.34748023572365" y1="394.6086919805786" x2="203.70448377918686" y2="378.4906460514003"></line><line stroke-width="0.5766080016016975" stroke="lightgray" x1="360.76889049597736" y1="303.8500425327946" x2="364.96561824273755" y2="279.2078412331164"></line><line stroke-width="0.3646789204278762" stroke="lightgray" x1="360.76889049597736" y1="303.8500425327946" x2="403.8238087554678" y2="294.8042095756697"></line><line stroke-width="0.5766080016016975" stroke="lightgray" x1="403.8238087554678" y1="294.8042095756697" x2="364.96561824273755" y2="279.2078412331164"></line></g><g class="nodes"><circle r="5.925331109834495" fill="rgb(237, 248, 231)" stroke="black" stroke-width="1px" transform="translate(283.16460379147406,209.21463350469875)"></circle><circle r="5.384419733914528" fill="rgb(236, 248, 230)" stroke="black" stroke-width="1px" transform="translate(229.97806053905117,256.870740419321)"></circle><circle r="2.4733727762317383" fill="rgb(239, 249, 233)" stroke="black" stroke-width="1px" transform="translate(253.83993046771081,187.9436400852436)"></circle><circle r="1.3645035764197093" fill="rgb(236, 248, 229)" stroke="black" stroke-width="1px" transform="translate(268.90067874234364,241.19731703766087)"></circle><circle r="0.7293578408557524" fill="rgb(241, 250, 235)" stroke="black" stroke-width="1px" transform="translate(244.00391659775957,214.31806189558688)"></circle><circle r="2.363389521468379" fill="rgb(220, 241, 214)" stroke="black" stroke-width="1px" transform="translate(231.95050155703,196.33309089574524)"></circle><circle r="2.363389521468379" fill="rgb(231, 246, 225)" stroke="black" stroke-width="1px" transform="translate(256.5939935759515,273.8392166780368)"></circle><circle r="1.4587156817115048" fill="rgb(229, 245, 223)" stroke="black" stroke-width="1px" transform="translate(252.5340974025981,153.60830861895803)"></circle><circle r="1.3645035764197093" fill="rgb(203, 235, 199)" stroke="black" stroke-width="1px" transform="translate(214.48727964827364,315.2000379993417)"></circle><circle r="0.7293578408557524" fill="rgb(227, 244, 222)" stroke="black" stroke-width="1px" transform="translate(183.19710967874838,263.8441033176718)"></circle><circle r="0.7293578408557524" fill="rgb(230, 245, 224)" stroke="black" stroke-width="1px" transform="translate(284.66167887428685,166.0260216082218)"></circle><circle r="0.7293578408557524" fill="rgb(227, 244, 221)" stroke="black" stroke-width="1px" transform="translate(199.478590706429,281.7675311426057)"></circle><circle r="0.5157338751806813" fill="rgb(232, 246, 226)" stroke="black" stroke-width="1px" transform="translate(295.3262780158433,173.95789835292499)"></circle><circle r="0.5157338751806813" fill="rgb(232, 246, 226)" stroke="black" stroke-width="1px" transform="translate(320.3263481469537,192.273753645097)"></circle><circle r="0.5157338751806813" fill="rgb(230, 245, 224)" stroke="black" stroke-width="1px" transform="translate(207.1406214153799,222.82505414263846)"></circle><circle r="0.5157338751806813" fill="rgb(232, 246, 226)" stroke="black" stroke-width="1px" transform="translate(272.2196082498541,171.16914280962047)"></circle><circle r="0.5157338751806813" fill="rgb(232, 246, 226)" stroke="black" stroke-width="1px" transform="translate(324.59741598287843,202.3897630586608)"></circle><circle r="0.5157338751806813" fill="rgb(228, 244, 222)" stroke="black" stroke-width="1px" transform="translate(188.5134264128454,276.71144986689336)"></circle><circle r="0.5157338751806813" fill="rgb(228, 245, 223)" stroke="black" stroke-width="1px" transform="translate(297.7352050733749,163.29884114360073)"></circle><circle r="0.5157338751806813" fill="rgb(233, 246, 227)" stroke="black" stroke-width="1px" transform="translate(309.85603331389615,169.7758518597855)"></circle><circle r="0.5157338751806813" fill="rgb(232, 246, 226)" stroke="black" stroke-width="1px" transform="translate(253.15609869962108,225.37564404000832)"></circle><circle r="0.5157338751806813" fill="rgb(231, 246, 225)" stroke="black" stroke-width="1px" transform="translate(227.92564689647034,148.63474140335492)"></circle><circle r="0.5157338751806813" fill="rgb(227, 244, 221)" stroke="black" stroke-width="1px" transform="translate(196.28766746084517,222.08373119961345)"></circle><circle r="0.5157338751806813" fill="rgb(232, 246, 226)" stroke="black" stroke-width="1px" transform="translate(309.25814316818753,181.5911804990062)"></circle><circle r="0.5157338751806813" fill="rgb(230, 245, 224)" stroke="black" stroke-width="1px" transform="translate(210.1747225218607,287.9955204231375)"></circle><circle r="0.5157338751806813" fill="rgb(231, 246, 225)" stroke="black" stroke-width="1px" transform="translate(240.8816042176085,141.34718207048888)"></circle><circle r="0.5157338751806813" fill="rgb(226, 244, 220)" stroke="black" stroke-width="1px" transform="translate(321.10293800901513,214.70739848264614)"></circle><circle r="0.5157338751806813" fill="rgb(233, 246, 227)" stroke="black" stroke-width="1px" transform="translate(194.8761992865646,266.3937703094545)"></circle><circle r="0.5157338751806813" fill="rgb(229, 245, 223)" stroke="black" stroke-width="1px" transform="translate(193.64107240649116,249.7155041555878)"></circle><circle r="0.5157338751806813" fill="rgb(233, 246, 227)" stroke="black" stroke-width="1px" transform="translate(217.90463049433484,220.0728080326046)"></circle><circle r="0.5157338751806813" fill="rgb(233, 247, 227)" stroke="black" stroke-width="1px" transform="translate(184.68556803651524,241.23168182733585)"></circle><circle r="0.5157338751806813" fill="rgb(232, 246, 226)" stroke="black" stroke-width="1px" transform="translate(181.5890787775885,252.31031214065797)"></circle><circle r="0.5157338751806813" fill="rgb(229, 245, 224)" stroke="black" stroke-width="1px" transform="translate(272.9611480275202,152.27215509813954)"></circle><circle r="0.5157338751806813" fill="rgb(220, 241, 214)" stroke="black" stroke-width="1px" transform="translate(188.8076832538904,231.14365173193295)"></circle><circle r="0.5157338751806813" fill="rgb(229, 245, 224)" stroke="black" stroke-width="1px" transform="translate(320.4913665676224,180.678573024267)"></circle><circle r="0.5157338751806813" fill="rgb(228, 245, 223)" stroke="black" stroke-width="1px" transform="translate(200.8624252592772,235.18188694924163)"></circle><circle r="1.4587156817115048" fill="rgb(163, 219, 186)" stroke="black" stroke-width="1px" transform="translate(303.9341268062271,290.9609212411388)"></circle><circle r="1.3645035764197093" fill="rgb(172, 223, 187)" stroke="black" stroke-width="1px" transform="translate(240.53561506339042,339.6565939769943)"></circle><circle r="1.2632848372608985" fill="rgb(152, 215, 188)" stroke="black" stroke-width="1px" transform="translate(233.68088800079488,380.9976457240292)"></circle><circle r="1.2632848372608985" fill="rgb(193, 231, 193)" stroke="black" stroke-width="1px" transform="translate(218.14075494375535,182.56008151408005)"></circle><circle r="1.2632848372608985" fill="rgb(205, 235, 201)" stroke="black" stroke-width="1px" transform="translate(238.09940562208956,308.8469453817589)"></circle><circle r="1.9296994636793459" fill="rgb(149, 214, 188)" stroke="black" stroke-width="1px" transform="translate(205.98598683026836,360.0468383302049)"></circle><circle r="1.9296994636793459" fill="rgb(145, 212, 189)" stroke="black" stroke-width="1px" transform="translate(256.89845123457235,340.5018722820353)"></circle><circle r="1.5472016255420438" fill="rgb(159, 218, 187)" stroke="black" stroke-width="1px" transform="translate(309.82622217778334,274.19776912731743)"></circle><circle r="0.8932772749973255" fill="rgb(125, 204, 195)" stroke="black" stroke-width="1px" transform="translate(243.9634456275829,396.4138649660616)"></circle><circle r="0.7293578408557524" fill="rgb(133, 207, 193)" stroke="black" stroke-width="1px" transform="translate(271.0181304069634,372.2526182533741)"></circle><circle r="0.7293578408557524" fill="rgb(134, 208, 192)" stroke="black" stroke-width="1px" transform="translate(255.49007485615056,377.4634268525601)"></circle><circle r="0.7293578408557524" fill="rgb(79, 176, 205)" stroke="black" stroke-width="1px" transform="translate(219.34748023572365,394.6086919805786)"></circle><circle r="0.5157338751806813" fill="rgb(123, 202, 196)" stroke="black" stroke-width="1px" transform="translate(339.32061442157595,300.2619577518698)"></circle><circle r="0.5157338751806813" fill="rgb(139, 210, 191)" stroke="black" stroke-width="1px" transform="translate(225.05035707474062,368.20764634311865)"></circle><circle r="0.7293578408557524" fill="rgb(79, 176, 205)" stroke="black" stroke-width="1px" transform="translate(203.70448377918686,378.4906460514003)"></circle><circle r="0.7293578408557524" fill="rgb(14, 103, 168)" stroke="black" stroke-width="1px" transform="translate(360.76889049597736,303.8500425327946)"></circle><circle r="0.7293578408557524" fill="rgb(11, 97, 162)" stroke="black" stroke-width="1px" transform="translate(403.8238087554678,294.8042095756697)"></circle><circle r="0.5157338751806813" fill="rgb(11, 95, 160)" stroke="black" stroke-width="1px" transform="translate(279.5562783533503,266.4417780155579)"></circle><circle r="1.153216003203395" fill="rgb(10, 93, 159)" stroke="black" stroke-width="1px" transform="translate(364.96561824273755,279.2078412331164)"></circle><circle r="0.5157338751806813" fill="rgb(11, 95, 160)" stroke="black" stroke-width="1px" transform="translate(272.89847693547006,287.1080757080232)"></circle></g></g><g><text x="505" y="495" font-family="sans-serif" text-anchor="end" font-size="10px" fill="red">56 nodes</text><text x="505" y="505" font-family="sans-serif" text-anchor="end" font-size="10px" fill="red">115 edges</text></g></svg>