<svg height="512" width="512" style="border-style: solid; border-width: 1px; cursor: auto;" id="figure"><g transform="translate(-190.99683176360531,-271.10504477854397) scale(1.933450586316335)"><g class="links"><line stroke-width="1.485572656263932" stroke="lightgray" x1="301.1405080245379" y1="298.7270462853577" x2="344.68493561465755" y2="312.4859960040678"></line><line stroke-width="2.832875902707722" stroke="lightgray" x1="301.1405080245379" y1="298.7270462853577" x2="304.2448316985988" y2="320.3901406895794"></line><line stroke-width="4.690669954429704" stroke="lightgray" x1="301.1405080245379" y1="298.7270462853577" x2="292.4015965892594" y2="266.78734877928264"></line><line stroke-width="0.3657227064353103" stroke="lightgray" x1="301.1405080245379" y1="298.7270462853577" x2="331.10483328058706" y2="324.8062115870634"></line><line stroke-width="0.5172100115086098" stroke="lightgray" x1="301.1405080245379" y1="298.7270462853577" x2="330.20268994531034" y2="284.9948475278475"></line><line stroke-width="2.1167732006710906" stroke="lightgray" x1="301.1405080245379" y1="298.7270462853577" x2="355.89106529396446" y2="298.18591099024"></line><line stroke-width="0.44791700905809795" stroke="lightgray" x1="301.1405080245379" y1="298.7270462853577" x2="205.23495758938367" y2="210.85269153474925"></line><line stroke-width="2.7490089190713443" stroke="lightgray" x1="301.1405080245379" y1="298.7270462853577" x2="352.7074948879963" y2="279.4281132186385"></line><line stroke-width="0.3657227064353103" stroke="lightgray" x1="301.1405080245379" y1="298.7270462853577" x2="275.2120177399107" y2="303.6654430525325"></line><line stroke-width="0.44791700905809795" stroke="lightgray" x1="301.1405080245379" y1="298.7270462853577" x2="230.50041150031933" y2="303.6790220251353"></line><line stroke-width="0.44791700905809795" stroke="lightgray" x1="301.1405080245379" y1="298.7270462853577" x2="244.65883086378133" y2="316.71984774901273"></line><line stroke-width="0.2586050057543049" stroke="lightgray" x1="301.1405080245379" y1="298.7270462853577" x2="317.4284484112123" y2="335.176796312188"></line><line stroke-width="0.44791700905809795" stroke="lightgray" x1="292.4015965892594" y1="266.78734877928264" x2="310.1803236003236" y2="236.31767369992068"></line><line stroke-width="0.5782583721883501" stroke="lightgray" x1="292.4015965892594" y1="266.78734877928264" x2="270.36480069914916" y2="239.23252162589944"></line><line stroke-width="0.2586050057543049" stroke="lightgray" x1="292.4015965892594" y1="266.78734877928264" x2="326.6704041344576" y2="238.1002762720191"></line><line stroke-width="0.2586050057543049" stroke="lightgray" x1="292.4015965892594" y1="266.78734877928264" x2="324.0960040160293" y2="248.83450914156677"></line><line stroke-width="0.5172100115086098" stroke="lightgray" x1="292.4015965892594" y1="266.78734877928264" x2="282.0614870393363" y2="230.1786276366792"></line><line stroke-width="0.2586050057543049" stroke="lightgray" x1="292.4015965892594" y1="266.78734877928264" x2="333.63044611474476" y2="254.37835307945363"></line><line stroke-width="0.44791700905809795" stroke="lightgray" x1="292.4015965892594" y1="266.78734877928264" x2="293.21362626049694" y2="226.7136319504073"></line><line stroke-width="1.0344200230172196" stroke="lightgray" x1="292.4015965892594" y1="266.78734877928264" x2="330.20268994531034" y2="284.9948475278475"></line><line stroke-width="0.44791700905809795" stroke="lightgray" x1="292.4015965892594" y1="266.78734877928264" x2="304.5124325870337" y2="224.53926866055787"></line><line stroke-width="0.8177808325045537" stroke="lightgray" x1="292.4015965892594" y1="266.78734877928264" x2="259.3483220017828" y2="259.54651371537767"></line><line stroke-width="0.44791700905809795" stroke="lightgray" x1="292.4015965892594" y1="266.78734877928264" x2="252.03794665385877" y2="215.97834661723584"></line><line stroke-width="0.7314454128706206" stroke="lightgray" x1="292.4015965892594" y1="266.78734877928264" x2="205.23495758938367" y2="210.85269153474925"></line><line stroke-width="0.2586050057543049" stroke="lightgray" x1="292.4015965892594" y1="266.78734877928264" x2="230.1293797116878" y2="238.82669498258886"></line><line stroke-width="1.9352226600746252" stroke="lightgray" x1="292.4015965892594" y1="266.78734877928264" x2="304.2448316985988" y2="320.3901406895794"></line><line stroke-width="0.8177808325045537" stroke="lightgray" x1="292.4015965892594" y1="266.78734877928264" x2="355.89106529396446" y2="298.18591099024"></line><line stroke-width="1.001572880532296" stroke="lightgray" x1="292.4015965892594" y1="266.78734877928264" x2="352.7074948879963" y2="279.4281132186385"></line><line stroke-width="0.3657227064353103" stroke="lightgray" x1="292.4015965892594" y1="266.78734877928264" x2="317.44540915657234" y2="228.4487361122543"></line><line stroke-width="0.9676113300373126" stroke="lightgray" x1="292.4015965892594" y1="266.78734877928264" x2="230.50041150031933" y2="303.6790220251353"></line><line stroke-width="0.9676113300373126" stroke="lightgray" x1="292.4015965892594" y1="266.78734877928264" x2="244.65883086378133" y2="316.71984774901273"></line><line stroke-width="0.3657227064353103" stroke="lightgray" x1="292.4015965892594" y1="266.78734877928264" x2="275.2120177399107" y2="303.6654430525325"></line><line stroke-width="0.2586050057543049" stroke="lightgray" x1="292.4015965892594" y1="266.78734877928264" x2="254.23233535623024" y2="286.1327623017189"></line><line stroke-width="0.2586050057543049" stroke="lightgray" x1="292.4015965892594" y1="266.78734877928264" x2="344.68493561465755" y2="312.4859960040678"></line><line stroke-width="0.2586050057543049" stroke="lightgray" x1="292.4015965892594" y1="266.78734877928264" x2="329.45128414699644" y2="267.37167504240534"></line><line stroke-width="0.3657227064353103" stroke="lightgray" x1="304.2448316985988" y1="320.3901406895794" x2="344.68493561465755" y2="312.4859960040678"></line><line stroke-width="0.3657227064353103" stroke="lightgray" x1="304.2448316985988" y1="320.3901406895794" x2="355.89106529396446" y2="298.18591099024"></line><line stroke-width="0.6842045330223182" stroke="lightgray" x1="304.2448316985988" y1="320.3901406895794" x2="352.7074948879963" y2="279.4281132186385"></line><line stroke-width="0.2586050057543049" stroke="lightgray" x1="304.2448316985988" y1="320.3901406895794" x2="230.50041150031933" y2="303.6790220251353"></line><line stroke-width="0.2586050057543049" stroke="lightgray" x1="304.2448316985988" y1="320.3901406895794" x2="244.65883086378133" y2="316.71984774901273"></line><line stroke-width="0.9676113300373126" stroke="lightgray" x1="252.03794665385877" y1="215.97834661723584" x2="205.23495758938367" y2="210.85269153474925"></line><line stroke-width="0.2586050057543049" stroke="lightgray" x1="252.03794665385877" y1="215.97834661723584" x2="230.1293797116878" y2="238.82669498258886"></line><line stroke-width="0.5172100115086098" stroke="lightgray" x1="355.89106529396446" y1="298.18591099024" x2="352.7074948879963" y2="279.4281132186385"></line><line stroke-width="0.2586050057543049" stroke="lightgray" x1="355.89106529396446" y1="298.18591099024" x2="344.68493561465755" y2="312.4859960040678"></line><line stroke-width="0.5782583721883501" stroke="lightgray" x1="352.7074948879963" y1="279.4281132186385" x2="344.68493561465755" y2="312.4859960040678"></line><line stroke-width="0.3657227064353103" stroke="lightgray" x1="205.23495758938367" y1="210.85269153474925" x2="171.22583065364978" y2="196.91642980432462"></line><line stroke-width="0.2586050057543049" stroke="lightgray" x1="205.23495758938367" y1="210.85269153474925" x2="205.75245717580307" y2="157.03179162480652"></line><line stroke-width="0.3657227064353103" stroke="lightgray" x1="205.23495758938367" y1="210.85269153474925" x2="177.24627808697034" y2="145.41088417390432"></line><line stroke-width="0.44791700905809795" stroke="lightgray" x1="205.23495758938367" y1="210.85269153474925" x2="168.0629418397734" y2="215.29266804481486"></line><line stroke-width="0.2586050057543049" stroke="lightgray" x1="205.23495758938367" y1="210.85269153474925" x2="208.098751294942" y2="174.44886583406543"></line><line stroke-width="0.44791700905809795" stroke="lightgray" x1="205.23495758938367" y1="210.85269153474925" x2="146.12275087470195" y2="196.5193827425997"></line><line stroke-width="0.6334503090275546" stroke="lightgray" x1="205.23495758938367" y1="210.85269153474925" x2="230.1293797116878" y2="238.82669498258886"></line><line stroke-width="0.3657227064353103" stroke="lightgray" x1="205.23495758938367" y1="210.85269153474925" x2="185.84467225380894" y2="238.39890810046273"></line><line stroke-width="0.44791700905809795" stroke="lightgray" x1="205.23495758938367" y1="210.85269153474925" x2="153.83813524511885" y2="166.31840698198963"></line><line stroke-width="0.2586050057543049" stroke="lightgray" x1="205.23495758938367" y1="210.85269153474925" x2="183.72669631939758" y2="165.22744998996382"></line><line stroke-width="0.3657227064353103" stroke="lightgray" x1="205.23495758938367" y1="210.85269153474925" x2="181.8620841739533" y2="182.95964903132122"></line><line stroke-width="0.2586050057543049" stroke="lightgray" x1="205.23495758938367" y1="210.85269153474925" x2="230.50041150031933" y2="303.6790220251353"></line><line stroke-width="0.2586050057543049" stroke="lightgray" x1="205.23495758938367" y1="210.85269153474925" x2="244.65883086378133" y2="316.71984774901273"></line><line stroke-width="1.5299278463514032" stroke="lightgray" x1="230.50041150031933" y1="303.6790220251353" x2="244.65883086378133" y2="316.71984774901273"></line><line stroke-width="0.2586050057543049" stroke="lightgray" x1="230.50041150031933" y1="303.6790220251353" x2="206.0030845289766" y2="353.1522532428832"></line><line stroke-width="0.2586050057543049" stroke="lightgray" x1="230.50041150031933" y1="303.6790220251353" x2="231.06959563314027" y2="361.5984322956549"></line><line stroke-width="0.2586050057543049" stroke="lightgray" x1="230.50041150031933" y1="303.6790220251353" x2="254.23233535623024" y2="286.1327623017189"></line><line stroke-width="0.2586050057543049" stroke="lightgray" x1="230.50041150031933" y1="303.6790220251353" x2="206.30675425131008" y2="329.1393730458114"></line><line stroke-width="0.5172100115086098" stroke="lightgray" x1="146.12275087470195" y1="196.5193827425997" x2="105.33927807034061" y2="183.71531048237657"></line><line stroke-width="0.2586050057543049" stroke="lightgray" x1="244.65883086378133" y1="316.71984774901273" x2="206.0030845289766" y2="353.1522532428832"></line><line stroke-width="0.2586050057543049" stroke="lightgray" x1="244.65883086378133" y1="316.71984774901273" x2="231.06959563314027" y2="361.5984322956549"></line><line stroke-width="0.2586050057543049" stroke="lightgray" x1="244.65883086378133" y1="316.71984774901273" x2="254.23233535623024" y2="286.1327623017189"></line><line stroke-width="0.2586050057543049" stroke="lightgray" x1="244.65883086378133" y1="316.71984774901273" x2="206.30675425131008" y2="329.1393730458114"></line><line stroke-width="0.3657227064353103" stroke="lightgray" x1="230.1293797116878" y1="238.82669498258886" x2="185.84467225380894" y2="238.39890810046273"></line><line stroke-width="0.3657227064353103" stroke="lightgray" x1="153.83813524511885" y1="166.31840698198963" x2="177.24627808697034" y2="145.41088417390432"></line><line stroke-width="0.2586050057543049" stroke="lightgray" x1="153.83813524511885" y1="166.31840698198963" x2="183.72669631939758" y2="165.22744998996382"></line><line stroke-width="0.2586050057543049" stroke="lightgray" x1="177.24627808697034" y1="145.41088417390432" x2="205.75245717580307" y2="157.03179162480652"></line><line stroke-width="0.5782583721883501" stroke="lightgray" x1="206.70424399375472" y1="393.4792238801666" x2="231.06959563314027" y2="361.5984322956549"></line><line stroke-width="0.3657227064353103" stroke="lightgray" x1="206.70424399375472" y1="393.4792238801666" x2="206.0030845289766" y2="353.1522532428832"></line><line stroke-width="0.5782583721883501" stroke="lightgray" x1="206.0030845289766" y1="353.1522532428832" x2="231.06959563314027" y2="361.5984322956549"></line></g><g class="nodes"><circle r="5.942290625055728" fill="rgb(237, 248, 231)" stroke="black" stroke-width="1px" transform="translate(301.1405080245379,298.7270462853577)"></circle><circle r="5.375004108697176" fill="rgb(236, 248, 230)" stroke="black" stroke-width="1px" transform="translate(292.4015965892594,266.78734877928264)"></circle><circle r="2.4804520773659253" fill="rgb(239, 249, 233)" stroke="black" stroke-width="1px" transform="translate(304.2448316985988,320.3901406895794)"></circle><circle r="1.3684090660446364" fill="rgb(236, 248, 229)" stroke="black" stroke-width="1px" transform="translate(330.20268994531034,284.9948475278475)"></circle><circle r="0.7314454128706206" fill="rgb(241, 250, 235)" stroke="black" stroke-width="1px" transform="translate(275.2120177399107,303.6654430525325)"></circle><circle r="1.2669006180551092" fill="rgb(205, 235, 201)" stroke="black" stroke-width="1px" transform="translate(252.03794665385877,215.97834661723584)"></circle><circle r="1.1565167443767002" fill="rgb(227, 244, 221)" stroke="black" stroke-width="1px" transform="translate(355.89106529396446,298.18591099024)"></circle><circle r="1.1565167443767002" fill="rgb(225, 243, 219)" stroke="black" stroke-width="1px" transform="translate(352.7074948879963,279.4281132186385)"></circle><circle r="0.7314454128706206" fill="rgb(228, 245, 223)" stroke="black" stroke-width="1px" transform="translate(259.3483220017828,259.54651371537767)"></circle><circle r="0.7314454128706206" fill="rgb(227, 244, 222)" stroke="black" stroke-width="1px" transform="translate(282.0614870393363,230.1786276366792)"></circle><circle r="0.7314454128706206" fill="rgb(227, 244, 221)" stroke="black" stroke-width="1px" transform="translate(270.36480069914916,239.23252162589944)"></circle><circle r="0.5172100115086098" fill="rgb(229, 245, 223)" stroke="black" stroke-width="1px" transform="translate(304.5124325870337,224.53926866055787)"></circle><circle r="0.5172100115086098" fill="rgb(226, 244, 220)" stroke="black" stroke-width="1px" transform="translate(317.4284484112123,335.176796312188)"></circle><circle r="0.5172100115086098" fill="rgb(220, 241, 214)" stroke="black" stroke-width="1px" transform="translate(324.0960040160293,248.83450914156677)"></circle><circle r="0.5172100115086098" fill="rgb(228, 245, 223)" stroke="black" stroke-width="1px" transform="translate(326.6704041344576,238.1002762720191)"></circle><circle r="0.5172100115086098" fill="rgb(227, 244, 221)" stroke="black" stroke-width="1px" transform="translate(333.63044611474476,254.37835307945363)"></circle><circle r="0.5172100115086098" fill="rgb(229, 245, 223)" stroke="black" stroke-width="1px" transform="translate(310.1803236003236,236.31767369992068)"></circle><circle r="0.5172100115086098" fill="rgb(227, 244, 221)" stroke="black" stroke-width="1px" transform="translate(293.21362626049694,226.7136319504073)"></circle><circle r="0.5172100115086098" fill="rgb(228, 244, 222)" stroke="black" stroke-width="1px" transform="translate(317.44540915657234,228.4487361122543)"></circle><circle r="0.5172100115086098" fill="rgb(228, 245, 223)" stroke="black" stroke-width="1px" transform="translate(331.10483328058706,324.8062115870634)"></circle><circle r="0.5172100115086098" fill="rgb(228, 245, 223)" stroke="black" stroke-width="1px" transform="translate(329.45128414699644,267.37167504240534)"></circle><circle r="1.6355616650091074" fill="rgb(187, 229, 190)" stroke="black" stroke-width="1px" transform="translate(205.23495758938367,210.85269153474925)"></circle><circle r="1.4628908257412412" fill="rgb(163, 219, 186)" stroke="black" stroke-width="1px" transform="translate(230.50041150031933,303.6790220251353)"></circle><circle r="1.2669006180551092" fill="rgb(193, 231, 193)" stroke="black" stroke-width="1px" transform="translate(344.68493561465755,312.4859960040678)"></circle><circle r="1.6355616650091074" fill="rgb(149, 214, 188)" stroke="black" stroke-width="1px" transform="translate(146.12275087470195,196.5193827425997)"></circle><circle r="1.5516300345258294" fill="rgb(159, 218, 187)" stroke="black" stroke-width="1px" transform="translate(244.65883086378133,316.71984774901273)"></circle><circle r="1.0344200230172196" fill="rgb(149, 214, 188)" stroke="black" stroke-width="1px" transform="translate(105.33927807034061,183.71531048237657)"></circle><circle r="0.8958340181161959" fill="rgb(145, 212, 189)" stroke="black" stroke-width="1px" transform="translate(230.1293797116878,238.82669498258886)"></circle><circle r="0.8958340181161959" fill="rgb(125, 204, 195)" stroke="black" stroke-width="1px" transform="translate(153.83813524511885,166.31840698198963)"></circle><circle r="0.7314454128706206" fill="rgb(144, 212, 190)" stroke="black" stroke-width="1px" transform="translate(171.22583065364978,196.91642980432462)"></circle><circle r="0.7314454128706206" fill="rgb(158, 217, 187)" stroke="black" stroke-width="1px" transform="translate(168.0629418397734,215.29266804481486)"></circle><circle r="0.7314454128706206" fill="rgb(134, 208, 192)" stroke="black" stroke-width="1px" transform="translate(181.8620841739533,182.95964903132122)"></circle><circle r="0.5172100115086098" fill="rgb(163, 219, 186)" stroke="black" stroke-width="1px" transform="translate(208.098751294942,174.44886583406543)"></circle><circle r="0.7314454128706206" fill="rgb(105, 194, 202)" stroke="black" stroke-width="1px" transform="translate(177.24627808697034,145.41088417390432)"></circle><circle r="0.5172100115086098" fill="rgb(123, 202, 196)" stroke="black" stroke-width="1px" transform="translate(206.30675425131008,329.1393730458114)"></circle><circle r="0.5172100115086098" fill="rgb(126, 204, 195)" stroke="black" stroke-width="1px" transform="translate(185.84467225380894,238.39890810046273)"></circle><circle r="0.5172100115086098" fill="rgb(120, 201, 197)" stroke="black" stroke-width="1px" transform="translate(183.72669631939758,165.22744998996382)"></circle><circle r="0.5172100115086098" fill="rgb(70, 168, 203)" stroke="black" stroke-width="1px" transform="translate(205.75245717580307,157.03179162480652)"></circle><circle r="0.7314454128706206" fill="rgb(11, 97, 162)" stroke="black" stroke-width="1px" transform="translate(206.70424399375472,393.4792238801666)"></circle><circle r="0.7314454128706206" fill="rgb(14, 103, 168)" stroke="black" stroke-width="1px" transform="translate(206.0030845289766,353.1522532428832)"></circle><circle r="1.1565167443767002" fill="rgb(10, 93, 159)" stroke="black" stroke-width="1px" transform="translate(231.06959563314027,361.5984322956549)"></circle><circle r="0.5172100115086098" fill="rgb(11, 95, 160)" stroke="black" stroke-width="1px" transform="translate(254.23233535623024,286.1327623017189)"></circle></g></g><g><text x="505" y="495" font-family="sans-serif" text-anchor="end" font-size="10px" fill="red">42 nodes</text><text x="505" y="505" font-family="sans-serif" text-anchor="end" font-size="10px" fill="red">75 edges</text></g></svg>