<svg height="512" width="512" style="border-style: solid; border-width: 1px; cursor: auto;" id="figure"><g transform="translate(-298.8329841098058,-306.8392918505542) scale(2.320383607873836)"><g class="links"><line stroke-width="0.5278199980536067" stroke="lightgray" x1="206.12964213629152" y1="304.1999676091989" x2="188.95802282443415" y2="346.9623107871502"></line><line stroke-width="1.7238528950241958" stroke="lightgray" x1="206.12964213629152" y1="304.1999676091989" x2="240.0138653673877" y2="330.95284398218115"></line><line stroke-width="4.042793393219366" stroke="lightgray" x1="206.12964213629152" y1="304.1999676091989" x2="256.0711117223263" y2="298.54726726111465"></line><line stroke-width="0.43096322375604895" stroke="lightgray" x1="206.12964213629152" y1="304.1999676091989" x2="229.08611980170386" y2="325.5337742144846"></line><line stroke-width="0.37322509986957564" stroke="lightgray" x1="206.12964213629152" y1="304.1999676091989" x2="283.2713469859348" y2="230.77990075503766"></line><line stroke-width="0.5278199980536067" stroke="lightgray" x1="206.12964213629152" y1="304.1999676091989" x2="175.16094156889184" y2="325.1492029097325"></line><line stroke-width="0.30473701795991764" stroke="lightgray" x1="206.12964213629152" y1="304.1999676091989" x2="224.35668369358893" y2="284.4143002051316"></line><line stroke-width="0.37322509986957564" stroke="lightgray" x1="206.12964213629152" y1="304.1999676091989" x2="169.18177341494496" y2="306.3812193193764"></line><line stroke-width="1.1604039928701537" stroke="lightgray" x1="206.12964213629152" y1="304.1999676091989" x2="223.0100920338299" y2="342.51784655847973"></line><line stroke-width="0.43096322375604895" stroke="lightgray" x1="206.12964213629152" y1="304.1999676091989" x2="213.88402597221878" y2="248.92847998494884"></line><line stroke-width="0.21548161187802448" stroke="lightgray" x1="256.0711117223263" y1="298.54726726111465" x2="276.94698615989233" y2="328.61920723253616"></line><line stroke-width="0.8619264475120979" stroke="lightgray" x1="256.0711117223263" y1="298.54726726111465" x2="229.08611980170386" y2="325.5337742144846"></line><line stroke-width="0.37322509986957564" stroke="lightgray" x1="256.0711117223263" y1="298.54726726111465" x2="305.8798098835229" y2="281.76764809913675"></line><line stroke-width="0.5278199980536067" stroke="lightgray" x1="256.0711117223263" y1="298.54726726111465" x2="283.2713469859348" y2="230.77990075503766"></line><line stroke-width="1.2378476186103045" stroke="lightgray" x1="256.0711117223263" y1="298.54726726111465" x2="240.0138653673877" y2="330.95284398218115"></line><line stroke-width="0.8062583647973657" stroke="lightgray" x1="256.0711117223263" y1="298.54726726111465" x2="213.88402597221878" y2="248.92847998494884"></line><line stroke-width="0.30473701795991764" stroke="lightgray" x1="256.0711117223263" y1="298.54726726111465" x2="224.35668369358893" y2="284.4143002051316"></line><line stroke-width="0.21548161187802448" stroke="lightgray" x1="256.0711117223263" y1="298.54726726111465" x2="240.0063261633474" y2="267.74079455541397"></line><line stroke-width="0.21548161187802448" stroke="lightgray" x1="256.0711117223263" y1="298.54726726111465" x2="223.0100920338299" y2="342.51784655847973"></line><line stroke-width="0.21548161187802448" stroke="lightgray" x1="305.8798098835229" y1="281.76764809913675" x2="333.80271897458346" y2="307.2790331058693"></line><line stroke-width="0.37322509986957564" stroke="lightgray" x1="305.8798098835229" y1="281.76764809913675" x2="343.38192837174137" y2="288.2050152037751"></line><line stroke-width="0.37322509986957564" stroke="lightgray" x1="305.8798098835229" y1="281.76764809913675" x2="283.2713469859348" y2="230.77990075503766"></line><line stroke-width="0.30473701795991764" stroke="lightgray" x1="283.2713469859348" y1="230.77990075503766" x2="252.67837385238744" y2="214.98899073518277"></line><line stroke-width="0.21548161187802448" stroke="lightgray" x1="283.2713469859348" y1="230.77990075503766" x2="320.193142597893" y2="207.7070407694688"></line><line stroke-width="0.30473701795991764" stroke="lightgray" x1="283.2713469859348" y1="230.77990075503766" x2="312.0248753044617" y2="176.91362362632796"></line><line stroke-width="0.30473701795991764" stroke="lightgray" x1="283.2713469859348" y1="230.77990075503766" x2="285.059612325146" y2="195.53824845656723"></line><line stroke-width="0.21548161187802448" stroke="lightgray" x1="283.2713469859348" y1="230.77990075503766" x2="315.6053833085063" y2="242.64741802232993"></line><line stroke-width="0.37322509986957564" stroke="lightgray" x1="283.2713469859348" y1="230.77990075503766" x2="272.32591275379247" y2="175.7946038140508"></line><line stroke-width="0.43096322375604895" stroke="lightgray" x1="283.2713469859348" y1="230.77990075503766" x2="265.02607243285996" y2="200.29566760837423"></line><line stroke-width="0.21548161187802448" stroke="lightgray" x1="283.2713469859348" y1="230.77990075503766" x2="329.5394142188689" y2="227.18320354556266"></line><line stroke-width="0.21548161187802448" stroke="lightgray" x1="283.2713469859348" y1="230.77990075503766" x2="336.3164628737816" y2="196.84229848030012"></line><line stroke-width="0.30473701795991764" stroke="lightgray" x1="283.2713469859348" y1="230.77990075503766" x2="302.32577262761515" y2="201.66112119059372"></line><line stroke-width="0.21548161187802448" stroke="lightgray" x1="283.2713469859348" y1="230.77990075503766" x2="213.88402597221878" y2="248.92847998494884"></line><line stroke-width="0.21548161187802448" stroke="lightgray" x1="223.0100920338299" y1="342.51784655847973" x2="188.95802282443415" y2="346.9623107871502"></line><line stroke-width="0.43096322375604895" stroke="lightgray" x1="272.32591275379247" y1="175.7946038140508" x2="267.3466466778731" y2="135.43915059121798"></line><line stroke-width="0.21548161187802448" stroke="lightgray" x1="213.88402597221878" y1="248.92847998494884" x2="168.54695166374424" y2="218.54658854511564"></line><line stroke-width="0.21548161187802448" stroke="lightgray" x1="213.88402597221878" y1="248.92847998494884" x2="240.0063261633474" y2="267.74079455541397"></line><line stroke-width="0.21548161187802448" stroke="lightgray" x1="213.88402597221878" y1="248.92847998494884" x2="179.555737872352" y2="238.69367384185432"></line><line stroke-width="0.21548161187802448" stroke="lightgray" x1="336.3164628737816" y1="196.84229848030012" x2="329.5394142188689" y2="227.18320354556266"></line><line stroke-width="0.21548161187802448" stroke="lightgray" x1="336.3164628737816" y1="196.84229848030012" x2="312.0248753044617" y2="176.91362362632796"></line><line stroke-width="0.21548161187802448" stroke="lightgray" x1="312.0248753044617" y1="176.91362362632796" x2="320.193142597893" y2="207.7070407694688"></line><line stroke-width="0.37322509986957564" stroke="lightgray" x1="168.54695166374424" y1="218.54658854511564" x2="134.31344952476312" y2="199.7908108016681"></line></g><g class="nodes"><circle r="5.080981473298114" fill="rgb(237, 248, 231)" stroke="black" stroke-width="1px" transform="translate(206.12964213629152,304.1999676091989)"></circle><circle r="4.478701198434908" fill="rgb(236, 248, 230)" stroke="black" stroke-width="1px" transform="translate(256.0711117223263,298.54726726111465)"></circle><circle r="1.6125167295947314" fill="rgb(241, 250, 234)" stroke="black" stroke-width="1px" transform="translate(240.0138653673877,330.95284398218115)"></circle><circle r="1.140221514273189" fill="rgb(236, 248, 229)" stroke="black" stroke-width="1px" transform="translate(229.08611980170386,325.5337742144846)"></circle><circle r="0.6094740359198353" fill="rgb(241, 250, 235)" stroke="black" stroke-width="1px" transform="translate(224.35668369358893,284.4143002051316)"></circle><circle r="0.7464501997391513" fill="rgb(205, 236, 201)" stroke="black" stroke-width="1px" transform="translate(305.8798098835229,281.76764809913675)"></circle><circle r="0.6094740359198353" fill="rgb(207, 236, 202)" stroke="black" stroke-width="1px" transform="translate(343.38192837174137,288.2050152037751)"></circle><circle r="0.43096322375604895" fill="rgb(223, 243, 217)" stroke="black" stroke-width="1px" transform="translate(175.16094156889184,325.1492029097325)"></circle><circle r="0.43096322375604895" fill="rgb(221, 242, 215)" stroke="black" stroke-width="1px" transform="translate(169.18177341494496,306.3812193193764)"></circle><circle r="0.43096322375604895" fill="rgb(220, 241, 214)" stroke="black" stroke-width="1px" transform="translate(276.94698615989233,328.61920723253616)"></circle><circle r="0.8619264475120979" fill="rgb(181, 226, 188)" stroke="black" stroke-width="1px" transform="translate(283.2713469859348,230.77990075503766)"></circle><circle r="0.8619264475120979" fill="rgb(193, 231, 193)" stroke="black" stroke-width="1px" transform="translate(223.0100920338299,342.51784655847973)"></circle><circle r="0.6094740359198353" fill="rgb(194, 231, 194)" stroke="black" stroke-width="1px" transform="translate(188.95802282443415,346.9623107871502)"></circle><circle r="0.43096322375604895" fill="rgb(199, 233, 197)" stroke="black" stroke-width="1px" transform="translate(333.80271897458346,307.2790331058693)"></circle><circle r="1.3628253748379002" fill="rgb(149, 214, 188)" stroke="black" stroke-width="1px" transform="translate(272.32591275379247,175.7946038140508)"></circle><circle r="1.2189480718396706" fill="rgb(163, 219, 186)" stroke="black" stroke-width="1px" transform="translate(213.88402597221878,248.92847998494884)"></circle><circle r="0.8619264475120979" fill="rgb(149, 214, 188)" stroke="black" stroke-width="1px" transform="translate(267.3466466778731,135.43915059121798)"></circle><circle r="0.6094740359198353" fill="rgb(144, 212, 190)" stroke="black" stroke-width="1px" transform="translate(252.67837385238744,214.98899073518277)"></circle><circle r="0.6094740359198353" fill="rgb(133, 207, 193)" stroke="black" stroke-width="1px" transform="translate(265.02607243285996,200.29566760837423)"></circle><circle r="0.6094740359198353" fill="rgb(134, 208, 192)" stroke="black" stroke-width="1px" transform="translate(302.32577262761515,201.66112119059372)"></circle><circle r="0.6094740359198353" fill="rgb(158, 217, 187)" stroke="black" stroke-width="1px" transform="translate(285.059612325146,195.53824845656723)"></circle><circle r="0.43096322375604895" fill="rgb(134, 208, 192)" stroke="black" stroke-width="1px" transform="translate(336.3164628737816,196.84229848030012)"></circle><circle r="0.43096322375604895" fill="rgb(163, 219, 186)" stroke="black" stroke-width="1px" transform="translate(315.6053833085063,242.64741802232993)"></circle><circle r="0.6094740359198353" fill="rgb(105, 194, 202)" stroke="black" stroke-width="1px" transform="translate(312.0248753044617,176.91362362632796)"></circle><circle r="0.43096322375604895" fill="rgb(120, 201, 197)" stroke="black" stroke-width="1px" transform="translate(329.5394142188689,227.18320354556266)"></circle><circle r="0.43096322375604895" fill="rgb(123, 202, 196)" stroke="black" stroke-width="1px" transform="translate(179.555737872352,238.69367384185432)"></circle><circle r="0.43096322375604895" fill="rgb(70, 168, 203)" stroke="black" stroke-width="1px" transform="translate(320.193142597893,207.7070407694688)"></circle><circle r="0.43096322375604895" fill="rgb(15, 105, 169)" stroke="black" stroke-width="1px" transform="translate(168.54695166374424,218.54658854511564)"></circle><circle r="0.8619264475120979" fill="rgb(10, 90, 156)" stroke="black" stroke-width="1px" transform="translate(134.31344952476312,199.7908108016681)"></circle><circle r="0.43096322375604895" fill="rgb(11, 95, 160)" stroke="black" stroke-width="1px" transform="translate(240.0063261633474,267.74079455541397)"></circle></g></g><g><text x="505" y="495" font-family="sans-serif" text-anchor="end" font-size="10px" fill="red">30 nodes</text><text x="505" y="505" font-family="sans-serif" text-anchor="end" font-size="10px" fill="red">42 edges</text></g></svg>