<svg height="512" width="512" style="border-style: solid; border-width: 1px; cursor: auto;" id="figure"><g transform="translate(-347.2507592183988,-361.7409061536209) scale(2.329848069811845)"><g class="links"><line stroke-width="0.3034990952193945" stroke="lightgray" x1="318.62649108817754" y1="200.39881789120227" x2="298.02575944209246" y2="233.2736313421253"></line><line stroke-width="1.287637609881693" stroke="lightgray" x1="298.02575944209246" y1="233.2736313421253" x2="335.8591503886001" y2="240.9429488419883"></line><line stroke-width="0.2146062683136155" stroke="lightgray" x1="298.02575944209246" y1="233.2736313421253" x2="337.80744668506856" y2="228.995026277757"></line><line stroke-width="0.3034990952193945" stroke="lightgray" x1="298.02575944209246" y1="233.2736313421253" x2="328.8703178096255" y2="207.24743745998344"></line><line stroke-width="0.959748408693607" stroke="lightgray" x1="298.02575944209246" y1="233.2736313421253" x2="329.8926532172874" y2="252.6316315606245"></line><line stroke-width="0.3717089603419409" stroke="lightgray" x1="298.02575944209246" y1="233.2736313421253" x2="248.74184729751724" y2="215.95425188096755"></line><line stroke-width="0.6438188049408465" stroke="lightgray" x1="298.02575944209246" y1="233.2736313421253" x2="208.45599692050644" y2="255.80819354916244"></line><line stroke-width="0.5256758529711757" stroke="lightgray" x1="298.02575944209246" y1="233.2736313421253" x2="291.70190849069166" y2="197.53260865128613"></line><line stroke-width="0.9104972856581833" stroke="lightgray" x1="298.02575944209246" y1="233.2736313421253" x2="284.47661780003347" y2="287.19462824464654"></line><line stroke-width="0.3717089603419409" stroke="lightgray" x1="298.02575944209246" y1="233.2736313421253" x2="306.6864329283408" y2="195.89905648203785"></line><line stroke-width="0.2146062683136155" stroke="lightgray" x1="298.02575944209246" y1="233.2736313421253" x2="316.2073947910719" y2="270.83230272857804"></line><line stroke-width="0.3034990952193945" stroke="lightgray" x1="298.02575944209246" y1="233.2736313421253" x2="333.5314251392072" y2="217.94211692800602"></line><line stroke-width="0.2146062683136155" stroke="lightgray" x1="248.74184729751724" y1="215.95425188096755" x2="247.95277044975583" y2="177.7387735262775"></line><line stroke-width="0.2146062683136155" stroke="lightgray" x1="248.74184729751724" y1="215.95425188096755" x2="215.01381357269491" y2="214.7074602132057"></line><line stroke-width="0.3034990952193945" stroke="lightgray" x1="248.74184729751724" y1="215.95425188096755" x2="208.45599692050644" y2="255.80819354916244"></line><line stroke-width="0.2146062683136155" stroke="lightgray" x1="215.01381357269491" y1="214.7074602132057" x2="208.45599692050644" y2="255.80819354916244"></line><line stroke-width="0.3034990952193945" stroke="lightgray" x1="208.45599692050644" y1="255.80819354916244" x2="240.00999976652437" y2="263.6603797296725"></line><line stroke-width="0.2146062683136155" stroke="lightgray" x1="208.45599692050644" y1="255.80819354916244" x2="170.97985852452572" y2="245.13674134258747"></line><line stroke-width="0.3034990952193945" stroke="lightgray" x1="208.45599692050644" y1="255.80819354916244" x2="153.12561271475482" y2="268.1436658915461"></line><line stroke-width="0.3034990952193945" stroke="lightgray" x1="208.45599692050644" y1="255.80819354916244" x2="209.34556305498512" y2="291.07247357383955"></line><line stroke-width="0.2146062683136155" stroke="lightgray" x1="208.45599692050644" y1="255.80819354916244" x2="194.99569191823792" y2="224.0299809219204"></line><line stroke-width="0.3034990952193945" stroke="lightgray" x1="208.45599692050644" y1="255.80819354916244" x2="173.0217822120214" y2="283.5887026226225"></line><line stroke-width="0.429212536627231" stroke="lightgray" x1="208.45599692050644" y1="255.80819354916244" x2="227.2624588149576" y2="285.4573613299165"></line><line stroke-width="0.2146062683136155" stroke="lightgray" x1="208.45599692050644" y1="255.80819354916244" x2="177.87913374106287" y2="221.82762361449923"></line><line stroke-width="0.2146062683136155" stroke="lightgray" x1="208.45599692050644" y1="255.80819354916244" x2="152.86284278118765" y2="237.34791934187032"></line><line stroke-width="0.3034990952193945" stroke="lightgray" x1="208.45599692050644" y1="255.80819354916244" x2="189.86807897106937" y2="284.08640948596025"></line><line stroke-width="0.2146062683136155" stroke="lightgray" x1="208.45599692050644" y1="255.80819354916244" x2="187.16191971317076" y2="313.109529294442"></line><line stroke-width="0.2146062683136155" stroke="lightgray" x1="208.45599692050644" y1="255.80819354916244" x2="284.47661780003347" y2="287.19462824464654"></line><line stroke-width="0.2146062683136155" stroke="lightgray" x1="284.47661780003347" y1="287.19462824464654" x2="330.3034980436223" y2="321.67660879865923"></line><line stroke-width="0.2146062683136155" stroke="lightgray" x1="284.47661780003347" y1="287.19462824464654" x2="316.2073947910719" y2="270.83230272857804"></line><line stroke-width="0.2146062683136155" stroke="lightgray" x1="284.47661780003347" y1="287.19462824464654" x2="300.3399578897169" y2="320.5231012066879"></line><line stroke-width="0.2146062683136155" stroke="lightgray" x1="152.86284278118765" y1="237.34791934187032" x2="177.87913374106287" y2="221.82762361449923"></line><line stroke-width="0.2146062683136155" stroke="lightgray" x1="152.86284278118765" y1="237.34791934187032" x2="153.12561271475482" y2="268.1436658915461"></line><line stroke-width="0.3034990952193945" stroke="lightgray" x1="173.0217822120214" y1="283.5887026226225" x2="187.16191971317076" y2="313.109529294442"></line><line stroke-width="0.429212536627231" stroke="lightgray" x1="187.16191971317076" y1="313.109529294442" x2="177.15311499322306" y2="350.03227638191356"></line><line stroke-width="0.2146062683136155" stroke="lightgray" x1="153.12561271475482" y1="268.1436658915461" x2="170.97985852452572" y2="245.13674134258747"></line><line stroke-width="0.3717089603419409" stroke="lightgray" x1="330.3034980436223" y1="321.67660879865923" x2="363.79491001011405" y2="343.21627230978936"></line></g><g class="nodes"><circle r="0.606998190438789" fill="rgb(243, 250, 236)" stroke="black" stroke-width="1px" transform="translate(318.62649108817754,200.39881789120227)"></circle><circle r="6.8808004047989515" fill="rgb(237, 248, 231)" stroke="black" stroke-width="1px" transform="translate(298.02575944209246,233.2736313421253)"></circle><circle r="0.606998190438789" fill="rgb(227, 244, 222)" stroke="black" stroke-width="1px" transform="translate(328.8703178096255,207.24743745998344)"></circle><circle r="1.1355896315068552" fill="rgb(236, 248, 229)" stroke="black" stroke-width="1px" transform="translate(329.8926532172874,252.6316315606245)"></circle><circle r="0.606998190438789" fill="rgb(241, 250, 234)" stroke="black" stroke-width="1px" transform="translate(333.5314251392072,217.94211692800602)"></circle><circle r="0.429212536627231" fill="rgb(223, 243, 217)" stroke="black" stroke-width="1px" transform="translate(291.70190849069166,197.53260865128613)"></circle><circle r="0.959748408693607" fill="rgb(206, 236, 201)" stroke="black" stroke-width="1px" transform="translate(248.74184729751724,215.95425188096755)"></circle><circle r="0.429212536627231" fill="rgb(221, 242, 215)" stroke="black" stroke-width="1px" transform="translate(306.6864329283408,195.89905648203785)"></circle><circle r="0.429212536627231" fill="rgb(220, 241, 214)" stroke="black" stroke-width="1px" transform="translate(337.80744668506856,228.995026277757)"></circle><circle r="0.429212536627231" fill="rgb(199, 233, 197)" stroke="black" stroke-width="1px" transform="translate(247.95277044975583,177.7387735262775)"></circle><circle r="0.606998190438789" fill="rgb(188, 229, 191)" stroke="black" stroke-width="1px" transform="translate(215.01381357269491,214.7074602132057)"></circle><circle r="0.606998190438789" fill="rgb(175, 224, 187)" stroke="black" stroke-width="1px" transform="translate(208.45599692050644,255.80819354916244)"></circle><circle r="1.0513517059423514" fill="rgb(193, 231, 193)" stroke="black" stroke-width="1px" transform="translate(335.8591503886001,240.9429488419883)"></circle><circle r="1.213996380877578" fill="rgb(163, 219, 186)" stroke="black" stroke-width="1px" transform="translate(284.47661780003347,287.19462824464654)"></circle><circle r="0.429212536627231" fill="rgb(134, 208, 192)" stroke="black" stroke-width="1px" transform="translate(152.86284278118765,237.34791934187032)"></circle><circle r="0.606998190438789" fill="rgb(144, 212, 190)" stroke="black" stroke-width="1px" transform="translate(240.00999976652437,263.6603797296725)"></circle><circle r="0.606998190438789" fill="rgb(152, 215, 188)" stroke="black" stroke-width="1px" transform="translate(173.0217822120214,283.5887026226225)"></circle><circle r="0.606998190438789" fill="rgb(134, 208, 192)" stroke="black" stroke-width="1px" transform="translate(189.86807897106937,284.08640948596025)"></circle><circle r="1.213996380877578" fill="rgb(148, 213, 188)" stroke="black" stroke-width="1px" transform="translate(187.16191971317076,313.109529294442)"></circle><circle r="0.858425073254462" fill="rgb(149, 214, 188)" stroke="black" stroke-width="1px" transform="translate(177.15311499322306,350.03227638191356)"></circle><circle r="0.429212536627231" fill="rgb(163, 219, 186)" stroke="black" stroke-width="1px" transform="translate(194.99569191823792,224.0299809219204)"></circle><circle r="0.606998190438789" fill="rgb(133, 207, 193)" stroke="black" stroke-width="1px" transform="translate(227.2624588149576,285.4573613299165)"></circle><circle r="0.606998190438789" fill="rgb(158, 217, 187)" stroke="black" stroke-width="1px" transform="translate(209.34556305498512,291.07247357383955)"></circle><circle r="0.606998190438789" fill="rgb(105, 194, 202)" stroke="black" stroke-width="1px" transform="translate(153.12561271475482,268.1436658915461)"></circle><circle r="0.429212536627231" fill="rgb(120, 201, 197)" stroke="black" stroke-width="1px" transform="translate(177.87913374106287,221.82762361449923)"></circle><circle r="0.429212536627231" fill="rgb(123, 202, 196)" stroke="black" stroke-width="1px" transform="translate(300.3399578897169,320.5231012066879)"></circle><circle r="0.429212536627231" fill="rgb(70, 168, 203)" stroke="black" stroke-width="1px" transform="translate(170.97985852452572,245.13674134258747)"></circle><circle r="0.429212536627231" fill="rgb(15, 105, 169)" stroke="black" stroke-width="1px" transform="translate(330.3034980436223,321.67660879865923)"></circle><circle r="0.858425073254462" fill="rgb(10, 90, 156)" stroke="black" stroke-width="1px" transform="translate(363.79491001011405,343.21627230978936)"></circle><circle r="0.429212536627231" fill="rgb(11, 95, 160)" stroke="black" stroke-width="1px" transform="translate(316.2073947910719,270.83230272857804)"></circle></g></g><g><text x="505" y="495" font-family="sans-serif" text-anchor="end" font-size="10px" fill="red">30 nodes</text><text x="505" y="505" font-family="sans-serif" text-anchor="end" font-size="10px" fill="red">37 edges</text></g></svg>