<svg height="512" width="512" style="border-style: solid; border-width: 1px; cursor: auto;" id="figure"><g transform="translate(-373.6193712308583,-448.7743011681491) scale(2.5001235953970036)"><g class="links"><line stroke-width="1.1999406771422512" stroke="lightgray" x1="295.74014720488566" y1="252.9794408497172" x2="327.60089235744374" y2="271.51835805427936"></line><line stroke-width="0.19999011285704185" stroke="lightgray" x1="295.74014720488566" y1="252.9794408497172" x2="333.1725504451309" y2="254.74379020157573"></line><line stroke-width="0.3463930364798302" stroke="lightgray" x1="295.74014720488566" y1="252.9794408497172" x2="270.1051231842878" y2="216.99323581821864"></line><line stroke-width="0.5999703385711256" stroke="lightgray" x1="295.74014720488566" y1="252.9794408497172" x2="225.98242126723284" y2="235.32781729199152"></line><line stroke-width="0.4898737301013742" stroke="lightgray" x1="295.74014720488566" y1="252.9794408497172" x2="317.6230784038694" y2="224.12214321804902"></line><line stroke-width="0.8484861898288634" stroke="lightgray" x1="295.74014720488566" y1="252.9794408497172" x2="268.9910755409044" y2="295.928332191648"></line><line stroke-width="0.3463930364798302" stroke="lightgray" x1="295.74014720488566" y1="252.9794408497172" x2="329.72342819308153" y2="237.90643547719966"></line><line stroke-width="0.19999011285704185" stroke="lightgray" x1="295.74014720488566" y1="252.9794408497172" x2="305.60135621953975" y2="291.36830285465123"></line><line stroke-width="0.19999011285704185" stroke="lightgray" x1="270.1051231842878" y1="216.99323581821864" x2="285.27872115280036" y2="182.79172692413815"></line><line stroke-width="0.3463930364798302" stroke="lightgray" x1="270.1051231842878" y1="216.99323581821864" x2="225.98242126723284" y2="235.32781729199152"></line><line stroke-width="0.2828287299429545" stroke="lightgray" x1="225.98242126723284" y1="235.32781729199152" x2="248.37255428984506" y2="258.6075082927495"></line><line stroke-width="0.19999011285704185" stroke="lightgray" x1="225.98242126723284" y1="235.32781729199152" x2="192.02715417558693" y2="215.20455920273162"></line><line stroke-width="0.2828287299429545" stroke="lightgray" x1="225.98242126723284" y1="235.32781729199152" x2="169.9118594059696" y2="239.0284650986455"></line><line stroke-width="0.2828287299429545" stroke="lightgray" x1="225.98242126723284" y1="235.32781729199152" x2="195.96531253654427" y2="255.41108036718822"></line><line stroke-width="0.19999011285704185" stroke="lightgray" x1="225.98242126723284" y1="235.32781729199152" x2="231.38777844590922" y2="200.7491755333767"></line><line stroke-width="0.3463930364798302" stroke="lightgray" x1="225.98242126723284" y1="235.32781729199152" x2="207.789970193548" y2="266.8517981783718"></line><line stroke-width="0.3999802257140837" stroke="lightgray" x1="225.98242126723284" y1="235.32781729199152" x2="224.96633453598588" y2="270.3785917572038"></line><line stroke-width="0.19999011285704185" stroke="lightgray" x1="225.98242126723284" y1="235.32781729199152" x2="207.4267418996568" y2="195.99143412181286"></line><line stroke-width="0.19999011285704185" stroke="lightgray" x1="225.98242126723284" y1="235.32781729199152" x2="177.1442423445331" y2="206.12482761139913"></line><line stroke-width="0.2828287299429545" stroke="lightgray" x1="225.98242126723284" y1="235.32781729199152" x2="191.74418040359285" y2="236.66653720684658"></line><line stroke-width="0.19999011285704185" stroke="lightgray" x1="225.98242126723284" y1="235.32781729199152" x2="268.9910755409044" y2="295.928332191648"></line><line stroke-width="0.19999011285704185" stroke="lightgray" x1="268.9910755409044" y1="295.928332191648" x2="278.7030201998458" y2="347.30688163124466"></line><line stroke-width="0.19999011285704185" stroke="lightgray" x1="268.9910755409044" y1="295.928332191648" x2="305.60135621953975" y2="291.36830285465123"></line><line stroke-width="0.19999011285704185" stroke="lightgray" x1="268.9910755409044" y1="295.928332191648" x2="286.9144001338992" y2="326.479753717855"></line><line stroke-width="0.19999011285704185" stroke="lightgray" x1="177.1442423445331" y1="206.12482761139913" x2="207.4267418996568" y2="195.99143412181286"></line><line stroke-width="0.19999011285704185" stroke="lightgray" x1="177.1442423445331" y1="206.12482761139913" x2="169.9118594059696" y2="239.0284650986455"></line><line stroke-width="0.19999011285704185" stroke="lightgray" x1="169.9118594059696" y1="239.0284650986455" x2="192.02715417558693" y2="215.20455920273162"></line><line stroke-width="0.3463930364798302" stroke="lightgray" x1="278.7030201998458" y1="347.30688163124466" x2="292.8162348544408" y2="382.50790673774145"></line></g><g class="nodes"><circle r="6.572345765388346" fill="rgb(237, 248, 231)" stroke="black" stroke-width="1px" transform="translate(295.74014720488566,252.9794408497172)"></circle><circle r="0.8943829743524006" fill="rgb(206, 236, 201)" stroke="black" stroke-width="1px" transform="translate(270.1051231842878,216.99323581821864)"></circle><circle r="0.3999802257140837" fill="rgb(220, 241, 214)" stroke="black" stroke-width="1px" transform="translate(333.1725504451309,254.74379020157573)"></circle><circle r="0.3999802257140837" fill="rgb(223, 243, 217)" stroke="black" stroke-width="1px" transform="translate(317.6230784038694,224.12214321804902)"></circle><circle r="0.3999802257140837" fill="rgb(221, 242, 215)" stroke="black" stroke-width="1px" transform="translate(329.72342819308153,237.90643547719966)"></circle><circle r="0.7999604514281674" fill="rgb(181, 226, 188)" stroke="black" stroke-width="1px" transform="translate(225.98242126723284,235.32781729199152)"></circle><circle r="0.9797474602027484" fill="rgb(193, 231, 193)" stroke="black" stroke-width="1px" transform="translate(327.60089235744374,271.51835805427936)"></circle><circle r="0.3999802257140837" fill="rgb(199, 233, 197)" stroke="black" stroke-width="1px" transform="translate(285.27872115280036,182.79172692413815)"></circle><circle r="0.565657459885909" fill="rgb(134, 208, 192)" stroke="black" stroke-width="1px" transform="translate(191.74418040359285,236.66653720684658)"></circle><circle r="1.4965889661066096" fill="rgb(149, 214, 188)" stroke="black" stroke-width="1px" transform="translate(207.789970193548,266.8517981783718)"></circle><circle r="0.3999802257140837" fill="rgb(163, 219, 186)" stroke="black" stroke-width="1px" transform="translate(231.38777844590922,200.7491755333767)"></circle><circle r="0.565657459885909" fill="rgb(144, 212, 190)" stroke="black" stroke-width="1px" transform="translate(248.37255428984506,258.6075082927495)"></circle><circle r="1.131314919771818" fill="rgb(163, 219, 186)" stroke="black" stroke-width="1px" transform="translate(268.9910755409044,295.928332191648)"></circle><circle r="0.3999802257140837" fill="rgb(134, 208, 192)" stroke="black" stroke-width="1px" transform="translate(177.1442423445331,206.12482761139913)"></circle><circle r="0.565657459885909" fill="rgb(158, 217, 187)" stroke="black" stroke-width="1px" transform="translate(195.96531253654427,255.41108036718822)"></circle><circle r="0.565657459885909" fill="rgb(133, 207, 193)" stroke="black" stroke-width="1px" transform="translate(224.96633453598588,270.3785917572038)"></circle><circle r="0.565657459885909" fill="rgb(105, 194, 202)" stroke="black" stroke-width="1px" transform="translate(169.9118594059696,239.0284650986455)"></circle><circle r="0.3999802257140837" fill="rgb(123, 202, 196)" stroke="black" stroke-width="1px" transform="translate(286.9144001338992,326.479753717855)"></circle><circle r="0.3999802257140837" fill="rgb(120, 201, 197)" stroke="black" stroke-width="1px" transform="translate(207.4267418996568,195.99143412181286)"></circle><circle r="0.3999802257140837" fill="rgb(70, 168, 203)" stroke="black" stroke-width="1px" transform="translate(192.02715417558693,215.20455920273162)"></circle><circle r="0.3999802257140837" fill="rgb(15, 105, 169)" stroke="black" stroke-width="1px" transform="translate(278.7030201998458,347.30688163124466)"></circle><circle r="0.7999604514281674" fill="rgb(10, 90, 156)" stroke="black" stroke-width="1px" transform="translate(292.8162348544408,382.50790673774145)"></circle><circle r="0.3999802257140837" fill="rgb(11, 95, 160)" stroke="black" stroke-width="1px" transform="translate(305.60135621953975,291.36830285465123)"></circle></g></g><g><text x="505" y="495" font-family="sans-serif" text-anchor="end" font-size="10px" fill="red">23 nodes</text><text x="505" y="505" font-family="sans-serif" text-anchor="end" font-size="10px" fill="red">28 edges</text></g></svg>