<svg height="512" width="512" style="border-style: solid; border-width: 1px; cursor: auto;" id="figure"><g transform="translate(-273.1961582908134,-293.45027360123686) scale(2.225106112849871)"><g class="links"><line stroke-width="0.5504208829946363" stroke="lightgray" x1="217.10635443597872" y1="311.22268565233617" x2="207.4953500976431" y2="356.29545210974527"></line><line stroke-width="1.7976670761453621" stroke="lightgray" x1="217.10635443597872" y1="311.22268565233617" x2="254.7858957657098" y2="332.69744192873503"></line><line stroke-width="4.215902992433956" stroke="lightgray" x1="217.10635443597872" y1="311.22268565233617" x2="264.76599709333783" y2="298.2686151392779"></line><line stroke-width="0.44941676903634054" stroke="lightgray" x1="217.10635443597872" y1="311.22268565233617" x2="242.84590249307794" y2="329.55152103095963"></line><line stroke-width="0.3892063388721946" stroke="lightgray" x1="217.10635443597872" y1="311.22268565233617" x2="278.3362155706641" y2="225.86152601464084"></line><line stroke-width="0.5504208829946363" stroke="lightgray" x1="217.10635443597872" y1="311.22268565233617" x2="190.9116305426533" y2="337.7003766634231"></line><line stroke-width="0.31778564496454487" stroke="lightgray" x1="217.10635443597872" y1="311.22268565233617" x2="232.17827462517263" y2="289.2032619589338"></line><line stroke-width="0.3892063388721946" stroke="lightgray" x1="217.10635443597872" y1="311.22268565233617" x2="181.2515168297396" y2="320.3629368812578"></line><line stroke-width="1.2100916841752984" stroke="lightgray" x1="217.10635443597872" y1="311.22268565233617" x2="240.18353788365556" y2="347.0877763613366"></line><line stroke-width="0.44941676903634054" stroke="lightgray" x1="217.10635443597872" y1="311.22268565233617" x2="213.7526619418129" y2="257.2245026063769"></line><line stroke-width="0.22470838451817027" stroke="lightgray" x1="264.76599709333783" y1="298.2686151392779" x2="290.45938902962786" y2="324.52254856017703"></line><line stroke-width="0.8988335380726811" stroke="lightgray" x1="264.76599709333783" y1="298.2686151392779" x2="242.84590249307794" y2="329.55152103095963"></line><line stroke-width="0.3892063388721946" stroke="lightgray" x1="264.76599709333783" y1="298.2686151392779" x2="310.3387357077804" y2="271.8958099304323"></line><line stroke-width="0.5504208829946363" stroke="lightgray" x1="264.76599709333783" y1="298.2686151392779" x2="278.3362155706641" y2="225.86152601464084"></line><line stroke-width="1.2908513920669853" stroke="lightgray" x1="264.76599709333783" y1="298.2686151392779" x2="254.7858957657098" y2="332.69744192873503"></line><line stroke-width="0.840781786802451" stroke="lightgray" x1="264.76599709333783" y1="298.2686151392779" x2="213.7526619418129" y2="257.2245026063769"></line><line stroke-width="0.31778564496454487" stroke="lightgray" x1="264.76599709333783" y1="298.2686151392779" x2="232.17827462517263" y2="289.2032619589338"></line><line stroke-width="0.22470838451817027" stroke="lightgray" x1="264.76599709333783" y1="298.2686151392779" x2="244.04908358474623" y2="270.43124382278734"></line><line stroke-width="0.22470838451817027" stroke="lightgray" x1="264.76599709333783" y1="298.2686151392779" x2="240.18353788365556" y2="347.0877763613366"></line><line stroke-width="0.22470838451817027" stroke="lightgray" x1="310.3387357077804" y1="271.8958099304323" x2="342.8526010827637" y2="291.46658767539566"></line><line stroke-width="0.3892063388721946" stroke="lightgray" x1="310.3387357077804" y1="271.8958099304323" x2="348.4789758202672" y2="270.94493958608996"></line><line stroke-width="0.3892063388721946" stroke="lightgray" x1="310.3387357077804" y1="271.8958099304323" x2="278.3362155706641" y2="225.86152601464084"></line><line stroke-width="0.31778564496454487" stroke="lightgray" x1="278.3362155706641" y1="225.86152601464084" x2="245.06815968199564" y2="216.73105737547314"></line><line stroke-width="0.22470838451817027" stroke="lightgray" x1="278.3362155706641" y1="225.86152601464084" x2="309.1199316359628" y2="195.547747951053"></line><line stroke-width="0.31778564496454487" stroke="lightgray" x1="278.3362155706641" y1="225.86152601464084" x2="294.07116612362506" y2="167.46537434177534"></line><line stroke-width="0.31778564496454487" stroke="lightgray" x1="278.3362155706641" y1="225.86152601464084" x2="271.99277029370586" y2="191.3270754584195"></line><line stroke-width="0.22470838451817027" stroke="lightgray" x1="278.3362155706641" y1="225.86152601464084" x2="312.513801692128" y2="231.12732315608955"></line><line stroke-width="0.3892063388721946" stroke="lightgray" x1="278.3362155706641" y1="225.86152601464084" x2="257.3029146695929" y2="173.33827733797182"></line><line stroke-width="0.44941676903634054" stroke="lightgray" x1="278.3362155706641" y1="225.86152601464084" x2="253.50108647142656" y2="200.1646155948844"></line><line stroke-width="0.22470838451817027" stroke="lightgray" x1="278.3362155706641" y1="225.86152601464084" x2="322.0023406894176" y2="212.270505203543"></line><line stroke-width="0.22470838451817027" stroke="lightgray" x1="278.3362155706641" y1="225.86152601464084" x2="322.35202487123524" y2="181.21426891358303"></line><line stroke-width="0.31778564496454487" stroke="lightgray" x1="278.3362155706641" y1="225.86152601464084" x2="290.65567733153335" y2="193.5477098369749"></line><line stroke-width="0.22470838451817027" stroke="lightgray" x1="278.3362155706641" y1="225.86152601464084" x2="213.7526619418129" y2="257.2245026063769"></line><line stroke-width="0.22470838451817027" stroke="lightgray" x1="240.18353788365556" y1="347.0877763613366" x2="207.4953500976431" y2="356.29545210974527"></line><line stroke-width="0.44941676903634054" stroke="lightgray" x1="257.3029146695929" y1="173.33827733797182" x2="245.02514655464407" y2="134.6110711987332"></line><line stroke-width="0.22470838451817027" stroke="lightgray" x1="213.7526619418129" y1="257.2245026063769" x2="162.8818363725172" y2="237.3815566484346"></line><line stroke-width="0.22470838451817027" stroke="lightgray" x1="213.7526619418129" y1="257.2245026063769" x2="244.04908358474623" y2="270.43124382278734"></line><line stroke-width="0.22470838451817027" stroke="lightgray" x1="213.7526619418129" y1="257.2245026063769" x2="177.96525900384955" y2="254.88770877431213"></line><line stroke-width="0.22470838451817027" stroke="lightgray" x1="322.35202487123524" y1="181.21426891358303" x2="322.0023406894176" y2="212.270505203543"></line><line stroke-width="0.22470838451817027" stroke="lightgray" x1="322.35202487123524" y1="181.21426891358303" x2="294.07116612362506" y2="167.46537434177534"></line><line stroke-width="0.22470838451817027" stroke="lightgray" x1="294.07116612362506" y1="167.46537434177534" x2="309.1199316359628" y2="195.547747951053"></line><line stroke-width="0.3892063388721946" stroke="lightgray" x1="162.8818363725172" y1="237.3815566484346" x2="125.76044772118286" y2="225.66824307053477"></line></g><g class="nodes"><circle r="5.298545563497385" fill="rgb(237, 248, 231)" stroke="black" stroke-width="1px" transform="translate(217.10635443597872,311.22268565233617)"></circle><circle r="4.670476066466335" fill="rgb(236, 248, 230)" stroke="black" stroke-width="1px" transform="translate(264.76599709333783,298.2686151392779)"></circle><circle r="1.681563573604902" fill="rgb(241, 250, 234)" stroke="black" stroke-width="1px" transform="translate(254.7858957657098,332.69744192873503)"></circle><circle r="1.1890450058923103" fill="rgb(236, 248, 229)" stroke="black" stroke-width="1px" transform="translate(242.84590249307794,329.55152103095963)"></circle><circle r="0.6355712899290897" fill="rgb(241, 250, 235)" stroke="black" stroke-width="1px" transform="translate(232.17827462517263,289.2032619589338)"></circle><circle r="0.7784126777443892" fill="rgb(205, 236, 201)" stroke="black" stroke-width="1px" transform="translate(310.3387357077804,271.8958099304323)"></circle><circle r="0.6355712899290897" fill="rgb(207, 236, 202)" stroke="black" stroke-width="1px" transform="translate(348.4789758202672,270.94493958608996)"></circle><circle r="0.44941676903634054" fill="rgb(223, 243, 217)" stroke="black" stroke-width="1px" transform="translate(190.9116305426533,337.7003766634231)"></circle><circle r="0.44941676903634054" fill="rgb(221, 242, 215)" stroke="black" stroke-width="1px" transform="translate(181.2515168297396,320.3629368812578)"></circle><circle r="0.44941676903634054" fill="rgb(220, 241, 214)" stroke="black" stroke-width="1px" transform="translate(290.45938902962786,324.52254856017703)"></circle><circle r="0.8988335380726811" fill="rgb(181, 226, 188)" stroke="black" stroke-width="1px" transform="translate(278.3362155706641,225.86152601464084)"></circle><circle r="0.8988335380726811" fill="rgb(193, 231, 193)" stroke="black" stroke-width="1px" transform="translate(240.18353788365556,347.0877763613366)"></circle><circle r="0.6355712899290897" fill="rgb(194, 231, 194)" stroke="black" stroke-width="1px" transform="translate(207.4953500976431,356.29545210974527)"></circle><circle r="0.44941676903634054" fill="rgb(199, 233, 197)" stroke="black" stroke-width="1px" transform="translate(342.8526010827637,291.46658767539566)"></circle><circle r="1.421180608828672" fill="rgb(149, 214, 188)" stroke="black" stroke-width="1px" transform="translate(257.3029146695929,173.33827733797182)"></circle><circle r="1.2711425798581795" fill="rgb(163, 219, 186)" stroke="black" stroke-width="1px" transform="translate(213.7526619418129,257.2245026063769)"></circle><circle r="0.8988335380726811" fill="rgb(149, 214, 188)" stroke="black" stroke-width="1px" transform="translate(245.02514655464407,134.6110711987332)"></circle><circle r="0.6355712899290897" fill="rgb(144, 212, 190)" stroke="black" stroke-width="1px" transform="translate(245.06815968199564,216.73105737547314)"></circle><circle r="0.6355712899290897" fill="rgb(133, 207, 193)" stroke="black" stroke-width="1px" transform="translate(253.50108647142656,200.1646155948844)"></circle><circle r="0.6355712899290897" fill="rgb(134, 208, 192)" stroke="black" stroke-width="1px" transform="translate(290.65567733153335,193.5477098369749)"></circle><circle r="0.6355712899290897" fill="rgb(158, 217, 187)" stroke="black" stroke-width="1px" transform="translate(271.99277029370586,191.3270754584195)"></circle><circle r="0.44941676903634054" fill="rgb(134, 208, 192)" stroke="black" stroke-width="1px" transform="translate(322.35202487123524,181.21426891358303)"></circle><circle r="0.44941676903634054" fill="rgb(163, 219, 186)" stroke="black" stroke-width="1px" transform="translate(312.513801692128,231.12732315608955)"></circle><circle r="0.6355712899290897" fill="rgb(105, 194, 202)" stroke="black" stroke-width="1px" transform="translate(294.07116612362506,167.46537434177534)"></circle><circle r="0.44941676903634054" fill="rgb(120, 201, 197)" stroke="black" stroke-width="1px" transform="translate(322.0023406894176,212.270505203543)"></circle><circle r="0.44941676903634054" fill="rgb(123, 202, 196)" stroke="black" stroke-width="1px" transform="translate(177.96525900384955,254.88770877431213)"></circle><circle r="0.44941676903634054" fill="rgb(70, 168, 203)" stroke="black" stroke-width="1px" transform="translate(309.1199316359628,195.547747951053)"></circle><circle r="0.44941676903634054" fill="rgb(15, 105, 169)" stroke="black" stroke-width="1px" transform="translate(162.8818363725172,237.3815566484346)"></circle><circle r="0.8988335380726811" fill="rgb(10, 90, 156)" stroke="black" stroke-width="1px" transform="translate(125.76044772118286,225.66824307053477)"></circle><circle r="0.44941676903634054" fill="rgb(11, 95, 160)" stroke="black" stroke-width="1px" transform="translate(244.04908358474623,270.43124382278734)"></circle></g></g><g><text x="505" y="495" font-family="sans-serif" text-anchor="end" font-size="10px" fill="red">30 nodes</text><text x="505" y="505" font-family="sans-serif" text-anchor="end" font-size="10px" fill="red">42 edges</text></g></svg>