<svg height="512" width="512" style="border-style: solid; border-width: 1px; cursor: auto;" id="figure"><g transform="translate(66.71268080454334,40.07507773317852) scale(0.24572112936342738)"><g class="links"><line stroke-width="17.50424411878635" stroke="lightgray" x1="209.99989124409367" y1="205.344758887605" x2="182.2561969354346" y2="110.84997926310574"></line><line stroke-width="2.877680006674232" stroke="lightgray" x1="209.99989124409367" y1="205.344758887605" x2="235.97147317467005" y2="181.25767806801113"></line><line stroke-width="2.0348270468042986" stroke="lightgray" x1="209.99989124409367" y1="205.344758887605" x2="239.2268807760045" y2="229.47592989219743"></line><line stroke-width="2.0348270468042986" stroke="lightgray" x1="209.99989124409367" y1="205.344758887605" x2="164.95395995410027" y2="200.87180076696103"></line><line stroke-width="2.0348270468042986" stroke="lightgray" x1="209.99989124409367" y1="205.344758887605" x2="222.92997137194885" y2="164.8326248310717"></line><line stroke-width="2.0348270468042986" stroke="lightgray" x1="209.99989124409367" y1="205.344758887605" x2="213.31604503082724" y2="242.24304902574994"></line><line stroke-width="2.0348270468042986" stroke="lightgray" x1="209.99989124409367" y1="205.344758887605" x2="191.1606926621426" y2="168.92057350090928"></line><line stroke-width="2.877680006674232" stroke="lightgray" x1="209.99989124409367" y1="205.344758887605" x2="176.3141593467288" y2="221.79711120142304"></line><line stroke-width="2.0348270468042986" stroke="lightgray" x1="209.99989124409367" y1="205.344758887605" x2="179.91126127394858" y2="241.7525941976866"></line><line stroke-width="2.0348270468042986" stroke="lightgray" x1="209.99989124409367" y1="205.344758887605" x2="246.05226088523963" y2="177.7005730019212"></line><line stroke-width="2.0348270468042986" stroke="lightgray" x1="209.99989124409367" y1="205.344758887605" x2="227.4089205156682" y2="238.16853810992527"></line><line stroke-width="2.0348270468042986" stroke="lightgray" x1="209.99989124409367" y1="205.344758887605" x2="172.21074322460018" y2="191.43697227617014"></line><line stroke-width="2.0348270468042986" stroke="lightgray" x1="209.99989124409367" y1="205.344758887605" x2="255.94151709643288" y2="202.77973565379193"></line><line stroke-width="2.0348270468042986" stroke="lightgray" x1="209.99989124409367" y1="205.344758887605" x2="186.69718839103737" y2="233.44120760816935"></line><line stroke-width="2.0348270468042986" stroke="lightgray" x1="209.99989124409367" y1="205.344758887605" x2="202.1955409559477" y2="165.0659899818522"></line><line stroke-width="2.0348270468042986" stroke="lightgray" x1="209.99989124409367" y1="205.344758887605" x2="251.349974637174" y2="228.06682990852647"></line><line stroke-width="2.0348270468042986" stroke="lightgray" x1="209.99989124409367" y1="205.344758887605" x2="171.102757634872" y2="231.41410170393442"></line><line stroke-width="2.0348270468042986" stroke="lightgray" x1="209.99989124409367" y1="205.344758887605" x2="252.35937827285002" y2="188.7557608975596"></line><line stroke-width="2.0348270468042986" stroke="lightgray" x1="209.99989124409367" y1="205.344758887605" x2="199.26038356123127" y2="241.163264195171"></line><line stroke-width="2.0348270468042986" stroke="lightgray" x1="209.99989124409367" y1="205.344758887605" x2="174.49551249750232" y2="180.65400430488927"></line><line stroke-width="2.0348270468042986" stroke="lightgray" x1="209.99989124409367" y1="205.344758887605" x2="244.93200034445786" y2="215.88560309178504"></line><line stroke-width="2.0348270468042986" stroke="lightgray" x1="209.99989124409367" y1="205.344758887605" x2="205.1648602114672" y2="252.64749884322453"></line><line stroke-width="2.0348270468042986" stroke="lightgray" x1="209.99989124409367" y1="205.344758887605" x2="233.01596784049806" y2="169.65981856153016"></line><line stroke-width="2.0348270468042986" stroke="lightgray" x1="209.99989124409367" y1="205.344758887605" x2="242.5921967493827" y2="240.03611321977112"></line><line stroke-width="2.0348270468042986" stroke="lightgray" x1="209.99989124409367" y1="205.344758887605" x2="165.30031466520782" y2="216.2415773981307"></line><line stroke-width="2.0348270468042986" stroke="lightgray" x1="209.99989124409367" y1="205.344758887605" x2="245.54058660494346" y2="198.38622613164264"></line><line stroke-width="2.0348270468042986" stroke="lightgray" x1="209.99989124409367" y1="205.344758887605" x2="218.96364928301952" y2="252.19475310130304"></line><line stroke-width="2.0348270468042986" stroke="lightgray" x1="209.99989124409367" y1="205.344758887605" x2="184.92505179752106" y2="177.9928704833139"></line><line stroke-width="2.0348270468042986" stroke="lightgray" x1="209.99989124409367" y1="205.344758887605" x2="255.97760587963174" y2="215.31841411278543"></line><line stroke-width="2.0348270468042986" stroke="lightgray" x1="209.99989124409367" y1="205.344758887605" x2="191.0999752406236" y2="249.06311757165307"></line><line stroke-width="2.0348270468042986" stroke="lightgray" x1="209.99989124409367" y1="205.344758887605" x2="212.6278418192222" y2="168.47334231014034"></line><line stroke-width="2.0348270468042986" stroke="lightgray" x1="209.99989124409367" y1="205.344758887605" x2="231.312053850702" y2="248.1460948341987"></line><line stroke-width="2.0348270468042986" stroke="lightgray" x1="209.99989124409367" y1="205.344758887605" x2="174.49459928549504" y2="206.72409643837477"></line><line stroke-width="5.383646326872163" stroke="lightgray" x1="182.2561969354346" y1="110.84997926310574" x2="157.22599754481325" y2="21.309755683219347"></line><line stroke-width="4.9842879794849155" stroke="lightgray" x1="182.2561969354346" y1="110.84997926310574" x2="169.99017278369996" y2="76.0696083339591"></line><line stroke-width="10.767292653744326" stroke="lightgray" x1="157.22599754481325" y1="21.309755683219347" x2="137.97124330840992" y2="-47.480766572434476"></line><line stroke-width="2.0348270468042986" stroke="lightgray" x1="137.97124330840992" y1="-47.480766572434476" x2="150.23901676718555" y2="-80.42414973595163"></line><line stroke-width="2.877680006674232" stroke="lightgray" x1="137.97124330840992" y1="-47.480766572434476" x2="103.50933841697747" y2="-43.67476280738212"></line><line stroke-width="3.524423829680379" stroke="lightgray" x1="137.97124330840992" y1="-47.480766572434476" x2="128.47556880859693" y2="-98.496564300275"></line><line stroke-width="2.0348270468042986" stroke="lightgray" x1="137.97124330840992" y1="-47.480766572434476" x2="167.2873407324686" y2="-66.40771206398438"></line><line stroke-width="2.877680006674232" stroke="lightgray" x1="137.97124330840992" y1="-47.480766572434476" x2="105.91748753463229" y2="-63.58059662687336"></line><line stroke-width="2.0348270468042986" stroke="lightgray" x1="137.97124330840992" y1="-47.480766572434476" x2="119.68926518574732" y2="-77.225803730546"></line><line stroke-width="2.877680006674232" stroke="lightgray" x1="128.47556880859693" y1="-98.496564300275" x2="120.23538176984245" y2="-135.57955701337792"></line><line stroke-width="4.069654093608597" stroke="lightgray" x1="422.45426266981343" y1="972.520654756813" x2="453.9833442223458" y2="967.4463255648784"></line><line stroke-width="2.0348270468042986" stroke="lightgray" x1="1409.498859548229" y1="1890.429419816045" x2="1432.453864059074" y2="1868.2905776902749"></line></g><g class="nodes"><circle r="67.24172107080308" fill="rgb(237, 248, 231)" stroke="black" stroke-width="1px" transform="translate(209.99989124409367,205.344758887605)"></circle><circle r="37.95920634604198" fill="rgb(226, 244, 221)" stroke="black" stroke-width="1px" transform="translate(182.2561969354346,110.84997926310574)"></circle><circle r="5.755360013348464" fill="rgb(233, 247, 227)" stroke="black" stroke-width="1px" transform="translate(235.97147317467005,181.25767806801113)"></circle><circle r="4.069654093608597" fill="rgb(235, 247, 228)" stroke="black" stroke-width="1px" transform="translate(239.2268807760045,229.47592989219743)"></circle><circle r="4.069654093608597" fill="rgb(234, 247, 228)" stroke="black" stroke-width="1px" transform="translate(164.95395995410027,200.87180076696103)"></circle><circle r="4.069654093608597" fill="rgb(220, 241, 214)" stroke="black" stroke-width="1px" transform="translate(222.92997137194885,164.8326248310717)"></circle><circle r="4.069654093608597" fill="rgb(229, 245, 224)" stroke="black" stroke-width="1px" transform="translate(213.31604503082724,242.24304902574994)"></circle><circle r="4.069654093608597" fill="rgb(232, 246, 226)" stroke="black" stroke-width="1px" transform="translate(191.1606926621426,168.92057350090928)"></circle><circle r="5.755360013348464" fill="rgb(230, 245, 224)" stroke="black" stroke-width="1px" transform="translate(176.3141593467288,221.79711120142304)"></circle><circle r="4.069654093608597" fill="rgb(231, 246, 225)" stroke="black" stroke-width="1px" transform="translate(179.91126127394858,241.7525941976866)"></circle><circle r="4.069654093608597" fill="rgb(234, 247, 228)" stroke="black" stroke-width="1px" transform="translate(246.05226088523963,177.7005730019212)"></circle><circle r="4.069654093608597" fill="rgb(235, 247, 229)" stroke="black" stroke-width="1px" transform="translate(227.4089205156682,238.16853810992527)"></circle><circle r="4.069654093608597" fill="rgb(235, 247, 229)" stroke="black" stroke-width="1px" transform="translate(172.21074322460018,191.43697227617014)"></circle><circle r="4.069654093608597" fill="rgb(227, 244, 221)" stroke="black" stroke-width="1px" transform="translate(255.94151709643288,202.77973565379193)"></circle><circle r="4.069654093608597" fill="rgb(232, 246, 226)" stroke="black" stroke-width="1px" transform="translate(186.69718839103737,233.44120760816935)"></circle><circle r="4.069654093608597" fill="rgb(235, 247, 229)" stroke="black" stroke-width="1px" transform="translate(202.1955409559477,165.0659899818522)"></circle><circle r="4.069654093608597" fill="rgb(228, 244, 222)" stroke="black" stroke-width="1px" transform="translate(251.349974637174,228.06682990852647)"></circle><circle r="4.069654093608597" fill="rgb(234, 247, 228)" stroke="black" stroke-width="1px" transform="translate(171.102757634872,231.41410170393442)"></circle><circle r="4.069654093608597" fill="rgb(232, 246, 226)" stroke="black" stroke-width="1px" transform="translate(252.35937827285002,188.7557608975596)"></circle><circle r="4.069654093608597" fill="rgb(232, 246, 226)" stroke="black" stroke-width="1px" transform="translate(199.26038356123127,241.163264195171)"></circle><circle r="4.069654093608597" fill="rgb(234, 247, 228)" stroke="black" stroke-width="1px" transform="translate(174.49551249750232,180.65400430488927)"></circle><circle r="4.069654093608597" fill="rgb(233, 246, 227)" stroke="black" stroke-width="1px" transform="translate(244.93200034445786,215.88560309178504)"></circle><circle r="4.069654093608597" fill="rgb(235, 247, 229)" stroke="black" stroke-width="1px" transform="translate(205.1648602114672,252.64749884322453)"></circle><circle r="4.069654093608597" fill="rgb(233, 247, 227)" stroke="black" stroke-width="1px" transform="translate(233.01596784049806,169.65981856153016)"></circle><circle r="4.069654093608597" fill="rgb(232, 246, 226)" stroke="black" stroke-width="1px" transform="translate(242.5921967493827,240.03611321977112)"></circle><circle r="4.069654093608597" fill="rgb(232, 246, 226)" stroke="black" stroke-width="1px" transform="translate(165.30031466520782,216.2415773981307)"></circle><circle r="4.069654093608597" fill="rgb(235, 247, 229)" stroke="black" stroke-width="1px" transform="translate(245.54058660494346,198.38622613164264)"></circle><circle r="4.069654093608597" fill="rgb(230, 245, 224)" stroke="black" stroke-width="1px" transform="translate(218.96364928301952,252.19475310130304)"></circle><circle r="4.069654093608597" fill="rgb(226, 244, 220)" stroke="black" stroke-width="1px" transform="translate(184.92505179752106,177.9928704833139)"></circle><circle r="4.069654093608597" fill="rgb(229, 245, 224)" stroke="black" stroke-width="1px" transform="translate(255.97760587963174,215.31841411278543)"></circle><circle r="4.069654093608597" fill="rgb(234, 247, 228)" stroke="black" stroke-width="1px" transform="translate(191.0999752406236,249.06311757165307)"></circle><circle r="4.069654093608597" fill="rgb(228, 245, 223)" stroke="black" stroke-width="1px" transform="translate(212.6278418192222,168.47334231014034)"></circle><circle r="4.069654093608597" fill="rgb(231, 246, 225)" stroke="black" stroke-width="1px" transform="translate(231.312053850702,248.1460948341987)"></circle><circle r="4.069654093608597" fill="rgb(233, 247, 227)" stroke="black" stroke-width="1px" transform="translate(174.49459928549504,206.72409643837477)"></circle><circle r="24.076398307406418" fill="rgb(168, 221, 186)" stroke="black" stroke-width="1px" transform="translate(157.22599754481325,21.309755683219347)"></circle><circle r="9.968575958969831" fill="rgb(193, 231, 193)" stroke="black" stroke-width="1px" transform="translate(169.99017278369996,76.0696083339591)"></circle><circle r="25.087032681880853" fill="rgb(151, 214, 188)" stroke="black" stroke-width="1px" transform="translate(137.97124330840992,-47.480766572434476)"></circle><circle r="4.069654093608597" fill="rgb(139, 210, 191)" stroke="black" stroke-width="1px" transform="translate(150.23901676718555,-80.42414973595163)"></circle><circle r="5.755360013348464" fill="rgb(133, 207, 193)" stroke="black" stroke-width="1px" transform="translate(103.50933841697747,-43.67476280738212)"></circle><circle r="9.100023198219118" fill="rgb(106, 194, 201)" stroke="black" stroke-width="1px" transform="translate(128.47556880859693,-98.496564300275)"></circle><circle r="4.069654093608597" fill="rgb(123, 202, 196)" stroke="black" stroke-width="1px" transform="translate(167.2873407324686,-66.40771206398438)"></circle><circle r="5.755360013348464" fill="rgb(134, 208, 192)" stroke="black" stroke-width="1px" transform="translate(105.91748753463229,-63.58059662687336)"></circle><circle r="4.069654093608597" fill="rgb(145, 212, 189)" stroke="black" stroke-width="1px" transform="translate(119.68926518574732,-77.225803730546)"></circle><circle r="5.755360013348464" fill="rgb(79, 176, 205)" stroke="black" stroke-width="1px" transform="translate(120.23538176984245,-135.57955701337792)"></circle><circle r="8.139308187217194" fill="rgb(12, 100, 165)" stroke="black" stroke-width="1px" transform="translate(422.45426266981343,972.520654756813)"></circle><circle r="4.069654093608597" fill="rgb(11, 95, 160)" stroke="black" stroke-width="1px" transform="translate(1409.498859548229,1890.429419816045)"></circle><circle r="9.100023198219118" fill="rgb(10, 93, 159)" stroke="black" stroke-width="1px" transform="translate(453.9833442223458,967.4463255648784)"></circle><circle r="4.069654093608597" fill="rgb(11, 95, 160)" stroke="black" stroke-width="1px" transform="translate(1432.453864059074,1868.2905776902749)"></circle></g></g><g><text x="505" y="495" font-family="sans-serif" text-anchor="end" font-size="10px" fill="red">48 nodes</text><text x="505" y="505" font-family="sans-serif" text-anchor="end" font-size="10px" fill="red">45 edges</text></g></svg>