<svg height="512" width="512" style="border-style: solid; border-width: 1px; cursor: auto;" id="figure"><g transform="translate(-403.75624174383836,-466.7479486366735) scale(2.6577756007378337)"><g class="links"><line stroke-width="1.12876346639918" stroke="lightgray" x1="293.547165510486" y1="242.07840332684836" x2="329.2109597725053" y2="251.3366201135599"></line><line stroke-width="0.1881272443998633" stroke="lightgray" x1="293.547165510486" y1="242.07840332684836" x2="329.95911203437686" y2="233.59782738860255"></line><line stroke-width="0.3258459455884908" stroke="lightgray" x1="293.547165510486" y1="242.07840332684836" x2="258.8528479631235" y2="215.35948373088016"></line><line stroke-width="0.56438173319959" stroke="lightgray" x1="293.547165510486" y1="242.07840332684836" x2="221.2553045995762" y2="244.36998440876707"></line><line stroke-width="0.4608157554955292" stroke="lightgray" x1="293.547165510486" y1="242.07840332684836" x2="306.8752817321617" y2="208.47550082183736"></line><line stroke-width="0.7981563014464937" stroke="lightgray" x1="293.547165510486" y1="242.07840332684836" x2="280.2298768148513" y2="290.3615444106719"></line><line stroke-width="0.3258459455884908" stroke="lightgray" x1="293.547165510486" y1="242.07840332684836" x2="322.14177749255305" y2="218.440419797926"></line><line stroke-width="0.1881272443998633" stroke="lightgray" x1="293.547165510486" y1="242.07840332684836" x2="313.87069208035854" y2="275.9741136932052"></line><line stroke-width="0.1881272443998633" stroke="lightgray" x1="258.8528479631235" y1="215.35948373088016" x2="263.8848484952589" y2="178.37456496682674"></line><line stroke-width="0.3258459455884908" stroke="lightgray" x1="258.8528479631235" y1="215.35948373088016" x2="221.2553045995762" y2="244.36998440876707"></line><line stroke-width="0.2660521004821646" stroke="lightgray" x1="221.2553045995762" y1="244.36998440876707" x2="249.9632533164287" y2="259.02926328390475"></line><line stroke-width="0.1881272443998633" stroke="lightgray" x1="221.2553045995762" y1="244.36998440876707" x2="183.07607379191728" y2="233.56343133297815"></line><line stroke-width="0.2660521004821646" stroke="lightgray" x1="221.2553045995762" y1="244.36998440876707" x2="168.39056812168403" y2="262.84798925023296"></line><line stroke-width="0.2660521004821646" stroke="lightgray" x1="221.2553045995762" y1="244.36998440876707" x2="197.69021598741614" y2="271.82582757795444"></line><line stroke-width="0.1881272443998633" stroke="lightgray" x1="221.2553045995762" y1="244.36998440876707" x2="217.02508041868214" y2="209.37626806118269"></line><line stroke-width="0.3258459455884908" stroke="lightgray" x1="221.2553045995762" y1="244.36998440876707" x2="212.39918944876783" y2="279.5560461937518"></line><line stroke-width="0.3762544887997266" stroke="lightgray" x1="221.2553045995762" y1="244.36998440876707" x2="230.00039982795454" y2="278.25602157997736"></line><line stroke-width="0.1881272443998633" stroke="lightgray" x1="221.2553045995762" y1="244.36998440876707" x2="193.03287232390497" y2="210.64857734847422"></line><line stroke-width="0.1881272443998633" stroke="lightgray" x1="221.2553045995762" y1="244.36998440876707" x2="166.24495998766994" y2="229.3224721173027"></line><line stroke-width="0.2660521004821646" stroke="lightgray" x1="221.2553045995762" y1="244.36998440876707" x2="188.60326245839073" y2="254.17262355954063"></line><line stroke-width="0.1881272443998633" stroke="lightgray" x1="221.2553045995762" y1="244.36998440876707" x2="280.2298768148513" y2="290.3615444106719"></line><line stroke-width="0.1881272443998633" stroke="lightgray" x1="280.2298768148513" y1="290.3615444106719" x2="304.9264720562068" y2="336.6376379755401"></line><line stroke-width="0.1881272443998633" stroke="lightgray" x1="280.2298768148513" y1="290.3615444106719" x2="313.87069208035854" y2="275.9741136932052"></line><line stroke-width="0.1881272443998633" stroke="lightgray" x1="280.2298768148513" y1="290.3615444106719" x2="306.0460853534399" y2="314.5430088255551"></line><line stroke-width="0.1881272443998633" stroke="lightgray" x1="166.24495998766994" y1="229.3224721173027" x2="193.03287232390497" y2="210.64857734847422"></line><line stroke-width="0.1881272443998633" stroke="lightgray" x1="166.24495998766994" y1="229.3224721173027" x2="168.39056812168403" y2="262.84798925023296"></line><line stroke-width="0.1881272443998633" stroke="lightgray" x1="168.39056812168403" y1="262.84798925023296" x2="183.07607379191728" y2="233.56343133297815"></line><line stroke-width="0.3258459455884908" stroke="lightgray" x1="304.9264720562068" y1="336.6376379755401" x2="327.7582613866638" y2="366.84594903288246"></line></g><g class="nodes"><circle r="6.182492126345554" fill="rgb(237, 248, 231)" stroke="black" stroke-width="1px" transform="translate(293.547165510486,242.07840332684836)"></circle><circle r="0.841330613795622" fill="rgb(206, 236, 201)" stroke="black" stroke-width="1px" transform="translate(258.8528479631235,215.35948373088016)"></circle><circle r="0.3762544887997266" fill="rgb(220, 241, 214)" stroke="black" stroke-width="1px" transform="translate(329.95911203437686,233.59782738860255)"></circle><circle r="0.3762544887997266" fill="rgb(223, 243, 217)" stroke="black" stroke-width="1px" transform="translate(306.8752817321617,208.47550082183736)"></circle><circle r="0.3762544887997266" fill="rgb(221, 242, 215)" stroke="black" stroke-width="1px" transform="translate(322.14177749255305,218.440419797926)"></circle><circle r="0.7525089775994532" fill="rgb(181, 226, 188)" stroke="black" stroke-width="1px" transform="translate(221.2553045995762,244.36998440876707)"></circle><circle r="0.9216315109910584" fill="rgb(193, 231, 193)" stroke="black" stroke-width="1px" transform="translate(329.2109597725053,251.3366201135599)"></circle><circle r="0.3762544887997266" fill="rgb(199, 233, 197)" stroke="black" stroke-width="1px" transform="translate(263.8848484952589,178.37456496682674)"></circle><circle r="0.5321042009643292" fill="rgb(134, 208, 192)" stroke="black" stroke-width="1px" transform="translate(188.60326245839073,254.17262355954063)"></circle><circle r="1.4078153873243504" fill="rgb(149, 214, 188)" stroke="black" stroke-width="1px" transform="translate(212.39918944876783,279.5560461937518)"></circle><circle r="0.3762544887997266" fill="rgb(163, 219, 186)" stroke="black" stroke-width="1px" transform="translate(217.02508041868214,209.37626806118269)"></circle><circle r="0.5321042009643292" fill="rgb(144, 212, 190)" stroke="black" stroke-width="1px" transform="translate(249.9632533164287,259.02926328390475)"></circle><circle r="1.0642084019286584" fill="rgb(163, 219, 186)" stroke="black" stroke-width="1px" transform="translate(280.2298768148513,290.3615444106719)"></circle><circle r="0.3762544887997266" fill="rgb(134, 208, 192)" stroke="black" stroke-width="1px" transform="translate(166.24495998766994,229.3224721173027)"></circle><circle r="0.5321042009643292" fill="rgb(158, 217, 187)" stroke="black" stroke-width="1px" transform="translate(197.69021598741614,271.82582757795444)"></circle><circle r="0.5321042009643292" fill="rgb(133, 207, 193)" stroke="black" stroke-width="1px" transform="translate(230.00039982795454,278.25602157997736)"></circle><circle r="0.5321042009643292" fill="rgb(105, 194, 202)" stroke="black" stroke-width="1px" transform="translate(168.39056812168403,262.84798925023296)"></circle><circle r="0.3762544887997266" fill="rgb(123, 202, 196)" stroke="black" stroke-width="1px" transform="translate(306.0460853534399,314.5430088255551)"></circle><circle r="0.3762544887997266" fill="rgb(120, 201, 197)" stroke="black" stroke-width="1px" transform="translate(193.03287232390497,210.64857734847422)"></circle><circle r="0.3762544887997266" fill="rgb(70, 168, 203)" stroke="black" stroke-width="1px" transform="translate(183.07607379191728,233.56343133297815)"></circle><circle r="0.3762544887997266" fill="rgb(15, 105, 169)" stroke="black" stroke-width="1px" transform="translate(304.9264720562068,336.6376379755401)"></circle><circle r="0.7525089775994532" fill="rgb(10, 90, 156)" stroke="black" stroke-width="1px" transform="translate(327.7582613866638,366.84594903288246)"></circle><circle r="0.3762544887997266" fill="rgb(11, 95, 160)" stroke="black" stroke-width="1px" transform="translate(313.87069208035854,275.9741136932052)"></circle></g></g><g><text x="505" y="495" font-family="sans-serif" text-anchor="end" font-size="10px" fill="red">23 nodes</text><text x="505" y="505" font-family="sans-serif" text-anchor="end" font-size="10px" fill="red">28 edges</text></g></svg>