<svg height="512" width="512" style="border-style: solid; border-width: 1px; cursor: auto;" id="figure"><g transform="translate(-61.702169139418686,-19.633389727928602) scale(1.275824325284038)"><g class="links"><line stroke-width="2.569883013808391" stroke="lightgray" x1="287.6003827242066" y1="209.03188083977108" x2="276.4107710791941" y2="248.10601615820875"></line><line stroke-width="1.3575934971950538" stroke="lightgray" x1="287.6003827242066" y1="209.03188083977108" x2="270.89914770629105" y2="164.72094102420198"></line><line stroke-width="2.110464858057789" stroke="lightgray" x1="287.6003827242066" y1="209.03188083977108" x2="290.6160720872585" y2="182.5284762398032"></line><line stroke-width="0.39190348552782495" stroke="lightgray" x1="287.6003827242066" y1="209.03188083977108" x2="324.4838594134712" y2="213.975833396441"></line><line stroke-width="1.6627056731242138" stroke="lightgray" x1="287.6003827242066" y1="209.03188083977108" x2="319.3470706570148" y2="196.5735407427341"></line><line stroke-width="0.6787967485975269" stroke="lightgray" x1="287.6003827242066" y1="209.03188083977108" x2="310.89796821375603" y2="237.76446734373675"></line><line stroke-width="0.554235224374738" stroke="lightgray" x1="287.6003827242066" y1="209.03188083977108" x2="249.41081677603285" y2="241.83844573744756"></line><line stroke-width="0.6787967485975269" stroke="lightgray" x1="287.6003827242066" y1="209.03188083977108" x2="311.74236534111486" y2="180.9692450337737"></line><line stroke-width="1.2393076372267626" stroke="lightgray" x1="276.4107710791941" y1="248.10601615820875" x2="290.6160720872585" y2="182.5284762398032"></line><line stroke-width="1.5676139421112998" stroke="lightgray" x1="276.4107710791941" y1="248.10601615820875" x2="270.89914770629105" y2="164.72094102420198"></line><line stroke-width="1.708267689037144" stroke="lightgray" x1="276.4107710791941" y1="248.10601615820875" x2="206.001487173166" y2="351.84051251378276"></line><line stroke-width="2.036390245792581" stroke="lightgray" x1="276.4107710791941" y1="248.10601615820875" x2="249.9767549809968" y2="287.2725145907804"></line><line stroke-width="1.2997968155282729" stroke="lightgray" x1="276.4107710791941" y1="248.10601615820875" x2="249.41081677603285" y2="241.83844573744756"></line><line stroke-width="0.554235224374738" stroke="lightgray" x1="276.4107710791941" y1="248.10601615820875" x2="310.89796821375603" y2="237.76446734373675"></line><line stroke-width="0.554235224374738" stroke="lightgray" x1="276.4107710791941" y1="248.10601615820875" x2="274.75943170983913" y2="302.46732490459146"></line><line stroke-width="1.2393076372267626" stroke="lightgray" x1="276.4107710791941" y1="248.10601615820875" x2="252.4951468899477" y2="223.7394366454743"></line><line stroke-width="0.39190348552782495" stroke="lightgray" x1="276.4107710791941" y1="248.10601615820875" x2="319.3470706570148" y2="196.5735407427341"></line><line stroke-width="0.6787967485975269" stroke="lightgray" x1="276.4107710791941" y1="248.10601615820875" x2="306.2224561347158" y2="267.0234769192199"></line><line stroke-width="1.708267689037144" stroke="lightgray" x1="270.89914770629105" y1="164.72094102420198" x2="257.9136459212357" y2="106.95097034809991"></line><line stroke-width="1.3575934971950538" stroke="lightgray" x1="270.89914770629105" y1="164.72094102420198" x2="290.6160720872585" y2="182.5284762398032"></line><line stroke-width="0.7838069710556499" stroke="lightgray" x1="270.89914770629105" y1="164.72094102420198" x2="319.3470706570148" y2="196.5735407427341"></line><line stroke-width="0.554235224374738" stroke="lightgray" x1="270.89914770629105" y1="164.72094102420198" x2="269.9705809281671" y2="129.5616981148814"></line><line stroke-width="0.39190348552782495" stroke="lightgray" x1="290.6160720872585" y1="182.5284762398032" x2="319.3470706570148" y2="196.5735407427341"></line><line stroke-width="0.39190348552782495" stroke="lightgray" x1="290.6160720872585" y1="182.5284762398032" x2="310.78562700702236" y2="149.8282879952125"></line><line stroke-width="1.5676139421112998" stroke="lightgray" x1="319.3470706570148" y1="196.5735407427341" x2="355.40350427979416" y2="182.64306336012388"></line><line stroke-width="1.708267689037144" stroke="lightgray" x1="274.75943170983913" y1="302.46732490459146" x2="249.9767549809968" y2="287.2725145907804"></line><line stroke-width="0.554235224374738" stroke="lightgray" x1="274.75943170983913" y1="302.46732490459146" x2="245.40471656291308" y2="345.18882805418633"></line><line stroke-width="1.4663685715276407" stroke="lightgray" x1="249.9767549809968" y1="287.2725145907804" x2="245.40471656291308" y2="345.18882805418633"></line><line stroke-width="0.39190348552782495" stroke="lightgray" x1="249.9767549809968" y1="287.2725145907804" x2="249.41081677603285" y2="241.83844573744756"></line><line stroke-width="1.6158594658789445" stroke="lightgray" x1="206.001487173166" y1="351.84051251378276" x2="169.0504976262494" y2="379.94689099713264"></line><line stroke-width="1.1757104565834748" stroke="lightgray" x1="206.001487173166" y1="351.84051251378276" x2="234.24343783495812" y2="383.6198527950851"></line><line stroke-width="1.108470448749476" stroke="lightgray" x1="206.001487173166" y1="351.84051251378276" x2="159.79762995974917" y2="364.4616536186321"></line><line stroke-width="2.6580187603866667" stroke="lightgray" x1="206.001487173166" y1="351.84051251378276" x2="194.3776066422929" y2="382.60487403775414"></line><line stroke-width="1.3575934971950538" stroke="lightgray" x1="206.001487173166" y1="351.84051251378276" x2="245.40471656291308" y2="345.18882805418633"></line><line stroke-width="0.39190348552782495" stroke="lightgray" x1="206.001487173166" y1="351.84051251378276" x2="198.75810595522134" y2="408.97738161323076"></line><line stroke-width="0.39190348552782495" stroke="lightgray" x1="206.001487173166" y1="351.84051251378276" x2="167.04728419441642" y2="408.1532234626772"></line><line stroke-width="1.108470448749476" stroke="lightgray" x1="257.9136459212357" y1="106.95097034809991" x2="248.7111234680209" y2="54.72626905478319"></line><line stroke-width="1.3575934971950538" stroke="lightgray" x1="245.40471656291308" y1="345.18882805418633" x2="194.3776066422929" y2="382.60487403775414"></line><line stroke-width="0.554235224374738" stroke="lightgray" x1="245.40471656291308" y1="345.18882805418633" x2="268.412731454855" y2="378.48681090254513"></line><line stroke-width="0.39190348552782495" stroke="lightgray" x1="245.40471656291308" y1="345.18882805418633" x2="234.24343783495812" y2="383.6198527950851"></line><line stroke-width="2.216940897498952" stroke="lightgray" x1="248.7111234680209" y1="54.72626905478319" x2="241.48317421983282" y2="18.99796479926695"></line><line stroke-width="0.39190348552782495" stroke="lightgray" x1="234.24343783495812" y1="383.6198527950851" x2="268.412731454855" y2="378.48681090254513"></line><line stroke-width="0.9599635679613828" stroke="lightgray" x1="234.24343783495812" y1="383.6198527950851" x2="194.3776066422929" y2="382.60487403775414"></line><line stroke-width="1.9595174276391247" stroke="lightgray" x1="159.79762995974917" y1="364.4616536186321" x2="142.75146402705576" y2="393.0263696203352"></line><line stroke-width="0.554235224374738" stroke="lightgray" x1="159.79762995974917" y1="364.4616536186321" x2="167.04728419441642" y2="408.1532234626772"></line><line stroke-width="0.39190348552782495" stroke="lightgray" x1="159.79762995974917" y1="364.4616536186321" x2="194.3776066422929" y2="382.60487403775414"></line><line stroke-width="1.1757104565834748" stroke="lightgray" x1="167.04728419441642" y1="408.1532234626772" x2="198.75810595522134" y2="408.97738161323076"></line><line stroke-width="1.708267689037144" stroke="lightgray" x1="167.04728419441642" y1="408.1532234626772" x2="169.0504976262494" y2="379.94689099713264"></line><line stroke-width="0.7838069710556499" stroke="lightgray" x1="167.04728419441642" y1="408.1532234626772" x2="142.75146402705576" y2="393.0263696203352"></line><line stroke-width="1.0368791606460257" stroke="lightgray" x1="167.04728419441642" y1="408.1532234626772" x2="194.3776066422929" y2="382.60487403775414"></line><line stroke-width="0.39190348552782495" stroke="lightgray" x1="194.3776066422929" y1="382.60487403775414" x2="142.75146402705576" y2="393.0263696203352"></line><line stroke-width="0.6787967485975269" stroke="lightgray" x1="194.3776066422929" y1="382.60487403775414" x2="169.0504976262494" y2="379.94689099713264"></line><line stroke-width="0.39190348552782495" stroke="lightgray" x1="194.3776066422929" y1="382.60487403775414" x2="198.75810595522134" y2="408.97738161323076"></line><line stroke-width="0.9599635679613828" stroke="lightgray" x1="169.0504976262494" y1="379.94689099713264" x2="198.75810595522134" y2="408.97738161323076"></line></g><g class="nodes"><circle r="6.3192538255638295" fill="rgb(211, 238, 236)" stroke="black" stroke-width="1px" transform="translate(287.6003827242066,209.03188083977108)"></circle><circle r="5.542352243747381" fill="rgb(211, 239, 236)" stroke="black" stroke-width="1px" transform="translate(276.4107710791941,248.10601615820875)"></circle><circle r="5.139766027616782" fill="rgb(226, 244, 245)" stroke="black" stroke-width="1px" transform="translate(270.89914770629105,164.72094102420198)"></circle><circle r="4.147516642584103" fill="rgb(221, 242, 243)" stroke="black" stroke-width="1px" transform="translate(290.6160720872585,182.5284762398032)"></circle><circle r="3.3254113462484276" fill="rgb(202, 235, 230)" stroke="black" stroke-width="1px" transform="translate(319.3470706570148,196.5735407427341)"></circle><circle r="1.9199271359227656" fill="rgb(206, 236, 232)" stroke="black" stroke-width="1px" transform="translate(274.75943170983913,302.46732490459146)"></circle><circle r="6.3192538255638295" fill="rgb(123, 203, 178)" stroke="black" stroke-width="1px" transform="translate(249.9767549809968,287.2725145907804)"></circle><circle r="5.969296050354269" fill="rgb(89, 186, 146)" stroke="black" stroke-width="1px" transform="translate(206.001487173166,351.84051251378276)"></circle><circle r="5.373509866944074" fill="rgb(109, 197, 167)" stroke="black" stroke-width="1px" transform="translate(257.9136459212357,106.95097034809991)"></circle><circle r="3.231718931757889" fill="rgb(85, 184, 142)" stroke="black" stroke-width="1px" transform="translate(245.40471656291308,345.18882805418633)"></circle><circle r="2.7151869943901077" fill="rgb(75, 178, 129)" stroke="black" stroke-width="1px" transform="translate(248.7111234680209,54.72626905478319)"></circle><circle r="2.4786152744535253" fill="rgb(70, 174, 122)" stroke="black" stroke-width="1px" transform="translate(234.24343783495812,383.6198527950851)"></circle><circle r="2.0737583212920514" fill="rgb(66, 172, 118)" stroke="black" stroke-width="1px" transform="translate(159.79762995974917,364.4616536186321)"></circle><circle r="1.7526456685186433" fill="rgb(153, 216, 200)" stroke="black" stroke-width="1px" transform="translate(249.41081677603285,241.83844573744756)"></circle><circle r="1.5676139421112998" fill="rgb(153, 216, 200)" stroke="black" stroke-width="1px" transform="translate(310.89796821375603,237.76446734373675)"></circle><circle r="1.3575934971950538" fill="rgb(153, 216, 200)" stroke="black" stroke-width="1px" transform="translate(355.40350427979416,182.64306336012388)"></circle><circle r="1.3575934971950538" fill="rgb(153, 216, 200)" stroke="black" stroke-width="1px" transform="translate(252.4951468899477,223.7394366454743)"></circle><circle r="0.7838069710556499" fill="rgb(153, 216, 200)" stroke="black" stroke-width="1px" transform="translate(324.4838594134712,213.975833396441)"></circle><circle r="0.7838069710556499" fill="rgb(153, 216, 200)" stroke="black" stroke-width="1px" transform="translate(311.74236534111486,180.9692450337737)"></circle><circle r="0.7838069710556499" fill="rgb(153, 216, 200)" stroke="black" stroke-width="1px" transform="translate(269.9705809281671,129.5616981148814)"></circle><circle r="0.7838069710556499" fill="rgb(153, 216, 200)" stroke="black" stroke-width="1px" transform="translate(306.2224561347158,267.0234769192199)"></circle><circle r="0.7838069710556499" fill="rgb(153, 216, 200)" stroke="black" stroke-width="1px" transform="translate(310.78562700702236,149.8282879952125)"></circle><circle r="3.9966470403028134" fill="rgb(2, 97, 40)" stroke="black" stroke-width="1px" transform="translate(167.04728419441642,408.1532234626772)"></circle><circle r="3.8398542718455313" fill="rgb(29, 134, 67)" stroke="black" stroke-width="1px" transform="translate(194.3776066422929,382.60487403775414)"></circle><circle r="3.8398542718455313" fill="rgb(17, 123, 56)" stroke="black" stroke-width="1px" transform="translate(169.0504976262494,379.94689099713264)"></circle><circle r="3.1352278842225996" fill="rgb(24, 130, 63)" stroke="black" stroke-width="1px" transform="translate(241.48317421983282,18.99796479926695)"></circle><circle r="2.4786152744535253" fill="rgb(12, 117, 52)" stroke="black" stroke-width="1px" transform="translate(142.75146402705576,393.0263696203352)"></circle><circle r="1.9199271359227656" fill="rgb(9, 113, 49)" stroke="black" stroke-width="1px" transform="translate(198.75810595522134,408.97738161323076)"></circle><circle r="1.108470448749476" fill="rgb(34, 140, 73)" stroke="black" stroke-width="1px" transform="translate(268.412731454855,378.48681090254513)"></circle></g></g><g><text x="505" y="495" font-family="sans-serif" text-anchor="end" font-size="10px" fill="red">29 nodes</text><text x="505" y="505" font-family="sans-serif" text-anchor="end" font-size="10px" fill="red">54 edges</text></g></svg>