<svg height="512" width="512" style="border-style: solid; border-width: 1px; cursor: auto;" id="figure"><g transform="translate(60.16190407092199,90.32539964110026) scale(0.5798699266015004)"><g class="links"><line stroke-width="2.281331717417043" stroke="lightgray" x1="144.01636484676715" y1="115.35326958141842" x2="90.77569983065813" y2="117.20768693705486"></line><line stroke-width="1.2194230960221657" stroke="lightgray" x1="144.01636484676715" y1="115.35326958141842" x2="252.47399337968133" y2="90.0899248303254"></line><line stroke-width="1.2194230960221657" stroke="lightgray" x1="144.01636484676715" y1="115.35326958141842" x2="71.25405007506338" y2="101.11423454968019"></line><line stroke-width="2.4388461920443314" stroke="lightgray" x1="144.01636484676715" y1="115.35326958141842" x2="120.13745341329903" y2="160.85822124428768"></line><line stroke-width="1.9280772074221275" stroke="lightgray" x1="144.01636484676715" y1="115.35326958141842" x2="165.01333224173945" y2="262.4736784602257"></line><line stroke-width="0.8622623403327678" stroke="lightgray" x1="144.01636484676715" y1="115.35326958141842" x2="134.92652205823248" y2="208.5154273687062"></line><line stroke-width="2.726712936038816" stroke="lightgray" x1="144.01636484676715" y1="115.35326958141842" x2="167.3262463651519" y2="93.47447891350338"></line><line stroke-width="2.5867870209983033" stroke="lightgray" x1="144.01636484676715" y1="115.35326958141842" x2="226.37601588255026" y2="56.99798047240967"></line><line stroke-width="1.9280772074221275" stroke="lightgray" x1="144.01636484676715" y1="115.35326958141842" x2="147.85115750127645" y2="25.455862319580845"></line><line stroke-width="0.8622623403327678" stroke="lightgray" x1="144.01636484676715" y1="115.35326958141842" x2="87.02136145269965" y2="149.29557680765998"></line><line stroke-width="2.281331717417043" stroke="lightgray" x1="333.8834623384345" y1="676.414724018941" x2="330.19983673928436" y2="712.4573561712618"></line><line stroke-width="0.8622623403327678" stroke="lightgray" x1="333.8834623384345" y1="676.414724018941" x2="311.5072477334836" y2="616.8486225893672"></line><line stroke-width="2.5867870209983033" stroke="lightgray" x1="333.8834623384345" y1="676.414724018941" x2="266.2436365419179" y2="632.582390337667"></line><line stroke-width="3.108931080971375" stroke="lightgray" x1="333.8834623384345" y1="676.414724018941" x2="316.6283193939651" y2="643.7800339826415"></line><line stroke-width="1.2194230960221657" stroke="lightgray" x1="333.8834623384345" y1="676.414724018941" x2="378.1912342769845" y2="688.8213677158474"></line><line stroke-width="2.1121027582333323" stroke="lightgray" x1="330.16217975584277" y1="17.73175195291402" x2="252.47399337968133" y2="90.0899248303254"></line><line stroke-width="3.951382443484682" stroke="lightgray" x1="330.16217975584277" y1="17.73175195291402" x2="274.37805344185904" y2="124.269620813195"></line><line stroke-width="0.8622623403327678" stroke="lightgray" x1="330.16217975584277" y1="17.73175195291402" x2="545.8627329785307" y2="-77.33061568039633"></line><line stroke-width="1.7245246806655357" stroke="lightgray" x1="330.16217975584277" y1="17.73175195291402" x2="226.37601588255026" y2="56.99798047240967"></line><line stroke-width="1.4934821829096006" stroke="lightgray" x1="330.16217975584277" y1="17.73175195291402" x2="261.53588189297096" y2="48.00555318250479"></line><line stroke-width="1.2194230960221657" stroke="lightgray" x1="330.16217975584277" y1="17.73175195291402" x2="474.90124748315293" y2="-84.93370858774932"></line><line stroke-width="1.2194230960221657" stroke="lightgray" x1="330.16217975584277" y1="17.73175195291402" x2="167.3262463651519" y2="93.47447891350338"></line><line stroke-width="1.7245246806655357" stroke="lightgray" x1="549.1609043890364" y1="-34.87854252833129" x2="609.6059021368428" y2="-56.96152713827947"></line><line stroke-width="0.8622623403327678" stroke="lightgray" x1="549.1609043890364" y1="-34.87854252833129" x2="412.3047003235804" y2="12.610323533202855"></line><line stroke-width="1.4934821829096006" stroke="lightgray" x1="549.1609043890364" y1="-34.87854252833129" x2="467.76422562957106" y2="-22.67216489013394"></line><line stroke-width="2.5867870209983033" stroke="lightgray" x1="549.1609043890364" y1="-34.87854252833129" x2="545.8627329785307" y2="-77.33061568039633"></line><line stroke-width="2.726712936038816" stroke="lightgray" x1="549.1609043890364" y1="-34.87854252833129" x2="631.5673171999294" y2="-75.35660421406544"></line><line stroke-width="1.4934821829096006" stroke="lightgray" x1="549.1609043890364" y1="-34.87854252833129" x2="605.2817699268518" y2="-72.18818201154487"></line><line stroke-width="0.8622623403327678" stroke="lightgray" x1="230.9186472566288" y1="488.22407105093305" x2="307.54770951848144" y2="573.5704532517728"></line><line stroke-width="1.4934821829096006" stroke="lightgray" x1="230.9186472566288" y1="488.22407105093305" x2="239.36038076237233" y2="381.04766262626816"></line><line stroke-width="3.4490493613310713" stroke="lightgray" x1="230.9186472566288" y1="488.22407105093305" x2="266.3529691506537" y2="490.5166660604671"></line><line stroke-width="1.7245246806655357" stroke="lightgray" x1="230.9186472566288" y1="488.22407105093305" x2="194.80597786587424" y2="537.9972583605517"></line><line stroke-width="0.8622623403327678" stroke="lightgray" x1="230.9186472566288" y1="488.22407105093305" x2="162.0693404555152" y2="419.40773168963847"></line><line stroke-width="1.2194230960221657" stroke="lightgray" x1="355.98610556168427" y1="652.9616822437679" x2="330.19983673928436" y2="712.4573561712618"></line><line stroke-width="2.1121027582333323" stroke="lightgray" x1="355.98610556168427" y1="652.9616822437679" x2="378.1912342769845" y2="688.8213677158474"></line><line stroke-width="0.8622623403327678" stroke="lightgray" x1="355.98610556168427" y1="652.9616822437679" x2="307.54770951848144" y2="573.5704532517728"></line><line stroke-width="2.4388461920443314" stroke="lightgray" x1="355.98610556168427" y1="652.9616822437679" x2="316.6283193939651" y2="643.7800339826415"></line><line stroke-width="1.9280772074221275" stroke="lightgray" x1="355.98610556168427" y1="652.9616822437679" x2="298.5192810207436" y2="626.3571696616575"></line><line stroke-width="0.8622623403327678" stroke="lightgray" x1="355.98610556168427" y1="652.9616822437679" x2="339.02496409208044" y2="585.5015232689689"></line><line stroke-width="1.2194230960221657" stroke="lightgray" x1="332.55730153003657" y1="600.2972390612504" x2="378.1912342769845" y2="688.8213677158474"></line><line stroke-width="0.8622623403327678" stroke="lightgray" x1="332.55730153003657" y1="600.2972390612504" x2="307.54770951848144" y2="573.5704532517728"></line><line stroke-width="3.5551987061842847" stroke="lightgray" x1="332.55730153003657" y1="600.2972390612504" x2="316.6283193939651" y2="643.7800339826415"></line><line stroke-width="1.2194230960221657" stroke="lightgray" x1="332.55730153003657" y1="600.2972390612504" x2="266.3529691506537" y2="490.5166660604671"></line><line stroke-width="0.8622623403327678" stroke="lightgray" x1="332.55730153003657" y1="600.2972390612504" x2="298.5192810207436" y2="626.3571696616575"></line><line stroke-width="2.1121027582333323" stroke="lightgray" x1="606.0241270744266" y1="-105.68408790179475" x2="545.8627329785307" y2="-77.33061568039633"></line><line stroke-width="1.4934821829096006" stroke="lightgray" x1="606.0241270744266" y1="-105.68408790179475" x2="605.2817699268518" y2="-72.18818201154487"></line><line stroke-width="1.9280772074221275" stroke="lightgray" x1="606.0241270744266" y1="-105.68408790179475" x2="631.5673171999294" y2="-75.35660421406544"></line><line stroke-width="1.4934821829096006" stroke="lightgray" x1="164.2935313512358" y1="310.7219618001674" x2="105.77698014969306" y2="369.10622640936305"></line><line stroke-width="0.8622623403327678" stroke="lightgray" x1="164.2935313512358" y1="310.7219618001674" x2="274.37805344185904" y2="124.269620813195"></line><line stroke-width="1.4934821829096006" stroke="lightgray" x1="164.2935313512358" y1="310.7219618001674" x2="83.80943094733398" y2="395.1397832286227"></line><line stroke-width="1.4934821829096006" stroke="lightgray" x1="164.2935313512358" y1="310.7219618001674" x2="165.01333224173945" y2="262.4736784602257"></line><line stroke-width="1.9280772074221275" stroke="lightgray" x1="164.2935313512358" y1="310.7219618001674" x2="162.0693404555152" y2="419.40773168963847"></line><line stroke-width="0.8622623403327678" stroke="lightgray" x1="164.2935313512358" y1="310.7219618001674" x2="121.48777230579867" y2="328.3990009501845"></line><line stroke-width="1.2194230960221657" stroke="lightgray" x1="203.90565174342026" y1="286.8403046850283" x2="178.84955851606392" y2="172.22642422944074"></line><line stroke-width="1.7245246806655357" stroke="lightgray" x1="203.90565174342026" y1="286.8403046850283" x2="208.39085252295723" y2="211.1205451276208"></line><line stroke-width="2.1121027582333323" stroke="lightgray" x1="203.90565174342026" y1="286.8403046850283" x2="134.92652205823248" y2="208.5154273687062"></line><line stroke-width="2.5867870209983033" stroke="lightgray" x1="203.90565174342026" y1="286.8403046850283" x2="165.01333224173945" y2="262.4736784602257"></line><line stroke-width="1.7245246806655357" stroke="lightgray" x1="203.90565174342026" y1="286.8403046850283" x2="266.3529691506537" y2="490.5166660604671"></line><line stroke-width="2.5867870209983033" stroke="lightgray" x1="96.99682321432238" y1="199.33937734652346" x2="134.92652205823248" y2="208.5154273687062"></line><line stroke-width="1.2194230960221657" stroke="lightgray" x1="96.99682321432238" y1="199.33937734652346" x2="165.01333224173945" y2="262.4736784602257"></line><line stroke-width="0.8622623403327678" stroke="lightgray" x1="96.99682321432238" y1="199.33937734652346" x2="90.77569983065813" y2="117.20768693705486"></line><line stroke-width="0.8622623403327678" stroke="lightgray" x1="96.99682321432238" y1="199.33937734652346" x2="120.13745341329903" y2="160.85822124428768"></line><line stroke-width="0.8622623403327678" stroke="lightgray" x1="95.75462277283327" y1="301.79762966382253" x2="134.92652205823248" y2="208.5154273687062"></line><line stroke-width="1.2194230960221657" stroke="lightgray" x1="95.75462277283327" y1="301.79762966382253" x2="105.77698014969306" y2="369.10622640936305"></line><line stroke-width="1.4934821829096006" stroke="lightgray" x1="95.75462277283327" y1="301.79762966382253" x2="83.80943094733398" y2="395.1397832286227"></line><line stroke-width="2.1121027582333323" stroke="lightgray" x1="95.75462277283327" y1="301.79762966382253" x2="165.01333224173945" y2="262.4736784602257"></line><line stroke-width="0.8622623403327678" stroke="lightgray" x1="95.75462277283327" y1="301.79762966382253" x2="89.54933402798962" y2="349.68907440134285"></line><line stroke-width="2.281331717417043" stroke="lightgray" x1="287.0067491315546" y1="65.05460081080913" x2="274.37805344185904" y2="124.269620813195"></line><line stroke-width="0.8622623403327678" stroke="lightgray" x1="287.0067491315546" y1="65.05460081080913" x2="167.3262463651519" y2="93.47447891350338"></line><line stroke-width="0.8622623403327678" stroke="lightgray" x1="287.0067491315546" y1="65.05460081080913" x2="412.3047003235804" y2="12.610323533202855"></line><line stroke-width="1.4934821829096006" stroke="lightgray" x1="287.0067491315546" y1="65.05460081080913" x2="252.47399337968133" y2="90.0899248303254"></line><line stroke-width="2.1121027582333323" stroke="lightgray" x1="126.62111618366421" y1="362.432466943795" x2="105.77698014969306" y2="369.10622640936305"></line><line stroke-width="1.2194230960221657" stroke="lightgray" x1="126.62111618366421" y1="362.432466943795" x2="162.0693404555152" y2="419.40773168963847"></line><line stroke-width="0.8622623403327678" stroke="lightgray" x1="126.62111618366421" y1="362.432466943795" x2="89.54933402798962" y2="349.68907440134285"></line><line stroke-width="1.7245246806655357" stroke="lightgray" x1="126.62111618366421" y1="362.432466943795" x2="165.01333224173945" y2="262.4736784602257"></line><line stroke-width="0.8622623403327678" stroke="lightgray" x1="126.62111618366421" y1="362.432466943795" x2="83.80943094733398" y2="395.1397832286227"></line><line stroke-width="3.108931080971375" stroke="lightgray" x1="513.4252614865346" y1="-130.11313820333615" x2="545.8627329785307" y2="-77.33061568039633"></line><line stroke-width="1.4934821829096006" stroke="lightgray" x1="513.4252614865346" y1="-130.11313820333615" x2="545.4655052648552" y2="-147.9546526136331"></line><line stroke-width="0.8622623403327678" stroke="lightgray" x1="513.4252614865346" y1="-130.11313820333615" x2="474.90124748315293" y2="-84.93370858774932"></line><line stroke-width="0.8622623403327678" stroke="lightgray" x1="358.3090558765721" y1="712.6613695820686" x2="330.19983673928436" y2="712.4573561712618"></line><line stroke-width="2.4388461920443314" stroke="lightgray" x1="358.3090558765721" y1="712.6613695820686" x2="316.6283193939651" y2="643.7800339826415"></line><line stroke-width="1.2194230960221657" stroke="lightgray" x1="358.3090558765721" y1="712.6613695820686" x2="378.1912342769845" y2="688.8213677158474"></line><line stroke-width="2.5867870209983033" stroke="lightgray" x1="134.3681833469006" y1="176.64219951355716" x2="120.13745341329903" y2="160.85822124428768"></line><line stroke-width="2.4388461920443314" stroke="lightgray" x1="134.3681833469006" y1="176.64219951355716" x2="165.01333224173945" y2="262.4736784602257"></line><line stroke-width="0.8622623403327678" stroke="lightgray" x1="134.3681833469006" y1="176.64219951355716" x2="90.77569983065813" y2="117.20768693705486"></line><line stroke-width="0.8622623403327678" stroke="lightgray" x1="134.3681833469006" y1="176.64219951355716" x2="167.3262463651519" y2="93.47447891350338"></line><line stroke-width="2.5867870209983033" stroke="lightgray" x1="113.7910398563576" y1="144.31886225106282" x2="167.3262463651519" y2="93.47447891350338"></line><line stroke-width="0.8622623403327678" stroke="lightgray" x1="113.7910398563576" y1="144.31886225106282" x2="134.92652205823248" y2="208.5154273687062"></line><line stroke-width="1.4934821829096006" stroke="lightgray" x1="113.7910398563576" y1="144.31886225106282" x2="87.02136145269965" y2="149.29557680765998"></line><line stroke-width="1.2194230960221657" stroke="lightgray" x1="145.30858844820077" y1="145.66385400671345" x2="134.92652205823248" y2="208.5154273687062"></line><line stroke-width="2.4388461920443314" stroke="lightgray" x1="145.30858844820077" y1="145.66385400671345" x2="167.3262463651519" y2="93.47447891350338"></line><line stroke-width="1.2194230960221657" stroke="lightgray" x1="155.17628682824886" y1="146.43649641278736" x2="134.92652205823248" y2="208.5154273687062"></line><line stroke-width="1.9280772074221275" stroke="lightgray" x1="155.17628682824886" y1="146.43649641278736" x2="167.3262463651519" y2="93.47447891350338"></line><line stroke-width="1.4934821829096006" stroke="lightgray" x1="246.55285413173794" y1="671.4430628211961" x2="266.2436365419179" y2="632.582390337667"></line><line stroke-width="2.986964365819201" stroke="lightgray" x1="574.5419025458094" y1="-124.65148526806318" x2="545.8627329785307" y2="-77.33061568039633"></line><line stroke-width="0.8622623403327678" stroke="lightgray" x1="574.5419025458094" y1="-124.65148526806318" x2="545.4655052648552" y2="-147.9546526136331"></line><line stroke-width="0.8622623403327678" stroke="lightgray" x1="223.6885052732671" y1="446.3354632324329" x2="244.50294454228586" y2="402.6197200788763"></line><line stroke-width="2.1121027582333323" stroke="lightgray" x1="223.6885052732671" y1="446.3354632324329" x2="266.3529691506537" y2="490.5166660604671"></line><line stroke-width="0.8622623403327678" stroke="lightgray" x1="223.6885052732671" y1="446.3354632324329" x2="162.0693404555152" y2="419.40773168963847"></line><line stroke-width="0.8622623403327678" stroke="lightgray" x1="110.97301588989647" y1="67.50311227272697" x2="147.85115750127645" y2="25.455862319580845"></line><line stroke-width="2.281331717417043" stroke="lightgray" x1="110.97301588989647" y1="67.50311227272697" x2="167.3262463651519" y2="93.47447891350338"></line><line stroke-width="1.4934821829096006" stroke="lightgray" x1="110.97301588989647" y1="67.50311227272697" x2="128.88150616853417" y2="40.813479723328975"></line><line stroke-width="0.8622623403327678" stroke="lightgray" x1="110.97301588989647" y1="67.50311227272697" x2="120.13745341329903" y2="160.85822124428768"></line><line stroke-width="1.7245246806655357" stroke="lightgray" x1="133.91228184027213" y1="307.9547991982849" x2="134.92652205823248" y2="208.5154273687062"></line><line stroke-width="2.5867870209983033" stroke="lightgray" x1="133.91228184027213" y1="307.9547991982849" x2="165.01333224173945" y2="262.4736784602257"></line><line stroke-width="0.8622623403327678" stroke="lightgray" x1="133.91228184027213" y1="307.9547991982849" x2="162.0693404555152" y2="419.40773168963847"></line><line stroke-width="1.2194230960221657" stroke="lightgray" x1="133.91228184027213" y1="307.9547991982849" x2="121.48777230579867" y2="328.3990009501845"></line><line stroke-width="0.8622623403327678" stroke="lightgray" x1="133.91228184027213" y1="307.9547991982849" x2="89.54933402798962" y2="349.68907440134285"></line><line stroke-width="2.5867870209983033" stroke="lightgray" x1="358.7083016974939" y1="631.3730483553045" x2="316.6283193939651" y2="643.7800339826415"></line><line stroke-width="0.8622623403327678" stroke="lightgray" x1="358.7083016974939" y1="631.3730483553045" x2="311.5072477334836" y2="616.8486225893672"></line><line stroke-width="0.8622623403327678" stroke="lightgray" x1="358.7083016974939" y1="631.3730483553045" x2="339.02496409208044" y2="585.5015232689689"></line><line stroke-width="3.2262902550430868" stroke="lightgray" x1="135.11186787145422" y1="447.7656858235465" x2="162.0693404555152" y2="419.40773168963847"></line><line stroke-width="1.4934821829096006" stroke="lightgray" x1="104.74072144003321" y1="97.1408839596026" x2="84.00676734410182" y2="168.98378717922807"></line><line stroke-width="1.4934821829096006" stroke="lightgray" x1="104.74072144003321" y1="97.1408839596026" x2="167.3262463651519" y2="93.47447891350338"></line><line stroke-width="2.4388461920443314" stroke="lightgray" x1="136.71805049256585" y1="348.849964528085" x2="105.77698014969306" y2="369.10622640936305"></line><line stroke-width="1.9280772074221275" stroke="lightgray" x1="136.71805049256585" y1="348.849964528085" x2="162.0693404555152" y2="419.40773168963847"></line><line stroke-width="1.4934821829096006" stroke="lightgray" x1="136.71805049256585" y1="348.849964528085" x2="89.54933402798962" y2="349.68907440134285"></line><line stroke-width="1.2194230960221657" stroke="lightgray" x1="136.71805049256585" y1="348.849964528085" x2="165.01333224173945" y2="262.4736784602257"></line><line stroke-width="1.4934821829096006" stroke="lightgray" x1="247.1174107838028" y1="605.3577264213574" x2="194.80597786587424" y2="537.9972583605517"></line><line stroke-width="1.2194230960221657" stroke="lightgray" x1="247.1174107838028" y1="605.3577264213574" x2="316.6283193939651" y2="643.7800339826415"></line><line stroke-width="0.8622623403327678" stroke="lightgray" x1="131.45517388800033" y1="82.63576425542595" x2="178.84955851606392" y2="172.22642422944074"></line><line stroke-width="1.7245246806655357" stroke="lightgray" x1="131.45517388800033" y1="82.63576425542595" x2="90.77569983065813" y2="117.20768693705486"></line><line stroke-width="2.281331717417043" stroke="lightgray" x1="131.45517388800033" y1="82.63576425542595" x2="167.3262463651519" y2="93.47447891350338"></line><line stroke-width="0.8622623403327678" stroke="lightgray" x1="131.45517388800033" y1="82.63576425542595" x2="147.85115750127645" y2="25.455862319580845"></line><line stroke-width="2.1121027582333323" stroke="lightgray" x1="168.18557738942417" y1="481.9436650383744" x2="194.80597786587424" y2="537.9972583605517"></line><line stroke-width="2.281331717417043" stroke="lightgray" x1="168.18557738942417" y1="481.9436650383744" x2="162.0693404555152" y2="419.40773168963847"></line><line stroke-width="0.8622623403327678" stroke="lightgray" x1="250.89268212319084" y1="310.3740384879399" x2="239.36038076237233" y2="381.04766262626816"></line><line stroke-width="0.8622623403327678" stroke="lightgray" x1="250.89268212319084" y1="310.3740384879399" x2="274.37805344185904" y2="124.269620813195"></line><line stroke-width="1.9280772074221275" stroke="lightgray" x1="250.89268212319084" y1="310.3740384879399" x2="266.3529691506537" y2="490.5166660604671"></line><line stroke-width="0.8622623403327678" stroke="lightgray" x1="250.89268212319084" y1="310.3740384879399" x2="165.01333224173945" y2="262.4736784602257"></line><line stroke-width="1.4934821829096006" stroke="lightgray" x1="79.54341994120514" y1="76.89892616021669" x2="90.77569983065813" y2="117.20768693705486"></line><line stroke-width="0.8622623403327678" stroke="lightgray" x1="79.54341994120514" y1="76.89892616021669" x2="71.25405007506338" y2="101.11423454968019"></line><line stroke-width="1.9280772074221275" stroke="lightgray" x1="79.54341994120514" y1="76.89892616021669" x2="167.3262463651519" y2="93.47447891350338"></line><line stroke-width="0.8622623403327678" stroke="lightgray" x1="79.54341994120514" y1="76.89892616021669" x2="87.02136145269965" y2="149.29557680765998"></line><line stroke-width="0.8622623403327678" stroke="lightgray" x1="111.6182371449941" y1="224.81281397474282" x2="134.92652205823248" y2="208.5154273687062"></line><line stroke-width="1.2194230960221657" stroke="lightgray" x1="111.6182371449941" y1="224.81281397474282" x2="120.13745341329903" y2="160.85822124428768"></line><line stroke-width="1.9280772074221275" stroke="lightgray" x1="111.6182371449941" y1="224.81281397474282" x2="165.01333224173945" y2="262.4736784602257"></line><line stroke-width="1.7245246806655357" stroke="lightgray" x1="311.14311283181166" y1="63.18283130716642" x2="252.47399337968133" y2="90.0899248303254"></line><line stroke-width="0.8622623403327678" stroke="lightgray" x1="311.14311283181166" y1="63.18283130716642" x2="412.3047003235804" y2="12.610323533202855"></line><line stroke-width="1.7245246806655357" stroke="lightgray" x1="311.14311283181166" y1="63.18283130716642" x2="274.37805344185904" y2="124.269620813195"></line><line stroke-width="0.8622623403327678" stroke="lightgray" x1="311.14311283181166" y1="63.18283130716642" x2="226.37601588255026" y2="56.99798047240967"></line><line stroke-width="1.9280772074221275" stroke="lightgray" x1="198.43035471106737" y1="13.812900254977775" x2="147.85115750127645" y2="25.455862319580845"></line><line stroke-width="2.1121027582333323" stroke="lightgray" x1="198.43035471106737" y1="13.812900254977775" x2="226.37601588255026" y2="56.99798047240967"></line><line stroke-width="1.9280772074221275" stroke="lightgray" x1="39.99583949649013" y1="396.5929280115392" x2="83.80943094733398" y2="395.1397832286227"></line><line stroke-width="1.2194230960221657" stroke="lightgray" x1="277.10992278600537" y1="431.45793566650826" x2="244.50294454228586" y2="402.6197200788763"></line><line stroke-width="0.8622623403327678" stroke="lightgray" x1="277.10992278600537" y1="431.45793566650826" x2="239.36038076237233" y2="381.04766262626816"></line><line stroke-width="1.2194230960221657" stroke="lightgray" x1="277.10992278600537" y1="431.45793566650826" x2="266.3529691506537" y2="490.5166660604671"></line><line stroke-width="0.8622623403327678" stroke="lightgray" x1="591.5373963336293" y1="-87.09087215657406" x2="609.6059021368428" y2="-56.96152713827947"></line><line stroke-width="1.2194230960221657" stroke="lightgray" x1="591.5373963336293" y1="-87.09087215657406" x2="545.8627329785307" y2="-77.33061568039633"></line><line stroke-width="1.2194230960221657" stroke="lightgray" x1="302.76639382658897" y1="677.9626824236022" x2="298.5192810207436" y2="626.3571696616575"></line><line stroke-width="1.2194230960221657" stroke="lightgray" x1="302.76639382658897" y1="677.9626824236022" x2="316.6283193939651" y2="643.7800339826415"></line><line stroke-width="2.5867870209983033" stroke="lightgray" x1="185.39290356170133" y1="1.4686651820050765" x2="147.85115750127645" y2="25.455862319580845"></line><line stroke-width="1.4934821829096006" stroke="lightgray" x1="185.39290356170133" y1="1.4686651820050765" x2="226.37601588255026" y2="56.99798047240967"></line><line stroke-width="1.4934821829096006" stroke="lightgray" x1="134.44268926922624" y1="148.52450673013675" x2="134.92652205823248" y2="208.5154273687062"></line><line stroke-width="1.7245246806655357" stroke="lightgray" x1="134.44268926922624" y1="148.52450673013675" x2="167.3262463651519" y2="93.47447891350338"></line><line stroke-width="0.8622623403327678" stroke="lightgray" x1="279.54725057493175" y1="450.69504306532014" x2="244.50294454228586" y2="402.6197200788763"></line><line stroke-width="1.2194230960221657" stroke="lightgray" x1="279.54725057493175" y1="450.69504306532014" x2="266.3529691506537" y2="490.5166660604671"></line><line stroke-width="1.7245246806655357" stroke="lightgray" x1="226.98986933319534" y1="98.02112561108896" x2="252.47399337968133" y2="90.0899248303254"></line><line stroke-width="0.8622623403327678" stroke="lightgray" x1="226.98986933319534" y1="98.02112561108896" x2="274.37805344185904" y2="124.269620813195"></line><line stroke-width="1.7245246806655357" stroke="lightgray" x1="226.98986933319534" y1="98.02112561108896" x2="167.3262463651519" y2="93.47447891350338"></line><line stroke-width="1.2194230960221657" stroke="lightgray" x1="212.80424187170416" y1="316.53465917912155" x2="208.39085252295723" y2="211.1205451276208"></line><line stroke-width="1.2194230960221657" stroke="lightgray" x1="212.80424187170416" y1="316.53465917912155" x2="239.36038076237233" y2="381.04766262626816"></line><line stroke-width="1.7245246806655357" stroke="lightgray" x1="212.80424187170416" y1="316.53465917912155" x2="266.3529691506537" y2="490.5166660604671"></line><line stroke-width="1.7245246806655357" stroke="lightgray" x1="212.80424187170416" y1="316.53465917912155" x2="165.01333224173945" y2="262.4736784602257"></line><line stroke-width="0.8622623403327678" stroke="lightgray" x1="212.80424187170416" y1="316.53465917912155" x2="134.92652205823248" y2="208.5154273687062"></line><line stroke-width="2.5867870209983033" stroke="lightgray" x1="524.996137425477" y1="-124.60911262319911" x2="545.8627329785307" y2="-77.33061568039633"></line><line stroke-width="0.8622623403327678" stroke="lightgray" x1="524.996137425477" y1="-124.60911262319911" x2="474.90124748315293" y2="-84.93370858774932"></line><line stroke-width="0.8622623403327678" stroke="lightgray" x1="524.996137425477" y1="-124.60911262319911" x2="545.4655052648552" y2="-147.9546526136331"></line><line stroke-width="1.4934821829096006" stroke="lightgray" x1="166.65490709545097" y1="117.6570502197425" x2="90.77569983065813" y2="117.20768693705486"></line><line stroke-width="1.4934821829096006" stroke="lightgray" x1="166.65490709545097" y1="117.6570502197425" x2="147.85115750127645" y2="25.455862319580845"></line><line stroke-width="0.8622623403327678" stroke="lightgray" x1="166.65490709545097" y1="117.6570502197425" x2="165.01333224173945" y2="262.4736784602257"></line><line stroke-width="0.8622623403327678" stroke="lightgray" x1="166.65490709545097" y1="117.6570502197425" x2="226.37601588255026" y2="56.99798047240967"></line><line stroke-width="0.8622623403327678" stroke="lightgray" x1="304.7368388010044" y1="703.846923427039" x2="330.19983673928436" y2="712.4573561712618"></line><line stroke-width="2.1121027582333323" stroke="lightgray" x1="304.7368388010044" y1="703.846923427039" x2="316.6283193939651" y2="643.7800339826415"></line><line stroke-width="0.8622623403327678" stroke="lightgray" x1="149.01933400558084" y1="160.82467830521827" x2="178.84955851606392" y2="172.22642422944074"></line><line stroke-width="1.4934821829096006" stroke="lightgray" x1="149.01933400558084" y1="160.82467830521827" x2="134.92652205823248" y2="208.5154273687062"></line><line stroke-width="2.281331717417043" stroke="lightgray" x1="149.01933400558084" y1="160.82467830521827" x2="167.3262463651519" y2="93.47447891350338"></line><line stroke-width="0.8622623403327678" stroke="lightgray" x1="149.01933400558084" y1="160.82467830521827" x2="120.13745341329903" y2="160.85822124428768"></line><line stroke-width="1.4934821829096006" stroke="lightgray" x1="394.9464148708051" y1="0.5901106958225184" x2="412.3047003235804" y2="12.610323533202855"></line><line stroke-width="1.4934821829096006" stroke="lightgray" x1="394.9464148708051" y1="0.5901106958225184" x2="274.37805344185904" y2="124.269620813195"></line><line stroke-width="0.8622623403327678" stroke="lightgray" x1="394.9464148708051" y1="0.5901106958225184" x2="467.76422562957106" y2="-22.67216489013394"></line><line stroke-width="0.8622623403327678" stroke="lightgray" x1="394.9464148708051" y1="0.5901106958225184" x2="474.90124748315293" y2="-84.93370858774932"></line><line stroke-width="1.4934821829096006" stroke="lightgray" x1="203.86009550270435" y1="486.7011957511002" x2="194.80597786587424" y2="537.9972583605517"></line><line stroke-width="2.1121027582333323" stroke="lightgray" x1="203.86009550270435" y1="486.7011957511002" x2="266.3529691506537" y2="490.5166660604671"></line><line stroke-width="0.8622623403327678" stroke="lightgray" x1="203.86009550270435" y1="486.7011957511002" x2="162.0693404555152" y2="419.40773168963847"></line><line stroke-width="0.8622623403327678" stroke="lightgray" x1="381.4131667588934" y1="46.52495757788812" x2="412.3047003235804" y2="12.610323533202855"></line><line stroke-width="0.8622623403327678" stroke="lightgray" x1="381.4131667588934" y1="46.52495757788812" x2="467.76422562957106" y2="-22.67216489013394"></line><line stroke-width="0.8622623403327678" stroke="lightgray" x1="381.4131667588934" y1="46.52495757788812" x2="274.37805344185904" y2="124.269620813195"></line><line stroke-width="0.8622623403327678" stroke="lightgray" x1="89.14721446783697" y1="327.22276152254415" x2="83.80943094733398" y2="395.1397832286227"></line><line stroke-width="1.4934821829096006" stroke="lightgray" x1="89.14721446783697" y1="327.22276152254415" x2="165.01333224173945" y2="262.4736784602257"></line><line stroke-width="1.2194230960221657" stroke="lightgray" x1="89.14721446783697" y1="327.22276152254415" x2="105.77698014969306" y2="369.10622640936305"></line><line stroke-width="0.8622623403327678" stroke="lightgray" x1="89.14721446783697" y1="327.22276152254415" x2="89.54933402798962" y2="349.68907440134285"></line><line stroke-width="1.4934821829096006" stroke="lightgray" x1="262.70026099163624" y1="581.1157877470306" x2="298.5192810207436" y2="626.3571696616575"></line><line stroke-width="0.8622623403327678" stroke="lightgray" x1="262.70026099163624" y1="581.1157877470306" x2="194.80597786587424" y2="537.9972583605517"></line><line stroke-width="0.8622623403327678" stroke="lightgray" x1="262.70026099163624" y1="581.1157877470306" x2="266.3529691506537" y2="490.5166660604671"></line><line stroke-width="1.4934821829096006" stroke="lightgray" x1="262.70026099163624" y1="581.1157877470306" x2="316.6283193939651" y2="643.7800339826415"></line><line stroke-width="1.9280772074221275" stroke="lightgray" x1="514.708019896293" y1="-89.0205367192837" x2="545.8627329785307" y2="-77.33061568039633"></line><line stroke-width="1.2194230960221657" stroke="lightgray" x1="514.708019896293" y1="-89.0205367192837" x2="474.90124748315293" y2="-84.93370858774932"></line><line stroke-width="1.2194230960221657" stroke="lightgray" x1="305.5907922939716" y1="48.84166748620419" x2="252.47399337968133" y2="90.0899248303254"></line><line stroke-width="0.8622623403327678" stroke="lightgray" x1="305.5907922939716" y1="48.84166748620419" x2="226.37601588255026" y2="56.99798047240967"></line><line stroke-width="2.4388461920443314" stroke="lightgray" x1="305.5907922939716" y1="48.84166748620419" x2="274.37805344185904" y2="124.269620813195"></line><line stroke-width="1.4934821829096006" stroke="lightgray" x1="305.5907922939716" y1="48.84166748620419" x2="412.3047003235804" y2="12.610323533202855"></line><line stroke-width="0.8622623403327678" stroke="lightgray" x1="305.5907922939716" y1="48.84166748620419" x2="261.53588189297096" y2="48.00555318250479"></line><line stroke-width="0.8622623403327678" stroke="lightgray" x1="211.87417431268182" y1="460.9633840337526" x2="266.3529691506537" y2="490.5166660604671"></line><line stroke-width="1.2194230960221657" stroke="lightgray" x1="211.87417431268182" y1="460.9633840337526" x2="162.0693404555152" y2="419.40773168963847"></line><line stroke-width="0.8622623403327678" stroke="lightgray" x1="201.9601398694877" y1="323.15013325779364" x2="239.36038076237233" y2="381.04766262626816"></line><line stroke-width="1.9280772074221275" stroke="lightgray" x1="201.9601398694877" y1="323.15013325779364" x2="165.01333224173945" y2="262.4736784602257"></line><line stroke-width="1.2194230960221657" stroke="lightgray" x1="281.75370190623863" y1="575.4923279452553" x2="311.5072477334836" y2="616.8486225893672"></line><line stroke-width="0.8622623403327678" stroke="lightgray" x1="281.75370190623863" y1="575.4923279452553" x2="266.3529691506537" y2="490.5166660604671"></line><line stroke-width="1.7245246806655357" stroke="lightgray" x1="281.75370190623863" y1="575.4923279452553" x2="266.2436365419179" y2="632.582390337667"></line><line stroke-width="2.281331717417043" stroke="lightgray" x1="156.799692822904" y1="52.48379599143565" x2="167.3262463651519" y2="93.47447891350338"></line><line stroke-width="0.8622623403327678" stroke="lightgray" x1="206.32698374070986" y1="159.96718514546464" x2="165.01333224173945" y2="262.4736784602257"></line><line stroke-width="0.8622623403327678" stroke="lightgray" x1="206.32698374070986" y1="159.96718514546464" x2="226.37601588255026" y2="56.99798047240967"></line><line stroke-width="1.7245246806655357" stroke="lightgray" x1="120.2134952402975" y1="106.99158782557633" x2="167.3262463651519" y2="93.47447891350338"></line><line stroke-width="1.4934821829096006" stroke="lightgray" x1="120.2134952402975" y1="106.99158782557633" x2="120.13745341329903" y2="160.85822124428768"></line><line stroke-width="1.4934821829096006" stroke="lightgray" x1="187.18938670213058" y1="14.839288151556357" x2="147.85115750127645" y2="25.455862319580845"></line><line stroke-width="1.7245246806655357" stroke="lightgray" x1="187.18938670213058" y1="14.839288151556357" x2="226.37601588255026" y2="56.99798047240967"></line><line stroke-width="0.8622623403327678" stroke="lightgray" x1="144.20842303366152" y1="57.712572603025436" x2="167.3262463651519" y2="93.47447891350338"></line><line stroke-width="1.2194230960221657" stroke="lightgray" x1="348.8056526835064" y1="690.8684808019556" x2="378.1912342769845" y2="688.8213677158474"></line><line stroke-width="1.2194230960221657" stroke="lightgray" x1="348.8056526835064" y1="690.8684808019556" x2="316.6283193939651" y2="643.7800339826415"></line><line stroke-width="0.8622623403327678" stroke="lightgray" x1="623.611939315709" y1="-101.92369274986473" x2="609.6059021368428" y2="-56.96152713827947"></line><line stroke-width="1.2194230960221657" stroke="lightgray" x1="623.611939315709" y1="-101.92369274986473" x2="545.8627329785307" y2="-77.33061568039633"></line><line stroke-width="1.2194230960221657" stroke="lightgray" x1="623.611939315709" y1="-101.92369274986473" x2="631.5673171999294" y2="-75.35660421406544"></line><line stroke-width="0.8622623403327678" stroke="lightgray" x1="623.611939315709" y1="-101.92369274986473" x2="605.2817699268518" y2="-72.18818201154487"></line><line stroke-width="0.8622623403327678" stroke="lightgray" x1="151.63265331597069" y1="350.8665346668848" x2="105.77698014969306" y2="369.10622640936305"></line><line stroke-width="1.4934821829096006" stroke="lightgray" x1="151.63265331597069" y1="350.8665346668848" x2="162.0693404555152" y2="419.40773168963847"></line><line stroke-width="0.8622623403327678" stroke="lightgray" x1="151.63265331597069" y1="350.8665346668848" x2="121.48777230579867" y2="328.3990009501845"></line><line stroke-width="0.8622623403327678" stroke="lightgray" x1="151.63265331597069" y1="350.8665346668848" x2="165.01333224173945" y2="262.4736784602257"></line><line stroke-width="1.2194230960221657" stroke="lightgray" x1="291.5189190272925" y1="538.7937114042335" x2="307.54770951848144" y2="573.5704532517728"></line><line stroke-width="1.4934821829096006" stroke="lightgray" x1="291.5189190272925" y1="538.7937114042335" x2="266.3529691506537" y2="490.5166660604671"></line><line stroke-width="1.2194230960221657" stroke="lightgray" x1="291.5189190272925" y1="538.7937114042335" x2="244.32947313748903" y2="542.852604392815"></line><line stroke-width="0.8622623403327678" stroke="lightgray" x1="210.25619463921814" y1="70.86813094710692" x2="167.3262463651519" y2="93.47447891350338"></line><line stroke-width="0.8622623403327678" stroke="lightgray" x1="210.25619463921814" y1="70.86813094710692" x2="252.47399337968133" y2="90.0899248303254"></line><line stroke-width="1.7245246806655357" stroke="lightgray" x1="488.7133970248077" y1="-42.897280615720106" x2="467.76422562957106" y2="-22.67216489013394"></line><line stroke-width="0.8622623403327678" stroke="lightgray" x1="488.7133970248077" y1="-42.897280615720106" x2="412.3047003235804" y2="12.610323533202855"></line><line stroke-width="1.2194230960221657" stroke="lightgray" x1="488.7133970248077" y1="-42.897280615720106" x2="545.8627329785307" y2="-77.33061568039633"></line><line stroke-width="0.8622623403327678" stroke="lightgray" x1="488.7133970248077" y1="-42.897280615720106" x2="474.90124748315293" y2="-84.93370858774932"></line><line stroke-width="1.4934821829096006" stroke="lightgray" x1="54.713417730560906" y1="427.63478222888034" x2="83.80943094733398" y2="395.1397832286227"></line><line stroke-width="1.7245246806655357" stroke="lightgray" x1="126.38691795885669" y1="436.78657789482133" x2="162.0693404555152" y2="419.40773168963847"></line><line stroke-width="1.2194230960221657" stroke="lightgray" x1="45.79273839090875" y1="419.1597702004332" x2="83.80943094733398" y2="395.1397832286227"></line><line stroke-width="0.8622623403327678" stroke="lightgray" x1="263.335269558263" y1="437.32270327159443" x2="244.50294454228586" y2="402.6197200788763"></line><line stroke-width="0.8622623403327678" stroke="lightgray" x1="263.335269558263" y1="437.32270327159443" x2="239.36038076237233" y2="381.04766262626816"></line><line stroke-width="1.4934821829096006" stroke="lightgray" x1="263.335269558263" y1="437.32270327159443" x2="266.3529691506537" y2="490.5166660604671"></line><line stroke-width="1.7245246806655357" stroke="lightgray" x1="282.43195933699064" y1="524.7402768233513" x2="266.3529691506537" y2="490.5166660604671"></line><line stroke-width="1.2194230960221657" stroke="lightgray" x1="282.43195933699064" y1="524.7402768233513" x2="244.32947313748903" y2="542.852604392815"></line><line stroke-width="0.8622623403327678" stroke="lightgray" x1="188.0835505434884" y1="503.19572293885216" x2="194.80597786587424" y2="537.9972583605517"></line><line stroke-width="0.8622623403327678" stroke="lightgray" x1="188.0835505434884" y1="503.19572293885216" x2="162.0693404555152" y2="419.40773168963847"></line><line stroke-width="0.8622623403327678" stroke="lightgray" x1="188.0835505434884" y1="503.19572293885216" x2="244.32947313748903" y2="542.852604392815"></line><line stroke-width="1.9280772074221275" stroke="lightgray" x1="235.86033837038838" y1="74.05129158688523" x2="252.47399337968133" y2="90.0899248303254"></line><line stroke-width="0.8622623403327678" stroke="lightgray" x1="235.86033837038838" y1="74.05129158688523" x2="274.37805344185904" y2="124.269620813195"></line><line stroke-width="0.8622623403327678" stroke="lightgray" x1="235.86033837038838" y1="74.05129158688523" x2="261.53588189297096" y2="48.00555318250479"></line><line stroke-width="0.8622623403327678" stroke="lightgray" x1="235.86033837038838" y1="74.05129158688523" x2="167.3262463651519" y2="93.47447891350338"></line><line stroke-width="1.2194230960221657" stroke="lightgray" x1="293.9758743779328" y1="658.7391727249928" x2="311.5072477334836" y2="616.8486225893672"></line><line stroke-width="1.9280772074221275" stroke="lightgray" x1="293.9758743779328" y1="658.7391727249928" x2="266.2436365419179" y2="632.582390337667"></line><line stroke-width="0.8622623403327678" stroke="lightgray" x1="168.26621983530313" y1="491.1464321587391" x2="162.0693404555152" y2="419.40773168963847"></line><line stroke-width="1.2194230960221657" stroke="lightgray" x1="168.26621983530313" y1="491.1464321587391" x2="194.80597786587424" y2="537.9972583605517"></line><line stroke-width="0.8622623403327678" stroke="lightgray" x1="175.17121139740453" y1="223.62746290718633" x2="178.84955851606392" y2="172.22642422944074"></line><line stroke-width="0.8622623403327678" stroke="lightgray" x1="175.17121139740453" y1="223.62746290718633" x2="208.39085252295723" y2="211.1205451276208"></line><line stroke-width="1.2194230960221657" stroke="lightgray" x1="175.17121139740453" y1="223.62746290718633" x2="134.92652205823248" y2="208.5154273687062"></line><line stroke-width="0.8622623403327678" stroke="lightgray" x1="175.17121139740453" y1="223.62746290718633" x2="165.01333224173945" y2="262.4736784602257"></line><line stroke-width="0.8622623403327678" stroke="lightgray" x1="136.73158431568837" y1="465.8689989799644" x2="194.80597786587424" y2="537.9972583605517"></line><line stroke-width="0.8622623403327678" stroke="lightgray" x1="136.73158431568837" y1="465.8689989799644" x2="105.77698014969306" y2="369.10622640936305"></line><line stroke-width="1.9280772074221275" stroke="lightgray" x1="509.66517696425063" y1="-100.22492392536925" x2="545.8627329785307" y2="-77.33061568039633"></line><line stroke-width="0.8622623403327678" stroke="lightgray" x1="509.66517696425063" y1="-100.22492392536925" x2="474.90124748315293" y2="-84.93370858774932"></line><line stroke-width="0.8622623403327678" stroke="lightgray" x1="281.45265041578176" y1="664.3714245297058" x2="311.5072477334836" y2="616.8486225893672"></line><line stroke-width="1.4934821829096006" stroke="lightgray" x1="281.45265041578176" y1="664.3714245297058" x2="266.2436365419179" y2="632.582390337667"></line><line stroke-width="0.8622623403327678" stroke="lightgray" x1="117.76378608101919" y1="133.4581288768091" x2="178.84955851606392" y2="172.22642422944074"></line><line stroke-width="0.8622623403327678" stroke="lightgray" x1="117.76378608101919" y1="133.4581288768091" x2="71.25405007506338" y2="101.11423454968019"></line><line stroke-width="0.8622623403327678" stroke="lightgray" x1="117.76378608101919" y1="133.4581288768091" x2="134.92652205823248" y2="208.5154273687062"></line><line stroke-width="1.4934821829096006" stroke="lightgray" x1="117.76378608101919" y1="133.4581288768091" x2="167.3262463651519" y2="93.47447891350338"></line><line stroke-width="0.8622623403327678" stroke="lightgray" x1="159.07375867684016" y1="212.16513970310893" x2="178.84955851606392" y2="172.22642422944074"></line><line stroke-width="0.8622623403327678" stroke="lightgray" x1="159.07375867684016" y1="212.16513970310893" x2="208.39085252295723" y2="211.1205451276208"></line><line stroke-width="1.7245246806655357" stroke="lightgray" x1="159.07375867684016" y1="212.16513970310893" x2="134.92652205823248" y2="208.5154273687062"></line><line stroke-width="0.8622623403327678" stroke="lightgray" x1="159.07375867684016" y1="212.16513970310893" x2="120.13745341329903" y2="160.85822124428768"></line><line stroke-width="0.8622623403327678" stroke="lightgray" x1="159.07375867684016" y1="212.16513970310893" x2="165.01333224173945" y2="262.4736784602257"></line><line stroke-width="1.7245246806655357" stroke="lightgray" x1="128.74231067191423" y1="266.86013780227063" x2="165.01333224173945" y2="262.4736784602257"></line><line stroke-width="1.2194230960221657" stroke="lightgray" x1="156.28539857161832" y1="492.49107429438277" x2="162.0693404555152" y2="419.40773168963847"></line><line stroke-width="1.2194230960221657" stroke="lightgray" x1="156.28539857161832" y1="492.49107429438277" x2="194.80597786587424" y2="537.9972583605517"></line><line stroke-width="1.7245246806655357" stroke="lightgray" x1="197.56800444824628" y1="2.077807666276714" x2="147.85115750127645" y2="25.455862319580845"></line><line stroke-width="0.8622623403327678" stroke="lightgray" x1="197.56800444824628" y1="2.077807666276714" x2="226.37601588255026" y2="56.99798047240967"></line><line stroke-width="1.9280772074221275" stroke="lightgray" x1="536.6358985387006" y1="-116.67639143351379" x2="545.8627329785307" y2="-77.33061568039633"></line><line stroke-width="0.8622623403327678" stroke="lightgray" x1="536.6358985387006" y1="-116.67639143351379" x2="474.90124748315293" y2="-84.93370858774932"></line><line stroke-width="0.8622623403327678" stroke="lightgray" x1="536.6358985387006" y1="-116.67639143351379" x2="545.4655052648552" y2="-147.9546526136331"></line><line stroke-width="1.2194230960221657" stroke="lightgray" x1="466.6193355620562" y1="-56.39173471880136" x2="467.76422562957106" y2="-22.67216489013394"></line><line stroke-width="1.7245246806655357" stroke="lightgray" x1="323.51688724994693" y1="685.2614047739911" x2="316.6283193939651" y2="643.7800339826415"></line><line stroke-width="1.9280772074221275" stroke="lightgray" x1="509.238699539773" y1="-111.78229827315721" x2="545.8627329785307" y2="-77.33061568039633"></line><line stroke-width="0.8622623403327678" stroke="lightgray" x1="509.238699539773" y1="-111.78229827315721" x2="474.90124748315293" y2="-84.93370858774932"></line><line stroke-width="1.2194230960221657" stroke="lightgray" x1="163.9690369854525" y1="151.24774907770114" x2="134.92652205823248" y2="208.5154273687062"></line><line stroke-width="1.4934821829096006" stroke="lightgray" x1="163.9690369854525" y1="151.24774907770114" x2="167.3262463651519" y2="93.47447891350338"></line><line stroke-width="1.9280772074221275" stroke="lightgray" x1="270.8154102448565" y1="529.0723185960084" x2="266.3529691506537" y2="490.5166660604671"></line><line stroke-width="1.2194230960221657" stroke="lightgray" x1="270.8154102448565" y1="529.0723185960084" x2="244.32947313748903" y2="542.852604392815"></line><line stroke-width="0.8622623403327678" stroke="lightgray" x1="195.4529392127964" y1="175.33259020717273" x2="178.84955851606392" y2="172.22642422944074"></line><line stroke-width="0.8622623403327678" stroke="lightgray" x1="195.4529392127964" y1="175.33259020717273" x2="208.39085252295723" y2="211.1205451276208"></line><line stroke-width="1.2194230960221657" stroke="lightgray" x1="195.4529392127964" y1="175.33259020717273" x2="134.92652205823248" y2="208.5154273687062"></line><line stroke-width="1.2194230960221657" stroke="lightgray" x1="195.4529392127964" y1="175.33259020717273" x2="120.13745341329903" y2="160.85822124428768"></line><line stroke-width="0.8622623403327678" stroke="lightgray" x1="195.4529392127964" y1="175.33259020717273" x2="274.37805344185904" y2="124.269620813195"></line><line stroke-width="0.8622623403327678" stroke="lightgray" x1="195.4529392127964" y1="175.33259020717273" x2="165.01333224173945" y2="262.4736784602257"></line><line stroke-width="0.8622623403327678" stroke="lightgray" x1="195.4529392127964" y1="175.33259020717273" x2="167.3262463651519" y2="93.47447891350338"></line><line stroke-width="1.7245246806655357" stroke="lightgray" x1="521.8137761439673" y1="-103.53514730351293" x2="545.8627329785307" y2="-77.33061568039633"></line><line stroke-width="0.8622623403327678" stroke="lightgray" x1="521.8137761439673" y1="-103.53514730351293" x2="474.90124748315293" y2="-84.93370858774932"></line><line stroke-width="1.2194230960221657" stroke="lightgray" x1="40.640197549367066" y1="408.7988301120264" x2="83.80943094733398" y2="395.1397832286227"></line><line stroke-width="0.8622623403327678" stroke="lightgray" x1="231.38469237518044" y1="197.44690560333189" x2="274.37805344185904" y2="124.269620813195"></line><line stroke-width="0.8622623403327678" stroke="lightgray" x1="231.38469237518044" y1="197.44690560333189" x2="165.01333224173945" y2="262.4736784602257"></line><line stroke-width="0.8622623403327678" stroke="lightgray" x1="137.04323371344518" y1="136.38116416548903" x2="178.84955851606392" y2="172.22642422944074"></line><line stroke-width="1.4934821829096006" stroke="lightgray" x1="137.04323371344518" y1="136.38116416548903" x2="134.92652205823248" y2="208.5154273687062"></line><line stroke-width="1.4934821829096006" stroke="lightgray" x1="137.04323371344518" y1="136.38116416548903" x2="167.3262463651519" y2="93.47447891350338"></line><line stroke-width="0.8622623403327678" stroke="lightgray" x1="137.04323371344518" y1="136.38116416548903" x2="120.13745341329903" y2="160.85822124428768"></line><line stroke-width="0.8622623403327678" stroke="lightgray" x1="170.9478781815327" y1="53.12491573370516" x2="167.3262463651519" y2="93.47447891350338"></line><line stroke-width="1.2194230960221657" stroke="lightgray" x1="109.85460877581735" y1="313.9281171496957" x2="165.01333224173945" y2="262.4736784602257"></line><line stroke-width="0.8622623403327678" stroke="lightgray" x1="109.85460877581735" y1="313.9281171496957" x2="105.77698014969306" y2="369.10622640936305"></line><line stroke-width="0.8622623403327678" stroke="lightgray" x1="109.85460877581735" y1="313.9281171496957" x2="89.54933402798962" y2="349.68907440134285"></line><line stroke-width="1.7245246806655357" stroke="lightgray" x1="513.7084955737429" y1="-74.49729101809277" x2="545.8627329785307" y2="-77.33061568039633"></line><line stroke-width="0.8622623403327678" stroke="lightgray" x1="513.7084955737429" y1="-74.49729101809277" x2="474.90124748315293" y2="-84.93370858774932"></line><line stroke-width="2.281331717417043" stroke="lightgray" x1="351.04951042919845" y1="69.04868834705093" x2="274.37805344185904" y2="124.269620813195"></line><line stroke-width="0.8622623403327678" stroke="lightgray" x1="351.04951042919845" y1="69.04868834705093" x2="412.3047003235804" y2="12.610323533202855"></line><line stroke-width="2.1121027582333323" stroke="lightgray" x1="167.3262463651519" y1="93.47447891350338" x2="178.84955851606392" y2="172.22642422944074"></line><line stroke-width="3.2262902550430868" stroke="lightgray" x1="167.3262463651519" y1="93.47447891350338" x2="90.77569983065813" y2="117.20768693705486"></line><line stroke-width="2.4388461920443314" stroke="lightgray" x1="167.3262463651519" y1="93.47447891350338" x2="71.25405007506338" y2="101.11423454968019"></line><line stroke-width="3.856154414844255" stroke="lightgray" x1="167.3262463651519" y1="93.47447891350338" x2="134.92652205823248" y2="208.5154273687062"></line><line stroke-width="2.5867870209983033" stroke="lightgray" x1="167.3262463651519" y1="93.47447891350338" x2="87.02136145269965" y2="149.29557680765998"></line><line stroke-width="2.8598006537375222" stroke="lightgray" x1="167.3262463651519" y1="93.47447891350338" x2="252.47399337968133" y2="90.0899248303254"></line><line stroke-width="2.5867870209983033" stroke="lightgray" x1="167.3262463651519" y1="93.47447891350338" x2="120.13745341329903" y2="160.85822124428768"></line><line stroke-width="0.8622623403327678" stroke="lightgray" x1="167.3262463651519" y1="93.47447891350338" x2="274.37805344185904" y2="124.269620813195"></line><line stroke-width="2.4388461920443314" stroke="lightgray" x1="167.3262463651519" y1="93.47447891350338" x2="128.88150616853417" y2="40.813479723328975"></line><line stroke-width="0.8622623403327678" stroke="lightgray" x1="167.3262463651519" y1="93.47447891350338" x2="165.01333224173945" y2="262.4736784602257"></line><line stroke-width="1.2194230960221657" stroke="lightgray" x1="167.3262463651519" y1="93.47447891350338" x2="261.53588189297096" y2="48.00555318250479"></line><line stroke-width="1.2194230960221657" stroke="lightgray" x1="167.3262463651519" y1="93.47447891350338" x2="147.85115750127645" y2="25.455862319580845"></line><line stroke-width="1.7245246806655357" stroke="lightgray" x1="266.3529691506537" y1="490.5166660604671" x2="244.50294454228586" y2="402.6197200788763"></line><line stroke-width="3.5551987061842847" stroke="lightgray" x1="266.3529691506537" y1="490.5166660604671" x2="307.54770951848144" y2="573.5704532517728"></line><line stroke-width="2.5867870209983033" stroke="lightgray" x1="266.3529691506537" y1="490.5166660604671" x2="239.36038076237233" y2="381.04766262626816"></line><line stroke-width="3.4490493613310713" stroke="lightgray" x1="266.3529691506537" y1="490.5166660604671" x2="244.32947313748903" y2="542.852604392815"></line><line stroke-width="4.953320031792079" stroke="lightgray" x1="266.3529691506537" y1="490.5166660604671" x2="194.80597786587424" y2="537.9972583605517"></line><line stroke-width="1.7245246806655357" stroke="lightgray" x1="266.3529691506537" y1="490.5166660604671" x2="316.6283193939651" y2="643.7800339826415"></line><line stroke-width="1.2194230960221657" stroke="lightgray" x1="266.3529691506537" y1="490.5166660604671" x2="165.01333224173945" y2="262.4736784602257"></line><line stroke-width="0.8622623403327678" stroke="lightgray" x1="266.3529691506537" y1="490.5166660604671" x2="298.5192810207436" y2="626.3571696616575"></line><line stroke-width="0.8622623403327678" stroke="lightgray" x1="266.3529691506537" y1="490.5166660604671" x2="311.5072477334836" y2="616.8486225893672"></line><line stroke-width="1.4934821829096006" stroke="lightgray" x1="266.3529691506537" y1="490.5166660604671" x2="162.0693404555152" y2="419.40773168963847"></line><line stroke-width="0.8622623403327678" stroke="lightgray" x1="266.3529691506537" y1="490.5166660604671" x2="339.02496409208044" y2="585.5015232689689"></line><line stroke-width="0.8622623403327678" stroke="lightgray" x1="266.3529691506537" y1="490.5166660604671" x2="266.2436365419179" y2="632.582390337667"></line><line stroke-width="3.108931080971375" stroke="lightgray" x1="316.6283193939651" y1="643.7800339826415" x2="330.19983673928436" y2="712.4573561712618"></line><line stroke-width="3.339527684170642" stroke="lightgray" x1="316.6283193939651" y1="643.7800339826415" x2="378.1912342769845" y2="688.8213677158474"></line><line stroke-width="3.339527684170642" stroke="lightgray" x1="316.6283193939651" y1="643.7800339826415" x2="307.54770951848144" y2="573.5704532517728"></line><line stroke-width="2.4388461920443314" stroke="lightgray" x1="316.6283193939651" y1="643.7800339826415" x2="339.02496409208044" y2="585.5015232689689"></line><line stroke-width="2.5867870209983033" stroke="lightgray" x1="316.6283193939651" y1="643.7800339826415" x2="298.5192810207436" y2="626.3571696616575"></line><line stroke-width="1.4934821829096006" stroke="lightgray" x1="316.6283193939651" y1="643.7800339826415" x2="194.80597786587424" y2="537.9972583605517"></line><line stroke-width="1.4934821829096006" stroke="lightgray" x1="316.6283193939651" y1="643.7800339826415" x2="311.5072477334836" y2="616.8486225893672"></line><line stroke-width="0.8622623403327678" stroke="lightgray" x1="316.6283193939651" y1="643.7800339826415" x2="244.32947313748903" y2="542.852604392815"></line><line stroke-width="3.2262902550430868" stroke="lightgray" x1="545.8627329785307" y1="-77.33061568039633" x2="474.90124748315293" y2="-84.93370858774932"></line><line stroke-width="1.9280772074221275" stroke="lightgray" x1="545.8627329785307" y1="-77.33061568039633" x2="609.6059021368428" y2="-56.96152713827947"></line><line stroke-width="0.8622623403327678" stroke="lightgray" x1="545.8627329785307" y1="-77.33061568039633" x2="412.3047003235804" y2="12.610323533202855"></line><line stroke-width="0.8622623403327678" stroke="lightgray" x1="545.8627329785307" y1="-77.33061568039633" x2="467.76422562957106" y2="-22.67216489013394"></line><line stroke-width="3.108931080971375" stroke="lightgray" x1="545.8627329785307" y1="-77.33061568039633" x2="631.5673171999294" y2="-75.35660421406544"></line><line stroke-width="2.281331717417043" stroke="lightgray" x1="545.8627329785307" y1="-77.33061568039633" x2="605.2817699268518" y2="-72.18818201154487"></line><line stroke-width="2.281331717417043" stroke="lightgray" x1="545.8627329785307" y1="-77.33061568039633" x2="545.4655052648552" y2="-147.9546526136331"></line><line stroke-width="1.2194230960221657" stroke="lightgray" x1="165.01333224173945" y1="262.4736784602257" x2="178.84955851606392" y2="172.22642422944074"></line><line stroke-width="1.7245246806655357" stroke="lightgray" x1="165.01333224173945" y1="262.4736784602257" x2="208.39085252295723" y2="211.1205451276208"></line><line stroke-width="3.5551987061842847" stroke="lightgray" x1="165.01333224173945" y1="262.4736784602257" x2="134.92652205823248" y2="208.5154273687062"></line><line stroke-width="0.8622623403327678" stroke="lightgray" x1="165.01333224173945" y1="262.4736784602257" x2="244.50294454228586" y2="402.6197200788763"></line><line stroke-width="1.4934821829096006" stroke="lightgray" x1="165.01333224173945" y1="262.4736784602257" x2="239.36038076237233" y2="381.04766262626816"></line><line stroke-width="2.726712936038816" stroke="lightgray" x1="165.01333224173945" y1="262.4736784602257" x2="105.77698014969306" y2="369.10622640936305"></line><line stroke-width="0.8622623403327678" stroke="lightgray" x1="165.01333224173945" y1="262.4736784602257" x2="274.37805344185904" y2="124.269620813195"></line><line stroke-width="1.4934821829096006" stroke="lightgray" x1="165.01333224173945" y1="262.4736784602257" x2="120.13745341329903" y2="160.85822124428768"></line><line stroke-width="0.8622623403327678" stroke="lightgray" x1="165.01333224173945" y1="262.4736784602257" x2="87.02136145269965" y2="149.29557680765998"></line><line stroke-width="1.9280772074221275" stroke="lightgray" x1="165.01333224173945" y1="262.4736784602257" x2="162.0693404555152" y2="419.40773168963847"></line><line stroke-width="1.9280772074221275" stroke="lightgray" x1="165.01333224173945" y1="262.4736784602257" x2="89.54933402798962" y2="349.68907440134285"></line><line stroke-width="1.4934821829096006" stroke="lightgray" x1="165.01333224173945" y1="262.4736784602257" x2="121.48777230579867" y2="328.3990009501845"></line><line stroke-width="0.8622623403327678" stroke="lightgray" x1="165.01333224173945" y1="262.4736784602257" x2="226.37601588255026" y2="56.99798047240967"></line><line stroke-width="1.2194230960221657" stroke="lightgray" x1="162.0693404555152" y1="419.40773168963847" x2="134.92652205823248" y2="208.5154273687062"></line><line stroke-width="2.726712936038816" stroke="lightgray" x1="162.0693404555152" y1="419.40773168963847" x2="194.80597786587424" y2="537.9972583605517"></line><line stroke-width="1.7245246806655357" stroke="lightgray" x1="162.0693404555152" y1="419.40773168963847" x2="83.80943094733398" y2="395.1397832286227"></line><line stroke-width="1.9280772074221275" stroke="lightgray" x1="162.0693404555152" y1="419.40773168963847" x2="105.77698014969306" y2="369.10622640936305"></line><line stroke-width="1.9280772074221275" stroke="lightgray" x1="162.0693404555152" y1="419.40773168963847" x2="121.48777230579867" y2="328.3990009501845"></line><line stroke-width="0.8622623403327678" stroke="lightgray" x1="162.0693404555152" y1="419.40773168963847" x2="244.32947313748903" y2="542.852604392815"></line><line stroke-width="0.8622623403327678" stroke="lightgray" x1="162.0693404555152" y1="419.40773168963847" x2="89.54933402798962" y2="349.68907440134285"></line><line stroke-width="3.4490493613310713" stroke="lightgray" x1="83.80943094733398" y1="395.1397832286227" x2="105.77698014969306" y2="369.10622640936305"></line><line stroke-width="0.8622623403327678" stroke="lightgray" x1="83.80943094733398" y1="395.1397832286227" x2="194.80597786587424" y2="537.9972583605517"></line><line stroke-width="1.7245246806655357" stroke="lightgray" x1="83.80943094733398" y1="395.1397832286227" x2="121.48777230579867" y2="328.3990009501845"></line><line stroke-width="0.8622623403327678" stroke="lightgray" x1="83.80943094733398" y1="395.1397832286227" x2="89.54933402798962" y2="349.68907440134285"></line><line stroke-width="1.2194230960221657" stroke="lightgray" x1="274.37805344185904" y1="124.269620813195" x2="178.84955851606392" y2="172.22642422944074"></line><line stroke-width="0.8622623403327678" stroke="lightgray" x1="274.37805344185904" y1="124.269620813195" x2="208.39085252295723" y2="211.1205451276208"></line><line stroke-width="3.6582692880664966" stroke="lightgray" x1="274.37805344185904" y1="124.269620813195" x2="252.47399337968133" y2="90.0899248303254"></line><line stroke-width="0.8622623403327678" stroke="lightgray" x1="274.37805344185904" y1="124.269620813195" x2="134.92652205823248" y2="208.5154273687062"></line><line stroke-width="0.8622623403327678" stroke="lightgray" x1="274.37805344185904" y1="124.269620813195" x2="120.13745341329903" y2="160.85822124428768"></line><line stroke-width="2.1121027582333323" stroke="lightgray" x1="274.37805344185904" y1="124.269620813195" x2="261.53588189297096" y2="48.00555318250479"></line><line stroke-width="2.1121027582333323" stroke="lightgray" x1="274.37805344185904" y1="124.269620813195" x2="412.3047003235804" y2="12.610323533202855"></line><line stroke-width="1.2194230960221657" stroke="lightgray" x1="274.37805344185904" y1="124.269620813195" x2="226.37601588255026" y2="56.99798047240967"></line><line stroke-width="1.4934821829096006" stroke="lightgray" x1="120.13745341329903" y1="160.85822124428768" x2="178.84955851606392" y2="172.22642422944074"></line><line stroke-width="0.8622623403327678" stroke="lightgray" x1="120.13745341329903" y1="160.85822124428768" x2="208.39085252295723" y2="211.1205451276208"></line><line stroke-width="2.1121027582333323" stroke="lightgray" x1="120.13745341329903" y1="160.85822124428768" x2="252.47399337968133" y2="90.0899248303254"></line><line stroke-width="1.2194230960221657" stroke="lightgray" x1="120.13745341329903" y1="160.85822124428768" x2="71.25405007506338" y2="101.11423454968019"></line><line stroke-width="2.726712936038816" stroke="lightgray" x1="120.13745341329903" y1="160.85822124428768" x2="134.92652205823248" y2="208.5154273687062"></line><line stroke-width="1.2194230960221657" stroke="lightgray" x1="120.13745341329903" y1="160.85822124428768" x2="90.77569983065813" y2="117.20768693705486"></line><line stroke-width="1.2194230960221657" stroke="lightgray" x1="120.13745341329903" y1="160.85822124428768" x2="87.02136145269965" y2="149.29557680765998"></line><line stroke-width="0.8622623403327678" stroke="lightgray" x1="226.37601588255026" y1="56.99798047240967" x2="252.47399337968133" y2="90.0899248303254"></line><line stroke-width="4.722805342874535" stroke="lightgray" x1="226.37601588255026" y1="56.99798047240967" x2="147.85115750127645" y2="25.455862319580845"></line><line stroke-width="0.8622623403327678" stroke="lightgray" x1="226.37601588255026" y1="56.99798047240967" x2="261.53588189297096" y2="48.00555318250479"></line><line stroke-width="0.8622623403327678" stroke="lightgray" x1="266.2436365419179" y1="632.582390337667" x2="330.19983673928436" y2="712.4573561712618"></line><line stroke-width="2.986964365819201" stroke="lightgray" x1="266.2436365419179" y1="632.582390337667" x2="311.5072477334836" y2="616.8486225893672"></line><line stroke-width="0.8622623403327678" stroke="lightgray" x1="266.2436365419179" y1="632.582390337667" x2="194.80597786587424" y2="537.9972583605517"></line><line stroke-width="0.8622623403327678" stroke="lightgray" x1="266.2436365419179" y1="632.582390337667" x2="298.5192810207436" y2="626.3571696616575"></line><line stroke-width="1.7245246806655357" stroke="lightgray" x1="467.76422562957106" y1="-22.67216489013394" x2="412.3047003235804" y2="12.610323533202855"></line><line stroke-width="1.7245246806655357" stroke="lightgray" x1="467.76422562957106" y1="-22.67216489013394" x2="474.90124748315293" y2="-84.93370858774932"></line><line stroke-width="1.2194230960221657" stroke="lightgray" x1="84.00676734410182" y1="168.98378717922807" x2="134.92652205823248" y2="208.5154273687062"></line><line stroke-width="2.1121027582333323" stroke="lightgray" x1="134.92652205823248" y1="208.5154273687062" x2="178.84955851606392" y2="172.22642422944074"></line><line stroke-width="1.9280772074221275" stroke="lightgray" x1="134.92652205823248" y1="208.5154273687062" x2="208.39085252295723" y2="211.1205451276208"></line><line stroke-width="1.4934821829096006" stroke="lightgray" x1="134.92652205823248" y1="208.5154273687062" x2="90.77569983065813" y2="117.20768693705486"></line><line stroke-width="0.8622623403327678" stroke="lightgray" x1="134.92652205823248" y1="208.5154273687062" x2="87.02136145269965" y2="149.29557680765998"></line><line stroke-width="0.8622623403327678" stroke="lightgray" x1="134.92652205823248" y1="208.5154273687062" x2="121.48777230579867" y2="328.3990009501845"></line><line stroke-width="0.8622623403327678" stroke="lightgray" x1="252.47399337968133" y1="90.0899248303254" x2="178.84955851606392" y2="172.22642422944074"></line><line stroke-width="0.8622623403327678" stroke="lightgray" x1="252.47399337968133" y1="90.0899248303254" x2="208.39085252295723" y2="211.1205451276208"></line><line stroke-width="2.1121027582333323" stroke="lightgray" x1="252.47399337968133" y1="90.0899248303254" x2="261.53588189297096" y2="48.00555318250479"></line><line stroke-width="1.7245246806655357" stroke="lightgray" x1="105.77698014969306" y1="369.10622640936305" x2="89.54933402798962" y2="349.68907440134285"></line><line stroke-width="1.2194230960221657" stroke="lightgray" x1="105.77698014969306" y1="369.10622640936305" x2="121.48777230579867" y2="328.3990009501845"></line><line stroke-width="1.2194230960221657" stroke="lightgray" x1="147.85115750127645" y1="25.455862319580845" x2="90.77569983065813" y2="117.20768693705486"></line><line stroke-width="0.8622623403327678" stroke="lightgray" x1="311.5072477334836" y1="616.8486225893672" x2="307.54770951848144" y2="573.5704532517728"></line><line stroke-width="1.2194230960221657" stroke="lightgray" x1="244.32947313748903" y1="542.852604392815" x2="307.54770951848144" y2="573.5704532517728"></line><line stroke-width="0.8622623403327678" stroke="lightgray" x1="412.3047003235804" y1="12.610323533202855" x2="474.90124748315293" y2="-84.93370858774932"></line><line stroke-width="0.8622623403327678" stroke="lightgray" x1="378.1912342769845" y1="688.8213677158474" x2="330.19983673928436" y2="712.4573561712618"></line><line stroke-width="1.2194230960221657" stroke="lightgray" x1="298.5192810207436" y1="626.3571696616575" x2="330.19983673928436" y2="712.4573561712618"></line><line stroke-width="0.8622623403327678" stroke="lightgray" x1="71.25405007506338" y1="101.11423454968019" x2="90.77569983065813" y2="117.20768693705486"></line><line stroke-width="0.8622623403327678" stroke="lightgray" x1="71.25405007506338" y1="101.11423454968019" x2="87.02136145269965" y2="149.29557680765998"></line><line stroke-width="1.2194230960221657" stroke="lightgray" x1="605.2817699268518" y1="-72.18818201154487" x2="631.5673171999294" y2="-75.35660421406544"></line><line stroke-width="1.2194230960221657" stroke="lightgray" x1="609.6059021368428" y1="-56.96152713827947" x2="631.5673171999294" y2="-75.35660421406544"></line><line stroke-width="0.8622623403327678" stroke="lightgray" x1="545.4655052648552" y1="-147.9546526136331" x2="474.90124748315293" y2="-84.93370858774932"></line><line stroke-width="1.2194230960221657" stroke="lightgray" x1="339.02496409208044" y1="585.5015232689689" x2="307.54770951848144" y2="573.5704532517728"></line><line stroke-width="0.8622623403327678" stroke="lightgray" x1="208.39085252295723" y1="211.1205451276208" x2="178.84955851606392" y2="172.22642422944074"></line></g><g class="nodes"><circle r="5.973928731638402" fill="rgb(255, 237, 161)" stroke="black" stroke-width="1px" transform="translate(144.01636484676715,115.35326958141842)"></circle><circle r="5.453425872077632" fill="rgb(255, 238, 164)" stroke="black" stroke-width="1px" transform="translate(333.8834623384345,676.414724018941)"></circle><circle r="5.1735740419966065" fill="rgb(255, 238, 162)" stroke="black" stroke-width="1px" transform="translate(330.16217975584277,17.73175195291402)"></circle><circle r="4.877692384088663" fill="rgb(255, 238, 163)" stroke="black" stroke-width="1px" transform="translate(549.1609043890364,-34.87854252833129)"></circle><circle r="4.562663434834086" fill="rgb(255, 239, 165)" stroke="black" stroke-width="1px" transform="translate(230.9186472566288,488.22407105093305)"></circle><circle r="4.562663434834086" fill="rgb(255, 236, 158)" stroke="black" stroke-width="1px" transform="translate(355.98610556168427,652.9616822437679)"></circle><circle r="4.2242055164666645" fill="rgb(255, 238, 164)" stroke="black" stroke-width="1px" transform="translate(332.55730153003657,600.2972390612504)"></circle><circle r="4.2242055164666645" fill="rgb(255, 235, 157)" stroke="black" stroke-width="1px" transform="translate(606.0241270744266,-105.68408790179475)"></circle><circle r="3.856154414844255" fill="rgb(255, 237, 162)" stroke="black" stroke-width="1px" transform="translate(164.2935313512358,310.7219618001674)"></circle><circle r="3.856154414844255" fill="rgb(255, 238, 163)" stroke="black" stroke-width="1px" transform="translate(203.90565174342026,286.8403046850283)"></circle><circle r="3.856154414844255" fill="rgb(255, 242, 173)" stroke="black" stroke-width="1px" transform="translate(96.99682321432238,199.33937734652346)"></circle><circle r="3.4490493613310713" fill="rgb(255, 240, 168)" stroke="black" stroke-width="1px" transform="translate(95.75462277283327,301.79762966382253)"></circle><circle r="3.4490493613310713" fill="rgb(255, 239, 167)" stroke="black" stroke-width="1px" transform="translate(287.0067491315546,65.05460081080913)"></circle><circle r="3.4490493613310713" fill="rgb(255, 241, 170)" stroke="black" stroke-width="1px" transform="translate(126.62111618366421,362.432466943795)"></circle><circle r="3.4490493613310713" fill="rgb(255, 235, 156)" stroke="black" stroke-width="1px" transform="translate(513.4252614865346,-130.11313820333615)"></circle><circle r="3.4490493613310713" fill="rgb(255, 237, 160)" stroke="black" stroke-width="1px" transform="translate(358.3090558765721,712.6613695820686)"></circle><circle r="3.4490493613310713" fill="rgb(255, 233, 151)" stroke="black" stroke-width="1px" transform="translate(134.3681833469006,176.64219951355716)"></circle><circle r="2.986964365819201" fill="rgb(255, 235, 156)" stroke="black" stroke-width="1px" transform="translate(113.7910398563576,144.31886225106282)"></circle><circle r="2.986964365819201" fill="rgb(255, 238, 164)" stroke="black" stroke-width="1px" transform="translate(145.30858844820077,145.66385400671345)"></circle><circle r="2.986964365819201" fill="rgb(255, 240, 168)" stroke="black" stroke-width="1px" transform="translate(155.17628682824886,146.43649641278736)"></circle><circle r="2.986964365819201" fill="rgb(255, 236, 159)" stroke="black" stroke-width="1px" transform="translate(246.55285413173794,671.4430628211961)"></circle><circle r="2.986964365819201" fill="rgb(255, 237, 161)" stroke="black" stroke-width="1px" transform="translate(574.5419025458094,-124.65148526806318)"></circle><circle r="2.986964365819201" fill="rgb(255, 238, 164)" stroke="black" stroke-width="1px" transform="translate(223.6885052732671,446.3354632324329)"></circle><circle r="2.986964365819201" fill="rgb(255, 233, 152)" stroke="black" stroke-width="1px" transform="translate(110.97301588989647,67.50311227272697)"></circle><circle r="2.986964365819201" fill="rgb(255, 233, 153)" stroke="black" stroke-width="1px" transform="translate(133.91228184027213,307.9547991982849)"></circle><circle r="2.986964365819201" fill="rgb(255, 239, 166)" stroke="black" stroke-width="1px" transform="translate(358.7083016974939,631.3730483553045)"></circle><circle r="2.986964365819201" fill="rgb(255, 238, 164)" stroke="black" stroke-width="1px" transform="translate(135.11186787145422,447.7656858235465)"></circle><circle r="2.986964365819201" fill="rgb(255, 235, 156)" stroke="black" stroke-width="1px" transform="translate(104.74072144003321,97.1408839596026)"></circle><circle r="2.986964365819201" fill="rgb(255, 236, 158)" stroke="black" stroke-width="1px" transform="translate(136.71805049256585,348.849964528085)"></circle><circle r="2.986964365819201" fill="rgb(255, 241, 169)" stroke="black" stroke-width="1px" transform="translate(247.1174107838028,605.3577264213574)"></circle><circle r="2.986964365819201" fill="rgb(255, 238, 164)" stroke="black" stroke-width="1px" transform="translate(131.45517388800033,82.63576425542595)"></circle><circle r="2.986964365819201" fill="rgb(255, 236, 158)" stroke="black" stroke-width="1px" transform="translate(168.18557738942417,481.9436650383744)"></circle><circle r="2.986964365819201" fill="rgb(255, 243, 175)" stroke="black" stroke-width="1px" transform="translate(250.89268212319084,310.3740384879399)"></circle><circle r="2.986964365819201" fill="rgb(255, 236, 159)" stroke="black" stroke-width="1px" transform="translate(79.54341994120514,76.89892616021669)"></circle><circle r="2.4388461920443314" fill="rgb(255, 240, 169)" stroke="black" stroke-width="1px" transform="translate(111.6182371449941,224.81281397474282)"></circle><circle r="2.4388461920443314" fill="rgb(255, 237, 162)" stroke="black" stroke-width="1px" transform="translate(311.14311283181166,63.18283130716642)"></circle><circle r="2.4388461920443314" fill="rgb(255, 237, 161)" stroke="black" stroke-width="1px" transform="translate(198.43035471106737,13.812900254977775)"></circle><circle r="2.4388461920443314" fill="rgb(255, 245, 179)" stroke="black" stroke-width="1px" transform="translate(39.99583949649013,396.5929280115392)"></circle><circle r="2.4388461920443314" fill="rgb(255, 244, 178)" stroke="black" stroke-width="1px" transform="translate(277.10992278600537,431.45793566650826)"></circle><circle r="2.4388461920443314" fill="rgb(255, 242, 172)" stroke="black" stroke-width="1px" transform="translate(591.5373963336293,-87.09087215657406)"></circle><circle r="2.4388461920443314" fill="rgb(255, 242, 174)" stroke="black" stroke-width="1px" transform="translate(302.76639382658897,677.9626824236022)"></circle><circle r="2.4388461920443314" fill="rgb(255, 238, 164)" stroke="black" stroke-width="1px" transform="translate(185.39290356170133,1.4686651820050765)"></circle><circle r="2.4388461920443314" fill="rgb(255, 242, 173)" stroke="black" stroke-width="1px" transform="translate(134.44268926922624,148.52450673013675)"></circle><circle r="2.4388461920443314" fill="rgb(255, 249, 189)" stroke="black" stroke-width="1px" transform="translate(279.54725057493175,450.69504306532014)"></circle><circle r="2.4388461920443314" fill="rgb(255, 245, 181)" stroke="black" stroke-width="1px" transform="translate(226.98986933319534,98.02112561108896)"></circle><circle r="2.4388461920443314" fill="rgb(255, 234, 155)" stroke="black" stroke-width="1px" transform="translate(212.80424187170416,316.53465917912155)"></circle><circle r="2.4388461920443314" fill="rgb(255, 236, 159)" stroke="black" stroke-width="1px" transform="translate(524.996137425477,-124.60911262319911)"></circle><circle r="2.4388461920443314" fill="rgb(255, 238, 163)" stroke="black" stroke-width="1px" transform="translate(166.65490709545097,117.6570502197425)"></circle><circle r="2.4388461920443314" fill="rgb(255, 241, 170)" stroke="black" stroke-width="1px" transform="translate(304.7368388010044,703.846923427039)"></circle><circle r="2.4388461920443314" fill="rgb(255, 236, 158)" stroke="black" stroke-width="1px" transform="translate(149.01933400558084,160.82467830521827)"></circle><circle r="2.4388461920443314" fill="rgb(255, 239, 166)" stroke="black" stroke-width="1px" transform="translate(394.9464148708051,0.5901106958225184)"></circle><circle r="2.4388461920443314" fill="rgb(255, 234, 155)" stroke="black" stroke-width="1px" transform="translate(203.86009550270435,486.7011957511002)"></circle><circle r="2.4388461920443314" fill="rgb(255, 246, 181)" stroke="black" stroke-width="1px" transform="translate(381.4131667588934,46.52495757788812)"></circle><circle r="2.4388461920443314" fill="rgb(255, 240, 169)" stroke="black" stroke-width="1px" transform="translate(89.14721446783697,327.22276152254415)"></circle><circle r="2.4388461920443314" fill="rgb(255, 243, 175)" stroke="black" stroke-width="1px" transform="translate(262.70026099163624,581.1157877470306)"></circle><circle r="2.4388461920443314" fill="rgb(255, 238, 163)" stroke="black" stroke-width="1px" transform="translate(514.708019896293,-89.0205367192837)"></circle><circle r="2.4388461920443314" fill="rgb(255, 234, 154)" stroke="black" stroke-width="1px" transform="translate(305.5907922939716,48.84166748620419)"></circle><circle r="2.4388461920443314" fill="rgb(255, 243, 176)" stroke="black" stroke-width="1px" transform="translate(211.87417431268182,460.9633840337526)"></circle><circle r="2.4388461920443314" fill="rgb(255, 242, 173)" stroke="black" stroke-width="1px" transform="translate(201.9601398694877,323.15013325779364)"></circle><circle r="1.7245246806655357" fill="rgb(255, 236, 158)" stroke="black" stroke-width="1px" transform="translate(281.75370190623863,575.4923279452553)"></circle><circle r="1.7245246806655357" fill="rgb(255, 232, 151)" stroke="black" stroke-width="1px" transform="translate(156.799692822904,52.48379599143565)"></circle><circle r="1.7245246806655357" fill="rgb(255, 248, 188)" stroke="black" stroke-width="1px" transform="translate(206.32698374070986,159.96718514546464)"></circle><circle r="1.7245246806655357" fill="rgb(255, 231, 148)" stroke="black" stroke-width="1px" transform="translate(120.2134952402975,106.99158782557633)"></circle><circle r="1.7245246806655357" fill="rgb(255, 232, 151)" stroke="black" stroke-width="1px" transform="translate(187.18938670213058,14.839288151556357)"></circle><circle r="1.7245246806655357" fill="rgb(255, 255, 204)" stroke="black" stroke-width="1px" transform="translate(144.20842303366152,57.712572603025436)"></circle><circle r="1.7245246806655357" fill="rgb(255, 243, 175)" stroke="black" stroke-width="1px" transform="translate(348.8056526835064,690.8684808019556)"></circle><circle r="1.7245246806655357" fill="rgb(255, 237, 161)" stroke="black" stroke-width="1px" transform="translate(623.611939315709,-101.92369274986473)"></circle><circle r="1.7245246806655357" fill="rgb(255, 236, 158)" stroke="black" stroke-width="1px" transform="translate(151.63265331597069,350.8665346668848)"></circle><circle r="1.7245246806655357" fill="rgb(255, 243, 175)" stroke="black" stroke-width="1px" transform="translate(291.5189190272925,538.7937114042335)"></circle><circle r="1.7245246806655357" fill="rgb(255, 251, 194)" stroke="black" stroke-width="1px" transform="translate(210.25619463921814,70.86813094710692)"></circle><circle r="1.7245246806655357" fill="rgb(255, 231, 148)" stroke="black" stroke-width="1px" transform="translate(488.7133970248077,-42.897280615720106)"></circle><circle r="1.7245246806655357" fill="rgb(255, 245, 179)" stroke="black" stroke-width="1px" transform="translate(54.713417730560906,427.63478222888034)"></circle><circle r="1.7245246806655357" fill="rgb(255, 245, 179)" stroke="black" stroke-width="1px" transform="translate(126.38691795885669,436.78657789482133)"></circle><circle r="1.7245246806655357" fill="rgb(255, 249, 190)" stroke="black" stroke-width="1px" transform="translate(45.79273839090875,419.1597702004332)"></circle><circle r="1.7245246806655357" fill="rgb(255, 230, 147)" stroke="black" stroke-width="1px" transform="translate(263.335269558263,437.32270327159443)"></circle><circle r="1.7245246806655357" fill="rgb(255, 237, 161)" stroke="black" stroke-width="1px" transform="translate(282.43195933699064,524.7402768233513)"></circle><circle r="1.7245246806655357" fill="rgb(255, 248, 186)" stroke="black" stroke-width="1px" transform="translate(188.0835505434884,503.19572293885216)"></circle><circle r="1.7245246806655357" fill="rgb(255, 232, 151)" stroke="black" stroke-width="1px" transform="translate(235.86033837038838,74.05129158688523)"></circle><circle r="1.7245246806655357" fill="rgb(255, 234, 155)" stroke="black" stroke-width="1px" transform="translate(293.9758743779328,658.7391727249928)"></circle><circle r="1.7245246806655357" fill="rgb(255, 248, 187)" stroke="black" stroke-width="1px" transform="translate(168.26621983530313,491.1464321587391)"></circle><circle r="1.7245246806655357" fill="rgb(255, 237, 160)" stroke="black" stroke-width="1px" transform="translate(175.17121139740453,223.62746290718633)"></circle><circle r="1.7245246806655357" fill="rgb(255, 253, 199)" stroke="black" stroke-width="1px" transform="translate(136.73158431568837,465.8689989799644)"></circle><circle r="1.7245246806655357" fill="rgb(255, 233, 152)" stroke="black" stroke-width="1px" transform="translate(509.66517696425063,-100.22492392536925)"></circle><circle r="1.7245246806655357" fill="rgb(255, 245, 181)" stroke="black" stroke-width="1px" transform="translate(281.45265041578176,664.3714245297058)"></circle><circle r="1.7245246806655357" fill="rgb(255, 237, 160)" stroke="black" stroke-width="1px" transform="translate(117.76378608101919,133.4581288768091)"></circle><circle r="1.7245246806655357" fill="rgb(255, 234, 154)" stroke="black" stroke-width="1px" transform="translate(159.07375867684016,212.16513970310893)"></circle><circle r="1.7245246806655357" fill="rgb(255, 245, 180)" stroke="black" stroke-width="1px" transform="translate(128.74231067191423,266.86013780227063)"></circle><circle r="1.7245246806655357" fill="rgb(255, 238, 164)" stroke="black" stroke-width="1px" transform="translate(156.28539857161832,492.49107429438277)"></circle><circle r="1.7245246806655357" fill="rgb(255, 243, 175)" stroke="black" stroke-width="1px" transform="translate(197.56800444824628,2.077807666276714)"></circle><circle r="1.7245246806655357" fill="rgb(255, 233, 152)" stroke="black" stroke-width="1px" transform="translate(536.6358985387006,-116.67639143351379)"></circle><circle r="1.7245246806655357" fill="rgb(255, 247, 185)" stroke="black" stroke-width="1px" transform="translate(466.6193355620562,-56.39173471880136)"></circle><circle r="1.7245246806655357" fill="rgb(255, 242, 173)" stroke="black" stroke-width="1px" transform="translate(323.51688724994693,685.2614047739911)"></circle><circle r="1.7245246806655357" fill="rgb(255, 235, 156)" stroke="black" stroke-width="1px" transform="translate(509.238699539773,-111.78229827315721)"></circle><circle r="1.7245246806655357" fill="rgb(255, 244, 179)" stroke="black" stroke-width="1px" transform="translate(163.9690369854525,151.24774907770114)"></circle><circle r="1.7245246806655357" fill="rgb(255, 232, 149)" stroke="black" stroke-width="1px" transform="translate(270.8154102448565,529.0723185960084)"></circle><circle r="1.7245246806655357" fill="rgb(255, 235, 158)" stroke="black" stroke-width="1px" transform="translate(195.4529392127964,175.33259020717273)"></circle><circle r="1.7245246806655357" fill="rgb(255, 239, 165)" stroke="black" stroke-width="1px" transform="translate(521.8137761439673,-103.53514730351293)"></circle><circle r="1.7245246806655357" fill="rgb(255, 252, 197)" stroke="black" stroke-width="1px" transform="translate(40.640197549367066,408.7988301120264)"></circle><circle r="1.7245246806655357" fill="rgb(255, 249, 189)" stroke="black" stroke-width="1px" transform="translate(231.38469237518044,197.44690560333189)"></circle><circle r="1.7245246806655357" fill="rgb(255, 235, 156)" stroke="black" stroke-width="1px" transform="translate(137.04323371344518,136.38116416548903)"></circle><circle r="1.7245246806655357" fill="rgb(255, 253, 198)" stroke="black" stroke-width="1px" transform="translate(170.9478781815327,53.12491573370516)"></circle><circle r="1.7245246806655357" fill="rgb(255, 244, 178)" stroke="black" stroke-width="1px" transform="translate(109.85460877581735,313.9281171496957)"></circle><circle r="1.7245246806655357" fill="rgb(255, 242, 172)" stroke="black" stroke-width="1px" transform="translate(513.7084955737429,-74.49729101809277)"></circle><circle r="1.7245246806655357" fill="rgb(255, 234, 155)" stroke="black" stroke-width="1px" transform="translate(351.04951042919845,69.04868834705093)"></circle><circle r="10.63068408996023" fill="rgb(254, 217, 123)" stroke="black" stroke-width="1px" transform="translate(167.3262463651519,93.47447891350338)"></circle><circle r="10.202425598741696" fill="rgb(254, 218, 125)" stroke="black" stroke-width="1px" transform="translate(266.3529691506537,490.5166660604671)"></circle><circle r="9.44561068574907" fill="rgb(254, 216, 121)" stroke="black" stroke-width="1px" transform="translate(316.6283193939651,643.7800339826415)"></circle><circle r="8.793384998385932" fill="rgb(254, 219, 125)" stroke="black" stroke-width="1px" transform="translate(545.8627329785307,-77.33061568039633)"></circle><circle r="8.793384998385932" fill="rgb(254, 218, 124)" stroke="black" stroke-width="1px" transform="translate(165.01333224173945,262.4736784602257)"></circle><circle r="7.110397412368569" fill="rgb(254, 219, 125)" stroke="black" stroke-width="1px" transform="translate(162.0693404555152,419.40773168963847)"></circle><circle r="6.679055368341284" fill="rgb(254, 215, 120)" stroke="black" stroke-width="1px" transform="translate(83.80943094733398,395.1397832286227)"></circle><circle r="6.4525805100861735" fill="rgb(254, 219, 126)" stroke="black" stroke-width="1px" transform="translate(274.37805344185904,124.269620813195)"></circle><circle r="6.21786216194275" fill="rgb(254, 220, 127)" stroke="black" stroke-width="1px" transform="translate(120.13745341329903,160.85822124428768)"></circle><circle r="5.7196013074750445" fill="rgb(254, 222, 131)" stroke="black" stroke-width="1px" transform="translate(226.37601588255026,56.99798047240967)"></circle><circle r="5.453425872077632" fill="rgb(254, 216, 122)" stroke="black" stroke-width="1px" transform="translate(266.2436365419179,632.582390337667)"></circle><circle r="3.4490493613310713" fill="rgb(254, 220, 127)" stroke="black" stroke-width="1px" transform="translate(467.76422562957106,-22.67216489013394)"></circle><circle r="1.7245246806655357" fill="rgb(255, 230, 146)" stroke="black" stroke-width="1px" transform="translate(84.00676734410182,168.98378717922807)"></circle><circle r="5.1735740419966065" fill="rgb(254, 167, 73)" stroke="black" stroke-width="1px" transform="translate(134.92652205823248,208.5154273687062)"></circle><circle r="4.562663434834086" fill="rgb(254, 181, 83)" stroke="black" stroke-width="1px" transform="translate(194.80597786587424,537.9972583605517)"></circle><circle r="4.2242055164666645" fill="rgb(254, 172, 76)" stroke="black" stroke-width="1px" transform="translate(252.47399337968133,90.0899248303254)"></circle><circle r="3.856154414844255" fill="rgb(254, 176, 79)" stroke="black" stroke-width="1px" transform="translate(105.77698014969306,369.10622640936305)"></circle><circle r="3.856154414844255" fill="rgb(254, 170, 74)" stroke="black" stroke-width="1px" transform="translate(147.85115750127645,25.455862319580845)"></circle><circle r="2.4388461920443314" fill="rgb(254, 180, 82)" stroke="black" stroke-width="1px" transform="translate(311.5072477334836,616.8486225893672)"></circle><circle r="2.4388461920443314" fill="rgb(254, 170, 75)" stroke="black" stroke-width="1px" transform="translate(244.32947313748903,542.852604392815)"></circle><circle r="2.4388461920443314" fill="rgb(254, 184, 85)" stroke="black" stroke-width="1px" transform="translate(412.3047003235804,12.610323533202855)"></circle><circle r="2.4388461920443314" fill="rgb(253, 156, 67)" stroke="black" stroke-width="1px" transform="translate(378.1912342769845,688.8213677158474)"></circle><circle r="2.4388461920443314" fill="rgb(254, 173, 77)" stroke="black" stroke-width="1px" transform="translate(298.5192810207436,626.3571696616575)"></circle><circle r="1.7245246806655357" fill="rgb(254, 167, 73)" stroke="black" stroke-width="1px" transform="translate(71.25405007506338,101.11423454968019)"></circle><circle r="1.7245246806655357" fill="rgb(253, 142, 62)" stroke="black" stroke-width="1px" transform="translate(605.2817699268518,-72.18818201154487)"></circle><circle r="1.7245246806655357" fill="rgb(254, 187, 87)" stroke="black" stroke-width="1px" transform="translate(128.88150616853417,40.813479723328975)"></circle><circle r="1.7245246806655357" fill="rgb(254, 189, 89)" stroke="black" stroke-width="1px" transform="translate(609.6059021368428,-56.96152713827947)"></circle><circle r="1.7245246806655357" fill="rgb(254, 173, 76)" stroke="black" stroke-width="1px" transform="translate(545.4655052648552,-147.9546526136331)"></circle><circle r="1.7245246806655357" fill="rgb(254, 184, 85)" stroke="black" stroke-width="1px" transform="translate(244.50294454228586,402.6197200788763)"></circle><circle r="1.7245246806655357" fill="rgb(254, 189, 90)" stroke="black" stroke-width="1px" transform="translate(339.02496409208044,585.5015232689689)"></circle><circle r="2.4388461920443314" fill="rgb(253, 120, 54)" stroke="black" stroke-width="1px" transform="translate(631.5673171999294,-75.35660421406544)"></circle><circle r="2.4388461920443314" fill="rgb(251, 97, 47)" stroke="black" stroke-width="1px" transform="translate(307.54770951848144,573.5704532517728)"></circle><circle r="2.4388461920443314" fill="rgb(250, 90, 45)" stroke="black" stroke-width="1px" transform="translate(90.77569983065813,117.20768693705486)"></circle><circle r="1.7245246806655357" fill="rgb(253, 134, 59)" stroke="black" stroke-width="1px" transform="translate(121.48777230579867,328.3990009501845)"></circle><circle r="1.7245246806655357" fill="rgb(252, 117, 53)" stroke="black" stroke-width="1px" transform="translate(87.02136145269965,149.29557680765998)"></circle><circle r="1.7245246806655357" fill="rgb(253, 131, 58)" stroke="black" stroke-width="1px" transform="translate(89.54933402798962,349.68907440134285)"></circle><circle r="1.7245246806655357" fill="rgb(252, 118, 54)" stroke="black" stroke-width="1px" transform="translate(208.39085252295723,211.1205451276208)"></circle><circle r="1.7245246806655357" fill="rgb(253, 136, 59)" stroke="black" stroke-width="1px" transform="translate(261.53588189297096,48.00555318250479)"></circle><circle r="1.7245246806655357" fill="rgb(212, 18, 33)" stroke="black" stroke-width="1px" transform="translate(178.84955851606392,172.22642422944074)"></circle><circle r="1.7245246806655357" fill="rgb(231, 39, 33)" stroke="black" stroke-width="1px" transform="translate(239.36038076237233,381.04766262626816)"></circle><circle r="1.7245246806655357" fill="rgb(197, 8, 35)" stroke="black" stroke-width="1px" transform="translate(330.19983673928436,712.4573561712618)"></circle><circle r="1.7245246806655357" fill="rgb(128, 0, 38)" stroke="black" stroke-width="1px" transform="translate(474.90124748315293,-84.93370858774932)"></circle></g></g><g><text x="505" y="495" font-family="sans-serif" text-anchor="end" font-size="10px" fill="red">146 nodes</text><text x="505" y="505" font-family="sans-serif" text-anchor="end" font-size="10px" fill="red">426 edges</text></g></svg>