<svg height="512" width="512" style="border-style: solid; border-width: 1px; cursor: auto;" id="figure"><g transform="translate(-72.14564054052062,-86.55785888538003) scale(1.255569963638)"><g class="links"><line stroke-width="1.9508986466081177" stroke="lightgray" x1="429.04497934441304" y1="265.6869143422242" x2="420.7739733222294" y2="230.72730420744625"></line><line stroke-width="1.0536056881285036" stroke="lightgray" x1="429.04497934441304" y1="265.6869143422242" x2="456.97825169002067" y2="238.63566778822903"></line><line stroke-width="0.3982255186730141" stroke="lightgray" x1="429.04497934441304" y1="265.6869143422242" x2="458.3377642385067" y2="255.2939571405759"></line><line stroke-width="0.5631759293904368" stroke="lightgray" x1="429.04497934441304" y1="265.6869143422242" x2="377.80459631324504" y2="245.47469400333432"></line><line stroke-width="0.3982255186730141" stroke="lightgray" x1="420.7739733222294" y1="230.72730420744625" x2="351.1061414149411" y2="227.42372114367478"></line><line stroke-width="0.3982255186730141" stroke="lightgray" x1="420.7739733222294" y1="230.72730420744625" x2="458.3377642385067" y2="255.2939571405759"></line><line stroke-width="0.3982255186730141" stroke="lightgray" x1="420.7739733222294" y1="230.72730420744625" x2="379.2765269441759" y2="208.58610520964206"></line><line stroke-width="0.7964510373460282" stroke="lightgray" x1="420.7739733222294" y1="230.72730420744625" x2="456.97825169002067" y2="238.63566778822903"></line><line stroke-width="0.3982255186730141" stroke="lightgray" x1="377.80459631324504" y1="245.47469400333432" x2="322.15887571731923" y2="224.26359345360964"></line><line stroke-width="0.3982255186730141" stroke="lightgray" x1="377.80459631324504" y1="245.47469400333432" x2="379.2765269441759" y2="208.58610520964206"></line><line stroke-width="0.3982255186730141" stroke="lightgray" x1="351.1061414149411" y1="227.42372114367478" x2="268.96072235453875" y2="246.70230855797254"></line><line stroke-width="1.0536056881285036" stroke="lightgray" x1="351.1061414149411" y1="227.42372114367478" x2="358.1360991200049" y2="187.65496767432631"></line><line stroke-width="0.6897468312121291" stroke="lightgray" x1="351.1061414149411" y1="227.42372114367478" x2="328.53873482453645" y2="189.56351361326898"></line><line stroke-width="1.0536056881285036" stroke="lightgray" x1="351.1061414149411" y1="227.42372114367478" x2="322.15887571731923" y2="224.26359345360964"></line><line stroke-width="1.1263518587808736" stroke="lightgray" x1="351.1061414149411" y1="227.42372114367478" x2="379.2765269441759" y2="208.58610520964206"></line><line stroke-width="1.4358225267737945" stroke="lightgray" x1="328.53873482453645" y1="189.56351361326898" x2="322.15887571731923" y2="224.26359345360964"></line><line stroke-width="0.3982255186730141" stroke="lightgray" x1="328.53873482453645" y1="189.56351361326898" x2="270.07124626127177" y2="203.48656081770875"></line><line stroke-width="0.7964510373460282" stroke="lightgray" x1="328.53873482453645" y1="189.56351361326898" x2="379.2765269441759" y2="208.58610520964206"></line><line stroke-width="0.5631759293904368" stroke="lightgray" x1="328.53873482453645" y1="189.56351361326898" x2="358.1360991200049" y2="187.65496767432631"></line><line stroke-width="1.3794936624242582" stroke="lightgray" x1="322.15887571731923" y1="224.26359345360964" x2="270.07124626127177" y2="203.48656081770875"></line><line stroke-width="0.9754493233040589" stroke="lightgray" x1="322.15887571731923" y1="224.26359345360964" x2="379.2765269441759" y2="208.58610520964206"></line><line stroke-width="0.3982255186730141" stroke="lightgray" x1="322.15887571731923" y1="224.26359345360964" x2="245.10315434637783" y2="241.50506147728308"></line><line stroke-width="0.3982255186730141" stroke="lightgray" x1="322.15887571731923" y1="224.26359345360964" x2="268.96072235453875" y2="246.70230855797254"></line><line stroke-width="0.6897468312121291" stroke="lightgray" x1="322.15887571731923" y1="224.26359345360964" x2="358.1360991200049" y2="187.65496767432631"></line><line stroke-width="0.9754493233040589" stroke="lightgray" x1="358.1360991200049" y1="187.65496767432631" x2="379.2765269441759" y2="208.58610520964206"></line><line stroke-width="0.3982255186730141" stroke="lightgray" x1="270.4690631911937" y1="167.68387053585704" x2="270.07124626127177" y2="203.48656081770875"></line><line stroke-width="1.5423208018553944" stroke="lightgray" x1="245.10315434637783" y1="241.50506147728308" x2="216.5962560268529" y2="236.21754647755222"></line><line stroke-width="0.3982255186730141" stroke="lightgray" x1="245.10315434637783" y1="241.50506147728308" x2="182.92022537193733" y2="274.4422536227547"></line><line stroke-width="0.3982255186730141" stroke="lightgray" x1="245.10315434637783" y1="241.50506147728308" x2="215.7000311183505" y2="262.85558833734945"></line><line stroke-width="0.7964510373460282" stroke="lightgray" x1="245.10315434637783" y1="241.50506147728308" x2="268.96072235453875" y2="246.70230855797254"></line><line stroke-width="1.1946765560190422" stroke="lightgray" x1="245.10315434637783" y1="241.50506147728308" x2="270.07124626127177" y2="203.48656081770875"></line><line stroke-width="0.6897468312121291" stroke="lightgray" x1="245.10315434637783" y1="241.50506147728308" x2="209.11955582461172" y2="217.74278020084003"></line><line stroke-width="1.3794936624242582" stroke="lightgray" x1="245.10315434637783" y1="241.50506147728308" x2="240.70248360785283" y2="208.45868951643484"></line><line stroke-width="1.3207646273830558" stroke="lightgray" x1="270.07124626127177" y1="203.48656081770875" x2="216.5962560268529" y2="236.21754647755222"></line><line stroke-width="0.3982255186730141" stroke="lightgray" x1="270.07124626127177" y1="203.48656081770875" x2="209.11955582461172" y2="217.74278020084003"></line><line stroke-width="1.1263518587808736" stroke="lightgray" x1="270.07124626127177" y1="203.48656081770875" x2="240.70248360785283" y2="208.45868951643484"></line><line stroke-width="0.6897468312121291" stroke="lightgray" x1="270.07124626127177" y1="203.48656081770875" x2="268.96072235453875" y2="246.70230855797254"></line><line stroke-width="0.5631759293904368" stroke="lightgray" x1="240.70248360785283" y1="208.45868951643484" x2="216.5962560268529" y2="236.21754647755222"></line><line stroke-width="0.5631759293904368" stroke="lightgray" x1="240.70248360785283" y1="208.45868951643484" x2="268.96072235453875" y2="246.70230855797254"></line><line stroke-width="0.5631759293904368" stroke="lightgray" x1="268.96072235453875" y1="246.70230855797254" x2="215.7000311183505" y2="262.85558833734945"></line><line stroke-width="0.5631759293904368" stroke="lightgray" x1="268.96072235453875" y1="246.70230855797254" x2="216.5962560268529" y2="236.21754647755222"></line><line stroke-width="0.5631759293904368" stroke="lightgray" x1="268.96072235453875" y1="246.70230855797254" x2="182.92022537193733" y2="274.4422536227547"></line><line stroke-width="2.8438990400226847" stroke="lightgray" x1="215.7000311183505" y1="262.85558833734945" x2="182.92022537193733" y2="274.4422536227547"></line><line stroke-width="2.422311263592784" stroke="lightgray" x1="215.7000311183505" y1="262.85558833734945" x2="216.5962560268529" y2="236.21754647755222"></line><line stroke-width="1.735824792634738" stroke="lightgray" x1="215.7000311183505" y1="262.85558833734945" x2="209.11955582461172" y2="217.74278020084003"></line><line stroke-width="1.3207646273830558" stroke="lightgray" x1="215.7000311183505" y1="262.85558833734945" x2="173.0200514855765" y2="243.04791418958746"></line><line stroke-width="1.6419258763052151" stroke="lightgray" x1="182.92022537193733" y1="274.4422536227547" x2="106.89057296737813" y2="324.08134647859936"></line><line stroke-width="1.9911275933650705" stroke="lightgray" x1="182.92022537193733" y1="274.4422536227547" x2="143.6175014967175" y2="270.3740372420477"></line><line stroke-width="2.0692404936363875" stroke="lightgray" x1="182.92022537193733" y1="274.4422536227547" x2="216.5962560268529" y2="236.21754647755222"></line><line stroke-width="1.5423208018553944" stroke="lightgray" x1="182.92022537193733" y1="274.4422536227547" x2="173.0200514855765" y2="243.04791418958746"></line><line stroke-width="0.3982255186730141" stroke="lightgray" x1="182.92022537193733" y1="274.4422536227547" x2="209.11955582461172" y2="217.74278020084003"></line><line stroke-width="0.3982255186730141" stroke="lightgray" x1="182.92022537193733" y1="274.4422536227547" x2="137.80123891001676" y2="309.7687383716746"></line><line stroke-width="2.1811709955140457" stroke="lightgray" x1="143.6175014967175" y1="270.3740372420477" x2="137.80123891001676" y2="309.7687383716746"></line><line stroke-width="0.7964510373460282" stroke="lightgray" x1="143.6175014967175" y1="270.3740372420477" x2="173.0200514855765" y2="243.04791418958746"></line><line stroke-width="0.5631759293904368" stroke="lightgray" x1="216.5962560268529" y1="236.21754647755222" x2="209.11955582461172" y2="217.74278020084003"></line><line stroke-width="0.3982255186730141" stroke="lightgray" x1="216.5962560268529" y1="236.21754647755222" x2="173.0200514855765" y2="243.04791418958746"></line><line stroke-width="1.5423208018553944" stroke="lightgray" x1="106.89057296737813" y1="324.08134647859936" x2="81.99286424222565" y2="372.51402466442346"></line><line stroke-width="0.8904593301279714" stroke="lightgray" x1="106.89057296737813" y1="324.08134647859936" x2="72.48822124139296" y2="330.9101203277106"></line><line stroke-width="1.0536056881285036" stroke="lightgray" x1="106.89057296737813" y1="324.08134647859936" x2="65.14976435575711" y2="349.1026646843626"></line><line stroke-width="2.1072113762570073" stroke="lightgray" x1="106.89057296737813" y1="324.08134647859936" x2="102.24202862698397" y2="352.8013777766881"></line><line stroke-width="0.5631759293904368" stroke="lightgray" x1="106.89057296737813" y1="324.08134647859936" x2="137.80123891001676" y2="309.7687383716746"></line><line stroke-width="0.9754493233040589" stroke="lightgray" x1="81.99286424222565" y1="372.51402466442346" x2="65.14976435575711" y2="349.1026646843626"></line><line stroke-width="1.0536056881285036" stroke="lightgray" x1="81.99286424222565" y1="372.51402466442346" x2="102.24202862698397" y2="352.8013777766881"></line><line stroke-width="1.2592996614086382" stroke="lightgray" x1="102.24202862698397" y1="352.8013777766881" x2="72.48822124139296" y2="330.9101203277106"></line><line stroke-width="0.6897468312121291" stroke="lightgray" x1="102.24202862698397" y1="352.8013777766881" x2="65.14976435575711" y2="349.1026646843626"></line><line stroke-width="1.3794936624242582" stroke="lightgray" x1="102.24202862698397" y1="352.8013777766881" x2="137.80123891001676" y2="309.7687383716746"></line></g><g class="nodes"><circle r="2.6415292547661116" fill="rgb(235, 243, 248)" stroke="black" stroke-width="1px" transform="translate(429.04497934441304,265.6869143422242)"></circle><circle r="2.2527037175617473" fill="rgb(233, 242, 248)" stroke="black" stroke-width="1px" transform="translate(420.7739733222294,230.72730420744625)"></circle><circle r="1.5929020746920564" fill="rgb(237, 245, 249)" stroke="black" stroke-width="1px" transform="translate(456.97825169002067,238.63566778822903)"></circle><circle r="1.3794936624242582" fill="rgb(246, 251, 252)" stroke="black" stroke-width="1px" transform="translate(458.3377642385067,255.2939571405759)"></circle><circle r="0.7964510373460282" fill="rgb(190, 210, 230)" stroke="black" stroke-width="1px" transform="translate(377.80459631324504,245.47469400333432)"></circle><circle r="2.6415292547661116" fill="rgb(159, 184, 216)" stroke="black" stroke-width="1px" transform="translate(351.1061414149411,227.42372114367478)"></circle><circle r="2.5185993228172765" fill="rgb(155, 178, 213)" stroke="black" stroke-width="1px" transform="translate(328.53873482453645,189.56351361326898)"></circle><circle r="2.5185993228172765" fill="rgb(149, 168, 207)" stroke="black" stroke-width="1px" transform="translate(322.15887571731923,224.26359345360964)"></circle><circle r="2.2527037175617473" fill="rgb(160, 184, 216)" stroke="black" stroke-width="1px" transform="translate(358.1360991200049,187.65496767432631)"></circle><circle r="1.9508986466081177" fill="rgb(160, 185, 217)" stroke="black" stroke-width="1px" transform="translate(379.2765269441759,208.58610520964206)"></circle><circle r="0.7964510373460282" fill="rgb(143, 151, 199)" stroke="black" stroke-width="1px" transform="translate(270.4690631911937,167.68387053585704)"></circle><circle r="2.6415292547661116" fill="rgb(139, 109, 178)" stroke="black" stroke-width="1px" transform="translate(245.10315434637783,241.50506147728308)"></circle><circle r="2.6415292547661116" fill="rgb(140, 122, 184)" stroke="black" stroke-width="1px" transform="translate(270.07124626127177,203.48656081770875)"></circle><circle r="1.5929020746920564" fill="rgb(140, 121, 184)" stroke="black" stroke-width="1px" transform="translate(240.70248360785283,208.45868951643484)"></circle><circle r="1.3794936624242582" fill="rgb(140, 113, 180)" stroke="black" stroke-width="1px" transform="translate(268.96072235453875,246.70230855797254)"></circle><circle r="6.5677035052208605" fill="rgb(136, 71, 159)" stroke="black" stroke-width="1px" transform="translate(215.7000311183505,262.85558833734945)"></circle><circle r="5.96009381417907" fill="rgb(135, 57, 151)" stroke="black" stroke-width="1px" transform="translate(182.92022537193733,274.4422536227547)"></circle><circle r="5.099774941158888" fill="rgb(131, 39, 139)" stroke="black" stroke-width="1px" transform="translate(143.6175014967175,270.3740372420477)"></circle><circle r="5.037198645634553" fill="rgb(137, 78, 163)" stroke="black" stroke-width="1px" transform="translate(216.5962560268529,236.21754647755222)"></circle><circle r="3.471649585269476" fill="rgb(137, 79, 163)" stroke="black" stroke-width="1px" transform="translate(209.11955582461172,217.74278020084003)"></circle><circle r="2.980046907089535" fill="rgb(135, 62, 154)" stroke="black" stroke-width="1px" transform="translate(173.0200514855765,243.04791418958746)"></circle><circle r="6.169283207421578" fill="rgb(110, 12, 108)" stroke="black" stroke-width="1px" transform="translate(106.89057296737813,324.08134647859936)"></circle><circle r="5.906638978211386" fill="rgb(90, 4, 87)" stroke="black" stroke-width="1px" transform="translate(81.99286424222565,372.51402466442346)"></circle><circle r="4.844622527185568" fill="rgb(107, 10, 104)" stroke="black" stroke-width="1px" transform="translate(102.24202862698397,352.8013777766881)"></circle><circle r="4.644067685364329" fill="rgb(126, 27, 128)" stroke="black" stroke-width="1px" transform="translate(137.80123891001676,309.7687383716746)"></circle><circle r="3.2838517526104303" fill="rgb(90, 4, 87)" stroke="black" stroke-width="1px" transform="translate(65.14976435575711,349.1026646843626)"></circle><circle r="2.6415292547661116" fill="rgb(108, 11, 105)" stroke="black" stroke-width="1px" transform="translate(72.48822124139296,330.9101203277106)"></circle></g></g><g><text x="505" y="495" font-family="sans-serif" text-anchor="end" font-size="10px" fill="red">27 nodes</text><text x="505" y="505" font-family="sans-serif" text-anchor="end" font-size="10px" fill="red">66 edges</text></g></svg>