<svg height="512" width="512" style="border-style: solid; border-width: 1px; cursor: auto;" id="figure"><g transform="translate(109.88303853404946,94.09823533188646) scale(0.5109552583377314)"><g class="links"><line stroke-width="3.094476090192398" stroke="lightgray" x1="218.33979712895552" y1="244.01323375658606" x2="290.5001081377612" y2="238.09228039918798"></line><line stroke-width="3.245513903844763" stroke="lightgray" x1="218.33979712895552" y1="244.01323375658606" x2="196.9802388362159" y2="270.6251610858262"></line><line stroke-width="0.9785592609940611" stroke="lightgray" x1="218.33979712895552" y1="244.01323375658606" x2="67.75214929059058" y2="256.1277510133234"></line><line stroke-width="5.178048895458868" stroke="lightgray" x1="218.33979712895552" y1="244.01323375658606" x2="318.59757180743856" y2="224.28554553732204"></line><line stroke-width="3.789943721107036" stroke="lightgray" x1="218.33979712895552" y1="244.01323375658606" x2="162.29061600600514" y2="196.78762989560485"></line><line stroke-width="0.9785592609940611" stroke="lightgray" x1="218.33979712895552" y1="244.01323375658606" x2="195.1887823521108" y2="210.9817039977825"></line><line stroke-width="1.3838917784835945" stroke="lightgray" x1="218.33979712895552" y1="244.01323375658606" x2="168.9451681657218" y2="250.81444848522287"></line><line stroke-width="0.9785592609940611" stroke="lightgray" x1="218.33979712895552" y1="244.01323375658606" x2="244.4628982611473" y2="255.96060348324505"></line><line stroke-width="1.9571185219881222" stroke="lightgray" x1="218.33979712895552" y1="244.01323375658606" x2="287.2927717108439" y2="262.01853038163864"></line><line stroke-width="1.3838917784835945" stroke="lightgray" x1="218.33979712895552" y1="244.01323375658606" x2="216.48589515332532" y2="291.3164616316316"></line><line stroke-width="0.9785592609940611" stroke="lightgray" x1="218.33979712895552" y1="244.01323375658606" x2="269.0317756977822" y2="226.52311679178825"></line><line stroke-width="0.9785592609940611" stroke="lightgray" x1="218.33979712895552" y1="244.01323375658606" x2="271.91421542935467" y2="277.69165155186886"></line><line stroke-width="0.9785592609940611" stroke="lightgray" x1="218.33979712895552" y1="244.01323375658606" x2="243.29142629423276" y2="270.9437754365008"></line><line stroke-width="3.3898287165175347" stroke="lightgray" x1="196.9802388362159" y1="270.6251610858262" x2="290.5001081377612" y2="238.09228039918798"></line><line stroke-width="1.3838917784835945" stroke="lightgray" x1="196.9802388362159" y1="270.6251610858262" x2="244.4628982611473" y2="255.96060348324505"></line><line stroke-width="1.6949143582587674" stroke="lightgray" x1="196.9802388362159" y1="270.6251610858262" x2="318.59757180743856" y2="224.28554553732204"></line><line stroke-width="1.9571185219881222" stroke="lightgray" x1="196.9802388362159" y1="270.6251610858262" x2="271.91421542935467" y2="277.69165155186886"></line><line stroke-width="5.084743074776302" stroke="lightgray" x1="196.9802388362159" y1="270.6251610858262" x2="67.75214929059058" y2="256.1277510133234"></line><line stroke-width="0.9785592609940611" stroke="lightgray" x1="196.9802388362159" y1="270.6251610858262" x2="129.5551644398652" y2="272.29320570569246"></line><line stroke-width="0.9785592609940611" stroke="lightgray" x1="196.9802388362159" y1="270.6251610858262" x2="125.37706164496817" y2="287.87046567498606"></line><line stroke-width="0.9785592609940611" stroke="lightgray" x1="196.9802388362159" y1="270.6251610858262" x2="127.20139272575157" y2="260.13574099481525"></line><line stroke-width="1.9571185219881222" stroke="lightgray" x1="196.9802388362159" y1="270.6251610858262" x2="216.48589515332532" y2="291.3164616316316"></line><line stroke-width="0.9785592609940611" stroke="lightgray" x1="196.9802388362159" y1="270.6251610858262" x2="243.29142629423276" y2="270.9437754365008"></line><line stroke-width="0.9785592609940611" stroke="lightgray" x1="196.9802388362159" y1="270.6251610858262" x2="287.2927717108439" y2="262.01853038163864"></line><line stroke-width="2.767783556967189" stroke="lightgray" x1="271.91421542935467" y1="277.69165155186886" x2="290.5001081377612" y2="238.09228039918798"></line><line stroke-width="2.1881250275946793" stroke="lightgray" x1="271.91421542935467" y1="277.69165155186886" x2="367.0762566220645" y2="257.6131259336046"></line><line stroke-width="6.779657433035069" stroke="lightgray" x1="271.91421542935467" y1="277.69165155186886" x2="445.8478391051153" y2="281.5575758513224"></line><line stroke-width="2.589024447729434" stroke="lightgray" x1="271.91421542935467" y1="277.69165155186886" x2="318.59757180743856" y2="224.28554553732204"></line><line stroke-width="0.9785592609940611" stroke="lightgray" x1="271.91421542935467" y1="277.69165155186886" x2="364.7907889429683" y2="290.8027259167239"></line><line stroke-width="1.6949143582587674" stroke="lightgray" x1="271.91421542935467" y1="277.69165155186886" x2="287.2927717108439" y2="262.01853038163864"></line><line stroke-width="0.9785592609940611" stroke="lightgray" x1="271.91421542935467" y1="277.69165155186886" x2="168.9451681657218" y2="250.81444848522287"></line><line stroke-width="0.9785592609940611" stroke="lightgray" x1="271.91421542935467" y1="277.69165155186886" x2="67.75214929059058" y2="256.1277510133234"></line><line stroke-width="1.3838917784835945" stroke="lightgray" x1="290.5001081377612" y1="238.09228039918798" x2="244.4628982611473" y2="255.96060348324505"></line><line stroke-width="6.491027807689526" stroke="lightgray" x1="290.5001081377612" y1="238.09228039918798" x2="318.59757180743856" y2="224.28554553732204"></line><line stroke-width="0.9785592609940611" stroke="lightgray" x1="290.5001081377612" y1="238.09228039918798" x2="383.67863617476576" y2="193.060726775389"></line><line stroke-width="1.3838917784835945" stroke="lightgray" x1="290.5001081377612" y1="238.09228039918798" x2="445.8478391051153" y2="281.5575758513224"></line><line stroke-width="0.9785592609940611" stroke="lightgray" x1="290.5001081377612" y1="238.09228039918798" x2="378.8171319679575" y2="216.97015865685924"></line><line stroke-width="0.9785592609940611" stroke="lightgray" x1="290.5001081377612" y1="238.09228039918798" x2="243.29142629423276" y2="270.9437754365008"></line><line stroke-width="1.6949143582587674" stroke="lightgray" x1="290.5001081377612" y1="238.09228039918798" x2="162.29061600600514" y2="196.78762989560485"></line><line stroke-width="0.9785592609940611" stroke="lightgray" x1="290.5001081377612" y1="238.09228039918798" x2="249.01777340917002" y2="205.54409348182895"></line><line stroke-width="4.589849779687714" stroke="lightgray" x1="168.9451681657218" y1="250.81444848522287" x2="162.29061600600514" y2="196.78762989560485"></line><line stroke-width="1.3838917784835945" stroke="lightgray" x1="168.9451681657218" y1="250.81444848522287" x2="67.75214929059058" y2="256.1277510133234"></line><line stroke-width="7.828474087952489" stroke="lightgray" x1="318.59757180743856" y1="224.28554553732204" x2="383.67863617476576" y2="193.060726775389"></line><line stroke-width="1.3838917784835945" stroke="lightgray" x1="318.59757180743856" y1="224.28554553732204" x2="356.7772686701554" y2="182.87495720314553"></line><line stroke-width="4.034703194004874" stroke="lightgray" x1="318.59757180743856" y1="224.28554553732204" x2="378.8171319679575" y2="216.97015865685924"></line><line stroke-width="3.789943721107036" stroke="lightgray" x1="318.59757180743856" y1="224.28554553732204" x2="383.3379668931962" y2="243.03909629139991"></line><line stroke-width="5.952343606450991" stroke="lightgray" x1="318.59757180743856" y1="224.28554553732204" x2="287.7874571300601" y2="181.6760031803335"></line><line stroke-width="2.767783556967189" stroke="lightgray" x1="318.59757180743856" y1="224.28554553732204" x2="367.0762566220645" y2="257.6131259336046"></line><line stroke-width="1.3838917784835945" stroke="lightgray" x1="318.59757180743856" y1="224.28554553732204" x2="342.42578107325596" y2="168.96547662886604"></line><line stroke-width="2.1881250275946793" stroke="lightgray" x1="318.59757180743856" y1="224.28554553732204" x2="353.75838769231126" y2="229.65941857253526"></line><line stroke-width="2.3969708725104395" stroke="lightgray" x1="318.59757180743856" y1="224.28554553732204" x2="445.8478391051153" y2="281.5575758513224"></line><line stroke-width="0.9785592609940611" stroke="lightgray" x1="318.59757180743856" y1="224.28554553732204" x2="389.496935660299" y2="258.50935058164447"></line><line stroke-width="1.6949143582587674" stroke="lightgray" x1="318.59757180743856" y1="224.28554553732204" x2="269.0317756977822" y2="226.52311679178825"></line><line stroke-width="1.3838917784835945" stroke="lightgray" x1="318.59757180743856" y1="224.28554553732204" x2="321.00622665127673" y2="187.56454351170734"></line><line stroke-width="1.3838917784835945" stroke="lightgray" x1="318.59757180743856" y1="224.28554553732204" x2="162.29061600600514" y2="196.78762989560485"></line><line stroke-width="0.9785592609940611" stroke="lightgray" x1="318.59757180743856" y1="224.28554553732204" x2="249.01777340917002" y2="205.54409348182895"></line><line stroke-width="0.9785592609940611" stroke="lightgray" x1="318.59757180743856" y1="224.28554553732204" x2="350.026704655411" y2="199.57769449955208"></line><line stroke-width="1.6949143582587674" stroke="lightgray" x1="318.59757180743856" y1="224.28554553732204" x2="287.2927717108439" y2="262.01853038163864"></line><line stroke-width="2.1881250275946793" stroke="lightgray" x1="162.29061600600514" y1="196.78762989560485" x2="5.521393701189947" y2="201.70006012787613"></line><line stroke-width="4.034703194004874" stroke="lightgray" x1="162.29061600600514" y1="196.78762989560485" x2="28.230636585841285" y2="189.0113484783326"></line><line stroke-width="2.589024447729434" stroke="lightgray" x1="162.29061600600514" y1="196.78762989560485" x2="195.1887823521108" y2="210.9817039977825"></line><line stroke-width="5.178048895458868" stroke="lightgray" x1="162.29061600600514" y1="196.78762989560485" x2="217.93352051207566" y2="161.24830801936315"></line><line stroke-width="1.6949143582587674" stroke="lightgray" x1="162.29061600600514" y1="196.78762989560485" x2="144.33007322900315" y2="162.23475170891885"></line><line stroke-width="1.3838917784835945" stroke="lightgray" x1="162.29061600600514" y1="196.78762989560485" x2="155.5575426342592" y2="157.36090984322837"></line><line stroke-width="2.3969708725104395" stroke="lightgray" x1="162.29061600600514" y1="196.78762989560485" x2="134.4510007176039" y2="172.68518653140362"></line><line stroke-width="4.376250055189359" stroke="lightgray" x1="162.29061600600514" y1="196.78762989560485" x2="287.7874571300601" y2="181.6760031803335"></line><line stroke-width="0.9785592609940611" stroke="lightgray" x1="162.29061600600514" y1="196.78762989560485" x2="182.90566183463054" y2="149.07295897443646"></line><line stroke-width="1.3838917784835945" stroke="lightgray" x1="162.29061600600514" y1="196.78762989560485" x2="169.24194960135435" y2="160.51248504700462"></line><line stroke-width="0.9785592609940611" stroke="lightgray" x1="162.29061600600514" y1="196.78762989560485" x2="75.84675166291267" y2="210.89113502792088"></line><line stroke-width="0.9785592609940611" stroke="lightgray" x1="162.29061600600514" y1="196.78762989560485" x2="249.01777340917002" y2="205.54409348182895"></line><line stroke-width="0.9785592609940611" stroke="lightgray" x1="162.29061600600514" y1="196.78762989560485" x2="23.90142125533305" y2="242.27508578054557"></line><line stroke-width="1.3838917784835945" stroke="lightgray" x1="445.8478391051153" y1="281.5575758513224" x2="545.8401242824175" y2="325.1451738928443"></line><line stroke-width="1.6949143582587674" stroke="lightgray" x1="445.8478391051153" y1="281.5575758513224" x2="367.0762566220645" y2="257.6131259336046"></line><line stroke-width="1.9571185219881222" stroke="lightgray" x1="445.8478391051153" y1="281.5575758513224" x2="389.496935660299" y2="258.50935058164447"></line><line stroke-width="1.9571185219881222" stroke="lightgray" x1="445.8478391051153" y1="281.5575758513224" x2="383.67863617476576" y2="193.060726775389"></line><line stroke-width="4.484321885505333" stroke="lightgray" x1="445.8478391051153" y1="281.5575758513224" x2="579.8809347397839" y2="315.1613940350647"></line><line stroke-width="1.9571185219881222" stroke="lightgray" x1="445.8478391051153" y1="281.5575758513224" x2="364.7907889429683" y2="290.8027259167239"></line><line stroke-width="1.9571185219881222" stroke="lightgray" x1="445.8478391051153" y1="281.5575758513224" x2="383.3379668931962" y2="243.03909629139991"></line><line stroke-width="2.589024447729434" stroke="lightgray" x1="445.8478391051153" y1="281.5575758513224" x2="491.61187201512536" y2="320.5201396075291"></line><line stroke-width="2.3969708725104395" stroke="lightgray" x1="445.8478391051153" y1="281.5575758513224" x2="521.9309581036485" y2="311.2032875868959"></line><line stroke-width="1.3838917784835945" stroke="lightgray" x1="445.8478391051153" y1="281.5575758513224" x2="520.9811656256287" y2="287.6238546781945"></line><line stroke-width="2.589024447729434" stroke="lightgray" x1="445.8478391051153" y1="281.5575758513224" x2="542.0051403641814" y2="349.4050089922086"></line><line stroke-width="2.3969708725104395" stroke="lightgray" x1="445.8478391051153" y1="281.5575758513224" x2="479.9330506985726" y2="273.0501445647008"></line><line stroke-width="0.9785592609940611" stroke="lightgray" x1="445.8478391051153" y1="281.5575758513224" x2="378.8171319679575" y2="216.97015865685924"></line><line stroke-width="0.9785592609940611" stroke="lightgray" x1="445.8478391051153" y1="281.5575758513224" x2="555.0431629368862" y2="277.832919485614"></line><line stroke-width="0.9785592609940611" stroke="lightgray" x1="67.75214929059058" y1="256.1277510133234" x2="75.84675166291267" y2="210.89113502792088"></line><line stroke-width="4.151675335450783" stroke="lightgray" x1="67.75214929059058" y1="256.1277510133234" x2="-44.207640224158006" y2="227.16358794704755"></line><line stroke-width="1.3838917784835945" stroke="lightgray" x1="67.75214929059058" y1="256.1277510133234" x2="61.989374827130874" y2="226.35251595899055"></line><line stroke-width="1.6949143582587674" stroke="lightgray" x1="67.75214929059058" y1="256.1277510133234" x2="125.37706164496817" y2="287.87046567498606"></line><line stroke-width="1.6949143582587674" stroke="lightgray" x1="67.75214929059058" y1="256.1277510133234" x2="127.20139272575157" y2="260.13574099481525"></line><line stroke-width="4.151675335450783" stroke="lightgray" x1="67.75214929059058" y1="256.1277510133234" x2="-33.27428555803379" y2="270.12346330775375"></line><line stroke-width="1.6949143582587674" stroke="lightgray" x1="67.75214929059058" y1="256.1277510133234" x2="23.90142125533305" y2="242.27508578054557"></line><line stroke-width="1.3838917784835945" stroke="lightgray" x1="67.75214929059058" y1="256.1277510133234" x2="-15.292996935320453" y2="224.1416711144655"></line><line stroke-width="1.6949143582587674" stroke="lightgray" x1="67.75214929059058" y1="256.1277510133234" x2="-55.39065451153039" y2="247.63984994730683"></line><line stroke-width="0.9785592609940611" stroke="lightgray" x1="67.75214929059058" y1="256.1277510133234" x2="41.212797119709535" y2="214.90168414544215"></line><line stroke-width="3.3898287165175347" stroke="lightgray" x1="67.75214929059058" y1="256.1277510133234" x2="28.230636585841285" y2="189.0113484783326"></line><line stroke-width="2.1881250275946793" stroke="lightgray" x1="67.75214929059058" y1="256.1277510133234" x2="129.5551644398652" y2="272.29320570569246"></line><line stroke-width="0.9785592609940611" stroke="lightgray" x1="67.75214929059058" y1="256.1277510133234" x2="-7.763335531865427" y2="267.72899140456616"></line><line stroke-width="2.767783556967189" stroke="lightgray" x1="67.75214929059058" y1="256.1277510133234" x2="5.521393701189947" y2="201.70006012787613"></line><line stroke-width="1.9571185219881222" stroke="lightgray" x1="67.75214929059058" y1="256.1277510133234" x2="-10.51996713368657" y2="245.69995521638123"></line><line stroke-width="0.9785592609940611" stroke="lightgray" x1="67.75214929059058" y1="256.1277510133234" x2="33.4813480199751" y2="231.7318282131341"></line><line stroke-width="1.3838917784835945" stroke="lightgray" x1="367.0762566220645" y1="257.6131259336046" x2="353.75838769231126" y2="229.65941857253526"></line><line stroke-width="2.767783556967189" stroke="lightgray" x1="367.0762566220645" y1="257.6131259336046" x2="383.67863617476576" y2="193.060726775389"></line><line stroke-width="4.034703194004874" stroke="lightgray" x1="367.0762566220645" y1="257.6131259336046" x2="378.8171319679575" y2="216.97015865685924"></line><line stroke-width="1.3838917784835945" stroke="lightgray" x1="287.2927717108439" y1="262.01853038163864" x2="299.81236117684216" y2="298.19749237514907"></line><line stroke-width="1.6949143582587674" stroke="lightgray" x1="287.2927717108439" y1="262.01853038163864" x2="383.3379668931962" y2="243.03909629139991"></line><line stroke-width="1.3838917784835945" stroke="lightgray" x1="383.67863617476576" y1="193.060726775389" x2="378.8171319679575" y2="216.97015865685924"></line><line stroke-width="0.9785592609940611" stroke="lightgray" x1="383.67863617476576" y1="193.060726775389" x2="417.921622365278" y2="168.2896287395893"></line><line stroke-width="0.9785592609940611" stroke="lightgray" x1="383.67863617476576" y1="193.060726775389" x2="356.7772686701554" y2="182.87495720314553"></line><line stroke-width="1.6949143582587674" stroke="lightgray" x1="383.67863617476576" y1="193.060726775389" x2="383.8424547483785" y2="143.93929395945867"></line><line stroke-width="0.9785592609940611" stroke="lightgray" x1="383.67863617476576" y1="193.060726775389" x2="383.3379668931962" y2="243.03909629139991"></line><line stroke-width="1.6949143582587674" stroke="lightgray" x1="383.67863617476576" y1="193.060726775389" x2="406.51144626304364" y2="157.45579486126354"></line><line stroke-width="0.9785592609940611" stroke="lightgray" x1="383.67863617476576" y1="193.060726775389" x2="287.7874571300601" y2="181.6760031803335"></line><line stroke-width="0.9785592609940611" stroke="lightgray" x1="287.7874571300601" y1="181.6760031803335" x2="378.8171319679575" y2="216.97015865685924"></line><line stroke-width="0.9785592609940611" stroke="lightgray" x1="287.7874571300601" y1="181.6760031803335" x2="217.93352051207566" y2="161.24830801936315"></line><line stroke-width="0.9785592609940611" stroke="lightgray" x1="378.8171319679575" y1="216.97015865685924" x2="420.0246162968433" y2="223.60473526263934"></line><line stroke-width="1.3838917784835945" stroke="lightgray" x1="378.8171319679575" y1="216.97015865685924" x2="356.7772686701554" y2="182.87495720314553"></line><line stroke-width="0.9785592609940611" stroke="lightgray" x1="378.8171319679575" y1="216.97015865685924" x2="414.9320174767325" y2="198.61422858972938"></line><line stroke-width="2.1881250275946793" stroke="lightgray" x1="378.8171319679575" y1="216.97015865685924" x2="350.026704655411" y2="199.57769449955208"></line><line stroke-width="6.779657433035069" stroke="lightgray" x1="383.3379668931962" y1="243.03909629139991" x2="420.0246162968433" y2="223.60473526263934"></line><line stroke-width="0.9785592609940611" stroke="lightgray" x1="28.230636585841285" y1="189.0113484783326" x2="41.212797119709535" y2="214.90168414544215"></line><line stroke-width="3.661433487294478" stroke="lightgray" x1="28.230636585841285" y1="189.0113484783326" x2="-15.292996935320453" y2="224.1416711144655"></line><line stroke-width="1.3838917784835945" stroke="lightgray" x1="28.230636585841285" y1="189.0113484783326" x2="5.521393701189947" y2="201.70006012787613"></line><line stroke-width="2.1881250275946793" stroke="lightgray" x1="28.230636585841285" y1="189.0113484783326" x2="-44.207640224158006" y2="227.16358794704755"></line><line stroke-width="1.3838917784835945" stroke="lightgray" x1="28.230636585841285" y1="189.0113484783326" x2="-22.40770008795964" y2="185.56306594960213"></line><line stroke-width="0.9785592609940611" stroke="lightgray" x1="28.230636585841285" y1="189.0113484783326" x2="-10.51996713368657" y2="245.69995521638123"></line><line stroke-width="0.9785592609940611" stroke="lightgray" x1="28.230636585841285" y1="189.0113484783326" x2="2.7425865090140267" y2="157.9352748248827"></line><line stroke-width="2.3969708725104395" stroke="lightgray" x1="217.93352051207566" y1="161.24830801936315" x2="182.90566183463054" y2="149.07295897443646"></line><line stroke-width="0.9785592609940611" stroke="lightgray" x1="-44.207640224158006" y1="227.16358794704755" x2="-123.37170161818598" y2="253.39835532696637"></line><line stroke-width="4.265440928938956" stroke="lightgray" x1="-44.207640224158006" y1="227.16358794704755" x2="-15.292996935320453" y2="224.1416711144655"></line><line stroke-width="2.767783556967189" stroke="lightgray" x1="-44.207640224158006" y1="227.16358794704755" x2="-33.27428555803379" y2="270.12346330775375"></line><line stroke-width="1.6949143582587674" stroke="lightgray" x1="-44.207640224158006" y1="227.16358794704755" x2="-102.6657405493122" y2="260.052533500313"></line><line stroke-width="2.1881250275946793" stroke="lightgray" x1="-44.207640224158006" y1="227.16358794704755" x2="-80.80627730141248" y2="245.1060464572786"></line><line stroke-width="0.9785592609940611" stroke="lightgray" x1="-44.207640224158006" y1="227.16358794704755" x2="-22.40770008795964" y2="185.56306594960213"></line><line stroke-width="1.6949143582587674" stroke="lightgray" x1="5.521393701189947" y1="201.70006012787613" x2="2.7425865090140267" y2="157.9352748248827"></line><line stroke-width="2.3969708725104395" stroke="lightgray" x1="5.521393701189947" y1="201.70006012787613" x2="33.4813480199751" y2="231.7318282131341"></line><line stroke-width="1.9571185219881222" stroke="lightgray" x1="5.521393701189947" y1="201.70006012787613" x2="41.212797119709535" y2="214.90168414544215"></line><line stroke-width="2.589024447729434" stroke="lightgray" x1="5.521393701189947" y1="201.70006012787613" x2="-15.292996935320453" y2="224.1416711144655"></line><line stroke-width="1.3838917784835945" stroke="lightgray" x1="5.521393701189947" y1="201.70006012787613" x2="-80.80627730141248" y2="245.1060464572786"></line><line stroke-width="0.9785592609940611" stroke="lightgray" x1="5.521393701189947" y1="201.70006012787613" x2="-102.1329341336808" y2="210.94378339248829"></line><line stroke-width="4.589849779687714" stroke="lightgray" x1="-10.51996713368657" y1="245.69995521638123" x2="-55.39065451153039" y2="247.63984994730683"></line><line stroke-width="0.9785592609940611" stroke="lightgray" x1="-10.51996713368657" y1="245.69995521638123" x2="-80.80627730141248" y2="245.1060464572786"></line><line stroke-width="0.9785592609940611" stroke="lightgray" x1="-10.51996713368657" y1="245.69995521638123" x2="-15.292996935320453" y2="224.1416711144655"></line><line stroke-width="2.1881250275946793" stroke="lightgray" x1="23.90142125533305" y1="242.27508578054557" x2="-15.292996935320453" y2="224.1416711144655"></line><line stroke-width="1.6949143582587674" stroke="lightgray" x1="23.90142125533305" y1="242.27508578054557" x2="-80.80627730141248" y2="245.1060464572786"></line><line stroke-width="2.767783556967189" stroke="lightgray" x1="23.90142125533305" y1="242.27508578054557" x2="-33.27428555803379" y2="270.12346330775375"></line><line stroke-width="0.9785592609940611" stroke="lightgray" x1="521.9309581036485" y1="311.2032875868959" x2="558.6746544993393" y2="309.4152636725328"></line><line stroke-width="2.3969708725104395" stroke="lightgray" x1="521.9309581036485" y1="311.2032875868959" x2="542.0051403641814" y2="349.4050089922086"></line><line stroke-width="1.6949143582587674" stroke="lightgray" x1="521.9309581036485" y1="311.2032875868959" x2="579.8809347397839" y2="315.1613940350647"></line><line stroke-width="1.6949143582587674" stroke="lightgray" x1="545.8401242824175" y1="325.1451738928443" x2="579.8809347397839" y2="315.1613940350647"></line><line stroke-width="0.9785592609940611" stroke="lightgray" x1="545.8401242824175" y1="325.1451738928443" x2="635.9906891255544" y2="382.3950997623248"></line><line stroke-width="1.9571185219881222" stroke="lightgray" x1="545.8401242824175" y1="325.1451738928443" x2="555.0431629368862" y2="277.832919485614"></line><line stroke-width="0.9785592609940611" stroke="lightgray" x1="491.61187201512536" y1="320.5201396075291" x2="542.0051403641814" y2="349.4050089922086"></line><line stroke-width="2.1881250275946793" stroke="lightgray" x1="520.9811656256287" y1="287.6238546781945" x2="579.8809347397839" y2="315.1613940350647"></line><line stroke-width="0.9785592609940611" stroke="lightgray" x1="520.9811656256287" y1="287.6238546781945" x2="555.0431629368862" y2="277.832919485614"></line><line stroke-width="1.6949143582587674" stroke="lightgray" x1="342.42578107325596" y1="168.96547662886604" x2="383.8424547483785" y2="143.93929395945867"></line><line stroke-width="1.6949143582587674" stroke="lightgray" x1="75.84675166291267" y1="210.89113502792088" x2="-15.292996935320453" y2="224.1416711144655"></line><line stroke-width="1.9571185219881222" stroke="lightgray" x1="-7.763335531865427" y1="267.72899140456616" x2="-80.80627730141248" y2="245.1060464572786"></line><line stroke-width="0.9785592609940611" stroke="lightgray" x1="-7.763335531865427" y1="267.72899140456616" x2="-33.27428555803379" y2="270.12346330775375"></line><line stroke-width="0.9785592609940611" stroke="lightgray" x1="125.37706164496817" y1="287.87046567498606" x2="127.20139272575157" y2="260.13574099481525"></line><line stroke-width="3.528245591594236" stroke="lightgray" x1="579.8809347397839" y1="315.1613940350647" x2="597.2301974515078" y2="275.5854421249204"></line><line stroke-width="2.3969708725104395" stroke="lightgray" x1="579.8809347397839" y1="315.1613940350647" x2="618.5411297436426" y2="320.0400351446136"></line><line stroke-width="1.6949143582587674" stroke="lightgray" x1="579.8809347397839" y1="315.1613940350647" x2="603.7899336369239" y2="286.85269708358254"></line><line stroke-width="1.3838917784835945" stroke="lightgray" x1="579.8809347397839" y1="315.1613940350647" x2="667.8426780809043" y2="395.8811849754219"></line><line stroke-width="1.3838917784835945" stroke="lightgray" x1="579.8809347397839" y1="315.1613940350647" x2="555.0431629368862" y2="277.832919485614"></line><line stroke-width="0.9785592609940611" stroke="lightgray" x1="-15.292996935320453" y1="224.1416711144655" x2="-55.39065451153039" y2="247.63984994730683"></line><line stroke-width="1.9571185219881222" stroke="lightgray" x1="-15.292996935320453" y1="224.1416711144655" x2="-80.80627730141248" y2="245.1060464572786"></line><line stroke-width="0.9785592609940611" stroke="lightgray" x1="-15.292996935320453" y1="224.1416711144655" x2="-102.6657405493122" y2="260.052533500313"></line><line stroke-width="0.9785592609940611" stroke="lightgray" x1="-80.80627730141248" y1="245.1060464572786" x2="-55.39065451153039" y2="247.63984994730683"></line><line stroke-width="3.245513903844763" stroke="lightgray" x1="-80.80627730141248" y1="245.1060464572786" x2="-123.37170161818598" y2="253.39835532696637"></line><line stroke-width="3.094476090192398" stroke="lightgray" x1="-80.80627730141248" y1="245.1060464572786" x2="-153.56870777848386" y2="216.9048715036893"></line><line stroke-width="2.1881250275946793" stroke="lightgray" x1="-80.80627730141248" y1="245.1060464572786" x2="-102.1329341336808" y2="210.94378339248829"></line><line stroke-width="1.3838917784835945" stroke="lightgray" x1="-80.80627730141248" y1="245.1060464572786" x2="-146.97622849014112" y2="244.4332253564038"></line><line stroke-width="0.9785592609940611" stroke="lightgray" x1="-80.80627730141248" y1="245.1060464572786" x2="-122.46277409074119" y2="235.90850670105368"></line><line stroke-width="3.3898287165175347" stroke="lightgray" x1="-80.80627730141248" y1="245.1060464572786" x2="-102.6657405493122" y2="260.052533500313"></line><line stroke-width="0.9785592609940611" stroke="lightgray" x1="-80.80627730141248" y1="245.1060464572786" x2="-140.76021418521688" y2="276.8716936931295"></line><line stroke-width="1.6949143582587674" stroke="lightgray" x1="-80.80627730141248" y1="245.1060464572786" x2="-119.89605595386925" y2="290.7097546615613"></line><line stroke-width="0.9785592609940611" stroke="lightgray" x1="-80.80627730141248" y1="245.1060464572786" x2="-121.56535408198567" y2="215.5348627756801"></line><line stroke-width="0.9785592609940611" stroke="lightgray" x1="-80.80627730141248" y1="245.1060464572786" x2="-33.27428555803379" y2="270.12346330775375"></line><line stroke-width="2.3969708725104395" stroke="lightgray" x1="-33.27428555803379" y1="270.12346330775375" x2="-102.6657405493122" y2="260.052533500313"></line><line stroke-width="2.3969708725104395" stroke="lightgray" x1="-55.39065451153039" y1="247.63984994730683" x2="-153.56870777848386" y2="216.9048715036893"></line><line stroke-width="1.3838917784835945" stroke="lightgray" x1="-55.39065451153039" y1="247.63984994730683" x2="-123.37170161818598" y2="253.39835532696637"></line><line stroke-width="0.9785592609940611" stroke="lightgray" x1="542.0051403641814" y1="349.4050089922086" x2="667.8426780809043" y2="395.8811849754219"></line><line stroke-width="1.3838917784835945" stroke="lightgray" x1="542.0051403641814" y1="349.4050089922086" x2="563.3383214035358" y2="381.03121693337425"></line><line stroke-width="2.3969708725104395" stroke="lightgray" x1="555.0431629368862" y1="277.832919485614" x2="597.2301974515078" y2="275.5854421249204"></line><line stroke-width="1.3838917784835945" stroke="lightgray" x1="555.0431629368862" y1="277.832919485614" x2="603.7899336369239" y2="286.85269708358254"></line><line stroke-width="1.6949143582587674" stroke="lightgray" x1="635.9906891255544" y1="382.3950997623248" x2="695.5633409546443" y2="422.11050249254185"></line><line stroke-width="2.1881250275946793" stroke="lightgray" x1="635.9906891255544" y1="382.3950997623248" x2="667.8426780809043" y2="395.8811849754219"></line><line stroke-width="1.3838917784835945" stroke="lightgray" x1="-123.37170161818598" y1="253.39835532696637" x2="-140.76021418521688" y2="276.8716936931295"></line><line stroke-width="4.151675335450783" stroke="lightgray" x1="-123.37170161818598" y1="253.39835532696637" x2="-119.89605595386925" y2="290.7097546615613"></line><line stroke-width="0.9785592609940611" stroke="lightgray" x1="-123.37170161818598" y1="253.39835532696637" x2="-102.6657405493122" y2="260.052533500313"></line><line stroke-width="1.9571185219881222" stroke="lightgray" x1="-123.37170161818598" y1="253.39835532696637" x2="-102.1329341336808" y2="210.94378339248829"></line><line stroke-width="1.9571185219881222" stroke="lightgray" x1="-123.37170161818598" y1="253.39835532696637" x2="-146.97622849014112" y2="244.4332253564038"></line><line stroke-width="1.3838917784835945" stroke="lightgray" x1="-123.37170161818598" y1="253.39835532696637" x2="-153.56870777848386" y2="216.9048715036893"></line><line stroke-width="1.3838917784835945" stroke="lightgray" x1="-153.56870777848386" y1="216.9048715036893" x2="-195.1842656776767" y2="189.12638928452486"></line><line stroke-width="0.9785592609940611" stroke="lightgray" x1="-153.56870777848386" y1="216.9048715036893" x2="-203.83491215408554" y2="215.91010579634528"></line><line stroke-width="2.1881250275946793" stroke="lightgray" x1="-153.56870777848386" y1="216.9048715036893" x2="-146.97622849014112" y2="244.4332253564038"></line><line stroke-width="1.3838917784835945" stroke="lightgray" x1="-153.56870777848386" y1="216.9048715036893" x2="-102.6657405493122" y2="260.052533500313"></line><line stroke-width="1.3838917784835945" stroke="lightgray" x1="-153.56870777848386" y1="216.9048715036893" x2="-102.1329341336808" y2="210.94378339248829"></line><line stroke-width="1.3838917784835945" stroke="lightgray" x1="-153.56870777848386" y1="216.9048715036893" x2="-121.56535408198567" y2="215.5348627756801"></line><line stroke-width="0.9785592609940611" stroke="lightgray" x1="-102.6657405493122" y1="260.052533500313" x2="-102.1329341336808" y2="210.94378339248829"></line><line stroke-width="1.6949143582587674" stroke="lightgray" x1="-102.6657405493122" y1="260.052533500313" x2="-119.89605595386925" y2="290.7097546615613"></line><line stroke-width="2.767783556967189" stroke="lightgray" x1="-102.6657405493122" y1="260.052533500313" x2="-140.76021418521688" y2="276.8716936931295"></line><line stroke-width="0.9785592609940611" stroke="lightgray" x1="-102.6657405493122" y1="260.052533500313" x2="-146.97622849014112" y2="244.4332253564038"></line><line stroke-width="1.3838917784835945" stroke="lightgray" x1="-102.6657405493122" y1="260.052533500313" x2="-122.46277409074119" y2="235.90850670105368"></line><line stroke-width="4.034703194004874" stroke="lightgray" x1="667.8426780809043" y1="395.8811849754219" x2="695.5633409546443" y2="422.11050249254185"></line><line stroke-width="2.3969708725104395" stroke="lightgray" x1="667.8426780809043" y1="395.8811849754219" x2="742.3984141878375" y2="432.2597425119533"></line><line stroke-width="1.6949143582587674" stroke="lightgray" x1="667.8426780809043" y1="395.8811849754219" x2="724.6258251683124" y2="412.0925299564897"></line><line stroke-width="1.3838917784835945" stroke="lightgray" x1="667.8426780809043" y1="395.8811849754219" x2="717.7159160074877" y2="451.5228930026784"></line><line stroke-width="1.9571185219881222" stroke="lightgray" x1="-102.1329341336808" y1="210.94378339248829" x2="-146.97622849014112" y2="244.4332253564038"></line><line stroke-width="1.6949143582587674" stroke="lightgray" x1="-119.89605595386925" y1="290.7097546615613" x2="-140.76021418521688" y2="276.8716936931295"></line><line stroke-width="3.094476090192398" stroke="lightgray" x1="695.5633409546443" y1="422.11050249254185" x2="724.6258251683124" y2="412.0925299564897"></line><line stroke-width="3.094476090192398" stroke="lightgray" x1="695.5633409546443" y1="422.11050249254185" x2="742.3984141878375" y2="432.2597425119533"></line><line stroke-width="2.3969708725104395" stroke="lightgray" x1="695.5633409546443" y1="422.11050249254185" x2="717.7159160074877" y2="451.5228930026784"></line><line stroke-width="1.3838917784835945" stroke="lightgray" x1="-195.1842656776767" y1="189.12638928452486" x2="-203.83491215408554" y2="215.91010579634528"></line><line stroke-width="1.3838917784835945" stroke="lightgray" x1="742.3984141878375" y1="432.2597425119533" x2="776.9468515726994" y2="448.63574014150004"></line><line stroke-width="2.3969708725104395" stroke="lightgray" x1="742.3984141878375" y1="432.2597425119533" x2="724.6258251683124" y2="412.0925299564897"></line><line stroke-width="1.3838917784835945" stroke="lightgray" x1="742.3984141878375" y1="432.2597425119533" x2="717.7159160074877" y2="451.5228930026784"></line><line stroke-width="0.9785592609940611" stroke="lightgray" x1="724.6258251683124" y1="412.0925299564897" x2="717.7159160074877" y2="451.5228930026784"></line><line stroke-width="0.9785592609940611" stroke="lightgray" x1="717.7159160074877" y1="451.5228930026784" x2="739.667102767014" y2="482.4543139232831"></line></g><g class="nodes"><circle r="7.579887442214072" fill="rgb(235, 247, 229)" stroke="black" stroke-width="1px" transform="translate(218.33979712895552,244.01323375658606)"></circle><circle r="6.779657433035069" fill="rgb(236, 248, 230)" stroke="black" stroke-width="1px" transform="translate(196.9802388362159,270.6251610858262)"></circle><circle r="6.491027807689526" fill="rgb(236, 248, 230)" stroke="black" stroke-width="1px" transform="translate(271.91421542935467,277.69165155186886)"></circle><circle r="6.188952180384796" fill="rgb(236, 248, 230)" stroke="black" stroke-width="1px" transform="translate(290.5001081377612,238.09228039918798)"></circle><circle r="4.793941745020879" fill="rgb(236, 248, 230)" stroke="black" stroke-width="1px" transform="translate(168.9451681657218,250.81444848522287)"></circle><circle r="14.112982366376944" fill="rgb(220, 241, 214)" stroke="black" stroke-width="1px" transform="translate(318.59757180743856,224.28554553732204)"></circle><circle r="13.838917784835946" fill="rgb(220, 241, 214)" stroke="black" stroke-width="1px" transform="translate(162.29061600600514,196.78762989560485)"></circle><circle r="11.242789956260683" fill="rgb(218, 241, 213)" stroke="black" stroke-width="1px" transform="translate(445.8478391051153,281.5575758513224)"></circle><circle r="8.968643771010665" fill="rgb(219, 241, 214)" stroke="black" stroke-width="1px" transform="translate(67.75214929059058,256.1277510133234)"></circle><circle r="5.535567113934378" fill="rgb(218, 241, 213)" stroke="black" stroke-width="1px" transform="translate(367.0762566220645,257.6131259336046)"></circle><circle r="3.9142370439762444" fill="rgb(223, 243, 217)" stroke="black" stroke-width="1px" transform="translate(287.2927717108439,262.01853038163864)"></circle><circle r="2.767783556967189" fill="rgb(224, 243, 218)" stroke="black" stroke-width="1px" transform="translate(216.48589515332532,291.3164616316316)"></circle><circle r="1.9571185219881222" fill="rgb(222, 242, 216)" stroke="black" stroke-width="1px" transform="translate(243.29142629423276,270.9437754365008)"></circle><circle r="1.9571185219881222" fill="rgb(223, 243, 217)" stroke="black" stroke-width="1px" transform="translate(244.4628982611473,255.96060348324505)"></circle><circle r="8.968643771010665" fill="rgb(202, 234, 198)" stroke="black" stroke-width="1px" transform="translate(383.67863617476576,193.060726775389)"></circle><circle r="7.322866974588956" fill="rgb(206, 236, 201)" stroke="black" stroke-width="1px" transform="translate(287.7874571300601,181.6760031803335)"></circle><circle r="7.056491183188472" fill="rgb(203, 234, 199)" stroke="black" stroke-width="1px" transform="translate(378.8171319679575,216.97015865685924)"></circle><circle r="7.056491183188472" fill="rgb(200, 233, 197)" stroke="black" stroke-width="1px" transform="translate(383.3379668931962,243.03909629139991)"></circle><circle r="6.779657433035069" fill="rgb(205, 235, 201)" stroke="black" stroke-width="1px" transform="translate(28.230636585841285,189.0113484783326)"></circle><circle r="6.188952180384796" fill="rgb(201, 234, 198)" stroke="black" stroke-width="1px" transform="translate(217.93352051207566,161.24830801936315)"></circle><circle r="6.188952180384796" fill="rgb(198, 233, 196)" stroke="black" stroke-width="1px" transform="translate(-44.207640224158006,227.16358794704755)"></circle><circle r="5.871355565964367" fill="rgb(197, 232, 195)" stroke="black" stroke-width="1px" transform="translate(5.521393701189947,201.70006012787613)"></circle><circle r="3.9142370439762444" fill="rgb(195, 232, 194)" stroke="black" stroke-width="1px" transform="translate(-10.51996713368657,245.69995521638123)"></circle><circle r="3.9142370439762444" fill="rgb(199, 233, 197)" stroke="black" stroke-width="1px" transform="translate(23.90142125533305,242.27508578054557)"></circle><circle r="3.3898287165175347" fill="rgb(207, 236, 202)" stroke="black" stroke-width="1px" transform="translate(195.1887823521108,210.9817039977825)"></circle><circle r="3.3898287165175347" fill="rgb(199, 233, 196)" stroke="black" stroke-width="1px" transform="translate(521.9309581036485,311.2032875868959)"></circle><circle r="2.767783556967189" fill="rgb(201, 234, 198)" stroke="black" stroke-width="1px" transform="translate(545.8401242824175,325.1451738928443)"></circle><circle r="2.767783556967189" fill="rgb(207, 236, 202)" stroke="black" stroke-width="1px" transform="translate(353.75838769231126,229.65941857253526)"></circle><circle r="2.767783556967189" fill="rgb(208, 237, 203)" stroke="black" stroke-width="1px" transform="translate(491.61187201512536,320.5201396075291)"></circle><circle r="1.9571185219881222" fill="rgb(207, 236, 202)" stroke="black" stroke-width="1px" transform="translate(134.4510007176039,172.68518653140362)"></circle><circle r="1.9571185219881222" fill="rgb(209, 237, 204)" stroke="black" stroke-width="1px" transform="translate(479.9330506985726,273.0501445647008)"></circle><circle r="1.9571185219881222" fill="rgb(202, 234, 198)" stroke="black" stroke-width="1px" transform="translate(299.81236117684216,298.19749237514907)"></circle><circle r="1.9571185219881222" fill="rgb(190, 230, 192)" stroke="black" stroke-width="1px" transform="translate(520.9811656256287,287.6238546781945)"></circle><circle r="1.9571185219881222" fill="rgb(208, 237, 203)" stroke="black" stroke-width="1px" transform="translate(389.496935660299,258.50935058164447)"></circle><circle r="1.9571185219881222" fill="rgb(204, 235, 200)" stroke="black" stroke-width="1px" transform="translate(364.7907889429683,290.8027259167239)"></circle><circle r="1.9571185219881222" fill="rgb(209, 237, 204)" stroke="black" stroke-width="1px" transform="translate(321.00622665127673,187.56454351170734)"></circle><circle r="1.9571185219881222" fill="rgb(200, 233, 197)" stroke="black" stroke-width="1px" transform="translate(342.42578107325596,168.96547662886604)"></circle><circle r="1.9571185219881222" fill="rgb(204, 235, 200)" stroke="black" stroke-width="1px" transform="translate(75.84675166291267,210.89113502792088)"></circle><circle r="1.9571185219881222" fill="rgb(201, 234, 197)" stroke="black" stroke-width="1px" transform="translate(169.24194960135435,160.51248504700462)"></circle><circle r="1.9571185219881222" fill="rgb(205, 236, 201)" stroke="black" stroke-width="1px" transform="translate(-7.763335531865427,267.72899140456616)"></circle><circle r="1.9571185219881222" fill="rgb(209, 237, 204)" stroke="black" stroke-width="1px" transform="translate(249.01777340917002,205.54409348182895)"></circle><circle r="1.9571185219881222" fill="rgb(194, 231, 193)" stroke="black" stroke-width="1px" transform="translate(125.37706164496817,287.87046567498606)"></circle><circle r="1.9571185219881222" fill="rgb(211, 238, 205)" stroke="black" stroke-width="1px" transform="translate(129.5551644398652,272.29320570569246)"></circle><circle r="1.9571185219881222" fill="rgb(208, 237, 203)" stroke="black" stroke-width="1px" transform="translate(269.0317756977822,226.52311679178825)"></circle><circle r="9.587883490041758" fill="rgb(179, 225, 188)" stroke="black" stroke-width="1px" transform="translate(579.8809347397839,315.1613940350647)"></circle><circle r="8.069406388009748" fill="rgb(176, 224, 187)" stroke="black" stroke-width="1px" transform="translate(-15.292996935320453,224.1416711144655)"></circle><circle r="7.322866974588956" fill="rgb(177, 224, 187)" stroke="black" stroke-width="1px" transform="translate(-80.80627730141248,245.1060464572786)"></circle><circle r="5.871355565964367" fill="rgb(179, 225, 188)" stroke="black" stroke-width="1px" transform="translate(-33.27428555803379,270.12346330775375)"></circle><circle r="5.871355565964367" fill="rgb(173, 223, 187)" stroke="black" stroke-width="1px" transform="translate(-55.39065451153039,247.63984994730683)"></circle><circle r="5.871355565964367" fill="rgb(179, 225, 188)" stroke="black" stroke-width="1px" transform="translate(420.0246162968433,223.60473526263934)"></circle><circle r="3.9142370439762444" fill="rgb(186, 228, 190)" stroke="black" stroke-width="1px" transform="translate(542.0051403641814,349.4050089922086)"></circle><circle r="3.3898287165175347" fill="rgb(169, 222, 186)" stroke="black" stroke-width="1px" transform="translate(33.4813480199751,231.7318282131341)"></circle><circle r="3.3898287165175347" fill="rgb(165, 220, 186)" stroke="black" stroke-width="1px" transform="translate(383.8424547483785,143.93929395945867)"></circle><circle r="3.3898287165175347" fill="rgb(165, 220, 186)" stroke="black" stroke-width="1px" transform="translate(555.0431629368862,277.832919485614)"></circle><circle r="1.9571185219881222" fill="rgb(185, 228, 190)" stroke="black" stroke-width="1px" transform="translate(127.20139272575157,260.13574099481525)"></circle><circle r="1.9571185219881222" fill="rgb(186, 228, 190)" stroke="black" stroke-width="1px" transform="translate(350.026704655411,199.57769449955208)"></circle><circle r="1.9571185219881222" fill="rgb(183, 227, 189)" stroke="black" stroke-width="1px" transform="translate(635.9906891255544,382.3950997623248)"></circle><circle r="1.9571185219881222" fill="rgb(164, 220, 186)" stroke="black" stroke-width="1px" transform="translate(417.921622365278,168.2896287395893)"></circle><circle r="1.9571185219881222" fill="rgb(184, 227, 189)" stroke="black" stroke-width="1px" transform="translate(356.7772686701554,182.87495720314553)"></circle><circle r="1.9571185219881222" fill="rgb(182, 227, 189)" stroke="black" stroke-width="1px" transform="translate(-22.40770008795964,185.56306594960213)"></circle><circle r="1.9571185219881222" fill="rgb(166, 220, 186)" stroke="black" stroke-width="1px" transform="translate(414.9320174767325,198.61422858972938)"></circle><circle r="1.9571185219881222" fill="rgb(183, 227, 189)" stroke="black" stroke-width="1px" transform="translate(558.6746544993393,309.4152636725328)"></circle><circle r="1.9571185219881222" fill="rgb(175, 224, 187)" stroke="black" stroke-width="1px" transform="translate(2.7425865090140267,157.9352748248827)"></circle><circle r="1.9571185219881222" fill="rgb(188, 229, 191)" stroke="black" stroke-width="1px" transform="translate(182.90566183463054,149.07295897443646)"></circle><circle r="1.9571185219881222" fill="rgb(165, 220, 186)" stroke="black" stroke-width="1px" transform="translate(406.51144626304364,157.45579486126354)"></circle><circle r="1.9571185219881222" fill="rgb(186, 228, 190)" stroke="black" stroke-width="1px" transform="translate(61.989374827130874,226.35251595899055)"></circle><circle r="1.9571185219881222" fill="rgb(185, 228, 190)" stroke="black" stroke-width="1px" transform="translate(155.5575426342592,157.36090984322837)"></circle><circle r="1.9571185219881222" fill="rgb(188, 229, 191)" stroke="black" stroke-width="1px" transform="translate(41.212797119709535,214.90168414544215)"></circle><circle r="1.9571185219881222" fill="rgb(186, 228, 190)" stroke="black" stroke-width="1px" transform="translate(144.33007322900315,162.23475170891885)"></circle><circle r="5.871355565964367" fill="rgb(136, 209, 192)" stroke="black" stroke-width="1px" transform="translate(-123.37170161818598,253.39835532696637)"></circle><circle r="5.871355565964367" fill="rgb(136, 209, 192)" stroke="black" stroke-width="1px" transform="translate(-153.56870777848386,216.9048715036893)"></circle><circle r="5.535567113934378" fill="rgb(145, 212, 189)" stroke="black" stroke-width="1px" transform="translate(-102.6657405493122,260.052533500313)"></circle><circle r="5.178048895458868" fill="rgb(134, 208, 192)" stroke="black" stroke-width="1px" transform="translate(667.8426780809043,395.8811849754219)"></circle><circle r="4.793941745020879" fill="rgb(135, 208, 192)" stroke="black" stroke-width="1px" transform="translate(-102.1329341336808,210.94378339248829)"></circle><circle r="3.9142370439762444" fill="rgb(141, 211, 190)" stroke="black" stroke-width="1px" transform="translate(597.2301974515078,275.5854421249204)"></circle><circle r="1.9571185219881222" fill="rgb(134, 208, 192)" stroke="black" stroke-width="1px" transform="translate(563.3383214035358,381.03121693337425)"></circle><circle r="1.9571185219881222" fill="rgb(151, 215, 188)" stroke="black" stroke-width="1px" transform="translate(603.7899336369239,286.85269708358254)"></circle><circle r="1.9571185219881222" fill="rgb(157, 217, 187)" stroke="black" stroke-width="1px" transform="translate(618.5411297436426,320.0400351446136)"></circle><circle r="4.793941745020879" fill="rgb(108, 195, 201)" stroke="black" stroke-width="1px" transform="translate(-119.89605595386925,290.7097546615613)"></circle><circle r="3.9142370439762444" fill="rgb(108, 195, 201)" stroke="black" stroke-width="1px" transform="translate(695.5633409546443,422.11050249254185)"></circle><circle r="3.3898287165175347" fill="rgb(104, 193, 202)" stroke="black" stroke-width="1px" transform="translate(-140.76021418521688,276.8716936931295)"></circle><circle r="3.3898287165175347" fill="rgb(113, 198, 199)" stroke="black" stroke-width="1px" transform="translate(-146.97622849014112,244.4332253564038)"></circle><circle r="2.767783556967189" fill="rgb(90, 184, 205)" stroke="black" stroke-width="1px" transform="translate(-195.1842656776767,189.12638928452486)"></circle><circle r="1.9571185219881222" fill="rgb(108, 195, 201)" stroke="black" stroke-width="1px" transform="translate(-121.56535408198567,215.5348627756801)"></circle><circle r="1.9571185219881222" fill="rgb(112, 197, 200)" stroke="black" stroke-width="1px" transform="translate(-122.46277409074119,235.90850670105368)"></circle><circle r="4.376250055189359" fill="rgb(75, 173, 204)" stroke="black" stroke-width="1px" transform="translate(742.3984141878375,432.2597425119533)"></circle><circle r="3.9142370439762444" fill="rgb(73, 171, 204)" stroke="black" stroke-width="1px" transform="translate(724.6258251683124,412.0925299564897)"></circle><circle r="1.9571185219881222" fill="rgb(87, 183, 205)" stroke="black" stroke-width="1px" transform="translate(-203.83491215408554,215.91010579634528)"></circle><circle r="3.3898287165175347" fill="rgb(46, 144, 192)" stroke="black" stroke-width="1px" transform="translate(717.7159160074877,451.5228930026784)"></circle><circle r="2.767783556967189" fill="rgb(36, 133, 187)" stroke="black" stroke-width="1px" transform="translate(776.9468515726994,448.63574014150004)"></circle><circle r="1.9571185219881222" fill="rgb(8, 64, 129)" stroke="black" stroke-width="1px" transform="translate(739.667102767014,482.4543139232831)"></circle></g></g><g><text x="505" y="495" font-family="sans-serif" text-anchor="end" font-size="10px" fill="red">91 nodes</text><text x="505" y="505" font-family="sans-serif" text-anchor="end" font-size="10px" fill="red">220 edges</text></g></svg>