<svg height="512" width="512" style="border-style: solid; border-width: 1px; cursor: auto;" id="figure"><g transform="translate(-117.11636286955797,-121.78747737041846) scale(1.4284701833072808)"><g class="links"><line stroke-width="1.714764348186793" stroke="lightgray" x1="227.8987890868778" y1="119.62687844712778" x2="189.05204057090833" y2="127.32702959574577"></line><line stroke-width="0.9260785916227481" stroke="lightgray" x1="227.8987890868778" y1="119.62687844712778" x2="195.29057264399304" y2="93.25781331310347"></line><line stroke-width="0.3500248068478193" stroke="lightgray" x1="227.8987890868778" y1="119.62687844712778" x2="210.69896158092678" y2="90.75267522683257"></line><line stroke-width="0.4950098290112091" stroke="lightgray" x1="227.8987890868778" y1="119.62687844712778" x2="238.5103123539282" y2="178.6896958780373"></line><line stroke-width="0.3500248068478193" stroke="lightgray" x1="189.05204057090833" y1="127.32702959574577" x2="200.41423362481927" y2="193.1539253936534"></line><line stroke-width="0.3500248068478193" stroke="lightgray" x1="189.05204057090833" y1="127.32702959574577" x2="210.69896158092678" y2="90.75267522683257"></line><line stroke-width="0.3500248068478193" stroke="lightgray" x1="189.05204057090833" y1="127.32702959574577" x2="188.18564889681159" y2="166.9169684762677"></line><line stroke-width="0.7000496136956386" stroke="lightgray" x1="189.05204057090833" y1="127.32702959574577" x2="195.29057264399304" y2="93.25781331310347"></line><line stroke-width="0.3500248068478193" stroke="lightgray" x1="200.41423362481927" y1="193.1539253936534" x2="245.9058390740837" y2="254.09548915677703"></line><line stroke-width="0.9260785916227481" stroke="lightgray" x1="200.41423362481927" y1="193.1539253936534" x2="216.90015635967848" y2="162.65492261617769"></line><line stroke-width="0.6062607493699057" stroke="lightgray" x1="200.41423362481927" y1="193.1539253936534" x2="222.2912783373379" y2="207.42532417955695"></line><line stroke-width="0.9260785916227481" stroke="lightgray" x1="200.41423362481927" y1="193.1539253936534" x2="238.5103123539282" y2="178.6896958780373"></line><line stroke-width="0.9900196580224182" stroke="lightgray" x1="200.41423362481927" y1="193.1539253936534" x2="188.18564889681159" y2="166.9169684762677"></line><line stroke-width="1.2620323887741913" stroke="lightgray" x1="238.5103123539282" y1="178.6896958780373" x2="222.2912783373379" y2="207.42532417955695"></line><line stroke-width="1.3096729040962651" stroke="lightgray" x1="238.5103123539282" y1="178.6896958780373" x2="245.9058390740837" y2="254.09548915677703"></line><line stroke-width="0.9260785916227481" stroke="lightgray" x1="238.5103123539282" y1="178.6896958780373" x2="188.18564889681159" y2="166.9169684762677"></line><line stroke-width="0.6062607493699057" stroke="lightgray" x1="238.5103123539282" y1="178.6896958780373" x2="216.90015635967848" y2="162.65492261617769"></line><line stroke-width="0.3500248068478193" stroke="lightgray" x1="222.2912783373379" y1="207.42532417955695" x2="245.9058390740837" y2="254.09548915677703"></line><line stroke-width="0.7000496136956386" stroke="lightgray" x1="222.2912783373379" y1="207.42532417955695" x2="188.18564889681159" y2="166.9169684762677"></line><line stroke-width="0.4950098290112091" stroke="lightgray" x1="222.2912783373379" y1="207.42532417955695" x2="216.90015635967848" y2="162.65492261617769"></line><line stroke-width="0.8573821740933965" stroke="lightgray" x1="216.90015635967848" y1="162.65492261617769" x2="188.18564889681159" y2="166.9169684762677"></line><line stroke-width="0.3500248068478193" stroke="lightgray" x1="273.7245941259786" y1="235.83818398679122" x2="245.9058390740837" y2="254.09548915677703"></line><line stroke-width="2.399649177320739" stroke="lightgray" x1="276.422580815974" y1="309.6374448425083" x2="279.72817339491905" y2="335.42546179844976"></line><line stroke-width="2.268420011191013" stroke="lightgray" x1="276.422580815974" y1="309.6374448425083" x2="283.3234662673639" y2="285.22994090481393"></line><line stroke-width="1.784783320358576" stroke="lightgray" x1="276.422580815974" y1="309.6374448425083" x2="248.3912093023303" y2="299.8266179563037"></line><line stroke-width="1.355640247681072" stroke="lightgray" x1="276.422580815974" y1="309.6374448425083" x2="245.9058390740837" y2="254.09548915677703"></line><line stroke-width="0.6062607493699057" stroke="lightgray" x1="276.422580815974" y1="309.6374448425083" x2="311.03422789006663" y2="311.3672560408857"></line><line stroke-width="0.3500248068478193" stroke="lightgray" x1="276.422580815974" y1="309.6374448425083" x2="299.7665654299608" y2="356.4691589570416"></line><line stroke-width="0.8573821740933965" stroke="lightgray" x1="245.9058390740837" y1="254.09548915677703" x2="248.3912093023303" y2="299.8266179563037"></line><line stroke-width="0.6062607493699057" stroke="lightgray" x1="245.9058390740837" y1="254.09548915677703" x2="279.72817339491905" y2="335.42546179844976"></line><line stroke-width="1.355640247681072" stroke="lightgray" x1="245.9058390740837" y1="254.09548915677703" x2="283.3234662673639" y2="285.22994090481393"></line><line stroke-width="1.4431892502199788" stroke="lightgray" x1="283.3234662673639" y1="285.22994090481393" x2="248.3912093023303" y2="299.8266179563037"></line><line stroke-width="1.2620323887741913" stroke="lightgray" x1="283.3234662673639" y1="285.22994090481393" x2="279.72817339491905" y2="335.42546179844976"></line><line stroke-width="0.3500248068478193" stroke="lightgray" x1="283.3234662673639" y1="285.22994090481393" x2="311.03422789006663" y2="311.3672560408857"></line><line stroke-width="0.7000496136956386" stroke="lightgray" x1="248.3912093023303" y1="299.8266179563037" x2="279.72817339491905" y2="335.42546179844976"></line><line stroke-width="0.3500248068478193" stroke="lightgray" x1="311.03422789006663" y1="311.3672560408857" x2="279.72817339491905" y2="335.42546179844976"></line><line stroke-width="1.5653585238459158" stroke="lightgray" x1="295.00342810705354" y1="395.89109028457295" x2="329.7120677837577" y2="418.19730651369986"></line><line stroke-width="1.6040151724924292" stroke="lightgray" x1="295.00342810705354" y1="395.89109028457295" x2="279.72817339491905" y2="335.42546179844976"></line><line stroke-width="1.106875627199611" stroke="lightgray" x1="295.00342810705354" y1="395.89109028457295" x2="301.6819974805674" y2="435.40778916747047"></line><line stroke-width="1.5653585238459158" stroke="lightgray" x1="295.00342810705354" y1="395.89109028457295" x2="321.05418015081693" y2="377.81519365009814"></line><line stroke-width="0.9900196580224182" stroke="lightgray" x1="295.00342810705354" y1="395.89109028457295" x2="299.7665654299608" y2="356.4691589570416"></line><line stroke-width="1.714764348186793" stroke="lightgray" x1="299.7665654299608" y1="356.4691589570416" x2="279.72817339491905" y2="335.42546179844976"></line><line stroke-width="0.7826792619229579" stroke="lightgray" x1="299.7665654299608" y1="356.4691589570416" x2="321.05418015081693" y2="377.81519365009814"></line><line stroke-width="0.4950098290112091" stroke="lightgray" x1="279.72817339491905" y1="335.42546179844976" x2="321.05418015081693" y2="377.81519365009814"></line><line stroke-width="0.8573821740933965" stroke="lightgray" x1="329.7120677837577" y1="418.19730651369986" x2="301.6819974805674" y2="435.40778916747047"></line><line stroke-width="0.4950098290112091" stroke="lightgray" x1="329.7120677837577" y1="418.19730651369986" x2="321.05418015081693" y2="377.81519365009814"></line></g><g class="nodes"><circle r="2.321801903261676" fill="rgb(235, 243, 248)" stroke="black" stroke-width="1px" transform="translate(227.8987890868778,119.62687844712778)"></circle><circle r="1.9800393160448364" fill="rgb(233, 242, 248)" stroke="black" stroke-width="1px" transform="translate(189.05204057090833,127.32702959574577)"></circle><circle r="1.4000992273912771" fill="rgb(237, 245, 249)" stroke="black" stroke-width="1px" transform="translate(195.29057264399304,93.25781331310347)"></circle><circle r="1.2125214987398114" fill="rgb(246, 251, 252)" stroke="black" stroke-width="1px" transform="translate(210.69896158092678,90.75267522683257)"></circle><circle r="2.321801903261676" fill="rgb(159, 184, 216)" stroke="black" stroke-width="1px" transform="translate(200.41423362481927,193.1539253936534)"></circle><circle r="2.321801903261676" fill="rgb(152, 173, 210)" stroke="black" stroke-width="1px" transform="translate(238.5103123539282,178.6896958780373)"></circle><circle r="2.213751254399222" fill="rgb(155, 178, 213)" stroke="black" stroke-width="1px" transform="translate(222.2912783373379,207.42532417955695)"></circle><circle r="1.9800393160448364" fill="rgb(160, 184, 216)" stroke="black" stroke-width="1px" transform="translate(216.90015635967848,162.65492261617769)"></circle><circle r="1.714764348186793" fill="rgb(160, 185, 217)" stroke="black" stroke-width="1px" transform="translate(188.18564889681159,166.9169684762677)"></circle><circle r="0.7000496136956386" fill="rgb(143, 151, 199)" stroke="black" stroke-width="1px" transform="translate(273.7245941259786,235.83818398679122)"></circle><circle r="5.096438115652625" fill="rgb(136, 69, 158)" stroke="black" stroke-width="1px" transform="translate(276.422580815974,309.6374448425083)"></circle><circle r="4.850085994959246" fill="rgb(139, 104, 176)" stroke="black" stroke-width="1px" transform="translate(245.9058390740837,254.09548915677703)"></circle><circle r="4.315395641438417" fill="rgb(136, 72, 159)" stroke="black" stroke-width="1px" transform="translate(283.3234662673639,285.22994090481393)"></circle><circle r="4.200297682173832" fill="rgb(137, 76, 162)" stroke="black" stroke-width="1px" transform="translate(248.3912093023303,299.8266179563037)"></circle><circle r="1.4000992273912771" fill="rgb(136, 67, 156)" stroke="black" stroke-width="1px" transform="translate(311.03422789006663,311.3672560408857)"></circle><circle r="6.142910429586841" fill="rgb(106, 10, 103)" stroke="black" stroke-width="1px" transform="translate(295.00342810705354,395.89109028457295)"></circle><circle r="6.0626074936990575" fill="rgb(129, 33, 134)" stroke="black" stroke-width="1px" transform="translate(299.7665654299608,356.4691589570416)"></circle><circle r="5.331419020753663" fill="rgb(133, 48, 145)" stroke="black" stroke-width="1px" transform="translate(279.72817339491905,335.42546179844976)"></circle><circle r="5.191706885981499" fill="rgb(90, 4, 87)" stroke="black" stroke-width="1px" transform="translate(329.7120677837577,418.19730651369986)"></circle><circle r="3.1307170476918316" fill="rgb(108, 11, 105)" stroke="black" stroke-width="1px" transform="translate(321.05418015081693,377.81519365009814)"></circle><circle r="2.8863785004399576" fill="rgb(90, 4, 87)" stroke="black" stroke-width="1px" transform="translate(301.6819974805674,435.40778916747047)"></circle></g></g><g><text x="505" y="495" font-family="sans-serif" text-anchor="end" font-size="10px" fill="red">21 nodes</text><text x="505" y="505" font-family="sans-serif" text-anchor="end" font-size="10px" fill="red">46 edges</text></g></svg>