<svg height="512" width="512" style="border-style: solid; border-width: 1px; cursor: auto;" id="figure"><g transform="translate(53.92765270291332,17.327840426249765) scale(0.8684491440488492)"><g class="links"><line stroke-width="0.5757389519309326" stroke="lightgray" x1="28.47653413474658" y1="314.6996158089001" x2="137.46557423898838" y2="234.00743211597964"></line><line stroke-width="1.2873914338120493" stroke="lightgray" x1="28.47653413474658" y1="314.6996158089001" x2="-39.18392979996142" y2="352.59271415659566"></line><line stroke-width="1.727216855792798" stroke="lightgray" x1="28.47653413474658" y1="314.6996158089001" x2="54.412968402675524" y2="322.105159782987"></line><line stroke-width="2.6383673277580404" stroke="lightgray" x1="28.47653413474658" y1="314.6996158089001" x2="67.56091718586444" y2="280.2026958910578"></line><line stroke-width="3.904851556134282" stroke="lightgray" x1="28.47653413474658" y1="314.6996158089001" x2="22.010601055296505" y2="283.7622312153957"></line><line stroke-width="2.154217902345861" stroke="lightgray" x1="28.47653413474658" y1="314.6996158089001" x2="122.50265268823271" y2="266.26258540875494"></line><line stroke-width="0.5757389519309326" stroke="lightgray" x1="28.47653413474658" y1="314.6996158089001" x2="-13.192978123776536" y2="340.0257312918556"></line><line stroke-width="1.1514779038618652" stroke="lightgray" x1="28.47653413474658" y1="314.6996158089001" x2="-17.868428019135518" y2="372.3981688849619"></line><line stroke-width="0.8142178342071964" stroke="lightgray" x1="137.46557423898838" y1="234.00743211597964" x2="209.07503580894118" y2="189.40173166482361"></line><line stroke-width="0.9972091166408309" stroke="lightgray" x1="137.46557423898838" y1="234.00743211597964" x2="201.86280912234642" y2="168.09956387997607"></line><line stroke-width="3.904851556134282" stroke="lightgray" x1="137.46557423898838" y1="234.00743211597964" x2="122.50265268823271" y2="266.26258540875494"></line><line stroke-width="4.308435804691722" stroke="lightgray" x1="137.46557423898838" y1="234.00743211597964" x2="161.07137826700432" y2="187.6475223365231"></line><line stroke-width="1.8206464257799448" stroke="lightgray" x1="137.46557423898838" y1="234.00743211597964" x2="192.27653611177885" y2="228.4344828432331"></line><line stroke-width="1.2873914338120493" stroke="lightgray" x1="137.46557423898838" y1="234.00743211597964" x2="176.51011074791992" y2="263.30640865682415"></line><line stroke-width="1.5232620869022184" stroke="lightgray" x1="137.46557423898838" y1="234.00743211597964" x2="159.12734703514934" y2="258.3277552233629"></line><line stroke-width="0.9972091166408309" stroke="lightgray" x1="137.46557423898838" y1="234.00743211597964" x2="218.96786055905832" y2="250.9688832639281"></line><line stroke-width="0.5757389519309326" stroke="lightgray" x1="137.46557423898838" y1="234.00743211597964" x2="264.49338566661044" y2="217.54485754798043"></line><line stroke-width="0.9972091166408309" stroke="lightgray" x1="137.46557423898838" y1="234.00743211597964" x2="67.56091718586444" y2="280.2026958910578"></line><line stroke-width="0.5757389519309326" stroke="lightgray" x1="137.46557423898838" y1="234.00743211597964" x2="170.79334939443717" y2="212.08759118308737"></line><line stroke-width="0.5757389519309326" stroke="lightgray" x1="137.46557423898838" y1="234.00743211597964" x2="184.72955584165769" y2="193.5666423399957"></line><line stroke-width="0.5757389519309326" stroke="lightgray" x1="137.46557423898838" y1="234.00743211597964" x2="209.007062606955" y2="213.37628467253506"></line><line stroke-width="2.3029558077237304" stroke="lightgray" x1="474.39185310103494" y1="291.24710398108806" x2="516.8851191467579" y2="314.5545211460685"></line><line stroke-width="2.154217902345861" stroke="lightgray" x1="474.39185310103494" y1="291.24710398108806" x2="507.8489639690727" y2="338.10393952869384"></line><line stroke-width="3.904851556134282" stroke="lightgray" x1="474.39185310103494" y1="291.24710398108806" x2="474.5567051172785" y2="310.12480575555185"></line><line stroke-width="1.1514779038618652" stroke="lightgray" x1="474.39185310103494" y1="291.24710398108806" x2="421.0225751650411" y2="286.44178314232704"></line><line stroke-width="0.5757389519309326" stroke="lightgray" x1="474.39185310103494" y1="291.24710398108806" x2="429.9164738975624" y2="269.00613221123757"></line><line stroke-width="1.2873914338120493" stroke="lightgray" x1="474.39185310103494" y1="291.24710398108806" x2="465.1016140864646" y2="327.92524324633604"></line><line stroke-width="0.8142178342071964" stroke="lightgray" x1="474.39185310103494" y1="291.24710398108806" x2="373.52881058584165" y2="287.0334667096383"></line><line stroke-width="1.909510080747367" stroke="lightgray" x1="343.25715282166163" y1="236.6135956786232" x2="264.49338566661044" y2="217.54485754798043"></line><line stroke-width="4.45965474518283" stroke="lightgray" x1="343.25715282166163" y1="236.6135956786232" x2="367.22420235837336" y2="215.49699332213544"></line><line stroke-width="0.5757389519309326" stroke="lightgray" x1="343.25715282166163" y1="236.6135956786232" x2="218.96786055905832" y2="250.9688832639281"></line><line stroke-width="2.154217902345861" stroke="lightgray" x1="343.25715282166163" y1="236.6135956786232" x2="421.0225751650411" y2="286.44178314232704"></line><line stroke-width="1.727216855792798" stroke="lightgray" x1="343.25715282166163" y1="236.6135956786232" x2="329.8661110859749" y2="191.4652620419208"></line><line stroke-width="1.1514779038618652" stroke="lightgray" x1="343.25715282166163" y1="236.6135956786232" x2="323.3709553122084" y2="206.3048948151134"></line><line stroke-width="0.9972091166408309" stroke="lightgray" x1="343.25715282166163" y1="236.6135956786232" x2="296.9148256837602" y2="233.43460044496214"></line><line stroke-width="0.5757389519309326" stroke="lightgray" x1="343.25715282166163" y1="236.6135956786232" x2="373.52881058584165" y2="287.0334667096383"></line><line stroke-width="1.6284356684143928" stroke="lightgray" x1="343.25715282166163" y1="236.6135956786232" x2="360.2529639069848" y2="189.63944858364675"></line><line stroke-width="0.5757389519309326" stroke="lightgray" x1="343.25715282166163" y1="236.6135956786232" x2="272.6617707964921" y2="183.35700145776545"></line><line stroke-width="0.8142178342071964" stroke="lightgray" x1="343.25715282166163" y1="236.6135956786232" x2="429.9164738975624" y2="269.00613221123757"></line><line stroke-width="0.5757389519309326" stroke="lightgray" x1="343.25715282166163" y1="236.6135956786232" x2="392.2143787032454" y2="256.9655096291183"></line><line stroke-width="0.8142178342071964" stroke="lightgray" x1="373.52881058584165" y1="287.0334667096383" x2="261.34443117062034" y2="261.664903655485"></line><line stroke-width="1.909510080747367" stroke="lightgray" x1="373.52881058584165" y1="287.0334667096383" x2="346.12861495334124" y2="275.2049566198374"></line><line stroke-width="1.909510080747367" stroke="lightgray" x1="373.52881058584165" y1="287.0334667096383" x2="439.0418923745197" y2="307.8061480474769"></line><line stroke-width="1.6284356684143928" stroke="lightgray" x1="373.52881058584165" y1="287.0334667096383" x2="300.40926656176845" y2="281.05846811501067"></line><line stroke-width="3.6865280375431406" stroke="lightgray" x1="373.52881058584165" y1="287.0334667096383" x2="421.0225751650411" y2="286.44178314232704"></line><line stroke-width="1.1514779038618652" stroke="lightgray" x1="373.52881058584165" y1="287.0334667096383" x2="264.49338566661044" y2="217.54485754798043"></line><line stroke-width="0.5757389519309326" stroke="lightgray" x1="373.52881058584165" y1="287.0334667096383" x2="218.96786055905832" y2="250.9688832639281"></line><line stroke-width="0.8142178342071964" stroke="lightgray" x1="373.52881058584165" y1="287.0334667096383" x2="429.9164738975624" y2="269.00613221123757"></line><line stroke-width="0.8142178342071964" stroke="lightgray" x1="373.52881058584165" y1="287.0334667096383" x2="392.2143787032454" y2="256.9655096291183"></line><line stroke-width="1.9944182332816618" stroke="lightgray" x1="373.52881058584165" y1="287.0334667096383" x2="474.5567051172785" y2="310.12480575555185"></line><line stroke-width="0.5757389519309326" stroke="lightgray" x1="373.52881058584165" y1="287.0334667096383" x2="296.9148256837602" y2="233.43460044496214"></line><line stroke-width="0.5757389519309326" stroke="lightgray" x1="373.52881058584165" y1="287.0334667096383" x2="465.1016140864646" y2="327.92524324633604"></line><line stroke-width="1.2873914338120493" stroke="lightgray" x1="465.1016140864646" y1="327.92524324633604" x2="516.8851191467579" y2="314.5545211460685"></line><line stroke-width="3.307368477419389" stroke="lightgray" x1="465.1016140864646" y1="327.92524324633604" x2="507.8489639690727" y2="338.10393952869384"></line><line stroke-width="1.6284356684143928" stroke="lightgray" x1="465.1016140864646" y1="327.92524324633604" x2="439.0418923745197" y2="307.8061480474769"></line><line stroke-width="3.153452112069543" stroke="lightgray" x1="465.1016140864646" y1="327.92524324633604" x2="474.5567051172785" y2="310.12480575555185"></line><line stroke-width="0.8142178342071964" stroke="lightgray" x1="465.1016140864646" y1="327.92524324633604" x2="429.9164738975624" y2="269.00613221123757"></line><line stroke-width="0.9972091166408309" stroke="lightgray" x1="465.1016140864646" y1="327.92524324633604" x2="421.0225751650411" y2="286.44178314232704"></line><line stroke-width="0.5757389519309326" stroke="lightgray" x1="429.9164738975624" y1="269.00613221123757" x2="346.12861495334124" y2="275.2049566198374"></line><line stroke-width="1.4102666572755567" stroke="lightgray" x1="429.9164738975624" y1="269.00613221123757" x2="439.0418923745197" y2="307.8061480474769"></line><line stroke-width="4.384697226113871" stroke="lightgray" x1="429.9164738975624" y1="269.00613221123757" x2="421.0225751650411" y2="286.44178314232704"></line><line stroke-width="1.2873914338120493" stroke="lightgray" x1="429.9164738975624" y1="269.00613221123757" x2="392.2143787032454" y2="256.9655096291183"></line><line stroke-width="0.9972091166408309" stroke="lightgray" x1="429.9164738975624" y1="269.00613221123757" x2="474.5567051172785" y2="310.12480575555185"></line><line stroke-width="0.5757389519309326" stroke="lightgray" x1="429.9164738975624" y1="269.00613221123757" x2="367.22420235837336" y2="215.49699332213544"></line><line stroke-width="1.727216855792798" stroke="lightgray" x1="209.007062606955" y1="213.37628467253506" x2="238.286764080134" y2="212.19739568778982"></line><line stroke-width="1.2873914338120493" stroke="lightgray" x1="209.007062606955" y1="213.37628467253506" x2="209.07503580894118" y2="189.40173166482361"></line><line stroke-width="0.9972091166408309" stroke="lightgray" x1="209.007062606955" y1="213.37628467253506" x2="261.34443117062034" y2="261.664903655485"></line><line stroke-width="2.3738325115936445" stroke="lightgray" x1="209.007062606955" y1="213.37628467253506" x2="192.27653611177885" y2="228.4344828432331"></line><line stroke-width="1.727216855792798" stroke="lightgray" x1="209.007062606955" y1="213.37628467253506" x2="201.86280912234642" y2="168.09956387997607"></line><line stroke-width="2.7004550536810705" stroke="lightgray" x1="209.007062606955" y1="213.37628467253506" x2="264.49338566661044" y2="217.54485754798043"></line><line stroke-width="0.9972091166408309" stroke="lightgray" x1="209.007062606955" y1="213.37628467253506" x2="218.96786055905832" y2="250.9688832639281"></line><line stroke-width="0.8142178342071964" stroke="lightgray" x1="209.007062606955" y1="213.37628467253506" x2="296.9148256837602" y2="233.43460044496214"></line><line stroke-width="1.5232620869022184" stroke="lightgray" x1="209.007062606955" y1="213.37628467253506" x2="176.51011074791992" y2="263.30640865682415"></line><line stroke-width="1.2873914338120493" stroke="lightgray" x1="209.007062606955" y1="213.37628467253506" x2="184.72955584165769" y2="193.5666423399957"></line><line stroke-width="1.727216855792798" stroke="lightgray" x1="209.007062606955" y1="213.37628467253506" x2="251.10437712115856" y2="197.9787624961469"></line><line stroke-width="1.1514779038618652" stroke="lightgray" x1="209.007062606955" y1="213.37628467253506" x2="170.79334939443717" y2="212.08759118308737"></line><line stroke-width="0.8142178342071964" stroke="lightgray" x1="209.007062606955" y1="213.37628467253506" x2="217.60926533504514" y2="159.6093661908553"></line><line stroke-width="0.5757389519309326" stroke="lightgray" x1="209.007062606955" y1="213.37628467253506" x2="161.07137826700432" y2="187.6475223365231"></line><line stroke-width="0.8142178342071964" stroke="lightgray" x1="209.007062606955" y1="213.37628467253506" x2="184.55652862812346" y2="170.39083129892447"></line><line stroke-width="0.8142178342071964" stroke="lightgray" x1="217.60926533504514" y1="159.6093661908553" x2="238.286764080134" y2="212.19739568778982"></line><line stroke-width="1.727216855792798" stroke="lightgray" x1="217.60926533504514" y1="159.6093661908553" x2="209.07503580894118" y2="189.40173166482361"></line><line stroke-width="2.3029558077237304" stroke="lightgray" x1="217.60926533504514" y1="159.6093661908553" x2="192.27653611177885" y2="228.4344828432331"></line><line stroke-width="2.229827372591415" stroke="lightgray" x1="217.60926533504514" y1="159.6093661908553" x2="201.86280912234642" y2="168.09956387997607"></line><line stroke-width="2.3738325115936445" stroke="lightgray" x1="217.60926533504514" y1="159.6093661908553" x2="264.49338566661044" y2="217.54485754798043"></line><line stroke-width="0.5757389519309326" stroke="lightgray" x1="217.60926533504514" y1="159.6093661908553" x2="272.6617707964921" y2="183.35700145776545"></line><line stroke-width="0.5757389519309326" stroke="lightgray" x1="217.60926533504514" y1="159.6093661908553" x2="184.55652862812346" y2="170.39083129892447"></line><line stroke-width="0.9972091166408309" stroke="lightgray" x1="217.60926533504514" y1="159.6093661908553" x2="170.79334939443717" y2="212.08759118308737"></line><line stroke-width="0.5757389519309326" stroke="lightgray" x1="217.60926533504514" y1="159.6093661908553" x2="161.07137826700432" y2="187.6475223365231"></line><line stroke-width="1.2873914338120493" stroke="lightgray" x1="217.60926533504514" y1="159.6093661908553" x2="184.72955584165769" y2="193.5666423399957"></line><line stroke-width="0.8142178342071964" stroke="lightgray" x1="296.9148256837602" y1="233.43460044496214" x2="238.286764080134" y2="212.19739568778982"></line><line stroke-width="1.1514779038618652" stroke="lightgray" x1="296.9148256837602" y1="233.43460044496214" x2="261.34443117062034" y2="261.664903655485"></line><line stroke-width="0.9972091166408309" stroke="lightgray" x1="296.9148256837602" y1="233.43460044496214" x2="346.12861495334124" y2="275.2049566198374"></line><line stroke-width="1.1514779038618652" stroke="lightgray" x1="296.9148256837602" y1="233.43460044496214" x2="300.40926656176845" y2="281.05846811501067"></line><line stroke-width="3.3571061326979192" stroke="lightgray" x1="296.9148256837602" y1="233.43460044496214" x2="264.49338566661044" y2="217.54485754798043"></line><line stroke-width="0.5757389519309326" stroke="lightgray" x1="296.9148256837602" y1="233.43460044496214" x2="218.96786055905832" y2="250.9688832639281"></line><line stroke-width="0.5757389519309326" stroke="lightgray" x1="296.9148256837602" y1="233.43460044496214" x2="251.10437712115856" y2="197.9787624961469"></line><line stroke-width="0.5757389519309326" stroke="lightgray" x1="296.9148256837602" y1="233.43460044496214" x2="323.3709553122084" y2="206.3048948151134"></line><line stroke-width="0.5757389519309326" stroke="lightgray" x1="296.9148256837602" y1="233.43460044496214" x2="272.6617707964921" y2="183.35700145776545"></line><line stroke-width="0.5757389519309326" stroke="lightgray" x1="296.9148256837602" y1="233.43460044496214" x2="367.22420235837336" y2="215.49699332213544"></line><line stroke-width="1.2873914338120493" stroke="lightgray" x1="170.79334939443717" y1="212.08759118308737" x2="209.07503580894118" y2="189.40173166482361"></line><line stroke-width="3.454433711585596" stroke="lightgray" x1="170.79334939443717" y1="212.08759118308737" x2="192.27653611177885" y2="228.4344828432331"></line><line stroke-width="0.8142178342071964" stroke="lightgray" x1="170.79334939443717" y1="212.08759118308737" x2="201.86280912234642" y2="168.09956387997607"></line><line stroke-width="0.8142178342071964" stroke="lightgray" x1="170.79334939443717" y1="212.08759118308737" x2="122.50265268823271" y2="266.26258540875494"></line><line stroke-width="0.8142178342071964" stroke="lightgray" x1="170.79334939443717" y1="212.08759118308737" x2="264.49338566661044" y2="217.54485754798043"></line><line stroke-width="0.8142178342071964" stroke="lightgray" x1="170.79334939443717" y1="212.08759118308737" x2="159.12734703514934" y2="258.3277552233629"></line><line stroke-width="0.8142178342071964" stroke="lightgray" x1="170.79334939443717" y1="212.08759118308737" x2="184.55652862812346" y2="170.39083129892447"></line><line stroke-width="0.5757389519309326" stroke="lightgray" x1="170.79334939443717" y1="212.08759118308737" x2="218.96786055905832" y2="250.9688832639281"></line><line stroke-width="0.5757389519309326" stroke="lightgray" x1="323.3709553122084" y1="206.3048948151134" x2="264.49338566661044" y2="217.54485754798043"></line><line stroke-width="3.947067394435374" stroke="lightgray" x1="323.3709553122084" y1="206.3048948151134" x2="367.22420235837336" y2="215.49699332213544"></line><line stroke-width="1.1514779038618652" stroke="lightgray" x1="323.3709553122084" y1="206.3048948151134" x2="360.2529639069848" y2="189.63944858364675"></line><line stroke-width="0.8142178342071964" stroke="lightgray" x1="218.96786055905832" y1="250.9688832639281" x2="238.286764080134" y2="212.19739568778982"></line><line stroke-width="0.9972091166408309" stroke="lightgray" x1="218.96786055905832" y1="250.9688832639281" x2="209.07503580894118" y2="189.40173166482361"></line><line stroke-width="0.5757389519309326" stroke="lightgray" x1="218.96786055905832" y1="250.9688832639281" x2="261.34443117062034" y2="261.664903655485"></line><line stroke-width="2.6383673277580404" stroke="lightgray" x1="218.96786055905832" y1="250.9688832639281" x2="192.27653611177885" y2="228.4344828432331"></line><line stroke-width="1.5232620869022184" stroke="lightgray" x1="218.96786055905832" y1="250.9688832639281" x2="264.49338566661044" y2="217.54485754798043"></line><line stroke-width="1.4102666572755567" stroke="lightgray" x1="218.96786055905832" y1="250.9688832639281" x2="122.50265268823271" y2="266.26258540875494"></line><line stroke-width="0.8142178342071964" stroke="lightgray" x1="218.96786055905832" y1="250.9688832639281" x2="176.51011074791992" y2="263.30640865682415"></line><line stroke-width="0.5757389519309326" stroke="lightgray" x1="218.96786055905832" y1="250.9688832639281" x2="300.40926656176845" y2="281.05846811501067"></line><line stroke-width="0.5757389519309326" stroke="lightgray" x1="218.96786055905832" y1="250.9688832639281" x2="184.55652862812346" y2="170.39083129892447"></line><line stroke-width="0.9972091166408309" stroke="lightgray" x1="218.96786055905832" y1="250.9688832639281" x2="159.12734703514934" y2="258.3277552233629"></line><line stroke-width="0.9972091166408309" stroke="lightgray" x1="218.96786055905832" y1="250.9688832639281" x2="161.07137826700432" y2="187.6475223365231"></line><line stroke-width="0.9972091166408309" stroke="lightgray" x1="184.55652862812346" y1="170.39083129892447" x2="209.07503580894118" y2="189.40173166482361"></line><line stroke-width="0.9972091166408309" stroke="lightgray" x1="184.55652862812346" y1="170.39083129892447" x2="201.86280912234642" y2="168.09956387997607"></line><line stroke-width="1.727216855792798" stroke="lightgray" x1="184.55652862812346" y1="170.39083129892447" x2="192.27653611177885" y2="228.4344828432331"></line><line stroke-width="0.5757389519309326" stroke="lightgray" x1="184.55652862812346" y1="170.39083129892447" x2="161.07137826700432" y2="187.6475223365231"></line><line stroke-width="1.5232620869022184" stroke="lightgray" x1="184.55652862812346" y1="170.39083129892447" x2="264.49338566661044" y2="217.54485754798043"></line><line stroke-width="0.5757389519309326" stroke="lightgray" x1="184.55652862812346" y1="170.39083129892447" x2="184.72955584165769" y2="193.5666423399957"></line><line stroke-width="2.9357041506312838" stroke="lightgray" x1="-13.192978123776536" y1="340.0257312918556" x2="-39.18392979996142" y2="352.59271415659566"></line><line stroke-width="2.3029558077237304" stroke="lightgray" x1="-13.192978123776536" y1="340.0257312918556" x2="-17.868428019135518" y2="372.3981688849619"></line><line stroke-width="0.5757389519309326" stroke="lightgray" x1="272.6617707964921" y1="183.35700145776545" x2="238.286764080134" y2="212.19739568778982"></line><line stroke-width="2.5747828676240987" stroke="lightgray" x1="272.6617707964921" y1="183.35700145776545" x2="264.49338566661044" y2="217.54485754798043"></line><line stroke-width="0.5757389519309326" stroke="lightgray" x1="272.6617707964921" y1="183.35700145776545" x2="192.27653611177885" y2="228.4344828432331"></line><line stroke-width="1.5232620869022184" stroke="lightgray" x1="272.6617707964921" y1="183.35700145776545" x2="201.86280912234642" y2="168.09956387997607"></line><line stroke-width="0.5757389519309326" stroke="lightgray" x1="272.6617707964921" y1="183.35700145776545" x2="209.07503580894118" y2="189.40173166482361"></line><line stroke-width="0.9972091166408309" stroke="lightgray" x1="272.6617707964921" y1="183.35700145776545" x2="367.22420235837336" y2="215.49699332213544"></line><line stroke-width="1.5232620869022184" stroke="lightgray" x1="-55.697725973852464" y1="389.25936751366396" x2="-39.18392979996142" y2="352.59271415659566"></line><line stroke-width="1.1514779038618652" stroke="lightgray" x1="-55.697725973852464" y1="389.25936751366396" x2="-17.868428019135518" y2="372.3981688849619"></line><line stroke-width="1.4102666572755567" stroke="lightgray" x1="334.7147378058687" y1="310.87983200125814" x2="346.12861495334124" y2="275.2049566198374"></line><line stroke-width="0.8142178342071964" stroke="lightgray" x1="334.7147378058687" y1="310.87983200125814" x2="300.40926656176845" y2="281.05846811501067"></line><line stroke-width="1.1514779038618652" stroke="lightgray" x1="322.51116351306496" y1="313.2332849586351" x2="346.12861495334124" y2="275.2049566198374"></line><line stroke-width="0.5757389519309326" stroke="lightgray" x1="322.51116351306496" y1="313.2332849586351" x2="300.40926656176845" y2="281.05846811501067"></line><line stroke-width="0.8142178342071964" stroke="lightgray" x1="159.43020589497704" y1="299.6088733900361" x2="176.51011074791992" y2="263.30640865682415"></line><line stroke-width="1.2873914338120493" stroke="lightgray" x1="370.41990947118677" y1="172.0390940434972" x2="367.22420235837336" y2="215.49699332213544"></line><line stroke-width="0.5757389519309326" stroke="lightgray" x1="370.41990947118677" y1="172.0390940434972" x2="329.8661110859749" y2="191.4652620419208"></line><line stroke-width="0.9972091166408309" stroke="lightgray" x1="434.1832650611123" y1="322.4041237360939" x2="421.0225751650411" y2="286.44178314232704"></line><line stroke-width="0.8142178342071964" stroke="lightgray" x1="399.88555981331393" y1="193.66533583779514" x2="367.22420235837336" y2="215.49699332213544"></line><line stroke-width="1.2873914338120493" stroke="lightgray" x1="279.9152871756172" y1="246.7991540021808" x2="264.49338566661044" y2="217.54485754798043"></line><line stroke-width="1.2873914338120493" stroke="lightgray" x1="129.33300986916387" y1="162.64339100102995" x2="161.07137826700432" y2="187.6475223365231"></line><line stroke-width="0.5757389519309326" stroke="lightgray" x1="412.07611129816655" y1="240.3454916732636" x2="421.0225751650411" y2="286.44178314232704"></line><line stroke-width="0.5757389519309326" stroke="lightgray" x1="412.07611129816655" y1="240.3454916732636" x2="367.22420235837336" y2="215.49699332213544"></line><line stroke-width="0.5757389519309326" stroke="lightgray" x1="240.27253882049715" y1="246.98726493735813" x2="238.286764080134" y2="212.19739568778982"></line><line stroke-width="0.5757389519309326" stroke="lightgray" x1="240.27253882049715" y1="246.98726493735813" x2="261.34443117062034" y2="261.664903655485"></line><line stroke-width="0.9972091166408309" stroke="lightgray" x1="240.27253882049715" y1="246.98726493735813" x2="264.49338566661044" y2="217.54485754798043"></line><line stroke-width="0.5757389519309326" stroke="lightgray" x1="155.35725776842855" y1="229.65272790969317" x2="192.27653611177885" y2="228.4344828432331"></line><line stroke-width="1.4102666572755567" stroke="lightgray" x1="421.0225751650411" y1="286.44178314232704" x2="439.0418923745197" y2="307.8061480474769"></line><line stroke-width="0.5757389519309326" stroke="lightgray" x1="421.0225751650411" y1="286.44178314232704" x2="474.5567051172785" y2="310.12480575555185"></line><line stroke-width="0.8142178342071964" stroke="lightgray" x1="421.0225751650411" y1="286.44178314232704" x2="367.22420235837336" y2="215.49699332213544"></line><line stroke-width="0.5757389519309326" stroke="lightgray" x1="421.0225751650411" y1="286.44178314232704" x2="346.12861495334124" y2="275.2049566198374"></line><line stroke-width="0.8142178342071964" stroke="lightgray" x1="367.22420235837336" y1="215.49699332213544" x2="264.49338566661044" y2="217.54485754798043"></line><line stroke-width="1.5232620869022184" stroke="lightgray" x1="367.22420235837336" y1="215.49699332213544" x2="360.2529639069848" y2="189.63944858364675"></line><line stroke-width="1.6284356684143928" stroke="lightgray" x1="367.22420235837336" y1="215.49699332213544" x2="329.8661110859749" y2="191.4652620419208"></line><line stroke-width="1.727216855792798" stroke="lightgray" x1="264.49338566661044" y1="217.54485754798043" x2="238.286764080134" y2="212.19739568778982"></line><line stroke-width="1.4102666572755567" stroke="lightgray" x1="264.49338566661044" y1="217.54485754798043" x2="209.07503580894118" y2="189.40173166482361"></line><line stroke-width="1.727216855792798" stroke="lightgray" x1="264.49338566661044" y1="217.54485754798043" x2="261.34443117062034" y2="261.664903655485"></line><line stroke-width="1.1514779038618652" stroke="lightgray" x1="264.49338566661044" y1="217.54485754798043" x2="192.27653611177885" y2="228.4344828432331"></line><line stroke-width="0.8142178342071964" stroke="lightgray" x1="264.49338566661044" y1="217.54485754798043" x2="300.40926656176845" y2="281.05846811501067"></line><line stroke-width="0.5757389519309326" stroke="lightgray" x1="264.49338566661044" y1="217.54485754798043" x2="329.8661110859749" y2="191.4652620419208"></line><line stroke-width="0.8142178342071964" stroke="lightgray" x1="264.49338566661044" y1="217.54485754798043" x2="201.86280912234642" y2="168.09956387997607"></line><line stroke-width="0.5757389519309326" stroke="lightgray" x1="264.49338566661044" y1="217.54485754798043" x2="346.12861495334124" y2="275.2049566198374"></line><line stroke-width="0.5757389519309326" stroke="lightgray" x1="264.49338566661044" y1="217.54485754798043" x2="184.72955584165769" y2="193.5666423399957"></line><line stroke-width="0.9972091166408309" stroke="lightgray" x1="192.27653611177885" y1="228.4344828432331" x2="238.286764080134" y2="212.19739568778982"></line><line stroke-width="0.5757389519309326" stroke="lightgray" x1="192.27653611177885" y1="228.4344828432331" x2="261.34443117062034" y2="261.664903655485"></line><line stroke-width="1.4102666572755567" stroke="lightgray" x1="192.27653611177885" y1="228.4344828432331" x2="159.12734703514934" y2="258.3277552233629"></line><line stroke-width="0.9972091166408309" stroke="lightgray" x1="192.27653611177885" y1="228.4344828432331" x2="184.72955584165769" y2="193.5666423399957"></line><line stroke-width="0.5757389519309326" stroke="lightgray" x1="192.27653611177885" y1="228.4344828432331" x2="122.50265268823271" y2="266.26258540875494"></line><line stroke-width="0.5757389519309326" stroke="lightgray" x1="192.27653611177885" y1="228.4344828432331" x2="209.07503580894118" y2="189.40173166482361"></line><line stroke-width="0.9972091166408309" stroke="lightgray" x1="474.5567051172785" y1="310.12480575555185" x2="516.8851191467579" y2="314.5545211460685"></line><line stroke-width="0.5757389519309326" stroke="lightgray" x1="474.5567051172785" y1="310.12480575555185" x2="507.8489639690727" y2="338.10393952869384"></line><line stroke-width="1.909510080747367" stroke="lightgray" x1="474.5567051172785" y1="310.12480575555185" x2="439.0418923745197" y2="307.8061480474769"></line><line stroke-width="0.8142178342071964" stroke="lightgray" x1="122.50265268823271" y1="266.26258540875494" x2="159.12734703514934" y2="258.3277552233629"></line><line stroke-width="0.8142178342071964" stroke="lightgray" x1="122.50265268823271" y1="266.26258540875494" x2="67.56091718586444" y2="280.2026958910578"></line><line stroke-width="1.4102666572755567" stroke="lightgray" x1="22.010601055296505" y1="283.7622312153957" x2="67.56091718586444" y2="280.2026958910578"></line><line stroke-width="0.8142178342071964" stroke="lightgray" x1="161.07137826700432" y1="187.6475223365231" x2="209.07503580894118" y2="189.40173166482361"></line><line stroke-width="0.9972091166408309" stroke="lightgray" x1="201.86280912234642" y1="168.09956387997607" x2="209.07503580894118" y2="189.40173166482361"></line><line stroke-width="0.9972091166408309" stroke="lightgray" x1="201.86280912234642" y1="168.09956387997607" x2="184.72955584165769" y2="193.5666423399957"></line><line stroke-width="1.8206464257799448" stroke="lightgray" x1="-39.18392979996142" y1="352.59271415659566" x2="-17.868428019135518" y2="372.3981688849619"></line><line stroke-width="1.1514779038618652" stroke="lightgray" x1="507.8489639690727" y1="338.10393952869384" x2="516.8851191467579" y2="314.5545211460685"></line><line stroke-width="0.9972091166408309" stroke="lightgray" x1="346.12861495334124" y1="275.2049566198374" x2="300.40926656176845" y2="281.05846811501067"></line><line stroke-width="0.5757389519309326" stroke="lightgray" x1="54.412968402675524" y1="322.105159782987" x2="67.56091718586444" y2="280.2026958910578"></line><line stroke-width="0.5757389519309326" stroke="lightgray" x1="251.10437712115856" y1="197.9787624961469" x2="209.07503580894118" y2="189.40173166482361"></line><line stroke-width="0.5757389519309326" stroke="lightgray" x1="261.34443117062034" y1="261.664903655485" x2="238.286764080134" y2="212.19739568778982"></line></g><g class="nodes"><circle r="7.282585703119779" fill="rgb(255, 233, 152)" stroke="black" stroke-width="1px" transform="translate(28.47653413474658,314.6996158089001)"></circle><circle r="7.282585703119779" fill="rgb(255, 232, 151)" stroke="black" stroke-width="1px" transform="translate(137.46557423898838,234.00743211597964)"></circle><circle r="7.004166648077289" fill="rgb(255, 233, 152)" stroke="black" stroke-width="1px" transform="translate(474.39185310103494,291.24710398108806)"></circle><circle r="6.812235147723105" fill="rgb(255, 234, 155)" stroke="black" stroke-width="1px" transform="translate(343.25715282166163,236.6135956786232)"></circle><circle r="6.513742673657571" fill="rgb(255, 234, 154)" stroke="black" stroke-width="1px" transform="translate(373.52881058584165,287.0334667096383)"></circle><circle r="6.306904224139086" fill="rgb(255, 231, 148)" stroke="black" stroke-width="1px" transform="translate(465.1016140864646,327.92524324633604)"></circle><circle r="5.8714083012625675" fill="rgb(255, 230, 146)" stroke="black" stroke-width="1px" transform="translate(429.9164738975624,269.00613221123757)"></circle><circle r="5.757389519309326" fill="rgb(255, 228, 142)" stroke="black" stroke-width="1px" transform="translate(209.007062606955,213.37628467253506)"></circle><circle r="5.641066629102227" fill="rgb(255, 232, 150)" stroke="black" stroke-width="1px" transform="translate(217.60926533504514,159.6093661908553)"></circle><circle r="5.276734655516081" fill="rgb(255, 232, 151)" stroke="black" stroke-width="1px" transform="translate(296.9148256837602,233.43460044496214)"></circle><circle r="4.605911615447461" fill="rgb(255, 233, 151)" stroke="black" stroke-width="1px" transform="translate(170.79334939443717,212.08759118308737)"></circle><circle r="4.605911615447461" fill="rgb(255, 232, 151)" stroke="black" stroke-width="1px" transform="translate(323.3709553122084,206.3048948151134)"></circle><circle r="4.45965474518283" fill="rgb(255, 235, 156)" stroke="black" stroke-width="1px" transform="translate(218.96786055905832,250.9688832639281)"></circle><circle r="4.45965474518283" fill="rgb(255, 234, 154)" stroke="black" stroke-width="1px" transform="translate(184.55652862812346,170.39083129892447)"></circle><circle r="4.151712624937749" fill="rgb(255, 233, 153)" stroke="black" stroke-width="1px" transform="translate(-13.192978123776536,340.0257312918556)"></circle><circle r="3.6412928515598897" fill="rgb(255, 238, 163)" stroke="black" stroke-width="1px" transform="translate(272.6617707964921,183.35700145776545)"></circle><circle r="2.3029558077237304" fill="rgb(255, 232, 151)" stroke="black" stroke-width="1px" transform="translate(-55.697725973852464,389.25936751366396)"></circle><circle r="1.6284356684143928" fill="rgb(255, 229, 143)" stroke="black" stroke-width="1px" transform="translate(334.7147378058687,310.87983200125814)"></circle><circle r="1.6284356684143928" fill="rgb(255, 244, 178)" stroke="black" stroke-width="1px" transform="translate(322.51116351306496,313.2332849586351)"></circle><circle r="1.1514779038618652" fill="rgb(255, 248, 188)" stroke="black" stroke-width="1px" transform="translate(159.43020589497704,299.6088733900361)"></circle><circle r="1.1514779038618652" fill="rgb(255, 236, 158)" stroke="black" stroke-width="1px" transform="translate(370.41990947118677,172.0390940434972)"></circle><circle r="1.1514779038618652" fill="rgb(255, 248, 186)" stroke="black" stroke-width="1px" transform="translate(434.1832650611123,322.4041237360939)"></circle><circle r="1.1514779038618652" fill="rgb(255, 249, 190)" stroke="black" stroke-width="1px" transform="translate(399.88555981331393,193.66533583779514)"></circle><circle r="1.1514779038618652" fill="rgb(255, 244, 179)" stroke="black" stroke-width="1px" transform="translate(279.9152871756172,246.7991540021808)"></circle><circle r="1.1514779038618652" fill="rgb(255, 243, 175)" stroke="black" stroke-width="1px" transform="translate(129.33300986916387,162.64339100102995)"></circle><circle r="1.1514779038618652" fill="rgb(255, 253, 199)" stroke="black" stroke-width="1px" transform="translate(412.07611129816655,240.3454916732636)"></circle><circle r="1.1514779038618652" fill="rgb(255, 237, 160)" stroke="black" stroke-width="1px" transform="translate(240.27253882049715,246.98726493735813)"></circle><circle r="1.1514779038618652" fill="rgb(255, 255, 204)" stroke="black" stroke-width="1px" transform="translate(155.35725776842855,229.65272790969317)"></circle><circle r="5.149565735248197" fill="rgb(254, 195, 95)" stroke="black" stroke-width="1px" transform="translate(421.0225751650411,286.44178314232704)"></circle><circle r="4.8853070052431775" fill="rgb(254, 198, 98)" stroke="black" stroke-width="1px" transform="translate(367.22420235837336,215.49699332213544)"></circle><circle r="4.8853070052431775" fill="rgb(254, 190, 91)" stroke="black" stroke-width="1px" transform="translate(264.49338566661044,217.54485754798043)"></circle><circle r="4.308435804691722" fill="rgb(254, 188, 88)" stroke="black" stroke-width="1px" transform="translate(192.27653611177885,228.4344828432331)"></circle><circle r="4.308435804691722" fill="rgb(254, 195, 95)" stroke="black" stroke-width="1px" transform="translate(474.5567051172785,310.12480575555185)"></circle><circle r="3.046524173804437" fill="rgb(254, 195, 95)" stroke="black" stroke-width="1px" transform="translate(122.50265268823271,266.26258540875494)"></circle><circle r="2.8205333145511133" fill="rgb(254, 200, 101)" stroke="black" stroke-width="1px" transform="translate(22.010601055296505,283.7622312153957)"></circle><circle r="2.8205333145511133" fill="rgb(254, 177, 79)" stroke="black" stroke-width="1px" transform="translate(161.07137826700432,187.6475223365231)"></circle><circle r="2.5747828676240987" fill="rgb(254, 196, 96)" stroke="black" stroke-width="1px" transform="translate(201.86280912234642,168.09956387997607)"></circle><circle r="2.5747828676240987" fill="rgb(254, 192, 92)" stroke="black" stroke-width="1px" transform="translate(-39.18392979996142,352.59271415659566)"></circle><circle r="2.5747828676240987" fill="rgb(254, 186, 87)" stroke="black" stroke-width="1px" transform="translate(507.8489639690727,338.10393952869384)"></circle><circle r="2.3029558077237304" fill="rgb(254, 198, 98)" stroke="black" stroke-width="1px" transform="translate(346.12861495334124,275.2049566198374)"></circle><circle r="1.6284356684143928" fill="rgb(254, 210, 112)" stroke="black" stroke-width="1px" transform="translate(176.51011074791992,263.30640865682415)"></circle><circle r="1.1514779038618652" fill="rgb(254, 207, 109)" stroke="black" stroke-width="1px" transform="translate(54.412968402675524,322.105159782987)"></circle><circle r="1.1514779038618652" fill="rgb(254, 208, 110)" stroke="black" stroke-width="1px" transform="translate(392.2143787032454,256.9655096291183)"></circle><circle r="1.1514779038618652" fill="rgb(254, 206, 108)" stroke="black" stroke-width="1px" transform="translate(251.10437712115856,197.9787624961469)"></circle><circle r="1.6284356684143928" fill="rgb(253, 120, 54)" stroke="black" stroke-width="1px" transform="translate(-17.868428019135518,372.3981688849619)"></circle><circle r="1.6284356684143928" fill="rgb(251, 97, 47)" stroke="black" stroke-width="1px" transform="translate(439.0418923745197,307.8061480474769)"></circle><circle r="1.6284356684143928" fill="rgb(250, 90, 45)" stroke="black" stroke-width="1px" transform="translate(209.07503580894118,189.40173166482361)"></circle><circle r="1.1514779038618652" fill="rgb(253, 134, 59)" stroke="black" stroke-width="1px" transform="translate(329.8661110859749,191.4652620419208)"></circle><circle r="1.1514779038618652" fill="rgb(252, 117, 53)" stroke="black" stroke-width="1px" transform="translate(184.72955584165769,193.5666423399957)"></circle><circle r="1.1514779038618652" fill="rgb(253, 131, 58)" stroke="black" stroke-width="1px" transform="translate(360.2529639069848,189.63944858364675)"></circle><circle r="1.1514779038618652" fill="rgb(253, 136, 59)" stroke="black" stroke-width="1px" transform="translate(159.12734703514934,258.3277552233629)"></circle><circle r="1.1514779038618652" fill="rgb(252, 118, 54)" stroke="black" stroke-width="1px" transform="translate(261.34443117062034,261.664903655485)"></circle><circle r="1.1514779038618652" fill="rgb(231, 39, 33)" stroke="black" stroke-width="1px" transform="translate(300.40926656176845,281.05846811501067)"></circle><circle r="1.1514779038618652" fill="rgb(212, 18, 33)" stroke="black" stroke-width="1px" transform="translate(238.286764080134,212.19739568778982)"></circle><circle r="1.1514779038618652" fill="rgb(197, 8, 35)" stroke="black" stroke-width="1px" transform="translate(516.8851191467579,314.5545211460685)"></circle><circle r="1.1514779038618652" fill="rgb(128, 0, 38)" stroke="black" stroke-width="1px" transform="translate(67.56091718586444,280.2026958910578)"></circle></g></g><g><text x="505" y="495" font-family="sans-serif" text-anchor="end" font-size="10px" fill="red">56 nodes</text><text x="505" y="505" font-family="sans-serif" text-anchor="end" font-size="10px" fill="red">191 edges</text></g></svg>