<svg height="512" width="512" style="border-style: solid; border-width: 1px; cursor: auto;" id="figure"><g transform="translate(-70.37935927792216,-58.66847801904362) scale(1.2826405289798932)"><g class="links"><line stroke-width="1.5592833337261185" stroke="lightgray" x1="216.27831752247485" y1="220.83193615314678" x2="242.94105033860356" y2="222.74637104132498"></line><line stroke-width="3.8786683198680425" stroke="lightgray" x1="216.27831752247485" y1="220.83193615314678" x2="254.14416664256214" y2="220.4057597935702"></line><line stroke-width="3.0195391917700194" stroke="lightgray" x1="216.27831752247485" y1="220.83193615314678" x2="215.37144661896062" y2="244.56603251131006"></line><line stroke-width="1.5097695958850097" stroke="lightgray" x1="216.27831752247485" y1="220.83193615314678" x2="267.65861576441984" y2="222.33720626193823"></line><line stroke-width="1.653869728603357" stroke="lightgray" x1="216.27831752247485" y1="220.83193615314678" x2="226.2855505077036" y2="193.51176310383835"></line><line stroke-width="1.5592833337261185" stroke="lightgray" x1="216.27831752247485" y1="220.83193615314678" x2="258.33985624165905" y2="282.7400811918908"></line><line stroke-width="0.6751894893522536" stroke="lightgray" x1="216.27831752247485" y1="220.83193615314678" x2="243.0480648642665" y2="243.80317832053146"></line><line stroke-width="1.5097695958850097" stroke="lightgray" x1="216.27831752247485" y1="220.83193615314678" x2="256.9302534971592" y2="175.46747723976816"></line><line stroke-width="0.5512899095344524" stroke="lightgray" x1="216.27831752247485" y1="220.83193615314678" x2="212.5014953832318" y2="171.2333887832328"></line><line stroke-width="0.8716658825985228" stroke="lightgray" x1="216.27831752247485" y1="220.83193615314678" x2="227.97965112952434" y2="304.6876409945146"></line><line stroke-width="1.6072724713045048" stroke="lightgray" x1="227.97965112952434" y1="304.6876409945146" x2="215.37144661896062" y2="244.56603251131006"></line><line stroke-width="3.5939705042009527" stroke="lightgray" x1="227.97965112952434" y1="304.6876409945146" x2="189.82803191136884" y2="290.8512181315397"></line><line stroke-width="1.3503789787045073" stroke="lightgray" x1="227.97965112952434" y1="304.6876409945146" x2="258.33985624165905" y2="282.7400811918908"></line><line stroke-width="1.8284217806347507" stroke="lightgray" x1="227.97965112952434" y1="304.6876409945146" x2="236.4027133253382" y2="351.23096974680027"></line><line stroke-width="0.9548621330137215" stroke="lightgray" x1="227.97965112952434" y1="304.6876409945146" x2="280.7729925301747" y2="353.7174931710102"></line><line stroke-width="0.5512899095344524" stroke="lightgray" x1="227.97965112952434" y1="304.6876409945146" x2="217.59609129077268" y2="277.55944424236355"></line><line stroke-width="0.5512899095344524" stroke="lightgray" x1="227.97965112952434" y1="304.6876409945146" x2="255.0362927944644" y2="344.47407987333713"></line><line stroke-width="0.8716658825985228" stroke="lightgray" x1="258.33985624165905" y1="282.7400811918908" x2="242.94105033860356" y2="222.74637104132498"></line><line stroke-width="0.7796416668630592" stroke="lightgray" x1="258.33985624165905" y1="282.7400811918908" x2="254.14416664256214" y2="220.4057597935702"></line><line stroke-width="2.1351366385591275" stroke="lightgray" x1="258.33985624165905" y1="282.7400811918908" x2="215.37144661896062" y2="244.56603251131006"></line><line stroke-width="0.3898208334315296" stroke="lightgray" x1="258.33985624165905" y1="282.7400811918908" x2="267.65861576441984" y2="222.33720626193823"></line><line stroke-width="1.102579819068905" stroke="lightgray" x1="258.33985624165905" y1="282.7400811918908" x2="286.20592925106376" y2="316.13790078531673"></line><line stroke-width="1.3503789787045073" stroke="lightgray" x1="258.33985624165905" y1="282.7400811918908" x2="255.0362927944644" y2="344.47407987333713"></line><line stroke-width="1.7863834766707565" stroke="lightgray" x1="258.33985624165905" y1="282.7400811918908" x2="294.00325939585014" y2="282.3971225911759"></line><line stroke-width="0.5512899095344524" stroke="lightgray" x1="258.33985624165905" y1="282.7400811918908" x2="256.9302534971592" y2="175.46747723976816"></line><line stroke-width="0.9548621330137215" stroke="lightgray" x1="258.33985624165905" y1="282.7400811918908" x2="236.4027133253382" y2="351.23096974680027"></line><line stroke-width="0.3898208334315296" stroke="lightgray" x1="258.33985624165905" y1="282.7400811918908" x2="217.59609129077268" y2="277.55944424236355"></line><line stroke-width="0.7796416668630592" stroke="lightgray" x1="258.33985624165905" y1="282.7400811918908" x2="273.10805229625925" y2="381.755959489794"></line><line stroke-width="0.5512899095344524" stroke="lightgray" x1="258.33985624165905" y1="282.7400811918908" x2="280.7729925301747" y2="353.7174931710102"></line><line stroke-width="1.2928894399560142" stroke="lightgray" x1="273.10805229625925" y1="381.755959489794" x2="266.0350697127091" y2="437.7020143209365"></line><line stroke-width="1.909724266027443" stroke="lightgray" x1="273.10805229625925" y1="381.755959489794" x2="289.3842815166105" y2="426.87519807918204"></line><line stroke-width="2.434430324513898" stroke="lightgray" x1="273.10805229625925" y1="381.755959489794" x2="255.0362927944644" y2="344.47407987333713"></line><line stroke-width="1.2327217130287451" stroke="lightgray" x1="273.10805229625925" y1="381.755959489794" x2="280.7729925301747" y2="353.7174931710102"></line><line stroke-width="1.1694625002945889" stroke="lightgray" x1="273.10805229625925" y1="381.755959489794" x2="256.2799149619793" y2="403.1934512514773"></line><line stroke-width="1.6072724713045048" stroke="lightgray" x1="273.10805229625925" y1="381.755959489794" x2="295.6568135569166" y2="406.02242282052805"></line><line stroke-width="0.9548621330137215" stroke="lightgray" x1="273.10805229625925" y1="381.755959489794" x2="236.4027133253382" y2="351.23096974680027"></line><line stroke-width="0.6751894893522536" stroke="lightgray" x1="287.65907384776165" y1="96.40204837894065" x2="256.9302534971592" y2="175.46747723976816"></line><line stroke-width="2.062737962263522" stroke="lightgray" x1="287.65907384776165" y1="96.40204837894065" x2="256.25757332829767" y2="115.7161643805314"></line><line stroke-width="1.7863834766707565" stroke="lightgray" x1="287.65907384776165" y1="96.40204837894065" x2="290.999051687081" y2="52.28906937235593"></line><line stroke-width="1.031368981131761" stroke="lightgray" x1="287.65907384776165" y1="96.40204837894065" x2="282.72350390799073" y2="134.02487657687567"></line><line stroke-width="1.4055190031814868" stroke="lightgray" x1="287.65907384776165" y1="96.40204837894065" x2="258.51006462509025" y2="75.5897633689666"></line><line stroke-width="0.6751894893522536" stroke="lightgray" x1="287.65907384776165" y1="96.40204837894065" x2="317.6601512300011" y2="64.72400440643595"></line><line stroke-width="0.3898208334315296" stroke="lightgray" x1="256.9302534971592" y1="175.46747723976816" x2="242.94105033860356" y2="222.74637104132498"></line><line stroke-width="0.8716658825985228" stroke="lightgray" x1="256.9302534971592" y1="175.46747723976816" x2="254.14416664256214" y2="220.4057597935702"></line><line stroke-width="0.6751894893522536" stroke="lightgray" x1="256.9302534971592" y1="175.46747723976816" x2="215.37144661896062" y2="244.56603251131006"></line><line stroke-width="2.968787019353298" stroke="lightgray" x1="256.9302534971592" y1="175.46747723976816" x2="267.65861576441984" y2="222.33720626193823"></line><line stroke-width="1.031368981131761" stroke="lightgray" x1="256.9302534971592" y1="175.46747723976816" x2="226.2855505077036" y2="193.51176310383835"></line><line stroke-width="1.5592833337261185" stroke="lightgray" x1="256.9302534971592" y1="175.46747723976816" x2="282.72350390799073" y2="134.02487657687567"></line><line stroke-width="0.6751894893522536" stroke="lightgray" x1="256.9302534971592" y1="175.46747723976816" x2="256.25757332829767" y2="115.7161643805314"></line><line stroke-width="0.3898208334315296" stroke="lightgray" x1="256.9302534971592" y1="175.46747723976816" x2="212.5014953832318" y2="171.2333887832328"></line><line stroke-width="1.458576000927457" stroke="lightgray" x1="256.2799149619793" y1="403.1934512514773" x2="266.0350697127091" y2="437.7020143209365"></line><line stroke-width="1.653869728603357" stroke="lightgray" x1="256.2799149619793" y1="403.1934512514773" x2="255.0362927944644" y2="344.47407987333713"></line><line stroke-width="0.8716658825985228" stroke="lightgray" x1="256.2799149619793" y1="403.1934512514773" x2="289.3842815166105" y2="426.87519807918204"></line><line stroke-width="0.5512899095344524" stroke="lightgray" x1="256.2799149619793" y1="403.1934512514773" x2="236.4027133253382" y2="351.23096974680027"></line><line stroke-width="0.7796416668630592" stroke="lightgray" x1="256.2799149619793" y1="403.1934512514773" x2="295.6568135569166" y2="406.02242282052805"></line><line stroke-width="0.5512899095344524" stroke="lightgray" x1="256.2799149619793" y1="403.1934512514773" x2="280.7729925301747" y2="353.7174931710102"></line><line stroke-width="0.5512899095344524" stroke="lightgray" x1="280.7729925301747" y1="353.7174931710102" x2="286.20592925106376" y2="316.13790078531673"></line><line stroke-width="1.9491041671576481" stroke="lightgray" x1="280.7729925301747" y1="353.7174931710102" x2="255.0362927944644" y2="344.47407987333713"></line><line stroke-width="2.273026527347752" stroke="lightgray" x1="280.7729925301747" y1="353.7174931710102" x2="236.4027133253382" y2="351.23096974680027"></line><line stroke-width="0.3898208334315296" stroke="lightgray" x1="280.7729925301747" y1="353.7174931710102" x2="295.6568135569166" y2="406.02242282052805"></line><line stroke-width="0.9548621330137215" stroke="lightgray" x1="226.2855505077036" y1="193.51176310383835" x2="254.14416664256214" y2="220.4057597935702"></line><line stroke-width="0.6751894893522536" stroke="lightgray" x1="226.2855505077036" y1="193.51176310383835" x2="267.65861576441984" y2="222.33720626193823"></line><line stroke-width="1.102579819068905" stroke="lightgray" x1="226.2855505077036" y1="193.51176310383835" x2="215.37144661896062" y2="244.56603251131006"></line><line stroke-width="1.102579819068905" stroke="lightgray" x1="226.2855505077036" y1="193.51176310383835" x2="212.5014953832318" y2="171.2333887832328"></line><line stroke-width="2.273026527347752" stroke="lightgray" x1="317.6601512300011" y1="64.72400440643595" x2="290.999051687081" y2="52.28906937235593"></line><line stroke-width="1.2327217130287451" stroke="lightgray" x1="217.59609129077268" y1="277.55944424236355" x2="215.37144661896062" y2="244.56603251131006"></line><line stroke-width="0.5512899095344524" stroke="lightgray" x1="243.0480648642665" y1="243.80317832053146" x2="215.37144661896062" y2="244.56603251131006"></line><line stroke-width="0.3898208334315296" stroke="lightgray" x1="194.39313404221343" y1="337.0089518350712" x2="236.4027133253382" y2="351.23096974680027"></line><line stroke-width="0.3898208334315296" stroke="lightgray" x1="194.39313404221343" y1="337.0089518350712" x2="189.82803191136884" y2="290.8512181315397"></line><line stroke-width="1.031368981131761" stroke="lightgray" x1="215.37144661896062" y1="244.56603251131006" x2="242.94105033860356" y2="222.74637104132498"></line><line stroke-width="0.6751894893522536" stroke="lightgray" x1="215.37144661896062" y1="244.56603251131006" x2="254.14416664256214" y2="220.4057597935702"></line><line stroke-width="0.3898208334315296" stroke="lightgray" x1="215.37144661896062" y1="244.56603251131006" x2="267.65861576441984" y2="222.33720626193823"></line><line stroke-width="0.3898208334315296" stroke="lightgray" x1="215.37144661896062" y1="244.56603251131006" x2="189.82803191136884" y2="290.8512181315397"></line><line stroke-width="0.3898208334315296" stroke="lightgray" x1="267.65861576441984" y1="222.33720626193823" x2="242.94105033860356" y2="222.74637104132498"></line><line stroke-width="0.3898208334315296" stroke="lightgray" x1="282.72350390799073" y1="134.02487657687567" x2="256.25757332829767" y2="115.7161643805314"></line><line stroke-width="0.3898208334315296" stroke="lightgray" x1="289.3842815166105" y1="426.87519807918204" x2="266.0350697127091" y2="437.7020143209365"></line><line stroke-width="0.5512899095344524" stroke="lightgray" x1="295.6568135569166" y1="406.02242282052805" x2="266.0350697127091" y2="437.7020143209365"></line><line stroke-width="0.3898208334315296" stroke="lightgray" x1="258.51006462509025" y1="75.5897633689666" x2="256.25757332829767" y2="115.7161643805314"></line></g><g class="nodes"><circle r="7.518591953945757" fill="rgb(255, 227, 141)" stroke="black" stroke-width="1px" transform="translate(216.27831752247485,220.83193615314678)"></circle><circle r="7.187941008401905" fill="rgb(255, 230, 145)" stroke="black" stroke-width="1px" transform="translate(227.97965112952434,304.6876409945146)"></circle><circle r="5.72917279808233" fill="rgb(255, 231, 149)" stroke="black" stroke-width="1px" transform="translate(258.33985624165905,282.7400811918908)"></circle><circle r="5.622076012725947" fill="rgb(255, 228, 142)" stroke="black" stroke-width="1px" transform="translate(273.10805229625925,381.755959489794)"></circle><circle r="5.512899095344524" fill="rgb(255, 229, 143)" stroke="black" stroke-width="1px" transform="translate(287.65907384776165,96.40204837894065)"></circle><circle r="4.9308868521149805" fill="rgb(255, 231, 147)" stroke="black" stroke-width="1px" transform="translate(256.9302534971592,175.46747723976816)"></circle><circle r="4.742375118253864" fill="rgb(255, 230, 146)" stroke="black" stroke-width="1px" transform="translate(256.2799149619793,403.1934512514773)"></circle><circle r="4.340861088537537" fill="rgb(254, 225, 136)" stroke="black" stroke-width="1px" transform="translate(280.7729925301747,353.7174931710102)"></circle><circle r="3.7390300828299328" fill="rgb(255, 234, 154)" stroke="black" stroke-width="1px" transform="translate(226.2855505077036,193.51176310383835)"></circle><circle r="3.0195391917700194" fill="rgb(255, 231, 148)" stroke="black" stroke-width="1px" transform="translate(317.6601512300011,64.72400440643595)"></circle><circle r="1.7433317651970457" fill="rgb(255, 242, 173)" stroke="black" stroke-width="1px" transform="translate(217.59609129077268,277.55944424236355)"></circle><circle r="1.5592833337261185" fill="rgb(255, 234, 153)" stroke="black" stroke-width="1px" transform="translate(243.0480648642665,243.80317832053146)"></circle><circle r="0.7796416668630592" fill="rgb(255, 253, 199)" stroke="black" stroke-width="1px" transform="translate(194.39313404221343,337.0089518350712)"></circle><circle r="2.5857788799120285" fill="rgb(253, 159, 68)" stroke="black" stroke-width="1px" transform="translate(215.37144661896062,244.56603251131006)"></circle><circle r="2.20515963813781" fill="rgb(253, 154, 66)" stroke="black" stroke-width="1px" transform="translate(254.14416664256214,220.4057597935702)"></circle><circle r="2.062737962263522" fill="rgb(254, 181, 83)" stroke="black" stroke-width="1px" transform="translate(236.4027133253382,351.23096974680027)"></circle><circle r="2.062737962263522" fill="rgb(254, 168, 73)" stroke="black" stroke-width="1px" transform="translate(267.65861576441984,222.33720626193823)"></circle><circle r="2.062737962263522" fill="rgb(254, 165, 72)" stroke="black" stroke-width="1px" transform="translate(189.82803191136884,290.8512181315397)"></circle><circle r="2.062737962263522" fill="rgb(253, 159, 69)" stroke="black" stroke-width="1px" transform="translate(255.0362927944644,344.47407987333713)"></circle><circle r="1.5592833337261185" fill="rgb(253, 146, 63)" stroke="black" stroke-width="1px" transform="translate(290.999051687081,52.28906937235593)"></circle><circle r="1.102579819068905" fill="rgb(254, 184, 85)" stroke="black" stroke-width="1px" transform="translate(282.72350390799073,134.02487657687567)"></circle><circle r="1.102579819068905" fill="rgb(253, 156, 67)" stroke="black" stroke-width="1px" transform="translate(289.3842815166105,426.87519807918204)"></circle><circle r="1.102579819068905" fill="rgb(254, 173, 77)" stroke="black" stroke-width="1px" transform="translate(295.6568135569166,406.02242282052805)"></circle><circle r="0.7796416668630592" fill="rgb(254, 187, 87)" stroke="black" stroke-width="1px" transform="translate(212.5014953832318,171.2333887832328)"></circle><circle r="0.7796416668630592" fill="rgb(254, 173, 76)" stroke="black" stroke-width="1px" transform="translate(258.51006462509025,75.5897633689666)"></circle><circle r="0.7796416668630592" fill="rgb(254, 184, 85)" stroke="black" stroke-width="1px" transform="translate(286.20592925106376,316.13790078531673)"></circle><circle r="0.7796416668630592" fill="rgb(212, 18, 33)" stroke="black" stroke-width="1px" transform="translate(242.94105033860356,222.74637104132498)"></circle><circle r="0.7796416668630592" fill="rgb(197, 8, 35)" stroke="black" stroke-width="1px" transform="translate(266.0350697127091,437.7020143209365)"></circle><circle r="0.7796416668630592" fill="rgb(231, 39, 33)" stroke="black" stroke-width="1px" transform="translate(294.00325939585014,282.3971225911759)"></circle><circle r="0.7796416668630592" fill="rgb(128, 0, 38)" stroke="black" stroke-width="1px" transform="translate(256.25757332829767,115.7161643805314)"></circle></g></g><g><text x="505" y="495" font-family="sans-serif" text-anchor="end" font-size="10px" fill="red">30 nodes</text><text x="505" y="505" font-family="sans-serif" text-anchor="end" font-size="10px" fill="red">78 edges</text></g></svg>