<svg height="512" width="512" style="border-style: solid; border-width: 1px; cursor: auto;" id="figure"><g transform="translate(-24.60720427128433,30.67177087415908) scale(0.8788900212663288)"><g class="links"><line stroke-width="0.9853626538353975" stroke="lightgray" x1="84.08742238142074" y1="151.36611085055142" x2="36.80940377951301" y2="151.3276399933031"></line><line stroke-width="2.607024533259087" stroke="lightgray" x1="84.08742238142074" y1="151.36611085055142" x2="80.28450601419901" y2="127.17053244060627"></line><line stroke-width="0.5688993934412707" stroke="lightgray" x1="84.08742238142074" y1="151.36611085055142" x2="121.14426895524701" y2="149.65315060745817"></line><line stroke-width="1.2720977160930795" stroke="lightgray" x1="84.08742238142074" y1="151.36611085055142" x2="109.03644042783128" y2="163.33606377528267"></line><line stroke-width="0.8045452378304726" stroke="lightgray" x1="84.08742238142074" y1="151.36611085055142" x2="186.18036213796344" y2="207.44224218623648"></line><line stroke-width="2.2033378764655427" stroke="lightgray" x1="84.08742238142074" y1="151.36611085055142" x2="82.52900544428984" y2="200.08489322456464"></line><line stroke-width="0.5688993934412707" stroke="lightgray" x1="84.08742238142074" y1="151.36611085055142" x2="103.36253421630953" y2="206.38507987696025"></line><line stroke-width="0.8045452378304726" stroke="lightgray" x1="84.08742238142074" y1="151.36611085055142" x2="39.07679191096709" y2="126.98843028012783"></line><line stroke-width="1.970725307670795" stroke="lightgray" x1="107.48219976874135" y1="231.6169853638836" x2="82.52900544428984" y2="200.08489322456464"></line><line stroke-width="1.5051663160610926" stroke="lightgray" x1="107.48219976874135" y1="231.6169853638836" x2="186.18036213796344" y2="207.44224218623648"></line><line stroke-width="0.8045452378304726" stroke="lightgray" x1="107.48219976874135" y1="231.6169853638836" x2="103.36253421630953" y2="206.38507987696025"></line><line stroke-width="0.9853626538353975" stroke="lightgray" x1="107.48219976874135" y1="231.6169853638836" x2="64.76113000411416" y2="239.32316145029023"></line><line stroke-width="0.5688993934412707" stroke="lightgray" x1="107.48219976874135" y1="231.6169853638836" x2="117.61189138790016" y2="270.7786262301167"></line><line stroke-width="0.5688993934412707" stroke="lightgray" x1="309.4809590401635" y1="260.8623802961061" x2="316.2209887792572" y2="211.41075638315033"></line><line stroke-width="0.5688993934412707" stroke="lightgray" x1="309.4809590401635" y1="260.8623802961061" x2="256.57086798281546" y2="256.80868886129815"></line><line stroke-width="3.1159903073879054" stroke="lightgray" x1="309.4809590401635" y1="260.8623802961061" x2="336.77889452339866" y2="289.6504507722313"></line><line stroke-width="0.5688993934412707" stroke="lightgray" x1="309.4809590401635" y1="260.8623802961061" x2="372.2175272318727" y2="289.6449787931771"></line><line stroke-width="0.5688993934412707" stroke="lightgray" x1="309.4809590401635" y1="260.8623802961061" x2="229.7243505314379" y2="274.08126786792246"></line><line stroke-width="2.4136357134914173" stroke="lightgray" x1="109.03644042783128" y1="163.33606377528267" x2="186.18036213796344" y2="207.44224218623648"></line><line stroke-width="2.7870264578199286" stroke="lightgray" x1="109.03644042783128" y1="163.33606377528267" x2="82.52900544428984" y2="200.08489322456464"></line><line stroke-width="1.2720977160930795" stroke="lightgray" x1="109.03644042783128" y1="163.33606377528267" x2="121.14426895524701" y2="149.65315060745817"></line><line stroke-width="1.1377987868825414" stroke="lightgray" x1="109.03644042783128" y1="163.33606377528267" x2="80.28450601419901" y2="127.17053244060627"></line><line stroke-width="0.5688993934412707" stroke="lightgray" x1="109.03644042783128" y1="163.33606377528267" x2="103.36253421630953" y2="206.38507987696025"></line><line stroke-width="3.4604799139339466" stroke="lightgray" x1="597.8312736642955" y1="285.47206270292327" x2="543.5976931815669" y2="271.7546010297427"></line><line stroke-width="0.8045452378304726" stroke="lightgray" x1="597.8312736642955" y1="285.47206270292327" x2="591.2430924385811" y2="253.91744093363224"></line><line stroke-width="0.5688993934412707" stroke="lightgray" x1="328.99587139428985" y1="267.6286608912242" x2="235.94860744486357" y2="320.17823364757163"></line><line stroke-width="1.7066981803238124" stroke="lightgray" x1="328.99587139428985" y1="267.6286608912242" x2="301.6351449173384" y2="244.39416471006373"></line><line stroke-width="2.4136357134914173" stroke="lightgray" x1="328.99587139428985" y1="267.6286608912242" x2="336.77889452339866" y2="289.6504507722313"></line><line stroke-width="0.5688993934412707" stroke="lightgray" x1="328.99587139428985" y1="267.6286608912242" x2="372.2175272318727" y2="289.6449787931771"></line><line stroke-width="0.8045452378304726" stroke="lightgray" x1="328.99587139428985" y1="267.6286608912242" x2="256.57086798281546" y2="256.80868886129815"></line><line stroke-width="0.5688993934412707" stroke="lightgray" x1="328.99587139428985" y1="267.6286608912242" x2="342.6057719231216" y2="224.14690878180505"></line><line stroke-width="1.1377987868825414" stroke="lightgray" x1="328.99587139428985" y1="267.6286608912242" x2="316.2209887792572" y2="211.41075638315033"></line><line stroke-width="0.5688993934412707" stroke="lightgray" x1="328.99587139428985" y1="267.6286608912242" x2="306.91097062865896" y2="283.8077797832294"></line><line stroke-width="0.5688993934412707" stroke="lightgray" x1="328.99587139428985" y1="267.6286608912242" x2="293.92623657278114" y2="266.72509316172307"></line><line stroke-width="2.607024533259087" stroke="lightgray" x1="103.36253421630953" y1="206.38507987696025" x2="186.18036213796344" y2="207.44224218623648"></line><line stroke-width="0.8045452378304726" stroke="lightgray" x1="103.36253421630953" y1="206.38507987696025" x2="121.14426895524701" y2="149.65315060745817"></line><line stroke-width="2.1286266178007454" stroke="lightgray" x1="103.36253421630953" y1="206.38507987696025" x2="82.52900544428984" y2="200.08489322456464"></line><line stroke-width="0.5688993934412707" stroke="lightgray" x1="103.36253421630953" y1="206.38507987696025" x2="126.35896732331605" y2="307.0196052237448"></line><line stroke-width="0.5688993934412707" stroke="lightgray" x1="103.36253421630953" y1="206.38507987696025" x2="64.76113000411416" y2="239.32316145029023"></line><line stroke-width="2.275597573765083" stroke="lightgray" x1="64.76113000411416" y1="239.32316145029023" x2="82.52900544428984" y2="200.08489322456464"></line><line stroke-width="1.2720977160930795" stroke="lightgray" x1="64.76113000411416" y1="239.32316145029023" x2="117.61189138790016" y2="270.7786262301167"></line><line stroke-width="0.5688993934412707" stroke="lightgray" x1="591.2430924385811" y1="253.91744093363224" x2="547.8258890750292" y2="231.56950370642681"></line><line stroke-width="2.2033378764655427" stroke="lightgray" x1="591.2430924385811" y1="253.91744093363224" x2="543.5976931815669" y2="271.7546010297427"></line><line stroke-width="0.5688993934412707" stroke="lightgray" x1="293.92623657278114" y1="266.72509316172307" x2="301.6351449173384" y2="244.39416471006373"></line><line stroke-width="1.1377987868825414" stroke="lightgray" x1="293.92623657278114" y1="266.72509316172307" x2="342.6057719231216" y2="224.14690878180505"></line><line stroke-width="0.5688993934412707" stroke="lightgray" x1="293.92623657278114" y1="266.72509316172307" x2="316.2209887792572" y2="211.41075638315033"></line><line stroke-width="2.4136357134914173" stroke="lightgray" x1="293.92623657278114" y1="266.72509316172307" x2="336.77889452339866" y2="289.6504507722313"></line><line stroke-width="0.5688993934412707" stroke="lightgray" x1="293.92623657278114" y1="266.72509316172307" x2="256.57086798281546" y2="256.80868886129815"></line><line stroke-width="1.5051663160610926" stroke="lightgray" x1="293.92623657278114" y1="266.72509316172307" x2="213.72297795699947" y2="311.5978039163996"></line><line stroke-width="0.5688993934412707" stroke="lightgray" x1="306.91097062865896" y1="283.8077797832294" x2="301.6351449173384" y2="244.39416471006373"></line><line stroke-width="1.7990178427626722" stroke="lightgray" x1="306.91097062865896" y1="283.8077797832294" x2="336.77889452339866" y2="289.6504507722313"></line><line stroke-width="0.5688993934412707" stroke="lightgray" x1="306.91097062865896" y1="283.8077797832294" x2="256.57086798281546" y2="256.80868886129815"></line><line stroke-width="1.2720977160930795" stroke="lightgray" x1="155.3722254330233" y1="231.0598074673693" x2="82.52900544428984" y2="200.08489322456464"></line><line stroke-width="1.7066981803238124" stroke="lightgray" x1="155.3722254330233" y1="231.0598074673693" x2="186.18036213796344" y2="207.44224218623648"></line><line stroke-width="0.8045452378304726" stroke="lightgray" x1="155.3722254330233" y1="231.0598074673693" x2="229.7243505314379" y2="274.08126786792246"></line><line stroke-width="1.1377987868825414" stroke="lightgray" x1="41.968129016648724" y1="210.61937724319645" x2="82.52900544428984" y2="200.08489322456464"></line><line stroke-width="0.8045452378304726" stroke="lightgray" x1="287.5361721946398" y1="292.69976320786805" x2="235.94860744486357" y2="320.17823364757163"></line><line stroke-width="0.8045452378304726" stroke="lightgray" x1="287.5361721946398" y1="292.69976320786805" x2="301.6351449173384" y2="244.39416471006373"></line><line stroke-width="2.275597573765083" stroke="lightgray" x1="287.5361721946398" y1="292.69976320786805" x2="336.77889452339866" y2="289.6504507722313"></line><line stroke-width="0.5688993934412707" stroke="lightgray" x1="287.5361721946398" y1="292.69976320786805" x2="256.57086798281546" y2="256.80868886129815"></line><line stroke-width="0.5688993934412707" stroke="lightgray" x1="258.61462336340026" y1="211.01033972270682" x2="301.6351449173384" y2="244.39416471006373"></line><line stroke-width="2.1286266178007454" stroke="lightgray" x1="258.61462336340026" y1="211.01033972270682" x2="316.2209887792572" y2="211.41075638315033"></line><line stroke-width="0.8045452378304726" stroke="lightgray" x1="258.61462336340026" y1="211.01033972270682" x2="256.57086798281546" y2="256.80868886129815"></line><line stroke-width="0.5688993934412707" stroke="lightgray" x1="258.61462336340026" y1="211.01033972270682" x2="186.18036213796344" y2="207.44224218623648"></line><line stroke-width="1.1377987868825414" stroke="lightgray" x1="88.72127726295791" y1="259.34336783185114" x2="82.52900544428984" y2="200.08489322456464"></line><line stroke-width="0.5688993934412707" stroke="lightgray" x1="88.72127726295791" y1="259.34336783185114" x2="126.35896732331605" y2="307.0196052237448"></line><line stroke-width="1.7066981803238124" stroke="lightgray" x1="184.39135276359738" y1="168.90965272667566" x2="186.18036213796344" y2="207.44224218623648"></line><line stroke-width="0.5688993934412707" stroke="lightgray" x1="180.78786359385663" y1="338.82825435824304" x2="235.94860744486357" y2="320.17823364757163"></line><line stroke-width="1.1377987868825414" stroke="lightgray" x1="180.78786359385663" y1="338.82825435824304" x2="213.72297795699947" y2="311.5978039163996"></line><line stroke-width="0.5688993934412707" stroke="lightgray" x1="180.78786359385663" y1="338.82825435824304" x2="126.35896732331605" y2="307.0196052237448"></line><line stroke-width="1.5051663160610926" stroke="lightgray" x1="131.98287943743517" y1="196.99082213944268" x2="186.18036213796344" y2="207.44224218623648"></line><line stroke-width="0.8045452378304726" stroke="lightgray" x1="131.98287943743517" y1="196.99082213944268" x2="82.52900544428984" y2="200.08489322456464"></line><line stroke-width="1.1377987868825414" stroke="lightgray" x1="40.14669869494756" y1="197.6267169526982" x2="82.52900544428984" y2="200.08489322456464"></line><line stroke-width="0.8045452378304726" stroke="lightgray" x1="77.17959117258583" y1="268.69756408504895" x2="82.52900544428984" y2="200.08489322456464"></line><line stroke-width="1.3935132289099643" stroke="lightgray" x1="77.17959117258583" y1="268.69756408504895" x2="117.61189138790016" y2="270.7786262301167"></line><line stroke-width="0.8045452378304726" stroke="lightgray" x1="77.17959117258583" y1="268.69756408504895" x2="126.35896732331605" y2="307.0196052237448"></line><line stroke-width="1.5051663160610926" stroke="lightgray" x1="380.86513326812906" y1="321.05091793691577" x2="336.77889452339866" y2="289.6504507722313"></line><line stroke-width="0.5688993934412707" stroke="lightgray" x1="380.86513326812906" y1="321.05091793691577" x2="372.2175272318727" y2="289.6449787931771"></line><line stroke-width="0.5688993934412707" stroke="lightgray" x1="134.03965571140026" y1="185.35060883578623" x2="82.52900544428984" y2="200.08489322456464"></line><line stroke-width="0.8045452378304726" stroke="lightgray" x1="134.03965571140026" y1="185.35060883578623" x2="186.18036213796344" y2="207.44224218623648"></line><line stroke-width="2.051195933632864" stroke="lightgray" x1="106.12159857945927" y1="355.1424401017405" x2="139.98094769760843" y2="375.6934657546552"></line><line stroke-width="0.8045452378304726" stroke="lightgray" x1="106.12159857945927" y1="355.1424401017405" x2="126.35896732331605" y2="307.0196052237448"></line><line stroke-width="1.3935132289099643" stroke="lightgray" x1="55.53421918822935" y1="157.66177702780112" x2="82.52900544428984" y2="200.08489322456464"></line><line stroke-width="0.8045452378304726" stroke="lightgray" x1="55.53421918822935" y1="157.66177702780112" x2="80.28450601419901" y2="127.17053244060627"></line><line stroke-width="1.1377987868825414" stroke="lightgray" x1="219.25698332230797" y1="226.41388130349236" x2="186.18036213796344" y2="207.44224218623648"></line><line stroke-width="0.8045452378304726" stroke="lightgray" x1="219.25698332230797" y1="226.41388130349236" x2="256.57086798281546" y2="256.80868886129815"></line><line stroke-width="1.6090904756609452" stroke="lightgray" x1="571.1610301078671" y1="197.51328711865108" x2="547.8258890750292" y2="231.56950370642681"></line><line stroke-width="0.5688993934412707" stroke="lightgray" x1="571.1610301078671" y1="197.51328711865108" x2="526.9701193651764" y2="206.36422123438757"></line><line stroke-width="1.5051663160610926" stroke="lightgray" x1="323.0497792104538" y1="171.13399057190293" x2="316.2209887792572" y2="211.41075638315033"></line><line stroke-width="0.5688993934412707" stroke="lightgray" x1="264.1638522807472" y1="196.5145114945152" x2="186.18036213796344" y2="207.44224218623648"></line><line stroke-width="0.5688993934412707" stroke="lightgray" x1="264.1638522807472" y1="196.5145114945152" x2="342.6057719231216" y2="224.14690878180505"></line><line stroke-width="1.1377987868825414" stroke="lightgray" x1="361.6916263703352" y1="321.8601965057819" x2="336.77889452339866" y2="289.6504507722313"></line><line stroke-width="0.5688993934412707" stroke="lightgray" x1="323.7885618831476" y1="337.69016135109723" x2="271.75350253991877" y2="324.9476689144194"></line><line stroke-width="0.5688993934412707" stroke="lightgray" x1="323.7885618831476" y1="337.69016135109723" x2="336.77889452339866" y2="289.6504507722313"></line><line stroke-width="0.8045452378304726" stroke="lightgray" x1="128.4178825570372" y1="416.7422853581961" x2="139.98094769760843" y2="375.6934657546552"></line><line stroke-width="0.5688993934412707" stroke="lightgray" x1="270.8410704589458" y1="310.58731927538093" x2="336.77889452339866" y2="289.6504507722313"></line><line stroke-width="0.5688993934412707" stroke="lightgray" x1="270.8410704589458" y1="310.58731927538093" x2="229.7243505314379" y2="274.08126786792246"></line><line stroke-width="0.5688993934412707" stroke="lightgray" x1="270.8410704589458" y1="310.58731927538093" x2="213.72297795699947" y2="311.5978039163996"></line><line stroke-width="0.9853626538353975" stroke="lightgray" x1="42.86348969429915" y1="91.42159375196827" x2="80.28450601419901" y2="127.17053244060627"></line><line stroke-width="0.5688993934412707" stroke="lightgray" x1="42.86348969429915" y1="91.42159375196827" x2="39.07679191096709" y2="126.98843028012783"></line><line stroke-width="0.9853626538353975" stroke="lightgray" x1="141.33067653297135" y1="417.5184122609349" x2="139.98094769760843" y2="375.6934657546552"></line><line stroke-width="0.8045452378304726" stroke="lightgray" x1="116.81808118985536" y1="412.1463609839129" x2="139.98094769760843" y2="375.6934657546552"></line><line stroke-width="0.5688993934412707" stroke="lightgray" x1="127.01050630751669" y1="221.92791760378665" x2="82.52900544428984" y2="200.08489322456464"></line><line stroke-width="0.5688993934412707" stroke="lightgray" x1="127.01050630751669" y1="221.92791760378665" x2="117.61189138790016" y2="270.7786262301167"></line><line stroke-width="0.5688993934412707" stroke="lightgray" x1="127.01050630751669" y1="221.92791760378665" x2="186.18036213796344" y2="207.44224218623648"></line><line stroke-width="1.2720977160930795" stroke="lightgray" x1="586.5327812492341" y1="222.0338539226688" x2="547.8258890750292" y2="231.56950370642681"></line><line stroke-width="1.3935132289099643" stroke="lightgray" x1="337.58134322039" y1="175.93587347929017" x2="316.2209887792572" y2="211.41075638315033"></line><line stroke-width="0.9853626538353975" stroke="lightgray" x1="203.62977495385405" y1="305.35949944686837" x2="235.94860744486357" y2="320.17823364757163"></line><line stroke-width="0.8045452378304726" stroke="lightgray" x1="203.62977495385405" y1="305.35949944686837" x2="229.7243505314379" y2="274.08126786792246"></line><line stroke-width="0.8045452378304726" stroke="lightgray" x1="212.6915942345072" y1="353.79060143151554" x2="213.72297795699947" y2="311.5978039163996"></line><line stroke-width="0.8045452378304726" stroke="lightgray" x1="258.9819499238416" y1="296.3556560554263" x2="256.57086798281546" y2="256.80868886129815"></line><line stroke-width="0.8045452378304726" stroke="lightgray" x1="258.9819499238416" y1="296.3556560554263" x2="271.75350253991877" y2="324.9476689144194"></line><line stroke-width="1.1377987868825414" stroke="lightgray" x1="44.41751578159377" y1="185.01347354767626" x2="82.52900544428984" y2="200.08489322456464"></line><line stroke-width="0.5688993934412707" stroke="lightgray" x1="298.2402449943529" y1="307.6742746120678" x2="235.94860744486357" y2="320.17823364757163"></line><line stroke-width="0.5688993934412707" stroke="lightgray" x1="298.2402449943529" y1="307.6742746120678" x2="301.6351449173384" y2="244.39416471006373"></line><line stroke-width="1.1377987868825414" stroke="lightgray" x1="298.2402449943529" y1="307.6742746120678" x2="336.77889452339866" y2="289.6504507722313"></line><line stroke-width="0.5688993934412707" stroke="lightgray" x1="569.4212623323372" y1="301.4548692667078" x2="543.5976931815669" y2="271.7546010297427"></line><line stroke-width="1.1377987868825414" stroke="lightgray" x1="347.7711907246081" y1="254.35844706469814" x2="336.77889452339866" y2="289.6504507722313"></line><line stroke-width="0.5688993934412707" stroke="lightgray" x1="347.7711907246081" y1="254.35844706469814" x2="301.6351449173384" y2="244.39416471006373"></line><line stroke-width="1.2720977160930795" stroke="lightgray" x1="348.6676036828208" y1="186.7849081511238" x2="316.2209887792572" y2="211.41075638315033"></line><line stroke-width="0.8045452378304726" stroke="lightgray" x1="579.1381380228917" y1="286.04209234434103" x2="543.5976931815669" y2="271.7546010297427"></line><line stroke-width="0.5688993934412707" stroke="lightgray" x1="156.1024295095605" y1="344.5541326360558" x2="139.98094769760843" y2="375.6934657546552"></line><line stroke-width="0.5688993934412707" stroke="lightgray" x1="156.1024295095605" y1="344.5541326360558" x2="213.72297795699947" y2="311.5978039163996"></line><line stroke-width="0.5688993934412707" stroke="lightgray" x1="156.1024295095605" y1="344.5541326360558" x2="126.35896732331605" y2="307.0196052237448"></line><line stroke-width="1.1377987868825414" stroke="lightgray" x1="511.37118207837176" y1="226.46170431332473" x2="547.8258890750292" y2="231.56950370642681"></line><line stroke-width="0.5688993934412707" stroke="lightgray" x1="511.37118207837176" y1="226.46170431332473" x2="465.9299230406628" y2="241.15104284157576"></line><line stroke-width="0.8045452378304726" stroke="lightgray" x1="107.55622211909314" y1="403.1542596025527" x2="139.98094769760843" y2="375.6934657546552"></line><line stroke-width="0.5688993934412707" stroke="lightgray" x1="242.09685628510707" y1="215.22819071361116" x2="301.6351449173384" y2="244.39416471006373"></line><line stroke-width="0.5688993934412707" stroke="lightgray" x1="242.09685628510707" y1="215.22819071361116" x2="186.18036213796344" y2="207.44224218623648"></line><line stroke-width="2.7870264578199286" stroke="lightgray" x1="336.77889452339866" y1="289.6504507722313" x2="235.94860744486357" y2="320.17823364757163"></line><line stroke-width="4.102391867265728" stroke="lightgray" x1="336.77889452339866" y1="289.6504507722313" x2="301.6351449173384" y2="244.39416471006373"></line><line stroke-width="2.607024533259087" stroke="lightgray" x1="336.77889452339866" y1="289.6504507722313" x2="229.7243505314379" y2="274.08126786792246"></line><line stroke-width="2.4136357134914173" stroke="lightgray" x1="336.77889452339866" y1="289.6504507722313" x2="385.6111869652904" y2="248.03538690641724"></line><line stroke-width="2.051195933632864" stroke="lightgray" x1="336.77889452339866" y1="289.6504507722313" x2="256.57086798281546" y2="256.80868886129815"></line><line stroke-width="0.9853626538353975" stroke="lightgray" x1="336.77889452339866" y1="289.6504507722313" x2="213.72297795699947" y2="311.5978039163996"></line><line stroke-width="1.7990178427626722" stroke="lightgray" x1="336.77889452339866" y1="289.6504507722313" x2="372.2175272318727" y2="289.6449787931771"></line><line stroke-width="1.1377987868825414" stroke="lightgray" x1="336.77889452339866" y1="289.6504507722313" x2="186.18036213796344" y2="207.44224218623648"></line><line stroke-width="1.6090904756609452" stroke="lightgray" x1="336.77889452339866" y1="289.6504507722313" x2="342.6057719231216" y2="224.14690878180505"></line><line stroke-width="0.9853626538353975" stroke="lightgray" x1="336.77889452339866" y1="289.6504507722313" x2="420.3972061485788" y2="243.51591971299223"></line><line stroke-width="1.1377987868825414" stroke="lightgray" x1="336.77889452339866" y1="289.6504507722313" x2="316.2209887792572" y2="211.41075638315033"></line><line stroke-width="0.8045452378304726" stroke="lightgray" x1="336.77889452339866" y1="289.6504507722313" x2="465.9299230406628" y2="241.15104284157576"></line><line stroke-width="2.607024533259087" stroke="lightgray" x1="82.52900544428984" y1="200.08489322456464" x2="36.80940377951301" y2="151.3276399933031"></line><line stroke-width="1.3935132289099643" stroke="lightgray" x1="82.52900544428984" y1="200.08489322456464" x2="80.28450601419901" y2="127.17053244060627"></line><line stroke-width="1.7990178427626722" stroke="lightgray" x1="82.52900544428984" y1="200.08489322456464" x2="186.18036213796344" y2="207.44224218623648"></line><line stroke-width="0.5688993934412707" stroke="lightgray" x1="82.52900544428984" y1="200.08489322456464" x2="256.57086798281546" y2="256.80868886129815"></line><line stroke-width="1.3935132289099643" stroke="lightgray" x1="82.52900544428984" y1="200.08489322456464" x2="117.61189138790016" y2="270.7786262301167"></line><line stroke-width="0.9853626538353975" stroke="lightgray" x1="82.52900544428984" y1="200.08489322456464" x2="121.14426895524701" y2="149.65315060745817"></line><line stroke-width="1.2720977160930795" stroke="lightgray" x1="82.52900544428984" y1="200.08489322456464" x2="39.07679191096709" y2="126.98843028012783"></line><line stroke-width="0.8045452378304726" stroke="lightgray" x1="82.52900544428984" y1="200.08489322456464" x2="126.35896732331605" y2="307.0196052237448"></line><line stroke-width="2.3456322895081785" stroke="lightgray" x1="213.72297795699947" y1="311.5978039163996" x2="235.94860744486357" y2="320.17823364757163"></line><line stroke-width="4.1416501001974835" stroke="lightgray" x1="213.72297795699947" y1="311.5978039163996" x2="126.35896732331605" y2="307.0196052237448"></line><line stroke-width="0.5688993934412707" stroke="lightgray" x1="213.72297795699947" y1="311.5978039163996" x2="301.6351449173384" y2="244.39416471006373"></line><line stroke-width="0.5688993934412707" stroke="lightgray" x1="213.72297795699947" y1="311.5978039163996" x2="186.18036213796344" y2="207.44224218623648"></line><line stroke-width="2.275597573765083" stroke="lightgray" x1="213.72297795699947" y1="311.5978039163996" x2="256.57086798281546" y2="256.80868886129815"></line><line stroke-width="0.5688993934412707" stroke="lightgray" x1="213.72297795699947" y1="311.5978039163996" x2="139.98094769760843" y2="375.6934657546552"></line><line stroke-width="1.7990178427626722" stroke="lightgray" x1="213.72297795699947" y1="311.5978039163996" x2="229.7243505314379" y2="274.08126786792246"></line><line stroke-width="0.5688993934412707" stroke="lightgray" x1="213.72297795699947" y1="311.5978039163996" x2="117.61189138790016" y2="270.7786262301167"></line><line stroke-width="2.544195432186159" stroke="lightgray" x1="547.8258890750292" y1="231.56950370642681" x2="465.9299230406628" y2="241.15104284157576"></line><line stroke-width="0.9853626538353975" stroke="lightgray" x1="547.8258890750292" y1="231.56950370642681" x2="526.9701193651764" y2="206.36422123438757"></line><line stroke-width="1.970725307670795" stroke="lightgray" x1="547.8258890750292" y1="231.56950370642681" x2="420.3972061485788" y2="243.51591971299223"></line><line stroke-width="0.9853626538353975" stroke="lightgray" x1="547.8258890750292" y1="231.56950370642681" x2="543.5976931815669" y2="271.7546010297427"></line><line stroke-width="1.3935132289099643" stroke="lightgray" x1="547.8258890750292" y1="231.56950370642681" x2="513.6377808516629" y2="245.75503709921318"></line><line stroke-width="1.2720977160930795" stroke="lightgray" x1="186.18036213796344" y1="207.44224218623648" x2="235.94860744486357" y2="320.17823364757163"></line><line stroke-width="1.1377987868825414" stroke="lightgray" x1="186.18036213796344" y1="207.44224218623648" x2="80.28450601419901" y2="127.17053244060627"></line><line stroke-width="1.7990178427626722" stroke="lightgray" x1="186.18036213796344" y1="207.44224218623648" x2="121.14426895524701" y2="149.65315060745817"></line><line stroke-width="1.7066981803238124" stroke="lightgray" x1="186.18036213796344" y1="207.44224218623648" x2="229.7243505314379" y2="274.08126786792246"></line><line stroke-width="1.2720977160930795" stroke="lightgray" x1="186.18036213796344" y1="207.44224218623648" x2="256.57086798281546" y2="256.80868886129815"></line><line stroke-width="0.8045452378304726" stroke="lightgray" x1="186.18036213796344" y1="207.44224218623648" x2="301.6351449173384" y2="244.39416471006373"></line><line stroke-width="1.5051663160610926" stroke="lightgray" x1="186.18036213796344" y1="207.44224218623648" x2="342.6057719231216" y2="224.14690878180505"></line><line stroke-width="0.8045452378304726" stroke="lightgray" x1="186.18036213796344" y1="207.44224218623648" x2="117.61189138790016" y2="270.7786262301167"></line><line stroke-width="0.5688993934412707" stroke="lightgray" x1="186.18036213796344" y1="207.44224218623648" x2="316.2209887792572" y2="211.41075638315033"></line><line stroke-width="1.3935132289099643" stroke="lightgray" x1="316.2209887792572" y1="211.41075638315033" x2="301.6351449173384" y2="244.39416471006373"></line><line stroke-width="1.2720977160930795" stroke="lightgray" x1="316.2209887792572" y1="211.41075638315033" x2="256.57086798281546" y2="256.80868886129815"></line><line stroke-width="1.3935132289099643" stroke="lightgray" x1="316.2209887792572" y1="211.41075638315033" x2="342.6057719231216" y2="224.14690878180505"></line><line stroke-width="0.5688993934412707" stroke="lightgray" x1="316.2209887792572" y1="211.41075638315033" x2="420.3972061485788" y2="243.51591971299223"></line><line stroke-width="2.4136357134914173" stroke="lightgray" x1="139.98094769760843" y1="375.6934657546552" x2="126.35896732331605" y2="307.0196052237448"></line><line stroke-width="1.1377987868825414" stroke="lightgray" x1="139.98094769760843" y1="375.6934657546552" x2="235.94860744486357" y2="320.17823364757163"></line><line stroke-width="0.5688993934412707" stroke="lightgray" x1="139.98094769760843" y1="375.6934657546552" x2="117.61189138790016" y2="270.7786262301167"></line><line stroke-width="1.970725307670795" stroke="lightgray" x1="543.5976931815669" y1="271.7546010297427" x2="420.3972061485788" y2="243.51591971299223"></line><line stroke-width="1.1377987868825414" stroke="lightgray" x1="543.5976931815669" y1="271.7546010297427" x2="465.9299230406628" y2="241.15104284157576"></line><line stroke-width="0.9853626538353975" stroke="lightgray" x1="80.28450601419901" y1="127.17053244060627" x2="36.80940377951301" y2="151.3276399933031"></line><line stroke-width="1.5051663160610926" stroke="lightgray" x1="80.28450601419901" y1="127.17053244060627" x2="39.07679191096709" y2="126.98843028012783"></line><line stroke-width="0.8045452378304726" stroke="lightgray" x1="80.28450601419901" y1="127.17053244060627" x2="121.14426895524701" y2="149.65315060745817"></line><line stroke-width="2.4797749650520853" stroke="lightgray" x1="117.61189138790016" y1="270.7786262301167" x2="126.35896732331605" y2="307.0196052237448"></line><line stroke-width="0.5688993934412707" stroke="lightgray" x1="271.75350253991877" y1="324.9476689144194" x2="229.7243505314379" y2="274.08126786792246"></line><line stroke-width="1.7066981803238124" stroke="lightgray" x1="271.75350253991877" y1="324.9476689144194" x2="256.57086798281546" y2="256.80868886129815"></line><line stroke-width="0.8045452378304726" stroke="lightgray" x1="278.90043318884693" y1="221.67520505662688" x2="301.6351449173384" y2="244.39416471006373"></line><line stroke-width="0.5688993934412707" stroke="lightgray" x1="278.90043318884693" y1="221.67520505662688" x2="256.57086798281546" y2="256.80868886129815"></line><line stroke-width="0.9853626538353975" stroke="lightgray" x1="175.62178129734065" y1="324.11450503317997" x2="126.35896732331605" y2="307.0196052237448"></line><line stroke-width="0.5688993934412707" stroke="lightgray" x1="175.62178129734065" y1="324.11450503317997" x2="235.94860744486357" y2="320.17823364757163"></line><line stroke-width="1.1377987868825414" stroke="lightgray" x1="454.2441784697967" y1="257.6135451901834" x2="420.3972061485788" y2="243.51591971299223"></line><line stroke-width="0.8045452378304726" stroke="lightgray" x1="91.85846466911457" y1="329.0145926644217" x2="126.35896732331605" y2="307.0196052237448"></line><line stroke-width="0.8045452378304726" stroke="lightgray" x1="238.29177841019214" y1="290.2374070179202" x2="235.94860744486357" y2="320.17823364757163"></line><line stroke-width="0.5688993934412707" stroke="lightgray" x1="238.29177841019214" y1="290.2374070179202" x2="256.57086798281546" y2="256.80868886129815"></line><line stroke-width="1.7990178427626722" stroke="lightgray" x1="126.35896732331605" y1="307.0196052237448" x2="235.94860744486357" y2="320.17823364757163"></line><line stroke-width="0.5688993934412707" stroke="lightgray" x1="126.35896732331605" y1="307.0196052237448" x2="229.7243505314379" y2="274.08126786792246"></line><line stroke-width="2.900829108428139" stroke="lightgray" x1="420.3972061485788" y1="243.51591971299223" x2="385.6111869652904" y2="248.03538690641724"></line><line stroke-width="0.8045452378304726" stroke="lightgray" x1="420.3972061485788" y1="243.51591971299223" x2="342.6057719231216" y2="224.14690878180505"></line><line stroke-width="1.7990178427626722" stroke="lightgray" x1="420.3972061485788" y1="243.51591971299223" x2="465.9299230406628" y2="241.15104284157576"></line><line stroke-width="0.8045452378304726" stroke="lightgray" x1="420.3972061485788" y1="243.51591971299223" x2="301.6351449173384" y2="244.39416471006373"></line><line stroke-width="2.4797749650520853" stroke="lightgray" x1="256.57086798281546" y1="256.80868886129815" x2="235.94860744486357" y2="320.17823364757163"></line><line stroke-width="0.8045452378304726" stroke="lightgray" x1="256.57086798281546" y1="256.80868886129815" x2="301.6351449173384" y2="244.39416471006373"></line><line stroke-width="0.5688993934412707" stroke="lightgray" x1="256.57086798281546" y1="256.80868886129815" x2="229.7243505314379" y2="274.08126786792246"></line><line stroke-width="0.9853626538353975" stroke="lightgray" x1="301.6351449173384" y1="244.39416471006373" x2="235.94860744486357" y2="320.17823364757163"></line><line stroke-width="0.5688993934412707" stroke="lightgray" x1="301.6351449173384" y1="244.39416471006373" x2="342.6057719231216" y2="224.14690878180505"></line><line stroke-width="1.6090904756609452" stroke="lightgray" x1="301.6351449173384" y1="244.39416471006373" x2="385.6111869652904" y2="248.03538690641724"></line><line stroke-width="0.5688993934412707" stroke="lightgray" x1="301.6351449173384" y1="244.39416471006373" x2="229.7243505314379" y2="274.08126786792246"></line><line stroke-width="2.6683746807509263" stroke="lightgray" x1="229.7243505314379" y1="274.08126786792246" x2="235.94860744486357" y2="320.17823364757163"></line><line stroke-width="2.3456322895081785" stroke="lightgray" x1="342.6057719231216" y1="224.14690878180505" x2="385.6111869652904" y2="248.03538690641724"></line><line stroke-width="1.1377987868825414" stroke="lightgray" x1="342.6057719231216" y1="224.14690878180505" x2="465.9299230406628" y2="241.15104284157576"></line><line stroke-width="0.5688993934412707" stroke="lightgray" x1="513.6377808516629" y1="245.75503709921318" x2="465.9299230406628" y2="241.15104284157576"></line><line stroke-width="0.5688993934412707" stroke="lightgray" x1="526.9701193651764" y1="206.36422123438757" x2="465.9299230406628" y2="241.15104284157576"></line><line stroke-width="0.5688993934412707" stroke="lightgray" x1="39.07679191096709" y1="126.98843028012783" x2="36.80940377951301" y2="151.3276399933031"></line><line stroke-width="0.8045452378304726" stroke="lightgray" x1="385.6111869652904" y1="248.03538690641724" x2="465.9299230406628" y2="241.15104284157576"></line></g><g class="nodes"><circle r="4.406675752931085" fill="rgb(254, 219, 184)" stroke="black" stroke-width="1px" transform="translate(84.08742238142074,151.36611085055142)"></circle><circle r="4.102391867265728" fill="rgb(254, 221, 188)" stroke="black" stroke-width="1px" transform="translate(107.48219976874135,231.6169853638836)"></circle><circle r="4.102391867265728" fill="rgb(253, 217, 180)" stroke="black" stroke-width="1px" transform="translate(309.4809590401635,260.8623802961061)"></circle><circle r="4.102391867265728" fill="rgb(254, 221, 187)" stroke="black" stroke-width="1px" transform="translate(109.03644042783128,163.33606377528267)"></circle><circle r="4.102391867265728" fill="rgb(254, 225, 197)" stroke="black" stroke-width="1px" transform="translate(597.8312736642955,285.47206270292327)"></circle><circle r="3.773651663010938" fill="rgb(253, 218, 182)" stroke="black" stroke-width="1px" transform="translate(328.99587139428985,267.6286608912242)"></circle><circle r="3.4133963606476247" fill="rgb(254, 219, 184)" stroke="black" stroke-width="1px" transform="translate(103.36253421630953,206.38507987696025)"></circle><circle r="3.4133963606476247" fill="rgb(254, 225, 196)" stroke="black" stroke-width="1px" transform="translate(64.76113000411416,239.32316145029023)"></circle><circle r="3.2181809513218904" fill="rgb(254, 230, 205)" stroke="black" stroke-width="1px" transform="translate(591.2430924385811,253.91744093363224)"></circle><circle r="3.2181809513218904" fill="rgb(254, 220, 186)" stroke="black" stroke-width="1px" transform="translate(293.92623657278114,266.72509316172307)"></circle><circle r="2.7870264578199286" fill="rgb(254, 231, 208)" stroke="black" stroke-width="1px" transform="translate(306.91097062865896,283.8077797832294)"></circle><circle r="2.544195432186159" fill="rgb(254, 230, 205)" stroke="black" stroke-width="1px" transform="translate(155.3722254330233,231.0598074673693)"></circle><circle r="2.544195432186159" fill="rgb(254, 229, 204)" stroke="black" stroke-width="1px" transform="translate(41.968129016648724,210.61937724319645)"></circle><circle r="2.544195432186159" fill="rgb(254, 227, 200)" stroke="black" stroke-width="1px" transform="translate(287.5361721946398,292.69976320786805)"></circle><circle r="2.275597573765083" fill="rgb(254, 219, 185)" stroke="black" stroke-width="1px" transform="translate(258.61462336340026,211.01033972270682)"></circle><circle r="1.970725307670795" fill="rgb(254, 227, 200)" stroke="black" stroke-width="1px" transform="translate(88.72127726295791,259.34336783185114)"></circle><circle r="1.970725307670795" fill="rgb(253, 216, 178)" stroke="black" stroke-width="1px" transform="translate(184.39135276359738,168.90965272667566)"></circle><circle r="1.6090904756609452" fill="rgb(253, 213, 173)" stroke="black" stroke-width="1px" transform="translate(180.78786359385663,338.82825435824304)"></circle><circle r="1.6090904756609452" fill="rgb(253, 216, 178)" stroke="black" stroke-width="1px" transform="translate(131.98287943743517,196.99082213944268)"></circle><circle r="1.6090904756609452" fill="rgb(254, 232, 209)" stroke="black" stroke-width="1px" transform="translate(40.14669869494756,197.6267169526982)"></circle><circle r="1.6090904756609452" fill="rgb(253, 213, 172)" stroke="black" stroke-width="1px" transform="translate(77.17959117258583,268.69756408504895)"></circle><circle r="1.6090904756609452" fill="rgb(254, 226, 197)" stroke="black" stroke-width="1px" transform="translate(380.86513326812906,321.05091793691577)"></circle><circle r="1.6090904756609452" fill="rgb(254, 231, 208)" stroke="black" stroke-width="1px" transform="translate(134.03965571140026,185.35060883578623)"></circle><circle r="1.6090904756609452" fill="rgb(253, 213, 172)" stroke="black" stroke-width="1px" transform="translate(106.12159857945927,355.1424401017405)"></circle><circle r="1.6090904756609452" fill="rgb(253, 210, 167)" stroke="black" stroke-width="1px" transform="translate(55.53421918822935,157.66177702780112)"></circle><circle r="1.6090904756609452" fill="rgb(254, 218, 183)" stroke="black" stroke-width="1px" transform="translate(219.25698332230797,226.41388130349236)"></circle><circle r="1.6090904756609452" fill="rgb(253, 209, 166)" stroke="black" stroke-width="1px" transform="translate(571.1610301078671,197.51328711865108)"></circle><circle r="1.1377987868825414" fill="rgb(254, 222, 191)" stroke="black" stroke-width="1px" transform="translate(323.0497792104538,171.13399057190293)"></circle><circle r="1.1377987868825414" fill="rgb(254, 235, 215)" stroke="black" stroke-width="1px" transform="translate(264.1638522807472,196.5145114945152)"></circle><circle r="1.1377987868825414" fill="rgb(254, 232, 211)" stroke="black" stroke-width="1px" transform="translate(361.6916263703352,321.8601965057819)"></circle><circle r="1.1377987868825414" fill="rgb(254, 220, 187)" stroke="black" stroke-width="1px" transform="translate(323.7885618831476,337.69016135109723)"></circle><circle r="1.1377987868825414" fill="rgb(254, 224, 195)" stroke="black" stroke-width="1px" transform="translate(128.4178825570372,416.7422853581961)"></circle><circle r="1.1377987868825414" fill="rgb(254, 221, 188)" stroke="black" stroke-width="1px" transform="translate(270.8410704589458,310.58731927538093)"></circle><circle r="1.1377987868825414" fill="rgb(253, 218, 182)" stroke="black" stroke-width="1px" transform="translate(42.86348969429915,91.42159375196827)"></circle><circle r="1.1377987868825414" fill="rgb(254, 227, 200)" stroke="black" stroke-width="1px" transform="translate(141.33067653297135,417.5184122609349)"></circle><circle r="1.1377987868825414" fill="rgb(254, 229, 205)" stroke="black" stroke-width="1px" transform="translate(116.81808118985536,412.1463609839129)"></circle><circle r="1.1377987868825414" fill="rgb(254, 226, 199)" stroke="black" stroke-width="1px" transform="translate(127.01050630751669,221.92791760378665)"></circle><circle r="1.1377987868825414" fill="rgb(253, 208, 163)" stroke="black" stroke-width="1px" transform="translate(586.5327812492341,222.0338539226688)"></circle><circle r="1.1377987868825414" fill="rgb(253, 211, 170)" stroke="black" stroke-width="1px" transform="translate(337.58134322039,175.93587347929017)"></circle><circle r="1.1377987868825414" fill="rgb(254, 219, 183)" stroke="black" stroke-width="1px" transform="translate(203.62977495385405,305.35949944686837)"></circle><circle r="1.1377987868825414" fill="rgb(254, 231, 208)" stroke="black" stroke-width="1px" transform="translate(212.6915942345072,353.79060143151554)"></circle><circle r="1.1377987868825414" fill="rgb(254, 221, 188)" stroke="black" stroke-width="1px" transform="translate(258.9819499238416,296.3556560554263)"></circle><circle r="1.1377987868825414" fill="rgb(254, 218, 183)" stroke="black" stroke-width="1px" transform="translate(44.41751578159377,185.01347354767626)"></circle><circle r="1.1377987868825414" fill="rgb(253, 208, 163)" stroke="black" stroke-width="1px" transform="translate(298.2402449943529,307.6742746120678)"></circle><circle r="1.1377987868825414" fill="rgb(254, 231, 208)" stroke="black" stroke-width="1px" transform="translate(569.4212623323372,301.4548692667078)"></circle><circle r="1.1377987868825414" fill="rgb(253, 214, 174)" stroke="black" stroke-width="1px" transform="translate(347.7711907246081,254.35844706469814)"></circle><circle r="1.1377987868825414" fill="rgb(254, 218, 183)" stroke="black" stroke-width="1px" transform="translate(348.6676036828208,186.7849081511238)"></circle><circle r="1.1377987868825414" fill="rgb(254, 236, 217)" stroke="black" stroke-width="1px" transform="translate(579.1381380228917,286.04209234434103)"></circle><circle r="1.1377987868825414" fill="rgb(254, 222, 190)" stroke="black" stroke-width="1px" transform="translate(156.1024295095605,344.5541326360558)"></circle><circle r="1.1377987868825414" fill="rgb(253, 206, 161)" stroke="black" stroke-width="1px" transform="translate(511.37118207837176,226.46170431332473)"></circle><circle r="1.1377987868825414" fill="rgb(253, 217, 181)" stroke="black" stroke-width="1px" transform="translate(107.55622211909314,403.1542596025527)"></circle><circle r="1.1377987868825414" fill="rgb(254, 225, 196)" stroke="black" stroke-width="1px" transform="translate(242.09685628510707,215.22819071361116)"></circle><circle r="8.886492606496354" fill="rgb(253, 175, 110)" stroke="black" stroke-width="1px" transform="translate(336.77889452339866,289.6504507722313)"></circle><circle r="8.204783734531455" fill="rgb(253, 182, 121)" stroke="black" stroke-width="1px" transform="translate(82.52900544428984,200.08489322456464)"></circle><circle r="6.231980614775811" fill="rgb(253, 171, 103)" stroke="black" stroke-width="1px" transform="translate(213.72297795699947,311.5978039163996)"></circle><circle r="6.0206652642443705" fill="rgb(253, 175, 109)" stroke="black" stroke-width="1px" transform="translate(547.8258890750292,231.56950370642681)"></circle><circle r="5.912175923012385" fill="rgb(253, 182, 121)" stroke="black" stroke-width="1px" transform="translate(186.18036213796344,207.44224218623648)"></circle><circle r="5.088390864372318" fill="rgb(253, 187, 128)" stroke="black" stroke-width="1px" transform="translate(316.2209887792572,211.41075638315033)"></circle><circle r="4.102391867265728" fill="rgb(253, 176, 111)" stroke="black" stroke-width="1px" transform="translate(139.98094769760843,375.6934657546552)"></circle><circle r="3.94145061534159" fill="rgb(253, 184, 123)" stroke="black" stroke-width="1px" transform="translate(543.5976931815669,271.7546010297427)"></circle><circle r="3.94145061534159" fill="rgb(253, 180, 118)" stroke="black" stroke-width="1px" transform="translate(80.28450601419901,127.17053244060627)"></circle><circle r="3.773651663010938" fill="rgb(253, 168, 99)" stroke="black" stroke-width="1px" transform="translate(117.61189138790016,270.7786262301167)"></circle><circle r="1.970725307670795" fill="rgb(253, 172, 105)" stroke="black" stroke-width="1px" transform="translate(271.75350253991877,324.9476689144194)"></circle><circle r="1.1377987868825414" fill="rgb(253, 191, 135)" stroke="black" stroke-width="1px" transform="translate(278.90043318884693,221.67520505662688)"></circle><circle r="1.1377987868825414" fill="rgb(253, 174, 107)" stroke="black" stroke-width="1px" transform="translate(175.62178129734065,324.11450503317997)"></circle><circle r="1.1377987868825414" fill="rgb(253, 191, 135)" stroke="black" stroke-width="1px" transform="translate(454.2441784697967,257.6135451901834)"></circle><circle r="1.1377987868825414" fill="rgb(253, 179, 116)" stroke="black" stroke-width="1px" transform="translate(91.85846466911457,329.0145926644217)"></circle><circle r="1.1377987868825414" fill="rgb(253, 205, 158)" stroke="black" stroke-width="1px" transform="translate(238.29177841019214,290.2374070179202)"></circle><circle r="4.959549930104171" fill="rgb(245, 120, 37)" stroke="black" stroke-width="1px" transform="translate(126.35896732331605,307.0196052237448)"></circle><circle r="4.406675752931085" fill="rgb(241, 111, 27)" stroke="black" stroke-width="1px" transform="translate(420.3972061485788,243.51591971299223)"></circle><circle r="3.5980356855253444" fill="rgb(243, 114, 31)" stroke="black" stroke-width="1px" transform="translate(256.57086798281546,256.80868886129815)"></circle><circle r="3.4133963606476247" fill="rgb(245, 118, 35)" stroke="black" stroke-width="1px" transform="translate(301.6351449173384,244.39416471006373)"></circle><circle r="3.2181809513218904" fill="rgb(244, 115, 32)" stroke="black" stroke-width="1px" transform="translate(229.7243505314379,274.08126786792246)"></circle><circle r="3.0103326321221853" fill="rgb(241, 109, 26)" stroke="black" stroke-width="1px" transform="translate(342.6057719231216,224.14690878180505)"></circle><circle r="1.1377987868825414" fill="rgb(251, 140, 60)" stroke="black" stroke-width="1px" transform="translate(372.2175272318727,289.6449787931771)"></circle><circle r="1.1377987868825414" fill="rgb(249, 132, 51)" stroke="black" stroke-width="1px" transform="translate(513.6377808516629,245.75503709921318)"></circle><circle r="1.1377987868825414" fill="rgb(250, 136, 56)" stroke="black" stroke-width="1px" transform="translate(526.9701193651764,206.36422123438757)"></circle><circle r="1.1377987868825414" fill="rgb(250, 138, 58)" stroke="black" stroke-width="1px" transform="translate(39.07679191096709,126.98843028012783)"></circle><circle r="1.1377987868825414" fill="rgb(248, 128, 45)" stroke="black" stroke-width="1px" transform="translate(121.14426895524701,149.65315060745817)"></circle><circle r="3.2181809513218904" fill="rgb(201, 68, 3)" stroke="black" stroke-width="1px" transform="translate(235.94860744486357,320.17823364757163)"></circle><circle r="3.2181809513218904" fill="rgb(205, 70, 3)" stroke="black" stroke-width="1px" transform="translate(385.6111869652904,248.03538690641724)"></circle><circle r="1.970725307670795" fill="rgb(170, 55, 3)" stroke="black" stroke-width="1px" transform="translate(465.9299230406628,241.15104284157576)"></circle><circle r="1.1377987868825414" fill="rgb(205, 70, 3)" stroke="black" stroke-width="1px" transform="translate(36.80940377951301,151.3276399933031)"></circle></g></g><g><text x="505" y="495" font-family="sans-serif" text-anchor="end" font-size="10px" fill="red">83 nodes</text><text x="505" y="505" font-family="sans-serif" text-anchor="end" font-size="10px" fill="red">214 edges</text></g></svg>