<svg height="512" width="512" style="border-style: solid; border-width: 1px; cursor: auto;" id="figure"><g transform="translate(-178.80461738388533,-223.52663894762998) scale(1.7433882610336886)"><g class="links"><line stroke-width="1.9451576377782576" stroke="lightgray" x1="245.1318700459558" y1="234.61479456179282" x2="271.1623146298906" y2="270.787838614349"></line><line stroke-width="1.5708565032450397" stroke="lightgray" x1="245.1318700459558" y1="234.61479456179282" x2="242.45548684037757" y2="274.1242585868953"></line><line stroke-width="1.6967189453231313" stroke="lightgray" x1="245.1318700459558" y1="234.61479456179282" x2="254.193668802649" y2="310.0073273901032"></line><line stroke-width="1.216780215269931" stroke="lightgray" x1="245.1318700459558" y1="234.61479456179282" x2="257.6395596067773" y2="272.54962629396954"></line><line stroke-width="0.4055934050899771" stroke="lightgray" x1="245.1318700459558" y1="234.61479456179282" x2="273.4039647356013" y2="202.20077342149034"></line><line stroke-width="0.7587957800908541" stroke="lightgray" x1="245.1318700459558" y1="234.61479456179282" x2="258.6845026450407" y2="166.68381868901574"></line><line stroke-width="1.490245328262602" stroke="lightgray" x1="245.1318700459558" y1="234.61479456179282" x2="228.87814188064007" y2="275.9279521882523"></line><line stroke-width="1.0730992832759583" stroke="lightgray" x1="245.1318700459558" y1="234.61479456179282" x2="238.7235770489606" y2="195.35180331326305"></line><line stroke-width="0.8111868101799542" stroke="lightgray" x1="245.1318700459558" y1="234.61479456179282" x2="252.46049789492793" y2="201.9480451090051"></line><line stroke-width="1.490245328262602" stroke="lightgray" x1="245.1318700459558" y1="234.61479456179282" x2="220.18358621987576" y2="188.77395532277853"></line><line stroke-width="0.4055934050899771" stroke="lightgray" x1="245.1318700459558" y1="234.61479456179282" x2="207.4909753274249" y2="220.53590511368458"></line><line stroke-width="1.5175915601817083" stroke="lightgray" x1="258.6845026450407" y1="166.68381868901574" x2="269.7837101406218" y2="132.03917795163855"></line><line stroke-width="1.8586624801997071" stroke="lightgray" x1="258.6845026450407" y1="166.68381868901574" x2="246.75671930926694" y2="132.68621400805074"></line><line stroke-width="1.1471913885746605" stroke="lightgray" x1="258.6845026450407" y1="166.68381868901574" x2="288.0495150410412" y2="145.64186645170065"></line><line stroke-width="0.7587957800908541" stroke="lightgray" x1="258.6845026450407" y1="166.68381868901574" x2="238.7235770489606" y2="195.35180331326305"></line><line stroke-width="1.034064343569168" stroke="lightgray" x1="258.6845026450407" y1="166.68381868901574" x2="273.4039647356013" y2="202.20077342149034"></line><line stroke-width="1.0730992832759583" stroke="lightgray" x1="258.6845026450407" y1="166.68381868901574" x2="220.18358621987576" y2="188.77395532277853"></line><line stroke-width="0.5735956942873303" stroke="lightgray" x1="254.193668802649" y1="310.0073273901032" x2="271.1623146298906" y2="270.787838614349"></line><line stroke-width="0.9512008496572384" stroke="lightgray" x1="254.193668802649" y1="310.0073273901032" x2="242.45548684037757" y2="274.1242585868953"></line><line stroke-width="1.2825989640276583" stroke="lightgray" x1="254.193668802649" y1="310.0073273901032" x2="282.8080540845782" y2="329.02082665936746"></line><line stroke-width="0.7025083848307054" stroke="lightgray" x1="254.193668802649" y1="310.0073273901032" x2="228.87814188064007" y2="275.9279521882523"></line><line stroke-width="0.906934425006798" stroke="lightgray" x1="254.193668802649" y1="310.0073273901032" x2="266.7450727861683" y2="374.4647414601858"></line><line stroke-width="0.5735956942873303" stroke="lightgray" x1="254.193668802649" y1="310.0073273901032" x2="245.48581444691277" y2="348.4586775129108"></line><line stroke-width="0.28679784714366513" stroke="lightgray" x1="254.193668802649" y1="310.0073273901032" x2="257.6395596067773" y2="272.54962629396954"></line><line stroke-width="1.1824978169730795" stroke="lightgray" x1="220.18358621987576" y1="188.77395532277853" x2="207.4909753274249" y2="220.53590511368458"></line><line stroke-width="0.9512008496572384" stroke="lightgray" x1="220.18358621987576" y1="188.77395532277853" x2="252.46049789492793" y2="201.9480451090051"></line><line stroke-width="0.5735956942873303" stroke="lightgray" x1="266.7450727861683" y1="374.4647414601858" x2="259.9054217572008" y2="415.14574000908124"></line><line stroke-width="1.5444536732000063" stroke="lightgray" x1="266.7450727861683" y1="374.4647414601858" x2="245.48581444691277" y2="348.4586775129108"></line><line stroke-width="0.4055934050899771" stroke="lightgray" x1="266.7450727861683" y1="374.4647414601858" x2="290.0468220646944" y2="409.0422593579708"></line><line stroke-width="1.6223736203599084" stroke="lightgray" x1="259.9054217572008" y1="415.14574000908124" x2="290.0468220646944" y2="409.0422593579708"></line></g><g class="nodes"><circle r="6.97809279350273" fill="rgb(254, 225, 137)" stroke="black" stroke-width="1px" transform="translate(245.1318700459558,234.61479456179282)"></circle><circle r="6.762593500291885" fill="rgb(254, 225, 137)" stroke="black" stroke-width="1px" transform="translate(258.6845026450407,166.68381868901574)"></circle><circle r="5.033281790132782" fill="rgb(254, 225, 137)" stroke="black" stroke-width="1px" transform="translate(254.193668802649,310.0073273901032)"></circle><circle r="4.368374662192786" fill="rgb(255, 227, 140)" stroke="black" stroke-width="1px" transform="translate(220.18358621987576,188.77395532277853)"></circle><circle r="3.847796892082975" fill="rgb(255, 228, 142)" stroke="black" stroke-width="1px" transform="translate(266.7450727861683,374.4647414601858)"></circle><circle r="2.750868312299624" fill="rgb(255, 227, 140)" stroke="black" stroke-width="1px" transform="translate(259.9054217572008,415.14574000908124)"></circle><circle r="2.6904022842521558" fill="rgb(255, 230, 146)" stroke="black" stroke-width="1px" transform="translate(228.87814188064007,275.9279521882523)"></circle><circle r="2.364995633946159" fill="rgb(254, 224, 135)" stroke="black" stroke-width="1px" transform="translate(288.0495150410412,145.64186645170065)"></circle><circle r="1.813868850013596" fill="rgb(255, 229, 143)" stroke="black" stroke-width="1px" transform="translate(273.4039647356013,202.20077342149034)"></circle><circle r="0.8111868101799542" fill="rgb(242, 60, 37)" stroke="black" stroke-width="1px" transform="translate(271.1623146298906,270.787838614349)"></circle><circle r="0.8111868101799542" fill="rgb(253, 120, 54)" stroke="black" stroke-width="1px" transform="translate(290.0468220646944,409.0422593579708)"></circle><circle r="0.8111868101799542" fill="rgb(251, 97, 47)" stroke="black" stroke-width="1px" transform="translate(246.75671930926694,132.68621400805074)"></circle><circle r="0.8111868101799542" fill="rgb(250, 90, 45)" stroke="black" stroke-width="1px" transform="translate(242.45548684037757,274.1242585868953)"></circle><circle r="0.5735956942873303" fill="rgb(197, 8, 35)" stroke="black" stroke-width="1px" transform="translate(269.7837101406218,132.03917795163855)"></circle><circle r="0.5735956942873303" fill="rgb(253, 134, 59)" stroke="black" stroke-width="1px" transform="translate(252.46049789492793,201.9480451090051)"></circle><circle r="0.5735956942873303" fill="rgb(252, 117, 53)" stroke="black" stroke-width="1px" transform="translate(257.6395596067773,272.54962629396954)"></circle><circle r="0.5735956942873303" fill="rgb(253, 131, 58)" stroke="black" stroke-width="1px" transform="translate(207.4909753274249,220.53590511368458)"></circle><circle r="0.5735956942873303" fill="rgb(128, 0, 38)" stroke="black" stroke-width="1px" transform="translate(245.48581444691277,348.4586775129108)"></circle><circle r="0.5735956942873303" fill="rgb(253, 136, 59)" stroke="black" stroke-width="1px" transform="translate(282.8080540845782,329.02082665936746)"></circle><circle r="0.5735956942873303" fill="rgb(231, 39, 33)" stroke="black" stroke-width="1px" transform="translate(238.7235770489606,195.35180331326305)"></circle></g></g><g><text x="505" y="495" font-family="sans-serif" text-anchor="end" font-size="10px" fill="red">20 nodes</text><text x="505" y="505" font-family="sans-serif" text-anchor="end" font-size="10px" fill="red">30 edges</text></g></svg>