<svg height="512" width="512" style="border-style: solid; border-width: 1px; cursor: auto;" id="figure"><g transform="translate(-395.8467931109899,-435.2410275052631) scale(2.768928412750243)"><g class="links"><line stroke-width="0.7223010861496041" stroke="lightgray" x1="289.1793838402034" y1="294.3806868625708" x2="320.1519409233821" y2="311.5718602009994"></line><line stroke-width="0.31276554489332475" stroke="lightgray" x1="289.1793838402034" y1="294.3806868625708" x2="284.5212626667002" y2="329.4113358957763"></line><line stroke-width="1.068297713270142" stroke="lightgray" x1="289.1793838402034" y1="294.3806868625708" x2="323.58283794840395" y2="289.08797101400506"></line><line stroke-width="0.9890514954865512" stroke="lightgray" x1="289.1793838402034" y1="294.3806868625708" x2="292.69404027497177" y2="259.5944758017564"></line><line stroke-width="0.7871093603339477" stroke="lightgray" x1="289.1793838402034" y1="294.3806868625708" x2="259.6957285033119" y2="246.47715786262435"></line><line stroke-width="0.31276554489332475" stroke="lightgray" x1="289.1793838402034" y1="294.3806868625708" x2="305.1963285488409" y2="326.16282559767893"></line><line stroke-width="0.31276554489332475" stroke="lightgray" x1="289.1793838402034" y1="294.3806868625708" x2="264.2626722252792" y2="318.26821589836726"></line><line stroke-width="1.1702615113784853" stroke="lightgray" x1="259.6957285033119" y1="246.47715786262435" x2="226.7380887778288" y2="236.1456509427309"></line><line stroke-width="0.6510734006089325" stroke="lightgray" x1="259.6957285033119" y1="246.47715786262435" x2="254.0674882481112" y2="210.11109250985288"></line><line stroke-width="0.5989004221061021" stroke="lightgray" x1="259.6957285033119" y1="246.47715786262435" x2="292.69404027497177" y2="259.5944758017564"></line><line stroke-width="0.7445309179232948" stroke="lightgray" x1="259.6957285033119" y1="246.47715786262435" x2="220.00048029657913" y2="203.90215730298166"></line><line stroke-width="0.9555145228318465" stroke="lightgray" x1="220.00048029657913" y1="203.90215730298166" x2="226.7380887778288" y2="236.1456509427309"></line><line stroke-width="0.47775726141592323" stroke="lightgray" x1="220.00048029657913" y1="203.90215730298166" x2="254.0674882481112" y2="210.11109250985288"></line><line stroke-width="0.9890514954865512" stroke="lightgray" x1="220.00048029657913" y1="203.90215730298166" x2="179.1186439996567" y2="189.5513887997681"></line><line stroke-width="0.18057527153740102" stroke="lightgray" x1="220.00048029657913" y1="203.90215730298166" x2="205.358495959847" y2="169.69547655709778"></line><line stroke-width="0.846973099453421" stroke="lightgray" x1="226.7380887778288" y1="236.1456509427309" x2="254.0674882481112" y2="210.11109250985288"></line><line stroke-width="0.31276554489332475" stroke="lightgray" x1="179.1186439996567" y1="189.5513887997681" x2="145.42828938774267" y2="185.62813759924293"></line><line stroke-width="0.18057527153740102" stroke="lightgray" x1="179.1186439996567" y1="189.5513887997681" x2="205.358495959847" y2="169.69547655709778"></line></g><g class="nodes"><circle r="4.378717628506546" fill="rgb(187, 228, 190)" stroke="black" stroke-width="1px" transform="translate(289.1793838402034,294.3806868625708)"></circle><circle r="4.005353282280679" fill="rgb(222, 242, 216)" stroke="black" stroke-width="1px" transform="translate(259.6957285033119,246.47715786262435)"></circle><circle r="3.6830273329660943" fill="rgb(199, 233, 197)" stroke="black" stroke-width="1px" transform="translate(220.00048029657913,203.90215730298166)"></circle><circle r="3.6474416932761096" fill="rgb(206, 236, 201)" stroke="black" stroke-width="1px" transform="translate(226.7380887778288,236.1456509427309)"></circle><circle r="1.8057527153740103" fill="rgb(209, 237, 204)" stroke="black" stroke-width="1px" transform="translate(292.69404027497177,259.5944758017564)"></circle><circle r="1.4890618358465897" fill="rgb(211, 238, 206)" stroke="black" stroke-width="1px" transform="translate(254.0674882481112,210.11109250985288)"></circle><circle r="1.3513015972332536" fill="rgb(79, 176, 205)" stroke="black" stroke-width="1px" transform="translate(179.1186439996567,189.5513887997681)"></circle><circle r="1.0834516292244063" fill="rgb(107, 194, 201)" stroke="black" stroke-width="1px" transform="translate(323.58283794840395,289.08797101400506)"></circle><circle r="0.6255310897866495" fill="rgb(89, 184, 205)" stroke="black" stroke-width="1px" transform="translate(305.1963285488409,326.16282559767893)"></circle><circle r="0.6255310897866495" fill="rgb(50, 148, 194)" stroke="black" stroke-width="1px" transform="translate(205.358495959847,169.69547655709778)"></circle><circle r="0.6255310897866495" fill="rgb(113, 198, 199)" stroke="black" stroke-width="1px" transform="translate(320.1519409233821,311.5718602009994)"></circle><circle r="0.5107439960747938" fill="rgb(13, 101, 166)" stroke="black" stroke-width="1px" transform="translate(145.42828938774267,185.62813759924293)"></circle><circle r="0.36115054307480204" fill="rgb(112, 197, 200)" stroke="black" stroke-width="1px" transform="translate(284.5212626667002,329.4113358957763)"></circle><circle r="0.36115054307480204" fill="rgb(108, 195, 201)" stroke="black" stroke-width="1px" transform="translate(264.2626722252792,318.26821589836726)"></circle></g></g><g><text x="505" y="495" font-family="sans-serif" text-anchor="end" font-size="10px" fill="red">14 nodes</text><text x="505" y="505" font-family="sans-serif" text-anchor="end" font-size="10px" fill="red">18 edges</text></g></svg>