<svg height="512" width="512" style="border-style: solid; border-width: 1px; cursor: auto;" id="figure"><g transform="translate(-268.25866705285466,-244.7480923316552) scale(1.9335767785017632)"><g class="links"><line stroke-width="2.019637844936896" stroke="lightgray" x1="276.9254851450389" y1="279.321589278936" x2="252.62456406062464" y2="247.12232491648666"></line><line stroke-width="2.4257716641890013" stroke="lightgray" x1="276.9254851450389" y1="279.321589278936" x2="292.8713671907475" y2="258.6396781162706"></line><line stroke-width="1.2929406413005906" stroke="lightgray" x1="276.9254851450389" y1="279.321589278936" x2="325.4893438449777" y2="303.4932850544515"></line><line stroke-width="0.6334089677786602" stroke="lightgray" x1="276.9254851450389" y1="279.321589278936" x2="318.74080213479067" y2="263.5329760467841"></line><line stroke-width="0.3656988380541325" stroke="lightgray" x1="276.9254851450389" y1="279.321589278936" x2="222.46806581900586" y2="271.29484778546055"></line><line stroke-width="0.5171762565202362" stroke="lightgray" x1="276.9254851450389" y1="279.321589278936" x2="222.80068184136107" y2="235.72201061085445"></line><line stroke-width="0.9323527556681146" stroke="lightgray" x1="276.9254851450389" y1="279.321589278936" x2="277.53621630228497" y2="315.7909072114099"></line><line stroke-width="0.5171762565202362" stroke="lightgray" x1="276.9254851450389" y1="279.321589278936" x2="275.34128636299533" y2="222.82776041232694"></line><line stroke-width="1.2668179355573204" stroke="lightgray" x1="212.47021489290665" y1="197.07809362464255" x2="171.85074256598546" y2="176.05544276362266"></line><line stroke-width="0.9675481802365185" stroke="lightgray" x1="212.47021489290665" y1="197.07809362464255" x2="243.51986402933628" y2="199.96282160040082"></line><line stroke-width="1.240145097064307" stroke="lightgray" x1="212.47021489290665" y1="197.07809362464255" x2="216.9270944595118" y2="161.2846674294056"></line><line stroke-width="1.1849996715689408" stroke="lightgray" x1="212.47021489290665" y1="197.07809362464255" x2="188.89745088734455" y2="154.64556711616197"></line><line stroke-width="0.5782206329640586" stroke="lightgray" x1="212.47021489290665" y1="197.07809362464255" x2="252.62456406062464" y2="247.12232491648666"></line><line stroke-width="0.447887776380662" stroke="lightgray" x1="212.47021489290665" y1="197.07809362464255" x2="275.34128636299533" y2="222.82776041232694"></line><line stroke-width="1.240145097064307" stroke="lightgray" x1="212.47021489290665" y1="197.07809362464255" x2="188.28685492801515" y2="195.5516398482648"></line><line stroke-width="0.8177274611817272" stroke="lightgray" x1="212.47021489290665" y1="197.07809362464255" x2="178.95353058554915" y2="234.40856091379857"></line><line stroke-width="0.2585881282601181" stroke="lightgray" x1="212.47021489290665" y1="197.07809362464255" x2="193.14725895520118" y2="250.63365626790423"></line><line stroke-width="1.0970965141623974" stroke="lightgray" x1="188.89745088734455" y1="154.64556711616197" x2="171.85074256598546" y2="176.05544276362266"></line><line stroke-width="0.2585881282601181" stroke="lightgray" x1="188.89745088734455" y1="154.64556711616197" x2="188.28685492801515" y2="195.5516398482648"></line><line stroke-width="1.6956757541800456" stroke="lightgray" x1="376.83649483145484" y1="327.70280217876285" x2="325.4893438449777" y2="303.4932850544515"></line><line stroke-width="0.447887776380662" stroke="lightgray" x1="376.83649483145484" y1="327.70280217876285" x2="396.5125790207514" y2="363.13394305314074"></line><line stroke-width="0.2585881282601181" stroke="lightgray" x1="376.83649483145484" y1="327.70280217876285" x2="360.04716499328555" y2="350.3829881858153"></line><line stroke-width="0.2585881282601181" stroke="lightgray" x1="396.5125790207514" y1="363.13394305314074" x2="360.04716499328555" y2="350.3829881858153"></line><line stroke-width="0.3656988380541325" stroke="lightgray" x1="188.28685492801515" y1="195.5516398482648" x2="243.51986402933628" y2="199.96282160040082"></line><line stroke-width="1.0015075142783851" stroke="lightgray" x1="188.28685492801515" y1="195.5516398482648" x2="178.95353058554915" y2="234.40856091379857"></line><line stroke-width="0.2585881282601181" stroke="lightgray" x1="188.28685492801515" y1="195.5516398482648" x2="222.80068184136107" y2="235.72201061085445"></line><line stroke-width="0.895775552761324" stroke="lightgray" x1="318.74080213479067" y1="263.5329760467841" x2="292.8713671907475" y2="258.6396781162706"></line><line stroke-width="0.5171762565202362" stroke="lightgray" x1="318.74080213479067" y1="263.5329760467841" x2="325.4893438449777" y2="303.4932850544515"></line><line stroke-width="0.3656988380541325" stroke="lightgray" x1="318.74080213479067" y1="263.5329760467841" x2="275.34128636299533" y2="222.82776041232694"></line><line stroke-width="1.1564412659281171" stroke="lightgray" x1="222.80068184136107" y1="235.72201061085445" x2="252.62456406062464" y2="247.12232491648666"></line><line stroke-width="1.5729301773605968" stroke="lightgray" x1="222.80068184136107" y1="235.72201061085445" x2="178.95353058554915" y2="234.40856091379857"></line><line stroke-width="0.2585881282601181" stroke="lightgray" x1="222.80068184136107" y1="235.72201061085445" x2="275.34128636299533" y2="222.82776041232694"></line><line stroke-width="0.3656988380541325" stroke="lightgray" x1="222.80068184136107" y1="235.72201061085445" x2="222.46806581900586" y2="271.29484778546055"></line><line stroke-width="0.2585881282601181" stroke="lightgray" x1="222.80068184136107" y1="235.72201061085445" x2="193.14725895520118" y2="250.63365626790423"></line><line stroke-width="1.4163455095110584" stroke="lightgray" x1="222.46806581900586" y1="271.29484778546055" x2="252.62456406062464" y2="247.12232491648666"></line><line stroke-width="1.3683197587398923" stroke="lightgray" x1="222.46806581900586" y1="271.29484778546055" x2="178.95353058554915" y2="234.40856091379857"></line><line stroke-width="0.2585881282601181" stroke="lightgray" x1="222.46806581900586" y1="271.29484778546055" x2="193.14725895520118" y2="250.63365626790423"></line><line stroke-width="0.2585881282601181" stroke="lightgray" x1="222.46806581900586" y1="271.29484778546055" x2="292.8713671907475" y2="258.6396781162706"></line><line stroke-width="1.240145097064307" stroke="lightgray" x1="193.14725895520118" y1="250.63365626790423" x2="178.95353058554915" y2="234.40856091379857"></line><line stroke-width="0.7757643847803545" stroke="lightgray" x1="243.51986402933628" y1="199.96282160040082" x2="252.62456406062464" y2="247.12232491648666"></line><line stroke-width="0.2585881282601181" stroke="lightgray" x1="243.51986402933628" y1="199.96282160040082" x2="275.34128636299533" y2="222.82776041232694"></line><line stroke-width="0.9323527556681146" stroke="lightgray" x1="275.34128636299533" y1="222.82776041232694" x2="252.62456406062464" y2="247.12232491648666"></line><line stroke-width="0.731397676108265" stroke="lightgray" x1="275.34128636299533" y1="222.82776041232694" x2="292.8713671907475" y2="258.6396781162706"></line><line stroke-width="1.0343525130404725" stroke="lightgray" x1="360.04716499328555" y1="350.3829881858153" x2="325.4893438449777" y2="303.4932850544515"></line><line stroke-width="0.447887776380662" stroke="lightgray" x1="324.74091732013056" y1="240.36686178702473" x2="292.8713671907475" y2="258.6396781162706"></line><line stroke-width="0.447887776380662" stroke="lightgray" x1="237.01508173733242" y1="279.24827167877237" x2="252.62456406062464" y2="247.12232491648666"></line><line stroke-width="0.5171762565202362" stroke="lightgray" x1="334.68741001431385" y1="337.1715391648411" x2="325.4893438449777" y2="303.4932850544515"></line><line stroke-width="0.3656988380541325" stroke="lightgray" x1="142.0206519258763" y1="230.30019982639158" x2="178.95353058554915" y2="234.40856091379857"></line><line stroke-width="0.5171762565202362" stroke="lightgray" x1="146.28716952858082" y1="252.38547045311654" x2="178.95353058554915" y2="234.40856091379857"></line><line stroke-width="0.5782206329640586" stroke="lightgray" x1="253.00729251834974" y1="281.9248015520599" x2="252.62456406062464" y2="247.12232491648666"></line><line stroke-width="0.8576397966791096" stroke="lightgray" x1="325.4893438449777" y1="303.4932850544515" x2="292.8713671907475" y2="258.6396781162706"></line><line stroke-width="0.2585881282601181" stroke="lightgray" x1="325.4893438449777" y1="303.4932850544515" x2="252.62456406062464" y2="247.12232491648666"></line><line stroke-width="0.5782206329640586" stroke="lightgray" x1="252.62456406062464" y1="247.12232491648666" x2="292.8713671907475" y2="258.6396781162706"></line><line stroke-width="0.5782206329640586" stroke="lightgray" x1="252.62456406062464" y1="247.12232491648666" x2="178.95353058554915" y2="234.40856091379857"></line></g><g class="nodes"><circle r="5.374653316567945" fill="rgb(253, 198, 146)" stroke="black" stroke-width="1px" transform="translate(276.9254851450389,279.321589278936)"></circle><circle r="5.349712795373835" fill="rgb(253, 203, 155)" stroke="black" stroke-width="1px" transform="translate(212.47021489290665,197.07809362464255)"></circle><circle r="3.059655995498511" fill="rgb(253, 195, 141)" stroke="black" stroke-width="1px" transform="translate(188.89745088734455,154.64556711616197)"></circle><circle r="2.92559070443306" fill="rgb(253, 179, 116)" stroke="black" stroke-width="1px" transform="translate(376.83649483145484,327.70280217876285)"></circle><circle r="2.6873266582839723" fill="rgb(254, 222, 190)" stroke="black" stroke-width="1px" transform="translate(396.5125790207514,363.13394305314074)"></circle><circle r="2.6370918239635524" fill="rgb(253, 207, 163)" stroke="black" stroke-width="1px" transform="translate(188.28685492801515,195.5516398482648)"></circle><circle r="2.585881282601181" fill="rgb(253, 196, 143)" stroke="black" stroke-width="1px" transform="translate(318.74080213479067,263.5329760467841)"></circle><circle r="2.480290194128614" fill="rgb(253, 183, 122)" stroke="black" stroke-width="1px" transform="translate(222.80068184136107,235.72201061085445)"></circle><circle r="2.3128825318562343" fill="rgb(253, 183, 122)" stroke="black" stroke-width="1px" transform="translate(222.46806581900586,271.29484778546055)"></circle><circle r="2.194193028324795" fill="rgb(253, 192, 136)" stroke="black" stroke-width="1px" transform="translate(193.14725895520118,250.63365626790423)"></circle><circle r="2.0030150285567703" fill="rgb(253, 213, 172)" stroke="black" stroke-width="1px" transform="translate(243.51986402933628,199.96282160040082)"></circle><circle r="1.7152795933582192" fill="rgb(253, 199, 149)" stroke="black" stroke-width="1px" transform="translate(275.34128636299533,222.82776041232694)"></circle><circle r="1.46279535221653" fill="rgb(253, 189, 131)" stroke="black" stroke-width="1px" transform="translate(360.04716499328555,350.3829881858153)"></circle><circle r="0.5171762565202362" fill="rgb(253, 191, 135)" stroke="black" stroke-width="1px" transform="translate(324.74091732013056,240.36686178702473)"></circle><circle r="0.5171762565202362" fill="rgb(253, 205, 158)" stroke="black" stroke-width="1px" transform="translate(237.01508173733242,279.24827167877237)"></circle><circle r="0.5171762565202362" fill="rgb(253, 191, 135)" stroke="black" stroke-width="1px" transform="translate(334.68741001431385,337.1715391648411)"></circle><circle r="0.5171762565202362" fill="rgb(253, 179, 116)" stroke="black" stroke-width="1px" transform="translate(142.0206519258763,230.30019982639158)"></circle><circle r="0.5171762565202362" fill="rgb(253, 174, 107)" stroke="black" stroke-width="1px" transform="translate(146.28716952858082,252.38547045311654)"></circle><circle r="0.5171762565202362" fill="rgb(254, 219, 183)" stroke="black" stroke-width="1px" transform="translate(253.00729251834974,281.9248015520599)"></circle><circle r="2.92559070443306" fill="rgb(230, 92, 13)" stroke="black" stroke-width="1px" transform="translate(325.4893438449777,303.4932850544515)"></circle><circle r="2.5336358711146407" fill="rgb(235, 99, 18)" stroke="black" stroke-width="1px" transform="translate(252.62456406062464,247.12232491648666)"></circle><circle r="2.3699993431378816" fill="rgb(244, 115, 32)" stroke="black" stroke-width="1px" transform="translate(178.95353058554915,234.40856091379857)"></circle><circle r="1.791551105522648" fill="rgb(247, 126, 43)" stroke="black" stroke-width="1px" transform="translate(292.8713671907475,258.6396781162706)"></circle><circle r="0.731397676108265" fill="rgb(237, 101, 19)" stroke="black" stroke-width="1px" transform="translate(171.85074256598546,176.05544276362266)"></circle><circle r="0.5171762565202362" fill="rgb(251, 140, 60)" stroke="black" stroke-width="1px" transform="translate(277.53621630228497,315.7909072114099)"></circle><circle r="0.5171762565202362" fill="rgb(248, 128, 45)" stroke="black" stroke-width="1px" transform="translate(216.9270944595118,161.2846674294056)"></circle></g></g><g><text x="505" y="495" font-family="sans-serif" text-anchor="end" font-size="10px" fill="red">26 nodes</text><text x="505" y="505" font-family="sans-serif" text-anchor="end" font-size="10px" fill="red">54 edges</text></g></svg>