<svg height="512" width="512" style="border-style: solid; border-width: 1px; cursor: auto;" id="figure"><g transform="translate(-125.0254053689734,-125.10256543681828) scale(1.5316559764604274)"><g class="links"><line stroke-width="1.1770108075431598" stroke="lightgray" x1="187.43258736304915" y1="114.56372047990027" x2="204.65007901346547" y2="153.66322517539757"></line><line stroke-width="1.3459633524056527" stroke="lightgray" x1="187.43258736304915" y1="114.56372047990027" x2="223.10444575287832" y2="121.61524666953672"></line><line stroke-width="0.3264440629517031" stroke="lightgray" x1="187.43258736304915" y1="114.56372047990027" x2="207.36644860662744" y2="86.89466195548832"></line><line stroke-width="0.46166162118247495" stroke="lightgray" x1="223.10444575287832" y1="121.61524666953672" x2="241.7372114279412" y2="171.3541085656777"></line><line stroke-width="1.082692471849957" stroke="lightgray" x1="223.10444575287832" y1="121.61524666953672" x2="204.65007901346547" y2="153.66322517539757"></line><line stroke-width="0.3264440629517031" stroke="lightgray" x1="223.10444575287832" y1="121.61524666953672" x2="207.36644860662744" y2="86.89466195548832"></line><line stroke-width="0.3264440629517031" stroke="lightgray" x1="204.65007901346547" y1="153.66322517539757" x2="224.3279820781082" y2="197.01076081215496"></line><line stroke-width="0.3264440629517031" stroke="lightgray" x1="204.65007901346547" y1="153.66322517539757" x2="241.7372114279412" y2="171.3541085656777"></line><line stroke-width="1.8752783702164622" stroke="lightgray" x1="257.7850717803227" y1="233.12008959117946" x2="282.1463616908966" y2="301.9131730570356"></line><line stroke-width="0.3264440629517031" stroke="lightgray" x1="257.7850717803227" y1="233.12008959117946" x2="241.7372114279412" y2="171.3541085656777"></line><line stroke-width="0.6528881259034062" stroke="lightgray" x1="257.7850717803227" y1="233.12008959117946" x2="258.13502121745836" y2="270.5689025191608"></line><line stroke-width="0.5654177028615627" stroke="lightgray" x1="257.7850717803227" y1="233.12008959117946" x2="288.0537389544597" y2="261.21057301194315"></line><line stroke-width="1.1770108075431598" stroke="lightgray" x1="257.7850717803227" y1="233.12008959117946" x2="224.3279820781082" y2="197.01076081215496"></line><line stroke-width="1.6322203147585153" stroke="lightgray" x1="241.7372114279412" y1="171.3541085656777" x2="224.3279820781082" y2="197.01076081215496"></line><line stroke-width="1.1308354057231254" stroke="lightgray" x1="282.1463616908966" y1="301.9131730570356" x2="291.3972629033863" y2="368.0704450287102"></line><line stroke-width="1.53115837756946" stroke="lightgray" x1="282.1463616908966" y1="301.9131730570356" x2="307.35535573024447" y2="335.2464243369898"></line><line stroke-width="1.4959546286451086" stroke="lightgray" x1="282.1463616908966" y1="301.9131730570356" x2="274.50841966376987" y2="340.6470382371871"></line><line stroke-width="1.9034796274292316" stroke="lightgray" x1="282.1463616908966" y1="301.9131730570356" x2="288.0537389544597" y2="261.21057301194315"></line><line stroke-width="1.3459633524056527" stroke="lightgray" x1="282.1463616908966" y1="301.9131730570356" x2="258.13502121745836" y2="270.5689025191608"></line><line stroke-width="0.7996213837926627" stroke="lightgray" x1="282.1463616908966" y1="301.9131730570356" x2="250.9109163760376" y2="313.9491210908414"></line><line stroke-width="1.53115837756946" stroke="lightgray" x1="291.3972629033863" y1="368.0704450287102" x2="305.98233213336323" y2="405.2051653149988"></line><line stroke-width="0.7299511156112287" stroke="lightgray" x1="291.3972629033863" y1="368.0704450287102" x2="307.35535573024447" y2="335.2464243369898"></line><line stroke-width="1.0323067675667708" stroke="lightgray" x1="291.3972629033863" y1="368.0704450287102" x2="275.11271080314987" y2="404.96436572264673"></line><line stroke-width="1.2643124192802317" stroke="lightgray" x1="291.3972629033863" y1="368.0704450287102" x2="274.50841966376987" y2="340.6470382371871"></line><line stroke-width="1.0323067675667708" stroke="lightgray" x1="274.50841966376987" y1="340.6470382371871" x2="307.35535573024447" y2="335.2464243369898"></line><line stroke-width="0.7996213837926627" stroke="lightgray" x1="305.98233213336323" y1="405.2051653149988" x2="275.11271080314987" y2="404.96436572264673"></line><line stroke-width="0.46166162118247495" stroke="lightgray" x1="288.0537389544597" y1="261.21057301194315" x2="258.13502121745836" y2="270.5689025191608"></line></g><g class="nodes"><circle r="1.9586643777102184" fill="rgb(236, 244, 249)" stroke="black" stroke-width="1px" transform="translate(187.43258736304915,114.56372047990027)"></circle><circle r="1.8466464847298998" fill="rgb(233, 242, 248)" stroke="black" stroke-width="1px" transform="translate(223.10444575287832,121.61524666953672)"></circle><circle r="1.7273796150874403" fill="rgb(230, 240, 246)" stroke="black" stroke-width="1px" transform="translate(204.65007901346547,153.66322517539757)"></circle><circle r="1.1308354057231254" fill="rgb(246, 251, 252)" stroke="black" stroke-width="1px" transform="translate(207.36644860662744,86.89466195548832)"></circle><circle r="3.635127240319865" fill="rgb(140, 118, 183)" stroke="black" stroke-width="1px" transform="translate(257.7850717803227,233.12008959117946)"></circle><circle r="3.2644406295170305" fill="rgb(160, 185, 216)" stroke="black" stroke-width="1px" transform="translate(241.7372114279412,171.3541085656777)"></circle><circle r="2.8458733622506074" fill="rgb(152, 174, 211)" stroke="black" stroke-width="1px" transform="translate(224.3279820781082,197.01076081215496)"></circle><circle r="7.328651037070424" fill="rgb(136, 69, 158)" stroke="black" stroke-width="1px" transform="translate(282.1463616908966,301.9131730570356)"></circle><circle r="7.1221686085442935" fill="rgb(111, 13, 108)" stroke="black" stroke-width="1px" transform="translate(291.3972629033863,368.0704450287102)"></circle><circle r="5.462453967421267" fill="rgb(130, 35, 136)" stroke="black" stroke-width="1px" transform="translate(274.50841966376987,340.6470382371871)"></circle><circle r="4.841947931567564" fill="rgb(90, 4, 87)" stroke="black" stroke-width="1px" transform="translate(305.98233213336323,405.2051653149988)"></circle><circle r="3.1984855351706507" fill="rgb(137, 73, 160)" stroke="black" stroke-width="1px" transform="translate(288.0537389544597,261.21057301194315)"></circle><circle r="2.919804462444915" fill="rgb(137, 80, 164)" stroke="black" stroke-width="1px" transform="translate(258.13502121745836,270.5689025191608)"></circle><circle r="2.6919267048113054" fill="rgb(90, 4, 87)" stroke="black" stroke-width="1px" transform="translate(275.11271080314987,404.96436572264673)"></circle><circle r="2.6115525036136247" fill="rgb(134, 51, 147)" stroke="black" stroke-width="1px" transform="translate(307.35535573024447,335.2464243369898)"></circle><circle r="1.4599022312224574" fill="rgb(136, 67, 157)" stroke="black" stroke-width="1px" transform="translate(250.9109163760376,313.9491210908414)"></circle></g></g><g><text x="505" y="495" font-family="sans-serif" text-anchor="end" font-size="10px" fill="red">16 nodes</text><text x="505" y="505" font-family="sans-serif" text-anchor="end" font-size="10px" fill="red">27 edges</text></g></svg>