<svg height="512" width="512" style="border-style: solid; border-width: 1px; cursor: auto;" id="figure"><g transform="translate(-70.91175996239906,-69.69427292611294) scale(1.3086101178407736)"><g class="links"><line stroke-width="1.8718254653455322" stroke="lightgray" x1="123.21193247297195" y1="60.325527576654665" x2="112.91209901911033" y2="100.25546623231477"></line><line stroke-width="1.0109012894650853" stroke="lightgray" x1="123.21193247297195" y1="60.325527576654665" x2="87.05053764796479" y2="73.71751965253644"></line><line stroke-width="0.3820847731370192" stroke="lightgray" x1="123.21193247297195" y1="60.325527576654665" x2="92.6139292840578" y2="59.66645259191961"></line><line stroke-width="0.5403494681466199" stroke="lightgray" x1="123.21193247297195" y1="60.325527576654665" x2="156.13080302518298" y2="99.3410184654344"></line><line stroke-width="0.3820847731370192" stroke="lightgray" x1="112.91209901911033" y1="100.25546623231477" x2="152.73013707384126" y2="169.20853136962216"></line><line stroke-width="0.3820847731370192" stroke="lightgray" x1="112.91209901911033" y1="100.25546623231477" x2="92.6139292840578" y2="59.66645259191961"></line><line stroke-width="0.3820847731370192" stroke="lightgray" x1="112.91209901911033" y1="100.25546623231477" x2="156.13080302518298" y2="99.3410184654344"></line><line stroke-width="0.7641695462740384" stroke="lightgray" x1="112.91209901911033" y1="100.25546623231477" x2="87.05053764796479" y2="73.71751965253644"></line><line stroke-width="0.3820847731370192" stroke="lightgray" x1="152.73013707384126" y1="169.20853136962216" x2="211.778336525448" y2="236.48608342208914"></line><line stroke-width="0.7641695462740384" stroke="lightgray" x1="152.73013707384126" y1="169.20853136962216" x2="178.10348926499822" y2="129.9430834374684"></line><line stroke-width="1.0806989362932398" stroke="lightgray" x1="152.73013707384126" y1="169.20853136962216" x2="151.88140607566433" y2="139.9464086522003"></line><line stroke-width="0.5403494681466199" stroke="lightgray" x1="156.13080302518298" y1="99.3410184654344" x2="198.11828798148653" y2="157.94172895159792"></line><line stroke-width="0.6617902398717453" stroke="lightgray" x1="156.13080302518298" y1="99.3410184654344" x2="151.88140607566433" y2="139.9464086522003"></line><line stroke-width="0.5403494681466199" stroke="lightgray" x1="156.13080302518298" y1="99.3410184654344" x2="178.10348926499822" y2="129.9430834374684"></line><line stroke-width="0.8543675259019606" stroke="lightgray" x1="151.88140607566433" y1="139.9464086522003" x2="183.11079674195875" y2="177.2106707401878"></line><line stroke-width="1.2082581423816994" stroke="lightgray" x1="151.88140607566433" y1="139.9464086522003" x2="198.11828798148653" y2="157.94172895159792"></line><line stroke-width="0.9359127326727661" stroke="lightgray" x1="151.88140607566433" y1="139.9464086522003" x2="178.10348926499822" y2="129.9430834374684"></line><line stroke-width="1.2672318306035568" stroke="lightgray" x1="198.11828798148653" y1="157.94172895159792" x2="183.11079674195875" y2="177.2106707401878"></line><line stroke-width="1.3235804797434907" stroke="lightgray" x1="198.11828798148653" y1="157.94172895159792" x2="230.9705497544452" y2="214.03929085062614"></line><line stroke-width="1.0109012894650853" stroke="lightgray" x1="198.11828798148653" y1="157.94172895159792" x2="178.10348926499822" y2="129.9430834374684"></line><line stroke-width="0.5403494681466199" stroke="lightgray" x1="198.11828798148653" y1="157.94172895159792" x2="211.778336525448" y2="236.48608342208914"></line><line stroke-width="0.3820847731370192" stroke="lightgray" x1="183.11079674195875" y1="177.2106707401878" x2="230.9705497544452" y2="214.03929085062614"></line><line stroke-width="0.6617902398717453" stroke="lightgray" x1="183.11079674195875" y1="177.2106707401878" x2="178.10348926499822" y2="129.9430834374684"></line><line stroke-width="0.3820847731370192" stroke="lightgray" x1="252.3580155766819" y1="187.60788232141383" x2="230.9705497544452" y2="214.03929085062614"></line><line stroke-width="1.6210484044398594" stroke="lightgray" x1="246.29904286509537" y1="251.3378070840012" x2="275.14617728440544" y2="288.0238708456945"></line><line stroke-width="1.4296303137819737" stroke="lightgray" x1="246.29904286509537" y1="251.3378070840012" x2="211.778336525448" y2="236.48608342208914"></line><line stroke-width="1.2672318306035568" stroke="lightgray" x1="246.29904286509537" y1="251.3378070840012" x2="230.9705497544452" y2="214.03929085062614"></line><line stroke-width="0.9359127326727661" stroke="lightgray" x1="230.9705497544452" y1="214.03929085062614" x2="275.14617728440544" y2="288.0238708456945"></line><line stroke-width="0.3820847731370192" stroke="lightgray" x1="230.9705497544452" y1="214.03929085062614" x2="211.778336525448" y2="236.48608342208914"></line><line stroke-width="0.8543675259019606" stroke="lightgray" x1="211.778336525448" y1="236.48608342208914" x2="275.14617728440544" y2="288.0238708456945"></line><line stroke-width="0.5403494681466199" stroke="lightgray" x1="211.778336525448" y1="236.48608342208914" x2="257.0093406844143" y2="309.8269757994151"></line><line stroke-width="2.3553287258470657" stroke="lightgray" x1="283.35023595040286" y1="348.8982169420315" x2="319.8488160309661" y2="347.21988811267204"></line><line stroke-width="1.7087350518039213" stroke="lightgray" x1="283.35023595040286" y1="348.8982169420315" x2="275.14617728440544" y2="288.0238708456945"></line><line stroke-width="1.5283390925480769" stroke="lightgray" x1="283.35023595040286" y1="348.8982169420315" x2="257.0093406844143" y2="309.8269757994151"></line><line stroke-width="2.260444001786123" stroke="lightgray" x1="283.35023595040286" y1="348.8982169420315" x2="299.97252620693905" y2="315.29247941571805"></line><line stroke-width="0.5403494681466199" stroke="lightgray" x1="283.35023595040286" y1="348.8982169420315" x2="320.8830285434582" y2="372.8594540849531"></line><line stroke-width="0.7641695462740384" stroke="lightgray" x1="283.35023595040286" y1="348.8982169420315" x2="267.2671788101222" y2="335.16869393079924"></line><line stroke-width="1.2672318306035568" stroke="lightgray" x1="275.14617728440544" y1="288.0238708456945" x2="299.97252620693905" y2="315.29247941571805"></line><line stroke-width="0.9359127326727661" stroke="lightgray" x1="275.14617728440544" y1="288.0238708456945" x2="319.8488160309661" y2="347.21988811267204"></line><line stroke-width="0.3820847731370192" stroke="lightgray" x1="275.14617728440544" y1="288.0238708456945" x2="351.04532409292534" y2="349.3959200690923"></line><line stroke-width="1.2672318306035568" stroke="lightgray" x1="275.14617728440544" y1="288.0238708456945" x2="257.0093406844143" y2="309.8269757994151"></line><line stroke-width="0.8543675259019606" stroke="lightgray" x1="275.14617728440544" y1="288.0238708456945" x2="267.2671788101222" y2="335.16869393079924"></line><line stroke-width="1.3776262411195486" stroke="lightgray" x1="299.97252620693905" y1="315.29247941571805" x2="257.0093406844143" y2="309.8269757994151"></line><line stroke-width="1.2672318306035568" stroke="lightgray" x1="299.97252620693905" y1="315.29247941571805" x2="267.2671788101222" y2="335.16869393079924"></line><line stroke-width="1.4798079631991146" stroke="lightgray" x1="299.97252620693905" y1="315.29247941571805" x2="319.8488160309661" y2="347.21988811267204"></line><line stroke-width="0.3820847731370192" stroke="lightgray" x1="299.97252620693905" y1="315.29247941571805" x2="342.165539904635" y2="322.4818355968159"></line><line stroke-width="0.8543675259019606" stroke="lightgray" x1="257.0093406844143" y1="309.8269757994151" x2="319.8488160309661" y2="347.21988811267204"></line><line stroke-width="0.6617902398717453" stroke="lightgray" x1="257.0093406844143" y1="309.8269757994151" x2="267.2671788101222" y2="335.16869393079924"></line><line stroke-width="0.3820847731370192" stroke="lightgray" x1="267.2671788101222" y1="335.16869393079924" x2="319.8488160309661" y2="347.21988811267204"></line><line stroke-width="1.5753758775840916" stroke="lightgray" x1="319.8488160309661" y1="347.21988811267204" x2="342.165539904635" y2="322.4818355968159"></line><line stroke-width="1.3235804797434907" stroke="lightgray" x1="319.8488160309661" y1="347.21988811267204" x2="377.4693204797861" y2="389.46963452049744"></line><line stroke-width="0.7641695462740384" stroke="lightgray" x1="319.8488160309661" y1="347.21988811267204" x2="361.79372416007567" y2="404.6514621972821"></line><line stroke-width="1.1462543194110577" stroke="lightgray" x1="319.8488160309661" y1="347.21988811267204" x2="320.8830285434582" y2="372.8594540849531"></line><line stroke-width="0.9359127326727661" stroke="lightgray" x1="319.8488160309661" y1="347.21988811267204" x2="351.04532409292534" y2="349.3959200690923"></line><line stroke-width="0.3820847731370192" stroke="lightgray" x1="319.8488160309661" y1="347.21988811267204" x2="375.4487613679098" y2="333.5872675432377"></line><line stroke-width="2.1613978725864795" stroke="lightgray" x1="351.04532409292534" y1="349.3959200690923" x2="375.4487613679098" y2="333.5872675432377"></line><line stroke-width="0.5403494681466199" stroke="lightgray" x1="351.04532409292534" y1="349.3959200690923" x2="320.8830285434582" y2="372.8594540849531"></line><line stroke-width="1.3235804797434907" stroke="lightgray" x1="351.04532409292534" y1="349.3959200690923" x2="377.4693204797861" y2="389.46963452049744"></line><line stroke-width="1.3776262411195486" stroke="lightgray" x1="351.04532409292534" y1="349.3959200690923" x2="342.165539904635" y2="322.4818355968159"></line><line stroke-width="0.3820847731370192" stroke="lightgray" x1="351.04532409292534" y1="349.3959200690923" x2="396.24487517766005" y2="367.211438713149"></line><line stroke-width="0.9359127326727661" stroke="lightgray" x1="375.4487613679098" y1="333.5872675432377" x2="342.165539904635" y2="322.4818355968159"></line><line stroke-width="0.6617902398717453" stroke="lightgray" x1="375.4487613679098" y1="333.5872675432377" x2="396.24487517766005" y2="367.211438713149"></line><line stroke-width="0.3820847731370192" stroke="lightgray" x1="342.165539904635" y1="322.4818355968159" x2="320.8830285434582" y2="372.8594540849531"></line><line stroke-width="1.6210484044398594" stroke="lightgray" x1="406.03632480520923" y1="417.93980556362885" x2="361.79372416007567" y2="404.6514621972821"></line><line stroke-width="0.9359127326727661" stroke="lightgray" x1="406.03632480520923" y1="417.93980556362885" x2="384.0482416899843" y2="435.94887836686104"></line><line stroke-width="0.7641695462740384" stroke="lightgray" x1="406.03632480520923" y1="417.93980556362885" x2="377.4693204797861" y2="389.46963452049744"></line><line stroke-width="2.2279179319148392" stroke="lightgray" x1="361.79372416007567" y1="404.6514621972821" x2="377.4693204797861" y2="389.46963452049744"></line><line stroke-width="1.1462543194110577" stroke="lightgray" x1="361.79372416007567" y1="404.6514621972821" x2="384.0482416899843" y2="435.94887836686104"></line><line stroke-width="1.2672318306035568" stroke="lightgray" x1="361.79372416007567" y1="404.6514621972821" x2="396.24487517766005" y2="367.211438713149"></line><line stroke-width="1.2082581423816994" stroke="lightgray" x1="377.4693204797861" y1="389.46963452049744" x2="396.24487517766005" y2="367.211438713149"></line><line stroke-width="0.3820847731370192" stroke="lightgray" x1="377.4693204797861" y1="389.46963452049744" x2="384.0482416899843" y2="435.94887836686104"></line></g><g class="nodes"><circle r="2.5344636612071136" fill="rgb(235, 243, 248)" stroke="black" stroke-width="1px" transform="translate(123.21193247297195,60.325527576654665)"></circle><circle r="2.1613978725864795" fill="rgb(233, 242, 248)" stroke="black" stroke-width="1px" transform="translate(112.91209901911033,100.25546623231477)"></circle><circle r="1.5283390925480769" fill="rgb(237, 245, 249)" stroke="black" stroke-width="1px" transform="translate(87.05053764796479,73.71751965253644)"></circle><circle r="1.3235804797434907" fill="rgb(246, 251, 252)" stroke="black" stroke-width="1px" transform="translate(92.6139292840578,59.66645259191961)"></circle><circle r="1.3235804797434907" fill="rgb(162, 187, 218)" stroke="black" stroke-width="1px" transform="translate(152.73013707384126,169.20853136962216)"></circle><circle r="1.0806989362932398" fill="rgb(179, 202, 225)" stroke="black" stroke-width="1px" transform="translate(156.13080302518298,99.3410184654344)"></circle><circle r="2.8592606275639474" fill="rgb(159, 184, 216)" stroke="black" stroke-width="1px" transform="translate(151.88140607566433,139.9464086522003)"></circle><circle r="2.4165162847633987" fill="rgb(149, 168, 207)" stroke="black" stroke-width="1px" transform="translate(198.11828798148653,157.94172895159792)"></circle><circle r="2.2925086388221154" fill="rgb(155, 178, 212)" stroke="black" stroke-width="1px" transform="translate(183.11079674195875,177.2106707401878)"></circle><circle r="2.1613978725864795" fill="rgb(159, 183, 215)" stroke="black" stroke-width="1px" transform="translate(178.10348926499822,129.9430834374684)"></circle><circle r="0.7641695462740384" fill="rgb(143, 151, 199)" stroke="black" stroke-width="1px" transform="translate(252.3580155766819,187.60788232141383)"></circle><circle r="2.0218025789301706" fill="rgb(140, 118, 182)" stroke="black" stroke-width="1px" transform="translate(246.29904286509537,251.3378070840012)"></circle><circle r="1.8718254653455322" fill="rgb(141, 137, 192)" stroke="black" stroke-width="1px" transform="translate(230.9705497544452,214.03929085062614)"></circle><circle r="1.7087350518039213" fill="rgb(140, 126, 186)" stroke="black" stroke-width="1px" transform="translate(211.778336525448,236.48608342208914)"></circle><circle r="5.01099482183576" fill="rgb(136, 69, 158)" stroke="black" stroke-width="1px" transform="translate(283.35023595040286,348.8982169420315)"></circle><circle r="4.520888003572246" fill="rgb(138, 87, 167)" stroke="black" stroke-width="1px" transform="translate(275.14617728440544,288.0238708456945)"></circle><circle r="4.185528982527788" fill="rgb(136, 69, 158)" stroke="black" stroke-width="1px" transform="translate(299.97252620693905,315.29247941571805)"></circle><circle r="4.043605157860341" fill="rgb(137, 74, 161)" stroke="black" stroke-width="1px" transform="translate(257.0093406844143,309.8269757994151)"></circle><circle r="3.8208477313701925" fill="rgb(137, 79, 163)" stroke="black" stroke-width="1px" transform="translate(267.2671788101222,335.16869393079924)"></circle><circle r="5.403494681466198" fill="rgb(133, 47, 144)" stroke="black" stroke-width="1px" transform="translate(319.8488160309661,347.21988811267204)"></circle><circle r="4.322795745172959" fill="rgb(130, 35, 136)" stroke="black" stroke-width="1px" transform="translate(351.04532409292534,349.3959200690923)"></circle><circle r="4.043605157860341" fill="rgb(128, 31, 132)" stroke="black" stroke-width="1px" transform="translate(375.4487613679098,333.5872675432377)"></circle><circle r="2.5344636612071136" fill="rgb(133, 45, 143)" stroke="black" stroke-width="1px" transform="translate(342.165539904635,322.4818355968159)"></circle><circle r="2.0218025789301706" fill="rgb(134, 54, 149)" stroke="black" stroke-width="1px" transform="translate(320.8830285434582,372.8594540849531)"></circle><circle r="5.667233032962104" fill="rgb(90, 4, 87)" stroke="black" stroke-width="1px" transform="translate(406.03632480520923,417.93980556362885)"></circle><circle r="5.403494681466198" fill="rgb(103, 8, 100)" stroke="black" stroke-width="1px" transform="translate(361.79372416007567,404.6514621972821)"></circle><circle r="4.95238467902203" fill="rgb(111, 13, 109)" stroke="black" stroke-width="1px" transform="translate(377.4693204797861,389.46963452049744)"></circle><circle r="3.150751755168183" fill="rgb(90, 4, 87)" stroke="black" stroke-width="1px" transform="translate(384.0482416899843,435.94887836686104)"></circle><circle r="2.4165162847633987" fill="rgb(112, 13, 110)" stroke="black" stroke-width="1px" transform="translate(396.24487517766005,367.211438713149)"></circle></g></g><g><text x="505" y="495" font-family="sans-serif" text-anchor="end" font-size="10px" fill="red">29 nodes</text><text x="505" y="505" font-family="sans-serif" text-anchor="end" font-size="10px" fill="red">71 edges</text></g></svg>