<svg height="512" width="512" style="border-style: solid; border-width: 1px; cursor: auto;" id="figure"><g transform="translate(-390.6822232746671,-439.9426773629358) scale(2.625316334344244)"><g class="links"><line stroke-width="1.2488854083064105" stroke="lightgray" x1="255.54284151797938" y1="233.49879798869142" x2="235.6001902451826" y2="281.43023499340046"></line><line stroke-width="0.7126107695719912" stroke="lightgray" x1="255.54284151797938" y1="233.49879798869142" x2="279.9107600091915" y2="278.645336618113"></line><line stroke-width="0.7618129571039154" stroke="lightgray" x1="255.54284151797938" y1="233.49879798869142" x2="261.54680264808985" y2="313.0873913168349"></line><line stroke-width="0.6597493737841356" stroke="lightgray" x1="255.54284151797938" y1="233.49879798869142" x2="251.9322442693463" y2="178.58712704104045"></line><line stroke-width="2.2046556354668128" stroke="lightgray" x1="255.54284151797938" y1="233.49879798869142" x2="262.15802524032756" y2="198.76071187795097"></line><line stroke-width="0.5038919075109193" stroke="lightgray" x1="255.54284151797938" y1="233.49879798869142" x2="287.85703933099796" y2="243.28864773331097"></line><line stroke-width="0.6022660238691309" stroke="lightgray" x1="255.54284151797938" y1="233.49879798869142" x2="221.67898148440943" y2="239.01839104452415"></line><line stroke-width="0.5038919075109193" stroke="lightgray" x1="255.54284151797938" y1="233.49879798869142" x2="294.9899457502706" y2="215.25183497902006"></line><line stroke-width="1.0077838150218386" stroke="lightgray" x1="255.54284151797938" y1="233.49879798869142" x2="230.4461945207677" y2="183.63271276237225"></line><line stroke-width="0.19045323927597885" stroke="lightgray" x1="255.54284151797938" y1="233.49879798869142" x2="288.71607132873726" y2="186.87309663792183"></line><line stroke-width="0.19045323927597885" stroke="lightgray" x1="255.54284151797938" y1="233.49879798869142" x2="257.11242485123427" y2="274.9433771200757"></line><line stroke-width="0.19045323927597885" stroke="lightgray" x1="255.54284151797938" y1="233.49879798869142" x2="216.79342805798697" y2="202.19748696140675"></line><line stroke-width="0.7852588222758948" stroke="lightgray" x1="261.54680264808985" y1="313.0873913168349" x2="235.6001902451826" y2="281.43023499340046"></line><line stroke-width="2.720216354547098" stroke="lightgray" x1="261.54680264808985" y1="313.0873913168349" x2="288.1135110354528" y2="347.7485103959834"></line><line stroke-width="0.8517327791122431" stroke="lightgray" x1="261.54680264808985" y1="313.0873913168349" x2="255.84019504051963" y2="357.3601474126266"></line><line stroke-width="0.5038919075109193" stroke="lightgray" x1="261.54680264808985" y1="313.0873913168349" x2="279.9107600091915" y2="278.645336618113"></line><line stroke-width="0.3809064785519577" stroke="lightgray" x1="261.54680264808985" y1="313.0873913168349" x2="257.11242485123427" y2="274.9433771200757"></line><line stroke-width="0.19045323927597885" stroke="lightgray" x1="261.54680264808985" y1="313.0873913168349" x2="236.28498992175847" y2="337.87132876652345"></line><line stroke-width="0.2693415539819775" stroke="lightgray" x1="261.54680264808985" y1="313.0873913168349" x2="270.3534432199927" y2="346.0320147243118"></line><line stroke-width="0.9522661963798943" stroke="lightgray" x1="235.6001902451826" y1="281.43023499340046" x2="279.9107600091915" y2="278.645336618113"></line><line stroke-width="0.8933048750094738" stroke="lightgray" x1="235.6001902451826" y1="281.43023499340046" x2="257.11242485123427" y2="274.9433771200757"></line><line stroke-width="1.8267632972735188" stroke="lightgray" x1="230.4461945207677" y1="183.63271276237225" x2="195.12424762826095" y2="171.7597583470617"></line><line stroke-width="0.5038919075109193" stroke="lightgray" x1="230.4461945207677" y1="183.63271276237225" x2="262.15802524032756" y2="198.76071187795097"></line><line stroke-width="2.720216354547098" stroke="lightgray" x1="230.4461945207677" y1="183.63271276237225" x2="216.79342805798697" y2="202.19748696140675"></line><line stroke-width="0.19045323927597885" stroke="lightgray" x1="279.9107600091915" y1="278.645336618113" x2="257.11242485123427" y2="274.9433771200757"></line><line stroke-width="0.8517327791122431" stroke="lightgray" x1="262.15802524032756" y1="198.76071187795097" x2="288.71607132873726" y2="186.87309663792183"></line><line stroke-width="0.6022660238691309" stroke="lightgray" x1="262.15802524032756" y1="198.76071187795097" x2="294.9899457502706" y2="215.25183497902006"></line><line stroke-width="0.5713597178279366" stroke="lightgray" x1="262.15802524032756" y1="198.76071187795097" x2="251.9322442693463" y2="178.58712704104045"></line><line stroke-width="0.8080246619459325" stroke="lightgray" x1="262.15802524032756" y1="198.76071187795097" x2="216.79342805798697" y2="202.19748696140675"></line><line stroke-width="0.4665132560863405" stroke="lightgray" x1="288.71607132873726" y1="186.87309663792183" x2="294.9899457502706" y2="215.25183497902006"></line><line stroke-width="0.2693415539819775" stroke="lightgray" x1="288.71607132873726" y1="186.87309663792183" x2="251.9322442693463" y2="178.58712704104045"></line><line stroke-width="0.42586638955612155" stroke="lightgray" x1="216.79342805798697" y1="202.19748696140675" x2="251.9322442693463" y2="178.58712704104045"></line><line stroke-width="0.2693415539819775" stroke="lightgray" x1="216.79342805798697" y1="202.19748696140675" x2="195.12424762826095" y2="171.7597583470617"></line><line stroke-width="0.42586638955612155" stroke="lightgray" x1="288.1135110354528" y1="347.7485103959834" x2="255.84019504051963" y2="357.3601474126266"></line></g><g class="nodes"><circle r="3.6336162196439545" fill="rgb(177, 225, 215)" stroke="black" stroke-width="1px" transform="translate(255.54284151797938,233.49879798869142)"></circle><circle r="3.5528591092313544" fill="rgb(182, 227, 218)" stroke="black" stroke-width="1px" transform="translate(261.54680264808985,313.0873913168349)"></circle><circle r="3.4910655413268383" fill="rgb(208, 237, 234)" stroke="black" stroke-width="1px" transform="translate(235.6001902451826,281.43023499340046)"></circle><circle r="3.209575037851984" fill="rgb(131, 206, 184)" stroke="black" stroke-width="1px" transform="translate(230.4461945207677,183.63271276237225)"></circle><circle r="1.7034655582244862" fill="rgb(221, 242, 242)" stroke="black" stroke-width="1px" transform="translate(279.9107600091915,278.645336618113)"></circle><circle r="1.616049323891865" fill="rgb(195, 232, 226)" stroke="black" stroke-width="1px" transform="translate(257.11242485123427,274.9433771200757)"></circle><circle r="3.117853900039441" fill="rgb(62, 168, 111)" stroke="black" stroke-width="1px" transform="translate(262.15802524032756,198.76071187795097)"></circle><circle r="2.8248780499619652" fill="rgb(7, 109, 46)" stroke="black" stroke-width="1px" transform="translate(288.71607132873726,186.87309663792183)"></circle><circle r="2.5266477391448006" fill="rgb(84, 184, 141)" stroke="black" stroke-width="1px" transform="translate(216.79342805798697,202.19748696140675)"></circle><circle r="2.188141128513915" fill="rgb(95, 190, 154)" stroke="black" stroke-width="1px" transform="translate(288.1135110354528,347.7485103959834)"></circle><circle r="2.015567630043677" fill="rgb(46, 152, 88)" stroke="black" stroke-width="1px" transform="translate(255.84019504051963,357.3601474126266)"></circle><circle r="1.5705176445517897" fill="rgb(34, 140, 73)" stroke="black" stroke-width="1px" transform="translate(294.9899457502706,215.25183497902006)"></circle><circle r="1.3194987475682711" fill="rgb(69, 174, 121)" stroke="black" stroke-width="1px" transform="translate(251.9322442693463,178.58712704104045)"></circle><circle r="1.2633238695724003" fill="rgb(104, 194, 163)" stroke="black" stroke-width="1px" transform="translate(195.12424762826095,171.7597583470617)"></circle><circle r="0.538683107963955" fill="rgb(104, 194, 163)" stroke="black" stroke-width="1px" transform="translate(287.85703933099796,243.28864773331097)"></circle><circle r="0.538683107963955" fill="rgb(104, 194, 163)" stroke="black" stroke-width="1px" transform="translate(221.67898148440943,239.01839104452415)"></circle><circle r="0.3809064785519577" fill="rgb(104, 194, 163)" stroke="black" stroke-width="1px" transform="translate(236.28498992175847,337.87132876652345)"></circle><circle r="0.3809064785519577" fill="rgb(104, 194, 163)" stroke="black" stroke-width="1px" transform="translate(270.3534432199927,346.0320147243118)"></circle></g></g><g><text x="505" y="495" font-family="sans-serif" text-anchor="end" font-size="10px" fill="red">18 nodes</text><text x="505" y="505" font-family="sans-serif" text-anchor="end" font-size="10px" fill="red">34 edges</text></g></svg>