<svg height="512" width="512" style="border-style: solid; border-width: 1px; cursor: auto;" id="figure"><g transform="translate(-209.3782027811019,-215.77746479084976) scale(1.6330599186972312)"><g class="links"><line stroke-width="2.076571075400544" stroke="lightgray" x1="224.15452025731807" y1="249.95635700908898" x2="273.51575413895705" y2="221.41515931789831"></line><line stroke-width="1.3345802237979036" stroke="lightgray" x1="224.15452025731807" y1="249.95635700908898" x2="202.40175585206484" y2="193.7028874285727"></line><line stroke-width="1.1858056467692497" stroke="lightgray" x1="224.15452025731807" y1="249.95635700908898" x2="242.8849773442291" y2="329.2217778640166"></line><line stroke-width="1.6487958419279873" stroke="lightgray" x1="224.15452025731807" y1="249.95635700908898" x2="255.39376530122956" y2="274.56675738032976"></line><line stroke-width="0.30617370145173456" stroke="lightgray" x1="224.15452025731807" y1="249.95635700908898" x2="192.56716736015844" y2="233.28047814541435"></line><line stroke-width="1.2989850031050418" stroke="lightgray" x1="224.15452025731807" y1="249.95635700908898" x2="233.8088919046898" y2="203.67779321640842"></line><line stroke-width="0.7499693412159828" stroke="lightgray" x1="224.15452025731807" y1="249.95635700908898" x2="192.346740454845" y2="266.72898564635835"></line><line stroke-width="0.5303084068558291" stroke="lightgray" x1="224.15452025731807" y1="249.95635700908898" x2="186.95978955890317" y2="250.2040532144215"></line><line stroke-width="1.8623819189533246" stroke="lightgray" x1="242.8849773442291" y1="329.2217778640166" x2="238.9226205825099" y2="403.80027750234206"></line><line stroke-width="1.5308685072586727" stroke="lightgray" x1="242.8849773442291" y1="329.2217778640166" x2="208.7193293413403" y2="385.49694124681616"></line><line stroke-width="1.4030641627073843" stroke="lightgray" x1="242.8849773442291" y1="329.2217778640166" x2="271.58263379120365" y2="349.48422517684696"></line><line stroke-width="1.7852841246317912" stroke="lightgray" x1="242.8849773442291" y1="329.2217778640166" x2="246.29124329346" y2="370.9293455127107"></line><line stroke-width="0.30617370145173456" stroke="lightgray" x1="242.8849773442291" y1="329.2217778640166" x2="273.51575413895705" y2="221.41515931789831"></line><line stroke-width="0.6123474029034691" stroke="lightgray" x1="242.8849773442291" y1="329.2217778640166" x2="207.18356612995095" y2="333.7337262715227"></line><line stroke-width="1.2246948058069382" stroke="lightgray" x1="242.8849773442291" y1="329.2217778640166" x2="255.39376530122956" y2="274.56675738032976"></line><line stroke-width="0.43299500103501404" stroke="lightgray" x1="242.8849773442291" y1="329.2217778640166" x2="233.96882242727426" y2="377.1551956851131"></line><line stroke-width="0.5303084068558291" stroke="lightgray" x1="242.8849773442291" y1="329.2217778640166" x2="211.44444539181472" y2="316.97314963721874"></line><line stroke-width="0.7499693412159828" stroke="lightgray" x1="242.8849773442291" y1="329.2217778640166" x2="225.9289534966434" y2="358.1868759650853"></line><line stroke-width="0.6846252093688046" stroke="lightgray" x1="242.8849773442291" y1="329.2217778640166" x2="211.90022499999222" y2="348.27198561068127"></line><line stroke-width="0.30617370145173456" stroke="lightgray" x1="255.39376530122956" y1="274.56675738032976" x2="273.51575413895705" y2="221.41515931789831"></line><line stroke-width="1.015463288389696" stroke="lightgray" x1="273.51575413895705" y1="221.41515931789831" x2="202.40175585206484" y2="193.7028874285727"></line><line stroke-width="0.43299500103501404" stroke="lightgray" x1="273.51575413895705" y1="221.41515931789831" x2="320.1697812181131" y2="200.7999406704972"></line><line stroke-width="1.103924979782832" stroke="lightgray" x1="273.51575413895705" y1="221.41515931789831" x2="233.8088919046898" y2="203.67779321640842"></line><line stroke-width="1.2989850031050418" stroke="lightgray" x1="273.51575413895705" y1="221.41515931789831" x2="276.9014095042589" y2="182.10515880745413"></line><line stroke-width="0.6846252093688046" stroke="lightgray" x1="273.51575413895705" y1="221.41515931789831" x2="352.0383306180047" y2="171.56985385375356"></line><line stroke-width="1.7588340087119205" stroke="lightgray" x1="273.51575413895705" y1="221.41515931789831" x2="307.7691552050518" y2="174.2150941091333"></line><line stroke-width="0.43299500103501404" stroke="lightgray" x1="273.51575413895705" y1="221.41515931789831" x2="303.3888354601569" y2="236.50507636074767"></line><line stroke-width="0.8100594720294253" stroke="lightgray" x1="202.40175585206484" y1="193.7028874285727" x2="171.6430282586357" y2="170.08940891748804"></line><line stroke-width="0.43299500103501404" stroke="lightgray" x1="202.40175585206484" y1="193.7028874285727" x2="233.8088919046898" y2="203.67779321640842"></line><line stroke-width="0.6846252093688046" stroke="lightgray" x1="202.40175585206484" y1="193.7028874285727" x2="186.530749503818" y2="159.03538768005245"></line><line stroke-width="1.145597091672802" stroke="lightgray" x1="202.40175585206484" y1="193.7028874285727" x2="164.9285758069751" y2="186.6120011774618"></line><line stroke-width="0.30617370145173456" stroke="lightgray" x1="233.8088919046898" y1="203.67779321640842" x2="226.98126677612876" y2="167.27820809880564"></line><line stroke-width="1.103924979782832" stroke="lightgray" x1="320.1697812181131" y1="200.7999406704972" x2="307.7691552050518" y2="174.2150941091333"></line><line stroke-width="0.8659900020700281" stroke="lightgray" x1="320.1697812181131" y1="200.7999406704972" x2="352.0383306180047" y2="171.56985385375356"></line><line stroke-width="0.9185211043552037" stroke="lightgray" x1="238.9226205825099" y1="403.80027750234206" x2="233.96882242727426" y2="377.1551956851131"></line><line stroke-width="1.2623865108718288" stroke="lightgray" x1="238.9226205825099" y1="403.80027750234206" x2="208.7193293413403" y2="385.49694124681616"></line><line stroke-width="0.43299500103501404" stroke="lightgray" x1="238.9226205825099" y1="403.80027750234206" x2="232.6964578839458" y2="440.62079139354614"></line><line stroke-width="0.7499693412159828" stroke="lightgray" x1="208.7193293413403" y1="385.49694124681616" x2="233.96882242727426" y2="377.1551956851131"></line><line stroke-width="0.30617370145173456" stroke="lightgray" x1="208.7193293413403" y1="385.49694124681616" x2="246.29124329346" y2="370.9293455127107"></line><line stroke-width="1.145597091672802" stroke="lightgray" x1="352.0383306180047" y1="171.56985385375356" x2="377.4232608634249" y2="133.02117983518608"></line><line stroke-width="0.8659900020700281" stroke="lightgray" x1="352.0383306180047" y1="171.56985385375356" x2="402.74899544085605" y2="144.97536204471945"></line><line stroke-width="0.30617370145173456" stroke="lightgray" x1="352.0383306180047" y1="171.56985385375356" x2="396.8479657271453" y2="171.5822036742918"></line><line stroke-width="0.43299500103501404" stroke="lightgray" x1="352.0383306180047" y1="171.56985385375356" x2="380.0001964429236" y2="154.8065394834969"></line><line stroke-width="0.43299500103501404" stroke="lightgray" x1="352.0383306180047" y1="171.56985385375356" x2="307.7691552050518" y2="174.2150941091333"></line><line stroke-width="0.30617370145173456" stroke="lightgray" x1="307.7691552050518" y1="174.2150941091333" x2="276.9014095042589" y2="182.10515880745413"></line><line stroke-width="0.30617370145173456" stroke="lightgray" x1="402.74899544085605" y1="144.97536204471945" x2="377.4232608634249" y2="133.02117983518608"></line><line stroke-width="0.30617370145173456" stroke="lightgray" x1="402.74899544085605" y1="144.97536204471945" x2="396.8479657271453" y2="171.5822036742918"></line><line stroke-width="0.30617370145173456" stroke="lightgray" x1="377.4232608634249" y1="133.02117983518608" x2="396.8479657271453" y2="171.5822036742918"></line></g><g class="nodes"><circle r="6.39309457624756" fill="rgb(219, 241, 213)" stroke="black" stroke-width="1px" transform="translate(224.15452025731807,249.95635700908898)"></circle><circle r="6.184405619616779" fill="rgb(205, 235, 201)" stroke="black" stroke-width="1px" transform="translate(242.8849773442291,329.2217778640166)"></circle><circle r="5.373326653189998" fill="rgb(217, 240, 211)" stroke="black" stroke-width="1px" transform="translate(255.39376530122956,274.56675738032976)"></circle><circle r="5.3030840685582925" fill="rgb(215, 239, 209)" stroke="black" stroke-width="1px" transform="translate(273.51575413895705,221.41515931789831)"></circle><circle r="2.999877364863931" fill="rgb(202, 234, 198)" stroke="black" stroke-width="1px" transform="translate(202.40175585206484,193.7028874285727)"></circle><circle r="2.8061283254147686" fill="rgb(206, 236, 202)" stroke="black" stroke-width="1px" transform="translate(233.8088919046898,203.67779321640842)"></circle><circle r="1.369250418737609" fill="rgb(191, 230, 192)" stroke="black" stroke-width="1px" transform="translate(320.1697812181131,200.7999406704972)"></circle><circle r="3.4094060475574524" fill="rgb(141, 211, 190)" stroke="black" stroke-width="1px" transform="translate(238.9226205825099,403.80027750234206)"></circle><circle r="2.872163909065379" fill="rgb(141, 210, 190)" stroke="black" stroke-width="1px" transform="translate(208.7193293413403,385.49694124681616)"></circle><circle r="2.6691604475958073" fill="rgb(110, 196, 200)" stroke="black" stroke-width="1px" transform="translate(352.0383306180047,171.56985385375356)"></circle><circle r="2.5247730217436577" fill="rgb(163, 219, 186)" stroke="black" stroke-width="1px" transform="translate(307.7691552050518,174.2150941091333)"></circle><circle r="1.7319800041400562" fill="rgb(169, 221, 186)" stroke="black" stroke-width="1px" transform="translate(246.29124329346,370.9293455127107)"></circle><circle r="1.4999386824319656" fill="rgb(176, 224, 187)" stroke="black" stroke-width="1px" transform="translate(276.9014095042589,182.10515880745413)"></circle><circle r="1.4999386824319656" fill="rgb(124, 203, 196)" stroke="black" stroke-width="1px" transform="translate(233.96882242727426,377.1551956851131)"></circle><circle r="1.2246948058069382" fill="rgb(99, 190, 203)" stroke="black" stroke-width="1px" transform="translate(232.6964578839458,440.62079139354614)"></circle><circle r="1.0606168137116583" fill="rgb(171, 222, 186)" stroke="black" stroke-width="1px" transform="translate(271.58263379120365,349.48422517684696)"></circle><circle r="1.0606168137116583" fill="rgb(165, 220, 186)" stroke="black" stroke-width="1px" transform="translate(192.346740454845,266.72898564635835)"></circle><circle r="0.8659900020700281" fill="rgb(161, 218, 186)" stroke="black" stroke-width="1px" transform="translate(211.44444539181472,316.97314963721874)"></circle><circle r="0.8659900020700281" fill="rgb(167, 221, 186)" stroke="black" stroke-width="1px" transform="translate(164.9285758069751,186.6120011774618)"></circle><circle r="0.8659900020700281" fill="rgb(174, 223, 187)" stroke="black" stroke-width="1px" transform="translate(211.90022499999222,348.27198561068127)"></circle><circle r="0.6123474029034691" fill="rgb(177, 225, 187)" stroke="black" stroke-width="1px" transform="translate(225.9289534966434,358.1868759650853)"></circle><circle r="0.6123474029034691" fill="rgb(134, 208, 192)" stroke="black" stroke-width="1px" transform="translate(303.3888354601569,236.50507636074767)"></circle><circle r="0.6123474029034691" fill="rgb(164, 220, 186)" stroke="black" stroke-width="1px" transform="translate(192.56716736015844,233.28047814541435)"></circle><circle r="0.6123474029034691" fill="rgb(176, 224, 187)" stroke="black" stroke-width="1px" transform="translate(171.6430282586357,170.08940891748804)"></circle><circle r="0.6123474029034691" fill="rgb(166, 220, 186)" stroke="black" stroke-width="1px" transform="translate(226.98126677612876,167.27820809880564)"></circle><circle r="0.6123474029034691" fill="rgb(175, 224, 187)" stroke="black" stroke-width="1px" transform="translate(207.18356612995095,333.7337262715227)"></circle><circle r="0.6123474029034691" fill="rgb(165, 220, 186)" stroke="black" stroke-width="1px" transform="translate(186.95978955890317,250.2040532144215)"></circle><circle r="0.6123474029034691" fill="rgb(179, 225, 188)" stroke="black" stroke-width="1px" transform="translate(186.530749503818,159.03538768005245)"></circle><circle r="0.8659900020700281" fill="rgb(50, 148, 194)" stroke="black" stroke-width="1px" transform="translate(402.74899544085605,144.97536204471945)"></circle><circle r="0.8659900020700281" fill="rgb(65, 164, 202)" stroke="black" stroke-width="1px" transform="translate(377.4232608634249,133.02117983518608)"></circle><circle r="0.8659900020700281" fill="rgb(13, 101, 166)" stroke="black" stroke-width="1px" transform="translate(396.8479657271453,171.5822036742918)"></circle><circle r="0.8659900020700281" fill="rgb(36, 133, 187)" stroke="black" stroke-width="1px" transform="translate(380.0001964429236,154.8065394834969)"></circle></g></g><g><text x="505" y="495" font-family="sans-serif" text-anchor="end" font-size="10px" fill="red">32 nodes</text><text x="505" y="505" font-family="sans-serif" text-anchor="end" font-size="10px" fill="red">48 edges</text></g></svg>