<svg height="512" width="512" style="border-style: solid; border-width: 1px; cursor: auto;" id="figure"><g transform="translate(122.52342119350863,179.75611795123228) scale(0.34980155591702394)"><g class="links"><line stroke-width="5.717527455693816" stroke="lightgray" x1="416.0090595925109" y1="220.36859931827004" x2="364.6270645587848" y2="214.25286939961282"></line><line stroke-width="6.230531096572143" stroke="lightgray" x1="416.0090595925109" y1="220.36859931827004" x2="457.9834713416379" y2="213.6463450126508"></line><line stroke-width="2.4757620117329253" stroke="lightgray" x1="416.0090595925109" y1="220.36859931827004" x2="349.7107293712136" y2="252.75491399240565"></line><line stroke-width="3.7817889404874268" stroke="lightgray" x1="416.0090595925109" y1="220.36859931827004" x2="384.0880823876634" y2="259.55005978603424"></line><line stroke-width="4.520102336134977" stroke="lightgray" x1="416.0090595925109" y1="220.36859931827004" x2="410.4885379325304" y2="271.315904914772"></line><line stroke-width="3.7817889404874268" stroke="lightgray" x1="416.0090595925109" y1="220.36859931827004" x2="460.8669890000075" y2="179.82327996562228"></line><line stroke-width="2.0214512177706827" stroke="lightgray" x1="416.0090595925109" y1="220.36859931827004" x2="364.37218190028415" y2="265.98154097097176"></line><line stroke-width="1.429381863923454" stroke="lightgray" x1="416.0090595925109" y1="220.36859931827004" x2="435.4926550717065" y2="264.47562279476546"></line><line stroke-width="4.520102336134977" stroke="lightgray" x1="364.6270645587848" y1="214.25286939961282" x2="349.7107293712136" y2="252.75491399240565"></line><line stroke-width="2.0214512177706827" stroke="lightgray" x1="364.6270645587848" y1="214.25286939961282" x2="364.37218190028415" y2="265.98154097097176"></line><line stroke-width="1.429381863923454" stroke="lightgray" x1="364.6270645587848" y1="214.25286939961282" x2="384.0880823876634" y2="259.55005978603424"></line><line stroke-width="2.858763727846908" stroke="lightgray" x1="364.6270645587848" y1="214.25286939961282" x2="457.9834713416379" y2="213.6463450126508"></line><line stroke-width="1.429381863923454" stroke="lightgray" x1="364.6270645587848" y1="214.25286939961282" x2="403.88074281813016" y2="191.51447299686438"></line><line stroke-width="1.429381863923454" stroke="lightgray" x1="364.6270645587848" y1="214.25286939961282" x2="251.59694588818357" y2="276.25497202901005"></line><line stroke-width="1.429381863923454" stroke="lightgray" x1="364.6270645587848" y1="214.25286939961282" x2="299.43074881816665" y2="246.5671070243548"></line><line stroke-width="1.429381863923454" stroke="lightgray" x1="364.6270645587848" y1="214.25286939961282" x2="460.8669890000075" y2="179.82327996562228"></line><line stroke-width="1.429381863923454" stroke="lightgray" x1="423.1002350680271" y1="234.4376893662435" x2="403.88074281813016" y2="191.51447299686438"></line><line stroke-width="3.7817889404874268" stroke="lightgray" x1="423.1002350680271" y1="234.4376893662435" x2="364.37218190028415" y2="265.98154097097176"></line><line stroke-width="3.1961950135381976" stroke="lightgray" x1="423.1002350680271" y1="234.4376893662435" x2="457.9834713416379" y2="213.6463450126508"></line><line stroke-width="1.429381863923454" stroke="lightgray" x1="423.1002350680271" y1="234.4376893662435" x2="410.4885379325304" y2="271.315904914772"></line><line stroke-width="2.858763727846908" stroke="lightgray" x1="384.02773149343403" y1="206.93944641991" x2="349.7107293712136" y2="252.75491399240565"></line><line stroke-width="2.4757620117329253" stroke="lightgray" x1="384.02773149343403" y1="206.93944641991" x2="329.0164406460453" y2="249.9194947683873"></line><line stroke-width="1.429381863923454" stroke="lightgray" x1="384.02773149343403" y1="206.93944641991" x2="460.8669890000075" y2="179.82327996562228"></line><line stroke-width="2.0214512177706827" stroke="lightgray" x1="457.9834713416379" y1="213.6463450126508" x2="410.4885379325304" y2="271.315904914772"></line><line stroke-width="8.334656887901971" stroke="lightgray" x1="457.9834713416379" y1="213.6463450126508" x2="606.9402988008699" y2="147.86486203969045"></line><line stroke-width="4.288145591770362" stroke="lightgray" x1="457.9834713416379" y1="213.6463450126508" x2="482.13408781957395" y2="239.75912035330168"></line><line stroke-width="1.429381863923454" stroke="lightgray" x1="457.9834713416379" y1="213.6463450126508" x2="364.37218190028415" y2="265.98154097097176"></line><line stroke-width="3.501256214200801" stroke="lightgray" x1="384.0880823876634" y1="259.55005978603424" x2="364.37218190028415" y2="265.98154097097176"></line><line stroke-width="2.0214512177706827" stroke="lightgray" x1="384.0880823876634" y1="259.55005978603424" x2="281.5169573722455" y2="302.14927123041616"></line><line stroke-width="5.348257209669896" stroke="lightgray" x1="384.0880823876634" y1="259.55005978603424" x2="378.36490450580965" y2="302.3163203997066"></line><line stroke-width="2.0214512177706827" stroke="lightgray" x1="384.0880823876634" y1="259.55005978603424" x2="329.0164406460453" y2="249.9194947683873"></line><line stroke-width="2.4757620117329253" stroke="lightgray" x1="384.0880823876634" y1="259.55005978603424" x2="410.4885379325304" y2="271.315904914772"></line><line stroke-width="5.348257209669896" stroke="lightgray" x1="384.0880823876634" y1="259.55005978603424" x2="401.7886007832832" y2="297.0702183636404"></line><line stroke-width="1.429381863923454" stroke="lightgray" x1="384.0880823876634" y1="259.55005978603424" x2="349.7107293712136" y2="252.75491399240565"></line><line stroke-width="2.0214512177706827" stroke="lightgray" x1="384.0880823876634" y1="259.55005978603424" x2="482.13408781957395" y2="239.75912035330168"></line><line stroke-width="7.002512428401602" stroke="lightgray" x1="364.37218190028415" y1="265.98154097097176" x2="378.36490450580965" y2="302.3163203997066"></line><line stroke-width="5.893492404298651" stroke="lightgray" x1="364.37218190028415" y1="265.98154097097176" x2="345.6398910693177" y2="314.93445422952135"></line><line stroke-width="4.042902435541365" stroke="lightgray" x1="364.37218190028415" y1="265.98154097097176" x2="401.7886007832832" y2="297.0702183636404"></line><line stroke-width="2.4757620117329253" stroke="lightgray" x1="364.37218190028415" y1="265.98154097097176" x2="410.4885379325304" y2="271.315904914772"></line><line stroke-width="2.858763727846908" stroke="lightgray" x1="364.37218190028415" y1="265.98154097097176" x2="349.7107293712136" y2="252.75491399240565"></line><line stroke-width="4.520102336134977" stroke="lightgray" x1="364.37218190028415" y1="265.98154097097176" x2="482.13408781957395" y2="239.75912035330168"></line><line stroke-width="2.0214512177706827" stroke="lightgray" x1="364.37218190028415" y1="265.98154097097176" x2="396.076344150053" y2="243.39231671439148"></line><line stroke-width="4.951524023465851" stroke="lightgray" x1="364.37218190028415" y1="265.98154097097176" x2="281.5169573722455" y2="302.14927123041616"></line><line stroke-width="3.7817889404874268" stroke="lightgray" x1="364.37218190028415" y1="265.98154097097176" x2="244.8225345165252" y2="259.1065803587922"></line><line stroke-width="2.858763727846908" stroke="lightgray" x1="364.37218190028415" y1="265.98154097097176" x2="230.4696524744128" y2="324.83538692809935"></line><line stroke-width="4.520102336134977" stroke="lightgray" x1="349.7107293712136" y1="252.75491399240565" x2="244.8225345165252" y2="259.1065803587922"></line><line stroke-width="10.005673047464178" stroke="lightgray" x1="349.7107293712136" y1="252.75491399240565" x2="281.5169573722455" y2="302.14927123041616"></line><line stroke-width="3.501256214200801" stroke="lightgray" x1="349.7107293712136" y1="252.75491399240565" x2="345.6398910693177" y2="314.93445422952135"></line><line stroke-width="3.7817889404874268" stroke="lightgray" x1="349.7107293712136" y1="252.75491399240565" x2="378.36490450580965" y2="302.3163203997066"></line><line stroke-width="1.429381863923454" stroke="lightgray" x1="349.7107293712136" y1="252.75491399240565" x2="410.4885379325304" y2="271.315904914772"></line><line stroke-width="3.501256214200801" stroke="lightgray" x1="349.7107293712136" y1="252.75491399240565" x2="401.7886007832832" y2="297.0702183636404"></line><line stroke-width="1.429381863923454" stroke="lightgray" x1="349.7107293712136" y1="252.75491399240565" x2="329.0164406460453" y2="249.9194947683873"></line><line stroke-width="2.4757620117329253" stroke="lightgray" x1="460.8669890000075" y1="179.82327996562228" x2="606.9402988008699" y2="147.86486203969045"></line><line stroke-width="2.858763727846908" stroke="lightgray" x1="410.4885379325304" y1="271.315904914772" x2="378.36490450580965" y2="302.3163203997066"></line><line stroke-width="4.288145591770362" stroke="lightgray" x1="410.4885379325304" y1="271.315904914772" x2="345.6398910693177" y2="314.93445422952135"></line><line stroke-width="2.4757620117329253" stroke="lightgray" x1="410.4885379325304" y1="271.315904914772" x2="281.5169573722455" y2="302.14927123041616"></line><line stroke-width="2.858763727846908" stroke="lightgray" x1="410.4885379325304" y1="271.315904914772" x2="482.13408781957395" y2="239.75912035330168"></line><line stroke-width="1.429381863923454" stroke="lightgray" x1="410.4885379325304" y1="271.315904914772" x2="396.076344150053" y2="243.39231671439148"></line><line stroke-width="1.429381863923454" stroke="lightgray" x1="410.4885379325304" y1="271.315904914772" x2="401.7886007832832" y2="297.0702183636404"></line><line stroke-width="1.429381863923454" stroke="lightgray" x1="329.0164406460453" y1="249.9194947683873" x2="281.5169573722455" y2="302.14927123041616"></line><line stroke-width="1.429381863923454" stroke="lightgray" x1="435.4926550717065" y1="264.47562279476546" x2="401.7886007832832" y2="297.0702183636404"></line><line stroke-width="2.4757620117329253" stroke="lightgray" x1="251.59694588818357" y1="276.25497202901005" x2="134.38351788384324" y2="328.0094161448327"></line><line stroke-width="2.0214512177706827" stroke="lightgray" x1="251.59694588818357" y1="276.25497202901005" x2="230.4696524744128" y2="324.83538692809935"></line><line stroke-width="2.0214512177706827" stroke="lightgray" x1="299.43074881816665" y1="246.5671070243548" x2="244.8225345165252" y2="259.1065803587922"></line><line stroke-width="1.429381863923454" stroke="lightgray" x1="299.43074881816665" y1="246.5671070243548" x2="281.5169573722455" y2="302.14927123041616"></line><line stroke-width="5.535972154346454" stroke="lightgray" x1="518.304231868811" y1="252.73440285744678" x2="482.13408781957395" y2="239.75912035330168"></line><line stroke-width="2.0214512177706827" stroke="lightgray" x1="281.5169573722455" y1="302.14927123041616" x2="30.31708939089231" y2="287.9598617348457"></line><line stroke-width="4.042902435541365" stroke="lightgray" x1="281.5169573722455" y1="302.14927123041616" x2="378.36490450580965" y2="302.3163203997066"></line><line stroke-width="2.4757620117329253" stroke="lightgray" x1="281.5169573722455" y1="302.14927123041616" x2="345.6398910693177" y2="314.93445422952135"></line><line stroke-width="6.855074601855592" stroke="lightgray" x1="281.5169573722455" y1="302.14927123041616" x2="122.6475517667431" y2="373.77075195349516"></line><line stroke-width="3.501256214200801" stroke="lightgray" x1="281.5169573722455" y1="302.14927123041616" x2="249.67275720600162" y2="348.55553646024805"></line><line stroke-width="2.0214512177706827" stroke="lightgray" x1="281.5169573722455" y1="302.14927123041616" x2="328.50891009117845" y2="311.4902896923358"></line><line stroke-width="3.501256214200801" stroke="lightgray" x1="281.5169573722455" y1="302.14927123041616" x2="244.8225345165252" y2="259.1065803587922"></line><line stroke-width="4.520102336134977" stroke="lightgray" x1="281.5169573722455" y1="302.14927123041616" x2="285.72951903554764" y2="337.12392026713565"></line><line stroke-width="1.429381863923454" stroke="lightgray" x1="281.5169573722455" y1="302.14927123041616" x2="401.7886007832832" y2="297.0702183636404"></line><line stroke-width="2.4757620117329253" stroke="lightgray" x1="281.5169573722455" y1="302.14927123041616" x2="230.4696524744128" y2="324.83538692809935"></line><line stroke-width="2.0214512177706827" stroke="lightgray" x1="281.5169573722455" y1="302.14927123041616" x2="273.67956556191893" y2="267.07902485585305"></line><line stroke-width="2.4757620117329253" stroke="lightgray" x1="281.5169573722455" y1="302.14927123041616" x2="144.1292281333183" y2="376.44164796162715"></line><line stroke-width="4.288145591770362" stroke="lightgray" x1="378.36490450580965" y1="302.3163203997066" x2="345.6398910693177" y2="314.93445422952135"></line><line stroke-width="2.4757620117329253" stroke="lightgray" x1="378.36490450580965" y1="302.3163203997066" x2="328.50891009117845" y2="311.4902896923358"></line><line stroke-width="2.4757620117329253" stroke="lightgray" x1="378.36490450580965" y1="302.3163203997066" x2="401.7886007832832" y2="297.0702183636404"></line><line stroke-width="2.0214512177706827" stroke="lightgray" x1="378.36490450580965" y1="302.3163203997066" x2="482.13408781957395" y2="239.75912035330168"></line><line stroke-width="2.4757620117329253" stroke="lightgray" x1="378.36490450580965" y1="302.3163203997066" x2="400.33028142639546" y2="335.0885416145489"></line><line stroke-width="2.0214512177706827" stroke="lightgray" x1="482.13408781957395" y1="239.75912035330168" x2="401.7886007832832" y2="297.0702183636404"></line><line stroke-width="5.717527455693816" stroke="lightgray" x1="482.13408781957395" y1="239.75912035330168" x2="519.1817864836896" y2="232.12429281705639"></line><line stroke-width="1.429381863923454" stroke="lightgray" x1="482.13408781957395" y1="239.75912035330168" x2="606.9402988008699" y2="147.86486203969045"></line><line stroke-width="1.429381863923454" stroke="lightgray" x1="482.13408781957395" y1="239.75912035330168" x2="550.8078394116094" y2="193.54908477807666"></line><line stroke-width="1.429381863923454" stroke="lightgray" x1="401.7886007832832" y1="297.0702183636404" x2="433.81379977169365" y2="321.00876247636296"></line><line stroke-width="2.0214512177706827" stroke="lightgray" x1="401.7886007832832" y1="297.0702183636404" x2="345.6398910693177" y2="314.93445422952135"></line><line stroke-width="1.429381863923454" stroke="lightgray" x1="606.9402988008699" y1="147.86486203969045" x2="825.7290427049561" y2="51.841055771110135"></line><line stroke-width="6.064353653312047" stroke="lightgray" x1="606.9402988008699" y1="147.86486203969045" x2="791.5571360340791" y2="41.81945753043342"></line><line stroke-width="1.429381863923454" stroke="lightgray" x1="606.9402988008699" y1="147.86486203969045" x2="550.8078394116094" y2="193.54908477807666"></line><line stroke-width="1.429381863923454" stroke="lightgray" x1="345.6398910693177" y1="314.93445422952135" x2="358.1238573740242" y2="351.6707938226687"></line><line stroke-width="2.0214512177706827" stroke="lightgray" x1="345.6398910693177" y1="314.93445422952135" x2="249.67275720600162" y2="348.55553646024805"></line><line stroke-width="5.893492404298651" stroke="lightgray" x1="244.8225345165252" y1="259.1065803587922" x2="30.31708939089231" y2="287.9598617348457"></line><line stroke-width="1.429381863923454" stroke="lightgray" x1="244.8225345165252" y1="259.1065803587922" x2="273.67956556191893" y2="267.07902485585305"></line><line stroke-width="3.1961950135381976" stroke="lightgray" x1="230.4696524744128" y1="324.83538692809935" x2="249.67275720600162" y2="348.55553646024805"></line><line stroke-width="2.0214512177706827" stroke="lightgray" x1="230.4696524744128" y1="324.83538692809935" x2="122.6475517667431" y2="373.77075195349516"></line><line stroke-width="4.520102336134977" stroke="lightgray" x1="230.4696524744128" y1="324.83538692809935" x2="144.1292281333183" y2="376.44164796162715"></line><line stroke-width="3.1961950135381976" stroke="lightgray" x1="134.38351788384324" y1="328.0094161448327" x2="144.1292281333183" y2="376.44164796162715"></line><line stroke-width="2.4757620117329253" stroke="lightgray" x1="134.38351788384324" y1="328.0094161448327" x2="122.6475517667431" y2="373.77075195349516"></line><line stroke-width="2.0214512177706827" stroke="lightgray" x1="134.38351788384324" y1="328.0094161448327" x2="3.435402801082781" y2="334.25807783931657"></line><line stroke-width="5.348257209669896" stroke="lightgray" x1="122.6475517667431" y1="373.77075195349516" x2="75.54906159549272" y2="389.385180338704"></line><line stroke-width="5.348257209669896" stroke="lightgray" x1="122.6475517667431" y1="373.77075195349516" x2="85.7712969702549" y2="407.5735692133306"></line><line stroke-width="3.7817889404874268" stroke="lightgray" x1="122.6475517667431" y1="373.77075195349516" x2="45.164166533683115" y2="424.4457702294853"></line><line stroke-width="3.7817889404874268" stroke="lightgray" x1="122.6475517667431" y1="373.77075195349516" x2="61.20876338911644" y2="426.1796604378492"></line><line stroke-width="4.740723324772937" stroke="lightgray" x1="122.6475517667431" y1="373.77075195349516" x2="23.949377431437757" y2="379.99743537613085"></line><line stroke-width="4.740723324772937" stroke="lightgray" x1="122.6475517667431" y1="373.77075195349516" x2="15.056065049732881" y2="393.7506583187523"></line><line stroke-width="4.042902435541365" stroke="lightgray" x1="122.6475517667431" y1="373.77075195349516" x2="144.1292281333183" y2="376.44164796162715"></line><line stroke-width="7.5635778809748535" stroke="lightgray" x1="144.1292281333183" y1="376.44164796162715" x2="75.54906159549272" y2="389.385180338704"></line><line stroke-width="7.5635778809748535" stroke="lightgray" x1="144.1292281333183" y1="376.44164796162715" x2="85.7712969702549" y2="407.5735692133306"></line><line stroke-width="6.704395221352358" stroke="lightgray" x1="144.1292281333183" y1="376.44164796162715" x2="45.164166533683115" y2="424.4457702294853"></line><line stroke-width="6.704395221352358" stroke="lightgray" x1="144.1292281333183" y1="376.44164796162715" x2="61.20876338911644" y2="426.1796604378492"></line><line stroke-width="2.0214512177706827" stroke="lightgray" x1="144.1292281333183" y1="376.44164796162715" x2="23.949377431437757" y2="379.99743537613085"></line><line stroke-width="2.0214512177706827" stroke="lightgray" x1="144.1292281333183" y1="376.44164796162715" x2="15.056065049732881" y2="393.7506583187523"></line><line stroke-width="1.429381863923454" stroke="lightgray" x1="144.1292281333183" y1="376.44164796162715" x2="249.67275720600162" y2="348.55553646024805"></line><line stroke-width="7.829046901596556" stroke="lightgray" x1="791.5571360340791" y1="41.81945753043342" x2="873.0089341956577" y2="-4.3148038962662785"></line><line stroke-width="7.829046901596556" stroke="lightgray" x1="791.5571360340791" y1="41.81945753043342" x2="879.7603993494673" y2="12.562564629449325"></line><line stroke-width="1.429381863923454" stroke="lightgray" x1="791.5571360340791" y1="41.81945753043342" x2="765.428174600784" y2="21.324535204789164"></line><line stroke-width="1.429381863923454" stroke="lightgray" x1="791.5571360340791" y1="41.81945753043342" x2="784.0023903692008" y2="7.912770304358791"></line><line stroke-width="2.0214512177706827" stroke="lightgray" x1="791.5571360340791" y1="41.81945753043342" x2="804.968469925626" y2="10.891719248373349"></line><line stroke-width="2.0214512177706827" stroke="lightgray" x1="791.5571360340791" y1="41.81945753043342" x2="788.4978046056133" y2="74.32262341886099"></line><line stroke-width="2.4757620117329253" stroke="lightgray" x1="791.5571360340791" y1="41.81945753043342" x2="838.6689694654264" y2="-9.248896871398456"></line><line stroke-width="2.4757620117329253" stroke="lightgray" x1="791.5571360340791" y1="41.81945753043342" x2="846.4944588222469" y2="13.375754066801296"></line><line stroke-width="1.429381863923454" stroke="lightgray" x1="30.31708939089231" y1="287.9598617348457" x2="-52.80059940601627" y2="329.66323308324183"></line><line stroke-width="1.429381863923454" stroke="lightgray" x1="30.31708939089231" y1="287.9598617348457" x2="-44.82780908932389" y2="337.31603210713695"></line><line stroke-width="6.392390027076395" stroke="lightgray" x1="30.31708939089231" y1="287.9598617348457" x2="-87.90310178070722" y2="291.5155829054747"></line><line stroke-width="6.392390027076395" stroke="lightgray" x1="30.31708939089231" y1="287.9598617348457" x2="-82.20614205268824" y2="307.9648110291065"></line><line stroke-width="1.429381863923454" stroke="lightgray" x1="30.31708939089231" y1="287.9598617348457" x2="-36.99535849674496" y2="313.4377596913304"></line><line stroke-width="1.429381863923454" stroke="lightgray" x1="30.31708939089231" y1="287.9598617348457" x2="-42.22459302864637" y2="303.54499591941"></line><line stroke-width="3.1961950135381976" stroke="lightgray" x1="30.31708939089231" y1="287.9598617348457" x2="7.821198839112591" y2="249.86078311863906"></line><line stroke-width="3.1961950135381976" stroke="lightgray" x1="30.31708939089231" y1="287.9598617348457" x2="38.547485262997796" y2="243.59468564825178"></line><line stroke-width="4.042902435541365" stroke="lightgray" x1="30.31708939089231" y1="287.9598617348457" x2="23.528588438058513" y2="241.79937290216483"></line><line stroke-width="4.042902435541365" stroke="lightgray" x1="30.31708939089231" y1="287.9598617348457" x2="53.56656379594322" y2="253.25378972446813"></line><line stroke-width="2.4757620117329253" stroke="lightgray" x1="825.7290427049561" y1="51.841055771110135" x2="873.0089341956577" y2="-4.3148038962662785"></line><line stroke-width="2.4757620117329253" stroke="lightgray" x1="825.7290427049561" y1="51.841055771110135" x2="879.7603993494673" y2="12.562564629449325"></line><line stroke-width="1.429381863923454" stroke="lightgray" x1="825.7290427049561" y1="51.841055771110135" x2="883.4413357734375" y2="36.67066684140172"></line><line stroke-width="1.429381863923454" stroke="lightgray" x1="825.7290427049561" y1="51.841055771110135" x2="887.5704718620025" y2="48.27401855006771"></line><line stroke-width="2.0214512177706827" stroke="lightgray" x1="825.7290427049561" y1="51.841055771110135" x2="838.6689694654264" y2="-9.248896871398456"></line><line stroke-width="2.0214512177706827" stroke="lightgray" x1="825.7290427049561" y1="51.841055771110135" x2="846.4944588222469" y2="13.375754066801296"></line><line stroke-width="2.0214512177706827" stroke="lightgray" x1="3.435402801082781" y1="334.25807783931657" x2="-87.90310178070722" y2="291.5155829054747"></line><line stroke-width="2.0214512177706827" stroke="lightgray" x1="3.435402801082781" y1="334.25807783931657" x2="-82.20614205268824" y2="307.9648110291065"></line><line stroke-width="3.501256214200801" stroke="lightgray" x1="3.435402801082781" y1="334.25807783931657" x2="23.949377431437757" y2="379.99743537613085"></line><line stroke-width="3.501256214200801" stroke="lightgray" x1="3.435402801082781" y1="334.25807783931657" x2="15.056065049732881" y2="393.7506583187523"></line><line stroke-width="16.546291328584196" stroke="lightgray" x1="873.0089341956577" y1="-4.3148038962662785" x2="879.7603993494673" y2="12.562564629449325"></line><line stroke-width="5.717527455693816" stroke="lightgray" x1="873.0089341956577" y1="-4.3148038962662785" x2="873.3698812241272" y2="-33.029893855489725"></line><line stroke-width="3.501256214200801" stroke="lightgray" x1="873.0089341956577" y1="-4.3148038962662785" x2="907.8737239614545" y2="-17.27275073621052"></line><line stroke-width="2.4757620117329253" stroke="lightgray" x1="873.0089341956577" y1="-4.3148038962662785" x2="930.9665415233411" y2="15.202587300228744"></line><line stroke-width="2.0214512177706827" stroke="lightgray" x1="873.0089341956577" y1="-4.3148038962662785" x2="838.6689694654264" y2="-9.248896871398456"></line><line stroke-width="2.0214512177706827" stroke="lightgray" x1="873.0089341956577" y1="-4.3148038962662785" x2="846.4944588222469" y2="13.375754066801296"></line><line stroke-width="1.429381863923454" stroke="lightgray" x1="45.164166533683115" y1="424.4457702294853" x2="75.54906159549272" y2="389.385180338704"></line><line stroke-width="1.429381863923454" stroke="lightgray" x1="45.164166533683115" y1="424.4457702294853" x2="85.7712969702549" y2="407.5735692133306"></line><line stroke-width="14.005024856803203" stroke="lightgray" x1="45.164166533683115" y1="424.4457702294853" x2="61.20876338911644" y2="426.1796604378492"></line><line stroke-width="2.0214512177706827" stroke="lightgray" x1="45.164166533683115" y1="424.4457702294853" x2="59.182355374044654" y2="464.6286801918722"></line><line stroke-width="2.0214512177706827" stroke="lightgray" x1="45.164166533683115" y1="424.4457702294853" x2="45.443955858554524" y2="464.2685040936189"></line><line stroke-width="2.4757620117329253" stroke="lightgray" x1="45.164166533683115" y1="424.4457702294853" x2="73.08415190552626" y2="458.91077288321435"></line><line stroke-width="2.0214512177706827" stroke="lightgray" x1="45.164166533683115" y1="424.4457702294853" x2="32.18349382349613" y2="458.0583120173111"></line><line stroke-width="3.1961950135381976" stroke="lightgray" x1="45.164166533683115" y1="424.4457702294853" x2="23.949377431437757" y2="379.99743537613085"></line><line stroke-width="3.1961950135381976" stroke="lightgray" x1="45.164166533683115" y1="424.4457702294853" x2="15.056065049732881" y2="393.7506583187523"></line><line stroke-width="2.0214512177706827" stroke="lightgray" x1="45.164166533683115" y1="424.4457702294853" x2="-70.83162067284573" y2="391.0023271664087"></line><line stroke-width="7.14690931961727" stroke="lightgray" x1="-87.90310178070722" y1="291.5155829054747" x2="-157.78052195616038" y2="323.7138040717568"></line><line stroke-width="10.885847957277866" stroke="lightgray" x1="-87.90310178070722" y1="291.5155829054747" x2="-82.20614205268824" y2="307.9648110291065"></line><line stroke-width="7.5635778809748535" stroke="lightgray" x1="-87.90310178070722" y1="291.5155829054747" x2="-105.27519496111876" y2="345.637443502605"></line><line stroke-width="3.7817889404874268" stroke="lightgray" x1="-87.90310178070722" y1="291.5155829054747" x2="-178.2024530715346" y2="305.3024811388979"></line><line stroke-width="4.520102336134977" stroke="lightgray" x1="-87.90310178070722" y1="291.5155829054747" x2="-118.48358096122875" y2="330.18837086208526"></line><line stroke-width="1.429381863923454" stroke="lightgray" x1="75.54906159549272" y1="389.385180338704" x2="61.20876338911644" y2="426.1796604378492"></line><line stroke-width="9.903048046931701" stroke="lightgray" x1="75.54906159549272" y1="389.385180338704" x2="85.7712969702549" y2="407.5735692133306"></line><line stroke-width="1.429381863923454" stroke="lightgray" x1="75.54906159549272" y1="389.385180338704" x2="23.949377431437757" y2="379.99743537613085"></line><line stroke-width="1.429381863923454" stroke="lightgray" x1="75.54906159549272" y1="389.385180338704" x2="15.056065049732881" y2="393.7506583187523"></line><line stroke-width="2.858763727846908" stroke="lightgray" x1="23.949377431437757" y1="379.99743537613085" x2="-105.27519496111876" y2="345.637443502605"></line><line stroke-width="3.1961950135381976" stroke="lightgray" x1="23.949377431437757" y1="379.99743537613085" x2="61.20876338911644" y2="426.1796604378492"></line><line stroke-width="7.288446016521318" stroke="lightgray" x1="23.949377431437757" y1="379.99743537613085" x2="15.056065049732881" y2="393.7506583187523"></line><line stroke-width="1.429381863923454" stroke="lightgray" x1="23.949377431437757" y1="379.99743537613085" x2="85.7712969702549" y2="407.5735692133306"></line><line stroke-width="4.740723324772937" stroke="lightgray" x1="23.949377431437757" y1="379.99743537613085" x2="-70.83162067284573" y2="391.0023271664087"></line><line stroke-width="1.429381863923454" stroke="lightgray" x1="23.949377431437757" y1="379.99743537613085" x2="-59.41901169055281" y2="378.8527558092"></line><line stroke-width="4.042902435541365" stroke="lightgray" x1="838.6689694654264" y1="-9.248896871398456" x2="873.3698812241272" y2="-33.029893855489725"></line><line stroke-width="3.501256214200801" stroke="lightgray" x1="838.6689694654264" y1="-9.248896871398456" x2="846.4944588222469" y2="13.375754066801296"></line><line stroke-width="2.0214512177706827" stroke="lightgray" x1="838.6689694654264" y1="-9.248896871398456" x2="879.7603993494673" y2="12.562564629449325"></line><line stroke-width="2.0214512177706827" stroke="lightgray" x1="7.821198839112591" y1="249.86078311863906" x2="38.547485262997796" y2="243.59468564825178"></line><line stroke-width="2.0214512177706827" stroke="lightgray" x1="23.528588438058513" y1="241.79937290216483" x2="53.56656379594322" y2="253.25378972446813"></line><line stroke-width="2.4757620117329253" stroke="lightgray" x1="-52.80059940601627" y1="329.66323308324183" x2="-118.48358096122875" y2="330.18837086208526"></line><line stroke-width="1.429381863923454" stroke="lightgray" x1="-52.80059940601627" y1="329.66323308324183" x2="-70.83162067284573" y2="391.0023271664087"></line><line stroke-width="1.429381863923454" stroke="lightgray" x1="-36.99535849674496" y1="313.4377596913304" x2="-105.27519496111876" y2="345.637443502605"></line><line stroke-width="4.042902435541365" stroke="lightgray" x1="883.4413357734375" y1="36.67066684140172" x2="930.9665415233411" y2="15.202587300228744"></line><line stroke-width="5.717527455693816" stroke="lightgray" x1="879.7603993494673" y1="12.562564629449325" x2="873.3698812241272" y2="-33.029893855489725"></line><line stroke-width="3.501256214200801" stroke="lightgray" x1="879.7603993494673" y1="12.562564629449325" x2="907.8737239614545" y2="-17.27275073621052"></line><line stroke-width="2.4757620117329253" stroke="lightgray" x1="879.7603993494673" y1="12.562564629449325" x2="930.9665415233411" y2="15.202587300228744"></line><line stroke-width="2.0214512177706827" stroke="lightgray" x1="879.7603993494673" y1="12.562564629449325" x2="846.4944588222469" y2="13.375754066801296"></line><line stroke-width="1.429381863923454" stroke="lightgray" x1="61.20876338911644" y1="426.1796604378492" x2="85.7712969702549" y2="407.5735692133306"></line><line stroke-width="2.0214512177706827" stroke="lightgray" x1="61.20876338911644" y1="426.1796604378492" x2="59.182355374044654" y2="464.6286801918722"></line><line stroke-width="2.0214512177706827" stroke="lightgray" x1="61.20876338911644" y1="426.1796604378492" x2="45.443955858554524" y2="464.2685040936189"></line><line stroke-width="2.4757620117329253" stroke="lightgray" x1="61.20876338911644" y1="426.1796604378492" x2="73.08415190552626" y2="458.91077288321435"></line><line stroke-width="2.0214512177706827" stroke="lightgray" x1="61.20876338911644" y1="426.1796604378492" x2="32.18349382349613" y2="458.0583120173111"></line><line stroke-width="3.1961950135381976" stroke="lightgray" x1="61.20876338911644" y1="426.1796604378492" x2="15.056065049732881" y2="393.7506583187523"></line><line stroke-width="2.0214512177706827" stroke="lightgray" x1="61.20876338911644" y1="426.1796604378492" x2="-70.83162067284573" y2="391.0023271664087"></line><line stroke-width="7.14690931961727" stroke="lightgray" x1="-82.20614205268824" y1="307.9648110291065" x2="-157.78052195616038" y2="323.7138040717568"></line><line stroke-width="7.5635778809748535" stroke="lightgray" x1="-82.20614205268824" y1="307.9648110291065" x2="-105.27519496111876" y2="345.637443502605"></line><line stroke-width="3.7817889404874268" stroke="lightgray" x1="-82.20614205268824" y1="307.9648110291065" x2="-178.2024530715346" y2="305.3024811388979"></line><line stroke-width="4.520102336134977" stroke="lightgray" x1="-82.20614205268824" y1="307.9648110291065" x2="-118.48358096122875" y2="330.18837086208526"></line><line stroke-width="1.429381863923454" stroke="lightgray" x1="85.7712969702549" y1="407.5735692133306" x2="15.056065049732881" y2="393.7506583187523"></line><line stroke-width="2.858763727846908" stroke="lightgray" x1="15.056065049732881" y1="393.7506583187523" x2="-105.27519496111876" y2="345.637443502605"></line><line stroke-width="4.740723324772937" stroke="lightgray" x1="15.056065049732881" y1="393.7506583187523" x2="-70.83162067284573" y2="391.0023271664087"></line><line stroke-width="1.429381863923454" stroke="lightgray" x1="15.056065049732881" y1="393.7506583187523" x2="-59.41901169055281" y2="378.8527558092"></line><line stroke-width="4.042902435541365" stroke="lightgray" x1="846.4944588222469" y1="13.375754066801296" x2="873.3698812241272" y2="-33.029893855489725"></line><line stroke-width="2.4757620117329253" stroke="lightgray" x1="-44.82780908932389" y1="337.31603210713695" x2="-118.48358096122875" y2="330.18837086208526"></line><line stroke-width="1.429381863923454" stroke="lightgray" x1="-44.82780908932389" y1="337.31603210713695" x2="-70.83162067284573" y2="391.0023271664087"></line><line stroke-width="1.429381863923454" stroke="lightgray" x1="-42.22459302864637" y1="303.54499591941" x2="-105.27519496111876" y2="345.637443502605"></line><line stroke-width="4.042902435541365" stroke="lightgray" x1="887.5704718620025" y1="48.27401855006771" x2="930.9665415233411" y2="15.202587300228744"></line><line stroke-width="6.064353653312047" stroke="lightgray" x1="-105.27519496111876" y1="345.637443502605" x2="-153.89967420983768" y2="378.638799970086"></line><line stroke-width="6.064353653312047" stroke="lightgray" x1="-105.27519496111876" y1="345.637443502605" x2="-181.5640177588046" y2="350.16518608678507"></line><line stroke-width="1.429381863923454" stroke="lightgray" x1="-105.27519496111876" y1="345.637443502605" x2="-118.48358096122875" y2="330.18837086208526"></line><line stroke-width="2.4757620117329253" stroke="lightgray" x1="-105.27519496111876" y1="345.637443502605" x2="-165.6614745603048" y2="369.06988130383206"></line><line stroke-width="3.501256214200801" stroke="lightgray" x1="-105.27519496111876" y1="345.637443502605" x2="-70.83162067284573" y2="391.0023271664087"></line><line stroke-width="2.4757620117329253" stroke="lightgray" x1="-105.27519496111876" y1="345.637443502605" x2="-157.78052195616038" y2="323.7138040717568"></line><line stroke-width="1.429381863923454" stroke="lightgray" x1="-105.27519496111876" y1="345.637443502605" x2="-178.2024530715346" y2="305.3024811388979"></line><line stroke-width="1.429381863923454" stroke="lightgray" x1="-105.27519496111876" y1="345.637443502605" x2="-206.3021651946208" y2="349.4708581597705"></line><line stroke-width="4.520102336134977" stroke="lightgray" x1="-157.78052195616038" y1="323.7138040717568" x2="-237.47286512581906" y2="337.38097023299804"></line><line stroke-width="4.042902435541365" stroke="lightgray" x1="-157.78052195616038" y1="323.7138040717568" x2="-206.3021651946208" y2="349.4708581597705"></line><line stroke-width="3.501256214200801" stroke="lightgray" x1="-157.78052195616038" y1="323.7138040717568" x2="-181.5640177588046" y2="350.16518608678507"></line><line stroke-width="1.429381863923454" stroke="lightgray" x1="-157.78052195616038" y1="323.7138040717568" x2="-153.89967420983768" y2="378.638799970086"></line><line stroke-width="1.429381863923454" stroke="lightgray" x1="-118.48358096122875" y1="330.18837086208526" x2="-109.260560253686" y2="375.07620287603027"></line><line stroke-width="2.858763727846908" stroke="lightgray" x1="-118.48358096122875" y1="330.18837086208526" x2="-165.6614745603048" y2="369.06988130383206"></line><line stroke-width="2.0214512177706827" stroke="lightgray" x1="-118.48358096122875" y1="330.18837086208526" x2="-181.5640177588046" y2="350.16518608678507"></line><line stroke-width="8.08580487108273" stroke="lightgray" x1="930.9665415233411" y1="15.202587300228744" x2="1005.5674210356874" y2="-7.167667585627152"></line><line stroke-width="3.1961950135381976" stroke="lightgray" x1="-70.83162067284573" y1="391.0023271664087" x2="-165.6614745603048" y2="369.06988130383206"></line><line stroke-width="2.0214512177706827" stroke="lightgray" x1="-70.83162067284573" y1="391.0023271664087" x2="-109.260560253686" y2="375.07620287603027"></line><line stroke-width="2.0214512177706827" stroke="lightgray" x1="-70.83162067284573" y1="391.0023271664087" x2="-181.5640177588046" y2="350.16518608678507"></line><line stroke-width="2.0214512177706827" stroke="lightgray" x1="-70.83162067284573" y1="391.0023271664087" x2="-153.89967420983768" y2="378.638799970086"></line><line stroke-width="7.14690931961727" stroke="lightgray" x1="-178.2024530715346" y1="305.3024811388979" x2="-246.54959726072116" y2="302.10646672299634"></line><line stroke-width="1.429381863923454" stroke="lightgray" x1="-178.2024530715346" y1="305.3024811388979" x2="-242.22892301388248" y2="318.72241985560515"></line><line stroke-width="1.429381863923454" stroke="lightgray" x1="-178.2024530715346" y1="305.3024811388979" x2="-237.47286512581906" y2="337.38097023299804"></line><line stroke-width="1.429381863923454" stroke="lightgray" x1="-178.2024530715346" y1="305.3024811388979" x2="-181.5640177588046" y2="350.16518608678507"></line><line stroke-width="2.4757620117329253" stroke="lightgray" x1="-59.41901169055281" y1="378.8527558092" x2="-181.5640177588046" y2="350.16518608678507"></line><line stroke-width="2.4757620117329253" stroke="lightgray" x1="1005.5674210356874" y1="-7.167667585627152" x2="1056.4036178079468" y2="-28.098412505995196"></line><line stroke-width="2.0214512177706827" stroke="lightgray" x1="1005.5674210356874" y1="-7.167667585627152" x2="1041.172791323651" y2="-5.2454562375330624"></line><line stroke-width="1.429381863923454" stroke="lightgray" x1="-181.5640177588046" y1="350.16518608678507" x2="-246.54959726072116" y2="302.10646672299634"></line><line stroke-width="3.501256214200801" stroke="lightgray" x1="-181.5640177588046" y1="350.16518608678507" x2="-220.41527959415353" y2="378.0119184964432"></line><line stroke-width="1.429381863923454" stroke="lightgray" x1="-181.5640177588046" y1="350.16518608678507" x2="-237.47286512581906" y2="337.38097023299804"></line><line stroke-width="1.429381863923454" stroke="lightgray" x1="-181.5640177588046" y1="350.16518608678507" x2="-267.412155480664" y2="359.3202788419157"></line><line stroke-width="1.429381863923454" stroke="lightgray" x1="-181.5640177588046" y1="350.16518608678507" x2="-275.27024381936235" y2="333.40345867828404"></line><line stroke-width="2.0214512177706827" stroke="lightgray" x1="-181.5640177588046" y1="350.16518608678507" x2="-153.89967420983768" y2="378.638799970086"></line><line stroke-width="4.740723324772937" stroke="lightgray" x1="-237.47286512581906" y1="337.38097023299804" x2="-267.412155480664" y2="359.3202788419157"></line><line stroke-width="6.855074601855592" stroke="lightgray" x1="-237.47286512581906" y1="337.38097023299804" x2="-275.27024381936235" y2="333.40345867828404"></line><line stroke-width="2.858763727846908" stroke="lightgray" x1="-237.47286512581906" y1="337.38097023299804" x2="-220.41527959415353" y2="378.0119184964432"></line><line stroke-width="1.429381863923454" stroke="lightgray" x1="-237.47286512581906" y1="337.38097023299804" x2="-206.3021651946208" y2="349.4708581597705"></line><line stroke-width="2.0214512177706827" stroke="lightgray" x1="-237.47286512581906" y1="337.38097023299804" x2="-293.1575966607693" y2="324.40679327411954"></line><line stroke-width="1.429381863923454" stroke="lightgray" x1="-153.89967420983768" y1="378.638799970086" x2="-220.41527959415353" y2="378.0119184964432"></line><line stroke-width="1.429381863923454" stroke="lightgray" x1="-153.89967420983768" y1="378.638799970086" x2="-206.3021651946208" y2="349.4708581597705"></line><line stroke-width="2.0214512177706827" stroke="lightgray" x1="-246.54959726072116" y1="302.10646672299634" x2="-287.66054810962515" y2="257.6083287216385"></line><line stroke-width="2.4757620117329253" stroke="lightgray" x1="-246.54959726072116" y1="302.10646672299634" x2="-267.412155480664" y2="359.3202788419157"></line><line stroke-width="1.429381863923454" stroke="lightgray" x1="-246.54959726072116" y1="302.10646672299634" x2="-275.27024381936235" y2="333.40345867828404"></line><line stroke-width="3.501256214200801" stroke="lightgray" x1="-206.3021651946208" y1="349.4708581597705" x2="-267.412155480664" y2="359.3202788419157"></line><line stroke-width="2.858763727846908" stroke="lightgray" x1="-206.3021651946208" y1="349.4708581597705" x2="-275.27024381936235" y2="333.40345867828404"></line><line stroke-width="2.4757620117329253" stroke="lightgray" x1="-165.6614745603048" y1="369.06988130383206" x2="-220.41527959415353" y2="378.0119184964432"></line><line stroke-width="1.429381863923454" stroke="lightgray" x1="-165.6614745603048" y1="369.06988130383206" x2="-267.412155480664" y2="359.3202788419157"></line><line stroke-width="2.0214512177706827" stroke="lightgray" x1="-242.22892301388248" y1="318.72241985560515" x2="-267.412155480664" y2="359.3202788419157"></line><line stroke-width="1.429381863923454" stroke="lightgray" x1="-242.22892301388248" y1="318.72241985560515" x2="-275.27024381936235" y2="333.40345867828404"></line><line stroke-width="4.520102336134977" stroke="lightgray" x1="-267.412155480664" y1="359.3202788419157" x2="-316.8462959817466" y2="353.47413757235347"></line><line stroke-width="3.1961950135381976" stroke="lightgray" x1="-267.412155480664" y1="359.3202788419157" x2="-330.3590644185016" y2="333.1116177611631"></line><line stroke-width="4.520102336134977" stroke="lightgray" x1="-267.412155480664" y1="359.3202788419157" x2="-330.1678415486028" y2="372.77313702166754"></line><line stroke-width="4.042902435541365" stroke="lightgray" x1="-267.412155480664" y1="359.3202788419157" x2="-275.27024381936235" y2="333.40345867828404"></line><line stroke-width="2.0214512177706827" stroke="lightgray" x1="-267.412155480664" y1="359.3202788419157" x2="-220.41527959415353" y2="378.0119184964432"></line><line stroke-width="2.4757620117329253" stroke="lightgray" x1="-275.27024381936235" y1="333.40345867828404" x2="-330.3590644185016" y2="333.1116177611631"></line><line stroke-width="2.0214512177706827" stroke="lightgray" x1="-275.27024381936235" y1="333.40345867828404" x2="-316.8462959817466" y2="353.47413757235347"></line><line stroke-width="3.501256214200801" stroke="lightgray" x1="-293.1575966607693" y1="324.40679327411954" x2="-330.3590644185016" y2="333.1116177611631"></line><line stroke-width="2.4757620117329253" stroke="lightgray" x1="-287.66054810962515" y1="257.6083287216385" x2="-316.4991647651125" y2="227.93247141608467"></line><line stroke-width="1.429381863923454" stroke="lightgray" x1="1056.4036178079468" y1="-28.098412505995196" x2="1092.5844580697017" y2="-39.38328029909381"></line><line stroke-width="2.0214512177706827" stroke="lightgray" x1="-316.8462959817466" y1="353.47413757235347" x2="-330.3590644185016" y2="333.1116177611631"></line><line stroke-width="2.4757620117329253" stroke="lightgray" x1="-316.8462959817466" y1="353.47413757235347" x2="-330.1678415486028" y2="372.77313702166754"></line><line stroke-width="1.429381863923454" stroke="lightgray" x1="-330.1678415486028" y1="372.77313702166754" x2="-330.3590644185016" y2="333.1116177611631"></line></g><g class="nodes"><circle r="7.5635778809748535" fill="rgb(247, 252, 253)" stroke="black" stroke-width="1px" transform="translate(416.0090595925109,220.36859931827004)"></circle><circle r="6.392390027076395" fill="rgb(247, 252, 253)" stroke="black" stroke-width="1px" transform="translate(364.6270645587848,214.25286939961282)"></circle><circle r="4.042902435541365" fill="rgb(247, 252, 253)" stroke="black" stroke-width="1px" transform="translate(423.1002350680271,234.4376893662435)"></circle><circle r="2.858763727846908" fill="rgb(247, 252, 253)" stroke="black" stroke-width="1px" transform="translate(384.02773149343403,206.93944641991)"></circle><circle r="11.435054911387631" fill="rgb(228, 245, 247)" stroke="black" stroke-width="1px" transform="translate(457.9834713416379,213.6463450126508)"></circle><circle r="10.307419205188607" fill="rgb(228, 245, 247)" stroke="black" stroke-width="1px" transform="translate(384.0880823876634,259.55005978603424)"></circle><circle r="10.307419205188607" fill="rgb(228, 245, 247)" stroke="black" stroke-width="1px" transform="translate(364.37218190028415,265.98154097097176)"></circle><circle r="9.481446649545873" fill="rgb(228, 245, 247)" stroke="black" stroke-width="1px" transform="translate(349.7107293712136,252.75491399240565)"></circle><circle r="5.717527455693816" fill="rgb(228, 245, 247)" stroke="black" stroke-width="1px" transform="translate(460.8669890000075,179.82327996562228)"></circle><circle r="5.717527455693816" fill="rgb(228, 245, 247)" stroke="black" stroke-width="1px" transform="translate(410.4885379325304,271.315904914772)"></circle><circle r="4.951524023465851" fill="rgb(228, 245, 247)" stroke="black" stroke-width="1px" transform="translate(329.0164406460453,249.9194947683873)"></circle><circle r="2.858763727846908" fill="rgb(228, 245, 247)" stroke="black" stroke-width="1px" transform="translate(435.4926550717065,264.47562279476546)"></circle><circle r="2.858763727846908" fill="rgb(228, 245, 247)" stroke="black" stroke-width="1px" transform="translate(251.59694588818357,276.25497202901005)"></circle><circle r="2.858763727846908" fill="rgb(228, 245, 247)" stroke="black" stroke-width="1px" transform="translate(403.88074281813016,191.51447299686438)"></circle><circle r="2.858763727846908" fill="rgb(228, 245, 247)" stroke="black" stroke-width="1px" transform="translate(299.43074881816665,246.5671070243548)"></circle><circle r="2.858763727846908" fill="rgb(228, 245, 247)" stroke="black" stroke-width="1px" transform="translate(518.304231868811,252.73440285744678)"></circle><circle r="14.854572070397554" fill="rgb(200, 234, 228)" stroke="black" stroke-width="1px" transform="translate(281.5169573722455,302.14927123041616)"></circle><circle r="13.408790442704715" fill="rgb(200, 234, 228)" stroke="black" stroke-width="1px" transform="translate(378.36490450580965,302.3163203997066)"></circle><circle r="13.408790442704715" fill="rgb(200, 234, 228)" stroke="black" stroke-width="1px" transform="translate(482.13408781957395,239.75912035330168)"></circle><circle r="10.307419205188607" fill="rgb(200, 234, 228)" stroke="black" stroke-width="1px" transform="translate(401.7886007832832,297.0702183636404)"></circle><circle r="9.903048046931701" fill="rgb(200, 234, 228)" stroke="black" stroke-width="1px" transform="translate(606.9402988008699,147.86486203969045)"></circle><circle r="9.481446649545873" fill="rgb(200, 234, 228)" stroke="black" stroke-width="1px" transform="translate(345.6398910693177,314.93445422952135)"></circle><circle r="9.040204672269955" fill="rgb(200, 234, 228)" stroke="black" stroke-width="1px" transform="translate(244.8225345165252,259.1065803587922)"></circle><circle r="6.392390027076395" fill="rgb(200, 234, 228)" stroke="black" stroke-width="1px" transform="translate(230.4696524744128,324.83538692809935)"></circle><circle r="4.951524023465851" fill="rgb(200, 234, 228)" stroke="black" stroke-width="1px" transform="translate(134.38351788384324,328.0094161448327)"></circle><circle r="2.858763727846908" fill="rgb(200, 234, 228)" stroke="black" stroke-width="1px" transform="translate(396.076344150053,243.39231671439148)"></circle><circle r="11.071944308692908" fill="rgb(153, 216, 200)" stroke="black" stroke-width="1px" transform="translate(122.6475517667431,373.77075195349516)"></circle><circle r="11.071944308692908" fill="rgb(153, 216, 200)" stroke="black" stroke-width="1px" transform="translate(144.1292281333183,376.44164796162715)"></circle><circle r="9.481446649545873" fill="rgb(153, 216, 200)" stroke="black" stroke-width="1px" transform="translate(791.5571360340791,41.81945753043342)"></circle><circle r="8.08580487108273" fill="rgb(153, 216, 200)" stroke="black" stroke-width="1px" transform="translate(30.31708939089231,287.9598617348457)"></circle><circle r="6.392390027076395" fill="rgb(153, 216, 200)" stroke="black" stroke-width="1px" transform="translate(249.67275720600162,348.55553646024805)"></circle><circle r="5.717527455693816" fill="rgb(153, 216, 200)" stroke="black" stroke-width="1px" transform="translate(328.50891009117845,311.4902896923358)"></circle><circle r="4.951524023465851" fill="rgb(153, 216, 200)" stroke="black" stroke-width="1px" transform="translate(519.1817864836896,232.12429281705639)"></circle><circle r="4.951524023465851" fill="rgb(153, 216, 200)" stroke="black" stroke-width="1px" transform="translate(285.72951903554764,337.12392026713565)"></circle><circle r="2.858763727846908" fill="rgb(153, 216, 200)" stroke="black" stroke-width="1px" transform="translate(273.67956556191893,267.07902485585305)"></circle><circle r="2.858763727846908" fill="rgb(153, 216, 200)" stroke="black" stroke-width="1px" transform="translate(825.7290427049561,51.841055771110135)"></circle><circle r="2.858763727846908" fill="rgb(153, 216, 200)" stroke="black" stroke-width="1px" transform="translate(3.435402801082781,334.25807783931657)"></circle><circle r="2.858763727846908" fill="rgb(153, 216, 200)" stroke="black" stroke-width="1px" transform="translate(400.33028142639546,335.0885416145489)"></circle><circle r="2.858763727846908" fill="rgb(153, 216, 200)" stroke="black" stroke-width="1px" transform="translate(358.1238573740242,351.6707938226687)"></circle><circle r="2.858763727846908" fill="rgb(153, 216, 200)" stroke="black" stroke-width="1px" transform="translate(433.81379977169365,321.00876247636296)"></circle><circle r="2.858763727846908" fill="rgb(153, 216, 200)" stroke="black" stroke-width="1px" transform="translate(550.8078394116094,193.54908477807666)"></circle><circle r="14.29381863923454" fill="rgb(104, 194, 163)" stroke="black" stroke-width="1px" transform="translate(873.0089341956577,-4.3148038962662785)"></circle><circle r="11.786984808597301" fill="rgb(104, 194, 163)" stroke="black" stroke-width="1px" transform="translate(45.164166533683115,424.4457702294853)"></circle><circle r="11.071944308692908" fill="rgb(104, 194, 163)" stroke="black" stroke-width="1px" transform="translate(-87.90310178070722,291.5155829054747)"></circle><circle r="9.481446649545873" fill="rgb(104, 194, 163)" stroke="black" stroke-width="1px" transform="translate(75.54906159549272,389.385180338704)"></circle><circle r="9.040204672269955" fill="rgb(104, 194, 163)" stroke="black" stroke-width="1px" transform="translate(23.949377431437757,379.99743537613085)"></circle><circle r="4.951524023465851" fill="rgb(104, 194, 163)" stroke="black" stroke-width="1px" transform="translate(838.6689694654264,-9.248896871398456)"></circle><circle r="4.042902435541365" fill="rgb(104, 194, 163)" stroke="black" stroke-width="1px" transform="translate(7.821198839112591,249.86078311863906)"></circle><circle r="4.042902435541365" fill="rgb(104, 194, 163)" stroke="black" stroke-width="1px" transform="translate(23.528588438058513,241.79937290216483)"></circle><circle r="2.858763727846908" fill="rgb(104, 194, 163)" stroke="black" stroke-width="1px" transform="translate(-52.80059940601627,329.66323308324183)"></circle><circle r="2.858763727846908" fill="rgb(104, 194, 163)" stroke="black" stroke-width="1px" transform="translate(-36.99535849674496,313.4377596913304)"></circle><circle r="2.858763727846908" fill="rgb(104, 194, 163)" stroke="black" stroke-width="1px" transform="translate(765.428174600784,21.324535204789164)"></circle><circle r="2.858763727846908" fill="rgb(104, 194, 163)" stroke="black" stroke-width="1px" transform="translate(804.968469925626,10.891719248373349)"></circle><circle r="2.858763727846908" fill="rgb(104, 194, 163)" stroke="black" stroke-width="1px" transform="translate(883.4413357734375,36.67066684140172)"></circle><circle r="14.29381863923454" fill="rgb(104, 194, 163)" stroke="black" stroke-width="1px" transform="translate(879.7603993494673,12.562564629449325)"></circle><circle r="11.786984808597301" fill="rgb(104, 194, 163)" stroke="black" stroke-width="1px" transform="translate(61.20876338911644,426.1796604378492)"></circle><circle r="11.071944308692908" fill="rgb(104, 194, 163)" stroke="black" stroke-width="1px" transform="translate(-82.20614205268824,307.9648110291065)"></circle><circle r="9.481446649545873" fill="rgb(104, 194, 163)" stroke="black" stroke-width="1px" transform="translate(85.7712969702549,407.5735692133306)"></circle><circle r="9.040204672269955" fill="rgb(104, 194, 163)" stroke="black" stroke-width="1px" transform="translate(15.056065049732881,393.7506583187523)"></circle><circle r="4.951524023465851" fill="rgb(104, 194, 163)" stroke="black" stroke-width="1px" transform="translate(846.4944588222469,13.375754066801296)"></circle><circle r="4.042902435541365" fill="rgb(104, 194, 163)" stroke="black" stroke-width="1px" transform="translate(38.547485262997796,243.59468564825178)"></circle><circle r="4.042902435541365" fill="rgb(104, 194, 163)" stroke="black" stroke-width="1px" transform="translate(53.56656379594322,253.25378972446813)"></circle><circle r="2.858763727846908" fill="rgb(104, 194, 163)" stroke="black" stroke-width="1px" transform="translate(-44.82780908932389,337.31603210713695)"></circle><circle r="2.858763727846908" fill="rgb(104, 194, 163)" stroke="black" stroke-width="1px" transform="translate(-42.22459302864637,303.54499591941)"></circle><circle r="2.858763727846908" fill="rgb(104, 194, 163)" stroke="black" stroke-width="1px" transform="translate(784.0023903692008,7.912770304358791)"></circle><circle r="2.858763727846908" fill="rgb(104, 194, 163)" stroke="black" stroke-width="1px" transform="translate(788.4978046056133,74.32262341886099)"></circle><circle r="2.858763727846908" fill="rgb(104, 194, 163)" stroke="black" stroke-width="1px" transform="translate(887.5704718620025,48.27401855006771)"></circle><circle r="11.435054911387631" fill="rgb(66, 172, 118)" stroke="black" stroke-width="1px" transform="translate(-105.27519496111876,345.637443502605)"></circle><circle r="10.307419205188607" fill="rgb(66, 172, 118)" stroke="black" stroke-width="1px" transform="translate(-157.78052195616038,323.7138040717568)"></circle><circle r="9.040204672269955" fill="rgb(66, 172, 118)" stroke="black" stroke-width="1px" transform="translate(-118.48358096122875,330.18837086208526)"></circle><circle r="8.576291183540723" fill="rgb(66, 172, 118)" stroke="black" stroke-width="1px" transform="translate(930.9665415233411,15.202587300228744)"></circle><circle r="8.08580487108273" fill="rgb(66, 172, 118)" stroke="black" stroke-width="1px" transform="translate(-70.83162067284573,391.0023271664087)"></circle><circle r="7.5635778809748535" fill="rgb(66, 172, 118)" stroke="black" stroke-width="1px" transform="translate(-178.2024530715346,305.3024811388979)"></circle><circle r="7.002512428401602" fill="rgb(66, 172, 118)" stroke="black" stroke-width="1px" transform="translate(873.3698812241272,-33.029893855489725)"></circle><circle r="2.858763727846908" fill="rgb(66, 172, 118)" stroke="black" stroke-width="1px" transform="translate(-59.41901169055281,378.8527558092)"></circle><circle r="2.858763727846908" fill="rgb(66, 172, 118)" stroke="black" stroke-width="1px" transform="translate(73.08415190552626,458.91077288321435)"></circle><circle r="2.858763727846908" fill="rgb(66, 172, 118)" stroke="black" stroke-width="1px" transform="translate(59.182355374044654,464.6286801918722)"></circle><circle r="2.858763727846908" fill="rgb(66, 172, 118)" stroke="black" stroke-width="1px" transform="translate(32.18349382349613,458.0583120173111)"></circle><circle r="2.858763727846908" fill="rgb(66, 172, 118)" stroke="black" stroke-width="1px" transform="translate(907.8737239614545,-17.27275073621052)"></circle><circle r="2.858763727846908" fill="rgb(66, 172, 118)" stroke="black" stroke-width="1px" transform="translate(45.443955858554524,464.2685040936189)"></circle><circle r="9.903048046931701" fill="rgb(34, 140, 73)" stroke="black" stroke-width="1px" transform="translate(1005.5674210356874,-7.167667585627152)"></circle><circle r="9.040204672269955" fill="rgb(34, 140, 73)" stroke="black" stroke-width="1px" transform="translate(-181.5640177588046,350.16518608678507)"></circle><circle r="8.576291183540723" fill="rgb(34, 140, 73)" stroke="black" stroke-width="1px" transform="translate(-237.47286512581906,337.38097023299804)"></circle><circle r="7.002512428401602" fill="rgb(34, 140, 73)" stroke="black" stroke-width="1px" transform="translate(-153.89967420983768,378.638799970086)"></circle><circle r="7.002512428401602" fill="rgb(34, 140, 73)" stroke="black" stroke-width="1px" transform="translate(-246.54959726072116,302.10646672299634)"></circle><circle r="6.392390027076395" fill="rgb(34, 140, 73)" stroke="black" stroke-width="1px" transform="translate(-206.3021651946208,349.4708581597705)"></circle><circle r="5.717527455693816" fill="rgb(34, 140, 73)" stroke="black" stroke-width="1px" transform="translate(-165.6614745603048,369.06988130383206)"></circle><circle r="4.042902435541365" fill="rgb(34, 140, 73)" stroke="black" stroke-width="1px" transform="translate(-109.260560253686,375.07620287603027)"></circle><circle r="2.858763727846908" fill="rgb(34, 140, 73)" stroke="black" stroke-width="1px" transform="translate(-242.22892301388248,318.72241985560515)"></circle><circle r="11.071944308692908" fill="rgb(6, 107, 45)" stroke="black" stroke-width="1px" transform="translate(-267.412155480664,359.3202788419157)"></circle><circle r="10.696514419339792" fill="rgb(6, 107, 45)" stroke="black" stroke-width="1px" transform="translate(-275.27024381936235,333.40345867828404)"></circle><circle r="5.717527455693816" fill="rgb(6, 107, 45)" stroke="black" stroke-width="1px" transform="translate(-220.41527959415353,378.0119184964432)"></circle><circle r="4.042902435541365" fill="rgb(6, 107, 45)" stroke="black" stroke-width="1px" transform="translate(1041.172791323651,-5.2454562375330624)"></circle><circle r="4.042902435541365" fill="rgb(6, 107, 45)" stroke="black" stroke-width="1px" transform="translate(-293.1575966607693,324.40679327411954)"></circle><circle r="2.858763727846908" fill="rgb(6, 107, 45)" stroke="black" stroke-width="1px" transform="translate(-287.66054810962515,257.6083287216385)"></circle><circle r="2.858763727846908" fill="rgb(6, 107, 45)" stroke="black" stroke-width="1px" transform="translate(1056.4036178079468,-28.098412505995196)"></circle><circle r="5.717527455693816" fill="rgb(0, 68, 27)" stroke="black" stroke-width="1px" transform="translate(-316.8462959817466,353.47413757235347)"></circle><circle r="4.951524023465851" fill="rgb(0, 68, 27)" stroke="black" stroke-width="1px" transform="translate(-330.1678415486028,372.77313702166754)"></circle><circle r="4.951524023465851" fill="rgb(0, 68, 27)" stroke="black" stroke-width="1px" transform="translate(-316.4991647651125,227.93247141608467)"></circle><circle r="4.951524023465851" fill="rgb(0, 68, 27)" stroke="black" stroke-width="1px" transform="translate(-330.3590644185016,333.1116177611631)"></circle><circle r="2.858763727846908" fill="rgb(0, 68, 27)" stroke="black" stroke-width="1px" transform="translate(1092.5844580697017,-39.38328029909381)"></circle></g></g><g><text x="505" y="495" font-family="sans-serif" text-anchor="end" font-size="10px" fill="red">101 nodes</text><text x="505" y="505" font-family="sans-serif" text-anchor="end" font-size="10px" fill="red">270 edges</text></g></svg>