<svg height="512" width="512" style="border-style: solid; border-width: 1px; cursor: auto;" id="figure"><g transform="translate(-34.93597805193588,-71.05781997310811) scale(1.2290283805376805)"><g class="links"><line stroke-width="2.667732750578642" stroke="lightgray" x1="143.54446226655384" y1="286.16617855828594" x2="202.96582776584333" y2="249.86822782008593"></line><line stroke-width="6.880042313542521" stroke="lightgray" x1="143.54446226655384" y1="286.16617855828594" x2="216.56821070907583" y2="272.41643796667955"></line><line stroke-width="2.474622484973499" stroke="lightgray" x1="143.54446226655384" y1="286.16617855828594" x2="155.28151228657376" y2="303.172158990312"></line><line stroke-width="0.5753380413210634" stroke="lightgray" x1="143.54446226655384" y1="286.16617855828594" x2="163.2172540932774" y2="318.1033102463533"></line><line stroke-width="1.4092846308489086" stroke="lightgray" x1="143.54446226655384" y1="286.16617855828594" x2="150.44175190474675" y2="262.15935644287003"></line><line stroke-width="2.1908219909366857" stroke="lightgray" x1="143.54446226655384" y1="286.16617855828594" x2="190.77387477951336" y2="288.4411408079499"></line><line stroke-width="1.7260141239631897" stroke="lightgray" x1="143.54446226655384" y1="286.16617855828594" x2="169.07319613820798" y2="280.38257497426343"></line><line stroke-width="2.0744108087081132" stroke="lightgray" x1="143.54446226655384" y1="286.16617855828594" x2="186.3017944309863" y2="317.7064710861238"></line><line stroke-width="0.40682543049270997" stroke="lightgray" x1="143.54446226655384" y1="286.16617855828594" x2="109.82104911022108" y2="319.7098309232324"></line><line stroke-width="3.569878664458999" stroke="lightgray" x1="202.96582776584333" y1="249.86822782008593" x2="301.80241998815757" y2="244.26423294480963"></line><line stroke-width="6.393763518555246" stroke="lightgray" x1="202.96582776584333" y1="249.86822782008593" x2="216.56821070907583" y2="272.41643796667955"></line><line stroke-width="1.2864949704354804" stroke="lightgray" x1="202.96582776584333" y1="249.86822782008593" x2="190.77387477951336" y2="288.4411408079499"></line><line stroke-width="1.6273017219708399" stroke="lightgray" x1="202.96582776584333" y1="249.86822782008593" x2="150.44175190474675" y2="262.15935644287003"></line><line stroke-width="1.677384221108819" stroke="lightgray" x1="202.96582776584333" y1="249.86822782008593" x2="280.93185592310596" y2="211.99496024777702"></line><line stroke-width="0.5753380413210634" stroke="lightgray" x1="202.96582776584333" y1="249.86822782008593" x2="237.10131455810665" y2="235.27758890855495"></line><line stroke-width="0.40682543049270997" stroke="lightgray" x1="202.96582776584333" y1="249.86822782008593" x2="169.07319613820798" y2="280.38257497426343"></line><line stroke-width="0.40682543049270997" stroke="lightgray" x1="202.96582776584333" y1="249.86822782008593" x2="155.28151228657376" y2="303.172158990312"></line><line stroke-width="4.400489849412531" stroke="lightgray" x1="150.44175190474675" y1="262.15935644287003" x2="109.82104911022108" y2="319.7098309232324"></line><line stroke-width="0.7046423154244543" stroke="lightgray" x1="150.44175190474675" y1="262.15935644287003" x2="216.56821070907583" y2="272.41643796667955"></line><line stroke-width="1.4092846308489086" stroke="lightgray" x1="150.44175190474675" y1="262.15935644287003" x2="190.77387477951336" y2="288.4411408079499"></line><line stroke-width="0.8136508609854199" stroke="lightgray" x1="150.44175190474675" y1="262.15935644287003" x2="169.07319613820798" y2="280.38257497426343"></line><line stroke-width="0.9096893175573152" stroke="lightgray" x1="150.44175190474675" y1="262.15935644287003" x2="155.28151228657376" y2="303.172158990312"></line><line stroke-width="1.864308329865839" stroke="lightgray" x1="190.77387477951336" y1="288.4411408079499" x2="216.56821070907583" y2="272.41643796667955"></line><line stroke-width="0.40682543049270997" stroke="lightgray" x1="190.77387477951336" y1="288.4411408079499" x2="169.07319613820798" y2="280.38257497426343"></line><line stroke-width="0.5753380413210634" stroke="lightgray" x1="190.77387477951336" y1="288.4411408079499" x2="155.28151228657376" y2="303.172158990312"></line><line stroke-width="2.8766902066053164" stroke="lightgray" x1="190.77387477951336" y1="288.4411408079499" x2="186.3017944309863" y2="317.7064710861238"></line><line stroke-width="0.40682543049270997" stroke="lightgray" x1="190.77387477951336" y1="288.4411408079499" x2="301.80241998815757" y2="244.26423294480963"></line><line stroke-width="0.40682543049270997" stroke="lightgray" x1="190.77387477951336" y1="288.4411408079499" x2="163.2172540932774" y2="318.1033102463533"></line><line stroke-width="0.40682543049270997" stroke="lightgray" x1="190.77387477951336" y1="288.4411408079499" x2="109.82104911022108" y2="319.7098309232324"></line><line stroke-width="5.048570823304268" stroke="lightgray" x1="169.07319613820798" y1="280.38257497426343" x2="155.28151228657376" y2="303.172158990312"></line><line stroke-width="0.40682543049270997" stroke="lightgray" x1="169.07319613820798" y1="280.38257497426343" x2="186.3017944309863" y2="317.7064710861238"></line><line stroke-width="2.3013521652842535" stroke="lightgray" x1="237.10131455810665" y1="235.27758890855495" x2="280.93185592310596" y2="211.99496024777702"></line><line stroke-width="0.40682543049270997" stroke="lightgray" x1="237.10131455810665" y1="235.27758890855495" x2="216.56821070907583" y2="272.41643796667955"></line><line stroke-width="1.9930294381904874" stroke="lightgray" x1="216.56821070907583" y1="272.41643796667955" x2="280.93185592310596" y2="211.99496024777702"></line><line stroke-width="1.4092846308489086" stroke="lightgray" x1="216.56821070907583" y1="272.41643796667955" x2="301.80241998815757" y2="244.26423294480963"></line><line stroke-width="0.9096893175573152" stroke="lightgray" x1="216.56821070907583" y1="272.41643796667955" x2="186.3017944309863" y2="317.7064710861238"></line><line stroke-width="0.7046423154244543" stroke="lightgray" x1="216.56821070907583" y1="272.41643796667955" x2="155.28151228657376" y2="303.172158990312"></line><line stroke-width="4.168720156599117" stroke="lightgray" x1="280.93185592310596" y1="211.99496024777702" x2="294.70608577480476" y2="164.14558193137282"></line><line stroke-width="0.7046423154244543" stroke="lightgray" x1="280.93185592310596" y1="211.99496024777702" x2="301.80241998815757" y2="244.26423294480963"></line><line stroke-width="0.9096893175573152" stroke="lightgray" x1="280.93185592310596" y1="211.99496024777702" x2="374.53624210171233" y2="207.40857203206113"></line><line stroke-width="4.8649245747563" stroke="lightgray" x1="280.93185592310596" y1="211.99496024777702" x2="309.24144151319075" y2="182.83238795311"></line><line stroke-width="1.4668299498041768" stroke="lightgray" x1="280.93185592310596" y1="211.99496024777702" x2="340.9079147926348" y2="209.74081297408497"></line><line stroke-width="2.4409525829562595" stroke="lightgray" x1="280.93185592310596" y1="211.99496024777702" x2="342.85032400939923" y2="177.13549348758707"></line><line stroke-width="0.40682543049270997" stroke="lightgray" x1="280.93185592310596" y1="211.99496024777702" x2="320.96175901710563" y2="210.25294410827075"></line><line stroke-width="5.810629389549645" stroke="lightgray" x1="109.82104911022108" y1="319.7098309232324" x2="93.87491032251846" y2="360.18423886066677"></line><line stroke-width="1.8193786351146304" stroke="lightgray" x1="109.82104911022108" y1="319.7098309232324" x2="62.59135283899202" y2="360.5925458240992"></line><line stroke-width="0.40682543049270997" stroke="lightgray" x1="109.82104911022108" y1="319.7098309232324" x2="73.72418626650894" y2="314.96344316987705"></line><line stroke-width="0.5753380413210634" stroke="lightgray" x1="109.82104911022108" y1="319.7098309232324" x2="78.52672615831986" y2="336.332012707652"></line><line stroke-width="0.40682543049270997" stroke="lightgray" x1="109.82104911022108" y1="319.7098309232324" x2="155.28151228657376" y2="303.172158990312"></line><line stroke-width="1.4668299498041768" stroke="lightgray" x1="301.80241998815757" y1="244.26423294480963" x2="342.85032400939923" y2="177.13549348758707"></line><line stroke-width="2.729067952671946" stroke="lightgray" x1="301.80241998815757" y1="244.26423294480963" x2="320.96175901710563" y2="210.25294410827075"></line><line stroke-width="3.772743836655197" stroke="lightgray" x1="301.80241998815757" y1="244.26423294480963" x2="374.53624210171233" y2="207.40857203206113"></line><line stroke-width="1.0763589161005038" stroke="lightgray" x1="301.80241998815757" y1="244.26423294480963" x2="296.83509194627425" y2="278.80634052468895"></line><line stroke-width="1.2864949704354804" stroke="lightgray" x1="301.80241998815757" y1="244.26423294480963" x2="318.9370294695958" y2="275.33598786952734"></line><line stroke-width="1.0763589161005038" stroke="lightgray" x1="301.80241998815757" y1="244.26423294480963" x2="376.00672752653765" y2="235.56107811539883"></line><line stroke-width="0.7046423154244543" stroke="lightgray" x1="301.80241998815757" y1="244.26423294480963" x2="340.9079147926348" y2="209.74081297408497"></line><line stroke-width="0.40682543049270997" stroke="lightgray" x1="301.80241998815757" y1="244.26423294480963" x2="399.8871509174774" y2="233.91160993494177"></line><line stroke-width="0.40682543049270997" stroke="lightgray" x1="155.28151228657376" y1="303.172158990312" x2="186.3017944309863" y2="317.7064710861238"></line><line stroke-width="0.8136508609854199" stroke="lightgray" x1="374.53624210171233" y1="207.40857203206113" x2="412.12252135825594" y2="182.1997556379367"></line><line stroke-width="1.2864949704354804" stroke="lightgray" x1="374.53624210171233" y1="207.40857203206113" x2="399.8871509174774" y2="233.91160993494177"></line><line stroke-width="2.2651081337902923" stroke="lightgray" x1="374.53624210171233" y1="207.40857203206113" x2="434.61919339722726" y2="217.05693570270074"></line><line stroke-width="1.3492873081191294" stroke="lightgray" x1="374.53624210171233" y1="207.40857203206113" x2="320.96175901710563" y2="210.25294410827075"></line><line stroke-width="1.2864949704354804" stroke="lightgray" x1="374.53624210171233" y1="207.40857203206113" x2="376.00672752653765" y2="235.56107811539883"></line><line stroke-width="4.247382189963377" stroke="lightgray" x1="374.53624210171233" y1="207.40857203206113" x2="396.22221177051466" y2="192.40916674973167"></line><line stroke-width="1.3492873081191294" stroke="lightgray" x1="374.53624210171233" y1="207.40857203206113" x2="342.85032400939923" y2="177.13549348758707"></line><line stroke-width="1.4092846308489086" stroke="lightgray" x1="374.53624210171233" y1="207.40857203206113" x2="340.9079147926348" y2="209.74081297408497"></line><line stroke-width="1.0763589161005038" stroke="lightgray" x1="374.53624210171233" y1="207.40857203206113" x2="435.1006104316462" y2="193.98181425358425"></line><line stroke-width="0.40682543049270997" stroke="lightgray" x1="374.53624210171233" y1="207.40857203206113" x2="416.3077918101283" y2="219.74364750163056"></line><line stroke-width="0.9096893175573152" stroke="lightgray" x1="93.87491032251846" y1="360.18423886066677" x2="62.59135283899202" y2="360.5925458240992"></line><line stroke-width="2.1527178322010077" stroke="lightgray" x1="342.85032400939923" y1="177.13549348758707" x2="396.22221177051466" y2="192.40916674973167"></line><line stroke-width="0.9096893175573152" stroke="lightgray" x1="342.85032400939923" y1="177.13549348758707" x2="349.39230286626355" y2="141.39223705727085"></line><line stroke-width="0.40682543049270997" stroke="lightgray" x1="342.85032400939923" y1="177.13549348758707" x2="412.12252135825594" y2="182.1997556379367"></line><line stroke-width="0.9965147190952437" stroke="lightgray" x1="342.85032400939923" y1="177.13549348758707" x2="340.9079147926348" y2="209.74081297408497"></line><line stroke-width="0.40682543049270997" stroke="lightgray" x1="342.85032400939923" y1="177.13549348758707" x2="294.70608577480476" y2="164.14558193137282"></line><line stroke-width="0.9096893175573152" stroke="lightgray" x1="342.85032400939923" y1="177.13549348758707" x2="309.24144151319075" y2="182.83238795311"></line><line stroke-width="0.40682543049270997" stroke="lightgray" x1="342.85032400939923" y1="177.13549348758707" x2="320.96175901710563" y2="210.25294410827075"></line><line stroke-width="3.923282372362309" stroke="lightgray" x1="62.59135283899202" y1="360.5925458240992" x2="34.83786492473123" y2="386.3213962048269"></line><line stroke-width="0.5753380413210634" stroke="lightgray" x1="309.24144151319075" y1="182.83238795311" x2="294.70608577480476" y2="164.14558193137282"></line><line stroke-width="0.9096893175573152" stroke="lightgray" x1="309.24144151319075" y1="182.83238795311" x2="340.9079147926348" y2="209.74081297408497"></line><line stroke-width="1.2204762914781297" stroke="lightgray" x1="376.00672752653765" y1="235.56107811539883" x2="412.12252135825594" y2="182.1997556379367"></line><line stroke-width="2.5406239991245405" stroke="lightgray" x1="376.00672752653765" y1="235.56107811539883" x2="416.3077918101283" y2="219.74364750163056"></line><line stroke-width="0.5753380413210634" stroke="lightgray" x1="376.00672752653765" y1="235.56107811539883" x2="396.22221177051466" y2="192.40916674973167"></line><line stroke-width="0.40682543049270997" stroke="lightgray" x1="376.00672752653765" y1="235.56107811539883" x2="399.8871509174774" y2="233.91160993494177"></line><line stroke-width="1.7260141239631897" stroke="lightgray" x1="399.8871509174774" y1="233.91160993494177" x2="412.12252135825594" y2="182.1997556379367"></line><line stroke-width="2.9895441572857315" stroke="lightgray" x1="399.8871509174774" y1="233.91160993494177" x2="434.61919339722726" y2="217.05693570270074"></line><line stroke-width="0.40682543049270997" stroke="lightgray" x1="399.8871509174774" y1="233.91160993494177" x2="435.1006104316462" y2="193.98181425358425"></line><line stroke-width="0.9096893175573152" stroke="lightgray" x1="399.8871509174774" y1="233.91160993494177" x2="396.22221177051466" y2="192.40916674973167"></line><line stroke-width="0.8136508609854199" stroke="lightgray" x1="340.9079147926348" y1="209.74081297408497" x2="396.22221177051466" y2="192.40916674973167"></line><line stroke-width="0.40682543049270997" stroke="lightgray" x1="340.9079147926348" y1="209.74081297408497" x2="320.96175901710563" y2="210.25294410827075"></line><line stroke-width="1.2204762914781297" stroke="lightgray" x1="412.12252135825594" y1="182.1997556379367" x2="435.1006104316462" y2="193.98181425358425"></line><line stroke-width="1.7733109391801534" stroke="lightgray" x1="412.12252135825594" y1="182.1997556379367" x2="434.61919339722726" y2="217.05693570270074"></line><line stroke-width="0.8136508609854199" stroke="lightgray" x1="412.12252135825594" y1="182.1997556379367" x2="416.3077918101283" y2="219.74364750163056"></line><line stroke-width="1.0763589161005038" stroke="lightgray" x1="412.12252135825594" y1="182.1997556379367" x2="396.22221177051466" y2="192.40916674973167"></line><line stroke-width="0.40682543049270997" stroke="lightgray" x1="396.22221177051466" y1="192.40916674973167" x2="416.3077918101283" y2="219.74364750163056"></line><line stroke-width="0.7046423154244543" stroke="lightgray" x1="396.22221177051466" y1="192.40916674973167" x2="434.61919339722726" y2="217.05693570270074"></line><line stroke-width="0.40682543049270997" stroke="lightgray" x1="396.22221177051466" y1="192.40916674973167" x2="435.1006104316462" y2="193.98181425358425"></line><line stroke-width="0.9965147190952437" stroke="lightgray" x1="434.61919339722726" y1="217.05693570270074" x2="435.1006104316462" y2="193.98181425358425"></line></g><g class="nodes"><circle r="6.559862958389487" fill="rgb(211, 238, 236)" stroke="black" stroke-width="1px" transform="translate(143.54446226655384,286.16617855828594)"></circle><circle r="5.753380413210633" fill="rgb(211, 239, 236)" stroke="black" stroke-width="1px" transform="translate(202.96582776584333,249.86822782008593)"></circle><circle r="5.335465501157284" fill="rgb(226, 244, 245)" stroke="black" stroke-width="1px" transform="translate(150.44175190474675,262.15935644287003)"></circle><circle r="4.305435664402015" fill="rgb(221, 242, 243)" stroke="black" stroke-width="1px" transform="translate(190.77387477951336,288.4411408079499)"></circle><circle r="3.4520282479263793" fill="rgb(202, 235, 230)" stroke="black" stroke-width="1px" transform="translate(169.07319613820798,280.38257497426343)"></circle><circle r="1.9930294381904874" fill="rgb(206, 236, 232)" stroke="black" stroke-width="1px" transform="translate(237.10131455810665,235.27758890855495)"></circle><circle r="7.367921914200085" fill="rgb(190, 231, 223)" stroke="black" stroke-width="1px" transform="translate(216.56821070907583,272.41643796667955)"></circle><circle r="6.807491509415348" fill="rgb(129, 206, 183)" stroke="black" stroke-width="1px" transform="translate(280.93185592310596,211.99496024777702)"></circle><circle r="6.1429292885554165" fill="rgb(137, 209, 189)" stroke="black" stroke-width="1px" transform="translate(109.82104911022108,319.7098309232324)"></circle><circle r="5.145979881741922" fill="rgb(140, 210, 191)" stroke="black" stroke-width="1px" transform="translate(301.80241998815757,244.26423294480963)"></circle><circle r="3.986058876380975" fill="rgb(195, 232, 225)" stroke="black" stroke-width="1px" transform="translate(155.28151228657376,303.172158990312)"></circle><circle r="2.9336598996083536" fill="rgb(197, 233, 226)" stroke="black" stroke-width="1px" transform="translate(186.3017944309863,317.7064710861238)"></circle><circle r="0.8136508609854199" fill="rgb(200, 234, 228)" stroke="black" stroke-width="1px" transform="translate(163.2172540932774,318.1033102463533)"></circle><circle r="6.088805508522147" fill="rgb(59, 165, 107)" stroke="black" stroke-width="1px" transform="translate(374.53624210171233,207.40857203206113)"></circle><circle r="4.674068343340349" fill="rgb(95, 190, 154)" stroke="black" stroke-width="1px" transform="translate(93.87491032251846,360.18423886066677)"></circle><circle r="4.068254304927099" fill="rgb(68, 173, 119)" stroke="black" stroke-width="1px" transform="translate(342.85032400939923,177.13549348758707)"></circle><circle r="3.986058876380975" fill="rgb(54, 160, 100)" stroke="black" stroke-width="1px" transform="translate(62.59135283899202,360.5925458240992)"></circle><circle r="3.816360821359916" fill="rgb(95, 190, 153)" stroke="black" stroke-width="1px" transform="translate(309.24144151319075,182.83238795311)"></circle><circle r="3.0444027542610734" fill="rgb(50, 156, 94)" stroke="black" stroke-width="1px" transform="translate(376.00672752653765,235.56107811539883)"></circle><circle r="2.9336598996083536" fill="rgb(104, 194, 163)" stroke="black" stroke-width="1px" transform="translate(294.70608577480476,164.14558193137282)"></circle><circle r="2.572989940870961" fill="rgb(37, 143, 77)" stroke="black" stroke-width="1px" transform="translate(399.8871509174774,233.91160993494177)"></circle><circle r="2.4409525829562595" fill="rgb(74, 177, 128)" stroke="black" stroke-width="1px" transform="translate(340.9079147926348,209.74081297408497)"></circle><circle r="2.3013521652842535" fill="rgb(99, 192, 157)" stroke="black" stroke-width="1px" transform="translate(320.96175901710563,210.25294410827075)"></circle><circle r="1.1506760826421267" fill="rgb(104, 194, 163)" stroke="black" stroke-width="1px" transform="translate(296.83509194627425,278.80634052468895)"></circle><circle r="1.1506760826421267" fill="rgb(104, 194, 163)" stroke="black" stroke-width="1px" transform="translate(318.9370294695958,275.33598786952734)"></circle><circle r="0.8136508609854199" fill="rgb(104, 194, 163)" stroke="black" stroke-width="1px" transform="translate(73.72418626650894,314.96344316987705)"></circle><circle r="0.8136508609854199" fill="rgb(104, 194, 163)" stroke="black" stroke-width="1px" transform="translate(78.52672615831986,336.332012707652)"></circle><circle r="4.1488216174162265" fill="rgb(2, 97, 40)" stroke="black" stroke-width="1px" transform="translate(412.12252135825594,182.1997556379367)"></circle><circle r="3.986058876380975" fill="rgb(29, 134, 67)" stroke="black" stroke-width="1px" transform="translate(396.22221177051466,192.40916674973167)"></circle><circle r="3.986058876380975" fill="rgb(17, 123, 56)" stroke="black" stroke-width="1px" transform="translate(434.61919339722726,217.05693570270074)"></circle><circle r="3.2546034439416798" fill="rgb(24, 130, 63)" stroke="black" stroke-width="1px" transform="translate(34.83786492473123,386.3213962048269)"></circle><circle r="2.572989940870961" fill="rgb(12, 117, 52)" stroke="black" stroke-width="1px" transform="translate(416.3077918101283,219.74364750163056)"></circle><circle r="1.9930294381904874" fill="rgb(9, 113, 49)" stroke="black" stroke-width="1px" transform="translate(435.1006104316462,193.98181425358425)"></circle><circle r="1.1506760826421267" fill="rgb(34, 140, 73)" stroke="black" stroke-width="1px" transform="translate(349.39230286626355,141.39223705727085)"></circle></g></g><g><text x="505" y="495" font-family="sans-serif" text-anchor="end" font-size="10px" fill="red">34 nodes</text><text x="505" y="505" font-family="sans-serif" text-anchor="end" font-size="10px" fill="red">97 edges</text></g></svg>