<svg height="512" width="512" style="border-style: solid; border-width: 1px; cursor: auto;" id="figure"><g transform="translate(113.89459855782684,101.02660208671415) scale(0.4758363756426638)"><g class="links"><line stroke-width="1.8200067252420251" stroke="lightgray" x1="-28.9498056176598" y1="526.5806011923339" x2="-80.44535650966748" y2="509.5308968208256"></line><line stroke-width="1.8200067252420251" stroke="lightgray" x1="-28.9498056176598" y1="526.5806011923339" x2="-46.37299688292694" y2="513.7459362773013"></line><line stroke-width="2.101562745490825" stroke="lightgray" x1="-28.9498056176598" y1="526.5806011923339" x2="-72.75778434870175" y2="563.218945619256"></line><line stroke-width="3.1523441182362375" stroke="lightgray" x1="-28.9498056176598" y1="526.5806011923339" x2="-30.20449714458499" y2="468.23965200778815"></line><line stroke-width="2.349618578949287" stroke="lightgray" x1="-28.9498056176598" y1="526.5806011923339" x2="-86.02912435347969" y2="589.0137692564273"></line><line stroke-width="1.0507813727454125" stroke="lightgray" x1="-28.9498056176598" y1="526.5806011923339" x2="51.66354640308484" y2="418.0729216001891"></line><line stroke-width="1.0507813727454125" stroke="lightgray" x1="383.884181455785" y1="149.96711992606882" x2="335.9516426434873" y2="162.81841431613825"></line><line stroke-width="1.8200067252420251" stroke="lightgray" x1="383.884181455785" y1="149.96711992606882" x2="352.93780833190556" y2="114.25794364165094"></line><line stroke-width="1.0507813727454125" stroke="lightgray" x1="383.884181455785" y1="149.96711992606882" x2="356.38917645362767" y2="141.1505933578972"></line><line stroke-width="2.972058536851162" stroke="lightgray" x1="751.3232546761578" y1="84.44504657795072" x2="713.5074792059468" y2="113.72966834087843"></line><line stroke-width="1.8200067252420251" stroke="lightgray" x1="751.3232546761578" y1="84.44504657795072" x2="777.31547742635" y2="98.45806614848306"></line><line stroke-width="1.486029268425581" stroke="lightgray" x1="817.4691669988154" y1="84.1882757453905" x2="777.31547742635" y2="98.45806614848306"></line><line stroke-width="1.8200067252420251" stroke="lightgray" x1="-226.68077626095595" y1="580.5379615844537" x2="-186.23092439155778" y2="563.2845188653574"></line><line stroke-width="1.8200067252420251" stroke="lightgray" x1="-69.77951210929014" y1="395.75363880444564" x2="-57.46220458916633" y2="440.19123601637153"></line><line stroke-width="1.486029268425581" stroke="lightgray" x1="-69.77951210929014" y1="395.75363880444564" x2="-17.97376418709506" y2="366.3632330295404"></line><line stroke-width="1.0507813727454125" stroke="lightgray" x1="-36.99213901429104" y1="449.03644218890645" x2="5.830039965236081" y2="445.88413536622335"></line><line stroke-width="1.486029268425581" stroke="lightgray" x1="-36.99213901429104" y1="449.03644218890645" x2="-32.04738669364717" y2="413.9234184632771"></line><line stroke-width="1.8200067252420251" stroke="lightgray" x1="56.492965913897045" y1="455.9004637562189" x2="51.66354640308484" y2="418.0729216001891"></line><line stroke-width="2.349618578949287" stroke="lightgray" x1="754.4408616099885" y1="73.23586891442292" x2="777.31547742635" y2="98.45806614848306"></line><line stroke-width="2.349618578949287" stroke="lightgray" x1="754.4408616099885" y1="73.23586891442292" x2="713.5074792059468" y2="113.72966834087843"></line><line stroke-width="2.101562745490825" stroke="lightgray" x1="128.4481801000741" y1="387.5510320414229" x2="51.66354640308484" y2="418.0729216001891"></line><line stroke-width="1.486029268425581" stroke="lightgray" x1="128.4481801000741" y1="387.5510320414229" x2="185.35584261388732" y2="315.8676699922773"></line><line stroke-width="1.486029268425581" stroke="lightgray" x1="128.4481801000741" y1="387.5510320414229" x2="152.06240356289797" y2="359.3323738649551"></line><line stroke-width="1.486029268425581" stroke="lightgray" x1="-119.76130816255377" y1="545.6497568708132" x2="-80.44535650966748" y2="509.5308968208256"></line><line stroke-width="1.486029268425581" stroke="lightgray" x1="-119.76130816255377" y1="545.6497568708132" x2="-143.10951052486266" y2="578.4610498180327"></line><line stroke-width="1.0507813727454125" stroke="lightgray" x1="-27.97016746377708" y1="431.3832001567045" x2="43.74239837839905" y2="340.09002071834306"></line><line stroke-width="1.0507813727454125" stroke="lightgray" x1="-27.97016746377708" y1="431.3832001567045" x2="-30.20449714458499" y2="468.23965200778815"></line><line stroke-width="1.8200067252420251" stroke="lightgray" x1="-27.97016746377708" y1="431.3832001567045" x2="5.830039965236081" y2="445.88413536622335"></line><line stroke-width="1.0507813727454125" stroke="lightgray" x1="-27.97016746377708" y1="431.3832001567045" x2="-80.44535650966748" y2="509.5308968208256"></line><line stroke-width="1.0507813727454125" stroke="lightgray" x1="358.26740058227864" y1="174.1057213214244" x2="314.8354009782905" y2="170.38839339477533"></line><line stroke-width="1.0507813727454125" stroke="lightgray" x1="358.26740058227864" y1="174.1057213214244" x2="356.38917645362767" y2="141.1505933578972"></line><line stroke-width="1.0507813727454125" stroke="lightgray" x1="391.4545682888" y1="99.8968495628142" x2="356.38917645362767" y2="141.1505933578972"></line><line stroke-width="1.486029268425581" stroke="lightgray" x1="391.4545682888" y1="99.8968495628142" x2="373.6061143651018" y2="128.94387086003772"></line><line stroke-width="1.0507813727454125" stroke="lightgray" x1="391.4545682888" y1="99.8968495628142" x2="352.93780833190556" y2="114.25794364165094"></line><line stroke-width="1.0507813727454125" stroke="lightgray" x1="316.58501669092954" y1="86.47183432237595" x2="311.94153669531335" y2="61.313319654371796"></line><line stroke-width="1.0507813727454125" stroke="lightgray" x1="316.58501669092954" y1="86.47183432237595" x2="373.6061143651018" y2="128.94387086003772"></line><line stroke-width="1.0507813727454125" stroke="lightgray" x1="316.58501669092954" y1="86.47183432237595" x2="276.8457910627082" y2="120.47487211058098"></line><line stroke-width="1.486029268425581" stroke="lightgray" x1="179.2720678639851" y1="149.02072317052887" x2="204.07070659987355" y2="184.95903340197273"></line><line stroke-width="1.486029268425581" stroke="lightgray" x1="63.08799446801028" y1="165.64595469587886" x2="89.51549980055695" y2="201.03033486366292"></line><line stroke-width="1.0507813727454125" stroke="lightgray" x1="103.82868467892001" y1="409.3336162905579" x2="51.66354640308484" y2="418.0729216001891"></line><line stroke-width="1.0507813727454125" stroke="lightgray" x1="103.82868467892001" y1="409.3336162905579" x2="152.06240356289797" y2="359.3323738649551"></line><line stroke-width="1.486029268425581" stroke="lightgray" x1="351.087503639556" y1="65.78295628857678" x2="356.38917645362767" y2="141.1505933578972"></line><line stroke-width="1.486029268425581" stroke="lightgray" x1="351.087503639556" y1="65.78295628857678" x2="300.4369037859806" y2="98.11014228342613"></line><line stroke-width="1.0507813727454125" stroke="lightgray" x1="351.087503639556" y1="65.78295628857678" x2="393.4021718025389" y2="52.28810742992467"></line><line stroke-width="1.8200067252420251" stroke="lightgray" x1="326.18432964221694" y1="109.76144825486396" x2="373.6061143651018" y2="128.94387086003772"></line><line stroke-width="1.0507813727454125" stroke="lightgray" x1="326.18432964221694" y1="109.76144825486396" x2="276.8457910627082" y2="120.47487211058098"></line><line stroke-width="1.0507813727454125" stroke="lightgray" x1="280.3972294125003" y1="54.998949354303655" x2="300.4369037859806" y2="98.11014228342613"></line><line stroke-width="1.0507813727454125" stroke="lightgray" x1="367.6189177392831" y1="70.39192752968955" x2="352.93780833190556" y2="114.25794364165094"></line><line stroke-width="1.0507813727454125" stroke="lightgray" x1="742.9935620608042" y1="133.22257551329793" x2="705.3162152364599" y2="141.4292233662641"></line><line stroke-width="1.8200067252420251" stroke="lightgray" x1="7.351120786097184" y1="483.87742030662" x2="5.830039965236081" y2="445.88413536622335"></line><line stroke-width="1.486029268425581" stroke="lightgray" x1="-86.08746898318628" y1="458.6974287313921" x2="-32.04738669364717" y2="413.9234184632771"></line><line stroke-width="1.0507813727454125" stroke="lightgray" x1="-86.08746898318628" y1="458.6974287313921" x2="-80.44535650966748" y2="509.5308968208256"></line><line stroke-width="1.0507813727454125" stroke="lightgray" x1="-86.08746898318628" y1="458.6974287313921" x2="-57.46220458916633" y2="440.19123601637153"></line><line stroke-width="1.0507813727454125" stroke="lightgray" x1="746.1006250193363" y1="113.41550613701165" x2="713.5074792059468" y2="113.72966834087843"></line><line stroke-width="1.0507813727454125" stroke="lightgray" x1="746.1006250193363" y1="113.41550613701165" x2="705.3162152364599" y2="141.4292233662641"></line><line stroke-width="1.0507813727454125" stroke="lightgray" x1="-82.99715328068221" y1="623.4757034821848" x2="-120.56078584960424" y2="621.5148604945848"></line><line stroke-width="1.486029268425581" stroke="lightgray" x1="-82.99715328068221" y1="623.4757034821848" x2="-86.02912435347969" y2="589.0137692564273"></line><line stroke-width="1.486029268425581" stroke="lightgray" x1="-82.99715328068221" y1="623.4757034821848" x2="-72.75778434870175" y2="563.218945619256"></line><line stroke-width="1.486029268425581" stroke="lightgray" x1="-108.46659757642892" y1="595.14894675549" x2="-143.10951052486266" y2="578.4610498180327"></line><line stroke-width="1.486029268425581" stroke="lightgray" x1="-108.46659757642892" y1="595.14894675549" x2="-72.75778434870175" y2="563.218945619256"></line><line stroke-width="1.8200067252420251" stroke="lightgray" x1="-72.75778434870175" y1="563.218945619256" x2="-130.05695820639167" y2="597.7964908817587"></line><line stroke-width="2.573878194447515" stroke="lightgray" x1="-72.75778434870175" y1="563.218945619256" x2="-120.56078584960424" y2="621.5148604945848"></line><line stroke-width="2.349618578949287" stroke="lightgray" x1="-72.75778434870175" y1="563.218945619256" x2="-80.44535650966748" y2="509.5308968208256"></line><line stroke-width="1.8200067252420251" stroke="lightgray" x1="-72.75778434870175" y1="563.218945619256" x2="-46.37299688292694" y2="513.7459362773013"></line><line stroke-width="4.92860151085398" stroke="lightgray" x1="-72.75778434870175" y1="563.218945619256" x2="-86.02912435347969" y2="589.0137692564273"></line><line stroke-width="2.573878194447515" stroke="lightgray" x1="-72.75778434870175" y1="563.218945619256" x2="-143.10951052486266" y2="578.4610498180327"></line><line stroke-width="1.0507813727454125" stroke="lightgray" x1="-72.75778434870175" y1="563.218945619256" x2="-37.75172887483177" y2="487.3889046029994"></line><line stroke-width="1.0507813727454125" stroke="lightgray" x1="-72.75778434870175" y1="563.218945619256" x2="51.66354640308484" y2="418.0729216001891"></line><line stroke-width="1.486029268425581" stroke="lightgray" x1="-72.75778434870175" y1="563.218945619256" x2="-141.23112040363247" y2="635.2424598078499"></line><line stroke-width="1.0507813727454125" stroke="lightgray" x1="-72.75778434870175" y1="563.218945619256" x2="-30.20449714458499" y2="468.23965200778815"></line><line stroke-width="1.0507813727454125" stroke="lightgray" x1="777.31547742635" y1="98.45806614848306" x2="677.6773823709644" y2="147.06754975741993"></line><line stroke-width="6.562127569549422" stroke="lightgray" x1="777.31547742635" y1="98.45806614848306" x2="713.5074792059468" y2="113.72966834087843"></line><line stroke-width="1.0507813727454125" stroke="lightgray" x1="352.93780833190556" y1="114.25794364165094" x2="229.68180968037674" y2="187.11322452289593"></line><line stroke-width="3.485047550091113" stroke="lightgray" x1="352.93780833190556" y1="114.25794364165094" x2="356.38917645362767" y2="141.1505933578972"></line><line stroke-width="3.788646118736023" stroke="lightgray" x1="352.93780833190556" y1="114.25794364165094" x2="373.6061143651018" y2="128.94387086003772"></line><line stroke-width="1.0507813727454125" stroke="lightgray" x1="352.93780833190556" y1="114.25794364165094" x2="335.1840553954244" y2="87.50558685870797"></line><line stroke-width="1.8200067252420251" stroke="lightgray" x1="352.93780833190556" y1="114.25794364165094" x2="335.9516426434873" y2="162.81841431613825"></line><line stroke-width="1.8200067252420251" stroke="lightgray" x1="352.93780833190556" y1="114.25794364165094" x2="393.4021718025389" y2="52.28810742992467"></line><line stroke-width="1.8200067252420251" stroke="lightgray" x1="352.93780833190556" y1="114.25794364165094" x2="314.8354009782905" y2="170.38839339477533"></line><line stroke-width="2.101562745490825" stroke="lightgray" x1="352.93780833190556" y1="114.25794364165094" x2="384.88431188590295" y2="83.17278945731742"></line><line stroke-width="1.8200067252420251" stroke="lightgray" x1="352.93780833190556" y1="114.25794364165094" x2="276.8457910627082" y2="120.47487211058098"></line><line stroke-width="1.0507813727454125" stroke="lightgray" x1="352.93780833190556" y1="114.25794364165094" x2="307.5754760677841" y2="141.4048116360396"></line><line stroke-width="1.0507813727454125" stroke="lightgray" x1="352.93780833190556" y1="114.25794364165094" x2="439.0742078210636" y2="150.9167172680305"></line><line stroke-width="3.485047550091113" stroke="lightgray" x1="5.830039965236081" y1="445.88413536622335" x2="51.66354640308484" y2="418.0729216001891"></line><line stroke-width="2.349618578949287" stroke="lightgray" x1="5.830039965236081" y1="445.88413536622335" x2="-80.44535650966748" y2="509.5308968208256"></line><line stroke-width="1.0507813727454125" stroke="lightgray" x1="5.830039965236081" y1="445.88413536622335" x2="185.35584261388732" y2="315.8676699922773"></line><line stroke-width="1.486029268425581" stroke="lightgray" x1="5.830039965236081" y1="445.88413536622335" x2="-32.04738669364717" y2="413.9234184632771"></line><line stroke-width="1.0507813727454125" stroke="lightgray" x1="5.830039965236081" y1="445.88413536622335" x2="-37.75172887483177" y2="487.3889046029994"></line><line stroke-width="1.0507813727454125" stroke="lightgray" x1="5.830039965236081" y1="445.88413536622335" x2="-57.46220458916633" y2="440.19123601637153"></line><line stroke-width="1.8200067252420251" stroke="lightgray" x1="-30.20449714458499" y1="468.23965200778815" x2="-80.44535650966748" y2="509.5308968208256"></line><line stroke-width="4.580249815552198" stroke="lightgray" x1="-30.20449714458499" y1="468.23965200778815" x2="-119.88394898844945" y2="519.4910238933338"></line><line stroke-width="1.486029268425581" stroke="lightgray" x1="-30.20449714458499" y1="468.23965200778815" x2="43.74239837839905" y2="340.09002071834306"></line><line stroke-width="1.0507813727454125" stroke="lightgray" x1="-30.20449714458499" y1="468.23965200778815" x2="-37.75172887483177" y2="487.3889046029994"></line><line stroke-width="3.931663885217335" stroke="lightgray" x1="-30.20449714458499" y1="468.23965200778815" x2="-57.46220458916633" y2="440.19123601637153"></line><line stroke-width="1.0507813727454125" stroke="lightgray" x1="-30.20449714458499" y1="468.23965200778815" x2="75.23211486364636" y2="296.94900210052606"></line><line stroke-width="1.486029268425581" stroke="lightgray" x1="-30.20449714458499" y1="468.23965200778815" x2="-86.02912435347969" y2="589.0137692564273"></line><line stroke-width="1.8200067252420251" stroke="lightgray" x1="-30.20449714458499" y1="468.23965200778815" x2="51.66354640308484" y2="418.0729216001891"></line><line stroke-width="1.486029268425581" stroke="lightgray" x1="344.7698526903349" y1="101.37333942764461" x2="393.4021718025389" y2="52.28810742992467"></line><line stroke-width="1.0507813727454125" stroke="lightgray" x1="344.7698526903349" y1="101.37333942764461" x2="356.38917645362767" y2="141.1505933578972"></line><line stroke-width="1.486029268425581" stroke="lightgray" x1="344.7698526903349" y1="101.37333942764461" x2="284.20235464284116" y2="151.2786603775281"></line><line stroke-width="1.486029268425581" stroke="lightgray" x1="344.7698526903349" y1="101.37333942764461" x2="373.6061143651018" y2="128.94387086003772"></line><line stroke-width="1.0507813727454125" stroke="lightgray" x1="344.7698526903349" y1="101.37333942764461" x2="312.29047466459207" y2="127.65720992848968"></line><line stroke-width="2.573878194447515" stroke="lightgray" x1="344.7698526903349" y1="101.37333942764461" x2="327.9232723977138" y2="69.91219589607341"></line><line stroke-width="1.486029268425581" stroke="lightgray" x1="344.7698526903349" y1="101.37333942764461" x2="314.8354009782905" y2="170.38839339477533"></line><line stroke-width="1.0507813727454125" stroke="lightgray" x1="344.7698526903349" y1="101.37333942764461" x2="335.9516426434873" y2="162.81841431613825"></line><line stroke-width="2.573878194447515" stroke="lightgray" x1="307.5754760677841" y1="141.4048116360396" x2="356.38917645362767" y2="141.1505933578972"></line><line stroke-width="1.0507813727454125" stroke="lightgray" x1="307.5754760677841" y1="141.4048116360396" x2="373.6061143651018" y2="128.94387086003772"></line><line stroke-width="3.931663885217335" stroke="lightgray" x1="307.5754760677841" y1="141.4048116360396" x2="314.8354009782905" y2="170.38839339477533"></line><line stroke-width="2.972058536851162" stroke="lightgray" x1="307.5754760677841" y1="141.4048116360396" x2="335.9516426434873" y2="162.81841431613825"></line><line stroke-width="1.8200067252420251" stroke="lightgray" x1="307.5754760677841" y1="141.4048116360396" x2="204.07070659987355" y2="184.95903340197273"></line><line stroke-width="2.7801061945834253" stroke="lightgray" x1="-37.75172887483177" y1="487.3889046029994" x2="-80.44535650966748" y2="509.5308968208256"></line><line stroke-width="1.486029268425581" stroke="lightgray" x1="-37.75172887483177" y1="487.3889046029994" x2="-46.37299688292694" y2="513.7459362773013"></line><line stroke-width="3.788646118736023" stroke="lightgray" x1="-37.75172887483177" y1="487.3889046029994" x2="51.66354640308484" y2="418.0729216001891"></line><line stroke-width="1.486029268425581" stroke="lightgray" x1="-37.75172887483177" y1="487.3889046029994" x2="-57.46220458916633" y2="440.19123601637153"></line><line stroke-width="1.0507813727454125" stroke="lightgray" x1="-37.75172887483177" y1="487.3889046029994" x2="-32.04738669364717" y2="413.9234184632771"></line><line stroke-width="1.486029268425581" stroke="lightgray" x1="-32.04738669364717" y1="413.9234184632771" x2="-80.44535650966748" y2="509.5308968208256"></line><line stroke-width="1.486029268425581" stroke="lightgray" x1="-32.04738669364717" y1="413.9234184632771" x2="43.74239837839905" y2="340.09002071834306"></line><line stroke-width="1.486029268425581" stroke="lightgray" x1="-32.04738669364717" y1="413.9234184632771" x2="51.66354640308484" y2="418.0729216001891"></line><line stroke-width="3.6400134504840502" stroke="lightgray" x1="-32.04738669364717" y1="413.9234184632771" x2="-57.46220458916633" y2="440.19123601637153"></line><line stroke-width="1.0507813727454125" stroke="lightgray" x1="-32.04738669364717" y1="413.9234184632771" x2="23.56605129307338" y2="316.15070523103117"></line><line stroke-width="1.0507813727454125" stroke="lightgray" x1="312.29047466459207" y1="127.65720992848968" x2="335.1840553954244" y2="87.50558685870797"></line><line stroke-width="1.486029268425581" stroke="lightgray" x1="312.29047466459207" y1="127.65720992848968" x2="284.20235464284116" y2="151.2786603775281"></line><line stroke-width="1.8200067252420251" stroke="lightgray" x1="312.29047466459207" y1="127.65720992848968" x2="373.6061143651018" y2="128.94387086003772"></line><line stroke-width="1.486029268425581" stroke="lightgray" x1="312.29047466459207" y1="127.65720992848968" x2="276.8457910627082" y2="120.47487211058098"></line><line stroke-width="1.0507813727454125" stroke="lightgray" x1="312.29047466459207" y1="127.65720992848968" x2="246.0932207237953" y2="242.05369068382055"></line><line stroke-width="1.8200067252420251" stroke="lightgray" x1="312.29047466459207" y1="127.65720992848968" x2="402.8063730226477" y2="109.04184038713413"></line><line stroke-width="2.101562745490825" stroke="lightgray" x1="312.29047466459207" y1="127.65720992848968" x2="314.8354009782905" y2="170.38839339477533"></line><line stroke-width="1.486029268425581" stroke="lightgray" x1="312.29047466459207" y1="127.65720992848968" x2="327.9232723977138" y2="69.91219589607341"></line><line stroke-width="1.8200067252420251" stroke="lightgray" x1="372.3609622778822" y1="101.81829906772685" x2="356.38917645362767" y2="141.1505933578972"></line><line stroke-width="3.6400134504840502" stroke="lightgray" x1="372.3609622778822" y1="101.81829906772685" x2="393.4021718025389" y2="52.28810742992467"></line><line stroke-width="1.486029268425581" stroke="lightgray" x1="372.3609622778822" y1="101.81829906772685" x2="414.4941889693573" y2="92.6977526593795"></line><line stroke-width="1.0507813727454125" stroke="lightgray" x1="372.3609622778822" y1="101.81829906772685" x2="314.8354009782905" y2="170.38839339477533"></line><line stroke-width="2.7801061945834253" stroke="lightgray" x1="118.39069167242883" y1="375.8162939785633" x2="185.35584261388732" y2="315.8676699922773"></line><line stroke-width="1.486029268425581" stroke="lightgray" x1="118.39069167242883" y1="375.8162939785633" x2="51.66354640308484" y2="418.0729216001891"></line><line stroke-width="1.486029268425581" stroke="lightgray" x1="300.4369037859806" y1="98.11014228342613" x2="229.68180968037674" y2="187.11322452289593"></line><line stroke-width="1.0507813727454125" stroke="lightgray" x1="300.4369037859806" y1="98.11014228342613" x2="356.38917645362767" y2="141.1505933578972"></line><line stroke-width="1.486029268425581" stroke="lightgray" x1="300.4369037859806" y1="98.11014228342613" x2="314.8354009782905" y2="170.38839339477533"></line><line stroke-width="2.101562745490825" stroke="lightgray" x1="300.4369037859806" y1="98.11014228342613" x2="373.6061143651018" y2="128.94387086003772"></line><line stroke-width="2.349618578949287" stroke="lightgray" x1="300.4369037859806" y1="98.11014228342613" x2="276.8457910627082" y2="120.47487211058098"></line><line stroke-width="1.486029268425581" stroke="lightgray" x1="300.4369037859806" y1="98.11014228342613" x2="335.9516426434873" y2="162.81841431613825"></line><line stroke-width="1.0507813727454125" stroke="lightgray" x1="300.4369037859806" y1="98.11014228342613" x2="393.4021718025389" y2="52.28810742992467"></line><line stroke-width="1.0507813727454125" stroke="lightgray" x1="300.4369037859806" y1="98.11014228342613" x2="284.20235464284116" y2="151.2786603775281"></line><line stroke-width="2.101562745490825" stroke="lightgray" x1="152.06240356289797" y1="359.3323738649551" x2="51.66354640308484" y2="418.0729216001891"></line><line stroke-width="1.8200067252420251" stroke="lightgray" x1="152.06240356289797" y1="359.3323738649551" x2="185.35584261388732" y2="315.8676699922773"></line><line stroke-width="1.486029268425581" stroke="lightgray" x1="152.06240356289797" y1="359.3323738649551" x2="246.0932207237953" y2="242.05369068382055"></line><line stroke-width="1.0507813727454125" stroke="lightgray" x1="174.41777172880612" y1="187.30084030808268" x2="229.68180968037674" y2="187.11322452289593"></line><line stroke-width="1.8200067252420251" stroke="lightgray" x1="174.41777172880612" y1="187.30084030808268" x2="191.9311492028852" y2="220.7779183872495"></line><line stroke-width="1.0507813727454125" stroke="lightgray" x1="174.41777172880612" y1="187.30084030808268" x2="185.25475615524525" y2="239.19584731729188"></line><line stroke-width="1.0507813727454125" stroke="lightgray" x1="174.41777172880612" y1="187.30084030808268" x2="159.71475709354263" y2="223.5729727440811"></line><line stroke-width="1.0507813727454125" stroke="lightgray" x1="96.40791711739013" y1="365.3603846601736" x2="185.35584261388732" y2="315.8676699922773"></line><line stroke-width="1.486029268425581" stroke="lightgray" x1="96.40791711739013" y1="365.3603846601736" x2="43.74239837839905" y2="340.09002071834306"></line><line stroke-width="2.573878194447515" stroke="lightgray" x1="96.40791711739013" y1="365.3603846601736" x2="51.66354640308484" y2="418.0729216001891"></line><line stroke-width="2.573878194447515" stroke="lightgray" x1="53.36202207679739" y1="364.5689106570998" x2="43.74239837839905" y2="340.09002071834306"></line><line stroke-width="1.486029268425581" stroke="lightgray" x1="53.36202207679739" y1="364.5689106570998" x2="51.66354640308484" y2="418.0729216001891"></line><line stroke-width="1.486029268425581" stroke="lightgray" x1="53.36202207679739" y1="364.5689106570998" x2="75.23211486364636" y2="296.94900210052606"></line><line stroke-width="3.1523441182362375" stroke="lightgray" x1="46.35652709846022" y1="246.02672254571365" x2="77.21947286872167" y2="241.97138307307966"></line><line stroke-width="2.101562745490825" stroke="lightgray" x1="46.35652709846022" y1="246.02672254571365" x2="89.51549980055695" y2="201.03033486366292"></line><line stroke-width="1.486029268425581" stroke="lightgray" x1="46.35652709846022" y1="246.02672254571365" x2="75.23211486364636" y2="296.94900210052606"></line><line stroke-width="1.8200067252420251" stroke="lightgray" x1="-186.23092439155778" y1="563.2845188653574" x2="-119.88394898844945" y2="519.4910238933338"></line><line stroke-width="1.0507813727454125" stroke="lightgray" x1="-186.23092439155778" y1="563.2845188653574" x2="-143.10951052486266" y2="578.4610498180327"></line><line stroke-width="2.101562745490825" stroke="lightgray" x1="-146.74983541433602" y1="553.4100468728253" x2="-175.60263660681068" y2="613.7054156053565"></line><line stroke-width="1.486029268425581" stroke="lightgray" x1="-146.74983541433602" y1="553.4100468728253" x2="-143.10951052486266" y2="578.4610498180327"></line><line stroke-width="1.486029268425581" stroke="lightgray" x1="-146.74983541433602" y1="553.4100468728253" x2="-80.44535650966748" y2="509.5308968208256"></line><line stroke-width="1.0507813727454125" stroke="lightgray" x1="257.00820455702757" y1="259.25964266632235" x2="185.35584261388732" y2="315.8676699922773"></line><line stroke-width="1.486029268425581" stroke="lightgray" x1="257.00820455702757" y1="259.25964266632235" x2="217.52986070325053" y2="252.4835475325329"></line><line stroke-width="1.8200067252420251" stroke="lightgray" x1="257.00820455702757" y1="259.25964266632235" x2="314.8354009782905" y2="170.38839339477533"></line><line stroke-width="1.0507813727454125" stroke="lightgray" x1="772.102194651695" y1="157.17190794396393" x2="677.6773823709644" y2="147.06754975741993"></line><line stroke-width="2.101562745490825" stroke="lightgray" x1="772.102194651695" y1="157.17190794396393" x2="751.9068950969344" y2="174.84197526843863"></line><line stroke-width="1.0507813727454125" stroke="lightgray" x1="772.102194651695" y1="157.17190794396393" x2="729.4119157518464" y2="170.96830975724694"></line><line stroke-width="1.8200067252420251" stroke="lightgray" x1="772.102194651695" y1="157.17190794396393" x2="762.7577764703994" y2="193.71987791143945"></line><line stroke-width="2.573878194447515" stroke="lightgray" x1="420.77394993370257" y1="-6.147167752696322" x2="393.4021718025389" y2="52.28810742992467"></line><line stroke-width="1.0507813727454125" stroke="lightgray" x1="420.77394993370257" y1="-6.147167752696322" x2="457.60763196714873" y2="11.298357603236123"></line><line stroke-width="1.0507813727454125" stroke="lightgray" x1="365.47581682182926" y1="210.00564443248186" x2="328.74769033787646" y2="217.46763786519287"></line><line stroke-width="1.0507813727454125" stroke="lightgray" x1="365.47581682182926" y1="210.00564443248186" x2="335.9516426434873" y2="162.81841431613825"></line><line stroke-width="1.8200067252420251" stroke="lightgray" x1="311.94153669531335" y1="61.313319654371796" x2="373.6061143651018" y2="128.94387086003772"></line><line stroke-width="1.0507813727454125" stroke="lightgray" x1="311.94153669531335" y1="61.313319654371796" x2="335.1840553954244" y2="87.50558685870797"></line><line stroke-width="1.486029268425581" stroke="lightgray" x1="311.94153669531335" y1="61.313319654371796" x2="276.8457910627082" y2="120.47487211058098"></line><line stroke-width="1.486029268425581" stroke="lightgray" x1="35.328936450787154" y1="227.80589250483732" x2="77.21947286872167" y2="241.97138307307966"></line><line stroke-width="1.0507813727454125" stroke="lightgray" x1="269.622858882561" y1="210.95334303361236" x2="335.9516426434873" y2="162.81841431613825"></line><line stroke-width="1.0507813727454125" stroke="lightgray" x1="269.622858882561" y1="210.95334303361236" x2="246.0932207237953" y2="242.05369068382055"></line><line stroke-width="1.0507813727454125" stroke="lightgray" x1="269.622858882561" y1="210.95334303361236" x2="191.9311492028852" y2="220.7779183872495"></line><line stroke-width="1.486029268425581" stroke="lightgray" x1="-110.69534623686519" y1="653.6768474464842" x2="-120.56078584960424" y2="621.5148604945848"></line><line stroke-width="1.0507813727454125" stroke="lightgray" x1="-110.69534623686519" y1="653.6768474464842" x2="-86.02912435347969" y2="589.0137692564273"></line><line stroke-width="1.0507813727454125" stroke="lightgray" x1="-110.69534623686519" y1="653.6768474464842" x2="-141.23112040363247" y2="635.2424598078499"></line><line stroke-width="1.8200067252420251" stroke="lightgray" x1="52.549048061147516" y1="175.9413300666627" x2="89.51549980055695" y2="201.03033486366292"></line><line stroke-width="1.0507813727454125" stroke="lightgray" x1="-17.97376418709506" y1="366.3632330295404" x2="-57.46220458916633" y2="440.19123601637153"></line><line stroke-width="1.0507813727454125" stroke="lightgray" x1="-17.97376418709506" y1="366.3632330295404" x2="75.23211486364636" y2="296.94900210052606"></line><line stroke-width="1.0507813727454125" stroke="lightgray" x1="29.32512576363402" y1="384.53172662236875" x2="43.74239837839905" y2="340.09002071834306"></line><line stroke-width="1.486029268425581" stroke="lightgray" x1="29.32512576363402" y1="384.53172662236875" x2="51.66354640308484" y2="418.0729216001891"></line><line stroke-width="1.486029268425581" stroke="lightgray" x1="800.4654210169568" y1="191.133730384897" x2="751.9068950969344" y2="174.84197526843863"></line><line stroke-width="1.8200067252420251" stroke="lightgray" x1="800.4654210169568" y1="191.133730384897" x2="762.7577764703994" y2="193.71987791143945"></line><line stroke-width="2.101562745490825" stroke="lightgray" x1="437.72917818211715" y1="33.94619047642147" x2="393.4021718025389" y2="52.28810742992467"></line><line stroke-width="1.0507813727454125" stroke="lightgray" x1="437.72917818211715" y1="33.94619047642147" x2="457.60763196714873" y2="11.298357603236123"></line><line stroke-width="1.0507813727454125" stroke="lightgray" x1="437.72917818211715" y1="33.94619047642147" x2="414.4941889693573" y2="92.6977526593795"></line><line stroke-width="1.8200067252420251" stroke="lightgray" x1="224.36833545247597" y1="220.89798565081676" x2="229.68180968037674" y2="187.11322452289593"></line><line stroke-width="1.486029268425581" stroke="lightgray" x1="224.36833545247597" y1="220.89798565081676" x2="246.0932207237953" y2="242.05369068382055"></line><line stroke-width="1.486029268425581" stroke="lightgray" x1="378.7259197289808" y1="193.2898098678465" x2="356.38917645362767" y2="141.1505933578972"></line><line stroke-width="1.0507813727454125" stroke="lightgray" x1="378.7259197289808" y1="193.2898098678465" x2="336.17892894874655" y2="188.31307160398194"></line><line stroke-width="1.0507813727454125" stroke="lightgray" x1="378.7259197289808" y1="193.2898098678465" x2="328.74769033787646" y2="217.46763786519287"></line><line stroke-width="1.0507813727454125" stroke="lightgray" x1="313.79973988787793" y1="110.8768261599094" x2="229.68180968037674" y2="187.11322452289593"></line><line stroke-width="1.0507813727454125" stroke="lightgray" x1="313.79973988787793" y1="110.8768261599094" x2="356.38917645362767" y2="141.1505933578972"></line><line stroke-width="1.0507813727454125" stroke="lightgray" x1="313.79973988787793" y1="110.8768261599094" x2="373.6061143651018" y2="128.94387086003772"></line><line stroke-width="1.0507813727454125" stroke="lightgray" x1="313.79973988787793" y1="110.8768261599094" x2="393.4021718025389" y2="52.28810742992467"></line><line stroke-width="1.486029268425581" stroke="lightgray" x1="313.79973988787793" y1="110.8768261599094" x2="276.8457910627082" y2="120.47487211058098"></line><line stroke-width="2.101562745490825" stroke="lightgray" x1="-161.24220146568675" y1="520.3334005342714" x2="-119.88394898844945" y2="519.4910238933338"></line><line stroke-width="1.486029268425581" stroke="lightgray" x1="438.4072250548526" y1="124.41825950988171" x2="422.0181243444722" y2="166.28328919002684"></line><line stroke-width="1.486029268425581" stroke="lightgray" x1="438.4072250548526" y1="124.41825950988171" x2="373.6061143651018" y2="128.94387086003772"></line><line stroke-width="1.0507813727454125" stroke="lightgray" x1="438.4072250548526" y1="124.41825950988171" x2="439.0742078210636" y2="150.9167172680305"></line><line stroke-width="2.101562745490825" stroke="lightgray" x1="424.16559810302624" y1="4.130764372294911" x2="393.4021718025389" y2="52.28810742992467"></line><line stroke-width="1.0507813727454125" stroke="lightgray" x1="424.16559810302624" y1="4.130764372294911" x2="457.60763196714873" y2="11.298357603236123"></line><line stroke-width="1.0507813727454125" stroke="lightgray" x1="104.74300100225466" y1="278.47286961631704" x2="77.21947286872167" y2="241.97138307307966"></line><line stroke-width="1.0507813727454125" stroke="lightgray" x1="104.74300100225466" y1="278.47286961631704" x2="181.01966543229358" y2="272.3072296514954"></line><line stroke-width="1.0507813727454125" stroke="lightgray" x1="104.74300100225466" y1="278.47286961631704" x2="75.23211486364636" y2="296.94900210052606"></line><line stroke-width="1.486029268425581" stroke="lightgray" x1="715.098893027808" y1="215.0549008224678" x2="762.7577764703994" y2="193.71987791143945"></line><line stroke-width="1.0507813727454125" stroke="lightgray" x1="715.098893027808" y1="215.0549008224678" x2="663.8296519402345" y2="176.6376267248359"></line><line stroke-width="1.486029268425581" stroke="lightgray" x1="715.098893027808" y1="215.0549008224678" x2="724.9398825186869" y2="195.1516139648496"></line><line stroke-width="1.0507813727454125" stroke="lightgray" x1="45.57824233785392" y1="203.310056557313" x2="77.21947286872167" y2="241.97138307307966"></line><line stroke-width="1.0507813727454125" stroke="lightgray" x1="45.57824233785392" y1="203.310056557313" x2="89.51549980055695" y2="201.03033486366292"></line><line stroke-width="1.0507813727454125" stroke="lightgray" x1="341.6153196487848" y1="218.50170246097" x2="310.731760066011" y2="226.30270950086748"></line><line stroke-width="1.0507813727454125" stroke="lightgray" x1="341.6153196487848" y1="218.50170246097" x2="314.8354009782905" y2="170.38839339477533"></line><line stroke-width="1.486029268425581" stroke="lightgray" x1="373.6061143651018" y1="128.94387086003772" x2="229.68180968037674" y2="187.11322452289593"></line><line stroke-width="4.332482589260858" stroke="lightgray" x1="373.6061143651018" y1="128.94387086003772" x2="356.38917645362767" y2="141.1505933578972"></line><line stroke-width="3.485047550091113" stroke="lightgray" x1="373.6061143651018" y1="128.94387086003772" x2="439.0742078210636" y2="150.9167172680305"></line><line stroke-width="2.349618578949287" stroke="lightgray" x1="373.6061143651018" y1="128.94387086003772" x2="246.0932207237953" y2="242.05369068382055"></line><line stroke-width="3.3228624607538806" stroke="lightgray" x1="373.6061143651018" y1="128.94387086003772" x2="475.0155902512571" y2="159.89116391028298"></line><line stroke-width="2.101562745490825" stroke="lightgray" x1="373.6061143651018" y1="128.94387086003772" x2="284.20235464284116" y2="151.2786603775281"></line><line stroke-width="1.486029268425581" stroke="lightgray" x1="373.6061143651018" y1="128.94387086003772" x2="314.8354009782905" y2="170.38839339477533"></line><line stroke-width="4.580249815552198" stroke="lightgray" x1="373.6061143651018" y1="128.94387086003772" x2="335.9516426434873" y2="162.81841431613825"></line><line stroke-width="3.931663885217335" stroke="lightgray" x1="373.6061143651018" y1="128.94387086003772" x2="276.8457910627082" y2="120.47487211058098"></line><line stroke-width="1.0507813727454125" stroke="lightgray" x1="373.6061143651018" y1="128.94387086003772" x2="353.7492621812049" y2="193.74317814916958"></line><line stroke-width="2.101562745490825" stroke="lightgray" x1="373.6061143651018" y1="128.94387086003772" x2="335.1840553954244" y2="87.50558685870797"></line><line stroke-width="2.101562745490825" stroke="lightgray" x1="373.6061143651018" y1="128.94387086003772" x2="422.0181243444722" y2="166.28328919002684"></line><line stroke-width="1.8200067252420251" stroke="lightgray" x1="373.6061143651018" y1="128.94387086003772" x2="402.8063730226477" y2="109.04184038713413"></line><line stroke-width="1.0507813727454125" stroke="lightgray" x1="373.6061143651018" y1="128.94387086003772" x2="575.3730026142175" y2="137.98051290367818"></line><line stroke-width="1.486029268425581" stroke="lightgray" x1="373.6061143651018" y1="128.94387086003772" x2="414.4941889693573" y2="92.6977526593795"></line><line stroke-width="2.7801061945834253" stroke="lightgray" x1="393.4021718025389" y1="52.28810742992467" x2="356.38917645362767" y2="141.1505933578972"></line><line stroke-width="3.3228624607538806" stroke="lightgray" x1="393.4021718025389" y1="52.28810742992467" x2="414.4941889693573" y2="92.6977526593795"></line><line stroke-width="3.485047550091113" stroke="lightgray" x1="393.4021718025389" y1="52.28810742992467" x2="457.60763196714873" y2="11.298357603236123"></line><line stroke-width="1.486029268425581" stroke="lightgray" x1="393.4021718025389" y1="52.28810742992467" x2="451.57321597853826" y2="102.18889355642077"></line><line stroke-width="1.486029268425581" stroke="lightgray" x1="393.4021718025389" y1="52.28810742992467" x2="276.8457910627082" y2="120.47487211058098"></line><line stroke-width="1.0507813727454125" stroke="lightgray" x1="393.4021718025389" y1="52.28810742992467" x2="335.9516426434873" y2="162.81841431613825"></line><line stroke-width="1.0507813727454125" stroke="lightgray" x1="393.4021718025389" y1="52.28810742992467" x2="439.0742078210636" y2="150.9167172680305"></line><line stroke-width="1.486029268425581" stroke="lightgray" x1="393.4021718025389" y1="52.28810742992467" x2="402.8063730226477" y2="109.04184038713413"></line><line stroke-width="3.788646118736023" stroke="lightgray" x1="-143.10951052486266" y1="578.4610498180327" x2="-130.05695820639167" y2="597.7964908817587"></line><line stroke-width="3.1523441182362375" stroke="lightgray" x1="-143.10951052486266" y1="578.4610498180327" x2="-120.56078584960424" y2="621.5148604945848"></line><line stroke-width="2.573878194447515" stroke="lightgray" x1="-143.10951052486266" y1="578.4610498180327" x2="-175.60263660681068" y2="613.7054156053565"></line><line stroke-width="2.573878194447515" stroke="lightgray" x1="-143.10951052486266" y1="578.4610498180327" x2="-80.44535650966748" y2="509.5308968208256"></line><line stroke-width="1.0507813727454125" stroke="lightgray" x1="-143.10951052486266" y1="578.4610498180327" x2="-86.02912435347969" y2="589.0137692564273"></line><line stroke-width="1.0507813727454125" stroke="lightgray" x1="-143.10951052486266" y1="578.4610498180327" x2="-57.46220458916633" y2="440.19123601637153"></line><line stroke-width="1.0507813727454125" stroke="lightgray" x1="-143.10951052486266" y1="578.4610498180327" x2="-141.23112040363247" y2="635.2424598078499"></line><line stroke-width="1.0507813727454125" stroke="lightgray" x1="51.66354640308484" y1="418.0729216001891" x2="217.52986070325053" y2="252.4835475325329"></line><line stroke-width="3.788646118736023" stroke="lightgray" x1="51.66354640308484" y1="418.0729216001891" x2="-80.44535650966748" y2="509.5308968208256"></line><line stroke-width="2.573878194447515" stroke="lightgray" x1="51.66354640308484" y1="418.0729216001891" x2="185.35584261388732" y2="315.8676699922773"></line><line stroke-width="1.8200067252420251" stroke="lightgray" x1="51.66354640308484" y1="418.0729216001891" x2="246.0932207237953" y2="242.05369068382055"></line><line stroke-width="3.931663885217335" stroke="lightgray" x1="51.66354640308484" y1="418.0729216001891" x2="43.74239837839905" y2="340.09002071834306"></line><line stroke-width="2.349618578949287" stroke="lightgray" x1="51.66354640308484" y1="418.0729216001891" x2="-46.37299688292694" y2="513.7459362773013"></line><line stroke-width="1.8200067252420251" stroke="lightgray" x1="51.66354640308484" y1="418.0729216001891" x2="-57.46220458916633" y2="440.19123601637153"></line><line stroke-width="1.486029268425581" stroke="lightgray" x1="51.66354640308484" y1="418.0729216001891" x2="75.23211486364636" y2="296.94900210052606"></line><line stroke-width="2.101562745490825" stroke="lightgray" x1="314.8354009782905" y1="170.38839339477533" x2="229.68180968037674" y2="187.11322452289593"></line><line stroke-width="1.8200067252420251" stroke="lightgray" x1="314.8354009782905" y1="170.38839339477533" x2="185.35584261388732" y2="315.8676699922773"></line><line stroke-width="1.486029268425581" stroke="lightgray" x1="314.8354009782905" y1="170.38839339477533" x2="335.1840553954244" y2="87.50558685870797"></line><line stroke-width="2.101562745490825" stroke="lightgray" x1="314.8354009782905" y1="170.38839339477533" x2="335.9516426434873" y2="162.81841431613825"></line><line stroke-width="1.486029268425581" stroke="lightgray" x1="314.8354009782905" y1="170.38839339477533" x2="310.731760066011" y2="226.30270950086748"></line><line stroke-width="2.101562745490825" stroke="lightgray" x1="314.8354009782905" y1="170.38839339477533" x2="246.0932207237953" y2="242.05369068382055"></line><line stroke-width="1.0507813727454125" stroke="lightgray" x1="314.8354009782905" y1="170.38839339477533" x2="284.20235464284116" y2="151.2786603775281"></line><line stroke-width="2.7801061945834253" stroke="lightgray" x1="314.8354009782905" y1="170.38839339477533" x2="276.8457910627082" y2="120.47487211058098"></line><line stroke-width="2.7801061945834253" stroke="lightgray" x1="314.8354009782905" y1="170.38839339477533" x2="356.38917645362767" y2="141.1505933578972"></line><line stroke-width="1.0507813727454125" stroke="lightgray" x1="314.8354009782905" y1="170.38839339477533" x2="217.52986070325053" y2="252.4835475325329"></line><line stroke-width="2.7801061945834253" stroke="lightgray" x1="314.8354009782905" y1="170.38839339477533" x2="402.8063730226477" y2="109.04184038713413"></line><line stroke-width="1.0507813727454125" stroke="lightgray" x1="314.8354009782905" y1="170.38839339477533" x2="439.0742078210636" y2="150.9167172680305"></line><line stroke-width="1.0507813727454125" stroke="lightgray" x1="314.8354009782905" y1="170.38839339477533" x2="414.4941889693573" y2="92.6977526593795"></line><line stroke-width="3.1523441182362375" stroke="lightgray" x1="-57.46220458916633" y1="440.19123601637153" x2="43.74239837839905" y2="340.09002071834306"></line><line stroke-width="1.486029268425581" stroke="lightgray" x1="-57.46220458916633" y1="440.19123601637153" x2="-46.37299688292694" y2="513.7459362773013"></line><line stroke-width="1.8200067252420251" stroke="lightgray" x1="-57.46220458916633" y1="440.19123601637153" x2="-119.88394898844945" y2="519.4910238933338"></line><line stroke-width="2.972058536851162" stroke="lightgray" x1="-57.46220458916633" y1="440.19123601637153" x2="-80.44535650966748" y2="509.5308968208256"></line><line stroke-width="1.486029268425581" stroke="lightgray" x1="-57.46220458916633" y1="440.19123601637153" x2="75.23211486364636" y2="296.94900210052606"></line><line stroke-width="1.8200067252420251" stroke="lightgray" x1="751.9068950969344" y1="174.84197526843863" x2="677.6773823709644" y2="147.06754975741993"></line><line stroke-width="5.460020175726076" stroke="lightgray" x1="751.9068950969344" y1="174.84197526843863" x2="762.7577764703994" y2="193.71987791143945"></line><line stroke-width="1.0507813727454125" stroke="lightgray" x1="751.9068950969344" y1="174.84197526843863" x2="729.4119157518464" y2="170.96830975724694"></line><line stroke-width="1.8200067252420251" stroke="lightgray" x1="751.9068950969344" y1="174.84197526843863" x2="663.8296519402345" y2="176.6376267248359"></line><line stroke-width="1.0507813727454125" stroke="lightgray" x1="751.9068950969344" y1="174.84197526843863" x2="700.6213390370464" y2="167.59748669754168"></line><line stroke-width="1.0507813727454125" stroke="lightgray" x1="-86.02912435347969" y1="589.0137692564273" x2="-130.05695820639167" y2="597.7964908817587"></line><line stroke-width="3.1523441182362375" stroke="lightgray" x1="-86.02912435347969" y1="589.0137692564273" x2="-120.56078584960424" y2="621.5148604945848"></line><line stroke-width="3.931663885217335" stroke="lightgray" x1="-86.02912435347969" y1="589.0137692564273" x2="-80.44535650966748" y2="509.5308968208256"></line><line stroke-width="1.8200067252420251" stroke="lightgray" x1="-86.02912435347969" y1="589.0137692564273" x2="-46.37299688292694" y2="513.7459362773013"></line><line stroke-width="2.101562745490825" stroke="lightgray" x1="-86.02912435347969" y1="589.0137692564273" x2="-141.23112040363247" y2="635.2424598078499"></line><line stroke-width="2.101562745490825" stroke="lightgray" x1="-119.88394898844945" y1="519.4910238933338" x2="-120.56078584960424" y2="621.5148604945848"></line><line stroke-width="1.0507813727454125" stroke="lightgray" x1="-119.88394898844945" y1="519.4910238933338" x2="-80.44535650966748" y2="509.5308968208256"></line><line stroke-width="2.349618578949287" stroke="lightgray" x1="713.5074792059468" y1="113.72966834087843" x2="705.3162152364599" y2="141.4292233662641"></line><line stroke-width="1.486029268425581" stroke="lightgray" x1="713.5074792059468" y1="113.72966834087843" x2="575.3730026142175" y2="137.98051290367818"></line><line stroke-width="1.0507813727454125" stroke="lightgray" x1="713.5074792059468" y1="113.72966834087843" x2="700.6213390370464" y2="167.59748669754168"></line><line stroke-width="1.486029268425581" stroke="lightgray" x1="713.5074792059468" y1="113.72966834087843" x2="762.7577764703994" y2="193.71987791143945"></line><line stroke-width="1.0507813727454125" stroke="lightgray" x1="713.5074792059468" y1="113.72966834087843" x2="635.1481054797362" y2="134.1147889906043"></line><line stroke-width="1.0507813727454125" stroke="lightgray" x1="713.5074792059468" y1="113.72966834087843" x2="663.8296519402345" y2="176.6376267248359"></line><line stroke-width="4.699237157898574" stroke="lightgray" x1="77.21947286872167" y1="241.97138307307966" x2="89.51549980055695" y2="201.03033486366292"></line><line stroke-width="2.7801061945834253" stroke="lightgray" x1="77.21947286872167" y1="241.97138307307966" x2="75.23211486364636" y2="296.94900210052606"></line><line stroke-width="1.0507813727454125" stroke="lightgray" x1="77.21947286872167" y1="241.97138307307966" x2="229.68180968037674" y2="187.11322452289593"></line><line stroke-width="1.0507813727454125" stroke="lightgray" x1="77.21947286872167" y1="241.97138307307966" x2="43.74239837839905" y2="340.09002071834306"></line><line stroke-width="2.101562745490825" stroke="lightgray" x1="204.07070659987355" y1="184.95903340197273" x2="75.23211486364636" y2="296.94900210052606"></line><line stroke-width="1.486029268425581" stroke="lightgray" x1="204.07070659987355" y1="184.95903340197273" x2="217.52986070325053" y2="252.4835475325329"></line><line stroke-width="1.486029268425581" stroke="lightgray" x1="204.07070659987355" y1="184.95903340197273" x2="276.8457910627082" y2="120.47487211058098"></line><line stroke-width="2.101562745490825" stroke="lightgray" x1="204.07070659987355" y1="184.95903340197273" x2="335.9516426434873" y2="162.81841431613825"></line><line stroke-width="1.0507813727454125" stroke="lightgray" x1="204.07070659987355" y1="184.95903340197273" x2="185.25475615524525" y2="239.19584731729188"></line><line stroke-width="1.8200067252420251" stroke="lightgray" x1="204.07070659987355" y1="184.95903340197273" x2="158.34302436425776" y2="257.1884776424564"></line><line stroke-width="1.0507813727454125" stroke="lightgray" x1="204.07070659987355" y1="184.95903340197273" x2="159.71475709354263" y2="223.5729727440811"></line><line stroke-width="2.349618578949287" stroke="lightgray" x1="724.9398825186869" y1="195.1516139648496" x2="762.7577764703994" y2="193.71987791143945"></line><line stroke-width="1.8200067252420251" stroke="lightgray" x1="724.9398825186869" y1="195.1516139648496" x2="663.8296519402345" y2="176.6376267248359"></line><line stroke-width="1.486029268425581" stroke="lightgray" x1="724.9398825186869" y1="195.1516139648496" x2="700.6213390370464" y2="167.59748669754168"></line><line stroke-width="1.0507813727454125" stroke="lightgray" x1="191.9311492028852" y1="220.7779183872495" x2="75.23211486364636" y2="296.94900210052606"></line><line stroke-width="1.0507813727454125" stroke="lightgray" x1="191.9311492028852" y1="220.7779183872495" x2="89.51549980055695" y2="201.03033486366292"></line><line stroke-width="1.0507813727454125" stroke="lightgray" x1="191.9311492028852" y1="220.7779183872495" x2="335.9516426434873" y2="162.81841431613825"></line><line stroke-width="1.0507813727454125" stroke="lightgray" x1="191.9311492028852" y1="220.7779183872495" x2="158.34302436425776" y2="257.1884776424564"></line><line stroke-width="1.0507813727454125" stroke="lightgray" x1="191.9311492028852" y1="220.7779183872495" x2="159.71475709354263" y2="223.5729727440811"></line><line stroke-width="1.0507813727454125" stroke="lightgray" x1="191.9311492028852" y1="220.7779183872495" x2="246.0932207237953" y2="242.05369068382055"></line><line stroke-width="1.0507813727454125" stroke="lightgray" x1="191.9311492028852" y1="220.7779183872495" x2="185.25475615524525" y2="239.19584731729188"></line><line stroke-width="1.8200067252420251" stroke="lightgray" x1="205.1793263516254" y1="209.63169994570177" x2="229.68180968037674" y2="187.11322452289593"></line><line stroke-width="2.101562745490825" stroke="lightgray" x1="205.1793263516254" y1="209.63169994570177" x2="185.25475615524525" y2="239.19584731729188"></line><line stroke-width="1.0507813727454125" stroke="lightgray" x1="205.1793263516254" y1="209.63169994570177" x2="246.0932207237953" y2="242.05369068382055"></line><line stroke-width="1.0507813727454125" stroke="lightgray" x1="205.1793263516254" y1="209.63169994570177" x2="159.71475709354263" y2="223.5729727440811"></line><line stroke-width="1.0507813727454125" stroke="lightgray" x1="205.1793263516254" y1="209.63169994570177" x2="257.1288574433454" y2="196.45654459905984"></line><line stroke-width="1.0507813727454125" stroke="lightgray" x1="181.01966543229358" y1="272.3072296514954" x2="246.0932207237953" y2="242.05369068382055"></line><line stroke-width="1.8200067252420251" stroke="lightgray" x1="181.01966543229358" y1="272.3072296514954" x2="158.34302436425776" y2="257.1884776424564"></line><line stroke-width="1.0507813727454125" stroke="lightgray" x1="181.01966543229358" y1="272.3072296514954" x2="159.71475709354263" y2="223.5729727440811"></line><line stroke-width="1.486029268425581" stroke="lightgray" x1="409.07091522957336" y1="142.32843880282505" x2="356.38917645362767" y2="141.1505933578972"></line><line stroke-width="1.0507813727454125" stroke="lightgray" x1="409.07091522957336" y1="142.32843880282505" x2="439.0742078210636" y2="150.9167172680305"></line><line stroke-width="1.0507813727454125" stroke="lightgray" x1="328.74769033787646" y1="217.46763786519287" x2="246.0932207237953" y2="242.05369068382055"></line><line stroke-width="1.8200067252420251" stroke="lightgray" x1="328.74769033787646" y1="217.46763786519287" x2="356.38917645362767" y2="141.1505933578972"></line><line stroke-width="1.0507813727454125" stroke="lightgray" x1="328.74769033787646" y1="217.46763786519287" x2="336.17892894874655" y2="188.31307160398194"></line><line stroke-width="1.486029268425581" stroke="lightgray" x1="384.88431188590295" y1="83.17278945731742" x2="356.38917645362767" y2="141.1505933578972"></line><line stroke-width="1.0507813727454125" stroke="lightgray" x1="384.88431188590295" y1="83.17278945731742" x2="414.4941889693573" y2="92.6977526593795"></line><line stroke-width="1.486029268425581" stroke="lightgray" x1="327.9232723977138" y1="69.91219589607341" x2="276.8457910627082" y2="120.47487211058098"></line><line stroke-width="1.0507813727454125" stroke="lightgray" x1="327.9232723977138" y1="69.91219589607341" x2="402.8063730226477" y2="109.04184038713413"></line><line stroke-width="1.486029268425581" stroke="lightgray" x1="540.2496090768043" y1="141.50778485758838" x2="575.3730026142175" y2="137.98051290367818"></line><line stroke-width="1.0507813727454125" stroke="lightgray" x1="540.2496090768043" y1="141.50778485758838" x2="439.0742078210636" y2="150.9167172680305"></line><line stroke-width="1.0507813727454125" stroke="lightgray" x1="540.2496090768043" y1="141.50778485758838" x2="635.1481054797362" y2="134.1147889906043"></line><line stroke-width="1.486029268425581" stroke="lightgray" x1="36.2864945500948" y1="291.6135737315779" x2="75.23211486364636" y2="296.94900210052606"></line><line stroke-width="2.349618578949287" stroke="lightgray" x1="784.4359799316143" y1="229.619101690456" x2="762.7577764703994" y2="193.71987791143945"></line><line stroke-width="1.0507813727454125" stroke="lightgray" x1="784.4359799316143" y1="229.619101690456" x2="735.064123234979" y2="217.74347660961055"></line><line stroke-width="1.486029268425581" stroke="lightgray" x1="240.10745175934122" y1="155.5206692945879" x2="229.68180968037674" y2="187.11322452289593"></line><line stroke-width="1.0507813727454125" stroke="lightgray" x1="240.10745175934122" y1="155.5206692945879" x2="276.17768626945394" y2="191.62336243228756"></line><line stroke-width="1.0507813727454125" stroke="lightgray" x1="23.56605129307338" y1="316.15070523103117" x2="119.63881860862628" y2="225.28294416104288"></line><line stroke-width="2.101562745490825" stroke="lightgray" x1="23.56605129307338" y1="316.15070523103117" x2="43.74239837839905" y2="340.09002071834306"></line><line stroke-width="1.0507813727454125" stroke="lightgray" x1="23.56605129307338" y1="316.15070523103117" x2="75.23211486364636" y2="296.94900210052606"></line><line stroke-width="1.486029268425581" stroke="lightgray" x1="127.03392567592246" y1="235.68782021821372" x2="158.34302436425776" y2="257.1884776424564"></line><line stroke-width="1.486029268425581" stroke="lightgray" x1="127.03392567592246" y1="235.68782021821372" x2="159.71475709354263" y2="223.5729727440811"></line><line stroke-width="4.332482589260858" stroke="lightgray" x1="335.9516426434873" y1="162.81841431613825" x2="229.68180968037674" y2="187.11322452289593"></line><line stroke-width="2.7801061945834253" stroke="lightgray" x1="335.9516426434873" y1="162.81841431613825" x2="439.0742078210636" y2="150.9167172680305"></line><line stroke-width="3.3228624607538806" stroke="lightgray" x1="335.9516426434873" y1="162.81841431613825" x2="356.38917645362767" y2="141.1505933578972"></line><line stroke-width="3.485047550091113" stroke="lightgray" x1="335.9516426434873" y1="162.81841431613825" x2="246.0932207237953" y2="242.05369068382055"></line><line stroke-width="2.101562745490825" stroke="lightgray" x1="335.9516426434873" y1="162.81841431613825" x2="475.0155902512571" y2="159.89116391028298"></line><line stroke-width="1.8200067252420251" stroke="lightgray" x1="335.9516426434873" y1="162.81841431613825" x2="310.731760066011" y2="226.30270950086748"></line><line stroke-width="1.0507813727454125" stroke="lightgray" x1="335.9516426434873" y1="162.81841431613825" x2="422.0181243444722" y2="166.28328919002684"></line><line stroke-width="1.486029268425581" stroke="lightgray" x1="335.9516426434873" y1="162.81841431613825" x2="276.8457910627082" y2="120.47487211058098"></line><line stroke-width="1.486029268425581" stroke="lightgray" x1="335.9516426434873" y1="162.81841431613825" x2="276.17768626945394" y2="191.62336243228756"></line><line stroke-width="1.0507813727454125" stroke="lightgray" x1="335.9516426434873" y1="162.81841431613825" x2="451.57321597853826" y2="102.18889355642077"></line><line stroke-width="3.788646118736023" stroke="lightgray" x1="762.7577764703994" y1="193.71987791143945" x2="663.8296519402345" y2="176.6376267248359"></line><line stroke-width="3.1523441182362375" stroke="lightgray" x1="762.7577764703994" y1="193.71987791143945" x2="700.6213390370464" y2="167.59748669754168"></line><line stroke-width="1.0507813727454125" stroke="lightgray" x1="762.7577764703994" y1="193.71987791143945" x2="705.3162152364599" y2="141.4292233662641"></line><line stroke-width="2.349618578949287" stroke="lightgray" x1="762.7577764703994" y1="193.71987791143945" x2="735.064123234979" y2="217.74347660961055"></line><line stroke-width="1.0507813727454125" stroke="lightgray" x1="762.7577764703994" y1="193.71987791143945" x2="729.4119157518464" y2="170.96830975724694"></line><line stroke-width="1.8200067252420251" stroke="lightgray" x1="-80.44535650966748" y1="509.5308968208256" x2="-130.05695820639167" y2="597.7964908817587"></line><line stroke-width="2.349618578949287" stroke="lightgray" x1="-80.44535650966748" y1="509.5308968208256" x2="-46.37299688292694" y2="513.7459362773013"></line><line stroke-width="1.486029268425581" stroke="lightgray" x1="276.8457910627082" y1="120.47487211058098" x2="229.68180968037674" y2="187.11322452289593"></line><line stroke-width="2.349618578949287" stroke="lightgray" x1="276.8457910627082" y1="120.47487211058098" x2="439.0742078210636" y2="150.9167172680305"></line><line stroke-width="3.485047550091113" stroke="lightgray" x1="276.8457910627082" y1="120.47487211058098" x2="356.38917645362767" y2="141.1505933578972"></line><line stroke-width="1.8200067252420251" stroke="lightgray" x1="276.8457910627082" y1="120.47487211058098" x2="335.1840553954244" y2="87.50558685870797"></line><line stroke-width="2.573878194447515" stroke="lightgray" x1="276.8457910627082" y1="120.47487211058098" x2="217.52986070325053" y2="252.4835475325329"></line><line stroke-width="1.8200067252420251" stroke="lightgray" x1="276.8457910627082" y1="120.47487211058098" x2="276.17768626945394" y2="191.62336243228756"></line><line stroke-width="1.0507813727454125" stroke="lightgray" x1="276.8457910627082" y1="120.47487211058098" x2="119.63881860862628" y2="225.28294416104288"></line><line stroke-width="1.8200067252420251" stroke="lightgray" x1="43.74239837839905" y1="340.09002071834306" x2="75.23211486364636" y2="296.94900210052606"></line><line stroke-width="2.573878194447515" stroke="lightgray" x1="43.74239837839905" y1="340.09002071834306" x2="113.24378214470592" y2="248.42517183422785"></line><line stroke-width="2.349618578949287" stroke="lightgray" x1="43.74239837839905" y1="340.09002071834306" x2="119.63881860862628" y2="225.28294416104288"></line><line stroke-width="1.0507813727454125" stroke="lightgray" x1="43.74239837839905" y1="340.09002071834306" x2="139.63526609521634" y2="266.0064979720841"></line><line stroke-width="1.0507813727454125" stroke="lightgray" x1="43.74239837839905" y1="340.09002071834306" x2="185.25475615524525" y2="239.19584731729188"></line><line stroke-width="3.6400134504840502" stroke="lightgray" x1="185.25475615524525" y1="239.19584731729188" x2="229.68180968037674" y2="187.11322452289593"></line><line stroke-width="3.3228624607538806" stroke="lightgray" x1="185.25475615524525" y1="239.19584731729188" x2="75.23211486364636" y2="296.94900210052606"></line><line stroke-width="1.0507813727454125" stroke="lightgray" x1="185.25475615524525" y1="239.19584731729188" x2="310.731760066011" y2="226.30270950086748"></line><line stroke-width="1.8200067252420251" stroke="lightgray" x1="185.25475615524525" y1="239.19584731729188" x2="139.63526609521634" y2="266.0064979720841"></line><line stroke-width="1.0507813727454125" stroke="lightgray" x1="185.25475615524525" y1="239.19584731729188" x2="158.34302436425776" y2="257.1884776424564"></line><line stroke-width="1.486029268425581" stroke="lightgray" x1="185.25475615524525" y1="239.19584731729188" x2="113.24378214470592" y2="248.42517183422785"></line><line stroke-width="1.0507813727454125" stroke="lightgray" x1="185.25475615524525" y1="239.19584731729188" x2="119.63881860862628" y2="225.28294416104288"></line><line stroke-width="1.0507813727454125" stroke="lightgray" x1="185.25475615524525" y1="239.19584731729188" x2="159.71475709354263" y2="223.5729727440811"></line><line stroke-width="1.0507813727454125" stroke="lightgray" x1="185.25475615524525" y1="239.19584731729188" x2="246.0932207237953" y2="242.05369068382055"></line><line stroke-width="1.0507813727454125" stroke="lightgray" x1="185.25475615524525" y1="239.19584731729188" x2="217.52986070325053" y2="252.4835475325329"></line><line stroke-width="1.486029268425581" stroke="lightgray" x1="185.25475615524525" y1="239.19584731729188" x2="257.1288574433454" y2="196.45654459905984"></line><line stroke-width="1.486029268425581" stroke="lightgray" x1="185.25475615524525" y1="239.19584731729188" x2="356.38917645362767" y2="141.1505933578972"></line><line stroke-width="2.349618578949287" stroke="lightgray" x1="-120.56078584960424" y1="621.5148604945848" x2="-130.05695820639167" y2="597.7964908817587"></line><line stroke-width="2.349618578949287" stroke="lightgray" x1="-120.56078584960424" y1="621.5148604945848" x2="-141.23112040363247" y2="635.2424598078499"></line><line stroke-width="3.788646118736023" stroke="lightgray" x1="158.34302436425776" y1="257.1884776424564" x2="75.23211486364636" y2="296.94900210052606"></line><line stroke-width="3.485047550091113" stroke="lightgray" x1="158.34302436425776" y1="257.1884776424564" x2="159.71475709354263" y2="223.5729727440811"></line><line stroke-width="1.486029268425581" stroke="lightgray" x1="158.34302436425776" y1="257.1884776424564" x2="246.0932207237953" y2="242.05369068382055"></line><line stroke-width="2.972058536851162" stroke="lightgray" x1="89.51549980055695" y1="201.03033486366292" x2="75.23211486364636" y2="296.94900210052606"></line><line stroke-width="1.8200067252420251" stroke="lightgray" x1="89.51549980055695" y1="201.03033486366292" x2="113.24378214470592" y2="248.42517183422785"></line><line stroke-width="1.8200067252420251" stroke="lightgray" x1="89.51549980055695" y1="201.03033486366292" x2="229.68180968037674" y2="187.11322452289593"></line><line stroke-width="1.8200067252420251" stroke="lightgray" x1="185.35584261388732" y1="315.8676699922773" x2="229.68180968037674" y2="187.11322452289593"></line><line stroke-width="1.486029268425581" stroke="lightgray" x1="185.35584261388732" y1="315.8676699922773" x2="246.0932207237953" y2="242.05369068382055"></line><line stroke-width="1.0507813727454125" stroke="lightgray" x1="185.35584261388732" y1="315.8676699922773" x2="217.52986070325053" y2="252.4835475325329"></line><line stroke-width="1.0507813727454125" stroke="lightgray" x1="185.35584261388732" y1="315.8676699922773" x2="310.731760066011" y2="226.30270950086748"></line><line stroke-width="1.0507813727454125" stroke="lightgray" x1="185.35584261388732" y1="315.8676699922773" x2="276.17768626945394" y2="191.62336243228756"></line><line stroke-width="1.0507813727454125" stroke="lightgray" x1="402.8063730226477" y1="109.04184038713413" x2="356.38917645362767" y2="141.1505933578972"></line><line stroke-width="1.0507813727454125" stroke="lightgray" x1="402.8063730226477" y1="109.04184038713413" x2="335.1840553954244" y2="87.50558685870797"></line><line stroke-width="1.0507813727454125" stroke="lightgray" x1="402.8063730226477" y1="109.04184038713413" x2="451.57321597853826" y2="102.18889355642077"></line><line stroke-width="1.0507813727454125" stroke="lightgray" x1="402.8063730226477" y1="109.04184038713413" x2="439.0742078210636" y2="150.9167172680305"></line><line stroke-width="1.486029268425581" stroke="lightgray" x1="402.8063730226477" y1="109.04184038713413" x2="475.0155902512571" y2="159.89116391028298"></line><line stroke-width="2.349618578949287" stroke="lightgray" x1="705.3162152364599" y1="141.4292233662641" x2="575.3730026142175" y2="137.98051290367818"></line><line stroke-width="1.8200067252420251" stroke="lightgray" x1="705.3162152364599" y1="141.4292233662641" x2="700.6213390370464" y2="167.59748669754168"></line><line stroke-width="1.8200067252420251" stroke="lightgray" x1="705.3162152364599" y1="141.4292233662641" x2="663.8296519402345" y2="176.6376267248359"></line><line stroke-width="2.573878194447515" stroke="lightgray" x1="422.0181243444722" y1="166.28328919002684" x2="439.0742078210636" y2="150.9167172680305"></line><line stroke-width="1.8200067252420251" stroke="lightgray" x1="422.0181243444722" y1="166.28328919002684" x2="475.0155902512571" y2="159.89116391028298"></line><line stroke-width="2.349618578949287" stroke="lightgray" x1="414.4941889693573" y1="92.6977526593795" x2="356.38917645362767" y2="141.1505933578972"></line><line stroke-width="1.0507813727454125" stroke="lightgray" x1="414.4941889693573" y1="92.6977526593795" x2="439.0742078210636" y2="150.9167172680305"></line><line stroke-width="2.349618578949287" stroke="lightgray" x1="336.17892894874655" y1="188.31307160398194" x2="356.38917645362767" y2="141.1505933578972"></line><line stroke-width="1.0507813727454125" stroke="lightgray" x1="336.17892894874655" y1="188.31307160398194" x2="276.17768626945394" y2="191.62336243228756"></line><line stroke-width="1.486029268425581" stroke="lightgray" x1="-175.60263660681068" y1="613.7054156053565" x2="-130.05695820639167" y2="597.7964908817587"></line><line stroke-width="1.486029268425581" stroke="lightgray" x1="-175.60263660681068" y1="613.7054156053565" x2="-141.23112040363247" y2="635.2424598078499"></line><line stroke-width="1.0507813727454125" stroke="lightgray" x1="677.6773823709644" y1="147.06754975741993" x2="475.0155902512571" y2="159.89116391028298"></line><line stroke-width="1.0507813727454125" stroke="lightgray" x1="677.6773823709644" y1="147.06754975741993" x2="729.4119157518464" y2="170.96830975724694"></line><line stroke-width="1.486029268425581" stroke="lightgray" x1="150.59850499615146" y1="196.2855621503277" x2="113.24378214470592" y2="248.42517183422785"></line><line stroke-width="1.0507813727454125" stroke="lightgray" x1="150.59850499615146" y1="196.2855621503277" x2="119.63881860862628" y2="225.28294416104288"></line><line stroke-width="1.0507813727454125" stroke="lightgray" x1="150.59850499615146" y1="196.2855621503277" x2="229.68180968037674" y2="187.11322452289593"></line><line stroke-width="1.486029268425581" stroke="lightgray" x1="353.7492621812049" y1="193.74317814916958" x2="229.68180968037674" y2="187.11322452289593"></line><line stroke-width="1.486029268425581" stroke="lightgray" x1="353.7492621812049" y1="193.74317814916958" x2="439.0742078210636" y2="150.9167172680305"></line><line stroke-width="1.0507813727454125" stroke="lightgray" x1="353.7492621812049" y1="193.74317814916958" x2="246.0932207237953" y2="242.05369068382055"></line><line stroke-width="1.0507813727454125" stroke="lightgray" x1="353.7492621812049" y1="193.74317814916958" x2="310.731760066011" y2="226.30270950086748"></line><line stroke-width="1.0507813727454125" stroke="lightgray" x1="353.7492621812049" y1="193.74317814916958" x2="475.0155902512571" y2="159.89116391028298"></line><line stroke-width="1.0507813727454125" stroke="lightgray" x1="457.60763196714873" y1="11.298357603236123" x2="451.57321597853826" y2="102.18889355642077"></line><line stroke-width="1.0507813727454125" stroke="lightgray" x1="284.20235464284116" y1="151.2786603775281" x2="229.68180968037674" y2="187.11322452289593"></line><line stroke-width="1.486029268425581" stroke="lightgray" x1="284.20235464284116" y1="151.2786603775281" x2="246.0932207237953" y2="242.05369068382055"></line><line stroke-width="2.972058536851162" stroke="lightgray" x1="356.38917645362767" y1="141.1505933578972" x2="229.68180968037674" y2="187.11322452289593"></line><line stroke-width="1.486029268425581" stroke="lightgray" x1="356.38917645362767" y1="141.1505933578972" x2="439.0742078210636" y2="150.9167172680305"></line><line stroke-width="1.8200067252420251" stroke="lightgray" x1="356.38917645362767" y1="141.1505933578972" x2="475.0155902512571" y2="159.89116391028298"></line><line stroke-width="2.573878194447515" stroke="lightgray" x1="356.38917645362767" y1="141.1505933578972" x2="276.17768626945394" y2="191.62336243228756"></line><line stroke-width="1.0507813727454125" stroke="lightgray" x1="356.38917645362767" y1="141.1505933578972" x2="451.57321597853826" y2="102.18889355642077"></line><line stroke-width="1.0507813727454125" stroke="lightgray" x1="356.38917645362767" y1="141.1505933578972" x2="257.1288574433454" y2="196.45654459905984"></line><line stroke-width="3.6400134504840502" stroke="lightgray" x1="75.23211486364636" y1="296.94900210052606" x2="159.71475709354263" y2="223.5729727440811"></line><line stroke-width="1.8200067252420251" stroke="lightgray" x1="75.23211486364636" y1="296.94900210052606" x2="113.24378214470592" y2="248.42517183422785"></line><line stroke-width="1.8200067252420251" stroke="lightgray" x1="75.23211486364636" y1="296.94900210052606" x2="229.68180968037674" y2="187.11322452289593"></line><line stroke-width="1.486029268425581" stroke="lightgray" x1="439.0742078210636" y1="150.9167172680305" x2="229.68180968037674" y2="187.11322452289593"></line><line stroke-width="1.0507813727454125" stroke="lightgray" x1="439.0742078210636" y1="150.9167172680305" x2="310.731760066011" y2="226.30270950086748"></line><line stroke-width="4.20312549098165" stroke="lightgray" x1="439.0742078210636" y1="150.9167172680305" x2="475.0155902512571" y2="159.89116391028298"></line><line stroke-width="3.1523441182362375" stroke="lightgray" x1="439.0742078210636" y1="150.9167172680305" x2="575.3730026142175" y2="137.98051290367818"></line><line stroke-width="1.0507813727454125" stroke="lightgray" x1="439.0742078210636" y1="150.9167172680305" x2="451.57321597853826" y2="102.18889355642077"></line><line stroke-width="1.0507813727454125" stroke="lightgray" x1="439.0742078210636" y1="150.9167172680305" x2="663.8296519402345" y2="176.6376267248359"></line><line stroke-width="3.931663885217335" stroke="lightgray" x1="246.0932207237953" y1="242.05369068382055" x2="229.68180968037674" y2="187.11322452289593"></line><line stroke-width="1.0507813727454125" stroke="lightgray" x1="246.0932207237953" y1="242.05369068382055" x2="310.731760066011" y2="226.30270950086748"></line><line stroke-width="1.0507813727454125" stroke="lightgray" x1="246.0932207237953" y1="242.05369068382055" x2="159.71475709354263" y2="223.5729727440811"></line><line stroke-width="1.0507813727454125" stroke="lightgray" x1="246.0932207237953" y1="242.05369068382055" x2="257.1288574433454" y2="196.45654459905984"></line><line stroke-width="1.486029268425581" stroke="lightgray" x1="700.6213390370464" y1="167.59748669754168" x2="575.3730026142175" y2="137.98051290367818"></line><line stroke-width="1.8200067252420251" stroke="lightgray" x1="700.6213390370464" y1="167.59748669754168" x2="663.8296519402345" y2="176.6376267248359"></line><line stroke-width="1.486029268425581" stroke="lightgray" x1="217.52986070325053" y1="252.4835475325329" x2="229.68180968037674" y2="187.11322452289593"></line><line stroke-width="1.8200067252420251" stroke="lightgray" x1="217.52986070325053" y1="252.4835475325329" x2="276.17768626945394" y2="191.62336243228756"></line><line stroke-width="2.101562745490825" stroke="lightgray" x1="119.63881860862628" y1="225.28294416104288" x2="113.24378214470592" y2="248.42517183422785"></line><line stroke-width="1.0507813727454125" stroke="lightgray" x1="139.63526609521634" y1="266.0064979720841" x2="113.24378214470592" y2="248.42517183422785"></line><line stroke-width="1.0507813727454125" stroke="lightgray" x1="139.63526609521634" y1="266.0064979720841" x2="229.68180968037674" y2="187.11322452289593"></line><line stroke-width="1.0507813727454125" stroke="lightgray" x1="735.064123234979" y1="217.74347660961055" x2="663.8296519402345" y2="176.6376267248359"></line><line stroke-width="1.0507813727454125" stroke="lightgray" x1="729.4119157518464" y1="170.96830975724694" x2="663.8296519402345" y2="176.6376267248359"></line><line stroke-width="1.0507813727454125" stroke="lightgray" x1="-141.23112040363247" y1="635.2424598078499" x2="-130.05695820639167" y2="597.7964908817587"></line><line stroke-width="1.8200067252420251" stroke="lightgray" x1="635.1481054797362" y1="134.1147889906043" x2="575.3730026142175" y2="137.98051290367818"></line><line stroke-width="1.0507813727454125" stroke="lightgray" x1="635.1481054797362" y1="134.1147889906043" x2="663.8296519402345" y2="176.6376267248359"></line><line stroke-width="4.580249815552198" stroke="lightgray" x1="575.3730026142175" y1="137.98051290367818" x2="475.0155902512571" y2="159.89116391028298"></line><line stroke-width="1.0507813727454125" stroke="lightgray" x1="575.3730026142175" y1="137.98051290367818" x2="451.57321597853826" y2="102.18889355642077"></line><line stroke-width="1.0507813727454125" stroke="lightgray" x1="575.3730026142175" y1="137.98051290367818" x2="663.8296519402345" y2="176.6376267248359"></line><line stroke-width="4.699237157898574" stroke="lightgray" x1="451.57321597853826" y1="102.18889355642077" x2="475.0155902512571" y2="159.89116391028298"></line><line stroke-width="3.1523441182362375" stroke="lightgray" x1="276.17768626945394" y1="191.62336243228756" x2="229.68180968037674" y2="187.11322452289593"></line><line stroke-width="2.101562745490825" stroke="lightgray" x1="113.24378214470592" y1="248.42517183422785" x2="229.68180968037674" y2="187.11322452289593"></line><line stroke-width="2.349618578949287" stroke="lightgray" x1="310.731760066011" y1="226.30270950086748" x2="229.68180968037674" y2="187.11322452289593"></line><line stroke-width="1.0507813727454125" stroke="lightgray" x1="310.731760066011" y1="226.30270950086748" x2="475.0155902512571" y2="159.89116391028298"></line><line stroke-width="1.486029268425581" stroke="lightgray" x1="159.71475709354263" y1="223.5729727440811" x2="229.68180968037674" y2="187.11322452289593"></line><line stroke-width="2.101562745490825" stroke="lightgray" x1="257.1288574433454" y1="196.45654459905984" x2="229.68180968037674" y2="187.11322452289593"></line><line stroke-width="1.0507813727454125" stroke="lightgray" x1="475.0155902512571" y1="159.89116391028298" x2="663.8296519402345" y2="176.6376267248359"></line></g><g class="nodes"><circle r="4.20312549098165" fill="rgb(254, 233, 211)" stroke="black" stroke-width="1px" transform="translate(-28.9498056176598,526.5806011923339)"></circle><circle r="4.20312549098165" fill="rgb(254, 236, 218)" stroke="black" stroke-width="1px" transform="translate(383.884181455785,149.96711992606882)"></circle><circle r="4.20312549098165" fill="rgb(255, 239, 224)" stroke="black" stroke-width="1px" transform="translate(751.3232546761578,84.44504657795072)"></circle><circle r="3.6400134504840502" fill="rgb(255, 238, 221)" stroke="black" stroke-width="1px" transform="translate(817.4691669988154,84.1882757453905)"></circle><circle r="3.6400134504840502" fill="rgb(254, 234, 214)" stroke="black" stroke-width="1px" transform="translate(-226.68077626095595,580.5379615844537)"></circle><circle r="2.972058536851162" fill="rgb(254, 233, 213)" stroke="black" stroke-width="1px" transform="translate(-69.77951210929014,395.75363880444564)"></circle><circle r="2.972058536851162" fill="rgb(255, 238, 221)" stroke="black" stroke-width="1px" transform="translate(-36.99213901429104,449.03644218890645)"></circle><circle r="2.972058536851162" fill="rgb(254, 231, 208)" stroke="black" stroke-width="1px" transform="translate(56.492965913897045,455.9004637562189)"></circle><circle r="2.972058536851162" fill="rgb(254, 230, 205)" stroke="black" stroke-width="1px" transform="translate(754.4408616099885,73.23586891442292)"></circle><circle r="2.972058536851162" fill="rgb(255, 239, 222)" stroke="black" stroke-width="1px" transform="translate(128.4481801000741,387.5510320414229)"></circle><circle r="2.972058536851162" fill="rgb(254, 232, 209)" stroke="black" stroke-width="1px" transform="translate(-119.76130816255377,545.6497568708132)"></circle><circle r="2.101562745490825" fill="rgb(254, 232, 210)" stroke="black" stroke-width="1px" transform="translate(-27.97016746377708,431.3832001567045)"></circle><circle r="2.101562745490825" fill="rgb(254, 235, 215)" stroke="black" stroke-width="1px" transform="translate(358.26740058227864,174.1057213214244)"></circle><circle r="2.101562745490825" fill="rgb(254, 230, 205)" stroke="black" stroke-width="1px" transform="translate(391.4545682888,99.8968495628142)"></circle><circle r="2.101562745490825" fill="rgb(254, 235, 215)" stroke="black" stroke-width="1px" transform="translate(316.58501669092954,86.47183432237595)"></circle><circle r="2.101562745490825" fill="rgb(254, 231, 208)" stroke="black" stroke-width="1px" transform="translate(179.2720678639851,149.02072317052887)"></circle><circle r="2.101562745490825" fill="rgb(254, 229, 205)" stroke="black" stroke-width="1px" transform="translate(63.08799446801028,165.64595469587886)"></circle><circle r="2.101562745490825" fill="rgb(255, 238, 222)" stroke="black" stroke-width="1px" transform="translate(103.82868467892001,409.3336162905579)"></circle><circle r="2.101562745490825" fill="rgb(254, 232, 210)" stroke="black" stroke-width="1px" transform="translate(351.087503639556,65.78295628857678)"></circle><circle r="2.101562745490825" fill="rgb(254, 232, 211)" stroke="black" stroke-width="1px" transform="translate(326.18432964221694,109.76144825486396)"></circle><circle r="2.101562745490825" fill="rgb(255, 241, 228)" stroke="black" stroke-width="1px" transform="translate(280.3972294125003,54.998949354303655)"></circle><circle r="2.101562745490825" fill="rgb(255, 240, 225)" stroke="black" stroke-width="1px" transform="translate(367.6189177392831,70.39192752968955)"></circle><circle r="2.101562745490825" fill="rgb(254, 231, 208)" stroke="black" stroke-width="1px" transform="translate(742.9935620608042,133.22257551329793)"></circle><circle r="2.101562745490825" fill="rgb(254, 230, 206)" stroke="black" stroke-width="1px" transform="translate(7.351120786097184,483.87742030662)"></circle><circle r="2.101562745490825" fill="rgb(254, 232, 210)" stroke="black" stroke-width="1px" transform="translate(-86.08746898318628,458.6974287313921)"></circle><circle r="2.101562745490825" fill="rgb(254, 236, 217)" stroke="black" stroke-width="1px" transform="translate(746.1006250193363,113.41550613701165)"></circle><circle r="2.101562745490825" fill="rgb(254, 230, 205)" stroke="black" stroke-width="1px" transform="translate(-82.99715328068221,623.4757034821848)"></circle><circle r="2.101562745490825" fill="rgb(254, 230, 205)" stroke="black" stroke-width="1px" transform="translate(-108.46659757642892,595.14894675549)"></circle><circle r="8.139317514295902" fill="rgb(253, 217, 181)" stroke="black" stroke-width="1px" transform="translate(-72.75778434870175,563.218945619256)"></circle><circle r="7.2800269009681005" fill="rgb(254, 218, 183)" stroke="black" stroke-width="1px" transform="translate(777.31547742635,98.45806614848306)"></circle><circle r="6.970095100182226" fill="rgb(253, 214, 175)" stroke="black" stroke-width="1px" transform="translate(352.93780833190556,114.25794364165094)"></circle><circle r="6.970095100182226" fill="rgb(254, 219, 184)" stroke="black" stroke-width="1px" transform="translate(5.830039965236081,445.88413536622335)"></circle><circle r="6.304688236472475" fill="rgb(253, 213, 173)" stroke="black" stroke-width="1px" transform="translate(-30.20449714458499,468.23965200778815)"></circle><circle r="5.944117073702324" fill="rgb(253, 217, 180)" stroke="black" stroke-width="1px" transform="translate(344.7698526903349,101.37333942764461)"></circle><circle r="5.944117073702324" fill="rgb(254, 220, 186)" stroke="black" stroke-width="1px" transform="translate(307.5754760677841,141.4048116360396)"></circle><circle r="5.560212389166851" fill="rgb(254, 220, 187)" stroke="black" stroke-width="1px" transform="translate(-37.75172887483177,487.3889046029994)"></circle><circle r="5.14775638889503" fill="rgb(254, 218, 183)" stroke="black" stroke-width="1px" transform="translate(-32.04738669364717,413.9234184632771)"></circle><circle r="4.699237157898574" fill="rgb(253, 216, 179)" stroke="black" stroke-width="1px" transform="translate(312.29047466459207,127.65720992848968)"></circle><circle r="4.20312549098165" fill="rgb(254, 219, 185)" stroke="black" stroke-width="1px" transform="translate(372.3609622778822,101.81829906772685)"></circle><circle r="3.6400134504840502" fill="rgb(253, 216, 178)" stroke="black" stroke-width="1px" transform="translate(118.39069167242883,375.8162939785633)"></circle><circle r="3.6400134504840502" fill="rgb(254, 220, 185)" stroke="black" stroke-width="1px" transform="translate(300.4369037859806,98.11014228342613)"></circle><circle r="2.972058536851162" fill="rgb(253, 213, 173)" stroke="black" stroke-width="1px" transform="translate(152.06240356289797,359.3323738649551)"></circle><circle r="2.972058536851162" fill="rgb(253, 213, 173)" stroke="black" stroke-width="1px" transform="translate(174.41777172880612,187.30084030808268)"></circle><circle r="2.972058536851162" fill="rgb(253, 216, 178)" stroke="black" stroke-width="1px" transform="translate(96.40791711739013,365.3603846601736)"></circle><circle r="2.972058536851162" fill="rgb(253, 213, 172)" stroke="black" stroke-width="1px" transform="translate(53.36202207679739,364.5689106570998)"></circle><circle r="2.972058536851162" fill="rgb(253, 213, 172)" stroke="black" stroke-width="1px" transform="translate(46.35652709846022,246.02672254571365)"></circle><circle r="2.972058536851162" fill="rgb(254, 220, 187)" stroke="black" stroke-width="1px" transform="translate(-186.23092439155778,563.2845188653574)"></circle><circle r="2.972058536851162" fill="rgb(253, 210, 167)" stroke="black" stroke-width="1px" transform="translate(-146.74983541433602,553.4100468728253)"></circle><circle r="2.972058536851162" fill="rgb(254, 218, 183)" stroke="black" stroke-width="1px" transform="translate(257.00820455702757,259.25964266632235)"></circle><circle r="2.972058536851162" fill="rgb(253, 209, 166)" stroke="black" stroke-width="1px" transform="translate(772.102194651695,157.17190794396393)"></circle><circle r="2.101562745490825" fill="rgb(254, 222, 191)" stroke="black" stroke-width="1px" transform="translate(420.77394993370257,-6.147167752696322)"></circle><circle r="2.101562745490825" fill="rgb(254, 220, 187)" stroke="black" stroke-width="1px" transform="translate(365.47581682182926,210.00564443248186)"></circle><circle r="2.101562745490825" fill="rgb(253, 214, 175)" stroke="black" stroke-width="1px" transform="translate(311.94153669531335,61.313319654371796)"></circle><circle r="2.101562745490825" fill="rgb(254, 224, 195)" stroke="black" stroke-width="1px" transform="translate(35.328936450787154,227.80589250483732)"></circle><circle r="2.101562745490825" fill="rgb(254, 221, 188)" stroke="black" stroke-width="1px" transform="translate(269.622858882561,210.95334303361236)"></circle><circle r="2.101562745490825" fill="rgb(253, 218, 182)" stroke="black" stroke-width="1px" transform="translate(-110.69534623686519,653.6768474464842)"></circle><circle r="2.101562745490825" fill="rgb(254, 227, 200)" stroke="black" stroke-width="1px" transform="translate(52.549048061147516,175.9413300666627)"></circle><circle r="2.101562745490825" fill="rgb(253, 212, 170)" stroke="black" stroke-width="1px" transform="translate(-17.97376418709506,366.3632330295404)"></circle><circle r="2.101562745490825" fill="rgb(254, 226, 199)" stroke="black" stroke-width="1px" transform="translate(29.32512576363402,384.53172662236875)"></circle><circle r="2.101562745490825" fill="rgb(253, 208, 163)" stroke="black" stroke-width="1px" transform="translate(800.4654210169568,191.133730384897)"></circle><circle r="2.101562745490825" fill="rgb(253, 211, 170)" stroke="black" stroke-width="1px" transform="translate(437.72917818211715,33.94619047642147)"></circle><circle r="2.101562745490825" fill="rgb(254, 219, 183)" stroke="black" stroke-width="1px" transform="translate(224.36833545247597,220.89798565081676)"></circle><circle r="2.101562745490825" fill="rgb(254, 221, 188)" stroke="black" stroke-width="1px" transform="translate(378.7259197289808,193.2898098678465)"></circle><circle r="2.101562745490825" fill="rgb(253, 208, 163)" stroke="black" stroke-width="1px" transform="translate(313.79973988787793,110.8768261599094)"></circle><circle r="2.101562745490825" fill="rgb(254, 218, 183)" stroke="black" stroke-width="1px" transform="translate(-161.24220146568675,520.3334005342714)"></circle><circle r="2.101562745490825" fill="rgb(253, 214, 174)" stroke="black" stroke-width="1px" transform="translate(438.4072250548526,124.41825950988171)"></circle><circle r="2.101562745490825" fill="rgb(254, 218, 183)" stroke="black" stroke-width="1px" transform="translate(424.16559810302624,4.130764372294911)"></circle><circle r="2.101562745490825" fill="rgb(254, 222, 190)" stroke="black" stroke-width="1px" transform="translate(104.74300100225466,278.47286961631704)"></circle><circle r="2.101562745490825" fill="rgb(253, 206, 161)" stroke="black" stroke-width="1px" transform="translate(715.098893027808,215.0549008224678)"></circle><circle r="2.101562745490825" fill="rgb(253, 217, 181)" stroke="black" stroke-width="1px" transform="translate(45.57824233785392,203.310056557313)"></circle><circle r="2.101562745490825" fill="rgb(254, 225, 196)" stroke="black" stroke-width="1px" transform="translate(341.6153196487848,218.50170246097)"></circle><circle r="9.63057035891092" fill="rgb(253, 189, 132)" stroke="black" stroke-width="1px" transform="translate(373.6061143651018,128.94387086003772)"></circle><circle r="8.664965178521715" fill="rgb(253, 192, 137)" stroke="black" stroke-width="1px" transform="translate(393.4021718025389,52.28810742992467)"></circle><circle r="8.4062509819633" fill="rgb(253, 187, 128)" stroke="black" stroke-width="1px" transform="translate(-143.10951052486266,578.4610498180327)"></circle><circle r="8.139317514295902" fill="rgb(253, 193, 137)" stroke="black" stroke-width="1px" transform="translate(51.66354640308484,418.0729216001891)"></circle><circle r="7.86332777043467" fill="rgb(253, 192, 136)" stroke="black" stroke-width="1px" transform="translate(314.8354009782905,170.38839339477533)"></circle><circle r="6.970095100182226" fill="rgb(253, 193, 138)" stroke="black" stroke-width="1px" transform="translate(-57.46220458916633,440.19123601637153)"></circle><circle r="6.645724921507761" fill="rgb(253, 188, 129)" stroke="black" stroke-width="1px" transform="translate(751.9068950969344,174.84197526843863)"></circle><circle r="6.645724921507761" fill="rgb(253, 193, 138)" stroke="black" stroke-width="1px" transform="translate(-86.02912435347969,589.0137692564273)"></circle><circle r="6.304688236472475" fill="rgb(253, 191, 135)" stroke="black" stroke-width="1px" transform="translate(-119.88394898844945,519.4910238933338)"></circle><circle r="5.944117073702324" fill="rgb(253, 195, 142)" stroke="black" stroke-width="1px" transform="translate(713.5074792059468,113.72966834087843)"></circle><circle r="5.560212389166851" fill="rgb(253, 192, 136)" stroke="black" stroke-width="1px" transform="translate(77.21947286872167,241.97138307307966)"></circle><circle r="4.699237157898574" fill="rgb(253, 190, 132)" stroke="black" stroke-width="1px" transform="translate(204.07070659987355,184.95903340197273)"></circle><circle r="3.6400134504840502" fill="rgb(253, 194, 139)" stroke="black" stroke-width="1px" transform="translate(724.9398825186869,195.1516139648496)"></circle><circle r="2.972058536851162" fill="rgb(253, 190, 133)" stroke="black" stroke-width="1px" transform="translate(191.9311492028852,220.7779183872495)"></circle><circle r="2.972058536851162" fill="rgb(253, 190, 134)" stroke="black" stroke-width="1px" transform="translate(205.1793263516254,209.63169994570177)"></circle><circle r="2.101562745490825" fill="rgb(253, 202, 152)" stroke="black" stroke-width="1px" transform="translate(181.01966543229358,272.3072296514954)"></circle><circle r="2.101562745490825" fill="rgb(253, 191, 135)" stroke="black" stroke-width="1px" transform="translate(409.07091522957336,142.32843880282505)"></circle><circle r="2.101562745490825" fill="rgb(253, 177, 112)" stroke="black" stroke-width="1px" transform="translate(328.74769033787646,217.46763786519287)"></circle><circle r="2.101562745490825" fill="rgb(253, 204, 157)" stroke="black" stroke-width="1px" transform="translate(384.88431188590295,83.17278945731742)"></circle><circle r="2.101562745490825" fill="rgb(253, 204, 157)" stroke="black" stroke-width="1px" transform="translate(327.9232723977138,69.91219589607341)"></circle><circle r="2.101562745490825" fill="rgb(253, 191, 135)" stroke="black" stroke-width="1px" transform="translate(540.2496090768043,141.50778485758838)"></circle><circle r="2.101562745490825" fill="rgb(253, 179, 116)" stroke="black" stroke-width="1px" transform="translate(36.2864945500948,291.6135737315779)"></circle><circle r="2.101562745490825" fill="rgb(253, 191, 134)" stroke="black" stroke-width="1px" transform="translate(784.4359799316143,229.619101690456)"></circle><circle r="2.101562745490825" fill="rgb(253, 205, 158)" stroke="black" stroke-width="1px" transform="translate(240.10745175934122,155.5206692945879)"></circle><circle r="2.101562745490825" fill="rgb(253, 182, 120)" stroke="black" stroke-width="1px" transform="translate(23.56605129307338,316.15070523103117)"></circle><circle r="2.101562745490825" fill="rgb(253, 201, 152)" stroke="black" stroke-width="1px" transform="translate(127.03392567592246,235.68782021821372)"></circle><circle r="8.139317514295902" fill="rgb(253, 159, 87)" stroke="black" stroke-width="1px" transform="translate(335.9516426434873,162.81841431613825)"></circle><circle r="7.577292237472046" fill="rgb(253, 161, 90)" stroke="black" stroke-width="1px" transform="translate(762.7577764703994,193.71987791143945)"></circle><circle r="6.970095100182226" fill="rgb(253, 166, 95)" stroke="black" stroke-width="1px" transform="translate(-80.44535650966748,509.5308968208256)"></circle><circle r="6.645724921507761" fill="rgb(252, 153, 77)" stroke="black" stroke-width="1px" transform="translate(276.8457910627082,120.47487211058098)"></circle><circle r="6.304688236472475" fill="rgb(253, 160, 88)" stroke="black" stroke-width="1px" transform="translate(43.74239837839905,340.09002071834306)"></circle><circle r="6.304688236472475" fill="rgb(253, 154, 79)" stroke="black" stroke-width="1px" transform="translate(185.25475615524525,239.19584731729188)"></circle><circle r="5.560212389166851" fill="rgb(253, 154, 79)" stroke="black" stroke-width="1px" transform="translate(-120.56078584960424,621.5148604945848)"></circle><circle r="5.14775638889503" fill="rgb(253, 163, 91)" stroke="black" stroke-width="1px" transform="translate(158.34302436425776,257.1884776424564)"></circle><circle r="5.14775638889503" fill="rgb(253, 158, 84)" stroke="black" stroke-width="1px" transform="translate(89.51549980055695,201.03033486366292)"></circle><circle r="4.20312549098165" fill="rgb(253, 159, 87)" stroke="black" stroke-width="1px" transform="translate(185.35584261388732,315.8676699922773)"></circle><circle r="4.20312549098165" fill="rgb(253, 155, 81)" stroke="black" stroke-width="1px" transform="translate(402.8063730226477,109.04184038713413)"></circle><circle r="4.20312549098165" fill="rgb(253, 160, 87)" stroke="black" stroke-width="1px" transform="translate(705.3162152364599,141.4292233662641)"></circle><circle r="3.6400134504840502" fill="rgb(253, 155, 80)" stroke="black" stroke-width="1px" transform="translate(422.0181243444722,166.28328919002684)"></circle><circle r="3.6400134504840502" fill="rgb(253, 166, 96)" stroke="black" stroke-width="1px" transform="translate(414.4941889693573,92.6977526593795)"></circle><circle r="2.972058536851162" fill="rgb(253, 170, 102)" stroke="black" stroke-width="1px" transform="translate(336.17892894874655,188.31307160398194)"></circle><circle r="2.972058536851162" fill="rgb(253, 168, 98)" stroke="black" stroke-width="1px" transform="translate(-175.60263660681068,613.7054156053565)"></circle><circle r="2.101562745490825" fill="rgb(251, 143, 64)" stroke="black" stroke-width="1px" transform="translate(677.6773823709644,147.06754975741993)"></circle><circle r="2.101562745490825" fill="rgb(253, 174, 107)" stroke="black" stroke-width="1px" transform="translate(150.59850499615146,196.2855621503277)"></circle><circle r="2.101562745490825" fill="rgb(252, 148, 71)" stroke="black" stroke-width="1px" transform="translate(353.7492621812049,193.74317814916958)"></circle><circle r="2.101562745490825" fill="rgb(253, 161, 89)" stroke="black" stroke-width="1px" transform="translate(457.60763196714873,11.298357603236123)"></circle><circle r="2.101562745490825" fill="rgb(253, 164, 93)" stroke="black" stroke-width="1px" transform="translate(284.20235464284116,151.2786603775281)"></circle><circle r="6.970095100182226" fill="rgb(247, 126, 43)" stroke="black" stroke-width="1px" transform="translate(356.38917645362767,141.1505933578972)"></circle><circle r="6.970095100182226" fill="rgb(248, 127, 45)" stroke="black" stroke-width="1px" transform="translate(75.23211486364636,296.94900210052606)"></circle><circle r="6.645724921507761" fill="rgb(247, 125, 42)" stroke="black" stroke-width="1px" transform="translate(439.0742078210636,150.9167172680305)"></circle><circle r="5.14775638889503" fill="rgb(248, 126, 44)" stroke="black" stroke-width="1px" transform="translate(246.0932207237953,242.05369068382055)"></circle><circle r="3.6400134504840502" fill="rgb(246, 123, 40)" stroke="black" stroke-width="1px" transform="translate(700.6213390370464,167.59748669754168)"></circle><circle r="2.972058536851162" fill="rgb(245, 120, 37)" stroke="black" stroke-width="1px" transform="translate(217.52986070325053,252.4835475325329)"></circle><circle r="2.972058536851162" fill="rgb(250, 138, 58)" stroke="black" stroke-width="1px" transform="translate(119.63881860862628,225.28294416104288)"></circle><circle r="2.101562745490825" fill="rgb(249, 132, 50)" stroke="black" stroke-width="1px" transform="translate(139.63526609521634,266.0064979720841)"></circle><circle r="2.101562745490825" fill="rgb(251, 140, 60)" stroke="black" stroke-width="1px" transform="translate(335.1840553954244,87.50558685870797)"></circle><circle r="2.101562745490825" fill="rgb(249, 132, 51)" stroke="black" stroke-width="1px" transform="translate(735.064123234979,217.74347660961055)"></circle><circle r="2.101562745490825" fill="rgb(250, 136, 56)" stroke="black" stroke-width="1px" transform="translate(729.4119157518464,170.96830975724694)"></circle><circle r="2.101562745490825" fill="rgb(250, 138, 58)" stroke="black" stroke-width="1px" transform="translate(-141.23112040363247,635.2424598078499)"></circle><circle r="2.101562745490825" fill="rgb(248, 128, 45)" stroke="black" stroke-width="1px" transform="translate(-46.37299688292694,513.7459362773013)"></circle><circle r="2.101562745490825" fill="rgb(247, 124, 42)" stroke="black" stroke-width="1px" transform="translate(635.1481054797362,134.1147889906043)"></circle><circle r="5.14775638889503" fill="rgb(230, 91, 12)" stroke="black" stroke-width="1px" transform="translate(575.3730026142175,137.98051290367818)"></circle><circle r="4.20312549098165" fill="rgb(230, 91, 12)" stroke="black" stroke-width="1px" transform="translate(451.57321597853826,102.18889355642077)"></circle><circle r="3.6400134504840502" fill="rgb(233, 95, 15)" stroke="black" stroke-width="1px" transform="translate(276.17768626945394,191.62336243228756)"></circle><circle r="3.6400134504840502" fill="rgb(229, 90, 12)" stroke="black" stroke-width="1px" transform="translate(113.24378214470592,248.42517183422785)"></circle><circle r="2.972058536851162" fill="rgb(221, 81, 7)" stroke="black" stroke-width="1px" transform="translate(310.731760066011,226.30270950086748)"></circle><circle r="2.972058536851162" fill="rgb(239, 105, 22)" stroke="black" stroke-width="1px" transform="translate(159.71475709354263,223.5729727440811)"></circle><circle r="2.101562745490825" fill="rgb(224, 84, 8)" stroke="black" stroke-width="1px" transform="translate(257.1288574433454,196.45654459905984)"></circle><circle r="6.645724921507761" fill="rgb(203, 69, 3)" stroke="black" stroke-width="1px" transform="translate(475.0155902512571,159.89116391028298)"></circle><circle r="5.944117073702324" fill="rgb(201, 68, 3)" stroke="black" stroke-width="1px" transform="translate(229.68180968037674,187.11322452289593)"></circle><circle r="2.101562745490825" fill="rgb(205, 70, 3)" stroke="black" stroke-width="1px" transform="translate(-130.05695820639167,597.7964908817587)"></circle><circle r="2.101562745490825" fill="rgb(127, 39, 4)" stroke="black" stroke-width="1px" transform="translate(663.8296519402345,176.6376267248359)"></circle></g></g><g><text x="505" y="495" font-family="sans-serif" text-anchor="end" font-size="10px" fill="red">143 nodes</text><text x="505" y="505" font-family="sans-serif" text-anchor="end" font-size="10px" fill="red">470 edges</text></g></svg>