<svg height="512" width="512" style="border-style: solid; border-width: 1px; cursor: auto;" id="figure"><g transform="translate(99.42157434415981,47.85271772854938) scale(0.6561658997250479)"><g class="links"><line stroke-width="3.1418164425683797" stroke="lightgray" x1="321.7625397657905" y1="688.2153238486318" x2="340.95010906790174" y2="653.5788586453772"></line><line stroke-width="1.7038891981713509" stroke="lightgray" x1="338.1279480167539" y1="24.5301481173231" x2="302.0256369857006" y2="135.2684758501359"></line><line stroke-width="1.5240048292955002" stroke="lightgray" x1="338.1279480167539" y1="24.5301481173231" x2="322.87923072966424" y2="38.186558532214015"></line><line stroke-width="2.851151963506334" stroke="lightgray" x1="338.1279480167539" y1="24.5301481173231" x2="365.2904929170491" y2="-18.230900854626128"></line><line stroke-width="1.31982689766007" stroke="lightgray" x1="338.1279480167539" y1="24.5301481173231" x2="359.52853221665106" y2="29.17716717599686"></line><line stroke-width="0.7620024146477501" stroke="lightgray" x1="338.1279480167539" y1="24.5301481173231" x2="283.7703398499523" y2="1.2649873784763248"></line><line stroke-width="0.7620024146477501" stroke="lightgray" x1="338.1279480167539" y1="24.5301481173231" x2="320.3753066702229" y2="-13.735635866721005"></line><line stroke-width="0.7620024146477501" stroke="lightgray" x1="256.942317922022" y1="20.755178510085845" x2="189.17062337089965" y2="65.39663270892095"></line><line stroke-width="1.31982689766007" stroke="lightgray" x1="256.942317922022" y1="20.755178510085845" x2="283.7703398499523" y2="1.2649873784763248"></line><line stroke-width="2.2860072439432506" stroke="lightgray" x1="256.942317922022" y1="20.755178510085845" x2="275.21704684432206" y2="83.00368799124735"></line><line stroke-width="1.0776341493558952" stroke="lightgray" x1="256.942317922022" y1="20.755178510085845" x2="320.3753066702229" y2="-13.735635866721005"></line><line stroke-width="1.0776341493558952" stroke="lightgray" x1="208.2656110455616" y1="303.50584179419644" x2="183.60310950577366" y2="299.3095534589961"></line><line stroke-width="1.31982689766007" stroke="lightgray" x1="208.2656110455616" y1="303.50584179419644" x2="204.94282784270766" y2="348.52132486897415"></line><line stroke-width="0.7620024146477501" stroke="lightgray" x1="208.2656110455616" y1="303.50584179419644" x2="247.50284104959084" y2="258.98211764405664"></line><line stroke-width="2.5272760987314027" stroke="lightgray" x1="368.916766946672" y1="682.6086164675661" x2="340.95010906790174" y2="653.5788586453772"></line><line stroke-width="3.3214915201835207" stroke="lightgray" x1="277.2844829976681" y1="-42.287634627854985" x2="283.7703398499523" y2="1.2649873784763248"></line><line stroke-width="0.7620024146477501" stroke="lightgray" x1="222.51378070835025" y1="312.93451533681144" x2="214.03414478027142" y2="264.16967889833705"></line><line stroke-width="0.7620024146477501" stroke="lightgray" x1="222.51378070835025" y1="312.93451533681144" x2="227.5290221371627" y2="373.3319699990169"></line><line stroke-width="1.5240048292955002" stroke="lightgray" x1="222.51378070835025" y1="312.93451533681144" x2="255.91463085916303" y2="292.485362279081"></line><line stroke-width="1.31982689766007" stroke="lightgray" x1="222.51378070835025" y1="312.93451533681144" x2="204.94282784270766" y2="348.52132486897415"></line><line stroke-width="0.7620024146477501" stroke="lightgray" x1="222.51378070835025" y1="312.93451533681144" x2="183.60310950577366" y2="299.3095534589961"></line><line stroke-width="0.7620024146477501" stroke="lightgray" x1="222.51378070835025" y1="312.93451533681144" x2="261.0299649343855" y2="306.37811656250307"></line><line stroke-width="0.7620024146477501" stroke="lightgray" x1="222.51378070835025" y1="312.93451533681144" x2="247.50284104959084" y2="258.98211764405664"></line><line stroke-width="1.31982689766007" stroke="lightgray" x1="400.34170114955697" y1="16.499560723297325" x2="359.52853221665106" y2="29.17716717599686"></line><line stroke-width="1.0776341493558952" stroke="lightgray" x1="267.0012761580469" y1="-34.029243354707496" x2="320.3753066702229" y2="-13.735635866721005"></line><line stroke-width="0.7620024146477501" stroke="lightgray" x1="267.0012761580469" y1="-34.029243354707496" x2="283.7703398499523" y2="1.2649873784763248"></line><line stroke-width="1.0776341493558952" stroke="lightgray" x1="267.0012761580469" y1="-34.029243354707496" x2="230.2695896011156" y2="24.066526735034632"></line><line stroke-width="1.0776341493558952" stroke="lightgray" x1="293.4086906651531" y1="37.36521615750871" x2="275.21704684432206" y2="83.00368799124735"></line><line stroke-width="0.7620024146477501" stroke="lightgray" x1="293.4086906651531" y1="37.36521615750871" x2="283.7703398499523" y2="1.2649873784763248"></line><line stroke-width="1.866517098655678" stroke="lightgray" x1="278.4235447895831" y1="35.465179885272676" x2="275.21704684432206" y2="83.00368799124735"></line><line stroke-width="0.7620024146477501" stroke="lightgray" x1="278.4235447895831" y1="35.465179885272676" x2="283.7703398499523" y2="1.2649873784763248"></line><line stroke-width="1.866517098655678" stroke="lightgray" x1="314.8869563067031" y1="99.40651663653327" x2="275.21704684432206" y2="83.00368799124735"></line><line stroke-width="1.0776341493558952" stroke="lightgray" x1="314.8869563067031" y1="99.40651663653327" x2="302.0256369857006" y2="135.2684758501359"></line><line stroke-width="1.0776341493558952" stroke="lightgray" x1="241.38159448825257" y1="353.0450222095471" x2="204.94282784270766" y2="348.52132486897415"></line><line stroke-width="1.5240048292955002" stroke="lightgray" x1="241.38159448825257" y1="353.0450222095471" x2="255.91463085916303" y2="292.485362279081"></line><line stroke-width="1.31982689766007" stroke="lightgray" x1="241.38159448825257" y1="353.0450222095471" x2="266.5546917376839" y2="351.7874576906025"></line><line stroke-width="0.7620024146477501" stroke="lightgray" x1="241.38159448825257" y1="353.0450222095471" x2="227.5290221371627" y2="373.3319699990169"></line><line stroke-width="1.5240048292955002" stroke="lightgray" x1="323.7019650924886" y1="-58.18393333784658" x2="320.3753066702229" y2="-13.735635866721005"></line><line stroke-width="1.0776341493558952" stroke="lightgray" x1="247.20970154834978" y1="-3.3958075852130962" x2="320.3753066702229" y2="-13.735635866721005"></line><line stroke-width="1.5240048292955002" stroke="lightgray" x1="247.20970154834978" y1="-3.3958075852130962" x2="283.7703398499523" y2="1.2649873784763248"></line><line stroke-width="1.0776341493558952" stroke="lightgray" x1="247.20970154834978" y1="-3.3958075852130962" x2="189.17062337089965" y2="65.39663270892095"></line><line stroke-width="1.7038891981713509" stroke="lightgray" x1="316.933244185828" y1="355.61542357082504" x2="273.9536634151222" y2="388.3027011501898"></line><line stroke-width="1.0776341493558952" stroke="lightgray" x1="316.933244185828" y1="355.61542357082504" x2="308.00658925453473" y2="305.1459723160241"></line><line stroke-width="0.7620024146477501" stroke="lightgray" x1="257.49102279018837" y1="400.21096822991893" x2="266.5546917376839" y2="351.7874576906025"></line><line stroke-width="0.7620024146477501" stroke="lightgray" x1="257.49102279018837" y1="400.21096822991893" x2="227.5290221371627" y2="373.3319699990169"></line><line stroke-width="0.7620024146477501" stroke="lightgray" x1="256.93631183604185" y1="339.748259619351" x2="255.91463085916303" y2="292.485362279081"></line><line stroke-width="0.7620024146477501" stroke="lightgray" x1="256.93631183604185" y1="339.748259619351" x2="227.5290221371627" y2="373.3319699990169"></line><line stroke-width="1.0776341493558952" stroke="lightgray" x1="222.25795487947113" y1="10.79911137906767" x2="189.17062337089965" y2="65.39663270892095"></line><line stroke-width="0.7620024146477501" stroke="lightgray" x1="222.25795487947113" y1="10.79911137906767" x2="283.7703398499523" y2="1.2649873784763248"></line><line stroke-width="1.31982689766007" stroke="lightgray" x1="34.33622450128563" y1="128.94936826674544" x2="78.41433549267218" y2="132.05355540850167"></line><line stroke-width="1.866517098655678" stroke="lightgray" x1="302.8924807902334" y1="374.32381985488513" x2="266.5546917376839" y2="351.7874576906025"></line><line stroke-width="1.31982689766007" stroke="lightgray" x1="239.3693563106933" y1="277.85403790274376" x2="266.5546917376839" y2="351.7874576906025"></line><line stroke-width="0.7620024146477501" stroke="lightgray" x1="239.3693563106933" y1="277.85403790274376" x2="203.80334719014945" y2="210.2358272235959"></line><line stroke-width="1.866517098655678" stroke="lightgray" x1="347.0517512219331" y1="694.6277285867795" x2="340.95010906790174" y2="653.5788586453772"></line><line stroke-width="0.7620024146477501" stroke="lightgray" x1="252.96572605066547" y1="365.2449935987177" x2="227.5290221371627" y2="373.3319699990169"></line><line stroke-width="0.7620024146477501" stroke="lightgray" x1="252.96572605066547" y1="365.2449935987177" x2="255.91463085916303" y2="292.485362279081"></line><line stroke-width="0.7620024146477501" stroke="lightgray" x1="252.96572605066547" y1="365.2449935987177" x2="273.9536634151222" y2="388.3027011501898"></line><line stroke-width="0.7620024146477501" stroke="lightgray" x1="252.96572605066547" y1="365.2449935987177" x2="204.94282784270766" y2="348.52132486897415"></line><line stroke-width="1.0776341493558952" stroke="lightgray" x1="299.0091916719609" y1="288.8171622025021" x2="255.91463085916303" y2="292.485362279081"></line><line stroke-width="0.7620024146477501" stroke="lightgray" x1="299.0091916719609" y1="288.8171622025021" x2="261.0299649343855" y2="306.37811656250307"></line><line stroke-width="0.7620024146477501" stroke="lightgray" x1="125.46380950141008" y1="156.21134600936722" x2="175.72503007321689" y2="176.35583464403"></line><line stroke-width="0.7620024146477501" stroke="lightgray" x1="125.46380950141008" y1="156.21134600936722" x2="125.51490833897684" y2="128.41879159832297"></line><line stroke-width="0.7620024146477501" stroke="lightgray" x1="263.90782198204283" y1="257.726440601139" x2="214.03414478027142" y2="264.16967889833705"></line><line stroke-width="0.7620024146477501" stroke="lightgray" x1="263.90782198204283" y1="257.726440601139" x2="255.91463085916303" y2="292.485362279081"></line><line stroke-width="1.866517098655678" stroke="lightgray" x1="334.49132484234696" y1="694.346400856258" x2="340.95010906790174" y2="653.5788586453772"></line><line stroke-width="1.0776341493558952" stroke="lightgray" x1="37.93619282440151" y1="113.62732623145884" x2="78.41433549267218" y2="132.05355540850167"></line><line stroke-width="1.0776341493558952" stroke="lightgray" x1="261.3633989289255" y1="52.339786453725715" x2="275.21704684432206" y2="83.00368799124735"></line><line stroke-width="0.7620024146477501" stroke="lightgray" x1="213.88381904607914" y1="323.69226729230957" x2="261.0299649343855" y2="306.37811656250307"></line><line stroke-width="0.7620024146477501" stroke="lightgray" x1="213.88381904607914" y1="323.69226729230957" x2="255.91463085916303" y2="292.485362279081"></line><line stroke-width="0.7620024146477501" stroke="lightgray" x1="213.88381904607914" y1="323.69226729230957" x2="183.60310950577366" y2="299.3095534589961"></line><line stroke-width="0.7620024146477501" stroke="lightgray" x1="213.88381904607914" y1="323.69226729230957" x2="204.94282784270766" y2="348.52132486897415"></line><line stroke-width="0.7620024146477501" stroke="lightgray" x1="294.08455079003585" y1="385.63877105720746" x2="266.5546917376839" y2="351.7874576906025"></line><line stroke-width="0.7620024146477501" stroke="lightgray" x1="280.79129486750236" y1="334.6903742662946" x2="227.5290221371627" y2="373.3319699990169"></line><line stroke-width="0.7620024146477501" stroke="lightgray" x1="280.79129486750236" y1="334.6903742662946" x2="247.50284104959084" y2="258.98211764405664"></line><line stroke-width="1.0776341493558952" stroke="lightgray" x1="280.79129486750236" y1="334.6903742662946" x2="308.00658925453473" y2="305.1459723160241"></line><line stroke-width="0.7620024146477501" stroke="lightgray" x1="280.79129486750236" y1="334.6903742662946" x2="273.9536634151222" y2="388.3027011501898"></line><line stroke-width="2.016068887588669" stroke="lightgray" x1="358.978443106856" y1="691.4129462180899" x2="340.95010906790174" y2="653.5788586453772"></line><line stroke-width="0.7620024146477501" stroke="lightgray" x1="306.97314440582426" y1="614.9979995219494" x2="324.47933801116096" y2="582.2943623246018"></line><line stroke-width="0.7620024146477501" stroke="lightgray" x1="297.03194045993644" y1="-47.03024217623321" x2="320.3753066702229" y2="-13.735635866721005"></line><line stroke-width="1.5240048292955002" stroke="lightgray" x1="297.03194045993644" y1="-47.03024217623321" x2="283.7703398499523" y2="1.2649873784763248"></line><line stroke-width="1.0776341493558952" stroke="lightgray" x1="325.3400315513491" y1="361.8826216966529" x2="273.9536634151222" y2="388.3027011501898"></line><line stroke-width="1.7038891981713509" stroke="lightgray" x1="325.3400315513491" y1="361.8826216966529" x2="308.00658925453473" y2="305.1459723160241"></line><line stroke-width="1.0776341493558952" stroke="lightgray" x1="58.792167988309714" y1="85.43149215219806" x2="96.16093473298821" y2="112.35434031695132"></line><line stroke-width="1.7038891981713509" stroke="lightgray" x1="324.2225405266286" y1="-34.957298860241885" x2="365.2904929170491" y2="-18.230900854626128"></line><line stroke-width="0.7620024146477501" stroke="lightgray" x1="324.2225405266286" y1="-34.957298860241885" x2="283.7703398499523" y2="1.2649873784763248"></line><line stroke-width="1.0776341493558952" stroke="lightgray" x1="328.0641532541946" y1="618.5102066063262" x2="324.47933801116096" y2="582.2943623246018"></line><line stroke-width="1.31982689766007" stroke="lightgray" x1="215.4881787436589" y1="288.639425962386" x2="255.91463085916303" y2="292.485362279081"></line><line stroke-width="1.0776341493558952" stroke="lightgray" x1="215.4881787436589" y1="288.639425962386" x2="183.60310950577366" y2="299.3095534589961"></line><line stroke-width="0.7620024146477501" stroke="lightgray" x1="413.5101479836318" y1="-58.34503211379072" x2="387.87136230080023" y2="-59.931636473274835"></line><line stroke-width="1.5240048292955002" stroke="lightgray" x1="413.5101479836318" y1="-58.34503211379072" x2="365.2904929170491" y2="-18.230900854626128"></line><line stroke-width="1.31982689766007" stroke="lightgray" x1="348.45956262763843" y1="-56.20044838473321" x2="365.2904929170491" y2="-18.230900854626128"></line><line stroke-width="0.7620024146477501" stroke="lightgray" x1="348.45956262763843" y1="-56.20044838473321" x2="320.3753066702229" y2="-13.735635866721005"></line><line stroke-width="1.7038891981713509" stroke="lightgray" x1="365.2904929170491" y1="-18.230900854626128" x2="375.9724998653616" y2="1.2009514921405189"></line><line stroke-width="3.232902448067685" stroke="lightgray" x1="365.2904929170491" y1="-18.230900854626128" x2="387.87136230080023" y2="-59.931636473274835"></line><line stroke-width="2.9512226617005752" stroke="lightgray" x1="365.2904929170491" y1="-18.230900854626128" x2="302.0256369857006" y2="135.2684758501359"></line><line stroke-width="1.5240048292955002" stroke="lightgray" x1="365.2904929170491" y1="-18.230900854626128" x2="322.87923072966424" y2="38.186558532214015"></line><line stroke-width="1.0776341493558952" stroke="lightgray" x1="365.2904929170491" y1="-18.230900854626128" x2="283.7703398499523" y2="1.2649873784763248"></line><line stroke-width="3.8100120732387506" stroke="lightgray" x1="365.2904929170491" y1="-18.230900854626128" x2="320.3753066702229" y2="-13.735635866721005"></line><line stroke-width="0.7620024146477501" stroke="lightgray" x1="365.2904929170491" y1="-18.230900854626128" x2="359.52853221665106" y2="29.17716717599686"></line><line stroke-width="2.016068887588669" stroke="lightgray" x1="365.2904929170491" y1="-18.230900854626128" x2="366.646864354765" y2="-60.60398530642505"></line><line stroke-width="3.0480096585910004" stroke="lightgray" x1="283.7703398499523" y1="1.2649873784763248" x2="302.0256369857006" y2="135.2684758501359"></line><line stroke-width="1.866517098655678" stroke="lightgray" x1="283.7703398499523" y1="1.2649873784763248" x2="322.87923072966424" y2="38.186558532214015"></line><line stroke-width="3.0480096585910004" stroke="lightgray" x1="283.7703398499523" y1="1.2649873784763248" x2="189.17062337089965" y2="65.39663270892095"></line><line stroke-width="1.31982689766007" stroke="lightgray" x1="283.7703398499523" y1="1.2649873784763248" x2="151.6984356044674" y2="111.36045181990661"></line><line stroke-width="2.9512226617005752" stroke="lightgray" x1="283.7703398499523" y1="1.2649873784763248" x2="320.3753066702229" y2="-13.735635866721005"></line><line stroke-width="1.31982689766007" stroke="lightgray" x1="283.7703398499523" y1="1.2649873784763248" x2="275.21704684432206" y2="83.00368799124735"></line><line stroke-width="0.7620024146477501" stroke="lightgray" x1="283.7703398499523" y1="1.2649873784763248" x2="359.52853221665106" y2="29.17716717599686"></line><line stroke-width="0.7620024146477501" stroke="lightgray" x1="275.21704684432206" y1="83.00368799124735" x2="247.50284104959084" y2="258.98211764405664"></line><line stroke-width="3.8100120732387506" stroke="lightgray" x1="275.21704684432206" y1="83.00368799124735" x2="302.0256369857006" y2="135.2684758501359"></line><line stroke-width="1.5240048292955002" stroke="lightgray" x1="275.21704684432206" y1="83.00368799124735" x2="203.80334719014945" y2="210.2358272235959"></line><line stroke-width="2.4096632128349427" stroke="lightgray" x1="275.21704684432206" y1="83.00368799124735" x2="189.17062337089965" y2="65.39663270892095"></line><line stroke-width="1.0776341493558952" stroke="lightgray" x1="275.21704684432206" y1="83.00368799124735" x2="322.87923072966424" y2="38.186558532214015"></line><line stroke-width="1.0776341493558952" stroke="lightgray" x1="275.21704684432206" y1="83.00368799124735" x2="320.3753066702229" y2="-13.735635866721005"></line><line stroke-width="1.0776341493558952" stroke="lightgray" x1="266.5546917376839" y1="351.7874576906025" x2="214.03414478027142" y2="264.16967889833705"></line><line stroke-width="2.63965379532014" stroke="lightgray" x1="266.5546917376839" y1="351.7874576906025" x2="273.9536634151222" y2="388.3027011501898"></line><line stroke-width="2.5272760987314027" stroke="lightgray" x1="266.5546917376839" y1="351.7874576906025" x2="261.0299649343855" y2="306.37811656250307"></line><line stroke-width="0.7620024146477501" stroke="lightgray" x1="266.5546917376839" y1="351.7874576906025" x2="247.50284104959084" y2="258.98211764405664"></line><line stroke-width="1.0776341493558952" stroke="lightgray" x1="266.5546917376839" y1="351.7874576906025" x2="230.83883787867276" y2="344.11614832896987"></line><line stroke-width="1.0776341493558952" stroke="lightgray" x1="266.5546917376839" y1="351.7874576906025" x2="183.60310950577366" y2="299.3095534589961"></line><line stroke-width="1.31982689766007" stroke="lightgray" x1="266.5546917376839" y1="351.7874576906025" x2="220.87134577174257" y2="419.2149252794459"></line><line stroke-width="0.7620024146477501" stroke="lightgray" x1="266.5546917376839" y1="351.7874576906025" x2="255.91463085916303" y2="292.485362279081"></line><line stroke-width="1.7038891981713509" stroke="lightgray" x1="266.5546917376839" y1="351.7874576906025" x2="227.5290221371627" y2="373.3319699990169"></line><line stroke-width="1.5240048292955002" stroke="lightgray" x1="266.5546917376839" y1="351.7874576906025" x2="204.94282784270766" y2="348.52132486897415"></line><line stroke-width="1.7038891981713509" stroke="lightgray" x1="255.91463085916303" y1="292.485362279081" x2="214.03414478027142" y2="264.16967889833705"></line><line stroke-width="2.016068887588669" stroke="lightgray" x1="255.91463085916303" y1="292.485362279081" x2="227.5290221371627" y2="373.3319699990169"></line><line stroke-width="1.31982689766007" stroke="lightgray" x1="255.91463085916303" y1="292.485362279081" x2="203.80334719014945" y2="210.2358272235959"></line><line stroke-width="3.0480096585910004" stroke="lightgray" x1="255.91463085916303" y1="292.485362279081" x2="261.0299649343855" y2="306.37811656250307"></line><line stroke-width="4.310536597423581" stroke="lightgray" x1="255.91463085916303" y1="292.485362279081" x2="183.60310950577366" y2="299.3095534589961"></line><line stroke-width="1.866517098655678" stroke="lightgray" x1="255.91463085916303" y1="292.485362279081" x2="247.50284104959084" y2="258.98211764405664"></line><line stroke-width="1.5240048292955002" stroke="lightgray" x1="255.91463085916303" y1="292.485362279081" x2="204.94282784270766" y2="348.52132486897415"></line><line stroke-width="1.5240048292955002" stroke="lightgray" x1="255.91463085916303" y1="292.485362279081" x2="273.9536634151222" y2="388.3027011501898"></line><line stroke-width="1.31982689766007" stroke="lightgray" x1="255.91463085916303" y1="292.485362279081" x2="230.83883787867276" y2="344.11614832896987"></line><line stroke-width="1.0776341493558952" stroke="lightgray" x1="255.91463085916303" y1="292.485362279081" x2="175.72503007321689" y2="176.35583464403"></line><line stroke-width="0.7620024146477501" stroke="lightgray" x1="255.91463085916303" y1="292.485362279081" x2="302.0256369857006" y2="135.2684758501359"></line><line stroke-width="0.7620024146477501" stroke="lightgray" x1="204.94282784270766" y1="348.52132486897415" x2="214.03414478027142" y2="264.16967889833705"></line><line stroke-width="3.232902448067685" stroke="lightgray" x1="204.94282784270766" y1="348.52132486897415" x2="227.5290221371627" y2="373.3319699990169"></line><line stroke-width="2.016068887588669" stroke="lightgray" x1="204.94282784270766" y1="348.52132486897415" x2="261.0299649343855" y2="306.37811656250307"></line><line stroke-width="1.0776341493558952" stroke="lightgray" x1="204.94282784270766" y1="348.52132486897415" x2="230.83883787867276" y2="344.11614832896987"></line><line stroke-width="1.7038891981713509" stroke="lightgray" x1="204.94282784270766" y1="348.52132486897415" x2="247.50284104959084" y2="258.98211764405664"></line><line stroke-width="2.016068887588669" stroke="lightgray" x1="204.94282784270766" y1="348.52132486897415" x2="183.60310950577366" y2="299.3095534589961"></line><line stroke-width="2.2860072439432506" stroke="lightgray" x1="204.94282784270766" y1="348.52132486897415" x2="273.9536634151222" y2="388.3027011501898"></line><line stroke-width="1.31982689766007" stroke="lightgray" x1="340.95010906790174" y1="653.5788586453772" x2="386.46368736870653" y2="621.8473465683379"></line><line stroke-width="0.7620024146477501" stroke="lightgray" x1="340.95010906790174" y1="653.5788586453772" x2="300.512686543425" y2="523.4650867607656"></line><line stroke-width="1.31982689766007" stroke="lightgray" x1="340.95010906790174" y1="653.5788586453772" x2="324.47933801116096" y2="582.2943623246018"></line><line stroke-width="5.168151824079289" stroke="lightgray" x1="308.00658925453473" y1="305.1459723160241" x2="273.9536634151222" y2="388.3027011501898"></line><line stroke-width="0.7620024146477501" stroke="lightgray" x1="308.00658925453473" y1="305.1459723160241" x2="302.0256369857006" y2="135.2684758501359"></line><line stroke-width="0.7620024146477501" stroke="lightgray" x1="308.00658925453473" y1="305.1459723160241" x2="247.50284104959084" y2="258.98211764405664"></line><line stroke-width="1.31982689766007" stroke="lightgray" x1="308.00658925453473" y1="305.1459723160241" x2="227.5290221371627" y2="373.3319699990169"></line><line stroke-width="0.7620024146477501" stroke="lightgray" x1="359.52853221665106" y1="29.17716717599686" x2="375.9724998653616" y2="1.2009514921405189"></line><line stroke-width="1.0776341493558952" stroke="lightgray" x1="359.52853221665106" y1="29.17716717599686" x2="302.0256369857006" y2="135.2684758501359"></line><line stroke-width="4.242649888666168" stroke="lightgray" x1="359.52853221665106" y1="29.17716717599686" x2="320.3753066702229" y2="-13.735635866721005"></line><line stroke-width="3.5741081346873154" stroke="lightgray" x1="434.69231432169084" y1="640.4940368281734" x2="386.46368736870653" y2="621.8473465683379"></line><line stroke-width="1.0776341493558952" stroke="lightgray" x1="434.69231432169084" y1="640.4940368281734" x2="425.2437601570214" y2="603.3314699720657"></line><line stroke-width="3.232902448067685" stroke="lightgray" x1="119.46096294263005" y1="73.62650871251569" x2="78.41433549267218" y2="132.05355540850167"></line><line stroke-width="1.5240048292955002" stroke="lightgray" x1="119.46096294263005" y1="73.62650871251569" x2="151.6984356044674" y2="111.36045181990661"></line><line stroke-width="0.7620024146477501" stroke="lightgray" x1="119.46096294263005" y1="73.62650871251569" x2="189.17062337089965" y2="65.39663270892095"></line><line stroke-width="0.7620024146477501" stroke="lightgray" x1="120.49594158291227" y1="198.50094832234453" x2="147.27226218502048" y2="180.65561333375416"></line><line stroke-width="1.0776341493558952" stroke="lightgray" x1="120.49594158291227" y1="198.50094832234453" x2="151.6984356044674" y2="111.36045181990661"></line><line stroke-width="0.7620024146477501" stroke="lightgray" x1="120.49594158291227" y1="198.50094832234453" x2="78.41433549267218" y2="132.05355540850167"></line><line stroke-width="1.31982689766007" stroke="lightgray" x1="120.49594158291227" y1="198.50094832234453" x2="183.60310950577366" y2="299.3095534589961"></line><line stroke-width="0.7620024146477501" stroke="lightgray" x1="120.49594158291227" y1="198.50094832234453" x2="154.01015989952293" y2="205.16901554882782"></line><line stroke-width="1.0776341493558952" stroke="lightgray" x1="364.08975655316124" y1="-38.09099135350023" x2="375.9724998653616" y2="1.2009514921405189"></line><line stroke-width="2.016068887588669" stroke="lightgray" x1="364.08975655316124" y1="-38.09099135350023" x2="320.3753066702229" y2="-13.735635866721005"></line><line stroke-width="2.1552682987117904" stroke="lightgray" x1="205.67361303063723" y1="386.46654097557104" x2="227.5290221371627" y2="373.3319699990169"></line><line stroke-width="1.7038891981713509" stroke="lightgray" x1="205.67361303063723" y1="386.46654097557104" x2="200.77896746487068" y2="409.3298972201855"></line><line stroke-width="0.7620024146477501" stroke="lightgray" x1="205.67361303063723" y1="386.46654097557104" x2="220.87134577174257" y2="419.2149252794459"></line><line stroke-width="1.0776341493558952" stroke="lightgray" x1="205.67361303063723" y1="386.46654097557104" x2="261.0299649343855" y2="306.37811656250307"></line><line stroke-width="1.866517098655678" stroke="lightgray" x1="205.67361303063723" y1="386.46654097557104" x2="183.60310950577366" y2="299.3095534589961"></line><line stroke-width="0.7620024146477501" stroke="lightgray" x1="205.67361303063723" y1="386.46654097557104" x2="260.7898091763962" y2="462.77921210025613"></line><line stroke-width="1.866517098655678" stroke="lightgray" x1="403.4998562196944" y1="594.716854818974" x2="386.46368736870653" y2="621.8473465683379"></line><line stroke-width="1.31982689766007" stroke="lightgray" x1="403.4998562196944" y1="594.716854818974" x2="373.3776329761002" y2="567.771997972531"></line><line stroke-width="0.7620024146477501" stroke="lightgray" x1="403.4998562196944" y1="594.716854818974" x2="357.5877706609777" y2="587.9292256069006"></line><line stroke-width="0.7620024146477501" stroke="lightgray" x1="259.2579965604368" y1="202.6308178277592" x2="214.03414478027142" y2="264.16967889833705"></line><line stroke-width="1.866517098655678" stroke="lightgray" x1="259.2579965604368" y1="202.6308178277592" x2="302.0256369857006" y2="135.2684758501359"></line><line stroke-width="1.31982689766007" stroke="lightgray" x1="259.2579965604368" y1="202.6308178277592" x2="247.50284104959084" y2="258.98211764405664"></line><line stroke-width="0.7620024146477501" stroke="lightgray" x1="259.2579965604368" y1="202.6308178277592" x2="203.80334719014945" y2="210.2358272235959"></line><line stroke-width="1.866517098655678" stroke="lightgray" x1="96.16093473298821" y1="112.35434031695132" x2="78.41433549267218" y2="132.05355540850167"></line><line stroke-width="1.0776341493558952" stroke="lightgray" x1="96.16093473298821" y1="112.35434031695132" x2="151.6984356044674" y2="111.36045181990661"></line><line stroke-width="0.7620024146477501" stroke="lightgray" x1="96.16093473298821" y1="112.35434031695132" x2="147.27226218502048" y2="180.65561333375416"></line><line stroke-width="2.1552682987117904" stroke="lightgray" x1="149.50812255977925" y1="60.75774339148885" x2="189.17062337089965" y2="65.39663270892095"></line><line stroke-width="1.0776341493558952" stroke="lightgray" x1="149.50812255977925" y1="60.75774339148885" x2="151.6984356044674" y2="111.36045181990661"></line><line stroke-width="0.7620024146477501" stroke="lightgray" x1="142.09033674967785" y1="153.0275645408312" x2="78.41433549267218" y2="132.05355540850167"></line><line stroke-width="0.7620024146477501" stroke="lightgray" x1="142.09033674967785" y1="153.0275645408312" x2="203.80334719014945" y2="210.2358272235959"></line><line stroke-width="1.31982689766007" stroke="lightgray" x1="142.09033674967785" y1="153.0275645408312" x2="175.72503007321689" y2="176.35583464403"></line><line stroke-width="1.0776341493558952" stroke="lightgray" x1="142.09033674967785" y1="153.0275645408312" x2="151.6984356044674" y2="111.36045181990661"></line><line stroke-width="1.866517098655678" stroke="lightgray" x1="322.4804995433128" y1="60.60663512029156" x2="320.3753066702229" y2="-13.735635866721005"></line><line stroke-width="1.0776341493558952" stroke="lightgray" x1="322.4804995433128" y1="60.60663512029156" x2="302.0256369857006" y2="135.2684758501359"></line><line stroke-width="1.0776341493558952" stroke="lightgray" x1="171.21648726365822" y1="380.2964419761141" x2="227.5290221371627" y2="373.3319699990169"></line><line stroke-width="1.31982689766007" stroke="lightgray" x1="171.21648726365822" y1="380.2964419761141" x2="200.77896746487068" y2="409.3298972201855"></line><line stroke-width="0.7620024146477501" stroke="lightgray" x1="171.21648726365822" y1="380.2964419761141" x2="181.01005417876155" y2="327.6959875609748"></line><line stroke-width="1.0776341493558952" stroke="lightgray" x1="171.21648726365822" y1="380.2964419761141" x2="220.87134577174257" y2="419.2149252794459"></line><line stroke-width="1.0776341493558952" stroke="lightgray" x1="171.21648726365822" y1="380.2964419761141" x2="183.60310950577366" y2="299.3095534589961"></line><line stroke-width="1.0776341493558952" stroke="lightgray" x1="243.29434427431352" y1="318.5763025458605" x2="227.5290221371627" y2="373.3319699990169"></line><line stroke-width="0.7620024146477501" stroke="lightgray" x1="243.29434427431352" y1="318.5763025458605" x2="247.50284104959084" y2="258.98211764405664"></line><line stroke-width="0.7620024146477501" stroke="lightgray" x1="146.17700833783658" y1="283.8856120257486" x2="189.96806416794945" y2="248.7916463108327"></line><line stroke-width="0.7620024146477501" stroke="lightgray" x1="146.17700833783658" y1="283.8856120257486" x2="183.60310950577366" y2="299.3095534589961"></line><line stroke-width="1.0776341493558952" stroke="lightgray" x1="170.77596006021875" y1="254.20549965172907" x2="183.60310950577366" y2="299.3095534589961"></line><line stroke-width="0.7620024146477501" stroke="lightgray" x1="170.77596006021875" y1="254.20549965172907" x2="203.80334719014945" y2="210.2358272235959"></line><line stroke-width="0.7620024146477501" stroke="lightgray" x1="230.2695896011156" y1="24.066526735034632" x2="320.3753066702229" y2="-13.735635866721005"></line><line stroke-width="0.7620024146477501" stroke="lightgray" x1="230.2695896011156" y1="24.066526735034632" x2="151.6984356044674" y2="111.36045181990661"></line><line stroke-width="0.7620024146477501" stroke="lightgray" x1="268.25963408055156" y1="511.5640503361908" x2="300.512686543425" y2="523.4650867607656"></line><line stroke-width="1.31982689766007" stroke="lightgray" x1="268.25963408055156" y1="511.5640503361908" x2="260.7898091763962" y2="462.77921210025613"></line><line stroke-width="1.0776341493558952" stroke="lightgray" x1="107.79861849690114" y1="204.7318243915194" x2="147.27226218502048" y2="180.65561333375416"></line><line stroke-width="1.5240048292955002" stroke="lightgray" x1="107.79861849690114" y1="204.7318243915194" x2="154.01015989952293" y2="205.16901554882782"></line><line stroke-width="1.0776341493558952" stroke="lightgray" x1="169.3358999073353" y1="223.83875829342452" x2="214.03414478027142" y2="264.16967889833705"></line><line stroke-width="0.7620024146477501" stroke="lightgray" x1="169.3358999073353" y1="223.83875829342452" x2="147.27226218502048" y2="180.65561333375416"></line><line stroke-width="1.0776341493558952" stroke="lightgray" x1="169.3358999073353" y1="223.83875829342452" x2="203.80334719014945" y2="210.2358272235959"></line><line stroke-width="1.0776341493558952" stroke="lightgray" x1="223.20008598601797" y1="232.05928753057185" x2="247.50284104959084" y2="258.98211764405664"></line><line stroke-width="1.0776341493558952" stroke="lightgray" x1="223.20008598601797" y1="232.05928753057185" x2="189.96806416794945" y2="248.7916463108327"></line><line stroke-width="1.7038891981713509" stroke="lightgray" x1="422.6533180393185" y1="656.5760281008493" x2="386.46368736870653" y2="621.8473465683379"></line><line stroke-width="0.7620024146477501" stroke="lightgray" x1="422.6533180393185" y1="656.5760281008493" x2="419.0192663118399" y2="618.6356400398289"></line><line stroke-width="1.0776341493558952" stroke="lightgray" x1="247.22013699593234" y1="231.99878578700032" x2="214.03414478027142" y2="264.16967889833705"></line><line stroke-width="0.7620024146477501" stroke="lightgray" x1="247.22013699593234" y1="231.99878578700032" x2="228.18970324767855" y2="206.86486347220836"></line><line stroke-width="1.0776341493558952" stroke="lightgray" x1="155.8532797237018" y1="138.61180584160817" x2="175.72503007321689" y2="176.35583464403"></line><line stroke-width="1.0776341493558952" stroke="lightgray" x1="155.8532797237018" y1="138.61180584160817" x2="151.6984356044674" y2="111.36045181990661"></line><line stroke-width="1.31982689766007" stroke="lightgray" x1="125.51490833897684" y1="128.41879159832297" x2="151.6984356044674" y2="111.36045181990661"></line><line stroke-width="1.0776341493558952" stroke="lightgray" x1="125.51490833897684" y1="128.41879159832297" x2="175.72503007321689" y2="176.35583464403"></line><line stroke-width="3.0480096585910004" stroke="lightgray" x1="320.3753066702229" y1="-13.735635866721005" x2="375.9724998653616" y2="1.2009514921405189"></line><line stroke-width="0.7620024146477501" stroke="lightgray" x1="320.3753066702229" y1="-13.735635866721005" x2="322.87923072966424" y2="38.186558532214015"></line><line stroke-width="1.7038891981713509" stroke="lightgray" x1="320.3753066702229" y1="-13.735635866721005" x2="366.646864354765" y2="-60.60398530642505"></line><line stroke-width="1.0776341493558952" stroke="lightgray" x1="320.3753066702229" y1="-13.735635866721005" x2="302.0256369857006" y2="135.2684758501359"></line><line stroke-width="0.7620024146477501" stroke="lightgray" x1="320.3753066702229" y1="-13.735635866721005" x2="387.87136230080023" y2="-59.931636473274835"></line><line stroke-width="2.9512226617005752" stroke="lightgray" x1="183.60310950577366" y1="299.3095534589961" x2="214.03414478027142" y2="264.16967889833705"></line><line stroke-width="3.4077783963427017" stroke="lightgray" x1="183.60310950577366" y1="299.3095534589961" x2="227.5290221371627" y2="373.3319699990169"></line><line stroke-width="2.5272760987314027" stroke="lightgray" x1="183.60310950577366" y1="299.3095534589961" x2="203.80334719014945" y2="210.2358272235959"></line><line stroke-width="1.866517098655678" stroke="lightgray" x1="183.60310950577366" y1="299.3095534589961" x2="200.77896746487068" y2="409.3298972201855"></line><line stroke-width="1.7038891981713509" stroke="lightgray" x1="183.60310950577366" y1="299.3095534589961" x2="261.0299649343855" y2="306.37811656250307"></line><line stroke-width="1.5240048292955002" stroke="lightgray" x1="183.60310950577366" y1="299.3095534589961" x2="228.18970324767855" y2="206.86486347220836"></line><line stroke-width="3.3214915201835207" stroke="lightgray" x1="183.60310950577366" y1="299.3095534589961" x2="247.50284104959084" y2="258.98211764405664"></line><line stroke-width="0.7620024146477501" stroke="lightgray" x1="183.60310950577366" y1="299.3095534589961" x2="147.27226218502048" y2="180.65561333375416"></line><line stroke-width="1.0776341493558952" stroke="lightgray" x1="183.60310950577366" y1="299.3095534589961" x2="230.83883787867276" y2="344.11614832896987"></line><line stroke-width="0.7620024146477501" stroke="lightgray" x1="183.60310950577366" y1="299.3095534589961" x2="220.87134577174257" y2="419.2149252794459"></line><line stroke-width="0.7620024146477501" stroke="lightgray" x1="183.60310950577366" y1="299.3095534589961" x2="302.0256369857006" y2="135.2684758501359"></line><line stroke-width="0.7620024146477501" stroke="lightgray" x1="183.60310950577366" y1="299.3095534589961" x2="260.7898091763962" y2="462.77921210025613"></line><line stroke-width="0.7620024146477501" stroke="lightgray" x1="183.60310950577366" y1="299.3095534589961" x2="124.40796860521004" y2="170.6707233371693"></line><line stroke-width="0.7620024146477501" stroke="lightgray" x1="183.60310950577366" y1="299.3095534589961" x2="175.72503007321689" y2="176.35583464403"></line><line stroke-width="0.7620024146477501" stroke="lightgray" x1="183.60310950577366" y1="299.3095534589961" x2="151.6984356044674" y2="111.36045181990661"></line><line stroke-width="0.7620024146477501" stroke="lightgray" x1="183.60310950577366" y1="299.3095534589961" x2="238.8833915272191" y2="431.26917088444753"></line><line stroke-width="0.7620024146477501" stroke="lightgray" x1="183.60310950577366" y1="299.3095534589961" x2="154.01015989952293" y2="205.16901554882782"></line><line stroke-width="0.7620024146477501" stroke="lightgray" x1="183.60310950577366" y1="299.3095534589961" x2="273.9536634151222" y2="388.3027011501898"></line><line stroke-width="0.7620024146477501" stroke="lightgray" x1="386.46368736870653" y1="621.8473465683379" x2="300.512686543425" y2="523.4650867607656"></line><line stroke-width="1.0776341493558952" stroke="lightgray" x1="386.46368736870653" y1="621.8473465683379" x2="425.2437601570214" y2="603.3314699720657"></line><line stroke-width="3.1418164425683797" stroke="lightgray" x1="386.46368736870653" y1="621.8473465683379" x2="373.3776329761002" y2="567.771997972531"></line><line stroke-width="2.5272760987314027" stroke="lightgray" x1="386.46368736870653" y1="621.8473465683379" x2="357.5877706609777" y2="587.9292256069006"></line><line stroke-width="0.7620024146477501" stroke="lightgray" x1="386.46368736870653" y1="621.8473465683379" x2="324.47933801116096" y2="582.2943623246018"></line><line stroke-width="1.7038891981713509" stroke="lightgray" x1="386.46368736870653" y1="621.8473465683379" x2="419.0192663118399" y2="618.6356400398289"></line><line stroke-width="2.1552682987117904" stroke="lightgray" x1="273.9536634151222" y1="388.3027011501898" x2="227.5290221371627" y2="373.3319699990169"></line><line stroke-width="1.0776341493558952" stroke="lightgray" x1="273.9536634151222" y1="388.3027011501898" x2="261.0299649343855" y2="306.37811656250307"></line><line stroke-width="0.7620024146477501" stroke="lightgray" x1="273.9536634151222" y1="388.3027011501898" x2="230.83883787867276" y2="344.11614832896987"></line><line stroke-width="1.31982689766007" stroke="lightgray" x1="273.9536634151222" y1="388.3027011501898" x2="238.8833915272191" y2="431.26917088444753"></line><line stroke-width="0.7620024146477501" stroke="lightgray" x1="273.9536634151222" y1="388.3027011501898" x2="200.77896746487068" y2="409.3298972201855"></line><line stroke-width="0.7620024146477501" stroke="lightgray" x1="273.9536634151222" y1="388.3027011501898" x2="260.7898091763962" y2="462.77921210025613"></line><line stroke-width="1.31982689766007" stroke="lightgray" x1="273.9536634151222" y1="388.3027011501898" x2="247.50284104959084" y2="258.98211764405664"></line><line stroke-width="1.0776341493558952" stroke="lightgray" x1="273.9536634151222" y1="388.3027011501898" x2="300.512686543425" y2="523.4650867607656"></line><line stroke-width="0.7620024146477501" stroke="lightgray" x1="302.0256369857006" y1="135.2684758501359" x2="375.9724998653616" y2="1.2009514921405189"></line><line stroke-width="1.5240048292955002" stroke="lightgray" x1="302.0256369857006" y1="135.2684758501359" x2="214.03414478027142" y2="264.16967889833705"></line><line stroke-width="1.866517098655678" stroke="lightgray" x1="302.0256369857006" y1="135.2684758501359" x2="322.87923072966424" y2="38.186558532214015"></line><line stroke-width="1.866517098655678" stroke="lightgray" x1="302.0256369857006" y1="135.2684758501359" x2="203.80334719014945" y2="210.2358272235959"></line><line stroke-width="1.0776341493558952" stroke="lightgray" x1="302.0256369857006" y1="135.2684758501359" x2="247.50284104959084" y2="258.98211764405664"></line><line stroke-width="0.7620024146477501" stroke="lightgray" x1="302.0256369857006" y1="135.2684758501359" x2="261.0299649343855" y2="306.37811656250307"></line><line stroke-width="1.0776341493558952" stroke="lightgray" x1="302.0256369857006" y1="135.2684758501359" x2="228.18970324767855" y2="206.86486347220836"></line><line stroke-width="1.866517098655678" stroke="lightgray" x1="189.17062337089965" y1="65.39663270892095" x2="151.6984356044674" y2="111.36045181990661"></line><line stroke-width="2.5272760987314027" stroke="lightgray" x1="189.17062337089965" y1="65.39663270892095" x2="124.40796860521004" y2="170.6707233371693"></line><line stroke-width="0.7620024146477501" stroke="lightgray" x1="189.17062337089965" y1="65.39663270892095" x2="147.27226218502048" y2="180.65561333375416"></line><line stroke-width="0.7620024146477501" stroke="lightgray" x1="189.17062337089965" y1="65.39663270892095" x2="171.05280298063218" y2="134.25211395289725"></line><line stroke-width="0.7620024146477501" stroke="lightgray" x1="189.17062337089965" y1="65.39663270892095" x2="175.72503007321689" y2="176.35583464403"></line><line stroke-width="1.31982689766007" stroke="lightgray" x1="261.0299649343855" y1="306.37811656250307" x2="214.03414478027142" y2="264.16967889833705"></line><line stroke-width="2.2860072439432506" stroke="lightgray" x1="261.0299649343855" y1="306.37811656250307" x2="227.5290221371627" y2="373.3319699990169"></line><line stroke-width="1.7038891981713509" stroke="lightgray" x1="261.0299649343855" y1="306.37811656250307" x2="203.80334719014945" y2="210.2358272235959"></line><line stroke-width="1.31982689766007" stroke="lightgray" x1="261.0299649343855" y1="306.37811656250307" x2="247.50284104959084" y2="258.98211764405664"></line><line stroke-width="1.31982689766007" stroke="lightgray" x1="261.0299649343855" y1="306.37811656250307" x2="230.83883787867276" y2="344.11614832896987"></line><line stroke-width="3.8854651816936983" stroke="lightgray" x1="175.72503007321689" y1="176.35583464403" x2="151.6984356044674" y2="111.36045181990661"></line><line stroke-width="0.7620024146477501" stroke="lightgray" x1="175.72503007321689" y1="176.35583464403" x2="214.03414478027142" y2="264.16967889833705"></line><line stroke-width="0.7620024146477501" stroke="lightgray" x1="175.72503007321689" y1="176.35583464403" x2="154.01015989952293" y2="205.16901554882782"></line><line stroke-width="1.0776341493558952" stroke="lightgray" x1="175.72503007321689" y1="176.35583464403" x2="171.05280298063218" y2="134.25211395289725"></line><line stroke-width="1.0776341493558952" stroke="lightgray" x1="175.72503007321689" y1="176.35583464403" x2="203.80334719014945" y2="210.2358272235959"></line><line stroke-width="0.7620024146477501" stroke="lightgray" x1="175.72503007321689" y1="176.35583464403" x2="147.27226218502048" y2="180.65561333375416"></line><line stroke-width="3.0480096585910004" stroke="lightgray" x1="154.01015989952293" y1="205.16901554882782" x2="147.27226218502048" y2="180.65561333375416"></line><line stroke-width="2.63965379532014" stroke="lightgray" x1="154.01015989952293" y1="205.16901554882782" x2="151.6984356044674" y2="111.36045181990661"></line><line stroke-width="1.0776341493558952" stroke="lightgray" x1="154.01015989952293" y1="205.16901554882782" x2="124.40796860521004" y2="170.6707233371693"></line><line stroke-width="1.0776341493558952" stroke="lightgray" x1="154.01015989952293" y1="205.16901554882782" x2="203.80334719014945" y2="210.2358272235959"></line><line stroke-width="1.31982689766007" stroke="lightgray" x1="154.01015989952293" y1="205.16901554882782" x2="247.50284104959084" y2="258.98211764405664"></line><line stroke-width="0.7620024146477501" stroke="lightgray" x1="154.01015989952293" y1="205.16901554882782" x2="171.05280298063218" y2="134.25211395289725"></line><line stroke-width="2.4096632128349427" stroke="lightgray" x1="78.41433549267218" y1="132.05355540850167" x2="151.6984356044674" y2="111.36045181990661"></line><line stroke-width="1.0776341493558952" stroke="lightgray" x1="78.41433549267218" y1="132.05355540850167" x2="124.40796860521004" y2="170.6707233371693"></line><line stroke-width="1.5240048292955002" stroke="lightgray" x1="78.41433549267218" y1="132.05355540850167" x2="147.27226218502048" y2="180.65561333375416"></line><line stroke-width="1.7038891981713509" stroke="lightgray" x1="324.47933801116096" y1="582.2943623246018" x2="300.512686543425" y2="523.4650867607656"></line><line stroke-width="1.5240048292955002" stroke="lightgray" x1="324.47933801116096" y1="582.2943623246018" x2="357.5877706609777" y2="587.9292256069006"></line><line stroke-width="1.5240048292955002" stroke="lightgray" x1="324.47933801116096" y1="582.2943623246018" x2="373.3776329761002" y2="567.771997972531"></line><line stroke-width="1.0776341493558952" stroke="lightgray" x1="324.47933801116096" y1="582.2943623246018" x2="260.7898091763962" y2="462.77921210025613"></line><line stroke-width="1.866517098655678" stroke="lightgray" x1="220.87134577174257" y1="419.2149252794459" x2="227.5290221371627" y2="373.3319699990169"></line><line stroke-width="0.7620024146477501" stroke="lightgray" x1="220.87134577174257" y1="419.2149252794459" x2="200.77896746487068" y2="409.3298972201855"></line><line stroke-width="1.31982689766007" stroke="lightgray" x1="220.87134577174257" y1="419.2149252794459" x2="300.512686543425" y2="523.4650867607656"></line><line stroke-width="0.7620024146477501" stroke="lightgray" x1="189.96806416794945" y1="248.7916463108327" x2="203.80334719014945" y2="210.2358272235959"></line><line stroke-width="2.2860072439432506" stroke="lightgray" x1="189.96806416794945" y1="248.7916463108327" x2="247.50284104959084" y2="258.98211764405664"></line><line stroke-width="1.0776341493558952" stroke="lightgray" x1="387.87136230080023" y1="-59.931636473274835" x2="375.9724998653616" y2="1.2009514921405189"></line><line stroke-width="1.31982689766007" stroke="lightgray" x1="387.87136230080023" y1="-59.931636473274835" x2="366.646864354765" y2="-60.60398530642505"></line><line stroke-width="1.0776341493558952" stroke="lightgray" x1="91.51059692199699" y1="178.42765865943193" x2="124.40796860521004" y2="170.6707233371693"></line><line stroke-width="1.0776341493558952" stroke="lightgray" x1="91.51059692199699" y1="178.42765865943193" x2="147.27226218502048" y2="180.65561333375416"></line><line stroke-width="1.31982689766007" stroke="lightgray" x1="181.01005417876155" y1="327.6959875609748" x2="214.03414478027142" y2="264.16967889833705"></line><line stroke-width="1.0776341493558952" stroke="lightgray" x1="181.01005417876155" y1="327.6959875609748" x2="227.5290221371627" y2="373.3319699990169"></line><line stroke-width="0.7620024146477501" stroke="lightgray" x1="181.01005417876155" y1="327.6959875609748" x2="203.80334719014945" y2="210.2358272235959"></line><line stroke-width="0.7620024146477501" stroke="lightgray" x1="181.01005417876155" y1="327.6959875609748" x2="200.77896746487068" y2="409.3298972201855"></line><line stroke-width="1.0776341493558952" stroke="lightgray" x1="124.12335388712803" y1="83.40235845833102" x2="151.6984356044674" y2="111.36045181990661"></line><line stroke-width="2.016068887588669" stroke="lightgray" x1="151.6984356044674" y1="111.36045181990661" x2="147.27226218502048" y2="180.65561333375416"></line><line stroke-width="0.7620024146477501" stroke="lightgray" x1="151.6984356044674" y1="111.36045181990661" x2="124.40796860521004" y2="170.6707233371693"></line><line stroke-width="0.7620024146477501" stroke="lightgray" x1="151.6984356044674" y1="111.36045181990661" x2="203.80334719014945" y2="210.2358272235959"></line><line stroke-width="1.31982689766007" stroke="lightgray" x1="227.5290221371627" y1="373.3319699990169" x2="214.03414478027142" y2="264.16967889833705"></line><line stroke-width="1.0776341493558952" stroke="lightgray" x1="227.5290221371627" y1="373.3319699990169" x2="247.50284104959084" y2="258.98211764405664"></line><line stroke-width="2.2860072439432506" stroke="lightgray" x1="227.5290221371627" y1="373.3319699990169" x2="200.77896746487068" y2="409.3298972201855"></line><line stroke-width="1.0776341493558952" stroke="lightgray" x1="227.5290221371627" y1="373.3319699990169" x2="260.7898091763962" y2="462.77921210025613"></line><line stroke-width="1.7038891981713509" stroke="lightgray" x1="247.50284104959084" y1="258.98211764405664" x2="214.03414478027142" y2="264.16967889833705"></line><line stroke-width="1.5240048292955002" stroke="lightgray" x1="247.50284104959084" y1="258.98211764405664" x2="147.27226218502048" y2="180.65561333375416"></line><line stroke-width="2.016068887588669" stroke="lightgray" x1="247.50284104959084" y1="258.98211764405664" x2="228.18970324767855" y2="206.86486347220836"></line><line stroke-width="1.0776341493558952" stroke="lightgray" x1="260.7898091763962" y1="462.77921210025613" x2="200.77896746487068" y2="409.3298972201855"></line><line stroke-width="3.8100120732387506" stroke="lightgray" x1="260.7898091763962" y1="462.77921210025613" x2="300.512686543425" y2="523.4650867607656"></line><line stroke-width="1.0776341493558952" stroke="lightgray" x1="260.7898091763962" y1="462.77921210025613" x2="373.3776329761002" y2="567.771997972531"></line><line stroke-width="0.7620024146477501" stroke="lightgray" x1="260.7898091763962" y1="462.77921210025613" x2="238.8833915272191" y2="431.26917088444753"></line><line stroke-width="2.5272760987314027" stroke="lightgray" x1="203.80334719014945" y1="210.2358272235959" x2="214.03414478027142" y2="264.16967889833705"></line><line stroke-width="1.31982689766007" stroke="lightgray" x1="203.80334719014945" y1="210.2358272235959" x2="228.18970324767855" y2="206.86486347220836"></line><line stroke-width="1.0776341493558952" stroke="lightgray" x1="203.80334719014945" y1="210.2358272235959" x2="147.27226218502048" y2="180.65561333375416"></line><line stroke-width="2.1552682987117904" stroke="lightgray" x1="238.8833915272191" y1="431.26917088444753" x2="200.77896746487068" y2="409.3298972201855"></line><line stroke-width="2.851151963506334" stroke="lightgray" x1="238.8833915272191" y1="431.26917088444753" x2="300.512686543425" y2="523.4650867607656"></line><line stroke-width="1.7038891981713509" stroke="lightgray" x1="124.40796860521004" y1="170.6707233371693" x2="147.27226218502048" y2="180.65561333375416"></line><line stroke-width="1.0776341493558952" stroke="lightgray" x1="357.5877706609777" y1="587.9292256069006" x2="300.512686543425" y2="523.4650867607656"></line><line stroke-width="1.31982689766007" stroke="lightgray" x1="357.5877706609777" y1="587.9292256069006" x2="373.3776329761002" y2="567.771997972531"></line><line stroke-width="1.0776341493558952" stroke="lightgray" x1="171.05280298063218" y1="134.25211395289725" x2="147.27226218502048" y2="180.65561333375416"></line><line stroke-width="0.7620024146477501" stroke="lightgray" x1="419.0192663118399" y1="618.6356400398289" x2="373.3776329761002" y2="567.771997972531"></line><line stroke-width="0.7620024146477501" stroke="lightgray" x1="425.2437601570214" y1="603.3314699720657" x2="373.3776329761002" y2="567.771997972531"></line><line stroke-width="0.7620024146477501" stroke="lightgray" x1="366.646864354765" y1="-60.60398530642505" x2="375.9724998653616" y2="1.2009514921405189"></line><line stroke-width="2.1552682987117904" stroke="lightgray" x1="300.512686543425" y1="523.4650867607656" x2="200.77896746487068" y2="409.3298972201855"></line><line stroke-width="1.0776341493558952" stroke="lightgray" x1="300.512686543425" y1="523.4650867607656" x2="373.3776329761002" y2="567.771997972531"></line><line stroke-width="2.2860072439432506" stroke="lightgray" x1="214.03414478027142" y1="264.16967889833705" x2="228.18970324767855" y2="206.86486347220836"></line><line stroke-width="1.31982689766007" stroke="lightgray" x1="214.03414478027142" y1="264.16967889833705" x2="147.27226218502048" y2="180.65561333375416"></line><line stroke-width="0.7620024146477501" stroke="lightgray" x1="214.03414478027142" y1="264.16967889833705" x2="200.77896746487068" y2="409.3298972201855"></line><line stroke-width="1.31982689766007" stroke="lightgray" x1="147.27226218502048" y1="180.65561333375416" x2="228.18970324767855" y2="206.86486347220836"></line></g><g class="nodes"><circle r="4.032137775177338" fill="rgb(254, 232, 210)" stroke="black" stroke-width="1px" transform="translate(321.7625397657905,688.2153238486318)"></circle><circle r="3.4077783963427017" fill="rgb(254, 231, 207)" stroke="black" stroke-width="1px" transform="translate(338.1279480167539,24.5301481173231)"></circle><circle r="3.4077783963427017" fill="rgb(254, 232, 209)" stroke="black" stroke-width="1px" transform="translate(256.942317922022,20.755178510085845)"></circle><circle r="3.4077783963427017" fill="rgb(254, 234, 214)" stroke="black" stroke-width="1px" transform="translate(208.2656110455616,303.50584179419644)"></circle><circle r="3.0480096585910004" fill="rgb(255, 239, 224)" stroke="black" stroke-width="1px" transform="translate(368.916766946672,682.6086164675661)"></circle><circle r="2.63965379532014" fill="rgb(254, 226, 197)" stroke="black" stroke-width="1px" transform="translate(277.2844829976681,-42.287634627854985)"></circle><circle r="2.63965379532014" fill="rgb(254, 233, 212)" stroke="black" stroke-width="1px" transform="translate(222.51378070835025,312.93451533681144)"></circle><circle r="2.63965379532014" fill="rgb(254, 234, 214)" stroke="black" stroke-width="1px" transform="translate(400.34170114955697,16.499560723297325)"></circle><circle r="2.1552682987117904" fill="rgb(254, 233, 213)" stroke="black" stroke-width="1px" transform="translate(267.0012761580469,-34.029243354707496)"></circle><circle r="2.1552682987117904" fill="rgb(254, 231, 208)" stroke="black" stroke-width="1px" transform="translate(293.4086906651531,37.36521615750871)"></circle><circle r="2.1552682987117904" fill="rgb(254, 228, 202)" stroke="black" stroke-width="1px" transform="translate(278.4235447895831,35.465179885272676)"></circle><circle r="2.1552682987117904" fill="rgb(255, 239, 222)" stroke="black" stroke-width="1px" transform="translate(314.8869563067031,99.40651663653327)"></circle><circle r="2.1552682987117904" fill="rgb(254, 225, 195)" stroke="black" stroke-width="1px" transform="translate(241.38159448825257,353.0450222095471)"></circle><circle r="2.1552682987117904" fill="rgb(254, 232, 209)" stroke="black" stroke-width="1px" transform="translate(323.7019650924886,-58.18393333784658)"></circle><circle r="2.1552682987117904" fill="rgb(254, 228, 202)" stroke="black" stroke-width="1px" transform="translate(247.20970154834978,-3.3958075852130962)"></circle><circle r="1.5240048292955002" fill="rgb(254, 222, 191)" stroke="black" stroke-width="1px" transform="translate(316.933244185828,355.61542357082504)"></circle><circle r="1.5240048292955002" fill="rgb(254, 223, 192)" stroke="black" stroke-width="1px" transform="translate(257.49102279018837,400.21096822991893)"></circle><circle r="1.5240048292955002" fill="rgb(254, 235, 215)" stroke="black" stroke-width="1px" transform="translate(256.93631183604185,339.748259619351)"></circle><circle r="1.5240048292955002" fill="rgb(254, 226, 199)" stroke="black" stroke-width="1px" transform="translate(222.25795487947113,10.79911137906767)"></circle><circle r="1.5240048292955002" fill="rgb(254, 227, 200)" stroke="black" stroke-width="1px" transform="translate(34.33622450128563,128.94936826674544)"></circle><circle r="1.5240048292955002" fill="rgb(254, 225, 197)" stroke="black" stroke-width="1px" transform="translate(302.8924807902334,374.32381985488513)"></circle><circle r="1.5240048292955002" fill="rgb(254, 224, 194)" stroke="black" stroke-width="1px" transform="translate(239.3693563106933,277.85403790274376)"></circle><circle r="1.5240048292955002" fill="rgb(254, 222, 191)" stroke="black" stroke-width="1px" transform="translate(347.0517512219331,694.6277285867795)"></circle><circle r="1.5240048292955002" fill="rgb(254, 230, 205)" stroke="black" stroke-width="1px" transform="translate(252.96572605066547,365.2449935987177)"></circle><circle r="1.5240048292955002" fill="rgb(254, 235, 215)" stroke="black" stroke-width="1px" transform="translate(299.0091916719609,288.8171622025021)"></circle><circle r="1.5240048292955002" fill="rgb(254, 231, 208)" stroke="black" stroke-width="1px" transform="translate(125.46380950141008,156.21134600936722)"></circle><circle r="1.5240048292955002" fill="rgb(254, 225, 196)" stroke="black" stroke-width="1px" transform="translate(263.90782198204283,257.726440601139)"></circle><circle r="1.5240048292955002" fill="rgb(254, 223, 193)" stroke="black" stroke-width="1px" transform="translate(334.49132484234696,694.346400856258)"></circle><circle r="1.5240048292955002" fill="rgb(254, 229, 205)" stroke="black" stroke-width="1px" transform="translate(37.93619282440151,113.62732623145884)"></circle><circle r="1.5240048292955002" fill="rgb(255, 238, 222)" stroke="black" stroke-width="1px" transform="translate(261.3633989289255,52.339786453725715)"></circle><circle r="1.5240048292955002" fill="rgb(254, 232, 211)" stroke="black" stroke-width="1px" transform="translate(213.88381904607914,323.69226729230957)"></circle><circle r="1.5240048292955002" fill="rgb(255, 240, 225)" stroke="black" stroke-width="1px" transform="translate(294.08455079003585,385.63877105720746)"></circle><circle r="1.5240048292955002" fill="rgb(254, 226, 199)" stroke="black" stroke-width="1px" transform="translate(280.79129486750236,334.6903742662946)"></circle><circle r="1.5240048292955002" fill="rgb(254, 223, 192)" stroke="black" stroke-width="1px" transform="translate(358.978443106856,691.4129462180899)"></circle><circle r="1.5240048292955002" fill="rgb(254, 231, 208)" stroke="black" stroke-width="1px" transform="translate(306.97314440582426,614.9979995219494)"></circle><circle r="1.5240048292955002" fill="rgb(254, 225, 196)" stroke="black" stroke-width="1px" transform="translate(297.03194045993644,-47.03024217623321)"></circle><circle r="1.5240048292955002" fill="rgb(254, 222, 191)" stroke="black" stroke-width="1px" transform="translate(325.3400315513491,361.8826216966529)"></circle><circle r="1.5240048292955002" fill="rgb(254, 224, 195)" stroke="black" stroke-width="1px" transform="translate(58.792167988309714,85.43149215219806)"></circle><circle r="1.5240048292955002" fill="rgb(254, 226, 198)" stroke="black" stroke-width="1px" transform="translate(324.2225405266286,-34.957298860241885)"></circle><circle r="1.5240048292955002" fill="rgb(254, 236, 217)" stroke="black" stroke-width="1px" transform="translate(328.0641532541946,618.5102066063262)"></circle><circle r="1.5240048292955002" fill="rgb(254, 228, 201)" stroke="black" stroke-width="1px" transform="translate(215.4881787436589,288.639425962386)"></circle><circle r="1.5240048292955002" fill="rgb(254, 230, 205)" stroke="black" stroke-width="1px" transform="translate(413.5101479836318,-58.34503211379072)"></circle><circle r="1.5240048292955002" fill="rgb(254, 230, 205)" stroke="black" stroke-width="1px" transform="translate(348.45956262763843,-56.20044838473321)"></circle><circle r="8.064275550354676" fill="rgb(253, 210, 168)" stroke="black" stroke-width="1px" transform="translate(365.2904929170491,-18.230900854626128)"></circle><circle r="7.308870402016179" fill="rgb(253, 206, 160)" stroke="black" stroke-width="1px" transform="translate(283.7703398499523,1.2649873784763248)"></circle><circle r="7.308870402016179" fill="rgb(253, 209, 165)" stroke="black" stroke-width="1px" transform="translate(275.21704684432206,83.00368799124735)"></circle><circle r="6.8155567926854035" fill="rgb(253, 208, 164)" stroke="black" stroke-width="1px" transform="translate(266.5546917376839,351.7874576906025)"></circle><circle r="6.8155567926854035" fill="rgb(253, 201, 152)" stroke="black" stroke-width="1px" transform="translate(255.91463085916303,292.485362279081)"></circle><circle r="6.283632885136759" fill="rgb(253, 208, 164)" stroke="black" stroke-width="1px" transform="translate(204.94282784270766,348.52132486897415)"></circle><circle r="5.702303927012668" fill="rgb(253, 206, 161)" stroke="black" stroke-width="1px" transform="translate(340.95010906790174,653.5788586453772)"></circle><circle r="5.27930759064028" fill="rgb(253, 205, 158)" stroke="black" stroke-width="1px" transform="translate(308.00658925453473,305.1459723160241)"></circle><circle r="5.27930759064028" fill="rgb(253, 207, 161)" stroke="black" stroke-width="1px" transform="translate(359.52853221665106,29.17716717599686)"></circle><circle r="4.032137775177338" fill="rgb(253, 203, 154)" stroke="black" stroke-width="1px" transform="translate(434.69231432169084,640.4940368281734)"></circle><circle r="3.0480096585910004" fill="rgb(253, 204, 157)" stroke="black" stroke-width="1px" transform="translate(119.46096294263005,73.62650871251569)"></circle><circle r="2.63965379532014" fill="rgb(253, 209, 165)" stroke="black" stroke-width="1px" transform="translate(120.49594158291227,198.50094832234453)"></circle><circle r="2.63965379532014" fill="rgb(253, 198, 147)" stroke="black" stroke-width="1px" transform="translate(364.08975655316124,-38.09099135350023)"></circle><circle r="2.63965379532014" fill="rgb(253, 199, 148)" stroke="black" stroke-width="1px" transform="translate(205.67361303063723,386.46654097557104)"></circle><circle r="2.63965379532014" fill="rgb(253, 201, 152)" stroke="black" stroke-width="1px" transform="translate(403.4998562196944,594.716854818974)"></circle><circle r="2.63965379532014" fill="rgb(253, 213, 172)" stroke="black" stroke-width="1px" transform="translate(259.2579965604368,202.6308178277592)"></circle><circle r="2.63965379532014" fill="rgb(253, 199, 149)" stroke="black" stroke-width="1px" transform="translate(96.16093473298821,112.35434031695132)"></circle><circle r="2.1552682987117904" fill="rgb(253, 213, 172)" stroke="black" stroke-width="1px" transform="translate(149.50812255977925,60.75774339148885)"></circle><circle r="2.1552682987117904" fill="rgb(253, 213, 172)" stroke="black" stroke-width="1px" transform="translate(142.09033674967785,153.0275645408312)"></circle><circle r="2.1552682987117904" fill="rgb(253, 210, 167)" stroke="black" stroke-width="1px" transform="translate(322.4804995433128,60.60663512029156)"></circle><circle r="1.5240048292955002" fill="rgb(253, 187, 128)" stroke="black" stroke-width="1px" transform="translate(171.21648726365822,380.2964419761141)"></circle><circle r="1.5240048292955002" fill="rgb(253, 191, 135)" stroke="black" stroke-width="1px" transform="translate(243.29434427431352,318.5763025458605)"></circle><circle r="1.5240048292955002" fill="rgb(254, 220, 187)" stroke="black" stroke-width="1px" transform="translate(146.17700833783658,283.8856120257486)"></circle><circle r="1.5240048292955002" fill="rgb(254, 221, 188)" stroke="black" stroke-width="1px" transform="translate(170.77596006021875,254.20549965172907)"></circle><circle r="1.5240048292955002" fill="rgb(253, 212, 170)" stroke="black" stroke-width="1px" transform="translate(230.2695896011156,24.066526735034632)"></circle><circle r="1.5240048292955002" fill="rgb(253, 191, 135)" stroke="black" stroke-width="1px" transform="translate(268.25963408055156,511.5640503361908)"></circle><circle r="1.5240048292955002" fill="rgb(253, 199, 149)" stroke="black" stroke-width="1px" transform="translate(107.79861849690114,204.7318243915194)"></circle><circle r="1.5240048292955002" fill="rgb(254, 219, 183)" stroke="black" stroke-width="1px" transform="translate(169.3358999073353,223.83875829342452)"></circle><circle r="1.5240048292955002" fill="rgb(254, 221, 188)" stroke="black" stroke-width="1px" transform="translate(223.20008598601797,232.05928753057185)"></circle><circle r="1.5240048292955002" fill="rgb(253, 191, 134)" stroke="black" stroke-width="1px" transform="translate(422.6533180393185,656.5760281008493)"></circle><circle r="1.5240048292955002" fill="rgb(253, 205, 158)" stroke="black" stroke-width="1px" transform="translate(247.22013699593234,231.99878578700032)"></circle><circle r="1.5240048292955002" fill="rgb(253, 201, 152)" stroke="black" stroke-width="1px" transform="translate(155.8532797237018,138.61180584160817)"></circle><circle r="1.5240048292955002" fill="rgb(253, 196, 144)" stroke="black" stroke-width="1px" transform="translate(125.51490833897684,128.41879159832297)"></circle><circle r="8.064275550354676" fill="rgb(253, 172, 105)" stroke="black" stroke-width="1px" transform="translate(320.3753066702229,-13.735635866721005)"></circle><circle r="7.148216269374631" fill="rgb(253, 159, 86)" stroke="black" stroke-width="1px" transform="translate(183.60310950577366,299.3095534589961)"></circle><circle r="6.983867489724883" fill="rgb(253, 167, 98)" stroke="black" stroke-width="1px" transform="translate(386.46368736870653,621.8473465683379)"></circle><circle r="6.096019317182001" fill="rgb(253, 170, 102)" stroke="black" stroke-width="1px" transform="translate(273.9536634151222,388.3027011501898)"></circle><circle r="5.702303927012668" fill="rgb(253, 169, 101)" stroke="black" stroke-width="1px" transform="translate(302.0256369857006,135.2684758501359)"></circle><circle r="5.27930759064028" fill="rgb(253, 165, 94)" stroke="black" stroke-width="1px" transform="translate(189.17062337089965,65.39663270892095)"></circle><circle r="5.054552197462805" fill="rgb(253, 167, 98)" stroke="black" stroke-width="1px" transform="translate(261.0299649343855,306.37811656250307)"></circle><circle r="4.572014487886501" fill="rgb(253, 161, 89)" stroke="black" stroke-width="1px" transform="translate(175.72503007321689,176.35583464403)"></circle><circle r="4.310536597423581" fill="rgb(253, 159, 86)" stroke="black" stroke-width="1px" transform="translate(154.01015989952293,205.16901554882782)"></circle><circle r="4.310536597423581" fill="rgb(253, 164, 94)" stroke="black" stroke-width="1px" transform="translate(78.41433549267218,132.05355540850167)"></circle><circle r="3.4077783963427017" fill="rgb(253, 164, 93)" stroke="black" stroke-width="1px" transform="translate(324.47933801116096,582.2943623246018)"></circle><circle r="3.0480096585910004" fill="rgb(253, 160, 88)" stroke="black" stroke-width="1px" transform="translate(220.87134577174257,419.2149252794459)"></circle><circle r="2.63965379532014" fill="rgb(253, 172, 105)" stroke="black" stroke-width="1px" transform="translate(189.96806416794945,248.7916463108327)"></circle><circle r="2.63965379532014" fill="rgb(253, 153, 78)" stroke="black" stroke-width="1px" transform="translate(387.87136230080023,-59.931636473274835)"></circle><circle r="1.5240048292955002" fill="rgb(253, 174, 107)" stroke="black" stroke-width="1px" transform="translate(91.51059692199699,178.42765865943193)"></circle><circle r="1.5240048292955002" fill="rgb(252, 148, 71)" stroke="black" stroke-width="1px" transform="translate(181.01005417876155,327.6959875609748)"></circle><circle r="1.5240048292955002" fill="rgb(253, 179, 116)" stroke="black" stroke-width="1px" transform="translate(124.12335388712803,83.40235845833102)"></circle><circle r="5.49487755607967" fill="rgb(247, 124, 41)" stroke="black" stroke-width="1px" transform="translate(151.6984356044674,111.36045181990661)"></circle><circle r="5.054552197462805" fill="rgb(248, 126, 44)" stroke="black" stroke-width="1px" transform="translate(227.5290221371627,373.3319699990169)"></circle><circle r="4.572014487886501" fill="rgb(244, 118, 34)" stroke="black" stroke-width="1px" transform="translate(247.50284104959084,258.98211764405664)"></circle><circle r="4.310536597423581" fill="rgb(245, 118, 35)" stroke="black" stroke-width="1px" transform="translate(260.7898091763962,462.77921210025613)"></circle><circle r="3.733034197311356" fill="rgb(248, 126, 44)" stroke="black" stroke-width="1px" transform="translate(203.80334719014945,210.2358272235959)"></circle><circle r="3.0480096585910004" fill="rgb(234, 97, 16)" stroke="black" stroke-width="1px" transform="translate(238.8833915272191,431.26917088444753)"></circle><circle r="3.0480096585910004" fill="rgb(245, 118, 35)" stroke="black" stroke-width="1px" transform="translate(124.40796860521004,170.6707233371693)"></circle><circle r="2.63965379532014" fill="rgb(246, 123, 40)" stroke="black" stroke-width="1px" transform="translate(357.5877706609777,587.9292256069006)"></circle><circle r="1.5240048292955002" fill="rgb(249, 132, 50)" stroke="black" stroke-width="1px" transform="translate(171.05280298063218,134.25211395289725)"></circle><circle r="1.5240048292955002" fill="rgb(251, 140, 60)" stroke="black" stroke-width="1px" transform="translate(230.83883787867276,344.11614832896987)"></circle><circle r="1.5240048292955002" fill="rgb(249, 132, 51)" stroke="black" stroke-width="1px" transform="translate(419.0192663118399,618.6356400398289)"></circle><circle r="1.5240048292955002" fill="rgb(250, 136, 56)" stroke="black" stroke-width="1px" transform="translate(425.2437601570214,603.3314699720657)"></circle><circle r="1.5240048292955002" fill="rgb(250, 138, 58)" stroke="black" stroke-width="1px" transform="translate(366.646864354765,-60.60398530642505)"></circle><circle r="1.5240048292955002" fill="rgb(248, 128, 45)" stroke="black" stroke-width="1px" transform="translate(322.87923072966424,38.186558532214015)"></circle><circle r="4.572014487886501" fill="rgb(209, 73, 4)" stroke="black" stroke-width="1px" transform="translate(300.512686543425,523.4650867607656)"></circle><circle r="3.733034197311356" fill="rgb(215, 76, 5)" stroke="black" stroke-width="1px" transform="translate(214.03414478027142,264.16967889833705)"></circle><circle r="3.4077783963427017" fill="rgb(214, 76, 5)" stroke="black" stroke-width="1px" transform="translate(147.27226218502048,180.65561333375416)"></circle><circle r="3.4077783963427017" fill="rgb(208, 71, 3)" stroke="black" stroke-width="1px" transform="translate(200.77896746487068,409.3298972201855)"></circle><circle r="1.5240048292955002" fill="rgb(205, 70, 3)" stroke="black" stroke-width="1px" transform="translate(375.9724998653616,1.2009514921405189)"></circle><circle r="2.1552682987117904" fill="rgb(178, 58, 3)" stroke="black" stroke-width="1px" transform="translate(228.18970324767855,206.86486347220836)"></circle><circle r="1.5240048292955002" fill="rgb(127, 39, 4)" stroke="black" stroke-width="1px" transform="translate(373.3776329761002,567.771997972531)"></circle></g></g><g><text x="505" y="495" font-family="sans-serif" text-anchor="end" font-size="10px" fill="red">114 nodes</text><text x="505" y="505" font-family="sans-serif" text-anchor="end" font-size="10px" fill="red">336 edges</text></g></svg>