<svg height="512" width="512" style="border-style: solid; border-width: 1px; cursor: auto;" id="figure"><g transform="translate(27.499350589493588,52.874044056075405) scale(0.6784729714480587)"><g class="links"><line stroke-width="3.038518702386739" stroke="lightgray" x1="376.79981149912584" y1="197.49650827605183" x2="300.3465527946791" y2="217.0706607277382"></line><line stroke-width="8.781761241262103" stroke="lightgray" x1="376.79981149912584" y1="197.49650827605183" x2="404.45567277896936" y2="181.97110273669307"></line><line stroke-width="2.854191330526656" stroke="lightgray" x1="376.79981149912584" y1="197.49650827605183" x2="361.7235466856928" y2="207.80454767879408"></line><line stroke-width="3.610298192948282" stroke="lightgray" x1="376.79981149912584" y1="197.49650827605183" x2="341.5420868018541" y2="212.15410051001885"></line><line stroke-width="4.542858936452784" stroke="lightgray" x1="376.79981149912584" y1="197.49650827605183" x2="477.7408760991286" y2="193.83086382463134"></line><line stroke-width="1.2764331671696345" stroke="lightgray" x1="376.79981149912584" y1="197.49650827605183" x2="279.3503823150444" y2="211.26578786322423"></line><line stroke-width="1.4738980653359102" stroke="lightgray" x1="376.79981149912584" y1="197.49650827605183" x2="381.1343710432757" y2="153.6786277508493"></line><line stroke-width="0.7369490326679551" stroke="lightgray" x1="376.79981149912584" y1="197.49650827605183" x2="346.0794686772963" y2="149.9611502512395"></line><line stroke-width="1.2764331671696345" stroke="lightgray" x1="376.79981149912584" y1="197.49650827605183" x2="316.68602475173503" y2="203.43661483943606"></line><line stroke-width="0.7369490326679551" stroke="lightgray" x1="376.79981149912584" y1="197.49650827605183" x2="320.1829241332981" y2="146.3679176944616"></line><line stroke-width="6.591472531993044" stroke="lightgray" x1="300.3465527946791" y1="217.0706607277382" x2="279.3503823150444" y2="211.26578786322423"></line><line stroke-width="5.514821583515929" stroke="lightgray" x1="300.3465527946791" y1="217.0706607277382" x2="341.5420868018541" y2="212.15410051001885"></line><line stroke-width="2.3304374626885718" stroke="lightgray" x1="300.3465527946791" y1="217.0706607277382" x2="222.37444466108954" y2="283.75038305991484"></line><line stroke-width="4.103158561310698" stroke="lightgray" x1="300.3465527946791" y1="217.0706607277382" x2="214.08220155765412" y2="244.75808166784645"></line><line stroke-width="4.297114358439624" stroke="lightgray" x1="300.3465527946791" y1="217.0706607277382" x2="293.0662885607582" y2="154.80801635877233"></line><line stroke-width="2.444183430974971" stroke="lightgray" x1="300.3465527946791" y1="217.0706607277382" x2="320.1829241332981" y2="146.3679176944616"></line><line stroke-width="2.3304374626885718" stroke="lightgray" x1="300.3465527946791" y1="217.0706607277382" x2="361.7235466856928" y2="207.80454767879408"></line><line stroke-width="1.2764331671696345" stroke="lightgray" x1="300.3465527946791" y1="217.0706607277382" x2="264.49130067406827" y2="185.3672842683529"></line><line stroke-width="1.805149096474141" stroke="lightgray" x1="300.3465527946791" y1="217.0706607277382" x2="346.0794686772963" y2="149.9611502512395"></line><line stroke-width="1.647868132998261" stroke="lightgray" x1="300.3465527946791" y1="217.0706607277382" x2="316.68602475173503" y2="203.43661483943606"></line><line stroke-width="0.7369490326679551" stroke="lightgray" x1="300.3465527946791" y1="217.0706607277382" x2="293.65895942004227" y2="177.58733451509224"></line><line stroke-width="2.0844066335535105" stroke="lightgray" x1="300.3465527946791" y1="217.0706607277382" x2="343.235211438854" y2="182.97564439825445"></line><line stroke-width="1.805149096474141" stroke="lightgray" x1="300.3465527946791" y1="217.0706607277382" x2="215.1100020562314" y2="209.5865252914929"></line><line stroke-width="2.444183430974971" stroke="lightgray" x1="300.3465527946791" y1="217.0706607277382" x2="302.60390444174453" y2="245.27612481397935"></line><line stroke-width="0.7369490326679551" stroke="lightgray" x1="300.3465527946791" y1="217.0706607277382" x2="404.45567277896936" y2="181.97110273669307"></line><line stroke-width="1.2764331671696345" stroke="lightgray" x1="300.3465527946791" y1="217.0706607277382" x2="193.06670228114493" y2="223.11275836253478"></line><line stroke-width="9.085717872905567" stroke="lightgray" x1="361.7235466856928" y1="207.80454767879408" x2="341.5420868018541" y2="212.15410051001885"></line><line stroke-width="5.314215049375797" stroke="lightgray" x1="361.7235466856928" y1="207.80454767879408" x2="293.0662885607582" y2="154.80801635877233"></line><line stroke-width="2.9477961306718203" stroke="lightgray" x1="361.7235466856928" y1="207.80454767879408" x2="320.1829241332981" y2="146.3679176944616"></line><line stroke-width="2.9477961306718203" stroke="lightgray" x1="361.7235466856928" y1="207.80454767879408" x2="346.0794686772963" y2="149.9611502512395"></line><line stroke-width="1.647868132998261" stroke="lightgray" x1="361.7235466856928" y1="207.80454767879408" x2="316.68602475173503" y2="203.43661483943606"></line><line stroke-width="2.7574107917579647" stroke="lightgray" x1="361.7235466856928" y1="207.80454767879408" x2="404.45567277896936" y2="181.97110273669307"></line><line stroke-width="2.6571075246878983" stroke="lightgray" x1="361.7235466856928" y1="207.80454767879408" x2="381.1343710432757" y2="153.6786277508493"></line><line stroke-width="1.2764331671696345" stroke="lightgray" x1="361.7235466856928" y1="207.80454767879408" x2="360.39801048078795" y2="167.27262275030344"></line><line stroke-width="0.7369490326679551" stroke="lightgray" x1="361.7235466856928" y1="207.80454767879408" x2="302.60390444174453" y2="245.27612481397935"></line><line stroke-width="1.2764331671696345" stroke="lightgray" x1="361.7235466856928" y1="207.80454767879408" x2="279.3503823150444" y2="211.26578786322423"></line><line stroke-width="1.2764331671696345" stroke="lightgray" x1="361.7235466856928" y1="207.80454767879408" x2="264.49130067406827" y2="185.3672842683529"></line><line stroke-width="1.647868132998261" stroke="lightgray" x1="361.7235466856928" y1="207.80454767879408" x2="343.235211438854" y2="182.97564439825445"></line><line stroke-width="0.7369490326679551" stroke="lightgray" x1="361.7235466856928" y1="207.80454767879408" x2="477.7408760991286" y2="193.83086382463134"></line><line stroke-width="3.610298192948282" stroke="lightgray" x1="316.68602475173503" y1="203.43661483943606" x2="341.5420868018541" y2="212.15410051001885"></line><line stroke-width="3.6847451633397754" stroke="lightgray" x1="316.68602475173503" y1="203.43661483943606" x2="293.0662885607582" y2="154.80801635877233"></line><line stroke-width="0.7369490326679551" stroke="lightgray" x1="316.68602475173503" y1="203.43661483943606" x2="293.65895942004227" y2="177.58733451509224"></line><line stroke-width="4.103158561310698" stroke="lightgray" x1="316.68602475173503" y1="203.43661483943606" x2="279.3503823150444" y2="211.26578786322423"></line><line stroke-width="1.9497838693690241" stroke="lightgray" x1="316.68602475173503" y1="203.43661483943606" x2="222.37444466108954" y2="283.75038305991484"></line><line stroke-width="4.103158561310698" stroke="lightgray" x1="316.68602475173503" y1="203.43661483943606" x2="320.1829241332981" y2="146.3679176944616"></line><line stroke-width="1.9497838693690241" stroke="lightgray" x1="316.68602475173503" y1="203.43661483943606" x2="346.0794686772963" y2="149.9611502512395"></line><line stroke-width="1.805149096474141" stroke="lightgray" x1="316.68602475173503" y1="203.43661483943606" x2="214.08220155765412" y2="244.75808166784645"></line><line stroke-width="1.0422033167767553" stroke="lightgray" x1="316.68602475173503" y1="203.43661483943606" x2="245.3995239643608" y2="164.48183960723424"></line><line stroke-width="0.7369490326679551" stroke="lightgray" x1="316.68602475173503" y1="203.43661483943606" x2="264.49130067406827" y2="185.3672842683529"></line><line stroke-width="3.038518702386739" stroke="lightgray" x1="316.68602475173503" y1="203.43661483943606" x2="404.45567277896936" y2="181.97110273669307"></line><line stroke-width="1.805149096474141" stroke="lightgray" x1="316.68602475173503" y1="203.43661483943606" x2="381.1343710432757" y2="153.6786277508493"></line><line stroke-width="0.7369490326679551" stroke="lightgray" x1="316.68602475173503" y1="203.43661483943606" x2="343.235211438854" y2="182.97564439825445"></line><line stroke-width="2.854191330526656" stroke="lightgray" x1="424.96049933893505" y1="148.68699591186297" x2="404.45567277896936" y2="181.97110273669307"></line><line stroke-width="2.854191330526656" stroke="lightgray" x1="424.96049933893505" y1="148.68699591186297" x2="381.1343710432757" y2="153.6786277508493"></line><line stroke-width="4.542858936452784" stroke="lightgray" x1="341.5420868018541" y1="212.15410051001885" x2="279.3503823150444" y2="211.26578786322423"></line><line stroke-width="1.0422033167767553" stroke="lightgray" x1="341.5420868018541" y1="212.15410051001885" x2="222.37444466108954" y2="283.75038305991484"></line><line stroke-width="2.2108470980038653" stroke="lightgray" x1="341.5420868018541" y1="212.15410051001885" x2="214.08220155765412" y2="244.75808166784645"></line><line stroke-width="11.996661091270862" stroke="lightgray" x1="341.5420868018541" y1="212.15410051001885" x2="293.0662885607582" y2="154.80801635877233"></line><line stroke-width="4.036436089238506" stroke="lightgray" x1="341.5420868018541" y1="212.15410051001885" x2="320.1829241332981" y2="146.3679176944616"></line><line stroke-width="4.297114358439624" stroke="lightgray" x1="341.5420868018541" y1="212.15410051001885" x2="346.0794686772963" y2="149.9611502512395"></line><line stroke-width="2.6571075246878983" stroke="lightgray" x1="341.5420868018541" y1="212.15410051001885" x2="404.45567277896936" y2="181.97110273669307"></line><line stroke-width="2.444183430974971" stroke="lightgray" x1="341.5420868018541" y1="212.15410051001885" x2="381.1343710432757" y2="153.6786277508493"></line><line stroke-width="1.0422033167767553" stroke="lightgray" x1="341.5420868018541" y1="212.15410051001885" x2="360.39801048078795" y2="167.27262275030344"></line><line stroke-width="0.7369490326679551" stroke="lightgray" x1="341.5420868018541" y1="212.15410051001885" x2="332.9326524296146" y2="163.0272334877435"></line><line stroke-width="2.3304374626885718" stroke="lightgray" x1="341.5420868018541" y1="212.15410051001885" x2="343.235211438854" y2="182.97564439825445"></line><line stroke-width="1.2764331671696345" stroke="lightgray" x1="341.5420868018541" y1="212.15410051001885" x2="304.6119605767052" y2="186.9094266825743"></line><line stroke-width="1.2764331671696345" stroke="lightgray" x1="341.5420868018541" y1="212.15410051001885" x2="302.60390444174453" y2="245.27612481397935"></line><line stroke-width="1.2764331671696345" stroke="lightgray" x1="341.5420868018541" y1="212.15410051001885" x2="264.49130067406827" y2="185.3672842683529"></line><line stroke-width="0.7369490326679551" stroke="lightgray" x1="341.5420868018541" y1="212.15410051001885" x2="373.1089825740651" y2="178.85536178804338"></line><line stroke-width="1.2764331671696345" stroke="lightgray" x1="341.5420868018541" y1="212.15410051001885" x2="325.48153496973384" y2="173.2058695126921"></line><line stroke-width="1.0422033167767553" stroke="lightgray" x1="341.5420868018541" y1="212.15410051001885" x2="477.7408760991286" y2="193.83086382463134"></line><line stroke-width="7.971322574063697" stroke="lightgray" x1="404.45567277896936" y1="181.97110273669307" x2="477.7408760991286" y2="193.83086382463134"></line><line stroke-width="9.91463522736931" stroke="lightgray" x1="404.45567277896936" y1="181.97110273669307" x2="381.1343710432757" y2="153.6786277508493"></line><line stroke-width="0.7369490326679551" stroke="lightgray" x1="404.45567277896936" y1="181.97110273669307" x2="343.235211438854" y2="182.97564439825445"></line><line stroke-width="1.0422033167767553" stroke="lightgray" x1="404.45567277896936" y1="181.97110273669307" x2="346.0794686772963" y2="149.9611502512395"></line><line stroke-width="2.9477961306718203" stroke="lightgray" x1="404.45567277896936" y1="181.97110273669307" x2="416.6183663158784" y2="137.62525112895835"></line><line stroke-width="3.212286359939671" stroke="lightgray" x1="404.45567277896936" y1="181.97110273669307" x2="556.1985370562358" y2="205.89447328432541"></line><line stroke-width="1.0422033167767553" stroke="lightgray" x1="404.45567277896936" y1="181.97110273669307" x2="293.0662885607582" y2="154.80801635877233"></line><line stroke-width="1.805149096474141" stroke="lightgray" x1="404.45567277896936" y1="181.97110273669307" x2="320.1829241332981" y2="146.3679176944616"></line><line stroke-width="0.7369490326679551" stroke="lightgray" x1="404.45567277896936" y1="181.97110273669307" x2="279.3503823150444" y2="211.26578786322423"></line><line stroke-width="1.0422033167767553" stroke="lightgray" x1="404.45567277896936" y1="181.97110273669307" x2="451.21432321511793" y2="175.23518477458438"></line><line stroke-width="5.708382661053312" stroke="lightgray" x1="279.3503823150444" y1="211.26578786322423" x2="222.37444466108954" y2="283.75038305991484"></line><line stroke-width="9.025745482370706" stroke="lightgray" x1="279.3503823150444" y1="211.26578786322423" x2="214.08220155765412" y2="244.75808166784645"></line><line stroke-width="4.888366861949942" stroke="lightgray" x1="279.3503823150444" y1="211.26578786322423" x2="293.0662885607582" y2="154.80801635877233"></line><line stroke-width="4.297114358439624" stroke="lightgray" x1="279.3503823150444" y1="211.26578786322423" x2="264.49130067406827" y2="185.3672842683529"></line><line stroke-width="3.212286359939671" stroke="lightgray" x1="279.3503823150444" y1="211.26578786322423" x2="134.94497682143378" y2="337.1061063367093"></line><line stroke-width="3.829299501508904" stroke="lightgray" x1="279.3503823150444" y1="211.26578786322423" x2="186.59071343093635" y2="201.0542406774314"></line><line stroke-width="3.038518702386739" stroke="lightgray" x1="279.3503823150444" y1="211.26578786322423" x2="245.3995239643608" y2="164.48183960723424"></line><line stroke-width="2.444183430974971" stroke="lightgray" x1="279.3503823150444" y1="211.26578786322423" x2="234.71162894705472" y2="176.8150347810057"></line><line stroke-width="1.0422033167767553" stroke="lightgray" x1="279.3503823150444" y1="211.26578786322423" x2="304.6119605767052" y2="186.9094266825743"></line><line stroke-width="0.7369490326679551" stroke="lightgray" x1="279.3503823150444" y1="211.26578786322423" x2="343.235211438854" y2="182.97564439825445"></line><line stroke-width="2.552866334339269" stroke="lightgray" x1="279.3503823150444" y1="211.26578786322423" x2="320.1829241332981" y2="146.3679176944616"></line><line stroke-width="0.7369490326679551" stroke="lightgray" x1="279.3503823150444" y1="211.26578786322423" x2="302.60390444174453" y2="245.27612481397935"></line><line stroke-width="2.3304374626885718" stroke="lightgray" x1="279.3503823150444" y1="211.26578786322423" x2="243.120635114119" y2="215.65377485858437"></line><line stroke-width="0.7369490326679551" stroke="lightgray" x1="279.3503823150444" y1="211.26578786322423" x2="346.0794686772963" y2="149.9611502512395"></line><line stroke-width="0.7369490326679551" stroke="lightgray" x1="279.3503823150444" y1="211.26578786322423" x2="381.1343710432757" y2="153.6786277508493"></line><line stroke-width="0.7369490326679551" stroke="lightgray" x1="279.3503823150444" y1="211.26578786322423" x2="215.1100020562314" y2="209.5865252914929"></line><line stroke-width="0.7369490326679551" stroke="lightgray" x1="279.3503823150444" y1="211.26578786322423" x2="193.06670228114493" y2="223.11275836253478"></line><line stroke-width="1.2764331671696345" stroke="lightgray" x1="279.3503823150444" y1="211.26578786322423" x2="253.78196924331434" y2="244.18132531590226"></line><line stroke-width="5.211016583883776" stroke="lightgray" x1="320.1829241332981" y1="146.3679176944616" x2="293.0662885607582" y2="154.80801635877233"></line><line stroke-width="3.377124725525388" stroke="lightgray" x1="320.1829241332981" y1="146.3679176944616" x2="346.0794686772963" y2="149.9611502512395"></line><line stroke-width="1.0422033167767553" stroke="lightgray" x1="320.1829241332981" y1="146.3679176944616" x2="245.3995239643608" y2="164.48183960723424"></line><line stroke-width="1.0422033167767553" stroke="lightgray" x1="320.1829241332981" y1="146.3679176944616" x2="234.71162894705472" y2="176.8150347810057"></line><line stroke-width="1.647868132998261" stroke="lightgray" x1="320.1829241332981" y1="146.3679176944616" x2="264.49130067406827" y2="185.3672842683529"></line><line stroke-width="1.647868132998261" stroke="lightgray" x1="320.1829241332981" y1="146.3679176944616" x2="381.1343710432757" y2="153.6786277508493"></line><line stroke-width="0.7369490326679551" stroke="lightgray" x1="320.1829241332981" y1="146.3679176944616" x2="360.39801048078795" y2="167.27262275030344"></line><line stroke-width="0.7369490326679551" stroke="lightgray" x1="320.1829241332981" y1="146.3679176944616" x2="343.235211438854" y2="182.97564439825445"></line><line stroke-width="0.7369490326679551" stroke="lightgray" x1="343.235211438854" y1="182.97564439825445" x2="381.1343710432757" y2="153.6786277508493"></line><line stroke-width="0.7369490326679551" stroke="lightgray" x1="343.235211438854" y1="182.97564439825445" x2="264.49130067406827" y2="185.3672842683529"></line><line stroke-width="3.6847451633397754" stroke="lightgray" x1="343.235211438854" y1="182.97564439825445" x2="346.0794686772963" y2="149.9611502512395"></line><line stroke-width="3.295736265996522" stroke="lightgray" x1="215.1100020562314" y1="209.5865252914929" x2="193.06670228114493" y2="223.11275836253478"></line><line stroke-width="3.038518702386739" stroke="lightgray" x1="215.1100020562314" y1="209.5865252914929" x2="186.59071343093635" y2="201.0542406774314"></line><line stroke-width="1.0422033167767553" stroke="lightgray" x1="215.1100020562314" y1="209.5865252914929" x2="132.9425564407955" y2="232.47858081346217"></line><line stroke-width="0.7369490326679551" stroke="lightgray" x1="215.1100020562314" y1="209.5865252914929" x2="245.3995239643608" y2="164.48183960723424"></line><line stroke-width="2.444183430974971" stroke="lightgray" x1="215.1100020562314" y1="209.5865252914929" x2="214.08220155765412" y2="244.75808166784645"></line><line stroke-width="0.7369490326679551" stroke="lightgray" x1="215.1100020562314" y1="209.5865252914929" x2="264.49130067406827" y2="185.3672842683529"></line><line stroke-width="1.0422033167767553" stroke="lightgray" x1="215.1100020562314" y1="209.5865252914929" x2="130.91435152148182" y2="285.17018023866416"></line><line stroke-width="0.7369490326679551" stroke="lightgray" x1="302.60390444174453" y1="245.27612481397935" x2="214.08220155765412" y2="244.75808166784645"></line><line stroke-width="0.7369490326679551" stroke="lightgray" x1="293.0662885607582" y1="154.80801635877233" x2="332.9326524296146" y2="163.0272334877435"></line><line stroke-width="1.805149096474141" stroke="lightgray" x1="293.0662885607582" y1="154.80801635877233" x2="214.08220155765412" y2="244.75808166784645"></line><line stroke-width="2.2108470980038653" stroke="lightgray" x1="293.0662885607582" y1="154.80801635877233" x2="264.49130067406827" y2="185.3672842683529"></line><line stroke-width="1.0422033167767553" stroke="lightgray" x1="293.0662885607582" y1="154.80801635877233" x2="186.59071343093635" y2="201.0542406774314"></line><line stroke-width="1.4738980653359102" stroke="lightgray" x1="293.0662885607582" y1="154.80801635877233" x2="245.3995239643608" y2="164.48183960723424"></line><line stroke-width="1.4738980653359102" stroke="lightgray" x1="293.0662885607582" y1="154.80801635877233" x2="234.71162894705472" y2="176.8150347810057"></line><line stroke-width="2.9477961306718203" stroke="lightgray" x1="293.0662885607582" y1="154.80801635877233" x2="304.6119605767052" y2="186.9094266825743"></line><line stroke-width="1.647868132998261" stroke="lightgray" x1="293.0662885607582" y1="154.80801635877233" x2="346.0794686772963" y2="149.9611502512395"></line><line stroke-width="1.0422033167767553" stroke="lightgray" x1="293.0662885607582" y1="154.80801635877233" x2="381.1343710432757" y2="153.6786277508493"></line><line stroke-width="1.2764331671696345" stroke="lightgray" x1="293.0662885607582" y1="154.80801635877233" x2="325.48153496973384" y2="173.2058695126921"></line><line stroke-width="1.805149096474141" stroke="lightgray" x1="214.08220155765412" y1="244.75808166784645" x2="222.37444466108954" y2="283.75038305991484"></line><line stroke-width="1.4738980653359102" stroke="lightgray" x1="214.08220155765412" y1="244.75808166784645" x2="134.94497682143378" y2="337.1061063367093"></line><line stroke-width="7.868462489554536" stroke="lightgray" x1="214.08220155765412" y1="244.75808166784645" x2="186.59071343093635" y2="201.0542406774314"></line><line stroke-width="1.647868132998261" stroke="lightgray" x1="214.08220155765412" y1="244.75808166784645" x2="245.3995239643608" y2="164.48183960723424"></line><line stroke-width="1.2764331671696345" stroke="lightgray" x1="214.08220155765412" y1="244.75808166784645" x2="234.71162894705472" y2="176.8150347810057"></line><line stroke-width="2.3304374626885718" stroke="lightgray" x1="214.08220155765412" y1="244.75808166784645" x2="264.49130067406827" y2="185.3672842683529"></line><line stroke-width="2.2108470980038653" stroke="lightgray" x1="214.08220155765412" y1="244.75808166784645" x2="193.06670228114493" y2="223.11275836253478"></line><line stroke-width="2.3304374626885718" stroke="lightgray" x1="214.08220155765412" y1="244.75808166784645" x2="102.23742135175672" y2="310.79040879218866"></line><line stroke-width="1.805149096474141" stroke="lightgray" x1="214.08220155765412" y1="244.75808166784645" x2="132.9425564407955" y2="232.47858081346217"></line><line stroke-width="1.0422033167767553" stroke="lightgray" x1="214.08220155765412" y1="244.75808166784645" x2="243.120635114119" y2="215.65377485858437"></line><line stroke-width="2.0844066335535105" stroke="lightgray" x1="214.08220155765412" y1="244.75808166784645" x2="120.8620656046396" y2="247.39915636091735"></line><line stroke-width="3.456597357012408" stroke="lightgray" x1="214.08220155765412" y1="244.75808166784645" x2="166.5905416928583" y2="243.5434440049988"></line><line stroke-width="1.2764331671696345" stroke="lightgray" x1="214.08220155765412" y1="244.75808166784645" x2="253.78196924331434" y2="244.18132531590226"></line><line stroke-width="2.6571075246878983" stroke="lightgray" x1="214.08220155765412" y1="244.75808166784645" x2="130.91435152148182" y2="285.17018023866416"></line><line stroke-width="0.7369490326679551" stroke="lightgray" x1="214.08220155765412" y1="244.75808166784645" x2="93.79399047453705" y2="354.8148031933414"></line><line stroke-width="7.623060068783082" stroke="lightgray" x1="477.7408760991286" y1="193.83086382463134" x2="556.1985370562358" y2="205.89447328432541"></line><line stroke-width="4.4216941960077305" stroke="lightgray" x1="477.7408760991286" y1="193.83086382463134" x2="565.5327579810468" y2="181.88185930265016"></line><line stroke-width="1.2764331671696345" stroke="lightgray" x1="477.7408760991286" y1="193.83086382463134" x2="605.063145747267" y2="198.84776662944208"></line><line stroke-width="0.7369490326679551" stroke="lightgray" x1="477.7408760991286" y1="193.83086382463134" x2="520.9361551744921" y2="208.28952115172206"></line><line stroke-width="1.0422033167767553" stroke="lightgray" x1="477.7408760991286" y1="193.83086382463134" x2="524.322190077459" y2="187.433186238986"></line><line stroke-width="1.0422033167767553" stroke="lightgray" x1="477.7408760991286" y1="193.83086382463134" x2="451.21432321511793" y2="175.23518477458438"></line><line stroke-width="0.7369490326679551" stroke="lightgray" x1="477.7408760991286" y1="193.83086382463134" x2="381.1343710432757" y2="153.6786277508493"></line><line stroke-width="1.0422033167767553" stroke="lightgray" x1="381.1343710432757" y1="153.6786277508493" x2="346.0794686772963" y2="149.9611502512395"></line><line stroke-width="3.456597357012408" stroke="lightgray" x1="381.1343710432757" y1="153.6786277508493" x2="416.6183663158784" y2="137.62525112895835"></line><line stroke-width="6.339475284242172" stroke="lightgray" x1="222.37444466108954" y1="283.75038305991484" x2="134.94497682143378" y2="337.1061063367093"></line><line stroke-width="1.0422033167767553" stroke="lightgray" x1="222.37444466108954" y1="283.75038305991484" x2="102.23742135175672" y2="310.79040879218866"></line><line stroke-width="3.295736265996522" stroke="lightgray" x1="222.37444466108954" y1="283.75038305991484" x2="93.79399047453705" y2="354.8148031933414"></line><line stroke-width="1.647868132998261" stroke="lightgray" x1="222.37444466108954" y1="283.75038305991484" x2="180.5389335296535" y2="317.1050395191812"></line><line stroke-width="2.0844066335535105" stroke="lightgray" x1="222.37444466108954" y1="283.75038305991484" x2="187.19540323977782" y2="328.1293114568985"></line><line stroke-width="7.18289066402046" stroke="lightgray" x1="193.06670228114493" y1="223.11275836253478" x2="186.59071343093635" y2="201.0542406774314"></line><line stroke-width="3.610298192948282" stroke="lightgray" x1="193.06670228114493" y1="223.11275836253478" x2="132.9425564407955" y2="232.47858081346217"></line><line stroke-width="3.6847451633397754" stroke="lightgray" x1="193.06670228114493" y1="223.11275836253478" x2="166.5905416928583" y2="243.5434440049988"></line><line stroke-width="3.377124725525388" stroke="lightgray" x1="193.06670228114493" y1="223.11275836253478" x2="120.8620656046396" y2="247.39915636091735"></line><line stroke-width="1.0422033167767553" stroke="lightgray" x1="193.06670228114493" y1="223.11275836253478" x2="130.91435152148182" y2="285.17018023866416"></line><line stroke-width="1.0422033167767553" stroke="lightgray" x1="193.06670228114493" y1="223.11275836253478" x2="102.23742135175672" y2="310.79040879218866"></line><line stroke-width="1.0422033167767553" stroke="lightgray" x1="193.06670228114493" y1="223.11275836253478" x2="245.3995239643608" y2="164.48183960723424"></line><line stroke-width="0.7369490326679551" stroke="lightgray" x1="193.06670228114493" y1="223.11275836253478" x2="264.49130067406827" y2="185.3672842683529"></line><line stroke-width="0.7369490326679551" stroke="lightgray" x1="193.06670228114493" y1="223.11275836253478" x2="234.71162894705472" y2="176.8150347810057"></line><line stroke-width="0.7369490326679551" stroke="lightgray" x1="346.0794686772963" y1="149.9611502512395" x2="264.49130067406827" y2="185.3672842683529"></line><line stroke-width="0.7369490326679551" stroke="lightgray" x1="346.0794686772963" y1="149.9611502512395" x2="373.1089825740651" y2="178.85536178804338"></line><line stroke-width="3.295736265996522" stroke="lightgray" x1="264.49130067406827" y1="185.3672842683529" x2="186.59071343093635" y2="201.0542406774314"></line><line stroke-width="1.2764331671696345" stroke="lightgray" x1="264.49130067406827" y1="185.3672842683529" x2="166.5905416928583" y2="243.5434440049988"></line><line stroke-width="2.552866334339269" stroke="lightgray" x1="264.49130067406827" y1="185.3672842683529" x2="243.120635114119" y2="215.65377485858437"></line><line stroke-width="0.7369490326679551" stroke="lightgray" x1="264.49130067406827" y1="185.3672842683529" x2="245.3995239643608" y2="164.48183960723424"></line><line stroke-width="0.7369490326679551" stroke="lightgray" x1="264.49130067406827" y1="185.3672842683529" x2="234.71162894705472" y2="176.8150347810057"></line><line stroke-width="0.7369490326679551" stroke="lightgray" x1="264.49130067406827" y1="185.3672842683529" x2="304.6119605767052" y2="186.9094266825743"></line><line stroke-width="3.6847451633397754" stroke="lightgray" x1="245.3995239643608" y1="164.48183960723424" x2="234.71162894705472" y2="176.8150347810057"></line><line stroke-width="0.7369490326679551" stroke="lightgray" x1="245.3995239643608" y1="164.48183960723424" x2="186.59071343093635" y2="201.0542406774314"></line><line stroke-width="10.525737544564176" stroke="lightgray" x1="556.1985370562358" y1="205.89447328432541" x2="565.5327579810468" y2="181.88185930265016"></line><line stroke-width="3.295736265996522" stroke="lightgray" x1="556.1985370562358" y1="205.89447328432541" x2="605.063145747267" y2="198.84776662944208"></line><line stroke-width="3.610298192948282" stroke="lightgray" x1="556.1985370562358" y1="205.89447328432541" x2="596.165217603832" y2="183.1605831443083"></line><line stroke-width="0.7369490326679551" stroke="lightgray" x1="556.1985370562358" y1="205.89447328432541" x2="520.9361551744921" y2="208.28952115172206"></line><line stroke-width="2.444183430974971" stroke="lightgray" x1="556.1985370562358" y1="205.89447328432541" x2="651.0145288049456" y2="219.00430152382526"></line><line stroke-width="1.805149096474141" stroke="lightgray" x1="556.1985370562358" y1="205.89447328432541" x2="594.0581636671068" y2="221.87839742528487"></line><line stroke-width="1.0422033167767553" stroke="lightgray" x1="556.1985370562358" y1="205.89447328432541" x2="524.322190077459" y2="187.433186238986"></line><line stroke-width="2.6571075246878983" stroke="lightgray" x1="186.59071343093635" y1="201.0542406774314" x2="132.9425564407955" y2="232.47858081346217"></line><line stroke-width="7.406246117418304" stroke="lightgray" x1="186.59071343093635" y1="201.0542406774314" x2="166.5905416928583" y2="243.5434440049988"></line><line stroke-width="2.9477961306718203" stroke="lightgray" x1="186.59071343093635" y1="201.0542406774314" x2="120.8620656046396" y2="247.39915636091735"></line><line stroke-width="1.9497838693690241" stroke="lightgray" x1="186.59071343093635" y1="201.0542406774314" x2="130.91435152148182" y2="285.17018023866416"></line><line stroke-width="1.4738980653359102" stroke="lightgray" x1="186.59071343093635" y1="201.0542406774314" x2="102.23742135175672" y2="310.79040879218866"></line><line stroke-width="0.7369490326679551" stroke="lightgray" x1="186.59071343093635" y1="201.0542406774314" x2="234.71162894705472" y2="176.8150347810057"></line><line stroke-width="4.103158561310698" stroke="lightgray" x1="134.94497682143378" y1="337.1061063367093" x2="102.23742135175672" y2="310.79040879218866"></line><line stroke-width="7.971322574063697" stroke="lightgray" x1="134.94497682143378" y1="337.1061063367093" x2="93.79399047453705" y2="354.8148031933414"></line><line stroke-width="1.9497838693690241" stroke="lightgray" x1="134.94497682143378" y1="337.1061063367093" x2="180.5389335296535" y2="317.1050395191812"></line><line stroke-width="2.3304374626885718" stroke="lightgray" x1="134.94497682143378" y1="337.1061063367093" x2="187.19540323977782" y2="328.1293114568985"></line><line stroke-width="3.456597357012408" stroke="lightgray" x1="134.94497682143378" y1="337.1061063367093" x2="40.82024766119017" y2="377.0376266022516"></line><line stroke-width="1.2764331671696345" stroke="lightgray" x1="134.94497682143378" y1="337.1061063367093" x2="32.47590416561638" y2="402.4876327354752"></line><line stroke-width="3.757717498097229" stroke="lightgray" x1="134.94497682143378" y1="337.1061063367093" x2="59.707195358112244" y2="358.52629948769754"></line><line stroke-width="1.9497838693690241" stroke="lightgray" x1="134.94497682143378" y1="337.1061063367093" x2="67.69428940927132" y2="388.165327053619"></line><line stroke-width="1.9497838693690241" stroke="lightgray" x1="134.94497682143378" y1="337.1061063367093" x2="50.23940097392266" y2="417.4699079938438"></line><line stroke-width="3.038518702386739" stroke="lightgray" x1="134.94497682143378" y1="337.1061063367093" x2="53.73397570331189" y2="324.87983637501355"></line><line stroke-width="1.0422033167767553" stroke="lightgray" x1="134.94497682143378" y1="337.1061063367093" x2="130.91435152148182" y2="285.17018023866416"></line><line stroke-width="1.0422033167767553" stroke="lightgray" x1="132.9425564407955" y1="232.47858081346217" x2="166.5905416928583" y2="243.5434440049988"></line><line stroke-width="8.039164840533992" stroke="lightgray" x1="132.9425564407955" y1="232.47858081346217" x2="120.8620656046396" y2="247.39915636091735"></line><line stroke-width="1.4738980653359102" stroke="lightgray" x1="132.9425564407955" y1="232.47858081346217" x2="130.91435152148182" y2="285.17018023866416"></line><line stroke-width="1.0422033167767553" stroke="lightgray" x1="132.9425564407955" y1="232.47858081346217" x2="102.23742135175672" y2="310.79040879218866"></line><line stroke-width="1.0422033167767553" stroke="lightgray" x1="132.9425564407955" y1="232.47858081346217" x2="92.84755991327802" y2="219.24844390481394"></line><line stroke-width="1.0422033167767553" stroke="lightgray" x1="132.9425564407955" y1="232.47858081346217" x2="100.78399319416995" y2="209.41158694234167"></line><line stroke-width="1.2764331671696345" stroke="lightgray" x1="132.9425564407955" y1="232.47858081346217" x2="89.41734773518252" y2="234.48234601112506"></line><line stroke-width="1.0422033167767553" stroke="lightgray" x1="132.9425564407955" y1="232.47858081346217" x2="112.96091852346142" y2="203.00763644960224"></line><line stroke-width="0.7369490326679551" stroke="lightgray" x1="132.9425564407955" y1="232.47858081346217" x2="53.73397570331189" y2="324.87983637501355"></line><line stroke-width="5.105732668678538" stroke="lightgray" x1="130.91435152148182" y1="285.17018023866416" x2="102.23742135175672" y2="310.79040879218866"></line><line stroke-width="1.0422033167767553" stroke="lightgray" x1="130.91435152148182" y1="285.17018023866416" x2="59.707195358112244" y2="358.52629948769754"></line><line stroke-width="2.0844066335535105" stroke="lightgray" x1="130.91435152148182" y1="285.17018023866416" x2="120.8620656046396" y2="247.39915636091735"></line><line stroke-width="2.7574107917579647" stroke="lightgray" x1="130.91435152148182" y1="285.17018023866416" x2="53.73397570331189" y2="324.87983637501355"></line><line stroke-width="1.0422033167767553" stroke="lightgray" x1="130.91435152148182" y1="285.17018023866416" x2="166.5905416928583" y2="243.5434440049988"></line><line stroke-width="0.7369490326679551" stroke="lightgray" x1="130.91435152148182" y1="285.17018023866416" x2="93.79399047453705" y2="354.8148031933414"></line><line stroke-width="0.7369490326679551" stroke="lightgray" x1="130.91435152148182" y1="285.17018023866416" x2="40.82024766119017" y2="377.0376266022516"></line><line stroke-width="8.530801807833274" stroke="lightgray" x1="102.23742135175672" y1="310.79040879218866" x2="53.73397570331189" y2="324.87983637501355"></line><line stroke-width="2.552866334339269" stroke="lightgray" x1="102.23742135175672" y1="310.79040879218866" x2="23.64122650321658" y2="344.4816141878024"></line><line stroke-width="5.802742485972866" stroke="lightgray" x1="102.23742135175672" y1="310.79040879218866" x2="59.707195358112244" y2="358.52629948769754"></line><line stroke-width="2.854191330526656" stroke="lightgray" x1="102.23742135175672" y1="310.79040879218866" x2="93.79399047453705" y2="354.8148031933414"></line><line stroke-width="3.5342834019437936" stroke="lightgray" x1="102.23742135175672" y1="310.79040879218866" x2="21.491486364040934" y2="367.4790162857534"></line><line stroke-width="1.2764331671696345" stroke="lightgray" x1="102.23742135175672" y1="310.79040879218866" x2="63.13099331465298" y2="294.75297796442914"></line><line stroke-width="2.552866334339269" stroke="lightgray" x1="102.23742135175672" y1="310.79040879218866" x2="40.82024766119017" y2="377.0376266022516"></line><line stroke-width="0.7369490326679551" stroke="lightgray" x1="102.23742135175672" y1="310.79040879218866" x2="166.5905416928583" y2="243.5434440049988"></line><line stroke-width="2.3304374626885718" stroke="lightgray" x1="102.23742135175672" y1="310.79040879218866" x2="120.8620656046396" y2="247.39915636091735"></line><line stroke-width="0.7369490326679551" stroke="lightgray" x1="102.23742135175672" y1="310.79040879218866" x2="67.69428940927132" y2="388.165327053619"></line><line stroke-width="0.7369490326679551" stroke="lightgray" x1="102.23742135175672" y1="310.79040879218866" x2="50.23940097392266" y2="417.4699079938438"></line><line stroke-width="0.7369490326679551" stroke="lightgray" x1="102.23742135175672" y1="310.79040879218866" x2="2.7056730350117544" y2="385.31304739261026"></line><line stroke-width="3.1266099503302653" stroke="lightgray" x1="93.79399047453705" y1="354.8148031933414" x2="32.47590416561638" y2="402.4876327354752"></line><line stroke-width="2.9477961306718203" stroke="lightgray" x1="93.79399047453705" y1="354.8148031933414" x2="4.586645849146294" y2="402.9572476517567"></line><line stroke-width="7.030045717082596" stroke="lightgray" x1="93.79399047453705" y1="354.8148031933414" x2="40.82024766119017" y2="377.0376266022516"></line><line stroke-width="6.296495295223139" stroke="lightgray" x1="93.79399047453705" y1="354.8148031933414" x2="59.707195358112244" y2="358.52629948769754"></line><line stroke-width="1.9497838693690241" stroke="lightgray" x1="93.79399047453705" y1="354.8148031933414" x2="67.69428940927132" y2="388.165327053619"></line><line stroke-width="1.9497838693690241" stroke="lightgray" x1="93.79399047453705" y1="354.8148031933414" x2="50.23940097392266" y2="417.4699079938438"></line><line stroke-width="3.5342834019437936" stroke="lightgray" x1="93.79399047453705" y1="354.8148031933414" x2="21.491486364040934" y2="367.4790162857534"></line><line stroke-width="2.0844066335535105" stroke="lightgray" x1="93.79399047453705" y1="354.8148031933414" x2="2.7056730350117544" y2="385.31304739261026"></line><line stroke-width="1.9497838693690241" stroke="lightgray" x1="93.79399047453705" y1="354.8148031933414" x2="53.73397570331189" y2="324.87983637501355"></line><line stroke-width="4.4216941960077305" stroke="lightgray" x1="565.5327579810468" y1="181.88185930265016" x2="596.165217603832" y2="183.1605831443083"></line><line stroke-width="1.647868132998261" stroke="lightgray" x1="565.5327579810468" y1="181.88185930265016" x2="605.063145747267" y2="198.84776662944208"></line><line stroke-width="1.647868132998261" stroke="lightgray" x1="565.5327579810468" y1="181.88185930265016" x2="594.0581636671068" y2="221.87839742528487"></line><line stroke-width="1.0422033167767553" stroke="lightgray" x1="120.8620656046396" y1="247.39915636091735" x2="166.5905416928583" y2="243.5434440049988"></line><line stroke-width="1.0422033167767553" stroke="lightgray" x1="120.8620656046396" y1="247.39915636091735" x2="92.84755991327802" y2="219.24844390481394"></line><line stroke-width="1.0422033167767553" stroke="lightgray" x1="120.8620656046396" y1="247.39915636091735" x2="100.78399319416995" y2="209.41158694234167"></line><line stroke-width="1.2764331671696345" stroke="lightgray" x1="120.8620656046396" y1="247.39915636091735" x2="89.41734773518252" y2="234.48234601112506"></line><line stroke-width="1.0422033167767553" stroke="lightgray" x1="120.8620656046396" y1="247.39915636091735" x2="112.96091852346142" y2="203.00763644960224"></line><line stroke-width="1.9497838693690241" stroke="lightgray" x1="120.8620656046396" y1="247.39915636091735" x2="53.73397570331189" y2="324.87983637501355"></line><line stroke-width="6.873802970501149" stroke="lightgray" x1="605.063145747267" y1="198.84776662944208" x2="651.0145288049456" y2="219.00430152382526"></line><line stroke-width="4.168813267107021" stroke="lightgray" x1="605.063145747267" y1="198.84776662944208" x2="677.6221356341462" y2="199.73570777338415"></line><line stroke-width="0.7369490326679551" stroke="lightgray" x1="605.063145747267" y1="198.84776662944208" x2="594.0581636671068" y2="221.87839742528487"></line><line stroke-width="5.802742485972866" stroke="lightgray" x1="67.69428940927132" y1="388.165327053619" x2="50.23940097392266" y2="417.4699079938438"></line><line stroke-width="3.6847451633397754" stroke="lightgray" x1="67.69428940927132" y1="388.165327053619" x2="3.9839892832558714" y2="438.16015852165293"></line><line stroke-width="1.0422033167767553" stroke="lightgray" x1="67.69428940927132" y1="388.165327053619" x2="2.7056730350117544" y2="385.31304739261026"></line><line stroke-width="0.7369490326679551" stroke="lightgray" x1="67.69428940927132" y1="388.165327053619" x2="32.47590416561638" y2="402.4876327354752"></line><line stroke-width="1.0422033167767553" stroke="lightgray" x1="67.69428940927132" y1="388.165327053619" x2="59.707195358112244" y2="358.52629948769754"></line><line stroke-width="0.7369490326679551" stroke="lightgray" x1="67.69428940927132" y1="388.165327053619" x2="21.491486364040934" y2="367.4790162857534"></line><line stroke-width="3.5342834019437936" stroke="lightgray" x1="53.73397570331189" y1="324.87983637501355" x2="23.64122650321658" y2="344.4816141878024"></line><line stroke-width="3.038518702386739" stroke="lightgray" x1="53.73397570331189" y1="324.87983637501355" x2="59.707195358112244" y2="358.52629948769754"></line><line stroke-width="1.647868132998261" stroke="lightgray" x1="53.73397570331189" y1="324.87983637501355" x2="63.13099331465298" y2="294.75297796442914"></line><line stroke-width="0.7369490326679551" stroke="lightgray" x1="53.73397570331189" y1="324.87983637501355" x2="40.82024766119017" y2="377.0376266022516"></line><line stroke-width="2.7574107917579647" stroke="lightgray" x1="53.73397570331189" y1="324.87983637501355" x2="21.491486364040934" y2="367.4790162857534"></line><line stroke-width="1.0422033167767553" stroke="lightgray" x1="53.73397570331189" y1="324.87983637501355" x2="2.7056730350117544" y2="385.31304739261026"></line><line stroke-width="1.2764331671696345" stroke="lightgray" x1="53.73397570331189" y1="324.87983637501355" x2="-9.276450605109943" y2="359.00316620873446"></line><line stroke-width="0.7369490326679551" stroke="lightgray" x1="53.73397570331189" y1="324.87983637501355" x2="11.438526205746681" y2="421.10715996322705"></line><line stroke-width="6.46670151698438" stroke="lightgray" x1="59.707195358112244" y1="358.52629948769754" x2="21.491486364040934" y2="367.4790162857534"></line><line stroke-width="2.6571075246878983" stroke="lightgray" x1="59.707195358112244" y1="358.52629948769754" x2="40.82024766119017" y2="377.0376266022516"></line><line stroke-width="0.7369490326679551" stroke="lightgray" x1="59.707195358112244" y1="358.52629948769754" x2="23.64122650321658" y2="344.4816141878024"></line><line stroke-width="1.647868132998261" stroke="lightgray" x1="59.707195358112244" y1="358.52629948769754" x2="-9.276450605109943" y2="359.00316620873446"></line><line stroke-width="1.0422033167767553" stroke="lightgray" x1="59.707195358112244" y1="358.52629948769754" x2="32.47590416561638" y2="402.4876327354752"></line><line stroke-width="1.0422033167767553" stroke="lightgray" x1="59.707195358112244" y1="358.52629948769754" x2="50.23940097392266" y2="417.4699079938438"></line><line stroke-width="1.0422033167767553" stroke="lightgray" x1="59.707195358112244" y1="358.52629948769754" x2="4.586645849146294" y2="402.9572476517567"></line><line stroke-width="3.212286359939671" stroke="lightgray" x1="40.82024766119017" y1="377.0376266022516" x2="2.7056730350117544" y2="385.31304739261026"></line><line stroke-width="1.9497838693690241" stroke="lightgray" x1="40.82024766119017" y1="377.0376266022516" x2="-28.773325539198023" y2="408.9256022202784"></line><line stroke-width="2.0844066335535105" stroke="lightgray" x1="40.82024766119017" y1="377.0376266022516" x2="32.47590416561638" y2="402.4876327354752"></line><line stroke-width="3.9685919953752875" stroke="lightgray" x1="40.82024766119017" y1="377.0376266022516" x2="4.586645849146294" y2="402.9572476517567"></line><line stroke-width="1.647868132998261" stroke="lightgray" x1="40.82024766119017" y1="377.0376266022516" x2="-23.55119578956285" y2="427.6058290438366"></line><line stroke-width="2.7574107917579647" stroke="lightgray" x1="40.82024766119017" y1="377.0376266022516" x2="21.491486364040934" y2="367.4790162857534"></line><line stroke-width="0.7369490326679551" stroke="lightgray" x1="40.82024766119017" y1="377.0376266022516" x2="50.23940097392266" y2="417.4699079938438"></line><line stroke-width="0.7369490326679551" stroke="lightgray" x1="40.82024766119017" y1="377.0376266022516" x2="3.9839892832558714" y2="438.16015852165293"></line><line stroke-width="1.0422033167767553" stroke="lightgray" x1="40.82024766119017" y1="377.0376266022516" x2="-9.276450605109943" y2="359.00316620873446"></line><line stroke-width="7.106879099701347" stroke="lightgray" x1="651.0145288049456" y1="219.00430152382526" x2="677.6221356341462" y2="199.73570777338415"></line><line stroke-width="1.2764331671696345" stroke="lightgray" x1="651.0145288049456" y1="219.00430152382526" x2="702.3264530430306" y2="218.74385053911266"></line><line stroke-width="1.0422033167767553" stroke="lightgray" x1="651.0145288049456" y1="219.00430152382526" x2="692.7881674848086" y2="233.4196640936385"></line><line stroke-width="1.4738980653359102" stroke="lightgray" x1="50.23940097392266" y1="417.4699079938438" x2="2.7056730350117544" y2="385.31304739261026"></line><line stroke-width="0.7369490326679551" stroke="lightgray" x1="50.23940097392266" y1="417.4699079938438" x2="-28.773325539198023" y2="408.9256022202784"></line><line stroke-width="4.888366861949942" stroke="lightgray" x1="50.23940097392266" y1="417.4699079938438" x2="3.9839892832558714" y2="438.16015852165293"></line><line stroke-width="1.0422033167767553" stroke="lightgray" x1="50.23940097392266" y1="417.4699079938438" x2="31.4201734488747" y2="461.07907291961965"></line><line stroke-width="1.0422033167767553" stroke="lightgray" x1="50.23940097392266" y1="417.4699079938438" x2="21.491486364040934" y2="367.4790162857534"></line><line stroke-width="1.2764331671696345" stroke="lightgray" x1="50.23940097392266" y1="417.4699079938438" x2="-13.243816383826514" y2="449.36361632665455"></line><line stroke-width="0.7369490326679551" stroke="lightgray" x1="50.23940097392266" y1="417.4699079938438" x2="32.47590416561638" y2="402.4876327354752"></line><line stroke-width="1.2764331671696345" stroke="lightgray" x1="50.23940097392266" y1="417.4699079938438" x2="11.438526205746681" y2="421.10715996322705"></line><line stroke-width="4.7187762128288755" stroke="lightgray" x1="32.47590416561638" y1="402.4876327354752" x2="2.7056730350117544" y2="385.31304739261026"></line><line stroke-width="2.444183430974971" stroke="lightgray" x1="32.47590416561638" y1="402.4876327354752" x2="-28.773325539198023" y2="408.9256022202784"></line><line stroke-width="3.5342834019437936" stroke="lightgray" x1="32.47590416561638" y1="402.4876327354752" x2="-23.55119578956285" y2="427.6058290438366"></line><line stroke-width="4.602245233933015" stroke="lightgray" x1="32.47590416561638" y1="402.4876327354752" x2="4.586645849146294" y2="402.9572476517567"></line><line stroke-width="1.4738980653359102" stroke="lightgray" x1="32.47590416561638" y1="402.4876327354752" x2="-9.276450605109943" y2="359.00316620873446"></line><line stroke-width="0.7369490326679551" stroke="lightgray" x1="32.47590416561638" y1="402.4876327354752" x2="21.491486364040934" y2="367.4790162857534"></line><line stroke-width="1.0422033167767553" stroke="lightgray" x1="32.47590416561638" y1="402.4876327354752" x2="11.438526205746681" y2="421.10715996322705"></line><line stroke-width="6.077037404773478" stroke="lightgray" x1="2.7056730350117544" y1="385.31304739261026" x2="-28.773325539198023" y2="408.9256022202784"></line><line stroke-width="3.5342834019437936" stroke="lightgray" x1="2.7056730350117544" y1="385.31304739261026" x2="11.438526205746681" y2="421.10715996322705"></line><line stroke-width="1.2764331671696345" stroke="lightgray" x1="2.7056730350117544" y1="385.31304739261026" x2="3.9839892832558714" y2="438.16015852165293"></line><line stroke-width="2.0844066335535105" stroke="lightgray" x1="2.7056730350117544" y1="385.31304739261026" x2="-13.243816383826514" y2="449.36361632665455"></line><line stroke-width="3.295736265996522" stroke="lightgray" x1="2.7056730350117544" y1="385.31304739261026" x2="4.586645849146294" y2="402.9572476517567"></line><line stroke-width="2.7574107917579647" stroke="lightgray" x1="2.7056730350117544" y1="385.31304739261026" x2="-23.55119578956285" y2="427.6058290438366"></line><line stroke-width="1.4738980653359102" stroke="lightgray" x1="2.7056730350117544" y1="385.31304739261026" x2="21.491486364040934" y2="367.4790162857534"></line><line stroke-width="2.3304374626885718" stroke="lightgray" x1="2.7056730350117544" y1="385.31304739261026" x2="-9.276450605109943" y2="359.00316620873446"></line><line stroke-width="1.0422033167767553" stroke="lightgray" x1="2.7056730350117544" y1="385.31304739261026" x2="23.64122650321658" y2="344.4816141878024"></line><line stroke-width="1.805149096474141" stroke="lightgray" x1="4.586645849146294" y1="402.9572476517567" x2="-28.773325539198023" y2="408.9256022202784"></line><line stroke-width="6.7943343694412" stroke="lightgray" x1="4.586645849146294" y1="402.9572476517567" x2="-23.55119578956285" y2="427.6058290438366"></line><line stroke-width="2.9477961306718203" stroke="lightgray" x1="4.586645849146294" y1="402.9572476517567" x2="11.438526205746681" y2="421.10715996322705"></line><line stroke-width="1.0422033167767553" stroke="lightgray" x1="4.586645849146294" y1="402.9572476517567" x2="3.9839892832558714" y2="438.16015852165293"></line><line stroke-width="0.7369490326679551" stroke="lightgray" x1="4.586645849146294" y1="402.9572476517567" x2="21.491486364040934" y2="367.4790162857534"></line><line stroke-width="0.7369490326679551" stroke="lightgray" x1="21.491486364040934" y1="367.4790162857534" x2="3.9839892832558714" y2="438.16015852165293"></line><line stroke-width="2.2108470980038653" stroke="lightgray" x1="21.491486364040934" y1="367.4790162857534" x2="-9.276450605109943" y2="359.00316620873446"></line><line stroke-width="1.0422033167767553" stroke="lightgray" x1="21.491486364040934" y1="367.4790162857534" x2="23.64122650321658" y2="344.4816141878024"></line><line stroke-width="1.4738980653359102" stroke="lightgray" x1="677.6221356341462" y1="199.73570777338415" x2="702.3264530430306" y2="218.74385053911266"></line><line stroke-width="1.4738980653359102" stroke="lightgray" x1="677.6221356341462" y1="199.73570777338415" x2="692.7881674848086" y2="233.4196640936385"></line><line stroke-width="1.0422033167767553" stroke="lightgray" x1="3.9839892832558714" y1="438.16015852165293" x2="-28.773325539198023" y2="408.9256022202784"></line><line stroke-width="1.647868132998261" stroke="lightgray" x1="3.9839892832558714" y1="438.16015852165293" x2="31.4201734488747" y2="461.07907291961965"></line><line stroke-width="2.3304374626885718" stroke="lightgray" x1="3.9839892832558714" y1="438.16015852165293" x2="-13.243816383826514" y2="449.36361632665455"></line><line stroke-width="1.2764331671696345" stroke="lightgray" x1="3.9839892832558714" y1="438.16015852165293" x2="11.438526205746681" y2="421.10715996322705"></line><line stroke-width="1.0422033167767553" stroke="lightgray" x1="3.9839892832558714" y1="438.16015852165293" x2="-23.55119578956285" y2="427.6058290438366"></line><line stroke-width="1.2764331671696345" stroke="lightgray" x1="23.64122650321658" y1="344.4816141878024" x2="-9.276450605109943" y2="359.00316620873446"></line><line stroke-width="0.7369490326679551" stroke="lightgray" x1="23.64122650321658" y1="344.4816141878024" x2="11.438526205746681" y2="421.10715996322705"></line><line stroke-width="1.9497838693690241" stroke="lightgray" x1="-23.55119578956285" y1="427.6058290438366" x2="-28.773325539198023" y2="408.9256022202784"></line><line stroke-width="1.805149096474141" stroke="lightgray" x1="-23.55119578956285" y1="427.6058290438366" x2="11.438526205746681" y2="421.10715996322705"></line><line stroke-width="2.6571075246878983" stroke="lightgray" x1="11.438526205746681" y1="421.10715996322705" x2="-28.773325539198023" y2="408.9256022202784"></line><line stroke-width="1.9497838693690241" stroke="lightgray" x1="11.438526205746681" y1="421.10715996322705" x2="-13.243816383826514" y2="449.36361632665455"></line><line stroke-width="1.805149096474141" stroke="lightgray" x1="-28.773325539198023" y1="408.9256022202784" x2="-13.243816383826514" y2="449.36361632665455"></line><line stroke-width="1.0422033167767553" stroke="lightgray" x1="-28.773325539198023" y1="408.9256022202784" x2="-9.276450605109943" y2="359.00316620873446"></line></g><g class="nodes"><circle r="7.799135477476097" fill="rgb(234, 247, 250)" stroke="black" stroke-width="1px" transform="translate(376.79981149912584,197.49650827605183)"></circle><circle r="6.754249451050776" fill="rgb(232, 246, 248)" stroke="black" stroke-width="1px" transform="translate(300.3465527946791,217.0706607277382)"></circle><circle r="6.591472531993044" fill="rgb(228, 245, 247)" stroke="black" stroke-width="1px" transform="translate(361.7235466856928,207.80454767879408)"></circle><circle r="5.514821583515929" fill="rgb(231, 246, 248)" stroke="black" stroke-width="1px" transform="translate(316.68602475173503,203.43661483943606)"></circle><circle r="1.4738980653359102" fill="rgb(228, 245, 247)" stroke="black" stroke-width="1px" transform="translate(424.96049933893505,148.68699591186297)"></circle><circle r="11.791184522687281" fill="rgb(212, 239, 237)" stroke="black" stroke-width="1px" transform="translate(341.5420868018541,212.15410051001885)"></circle><circle r="10.930720602277402" fill="rgb(213, 239, 237)" stroke="black" stroke-width="1px" transform="translate(404.45567277896936,181.97110273669307)"></circle><circle r="9.664995954527884" fill="rgb(207, 237, 233)" stroke="black" stroke-width="1px" transform="translate(279.3503823150444,211.26578786322423)"></circle><circle r="5.895592261343641" fill="rgb(214, 240, 238)" stroke="black" stroke-width="1px" transform="translate(320.1829241332981,146.3679176944616)"></circle><circle r="3.8995677387380483" fill="rgb(210, 238, 235)" stroke="black" stroke-width="1px" transform="translate(343.235211438854,182.97564439825445)"></circle><circle r="3.610298192948282" fill="rgb(206, 236, 232)" stroke="black" stroke-width="1px" transform="translate(215.1100020562314,209.5865252914929)"></circle><circle r="2.552866334339269" fill="rgb(228, 245, 247)" stroke="black" stroke-width="1px" transform="translate(302.60390444174453,245.27612481397935)"></circle><circle r="1.4738980653359102" fill="rgb(228, 245, 247)" stroke="black" stroke-width="1px" transform="translate(293.65895942004227,177.58733451509224)"></circle><circle r="10.317286457351372" fill="rgb(195, 232, 225)" stroke="black" stroke-width="1px" transform="translate(293.0662885607582,154.80801635877233)"></circle><circle r="8.466899770933336" fill="rgb(179, 226, 216)" stroke="black" stroke-width="1px" transform="translate(214.08220155765412,244.75808166784645)"></circle><circle r="7.515434996194458" fill="rgb(178, 226, 215)" stroke="black" stroke-width="1px" transform="translate(477.7408760991286,193.83086382463134)"></circle><circle r="7.220596385896564" fill="rgb(195, 232, 225)" stroke="black" stroke-width="1px" transform="translate(381.1343710432757,153.6786277508493)"></circle><circle r="6.077037404773478" fill="rgb(179, 226, 216)" stroke="black" stroke-width="1px" transform="translate(222.37444466108954,283.75038305991484)"></circle><circle r="5.708382661053312" fill="rgb(163, 220, 206)" stroke="black" stroke-width="1px" transform="translate(193.06670228114493,223.11275836253478)"></circle><circle r="5.514821583515929" fill="rgb(197, 233, 227)" stroke="black" stroke-width="1px" transform="translate(346.0794686772963,149.9611502512395)"></circle><circle r="4.888366861949942" fill="rgb(171, 223, 211)" stroke="black" stroke-width="1px" transform="translate(264.49130067406827,185.3672842683529)"></circle><circle r="3.8995677387380483" fill="rgb(167, 222, 209)" stroke="black" stroke-width="1px" transform="translate(245.3995239643608,164.48183960723424)"></circle><circle r="1.4738980653359102" fill="rgb(200, 234, 228)" stroke="black" stroke-width="1px" transform="translate(360.39801048078795,167.27262275030344)"></circle><circle r="9.664995954527884" fill="rgb(117, 200, 174)" stroke="black" stroke-width="1px" transform="translate(556.1985370562358,205.89447328432541)"></circle><circle r="9.551951177327041" fill="rgb(136, 209, 188)" stroke="black" stroke-width="1px" transform="translate(186.59071343093635,201.0542406774314)"></circle><circle r="7.937183990750575" fill="rgb(117, 200, 174)" stroke="black" stroke-width="1px" transform="translate(134.94497682143378,337.1061063367093)"></circle><circle r="6.077037404773478" fill="rgb(110, 197, 167)" stroke="black" stroke-width="1px" transform="translate(132.9425564407955,232.47858081346217)"></circle><circle r="4.6608749253771435" fill="rgb(109, 196, 167)" stroke="black" stroke-width="1px" transform="translate(130.91435152148182,285.17018023866416)"></circle><circle r="3.295736265996522" fill="rgb(153, 216, 200)" stroke="black" stroke-width="1px" transform="translate(234.71162894705472,176.8150347810057)"></circle><circle r="2.9477961306718203" fill="rgb(153, 216, 200)" stroke="black" stroke-width="1px" transform="translate(304.6119605767052,186.9094266825743)"></circle><circle r="2.552866334339269" fill="rgb(153, 216, 200)" stroke="black" stroke-width="1px" transform="translate(416.6183663158784,137.62525112895835)"></circle><circle r="2.552866334339269" fill="rgb(153, 216, 200)" stroke="black" stroke-width="1px" transform="translate(243.120635114119,215.65377485858437)"></circle><circle r="1.4738980653359102" fill="rgb(153, 216, 200)" stroke="black" stroke-width="1px" transform="translate(332.9326524296146,163.0272334877435)"></circle><circle r="1.4738980653359102" fill="rgb(153, 216, 200)" stroke="black" stroke-width="1px" transform="translate(325.48153496973384,173.2058695126921)"></circle><circle r="1.4738980653359102" fill="rgb(153, 216, 200)" stroke="black" stroke-width="1px" transform="translate(451.21432321511793,175.23518477458438)"></circle><circle r="1.4738980653359102" fill="rgb(153, 216, 200)" stroke="black" stroke-width="1px" transform="translate(253.78196924331434,244.18132531590226)"></circle><circle r="1.4738980653359102" fill="rgb(153, 216, 200)" stroke="black" stroke-width="1px" transform="translate(373.1089825740651,178.85536178804338)"></circle><circle r="8.96537192530431" fill="rgb(76, 179, 131)" stroke="black" stroke-width="1px" transform="translate(102.23742135175672,310.79040879218866)"></circle><circle r="8.719698546683416" fill="rgb(80, 181, 136)" stroke="black" stroke-width="1px" transform="translate(93.79399047453705,354.8148031933414)"></circle><circle r="8.466899770933336" fill="rgb(95, 190, 154)" stroke="black" stroke-width="1px" transform="translate(565.5327579810468,181.88185930265016)"></circle><circle r="6.913194714024816" fill="rgb(95, 190, 153)" stroke="black" stroke-width="1px" transform="translate(120.8620656046396,247.39915636091735)"></circle><circle r="5.314215049375797" fill="rgb(104, 194, 163)" stroke="black" stroke-width="1px" transform="translate(166.5905416928583,243.5434440049988)"></circle><circle r="5.105732668678538" fill="rgb(75, 178, 129)" stroke="black" stroke-width="1px" transform="translate(605.063145747267,198.84776662944208)"></circle><circle r="3.8995677387380483" fill="rgb(66, 172, 118)" stroke="black" stroke-width="1px" transform="translate(67.69428940927132,388.165327053619)"></circle><circle r="2.0844066335535105" fill="rgb(104, 194, 163)" stroke="black" stroke-width="1px" transform="translate(180.5389335296535,317.1050395191812)"></circle><circle r="2.0844066335535105" fill="rgb(104, 194, 163)" stroke="black" stroke-width="1px" transform="translate(187.19540323977782,328.1293114568985)"></circle><circle r="1.4738980653359102" fill="rgb(104, 194, 163)" stroke="black" stroke-width="1px" transform="translate(520.9361551744921,208.28952115172206)"></circle><circle r="1.4738980653359102" fill="rgb(104, 194, 163)" stroke="black" stroke-width="1px" transform="translate(524.322190077459,187.433186238986)"></circle><circle r="7.799135477476097" fill="rgb(57, 163, 104)" stroke="black" stroke-width="1px" transform="translate(53.73397570331189,324.87983637501355)"></circle><circle r="7.068566803887587" fill="rgb(53, 160, 99)" stroke="black" stroke-width="1px" transform="translate(59.707195358112244,358.52629948769754)"></circle><circle r="6.913194714024816" fill="rgb(51, 158, 96)" stroke="black" stroke-width="1px" transform="translate(40.82024766119017,377.0376266022516)"></circle><circle r="6.754249451050776" fill="rgb(48, 154, 91)" stroke="black" stroke-width="1px" transform="translate(651.0145288049456,219.00430152382526)"></circle><circle r="5.514821583515929" fill="rgb(50, 156, 94)" stroke="black" stroke-width="1px" transform="translate(50.23940097392266,417.4699079938438)"></circle><circle r="4.888366861949942" fill="rgb(40, 146, 80)" stroke="black" stroke-width="1px" transform="translate(32.47590416561638,402.4876327354752)"></circle><circle r="3.610298192948282" fill="rgb(66, 172, 118)" stroke="black" stroke-width="1px" transform="translate(596.165217603832,183.1605831443083)"></circle><circle r="1.4738980653359102" fill="rgb(66, 172, 118)" stroke="black" stroke-width="1px" transform="translate(100.78399319416995,209.41158694234167)"></circle><circle r="1.4738980653359102" fill="rgb(66, 172, 118)" stroke="black" stroke-width="1px" transform="translate(89.41734773518252,234.48234601112506)"></circle><circle r="1.4738980653359102" fill="rgb(66, 172, 118)" stroke="black" stroke-width="1px" transform="translate(112.96091852346142,203.00763644960224)"></circle><circle r="1.4738980653359102" fill="rgb(66, 172, 118)" stroke="black" stroke-width="1px" transform="translate(594.0581636671068,221.87839742528487)"></circle><circle r="1.4738980653359102" fill="rgb(66, 172, 118)" stroke="black" stroke-width="1px" transform="translate(92.84755991327802,219.24844390481394)"></circle><circle r="7.220596385896564" fill="rgb(13, 118, 53)" stroke="black" stroke-width="1px" transform="translate(2.7056730350117544,385.31304739261026)"></circle><circle r="7.068566803887587" fill="rgb(15, 120, 54)" stroke="black" stroke-width="1px" transform="translate(4.586645849146294,402.9572476517567)"></circle><circle r="5.895592261343641" fill="rgb(30, 136, 69)" stroke="black" stroke-width="1px" transform="translate(21.491486364040934,367.4790162857534)"></circle><circle r="5.708382661053312" fill="rgb(28, 133, 66)" stroke="black" stroke-width="1px" transform="translate(677.6221356341462,199.73570777338415)"></circle><circle r="4.6608749253771435" fill="rgb(21, 127, 60)" stroke="black" stroke-width="1px" transform="translate(3.9839892832558714,438.16015852165293)"></circle><circle r="2.9477961306718203" fill="rgb(34, 140, 73)" stroke="black" stroke-width="1px" transform="translate(23.64122650321658,344.4816141878024)"></circle><circle r="2.0844066335535105" fill="rgb(34, 140, 73)" stroke="black" stroke-width="1px" transform="translate(63.13099331465298,294.75297796442914)"></circle><circle r="5.314215049375797" fill="rgb(6, 107, 45)" stroke="black" stroke-width="1px" transform="translate(-23.55119578956285,427.6058290438366)"></circle><circle r="5.105732668678538" fill="rgb(0, 85, 34)" stroke="black" stroke-width="1px" transform="translate(11.438526205746681,421.10715996322705)"></circle><circle r="4.888366861949942" fill="rgb(6, 107, 45)" stroke="black" stroke-width="1px" transform="translate(-28.773325539198023,408.9256022202784)"></circle><circle r="3.295736265996522" fill="rgb(0, 84, 34)" stroke="black" stroke-width="1px" transform="translate(-13.243816383826514,449.36361632665455)"></circle><circle r="2.9477961306718203" fill="rgb(0, 78, 31)" stroke="black" stroke-width="1px" transform="translate(31.4201734488747,461.07907291961965)"></circle><circle r="2.9477961306718203" fill="rgb(6, 107, 45)" stroke="black" stroke-width="1px" transform="translate(-9.276450605109943,359.00316620873446)"></circle><circle r="2.0844066335535105" fill="rgb(6, 107, 45)" stroke="black" stroke-width="1px" transform="translate(692.7881674848086,233.4196640936385)"></circle><circle r="2.0844066335535105" fill="rgb(1, 88, 36)" stroke="black" stroke-width="1px" transform="translate(702.3264530430306,218.74385053911266)"></circle></g></g><g><text x="505" y="495" font-family="sans-serif" text-anchor="end" font-size="10px" fill="red">75 nodes</text><text x="505" y="505" font-family="sans-serif" text-anchor="end" font-size="10px" fill="red">329 edges</text></g></svg>