<svg height="512" width="512" style="border-style: solid; border-width: 1px; cursor: auto;" id="figure"><g transform="translate(126.55307411818896,173.81796355832643) scale(0.3439005419457281)"><g class="links"><line stroke-width="5.8156349178293105" stroke="lightgray" x1="475.3127791095843" y1="348.6420581943612" x2="419.67015181874984" y2="308.91653049994983"></line><line stroke-width="6.33744122483611" stroke="lightgray" x1="475.3127791095843" y1="348.6420581943612" x2="518.8212733357343" y2="322.2118717446572"></line><line stroke-width="2.5182437889880047" stroke="lightgray" x1="475.3127791095843" y1="348.6420581943612" x2="391.97772940498055" y2="370.7498997851187"></line><line stroke-width="3.8466809271299782" stroke="lightgray" x1="475.3127791095843" y1="348.6420581943612" x2="429.38213590900114" y2="372.14499343512597"></line><line stroke-width="4.5976630950867" stroke="lightgray" x1="475.3127791095843" y1="348.6420581943612" x2="454.8283538775084" y2="382.6323025531623"></line><line stroke-width="3.8466809271299782" stroke="lightgray" x1="475.3127791095843" y1="348.6420581943612" x2="533.3952819330312" y2="297.1318907050918"></line><line stroke-width="2.056137443651188" stroke="lightgray" x1="475.3127791095843" y1="348.6420581943612" x2="405.1759835104515" y2="355.69929277717455"></line><line stroke-width="1.4539087294573276" stroke="lightgray" x1="475.3127791095843" y1="348.6420581943612" x2="484.90219963986124" y2="404.7190277462147"></line><line stroke-width="4.5976630950867" stroke="lightgray" x1="419.67015181874984" y1="308.91653049994983" x2="391.97772940498055" y2="370.7498997851187"></line><line stroke-width="2.056137443651188" stroke="lightgray" x1="419.67015181874984" y1="308.91653049994983" x2="405.1759835104515" y2="355.69929277717455"></line><line stroke-width="1.4539087294573276" stroke="lightgray" x1="419.67015181874984" y1="308.91653049994983" x2="429.38213590900114" y2="372.14499343512597"></line><line stroke-width="2.9078174589146553" stroke="lightgray" x1="419.67015181874984" y1="308.91653049994983" x2="518.8212733357343" y2="322.2118717446572"></line><line stroke-width="1.4539087294573276" stroke="lightgray" x1="419.67015181874984" y1="308.91653049994983" x2="457.8859617571585" y2="284.2101076942589"></line><line stroke-width="1.4539087294573276" stroke="lightgray" x1="419.67015181874984" y1="308.91653049994983" x2="259.29501786212165" y2="314.1133758399313"></line><line stroke-width="1.4539087294573276" stroke="lightgray" x1="419.67015181874984" y1="308.91653049994983" x2="347.40700230583104" y2="329.5032413109441"></line><line stroke-width="1.4539087294573276" stroke="lightgray" x1="419.67015181874984" y1="308.91653049994983" x2="533.3952819330312" y2="297.1318907050918"></line><line stroke-width="1.4539087294573276" stroke="lightgray" x1="469.58878374756216" y1="327.92522144354757" x2="457.8859617571585" y2="284.2101076942589"></line><line stroke-width="3.8466809271299782" stroke="lightgray" x1="469.58878374756216" y1="327.92522144354757" x2="405.1759835104515" y2="355.69929277717455"></line><line stroke-width="3.2510387521469357" stroke="lightgray" x1="469.58878374756216" y1="327.92522144354757" x2="518.8212733357343" y2="322.2118717446572"></line><line stroke-width="1.4539087294573276" stroke="lightgray" x1="469.58878374756216" y1="327.92522144354757" x2="454.8283538775084" y2="382.6323025531623"></line><line stroke-width="2.9078174589146553" stroke="lightgray" x1="442.62499360732494" y1="323.7377694747072" x2="391.97772940498055" y2="370.7498997851187"></line><line stroke-width="2.5182437889880047" stroke="lightgray" x1="442.62499360732494" y1="323.7377694747072" x2="377.03576508274097" y2="350.4450188772145"></line><line stroke-width="1.4539087294573276" stroke="lightgray" x1="442.62499360732494" y1="323.7377694747072" x2="533.3952819330312" y2="297.1318907050918"></line><line stroke-width="2.056137443651188" stroke="lightgray" x1="518.8212733357343" y1="322.2118717446572" x2="454.8283538775084" y2="382.6323025531623"></line><line stroke-width="8.47767186096133" stroke="lightgray" x1="518.8212733357343" y1="322.2118717446572" x2="633.0760240094301" y2="294.26530981905194"></line><line stroke-width="8.47767186096133" stroke="lightgray" x1="518.8212733357343" y1="322.2118717446572" x2="625.4737818678914" y2="280.1347814598052"></line><line stroke-width="4.361726188371983" stroke="lightgray" x1="518.8212733357343" y1="322.2118717446572" x2="523.9703595785275" y2="355.79612944158646"></line><line stroke-width="4.361726188371983" stroke="lightgray" x1="518.8212733357343" y1="322.2118717446572" x2="524.7880717519043" y2="371.1034101633478"></line><line stroke-width="1.4539087294573276" stroke="lightgray" x1="518.8212733357343" y1="322.2118717446572" x2="405.1759835104515" y2="355.69929277717455"></line><line stroke-width="3.561334519748647" stroke="lightgray" x1="429.38213590900114" y1="372.14499343512597" x2="405.1759835104515" y2="355.69929277717455"></line><line stroke-width="2.056137443651188" stroke="lightgray" x1="429.38213590900114" y1="372.14499343512597" x2="327.03539205718266" y2="384.9424341115442"></line><line stroke-width="2.056137443651188" stroke="lightgray" x1="429.38213590900114" y1="372.14499343512597" x2="331.6430038138786" y2="371.60532402105054"></line><line stroke-width="5.440028337269126" stroke="lightgray" x1="429.38213590900114" y1="372.14499343512597" x2="419.0737966191635" y2="419.82469962125515"></line><line stroke-width="5.440028337269126" stroke="lightgray" x1="429.38213590900114" y1="372.14499343512597" x2="418.9386987112365" y2="402.2278785731569"></line><line stroke-width="2.056137443651188" stroke="lightgray" x1="429.38213590900114" y1="372.14499343512597" x2="377.03576508274097" y2="350.4450188772145"></line><line stroke-width="2.5182437889880047" stroke="lightgray" x1="429.38213590900114" y1="372.14499343512597" x2="454.8283538775084" y2="382.6323025531623"></line><line stroke-width="5.440028337269126" stroke="lightgray" x1="429.38213590900114" y1="372.14499343512597" x2="442.3072714628197" y2="420.65322270062984"></line><line stroke-width="5.440028337269126" stroke="lightgray" x1="429.38213590900114" y1="372.14499343512597" x2="443.22352330828255" y2="404.68641370866055"></line><line stroke-width="1.4539087294573276" stroke="lightgray" x1="429.38213590900114" y1="372.14499343512597" x2="391.97772940498055" y2="370.7498997851187"></line><line stroke-width="2.056137443651188" stroke="lightgray" x1="429.38213590900114" y1="372.14499343512597" x2="523.9703595785275" y2="355.79612944158646"></line><line stroke-width="2.056137443651188" stroke="lightgray" x1="429.38213590900114" y1="372.14499343512597" x2="524.7880717519043" y2="371.1034101633478"></line><line stroke-width="7.122669039497294" stroke="lightgray" x1="405.1759835104515" y1="355.69929277717455" x2="419.0737966191635" y2="419.82469962125515"></line><line stroke-width="7.122669039497294" stroke="lightgray" x1="405.1759835104515" y1="355.69929277717455" x2="418.9386987112365" y2="402.2278785731569"></line><line stroke-width="5.994619261560134" stroke="lightgray" x1="405.1759835104515" y1="355.69929277717455" x2="384.80553024678164" y2="413.24046567688714"></line><line stroke-width="5.994619261560134" stroke="lightgray" x1="405.1759835104515" y1="355.69929277717455" x2="380.9871887110366" y2="428.27772475358023"></line><line stroke-width="4.112274887302376" stroke="lightgray" x1="405.1759835104515" y1="355.69929277717455" x2="442.3072714628197" y2="420.65322270062984"></line><line stroke-width="4.112274887302376" stroke="lightgray" x1="405.1759835104515" y1="355.69929277717455" x2="443.22352330828255" y2="404.68641370866055"></line><line stroke-width="2.5182437889880047" stroke="lightgray" x1="405.1759835104515" y1="355.69929277717455" x2="454.8283538775084" y2="382.6323025531623"></line><line stroke-width="2.9078174589146553" stroke="lightgray" x1="405.1759835104515" y1="355.69929277717455" x2="391.97772940498055" y2="370.7498997851187"></line><line stroke-width="4.5976630950867" stroke="lightgray" x1="405.1759835104515" y1="355.69929277717455" x2="523.9703595785275" y2="355.79612944158646"></line><line stroke-width="4.5976630950867" stroke="lightgray" x1="405.1759835104515" y1="355.69929277717455" x2="524.7880717519043" y2="371.1034101633478"></line><line stroke-width="2.056137443651188" stroke="lightgray" x1="405.1759835104515" y1="355.69929277717455" x2="449.6291937570224" y2="353.22310967947044"></line><line stroke-width="2.056137443651188" stroke="lightgray" x1="405.1759835104515" y1="355.69929277717455" x2="440.7664594556161" y2="347.3407812094781"></line><line stroke-width="5.036487577976009" stroke="lightgray" x1="405.1759835104515" y1="355.69929277717455" x2="327.03539205718266" y2="384.9424341115442"></line><line stroke-width="5.036487577976009" stroke="lightgray" x1="405.1759835104515" y1="355.69929277717455" x2="331.6430038138786" y2="371.60532402105054"></line><line stroke-width="3.8466809271299782" stroke="lightgray" x1="405.1759835104515" y1="355.69929277717455" x2="308.40211030563574" y2="321.9603657999195"></line><line stroke-width="3.8466809271299782" stroke="lightgray" x1="405.1759835104515" y1="355.69929277717455" x2="297.4638064970522" y2="332.75492286077974"></line><line stroke-width="2.9078174589146553" stroke="lightgray" x1="405.1759835104515" y1="355.69929277717455" x2="266.50539008683955" y2="374.7303680017176"></line><line stroke-width="2.9078174589146553" stroke="lightgray" x1="405.1759835104515" y1="355.69929277717455" x2="269.33274466511455" y2="358.4750560027135"></line><line stroke-width="4.5976630950867" stroke="lightgray" x1="391.97772940498055" y1="370.7498997851187" x2="308.40211030563574" y2="321.9603657999195"></line><line stroke-width="4.5976630950867" stroke="lightgray" x1="391.97772940498055" y1="370.7498997851187" x2="297.4638064970522" y2="332.75492286077974"></line><line stroke-width="10.177361106201294" stroke="lightgray" x1="391.97772940498055" y1="370.7498997851187" x2="327.03539205718266" y2="384.9424341115442"></line><line stroke-width="10.177361106201294" stroke="lightgray" x1="391.97772940498055" y1="370.7498997851187" x2="331.6430038138786" y2="371.60532402105054"></line><line stroke-width="3.561334519748647" stroke="lightgray" x1="391.97772940498055" y1="370.7498997851187" x2="384.80553024678164" y2="413.24046567688714"></line><line stroke-width="3.561334519748647" stroke="lightgray" x1="391.97772940498055" y1="370.7498997851187" x2="380.9871887110366" y2="428.27772475358023"></line><line stroke-width="3.8466809271299782" stroke="lightgray" x1="391.97772940498055" y1="370.7498997851187" x2="419.0737966191635" y2="419.82469962125515"></line><line stroke-width="3.8466809271299782" stroke="lightgray" x1="391.97772940498055" y1="370.7498997851187" x2="418.9386987112365" y2="402.2278785731569"></line><line stroke-width="1.4539087294573276" stroke="lightgray" x1="391.97772940498055" y1="370.7498997851187" x2="454.8283538775084" y2="382.6323025531623"></line><line stroke-width="3.561334519748647" stroke="lightgray" x1="391.97772940498055" y1="370.7498997851187" x2="442.3072714628197" y2="420.65322270062984"></line><line stroke-width="3.561334519748647" stroke="lightgray" x1="391.97772940498055" y1="370.7498997851187" x2="443.22352330828255" y2="404.68641370866055"></line><line stroke-width="1.4539087294573276" stroke="lightgray" x1="391.97772940498055" y1="370.7498997851187" x2="377.03576508274097" y2="350.4450188772145"></line><line stroke-width="2.5182437889880047" stroke="lightgray" x1="533.3952819330312" y1="297.1318907050918" x2="633.0760240094301" y2="294.26530981905194"></line><line stroke-width="2.5182437889880047" stroke="lightgray" x1="533.3952819330312" y1="297.1318907050918" x2="625.4737818678914" y2="280.1347814598052"></line><line stroke-width="2.9078174589146553" stroke="lightgray" x1="454.8283538775084" y1="382.6323025531623" x2="419.0737966191635" y2="419.82469962125515"></line><line stroke-width="2.9078174589146553" stroke="lightgray" x1="454.8283538775084" y1="382.6323025531623" x2="418.9386987112365" y2="402.2278785731569"></line><line stroke-width="4.361726188371983" stroke="lightgray" x1="454.8283538775084" y1="382.6323025531623" x2="384.80553024678164" y2="413.24046567688714"></line><line stroke-width="4.361726188371983" stroke="lightgray" x1="454.8283538775084" y1="382.6323025531623" x2="380.9871887110366" y2="428.27772475358023"></line><line stroke-width="2.5182437889880047" stroke="lightgray" x1="454.8283538775084" y1="382.6323025531623" x2="327.03539205718266" y2="384.9424341115442"></line><line stroke-width="2.5182437889880047" stroke="lightgray" x1="454.8283538775084" y1="382.6323025531623" x2="331.6430038138786" y2="371.60532402105054"></line><line stroke-width="2.9078174589146553" stroke="lightgray" x1="454.8283538775084" y1="382.6323025531623" x2="523.9703595785275" y2="355.79612944158646"></line><line stroke-width="2.9078174589146553" stroke="lightgray" x1="454.8283538775084" y1="382.6323025531623" x2="524.7880717519043" y2="371.1034101633478"></line><line stroke-width="1.4539087294573276" stroke="lightgray" x1="454.8283538775084" y1="382.6323025531623" x2="449.6291937570224" y2="353.22310967947044"></line><line stroke-width="1.4539087294573276" stroke="lightgray" x1="454.8283538775084" y1="382.6323025531623" x2="440.7664594556161" y2="347.3407812094781"></line><line stroke-width="1.4539087294573276" stroke="lightgray" x1="454.8283538775084" y1="382.6323025531623" x2="442.3072714628197" y2="420.65322270062984"></line><line stroke-width="1.4539087294573276" stroke="lightgray" x1="454.8283538775084" y1="382.6323025531623" x2="443.22352330828255" y2="404.68641370866055"></line><line stroke-width="1.4539087294573276" stroke="lightgray" x1="377.03576508274097" y1="350.4450188772145" x2="327.03539205718266" y2="384.9424341115442"></line><line stroke-width="1.4539087294573276" stroke="lightgray" x1="377.03576508274097" y1="350.4450188772145" x2="331.6430038138786" y2="371.60532402105054"></line><line stroke-width="1.4539087294573276" stroke="lightgray" x1="484.90219963986124" y1="404.7190277462147" x2="442.3072714628197" y2="420.65322270062984"></line><line stroke-width="1.4539087294573276" stroke="lightgray" x1="484.90219963986124" y1="404.7190277462147" x2="443.22352330828255" y2="404.68641370866055"></line><line stroke-width="2.5182437889880047" stroke="lightgray" x1="259.29501786212165" y1="314.1133758399313" x2="143.87980634012834" y2="309.91241687396797"></line><line stroke-width="2.5182437889880047" stroke="lightgray" x1="259.29501786212165" y1="314.1133758399313" x2="160.68224089300048" y2="301.7458857131822"></line><line stroke-width="2.056137443651188" stroke="lightgray" x1="259.29501786212165" y1="314.1133758399313" x2="266.50539008683955" y2="374.7303680017176"></line><line stroke-width="2.056137443651188" stroke="lightgray" x1="259.29501786212165" y1="314.1133758399313" x2="269.33274466511455" y2="358.4750560027135"></line><line stroke-width="2.056137443651188" stroke="lightgray" x1="347.40700230583104" y1="329.5032413109441" x2="308.40211030563574" y2="321.9603657999195"></line><line stroke-width="2.056137443651188" stroke="lightgray" x1="347.40700230583104" y1="329.5032413109441" x2="297.4638064970522" y2="332.75492286077974"></line><line stroke-width="1.4539087294573276" stroke="lightgray" x1="347.40700230583104" y1="329.5032413109441" x2="327.03539205718266" y2="384.9424341115442"></line><line stroke-width="1.4539087294573276" stroke="lightgray" x1="347.40700230583104" y1="329.5032413109441" x2="331.6430038138786" y2="371.60532402105054"></line><line stroke-width="5.630964296093816" stroke="lightgray" x1="560.905562717527" y1="381.545484562692" x2="523.9703595785275" y2="355.79612944158646"></line><line stroke-width="5.630964296093816" stroke="lightgray" x1="560.905562717527" y1="381.545484562692" x2="524.7880717519043" y2="371.1034101633478"></line><line stroke-width="2.056137443651188" stroke="lightgray" x1="327.03539205718266" y1="384.9424341115442" x2="95.98539367665613" y2="257.8822851596996"></line><line stroke-width="4.112274887302376" stroke="lightgray" x1="327.03539205718266" y1="384.9424341115442" x2="419.0737966191635" y2="419.82469962125515"></line><line stroke-width="4.112274887302376" stroke="lightgray" x1="327.03539205718266" y1="384.9424341115442" x2="418.9386987112365" y2="402.2278785731569"></line><line stroke-width="17.567646019443366" stroke="lightgray" x1="327.03539205718266" y1="384.9424341115442" x2="331.6430038138786" y2="371.60532402105054"></line><line stroke-width="2.5182437889880047" stroke="lightgray" x1="327.03539205718266" y1="384.9424341115442" x2="384.80553024678164" y2="413.24046567688714"></line><line stroke-width="2.5182437889880047" stroke="lightgray" x1="327.03539205718266" y1="384.9424341115442" x2="380.9871887110366" y2="428.27772475358023"></line><line stroke-width="6.972701316750996" stroke="lightgray" x1="327.03539205718266" y1="384.9424341115442" x2="154.96146458503878" y2="347.830064219549"></line><line stroke-width="3.561334519748647" stroke="lightgray" x1="327.03539205718266" y1="384.9424341115442" x2="294.0776809380067" y2="407.32839023742633"></line><line stroke-width="2.056137443651188" stroke="lightgray" x1="327.03539205718266" y1="384.9424341115442" x2="366.63702132061906" y2="408.60139385040947"></line><line stroke-width="3.561334519748647" stroke="lightgray" x1="327.03539205718266" y1="384.9424341115442" x2="308.40211030563574" y2="321.9603657999195"></line><line stroke-width="3.561334519748647" stroke="lightgray" x1="327.03539205718266" y1="384.9424341115442" x2="297.4638064970522" y2="332.75492286077974"></line><line stroke-width="4.5976630950867" stroke="lightgray" x1="327.03539205718266" y1="384.9424341115442" x2="309.00481182706255" y2="355.4223776660552"></line><line stroke-width="1.4539087294573276" stroke="lightgray" x1="327.03539205718266" y1="384.9424341115442" x2="442.3072714628197" y2="420.65322270062984"></line><line stroke-width="1.4539087294573276" stroke="lightgray" x1="327.03539205718266" y1="384.9424341115442" x2="443.22352330828255" y2="404.68641370866055"></line><line stroke-width="2.5182437889880047" stroke="lightgray" x1="327.03539205718266" y1="384.9424341115442" x2="266.50539008683955" y2="374.7303680017176"></line><line stroke-width="2.5182437889880047" stroke="lightgray" x1="327.03539205718266" y1="384.9424341115442" x2="269.33274466511455" y2="358.4750560027135"></line><line stroke-width="2.056137443651188" stroke="lightgray" x1="327.03539205718266" y1="384.9424341115442" x2="296.4464679424325" y2="367.1296633991978"></line><line stroke-width="2.5182437889880047" stroke="lightgray" x1="327.03539205718266" y1="384.9424341115442" x2="170.0424196557074" y2="355.2046008772821"></line><line stroke-width="4.361726188371983" stroke="lightgray" x1="419.0737966191635" y1="419.82469962125515" x2="384.80553024678164" y2="413.24046567688714"></line><line stroke-width="4.361726188371983" stroke="lightgray" x1="419.0737966191635" y1="419.82469962125515" x2="380.9871887110366" y2="428.27772475358023"></line><line stroke-width="4.112274887302376" stroke="lightgray" x1="419.0737966191635" y1="419.82469962125515" x2="331.6430038138786" y2="371.60532402105054"></line><line stroke-width="15.10946273392803" stroke="lightgray" x1="419.0737966191635" y1="419.82469962125515" x2="418.9386987112365" y2="402.2278785731569"></line><line stroke-width="2.5182437889880047" stroke="lightgray" x1="419.0737966191635" y1="419.82469962125515" x2="366.63702132061906" y2="408.60139385040947"></line><line stroke-width="2.5182437889880047" stroke="lightgray" x1="419.0737966191635" y1="419.82469962125515" x2="442.3072714628197" y2="420.65322270062984"></line><line stroke-width="2.5182437889880047" stroke="lightgray" x1="419.0737966191635" y1="419.82469962125515" x2="443.22352330828255" y2="404.68641370866055"></line><line stroke-width="2.056137443651188" stroke="lightgray" x1="419.0737966191635" y1="419.82469962125515" x2="523.9703595785275" y2="355.79612944158646"></line><line stroke-width="2.056137443651188" stroke="lightgray" x1="419.0737966191635" y1="419.82469962125515" x2="524.7880717519043" y2="371.1034101633478"></line><line stroke-width="2.5182437889880047" stroke="lightgray" x1="419.0737966191635" y1="419.82469962125515" x2="434.43763240215566" y2="450.35980939227585"></line><line stroke-width="17.325322054440875" stroke="lightgray" x1="523.9703595785275" y1="355.79612944158646" x2="524.7880717519043" y2="371.1034101633478"></line><line stroke-width="2.056137443651188" stroke="lightgray" x1="523.9703595785275" y1="355.79612944158646" x2="442.3072714628197" y2="420.65322270062984"></line><line stroke-width="2.056137443651188" stroke="lightgray" x1="523.9703595785275" y1="355.79612944158646" x2="443.22352330828255" y2="404.68641370866055"></line><line stroke-width="5.8156349178293105" stroke="lightgray" x1="523.9703595785275" y1="355.79612944158646" x2="564.1012761794783" y2="364.39510342475677"></line><line stroke-width="2.056137443651188" stroke="lightgray" x1="523.9703595785275" y1="355.79612944158646" x2="418.9386987112365" y2="402.2278785731569"></line><line stroke-width="1.4539087294573276" stroke="lightgray" x1="523.9703595785275" y1="355.79612944158646" x2="633.0760240094301" y2="294.26530981905194"></line><line stroke-width="1.4539087294573276" stroke="lightgray" x1="523.9703595785275" y1="355.79612944158646" x2="625.4737818678914" y2="280.1347814598052"></line><line stroke-width="1.4539087294573276" stroke="lightgray" x1="523.9703595785275" y1="355.79612944158646" x2="587.972456218776" y2="328.602230065611"></line><line stroke-width="2.056137443651188" stroke="lightgray" x1="442.3072714628197" y1="420.65322270062984" x2="524.7880717519043" y2="371.1034101633478"></line><line stroke-width="9.64413947006459" stroke="lightgray" x1="442.3072714628197" y1="420.65322270062984" x2="443.22352330828255" y2="404.68641370866055"></line><line stroke-width="1.4539087294573276" stroke="lightgray" x1="442.3072714628197" y1="420.65322270062984" x2="331.6430038138786" y2="371.60532402105054"></line><line stroke-width="2.5182437889880047" stroke="lightgray" x1="442.3072714628197" y1="420.65322270062984" x2="418.9386987112365" y2="402.2278785731569"></line><line stroke-width="1.4539087294573276" stroke="lightgray" x1="442.3072714628197" y1="420.65322270062984" x2="471.56698420061264" y2="443.61015558474884"></line><line stroke-width="2.056137443651188" stroke="lightgray" x1="442.3072714628197" y1="420.65322270062984" x2="384.80553024678164" y2="413.24046567688714"></line><line stroke-width="2.056137443651188" stroke="lightgray" x1="442.3072714628197" y1="420.65322270062984" x2="380.9871887110366" y2="428.27772475358023"></line><line stroke-width="1.4539087294573276" stroke="lightgray" x1="633.0760240094301" y1="294.26530981905194" x2="818.4228074442746" y2="185.9272815666679"></line><line stroke-width="10.880056674538253" stroke="lightgray" x1="633.0760240094301" y1="294.26530981905194" x2="625.4737818678914" y2="280.1347814598052"></line><line stroke-width="6.168412330953563" stroke="lightgray" x1="633.0760240094301" y1="294.26530981905194" x2="778.153970427004" y2="187.683564477743"></line><line stroke-width="1.4539087294573276" stroke="lightgray" x1="633.0760240094301" y1="294.26530981905194" x2="587.972456218776" y2="328.602230065611"></line><line stroke-width="1.4539087294573276" stroke="lightgray" x1="633.0760240094301" y1="294.26530981905194" x2="524.7880717519043" y2="371.1034101633478"></line><line stroke-width="8.962495330905584" stroke="lightgray" x1="384.80553024678164" y1="413.24046567688714" x2="380.9871887110366" y2="428.27772475358023"></line><line stroke-width="4.361726188371983" stroke="lightgray" x1="384.80553024678164" y1="413.24046567688714" x2="418.9386987112365" y2="402.2278785731569"></line><line stroke-width="1.4539087294573276" stroke="lightgray" x1="384.80553024678164" y1="413.24046567688714" x2="385.7528366946633" y2="462.5125856237685"></line><line stroke-width="2.5182437889880047" stroke="lightgray" x1="384.80553024678164" y1="413.24046567688714" x2="331.6430038138786" y2="371.60532402105054"></line><line stroke-width="2.056137443651188" stroke="lightgray" x1="384.80553024678164" y1="413.24046567688714" x2="294.0776809380067" y2="407.32839023742633"></line><line stroke-width="2.056137443651188" stroke="lightgray" x1="384.80553024678164" y1="413.24046567688714" x2="443.22352330828255" y2="404.68641370866055"></line><line stroke-width="5.994619261560134" stroke="lightgray" x1="308.40211030563574" y1="321.9603657999195" x2="95.98539367665613" y2="257.8822851596996"></line><line stroke-width="3.561334519748647" stroke="lightgray" x1="308.40211030563574" y1="321.9603657999195" x2="331.6430038138786" y2="371.60532402105054"></line><line stroke-width="7.6933618542599564" stroke="lightgray" x1="308.40211030563574" y1="321.9603657999195" x2="297.4638064970522" y2="332.75492286077974"></line><line stroke-width="1.4539087294573276" stroke="lightgray" x1="308.40211030563574" y1="321.9603657999195" x2="296.4464679424325" y2="367.1296633991978"></line><line stroke-width="4.5976630950867" stroke="lightgray" x1="266.50539008683955" y1="374.7303680017176" x2="269.33274466511455" y2="358.4750560027135"></line><line stroke-width="3.2510387521469357" stroke="lightgray" x1="266.50539008683955" y1="374.7303680017176" x2="294.0776809380067" y2="407.32839023742633"></line><line stroke-width="2.5182437889880047" stroke="lightgray" x1="266.50539008683955" y1="374.7303680017176" x2="331.6430038138786" y2="371.60532402105054"></line><line stroke-width="2.056137443651188" stroke="lightgray" x1="266.50539008683955" y1="374.7303680017176" x2="154.96146458503878" y2="347.830064219549"></line><line stroke-width="4.5976630950867" stroke="lightgray" x1="266.50539008683955" y1="374.7303680017176" x2="170.0424196557074" y2="355.2046008772821"></line><line stroke-width="3.2510387521469357" stroke="lightgray" x1="143.87980634012834" y1="309.91241687396797" x2="170.0424196557074" y2="355.2046008772821"></line><line stroke-width="2.5182437889880047" stroke="lightgray" x1="143.87980634012834" y1="309.91241687396797" x2="154.96146458503878" y2="347.830064219549"></line><line stroke-width="2.056137443651188" stroke="lightgray" x1="143.87980634012834" y1="309.91241687396797" x2="35.05631464475652" y2="252.66680150002762"></line><line stroke-width="2.9078174589146553" stroke="lightgray" x1="143.87980634012834" y1="309.91241687396797" x2="160.68224089300048" y2="301.7458857131822"></line><line stroke-width="2.056137443651188" stroke="lightgray" x1="331.6430038138786" y1="371.60532402105054" x2="95.98539367665613" y2="257.8822851596996"></line><line stroke-width="4.112274887302376" stroke="lightgray" x1="331.6430038138786" y1="371.60532402105054" x2="418.9386987112365" y2="402.2278785731569"></line><line stroke-width="2.5182437889880047" stroke="lightgray" x1="331.6430038138786" y1="371.60532402105054" x2="380.9871887110366" y2="428.27772475358023"></line><line stroke-width="6.972701316750996" stroke="lightgray" x1="331.6430038138786" y1="371.60532402105054" x2="154.96146458503878" y2="347.830064219549"></line><line stroke-width="3.561334519748647" stroke="lightgray" x1="331.6430038138786" y1="371.60532402105054" x2="294.0776809380067" y2="407.32839023742633"></line><line stroke-width="2.056137443651188" stroke="lightgray" x1="331.6430038138786" y1="371.60532402105054" x2="366.63702132061906" y2="408.60139385040947"></line><line stroke-width="3.561334519748647" stroke="lightgray" x1="331.6430038138786" y1="371.60532402105054" x2="297.4638064970522" y2="332.75492286077974"></line><line stroke-width="4.5976630950867" stroke="lightgray" x1="331.6430038138786" y1="371.60532402105054" x2="309.00481182706255" y2="355.4223776660552"></line><line stroke-width="1.4539087294573276" stroke="lightgray" x1="331.6430038138786" y1="371.60532402105054" x2="443.22352330828255" y2="404.68641370866055"></line><line stroke-width="2.5182437889880047" stroke="lightgray" x1="331.6430038138786" y1="371.60532402105054" x2="269.33274466511455" y2="358.4750560027135"></line><line stroke-width="2.056137443651188" stroke="lightgray" x1="331.6430038138786" y1="371.60532402105054" x2="296.4464679424325" y2="367.1296633991978"></line><line stroke-width="2.5182437889880047" stroke="lightgray" x1="331.6430038138786" y1="371.60532402105054" x2="170.0424196557074" y2="355.2046008772821"></line><line stroke-width="4.361726188371983" stroke="lightgray" x1="418.9386987112365" y1="402.2278785731569" x2="380.9871887110366" y2="428.27772475358023"></line><line stroke-width="2.5182437889880047" stroke="lightgray" x1="418.9386987112365" y1="402.2278785731569" x2="366.63702132061906" y2="408.60139385040947"></line><line stroke-width="2.5182437889880047" stroke="lightgray" x1="418.9386987112365" y1="402.2278785731569" x2="443.22352330828255" y2="404.68641370866055"></line><line stroke-width="2.056137443651188" stroke="lightgray" x1="418.9386987112365" y1="402.2278785731569" x2="524.7880717519043" y2="371.1034101633478"></line><line stroke-width="2.5182437889880047" stroke="lightgray" x1="418.9386987112365" y1="402.2278785731569" x2="434.43763240215566" y2="450.35980939227585"></line><line stroke-width="2.056137443651188" stroke="lightgray" x1="524.7880717519043" y1="371.1034101633478" x2="443.22352330828255" y2="404.68641370866055"></line><line stroke-width="5.8156349178293105" stroke="lightgray" x1="524.7880717519043" y1="371.1034101633478" x2="564.1012761794783" y2="364.39510342475677"></line><line stroke-width="1.4539087294573276" stroke="lightgray" x1="524.7880717519043" y1="371.1034101633478" x2="625.4737818678914" y2="280.1347814598052"></line><line stroke-width="1.4539087294573276" stroke="lightgray" x1="524.7880717519043" y1="371.1034101633478" x2="587.972456218776" y2="328.602230065611"></line><line stroke-width="1.4539087294573276" stroke="lightgray" x1="443.22352330828255" y1="404.68641370866055" x2="471.56698420061264" y2="443.61015558474884"></line><line stroke-width="2.056137443651188" stroke="lightgray" x1="443.22352330828255" y1="404.68641370866055" x2="380.9871887110366" y2="428.27772475358023"></line><line stroke-width="1.4539087294573276" stroke="lightgray" x1="625.4737818678914" y1="280.1347814598052" x2="818.4228074442746" y2="185.9272815666679"></line><line stroke-width="6.168412330953563" stroke="lightgray" x1="625.4737818678914" y1="280.1347814598052" x2="778.153970427004" y2="187.683564477743"></line><line stroke-width="1.4539087294573276" stroke="lightgray" x1="625.4737818678914" y1="280.1347814598052" x2="587.972456218776" y2="328.602230065611"></line><line stroke-width="1.4539087294573276" stroke="lightgray" x1="380.9871887110366" y1="428.27772475358023" x2="385.7528366946633" y2="462.5125856237685"></line><line stroke-width="2.056137443651188" stroke="lightgray" x1="380.9871887110366" y1="428.27772475358023" x2="294.0776809380067" y2="407.32839023742633"></line><line stroke-width="5.994619261560134" stroke="lightgray" x1="297.4638064970522" y1="332.75492286077974" x2="95.98539367665613" y2="257.8822851596996"></line><line stroke-width="1.4539087294573276" stroke="lightgray" x1="297.4638064970522" y1="332.75492286077974" x2="296.4464679424325" y2="367.1296633991978"></line><line stroke-width="3.2510387521469357" stroke="lightgray" x1="269.33274466511455" y1="358.4750560027135" x2="294.0776809380067" y2="407.32839023742633"></line><line stroke-width="2.056137443651188" stroke="lightgray" x1="269.33274466511455" y1="358.4750560027135" x2="154.96146458503878" y2="347.830064219549"></line><line stroke-width="4.5976630950867" stroke="lightgray" x1="269.33274466511455" y1="358.4750560027135" x2="170.0424196557074" y2="355.2046008772821"></line><line stroke-width="3.2510387521469357" stroke="lightgray" x1="160.68224089300048" y1="301.7458857131822" x2="170.0424196557074" y2="355.2046008772821"></line><line stroke-width="2.5182437889880047" stroke="lightgray" x1="160.68224089300048" y1="301.7458857131822" x2="154.96146458503878" y2="347.830064219549"></line><line stroke-width="2.056137443651188" stroke="lightgray" x1="160.68224089300048" y1="301.7458857131822" x2="35.05631464475652" y2="252.66680150002762"></line><line stroke-width="5.440028337269126" stroke="lightgray" x1="154.96146458503878" y1="347.830064219549" x2="83.41452504758622" y2="344.7320145398778"></line><line stroke-width="5.440028337269126" stroke="lightgray" x1="154.96146458503878" y1="347.830064219549" x2="83.7222392924281" y2="325.1947235624044"></line><line stroke-width="3.8466809271299782" stroke="lightgray" x1="154.96146458503878" y1="347.830064219549" x2="36.60686279658002" y2="334.90125837491564"></line><line stroke-width="3.8466809271299782" stroke="lightgray" x1="154.96146458503878" y1="347.830064219549" x2="48.76931891040636" y2="342.91747784172964"></line><line stroke-width="4.822069735032295" stroke="lightgray" x1="154.96146458503878" y1="347.830064219549" x2="16.14925402192969" y2="291.00633598889397"></line><line stroke-width="4.822069735032295" stroke="lightgray" x1="154.96146458503878" y1="347.830064219549" x2="5.269412189893588" y2="301.57457292491847"></line><line stroke-width="4.112274887302376" stroke="lightgray" x1="154.96146458503878" y1="347.830064219549" x2="170.0424196557074" y2="355.2046008772821"></line><line stroke-width="7.6933618542599564" stroke="lightgray" x1="170.0424196557074" y1="355.2046008772821" x2="83.41452504758622" y2="344.7320145398778"></line><line stroke-width="7.6933618542599564" stroke="lightgray" x1="170.0424196557074" y1="355.2046008772821" x2="83.7222392924281" y2="325.1947235624044"></line><line stroke-width="6.8194364179915095" stroke="lightgray" x1="170.0424196557074" y1="355.2046008772821" x2="36.60686279658002" y2="334.90125837491564"></line><line stroke-width="6.8194364179915095" stroke="lightgray" x1="170.0424196557074" y1="355.2046008772821" x2="48.76931891040636" y2="342.91747784172964"></line><line stroke-width="2.056137443651188" stroke="lightgray" x1="170.0424196557074" y1="355.2046008772821" x2="16.14925402192969" y2="291.00633598889397"></line><line stroke-width="2.056137443651188" stroke="lightgray" x1="170.0424196557074" y1="355.2046008772821" x2="5.269412189893588" y2="301.57457292491847"></line><line stroke-width="1.4539087294573276" stroke="lightgray" x1="170.0424196557074" y1="355.2046008772821" x2="294.0776809380067" y2="407.32839023742633"></line><line stroke-width="7.963386076774542" stroke="lightgray" x1="778.153970427004" y1="187.683564477743" x2="878.042669636481" y2="134.62584615355655"></line><line stroke-width="7.963386076774542" stroke="lightgray" x1="778.153970427004" y1="187.683564477743" x2="868.3925437661907" y2="119.83190144272704"></line><line stroke-width="1.4539087294573276" stroke="lightgray" x1="778.153970427004" y1="187.683564477743" x2="805.1607177474555" y2="210.0279195968659"></line><line stroke-width="1.4539087294573276" stroke="lightgray" x1="778.153970427004" y1="187.683564477743" x2="768.9409961521366" y2="154.58309318051468"></line><line stroke-width="2.056137443651188" stroke="lightgray" x1="778.153970427004" y1="187.683564477743" x2="789.5681516306588" y2="154.55152648969442"></line><line stroke-width="2.056137443651188" stroke="lightgray" x1="778.153970427004" y1="187.683564477743" x2="806.923293649005" y2="169.65613468662207"></line><line stroke-width="2.5182437889880047" stroke="lightgray" x1="778.153970427004" y1="187.683564477743" x2="833.2818791905139" y2="127.51391109996575"></line><line stroke-width="2.5182437889880047" stroke="lightgray" x1="778.153970427004" y1="187.683564477743" x2="846.9498874341539" y2="148.5485629578208"></line><line stroke-width="1.4539087294573276" stroke="lightgray" x1="95.98539367665613" y1="257.8822851596996" x2="-36.823681629711835" y2="227.36260161477188"></line><line stroke-width="1.4539087294573276" stroke="lightgray" x1="95.98539367665613" y1="257.8822851596996" x2="-36.71723357893057" y2="239.13821746084406"></line><line stroke-width="6.502077504293871" stroke="lightgray" x1="95.98539367665613" y1="257.8822851596996" x2="-68.86172436231874" y2="180.1754294978808"></line><line stroke-width="6.502077504293871" stroke="lightgray" x1="95.98539367665613" y1="257.8822851596996" x2="-70.58424899953015" y2="196.93315621979625"></line><line stroke-width="1.4539087294573276" stroke="lightgray" x1="95.98539367665613" y1="257.8822851596996" x2="-15.31916325111557" y2="222.09925554744325"></line><line stroke-width="1.4539087294573276" stroke="lightgray" x1="95.98539367665613" y1="257.8822851596996" x2="-16.42050084153655" y2="232.71333296742472"></line><line stroke-width="3.2510387521469357" stroke="lightgray" x1="95.98539367665613" y1="257.8822851596996" x2="97.43693999904467" y2="212.83532141759008"></line><line stroke-width="3.2510387521469357" stroke="lightgray" x1="95.98539367665613" y1="257.8822851596996" x2="124.71617232544483" y2="228.01762340179226"></line><line stroke-width="4.112274887302376" stroke="lightgray" x1="95.98539367665613" y1="257.8822851596996" x2="81.44736152618141" y2="218.729985343486"></line><line stroke-width="4.112274887302376" stroke="lightgray" x1="95.98539367665613" y1="257.8822851596996" x2="112.50525259004172" y2="215.08191912001462"></line><line stroke-width="2.5182437889880047" stroke="lightgray" x1="818.4228074442746" y1="185.9272815666679" x2="878.042669636481" y2="134.62584615355655"></line><line stroke-width="2.5182437889880047" stroke="lightgray" x1="818.4228074442746" y1="185.9272815666679" x2="868.3925437661907" y2="119.83190144272704"></line><line stroke-width="1.4539087294573276" stroke="lightgray" x1="818.4228074442746" y1="185.9272815666679" x2="891.7521404964955" y2="146.2063746676242"></line><line stroke-width="1.4539087294573276" stroke="lightgray" x1="818.4228074442746" y1="185.9272815666679" x2="894.8621632219189" y2="156.41698240898006"></line><line stroke-width="2.056137443651188" stroke="lightgray" x1="818.4228074442746" y1="185.9272815666679" x2="833.2818791905139" y2="127.51391109996575"></line><line stroke-width="2.056137443651188" stroke="lightgray" x1="818.4228074442746" y1="185.9272815666679" x2="846.9498874341539" y2="148.5485629578208"></line><line stroke-width="2.056137443651188" stroke="lightgray" x1="35.05631464475652" y1="252.66680150002762" x2="-68.86172436231874" y2="180.1754294978808"></line><line stroke-width="2.056137443651188" stroke="lightgray" x1="35.05631464475652" y1="252.66680150002762" x2="-70.58424899953015" y2="196.93315621979625"></line><line stroke-width="3.561334519748647" stroke="lightgray" x1="35.05631464475652" y1="252.66680150002762" x2="16.14925402192969" y2="291.00633598889397"></line><line stroke-width="3.561334519748647" stroke="lightgray" x1="35.05631464475652" y1="252.66680150002762" x2="5.269412189893588" y2="301.57457292491847"></line><line stroke-width="16.830210323740985" stroke="lightgray" x1="878.042669636481" y1="134.62584615355655" x2="868.3925437661907" y2="119.83190144272704"></line><line stroke-width="5.8156349178293105" stroke="lightgray" x1="878.042669636481" y1="134.62584615355655" x2="867.8947939262806" y2="93.64672137352082"></line><line stroke-width="3.561334519748647" stroke="lightgray" x1="878.042669636481" y1="134.62584615355655" x2="903.519789923094" y2="102.28318075884779"></line><line stroke-width="2.5182437889880047" stroke="lightgray" x1="878.042669636481" y1="134.62584615355655" x2="948.0526313900506" y2="107.19502666130806"></line><line stroke-width="2.056137443651188" stroke="lightgray" x1="878.042669636481" y1="134.62584615355655" x2="833.2818791905139" y2="127.51391109996575"></line><line stroke-width="2.056137443651188" stroke="lightgray" x1="878.042669636481" y1="134.62584615355655" x2="846.9498874341539" y2="148.5485629578208"></line><line stroke-width="1.4539087294573276" stroke="lightgray" x1="36.60686279658002" y1="334.90125837491564" x2="83.41452504758622" y2="344.7320145398778"></line><line stroke-width="1.4539087294573276" stroke="lightgray" x1="36.60686279658002" y1="334.90125837491564" x2="83.7222392924281" y2="325.1947235624044"></line><line stroke-width="14.245338078994587" stroke="lightgray" x1="36.60686279658002" y1="334.90125837491564" x2="48.76931891040636" y2="342.91747784172964"></line><line stroke-width="2.056137443651188" stroke="lightgray" x1="36.60686279658002" y1="334.90125837491564" x2="31.579742735880608" y2="376.5383212213982"></line><line stroke-width="2.056137443651188" stroke="lightgray" x1="36.60686279658002" y1="334.90125837491564" x2="19.01268968314519" y2="370.22838424092066"></line><line stroke-width="2.5182437889880047" stroke="lightgray" x1="36.60686279658002" y1="334.90125837491564" x2="47.031520024171" y2="377.21017208098317"></line><line stroke-width="2.056137443651188" stroke="lightgray" x1="36.60686279658002" y1="334.90125837491564" x2="9.864843268158719" y2="358.12287820073885"></line><line stroke-width="3.2510387521469357" stroke="lightgray" x1="36.60686279658002" y1="334.90125837491564" x2="16.14925402192969" y2="291.00633598889397"></line><line stroke-width="3.2510387521469357" stroke="lightgray" x1="36.60686279658002" y1="334.90125837491564" x2="5.269412189893588" y2="301.57457292491847"></line><line stroke-width="2.056137443651188" stroke="lightgray" x1="36.60686279658002" y1="334.90125837491564" x2="-103.13925954252878" y2="255.1253546161884"></line><line stroke-width="7.269543647286639" stroke="lightgray" x1="-68.86172436231874" y1="180.1754294978808" x2="-173.71599415579857" y2="170.92976327545128"></line><line stroke-width="11.072639000181882" stroke="lightgray" x1="-68.86172436231874" y1="180.1754294978808" x2="-70.58424899953015" y2="196.93315621979625"></line><line stroke-width="7.6933618542599564" stroke="lightgray" x1="-68.86172436231874" y1="180.1754294978808" x2="-128.63856905256952" y2="207.25848213665768"></line><line stroke-width="3.8466809271299782" stroke="lightgray" x1="-68.86172436231874" y1="180.1754294978808" x2="-188.14680715391796" y2="133.77150513940836"></line><line stroke-width="4.5976630950867" stroke="lightgray" x1="-68.86172436231874" y1="180.1754294978808" x2="-120.59541615863422" y2="187.48268639557753"></line><line stroke-width="1.4539087294573276" stroke="lightgray" x1="83.41452504758622" y1="344.7320145398778" x2="48.76931891040636" y2="342.91747784172964"></line><line stroke-width="10.072975155952019" stroke="lightgray" x1="83.41452504758622" y1="344.7320145398778" x2="83.7222392924281" y2="325.1947235624044"></line><line stroke-width="1.4539087294573276" stroke="lightgray" x1="83.41452504758622" y1="344.7320145398778" x2="16.14925402192969" y2="291.00633598889397"></line><line stroke-width="1.4539087294573276" stroke="lightgray" x1="83.41452504758622" y1="344.7320145398778" x2="5.269412189893588" y2="301.57457292491847"></line><line stroke-width="2.9078174589146553" stroke="lightgray" x1="16.14925402192969" y1="291.00633598889397" x2="-128.63856905256952" y2="207.25848213665768"></line><line stroke-width="3.2510387521469357" stroke="lightgray" x1="16.14925402192969" y1="291.00633598889397" x2="48.76931891040636" y2="342.91747784172964"></line><line stroke-width="7.413508982485807" stroke="lightgray" x1="16.14925402192969" y1="291.00633598889397" x2="5.269412189893588" y2="301.57457292491847"></line><line stroke-width="1.4539087294573276" stroke="lightgray" x1="16.14925402192969" y1="291.00633598889397" x2="83.7222392924281" y2="325.1947235624044"></line><line stroke-width="4.822069735032295" stroke="lightgray" x1="16.14925402192969" y1="291.00633598889397" x2="-103.13925954252878" y2="255.1253546161884"></line><line stroke-width="1.4539087294573276" stroke="lightgray" x1="16.14925402192969" y1="291.00633598889397" x2="-102.13484110504079" y2="234.73606527425943"></line><line stroke-width="4.112274887302376" stroke="lightgray" x1="833.2818791905139" y1="127.51391109996575" x2="867.8947939262806" y2="93.64672137352082"></line><line stroke-width="3.561334519748647" stroke="lightgray" x1="833.2818791905139" y1="127.51391109996575" x2="846.9498874341539" y2="148.5485629578208"></line><line stroke-width="2.056137443651188" stroke="lightgray" x1="833.2818791905139" y1="127.51391109996575" x2="868.3925437661907" y2="119.83190144272704"></line><line stroke-width="2.056137443651188" stroke="lightgray" x1="97.43693999904467" y1="212.83532141759008" x2="124.71617232544483" y2="228.01762340179226"></line><line stroke-width="2.056137443651188" stroke="lightgray" x1="81.44736152618141" y1="218.729985343486" x2="112.50525259004172" y2="215.08191912001462"></line><line stroke-width="2.5182437889880047" stroke="lightgray" x1="-36.823681629711835" y1="227.36260161477188" x2="-120.59541615863422" y2="187.48268639557753"></line><line stroke-width="1.4539087294573276" stroke="lightgray" x1="-36.823681629711835" y1="227.36260161477188" x2="-103.13925954252878" y2="255.1253546161884"></line><line stroke-width="1.4539087294573276" stroke="lightgray" x1="-15.31916325111557" y1="222.09925554744325" x2="-128.63856905256952" y2="207.25848213665768"></line><line stroke-width="4.112274887302376" stroke="lightgray" x1="891.7521404964955" y1="146.2063746676242" x2="948.0526313900506" y2="107.19502666130806"></line><line stroke-width="5.8156349178293105" stroke="lightgray" x1="868.3925437661907" y1="119.83190144272704" x2="867.8947939262806" y2="93.64672137352082"></line><line stroke-width="3.561334519748647" stroke="lightgray" x1="868.3925437661907" y1="119.83190144272704" x2="903.519789923094" y2="102.28318075884779"></line><line stroke-width="2.5182437889880047" stroke="lightgray" x1="868.3925437661907" y1="119.83190144272704" x2="948.0526313900506" y2="107.19502666130806"></line><line stroke-width="2.056137443651188" stroke="lightgray" x1="868.3925437661907" y1="119.83190144272704" x2="846.9498874341539" y2="148.5485629578208"></line><line stroke-width="1.4539087294573276" stroke="lightgray" x1="48.76931891040636" y1="342.91747784172964" x2="83.7222392924281" y2="325.1947235624044"></line><line stroke-width="2.056137443651188" stroke="lightgray" x1="48.76931891040636" y1="342.91747784172964" x2="31.579742735880608" y2="376.5383212213982"></line><line stroke-width="2.056137443651188" stroke="lightgray" x1="48.76931891040636" y1="342.91747784172964" x2="19.01268968314519" y2="370.22838424092066"></line><line stroke-width="2.5182437889880047" stroke="lightgray" x1="48.76931891040636" y1="342.91747784172964" x2="47.031520024171" y2="377.21017208098317"></line><line stroke-width="2.056137443651188" stroke="lightgray" x1="48.76931891040636" y1="342.91747784172964" x2="9.864843268158719" y2="358.12287820073885"></line><line stroke-width="3.2510387521469357" stroke="lightgray" x1="48.76931891040636" y1="342.91747784172964" x2="5.269412189893588" y2="301.57457292491847"></line><line stroke-width="2.056137443651188" stroke="lightgray" x1="48.76931891040636" y1="342.91747784172964" x2="-103.13925954252878" y2="255.1253546161884"></line><line stroke-width="7.269543647286639" stroke="lightgray" x1="-70.58424899953015" y1="196.93315621979625" x2="-173.71599415579857" y2="170.92976327545128"></line><line stroke-width="7.6933618542599564" stroke="lightgray" x1="-70.58424899953015" y1="196.93315621979625" x2="-128.63856905256952" y2="207.25848213665768"></line><line stroke-width="3.8466809271299782" stroke="lightgray" x1="-70.58424899953015" y1="196.93315621979625" x2="-188.14680715391796" y2="133.77150513940836"></line><line stroke-width="4.5976630950867" stroke="lightgray" x1="-70.58424899953015" y1="196.93315621979625" x2="-120.59541615863422" y2="187.48268639557753"></line><line stroke-width="1.4539087294573276" stroke="lightgray" x1="83.7222392924281" y1="325.1947235624044" x2="5.269412189893588" y2="301.57457292491847"></line><line stroke-width="2.9078174589146553" stroke="lightgray" x1="5.269412189893588" y1="301.57457292491847" x2="-128.63856905256952" y2="207.25848213665768"></line><line stroke-width="4.822069735032295" stroke="lightgray" x1="5.269412189893588" y1="301.57457292491847" x2="-103.13925954252878" y2="255.1253546161884"></line><line stroke-width="1.4539087294573276" stroke="lightgray" x1="5.269412189893588" y1="301.57457292491847" x2="-102.13484110504079" y2="234.73606527425943"></line><line stroke-width="4.112274887302376" stroke="lightgray" x1="846.9498874341539" y1="148.5485629578208" x2="867.8947939262806" y2="93.64672137352082"></line><line stroke-width="2.5182437889880047" stroke="lightgray" x1="-36.71723357893057" y1="239.13821746084406" x2="-120.59541615863422" y2="187.48268639557753"></line><line stroke-width="1.4539087294573276" stroke="lightgray" x1="-36.71723357893057" y1="239.13821746084406" x2="-103.13925954252878" y2="255.1253546161884"></line><line stroke-width="1.4539087294573276" stroke="lightgray" x1="-16.42050084153655" y1="232.71333296742472" x2="-128.63856905256952" y2="207.25848213665768"></line><line stroke-width="4.112274887302376" stroke="lightgray" x1="894.8621632219189" y1="156.41698240898006" x2="948.0526313900506" y2="107.19502666130806"></line><line stroke-width="6.168412330953563" stroke="lightgray" x1="-128.63856905256952" y1="207.25848213665768" x2="-199.46638941855747" y2="210.2859002366716"></line><line stroke-width="6.168412330953563" stroke="lightgray" x1="-128.63856905256952" y1="207.25848213665768" x2="-202.12172112432694" y2="226.40797668615144"></line><line stroke-width="6.168412330953563" stroke="lightgray" x1="-128.63856905256952" y1="207.25848213665768" x2="-202.06627150008347" y2="164.21013237664687"></line><line stroke-width="6.168412330953563" stroke="lightgray" x1="-128.63856905256952" y1="207.25848213665768" x2="-208.75348400837052" y2="178.6735227090141"></line><line stroke-width="1.4539087294573276" stroke="lightgray" x1="-128.63856905256952" y1="207.25848213665768" x2="-120.59541615863422" y2="187.48268639557753"></line><line stroke-width="2.5182437889880047" stroke="lightgray" x1="-128.63856905256952" y1="207.25848213665768" x2="-183.44248443723083" y2="213.32995122926616"></line><line stroke-width="2.5182437889880047" stroke="lightgray" x1="-128.63856905256952" y1="207.25848213665768" x2="-182.10857693917941" y2="194.52267403008457"></line><line stroke-width="3.561334519748647" stroke="lightgray" x1="-128.63856905256952" y1="207.25848213665768" x2="-103.13925954252878" y2="255.1253546161884"></line><line stroke-width="2.5182437889880047" stroke="lightgray" x1="-128.63856905256952" y1="207.25848213665768" x2="-173.71599415579857" y2="170.92976327545128"></line><line stroke-width="1.4539087294573276" stroke="lightgray" x1="-128.63856905256952" y1="207.25848213665768" x2="-188.14680715391796" y2="133.77150513940836"></line><line stroke-width="1.4539087294573276" stroke="lightgray" x1="-128.63856905256952" y1="207.25848213665768" x2="-240.95456777549492" y2="188.43991183575312"></line><line stroke-width="1.4539087294573276" stroke="lightgray" x1="-128.63856905256952" y1="207.25848213665768" x2="-231.60126385838555" y2="168.83294844091319"></line><line stroke-width="4.5976630950867" stroke="lightgray" x1="-173.71599415579857" y1="170.92976327545128" x2="-271.6528549228917" y2="175.29458924190408"></line><line stroke-width="4.5976630950867" stroke="lightgray" x1="-173.71599415579857" y1="170.92976327545128" x2="-257.7276395568049" y2="153.33930127263858"></line><line stroke-width="4.112274887302376" stroke="lightgray" x1="-173.71599415579857" y1="170.92976327545128" x2="-240.95456777549492" y2="188.43991183575312"></line><line stroke-width="4.112274887302376" stroke="lightgray" x1="-173.71599415579857" y1="170.92976327545128" x2="-231.60126385838555" y2="168.83294844091319"></line><line stroke-width="3.561334519748647" stroke="lightgray" x1="-173.71599415579857" y1="170.92976327545128" x2="-202.06627150008347" y2="164.21013237664687"></line><line stroke-width="3.561334519748647" stroke="lightgray" x1="-173.71599415579857" y1="170.92976327545128" x2="-208.75348400837052" y2="178.6735227090141"></line><line stroke-width="1.4539087294573276" stroke="lightgray" x1="-173.71599415579857" y1="170.92976327545128" x2="-199.46638941855747" y2="210.2859002366716"></line><line stroke-width="1.4539087294573276" stroke="lightgray" x1="-173.71599415579857" y1="170.92976327545128" x2="-202.12172112432694" y2="226.40797668615144"></line><line stroke-width="1.4539087294573276" stroke="lightgray" x1="-120.59541615863422" y1="187.48268639557753" x2="-114.1559296204427" y2="220.483522246265"></line><line stroke-width="1.4539087294573276" stroke="lightgray" x1="-120.59541615863422" y1="187.48268639557753" x2="-137.86184751268453" y2="235.93545363077078"></line><line stroke-width="2.9078174589146553" stroke="lightgray" x1="-120.59541615863422" y1="187.48268639557753" x2="-183.44248443723083" y2="213.32995122926616"></line><line stroke-width="2.9078174589146553" stroke="lightgray" x1="-120.59541615863422" y1="187.48268639557753" x2="-182.10857693917941" y2="194.52267403008457"></line><line stroke-width="2.056137443651188" stroke="lightgray" x1="-120.59541615863422" y1="187.48268639557753" x2="-202.06627150008347" y2="164.21013237664687"></line><line stroke-width="2.056137443651188" stroke="lightgray" x1="-120.59541615863422" y1="187.48268639557753" x2="-208.75348400837052" y2="178.6735227090141"></line><line stroke-width="8.224549774604752" stroke="lightgray" x1="948.0526313900506" y1="107.19502666130806" x2="1030.4030738456797" y2="73.15972652597797"></line><line stroke-width="8.224549774604752" stroke="lightgray" x1="948.0526313900506" y1="107.19502666130806" x2="1019.8033858567204" y2="51.10134632739584"></line><line stroke-width="3.2510387521469357" stroke="lightgray" x1="-103.13925954252878" y1="255.1253546161884" x2="-183.44248443723083" y2="213.32995122926616"></line><line stroke-width="3.2510387521469357" stroke="lightgray" x1="-103.13925954252878" y1="255.1253546161884" x2="-182.10857693917941" y2="194.52267403008457"></line><line stroke-width="2.056137443651188" stroke="lightgray" x1="-103.13925954252878" y1="255.1253546161884" x2="-114.1559296204427" y2="220.483522246265"></line><line stroke-width="2.056137443651188" stroke="lightgray" x1="-103.13925954252878" y1="255.1253546161884" x2="-137.86184751268453" y2="235.93545363077078"></line><line stroke-width="2.056137443651188" stroke="lightgray" x1="-103.13925954252878" y1="255.1253546161884" x2="-202.06627150008347" y2="164.21013237664687"></line><line stroke-width="2.056137443651188" stroke="lightgray" x1="-103.13925954252878" y1="255.1253546161884" x2="-208.75348400837052" y2="178.6735227090141"></line><line stroke-width="2.056137443651188" stroke="lightgray" x1="-103.13925954252878" y1="255.1253546161884" x2="-199.46638941855747" y2="210.2859002366716"></line><line stroke-width="2.056137443651188" stroke="lightgray" x1="-103.13925954252878" y1="255.1253546161884" x2="-202.12172112432694" y2="226.40797668615144"></line><line stroke-width="7.269543647286639" stroke="lightgray" x1="-188.14680715391796" y1="133.77150513940836" x2="-241.6359458013612" y2="123.80958867922732"></line><line stroke-width="7.269543647286639" stroke="lightgray" x1="-188.14680715391796" y1="133.77150513940836" x2="-234.31344228277644" y2="105.90951807573677"></line><line stroke-width="1.4539087294573276" stroke="lightgray" x1="-188.14680715391796" y1="133.77150513940836" x2="-256.6407524153729" y2="105.81306271055963"></line><line stroke-width="1.4539087294573276" stroke="lightgray" x1="-188.14680715391796" y1="133.77150513940836" x2="-252.82470067628103" y2="116.9977312781047"></line><line stroke-width="1.4539087294573276" stroke="lightgray" x1="-188.14680715391796" y1="133.77150513940836" x2="-271.6528549228917" y2="175.29458924190408"></line><line stroke-width="1.4539087294573276" stroke="lightgray" x1="-188.14680715391796" y1="133.77150513940836" x2="-257.7276395568049" y2="153.33930127263858"></line><line stroke-width="1.4539087294573276" stroke="lightgray" x1="-188.14680715391796" y1="133.77150513940836" x2="-202.06627150008347" y2="164.21013237664687"></line><line stroke-width="1.4539087294573276" stroke="lightgray" x1="-188.14680715391796" y1="133.77150513940836" x2="-208.75348400837052" y2="178.6735227090141"></line><line stroke-width="2.5182437889880047" stroke="lightgray" x1="-102.13484110504079" y1="234.73606527425943" x2="-202.06627150008347" y2="164.21013237664687"></line><line stroke-width="2.5182437889880047" stroke="lightgray" x1="-102.13484110504079" y1="234.73606527425943" x2="-208.75348400837052" y2="178.6735227090141"></line><line stroke-width="10.880056674538253" stroke="lightgray" x1="1030.4030738456797" y1="73.15972652597797" x2="1019.8033858567204" y2="51.10134632739584"></line><line stroke-width="2.5182437889880047" stroke="lightgray" x1="1030.4030738456797" y1="73.15972652597797" x2="1066.320447931366" y2="30.320676177955782"></line><line stroke-width="2.056137443651188" stroke="lightgray" x1="1030.4030738456797" y1="73.15972652597797" x2="1060.4340068477081" y2="51.70787210707572"></line><line stroke-width="1.4539087294573276" stroke="lightgray" x1="-202.06627150008347" y1="164.21013237664687" x2="-241.6359458013612" y2="123.80958867922732"></line><line stroke-width="1.4539087294573276" stroke="lightgray" x1="-202.06627150008347" y1="164.21013237664687" x2="-234.31344228277644" y2="105.90951807573677"></line><line stroke-width="7.963386076774542" stroke="lightgray" x1="-202.06627150008347" y1="164.21013237664687" x2="-208.75348400837052" y2="178.6735227090141"></line><line stroke-width="3.561334519748647" stroke="lightgray" x1="-202.06627150008347" y1="164.21013237664687" x2="-248.61723326948993" y2="205.37663480332154"></line><line stroke-width="1.4539087294573276" stroke="lightgray" x1="-202.06627150008347" y1="164.21013237664687" x2="-271.6528549228917" y2="175.29458924190408"></line><line stroke-width="1.4539087294573276" stroke="lightgray" x1="-202.06627150008347" y1="164.21013237664687" x2="-257.7276395568049" y2="153.33930127263858"></line><line stroke-width="1.4539087294573276" stroke="lightgray" x1="-202.06627150008347" y1="164.21013237664687" x2="-279.1176160560803" y2="150.13988136007063"></line><line stroke-width="1.4539087294573276" stroke="lightgray" x1="-202.06627150008347" y1="164.21013237664687" x2="-287.62824117091736" y2="127.83912143575304"></line><line stroke-width="2.056137443651188" stroke="lightgray" x1="-202.06627150008347" y1="164.21013237664687" x2="-199.46638941855747" y2="210.2859002366716"></line><line stroke-width="2.056137443651188" stroke="lightgray" x1="-202.06627150008347" y1="164.21013237664687" x2="-202.12172112432694" y2="226.40797668615144"></line><line stroke-width="4.822069735032295" stroke="lightgray" x1="-271.6528549228917" y1="175.29458924190408" x2="-279.1176160560803" y2="150.13988136007063"></line><line stroke-width="6.972701316750996" stroke="lightgray" x1="-271.6528549228917" y1="175.29458924190408" x2="-287.62824117091736" y2="127.83912143575304"></line><line stroke-width="8.224549774604752" stroke="lightgray" x1="-271.6528549228917" y1="175.29458924190408" x2="-257.7276395568049" y2="153.33930127263858"></line><line stroke-width="2.9078174589146553" stroke="lightgray" x1="-271.6528549228917" y1="175.29458924190408" x2="-248.61723326948993" y2="205.37663480332154"></line><line stroke-width="1.4539087294573276" stroke="lightgray" x1="-271.6528549228917" y1="175.29458924190408" x2="-208.75348400837052" y2="178.6735227090141"></line><line stroke-width="1.4539087294573276" stroke="lightgray" x1="-271.6528549228917" y1="175.29458924190408" x2="-240.95456777549492" y2="188.43991183575312"></line><line stroke-width="1.4539087294573276" stroke="lightgray" x1="-271.6528549228917" y1="175.29458924190408" x2="-231.60126385838555" y2="168.83294844091319"></line><line stroke-width="2.056137443651188" stroke="lightgray" x1="-271.6528549228917" y1="175.29458924190408" x2="-315.4615600935119" y2="156.41256469347266"></line><line stroke-width="1.4539087294573276" stroke="lightgray" x1="-199.46638941855747" y1="210.2859002366716" x2="-248.61723326948993" y2="205.37663480332154"></line><line stroke-width="1.4539087294573276" stroke="lightgray" x1="-199.46638941855747" y1="210.2859002366716" x2="-240.95456777549492" y2="188.43991183575312"></line><line stroke-width="1.4539087294573276" stroke="lightgray" x1="-199.46638941855747" y1="210.2859002366716" x2="-231.60126385838555" y2="168.83294844091319"></line><line stroke-width="6.502077504293871" stroke="lightgray" x1="-199.46638941855747" y1="210.2859002366716" x2="-202.12172112432694" y2="226.40797668615144"></line><line stroke-width="2.056137443651188" stroke="lightgray" x1="-199.46638941855747" y1="210.2859002366716" x2="-208.75348400837052" y2="178.6735227090141"></line><line stroke-width="2.056137443651188" stroke="lightgray" x1="-241.6359458013612" y1="123.80958867922732" x2="-261.6927493445141" y2="63.283562102231826"></line><line stroke-width="1.4539087294573276" stroke="lightgray" x1="-241.6359458013612" y1="123.80958867922732" x2="-208.75348400837052" y2="178.6735227090141"></line><line stroke-width="2.5182437889880047" stroke="lightgray" x1="-241.6359458013612" y1="123.80958867922732" x2="-279.1176160560803" y2="150.13988136007063"></line><line stroke-width="5.036487577976009" stroke="lightgray" x1="-241.6359458013612" y1="123.80958867922732" x2="-234.31344228277644" y2="105.90951807573677"></line><line stroke-width="1.4539087294573276" stroke="lightgray" x1="-241.6359458013612" y1="123.80958867922732" x2="-287.62824117091736" y2="127.83912143575304"></line><line stroke-width="3.561334519748647" stroke="lightgray" x1="-240.95456777549492" y1="188.43991183575312" x2="-279.1176160560803" y2="150.13988136007063"></line><line stroke-width="2.9078174589146553" stroke="lightgray" x1="-240.95456777549492" y1="188.43991183575312" x2="-287.62824117091736" y2="127.83912143575304"></line><line stroke-width="5.036487577976009" stroke="lightgray" x1="-240.95456777549492" y1="188.43991183575312" x2="-231.60126385838555" y2="168.83294844091319"></line><line stroke-width="1.4539087294573276" stroke="lightgray" x1="-240.95456777549492" y1="188.43991183575312" x2="-202.12172112432694" y2="226.40797668615144"></line><line stroke-width="1.4539087294573276" stroke="lightgray" x1="-240.95456777549492" y1="188.43991183575312" x2="-257.7276395568049" y2="153.33930127263858"></line><line stroke-width="5.036487577976009" stroke="lightgray" x1="-183.44248443723083" y1="213.32995122926616" x2="-182.10857693917941" y2="194.52267403008457"></line><line stroke-width="2.5182437889880047" stroke="lightgray" x1="-183.44248443723083" y1="213.32995122926616" x2="-248.61723326948993" y2="205.37663480332154"></line><line stroke-width="1.4539087294573276" stroke="lightgray" x1="-183.44248443723083" y1="213.32995122926616" x2="-279.1176160560803" y2="150.13988136007063"></line><line stroke-width="2.056137443651188" stroke="lightgray" x1="-114.1559296204427" y1="220.483522246265" x2="-137.86184751268453" y2="235.93545363077078"></line><line stroke-width="2.056137443651188" stroke="lightgray" x1="-256.6407524153729" y1="105.81306271055963" x2="-279.1176160560803" y2="150.13988136007063"></line><line stroke-width="1.4539087294573276" stroke="lightgray" x1="-256.6407524153729" y1="105.81306271055963" x2="-287.62824117091736" y2="127.83912143575304"></line><line stroke-width="2.5182437889880047" stroke="lightgray" x1="1019.8033858567204" y1="51.10134632739584" x2="1066.320447931366" y2="30.320676177955782"></line><line stroke-width="2.056137443651188" stroke="lightgray" x1="1019.8033858567204" y1="51.10134632739584" x2="1060.4340068477081" y2="51.70787210707572"></line><line stroke-width="1.4539087294573276" stroke="lightgray" x1="-208.75348400837052" y1="178.6735227090141" x2="-234.31344228277644" y2="105.90951807573677"></line><line stroke-width="3.561334519748647" stroke="lightgray" x1="-208.75348400837052" y1="178.6735227090141" x2="-248.61723326948993" y2="205.37663480332154"></line><line stroke-width="1.4539087294573276" stroke="lightgray" x1="-208.75348400837052" y1="178.6735227090141" x2="-257.7276395568049" y2="153.33930127263858"></line><line stroke-width="1.4539087294573276" stroke="lightgray" x1="-208.75348400837052" y1="178.6735227090141" x2="-279.1176160560803" y2="150.13988136007063"></line><line stroke-width="1.4539087294573276" stroke="lightgray" x1="-208.75348400837052" y1="178.6735227090141" x2="-287.62824117091736" y2="127.83912143575304"></line><line stroke-width="2.056137443651188" stroke="lightgray" x1="-208.75348400837052" y1="178.6735227090141" x2="-202.12172112432694" y2="226.40797668615144"></line><line stroke-width="4.822069735032295" stroke="lightgray" x1="-257.7276395568049" y1="153.33930127263858" x2="-279.1176160560803" y2="150.13988136007063"></line><line stroke-width="6.972701316750996" stroke="lightgray" x1="-257.7276395568049" y1="153.33930127263858" x2="-287.62824117091736" y2="127.83912143575304"></line><line stroke-width="2.9078174589146553" stroke="lightgray" x1="-257.7276395568049" y1="153.33930127263858" x2="-248.61723326948993" y2="205.37663480332154"></line><line stroke-width="1.4539087294573276" stroke="lightgray" x1="-257.7276395568049" y1="153.33930127263858" x2="-231.60126385838555" y2="168.83294844091319"></line><line stroke-width="2.056137443651188" stroke="lightgray" x1="-257.7276395568049" y1="153.33930127263858" x2="-315.4615600935119" y2="156.41256469347266"></line><line stroke-width="1.4539087294573276" stroke="lightgray" x1="-202.12172112432694" y1="226.40797668615144" x2="-248.61723326948993" y2="205.37663480332154"></line><line stroke-width="1.4539087294573276" stroke="lightgray" x1="-202.12172112432694" y1="226.40797668615144" x2="-231.60126385838555" y2="168.83294844091319"></line><line stroke-width="2.056137443651188" stroke="lightgray" x1="-234.31344228277644" y1="105.90951807573677" x2="-261.6927493445141" y2="63.283562102231826"></line><line stroke-width="2.5182437889880047" stroke="lightgray" x1="-234.31344228277644" y1="105.90951807573677" x2="-279.1176160560803" y2="150.13988136007063"></line><line stroke-width="1.4539087294573276" stroke="lightgray" x1="-234.31344228277644" y1="105.90951807573677" x2="-287.62824117091736" y2="127.83912143575304"></line><line stroke-width="3.561334519748647" stroke="lightgray" x1="-231.60126385838555" y1="168.83294844091319" x2="-279.1176160560803" y2="150.13988136007063"></line><line stroke-width="2.9078174589146553" stroke="lightgray" x1="-231.60126385838555" y1="168.83294844091319" x2="-287.62824117091736" y2="127.83912143575304"></line><line stroke-width="2.5182437889880047" stroke="lightgray" x1="-182.10857693917941" y1="194.52267403008457" x2="-248.61723326948993" y2="205.37663480332154"></line><line stroke-width="1.4539087294573276" stroke="lightgray" x1="-182.10857693917941" y1="194.52267403008457" x2="-279.1176160560803" y2="150.13988136007063"></line><line stroke-width="2.056137443651188" stroke="lightgray" x1="-252.82470067628103" y1="116.9977312781047" x2="-279.1176160560803" y2="150.13988136007063"></line><line stroke-width="1.4539087294573276" stroke="lightgray" x1="-252.82470067628103" y1="116.9977312781047" x2="-287.62824117091736" y2="127.83912143575304"></line><line stroke-width="4.5976630950867" stroke="lightgray" x1="-279.1176160560803" y1="150.13988136007063" x2="-333.326574182349" y2="137.6492265300391"></line><line stroke-width="3.2510387521469357" stroke="lightgray" x1="-279.1176160560803" y1="150.13988136007063" x2="-347.2857849616112" y2="123.27392057113039"></line><line stroke-width="4.5976630950867" stroke="lightgray" x1="-279.1176160560803" y1="150.13988136007063" x2="-327.0299593379176" y2="106.6074661039646"></line><line stroke-width="4.112274887302376" stroke="lightgray" x1="-279.1176160560803" y1="150.13988136007063" x2="-287.62824117091736" y2="127.83912143575304"></line><line stroke-width="2.056137443651188" stroke="lightgray" x1="-279.1176160560803" y1="150.13988136007063" x2="-248.61723326948993" y2="205.37663480332154"></line><line stroke-width="2.5182437889880047" stroke="lightgray" x1="-287.62824117091736" y1="127.83912143575304" x2="-347.2857849616112" y2="123.27392057113039"></line><line stroke-width="2.056137443651188" stroke="lightgray" x1="-287.62824117091736" y1="127.83912143575304" x2="-333.326574182349" y2="137.6492265300391"></line><line stroke-width="3.561334519748647" stroke="lightgray" x1="-315.4615600935119" y1="156.41256469347266" x2="-347.2857849616112" y2="123.27392057113039"></line><line stroke-width="2.5182437889880047" stroke="lightgray" x1="-261.6927493445141" y1="63.283562102231826" x2="-280.80228479331316" y2="25.636698093842664"></line><line stroke-width="1.4539087294573276" stroke="lightgray" x1="1066.320447931366" y1="30.320676177955782" x2="1098.6701620048793" y2="9.046106921274397"></line><line stroke-width="2.056137443651188" stroke="lightgray" x1="-333.326574182349" y1="137.6492265300391" x2="-347.2857849616112" y2="123.27392057113039"></line><line stroke-width="2.5182437889880047" stroke="lightgray" x1="-333.326574182349" y1="137.6492265300391" x2="-327.0299593379176" y2="106.6074661039646"></line><line stroke-width="1.4539087294573276" stroke="lightgray" x1="-327.0299593379176" y1="106.6074661039646" x2="-347.2857849616112" y2="123.27392057113039"></line></g><g class="nodes"><circle r="7.6933618542599564" fill="rgb(247, 252, 253)" stroke="black" stroke-width="1px" transform="translate(475.3127791095843,348.6420581943612)"></circle><circle r="6.502077504293871" fill="rgb(247, 252, 253)" stroke="black" stroke-width="1px" transform="translate(419.67015181874984,308.91653049994983)"></circle><circle r="4.112274887302376" fill="rgb(247, 252, 253)" stroke="black" stroke-width="1px" transform="translate(469.58878374756216,327.92522144354757)"></circle><circle r="2.9078174589146553" fill="rgb(247, 252, 253)" stroke="black" stroke-width="1px" transform="translate(442.62499360732494,323.7377694747072)"></circle><circle r="11.631269835658621" fill="rgb(228, 245, 247)" stroke="black" stroke-width="1px" transform="translate(518.8212733357343,322.2118717446572)"></circle><circle r="10.484284947806191" fill="rgb(228, 245, 247)" stroke="black" stroke-width="1px" transform="translate(429.38213590900114,372.14499343512597)"></circle><circle r="10.484284947806191" fill="rgb(228, 245, 247)" stroke="black" stroke-width="1px" transform="translate(405.1759835104515,355.69929277717455)"></circle><circle r="9.64413947006459" fill="rgb(228, 245, 247)" stroke="black" stroke-width="1px" transform="translate(391.97772940498055,370.7498997851187)"></circle><circle r="5.8156349178293105" fill="rgb(228, 245, 247)" stroke="black" stroke-width="1px" transform="translate(533.3952819330312,297.1318907050918)"></circle><circle r="5.8156349178293105" fill="rgb(228, 245, 247)" stroke="black" stroke-width="1px" transform="translate(454.8283538775084,382.6323025531623)"></circle><circle r="5.036487577976009" fill="rgb(228, 245, 247)" stroke="black" stroke-width="1px" transform="translate(377.03576508274097,350.4450188772145)"></circle><circle r="2.9078174589146553" fill="rgb(228, 245, 247)" stroke="black" stroke-width="1px" transform="translate(484.90219963986124,404.7190277462147)"></circle><circle r="2.9078174589146553" fill="rgb(228, 245, 247)" stroke="black" stroke-width="1px" transform="translate(259.29501786212165,314.1133758399313)"></circle><circle r="2.9078174589146553" fill="rgb(228, 245, 247)" stroke="black" stroke-width="1px" transform="translate(457.8859617571585,284.2101076942589)"></circle><circle r="2.9078174589146553" fill="rgb(228, 245, 247)" stroke="black" stroke-width="1px" transform="translate(347.40700230583104,329.5032413109441)"></circle><circle r="2.9078174589146553" fill="rgb(228, 245, 247)" stroke="black" stroke-width="1px" transform="translate(560.905562717527,381.545484562692)"></circle><circle r="15.10946273392803" fill="rgb(200, 234, 228)" stroke="black" stroke-width="1px" transform="translate(327.03539205718266,384.9424341115442)"></circle><circle r="13.638872835983019" fill="rgb(200, 234, 228)" stroke="black" stroke-width="1px" transform="translate(419.0737966191635,419.82469962125515)"></circle><circle r="13.638872835983019" fill="rgb(200, 234, 228)" stroke="black" stroke-width="1px" transform="translate(523.9703595785275,355.79612944158646)"></circle><circle r="10.484284947806191" fill="rgb(200, 234, 228)" stroke="black" stroke-width="1px" transform="translate(442.3072714628197,420.65322270062984)"></circle><circle r="10.072975155952019" fill="rgb(200, 234, 228)" stroke="black" stroke-width="1px" transform="translate(633.0760240094301,294.26530981905194)"></circle><circle r="9.64413947006459" fill="rgb(200, 234, 228)" stroke="black" stroke-width="1px" transform="translate(384.80553024678164,413.24046567688714)"></circle><circle r="9.1953261901734" fill="rgb(200, 234, 228)" stroke="black" stroke-width="1px" transform="translate(308.40211030563574,321.9603657999195)"></circle><circle r="6.502077504293871" fill="rgb(200, 234, 228)" stroke="black" stroke-width="1px" transform="translate(266.50539008683955,374.7303680017176)"></circle><circle r="5.036487577976009" fill="rgb(200, 234, 228)" stroke="black" stroke-width="1px" transform="translate(143.87980634012834,309.91241687396797)"></circle><circle r="2.9078174589146553" fill="rgb(200, 234, 228)" stroke="black" stroke-width="1px" transform="translate(449.6291937570224,353.22310967947044)"></circle><circle r="15.10946273392803" fill="rgb(200, 234, 228)" stroke="black" stroke-width="1px" transform="translate(331.6430038138786,371.60532402105054)"></circle><circle r="13.638872835983019" fill="rgb(200, 234, 228)" stroke="black" stroke-width="1px" transform="translate(418.9386987112365,402.2278785731569)"></circle><circle r="13.638872835983019" fill="rgb(200, 234, 228)" stroke="black" stroke-width="1px" transform="translate(524.7880717519043,371.1034101633478)"></circle><circle r="10.484284947806191" fill="rgb(200, 234, 228)" stroke="black" stroke-width="1px" transform="translate(443.22352330828255,404.68641370866055)"></circle><circle r="10.072975155952019" fill="rgb(200, 234, 228)" stroke="black" stroke-width="1px" transform="translate(625.4737818678914,280.1347814598052)"></circle><circle r="9.64413947006459" fill="rgb(200, 234, 228)" stroke="black" stroke-width="1px" transform="translate(380.9871887110366,428.27772475358023)"></circle><circle r="9.1953261901734" fill="rgb(200, 234, 228)" stroke="black" stroke-width="1px" transform="translate(297.4638064970522,332.75492286077974)"></circle><circle r="6.502077504293871" fill="rgb(200, 234, 228)" stroke="black" stroke-width="1px" transform="translate(269.33274466511455,358.4750560027135)"></circle><circle r="5.036487577976009" fill="rgb(200, 234, 228)" stroke="black" stroke-width="1px" transform="translate(160.68224089300048,301.7458857131822)"></circle><circle r="2.9078174589146553" fill="rgb(200, 234, 228)" stroke="black" stroke-width="1px" transform="translate(440.7664594556161,347.3407812094781)"></circle><circle r="11.261928592187632" fill="rgb(153, 216, 200)" stroke="black" stroke-width="1px" transform="translate(154.96146458503878,347.830064219549)"></circle><circle r="11.261928592187632" fill="rgb(153, 216, 200)" stroke="black" stroke-width="1px" transform="translate(170.0424196557074,355.2046008772821)"></circle><circle r="9.64413947006459" fill="rgb(153, 216, 200)" stroke="black" stroke-width="1px" transform="translate(778.153970427004,187.683564477743)"></circle><circle r="8.224549774604752" fill="rgb(153, 216, 200)" stroke="black" stroke-width="1px" transform="translate(95.98539367665613,257.8822851596996)"></circle><circle r="6.502077504293871" fill="rgb(153, 216, 200)" stroke="black" stroke-width="1px" transform="translate(294.0776809380067,407.32839023742633)"></circle><circle r="5.8156349178293105" fill="rgb(153, 216, 200)" stroke="black" stroke-width="1px" transform="translate(366.63702132061906,408.60139385040947)"></circle><circle r="5.036487577976009" fill="rgb(153, 216, 200)" stroke="black" stroke-width="1px" transform="translate(564.1012761794783,364.39510342475677)"></circle><circle r="5.036487577976009" fill="rgb(153, 216, 200)" stroke="black" stroke-width="1px" transform="translate(309.00481182706255,355.4223776660552)"></circle><circle r="2.9078174589146553" fill="rgb(153, 216, 200)" stroke="black" stroke-width="1px" transform="translate(296.4464679424325,367.1296633991978)"></circle><circle r="2.9078174589146553" fill="rgb(153, 216, 200)" stroke="black" stroke-width="1px" transform="translate(818.4228074442746,185.9272815666679)"></circle><circle r="2.9078174589146553" fill="rgb(153, 216, 200)" stroke="black" stroke-width="1px" transform="translate(35.05631464475652,252.66680150002762)"></circle><circle r="2.9078174589146553" fill="rgb(153, 216, 200)" stroke="black" stroke-width="1px" transform="translate(434.43763240215566,450.35980939227585)"></circle><circle r="2.9078174589146553" fill="rgb(153, 216, 200)" stroke="black" stroke-width="1px" transform="translate(385.7528366946633,462.5125856237685)"></circle><circle r="2.9078174589146553" fill="rgb(153, 216, 200)" stroke="black" stroke-width="1px" transform="translate(471.56698420061264,443.61015558474884)"></circle><circle r="2.9078174589146553" fill="rgb(153, 216, 200)" stroke="black" stroke-width="1px" transform="translate(587.972456218776,328.602230065611)"></circle><circle r="14.539087294573278" fill="rgb(104, 194, 163)" stroke="black" stroke-width="1px" transform="translate(878.042669636481,134.62584615355655)"></circle><circle r="11.989238523120267" fill="rgb(104, 194, 163)" stroke="black" stroke-width="1px" transform="translate(36.60686279658002,334.90125837491564)"></circle><circle r="11.261928592187632" fill="rgb(104, 194, 163)" stroke="black" stroke-width="1px" transform="translate(-68.86172436231874,180.1754294978808)"></circle><circle r="9.64413947006459" fill="rgb(104, 194, 163)" stroke="black" stroke-width="1px" transform="translate(83.41452504758622,344.7320145398778)"></circle><circle r="9.1953261901734" fill="rgb(104, 194, 163)" stroke="black" stroke-width="1px" transform="translate(16.14925402192969,291.00633598889397)"></circle><circle r="5.036487577976009" fill="rgb(104, 194, 163)" stroke="black" stroke-width="1px" transform="translate(833.2818791905139,127.51391109996575)"></circle><circle r="4.112274887302376" fill="rgb(104, 194, 163)" stroke="black" stroke-width="1px" transform="translate(97.43693999904467,212.83532141759008)"></circle><circle r="4.112274887302376" fill="rgb(104, 194, 163)" stroke="black" stroke-width="1px" transform="translate(81.44736152618141,218.729985343486)"></circle><circle r="2.9078174589146553" fill="rgb(104, 194, 163)" stroke="black" stroke-width="1px" transform="translate(-36.823681629711835,227.36260161477188)"></circle><circle r="2.9078174589146553" fill="rgb(104, 194, 163)" stroke="black" stroke-width="1px" transform="translate(-15.31916325111557,222.09925554744325)"></circle><circle r="2.9078174589146553" fill="rgb(104, 194, 163)" stroke="black" stroke-width="1px" transform="translate(805.1607177474555,210.0279195968659)"></circle><circle r="2.9078174589146553" fill="rgb(104, 194, 163)" stroke="black" stroke-width="1px" transform="translate(789.5681516306588,154.55152648969442)"></circle><circle r="2.9078174589146553" fill="rgb(104, 194, 163)" stroke="black" stroke-width="1px" transform="translate(891.7521404964955,146.2063746676242)"></circle><circle r="14.539087294573278" fill="rgb(104, 194, 163)" stroke="black" stroke-width="1px" transform="translate(868.3925437661907,119.83190144272704)"></circle><circle r="11.989238523120267" fill="rgb(104, 194, 163)" stroke="black" stroke-width="1px" transform="translate(48.76931891040636,342.91747784172964)"></circle><circle r="11.261928592187632" fill="rgb(104, 194, 163)" stroke="black" stroke-width="1px" transform="translate(-70.58424899953015,196.93315621979625)"></circle><circle r="9.64413947006459" fill="rgb(104, 194, 163)" stroke="black" stroke-width="1px" transform="translate(83.7222392924281,325.1947235624044)"></circle><circle r="9.1953261901734" fill="rgb(104, 194, 163)" stroke="black" stroke-width="1px" transform="translate(5.269412189893588,301.57457292491847)"></circle><circle r="5.036487577976009" fill="rgb(104, 194, 163)" stroke="black" stroke-width="1px" transform="translate(846.9498874341539,148.5485629578208)"></circle><circle r="4.112274887302376" fill="rgb(104, 194, 163)" stroke="black" stroke-width="1px" transform="translate(124.71617232544483,228.01762340179226)"></circle><circle r="4.112274887302376" fill="rgb(104, 194, 163)" stroke="black" stroke-width="1px" transform="translate(112.50525259004172,215.08191912001462)"></circle><circle r="2.9078174589146553" fill="rgb(104, 194, 163)" stroke="black" stroke-width="1px" transform="translate(-36.71723357893057,239.13821746084406)"></circle><circle r="2.9078174589146553" fill="rgb(104, 194, 163)" stroke="black" stroke-width="1px" transform="translate(-16.42050084153655,232.71333296742472)"></circle><circle r="2.9078174589146553" fill="rgb(104, 194, 163)" stroke="black" stroke-width="1px" transform="translate(768.9409961521366,154.58309318051468)"></circle><circle r="2.9078174589146553" fill="rgb(104, 194, 163)" stroke="black" stroke-width="1px" transform="translate(806.923293649005,169.65613468662207)"></circle><circle r="2.9078174589146553" fill="rgb(104, 194, 163)" stroke="black" stroke-width="1px" transform="translate(894.8621632219189,156.41698240898006)"></circle><circle r="11.631269835658621" fill="rgb(66, 172, 118)" stroke="black" stroke-width="1px" transform="translate(-128.63856905256952,207.25848213665768)"></circle><circle r="10.484284947806191" fill="rgb(66, 172, 118)" stroke="black" stroke-width="1px" transform="translate(-173.71599415579857,170.92976327545128)"></circle><circle r="9.1953261901734" fill="rgb(66, 172, 118)" stroke="black" stroke-width="1px" transform="translate(-120.59541615863422,187.48268639557753)"></circle><circle r="8.723452376743966" fill="rgb(66, 172, 118)" stroke="black" stroke-width="1px" transform="translate(948.0526313900506,107.19502666130806)"></circle><circle r="8.224549774604752" fill="rgb(66, 172, 118)" stroke="black" stroke-width="1px" transform="translate(-103.13925954252878,255.1253546161884)"></circle><circle r="7.6933618542599564" fill="rgb(66, 172, 118)" stroke="black" stroke-width="1px" transform="translate(-188.14680715391796,133.77150513940836)"></circle><circle r="7.122669039497294" fill="rgb(66, 172, 118)" stroke="black" stroke-width="1px" transform="translate(867.8947939262806,93.64672137352082)"></circle><circle r="2.9078174589146553" fill="rgb(66, 172, 118)" stroke="black" stroke-width="1px" transform="translate(-102.13484110504079,234.73606527425943)"></circle><circle r="2.9078174589146553" fill="rgb(66, 172, 118)" stroke="black" stroke-width="1px" transform="translate(47.031520024171,377.21017208098317)"></circle><circle r="2.9078174589146553" fill="rgb(66, 172, 118)" stroke="black" stroke-width="1px" transform="translate(31.579742735880608,376.5383212213982)"></circle><circle r="2.9078174589146553" fill="rgb(66, 172, 118)" stroke="black" stroke-width="1px" transform="translate(9.864843268158719,358.12287820073885)"></circle><circle r="2.9078174589146553" fill="rgb(66, 172, 118)" stroke="black" stroke-width="1px" transform="translate(903.519789923094,102.28318075884779)"></circle><circle r="2.9078174589146553" fill="rgb(66, 172, 118)" stroke="black" stroke-width="1px" transform="translate(19.01268968314519,370.22838424092066)"></circle><circle r="10.072975155952019" fill="rgb(34, 140, 73)" stroke="black" stroke-width="1px" transform="translate(1030.4030738456797,73.15972652597797)"></circle><circle r="9.1953261901734" fill="rgb(34, 140, 73)" stroke="black" stroke-width="1px" transform="translate(-202.06627150008347,164.21013237664687)"></circle><circle r="8.723452376743966" fill="rgb(34, 140, 73)" stroke="black" stroke-width="1px" transform="translate(-271.6528549228917,175.29458924190408)"></circle><circle r="7.122669039497294" fill="rgb(34, 140, 73)" stroke="black" stroke-width="1px" transform="translate(-199.46638941855747,210.2859002366716)"></circle><circle r="7.122669039497294" fill="rgb(34, 140, 73)" stroke="black" stroke-width="1px" transform="translate(-241.6359458013612,123.80958867922732)"></circle><circle r="6.502077504293871" fill="rgb(34, 140, 73)" stroke="black" stroke-width="1px" transform="translate(-240.95456777549492,188.43991183575312)"></circle><circle r="5.8156349178293105" fill="rgb(34, 140, 73)" stroke="black" stroke-width="1px" transform="translate(-183.44248443723083,213.32995122926616)"></circle><circle r="4.112274887302376" fill="rgb(34, 140, 73)" stroke="black" stroke-width="1px" transform="translate(-114.1559296204427,220.483522246265)"></circle><circle r="2.9078174589146553" fill="rgb(34, 140, 73)" stroke="black" stroke-width="1px" transform="translate(-256.6407524153729,105.81306271055963)"></circle><circle r="10.072975155952019" fill="rgb(34, 140, 73)" stroke="black" stroke-width="1px" transform="translate(1019.8033858567204,51.10134632739584)"></circle><circle r="9.1953261901734" fill="rgb(34, 140, 73)" stroke="black" stroke-width="1px" transform="translate(-208.75348400837052,178.6735227090141)"></circle><circle r="8.723452376743966" fill="rgb(34, 140, 73)" stroke="black" stroke-width="1px" transform="translate(-257.7276395568049,153.33930127263858)"></circle><circle r="7.122669039497294" fill="rgb(34, 140, 73)" stroke="black" stroke-width="1px" transform="translate(-202.12172112432694,226.40797668615144)"></circle><circle r="7.122669039497294" fill="rgb(34, 140, 73)" stroke="black" stroke-width="1px" transform="translate(-234.31344228277644,105.90951807573677)"></circle><circle r="6.502077504293871" fill="rgb(34, 140, 73)" stroke="black" stroke-width="1px" transform="translate(-231.60126385838555,168.83294844091319)"></circle><circle r="5.8156349178293105" fill="rgb(34, 140, 73)" stroke="black" stroke-width="1px" transform="translate(-182.10857693917941,194.52267403008457)"></circle><circle r="4.112274887302376" fill="rgb(34, 140, 73)" stroke="black" stroke-width="1px" transform="translate(-137.86184751268453,235.93545363077078)"></circle><circle r="2.9078174589146553" fill="rgb(34, 140, 73)" stroke="black" stroke-width="1px" transform="translate(-252.82470067628103,116.9977312781047)"></circle><circle r="11.261928592187632" fill="rgb(6, 107, 45)" stroke="black" stroke-width="1px" transform="translate(-279.1176160560803,150.13988136007063)"></circle><circle r="10.880056674538253" fill="rgb(6, 107, 45)" stroke="black" stroke-width="1px" transform="translate(-287.62824117091736,127.83912143575304)"></circle><circle r="5.8156349178293105" fill="rgb(6, 107, 45)" stroke="black" stroke-width="1px" transform="translate(-248.61723326948993,205.37663480332154)"></circle><circle r="4.112274887302376" fill="rgb(6, 107, 45)" stroke="black" stroke-width="1px" transform="translate(1060.4340068477081,51.70787210707572)"></circle><circle r="4.112274887302376" fill="rgb(6, 107, 45)" stroke="black" stroke-width="1px" transform="translate(-315.4615600935119,156.41256469347266)"></circle><circle r="2.9078174589146553" fill="rgb(6, 107, 45)" stroke="black" stroke-width="1px" transform="translate(-261.6927493445141,63.283562102231826)"></circle><circle r="2.9078174589146553" fill="rgb(6, 107, 45)" stroke="black" stroke-width="1px" transform="translate(1066.320447931366,30.320676177955782)"></circle><circle r="5.8156349178293105" fill="rgb(0, 68, 27)" stroke="black" stroke-width="1px" transform="translate(-333.326574182349,137.6492265300391)"></circle><circle r="5.036487577976009" fill="rgb(0, 68, 27)" stroke="black" stroke-width="1px" transform="translate(-327.0299593379176,106.6074661039646)"></circle><circle r="5.036487577976009" fill="rgb(0, 68, 27)" stroke="black" stroke-width="1px" transform="translate(-280.80228479331316,25.636698093842664)"></circle><circle r="5.036487577976009" fill="rgb(0, 68, 27)" stroke="black" stroke-width="1px" transform="translate(-347.2857849616112,123.27392057113039)"></circle><circle r="2.9078174589146553" fill="rgb(0, 68, 27)" stroke="black" stroke-width="1px" transform="translate(1098.6701620048793,9.046106921274397)"></circle></g></g><g><text x="505" y="495" font-family="sans-serif" text-anchor="end" font-size="10px" fill="red">120 nodes</text><text x="505" y="505" font-family="sans-serif" text-anchor="end" font-size="10px" fill="red">433 edges</text></g></svg>