<svg height="512" width="512" style="border-style: solid; border-width: 1px; cursor: auto;" id="figure"><g transform="translate(-28.24159154212913,-69.22138670925722) scale(1.0863248140187667)"><g class="links"><line stroke-width="3.8232689503742545" stroke="lightgray" x1="234.9607300501284" y1="281.994334650511" x2="251.24387134004647" y2="289.4498230115025"></line><line stroke-width="1.0291894047912087" stroke="lightgray" x1="234.9607300501284" y1="281.994334650511" x2="196.7282217583548" y2="284.8154048483852"></line><line stroke-width="2.1092106319485557" stroke="lightgray" x1="234.9607300501284" y1="281.994334650511" x2="278.01361677709417" y2="294.3492973064963"></line><line stroke-width="0.7972066849698949" stroke="lightgray" x1="234.9607300501284" y1="281.994334650511" x2="231.5126261300884" y2="318.3663437039191"></line><line stroke-width="2.2073653576829138" stroke="lightgray" x1="234.9607300501284" y1="281.994334650511" x2="216.69570892922968" y2="330.8507943345166"></line><line stroke-width="0.460267494167138" stroke="lightgray" x1="234.9607300501284" y1="281.994334650511" x2="211.01232510758217" y2="256.5340692011852"></line><line stroke-width="2.683797617249572" stroke="lightgray" x1="234.9607300501284" y1="281.994334650511" x2="213.26535008271128" y2="365.99078107209226"></line><line stroke-width="1.3018330651412922" stroke="lightgray" x1="234.9607300501284" y1="281.994334650511" x2="272.74204429634585" y2="310.8889474530621"></line><line stroke-width="2.0062594940712515" stroke="lightgray" x1="234.9607300501284" y1="281.994334650511" x2="201.6191148062996" y2="303.4884669544098"></line><line stroke-width="0.460267494167138" stroke="lightgray" x1="234.9607300501284" y1="281.994334650511" x2="236.35055196040994" y2="215.52357153013443"></line><line stroke-width="0.460267494167138" stroke="lightgray" x1="234.9607300501284" y1="281.994334650511" x2="299.19281647858867" y2="190.96429519680026"></line><line stroke-width="1.0291894047912087" stroke="lightgray" x1="234.9607300501284" y1="281.994334650511" x2="260.58745088026785" y2="319.9059897233964"></line><line stroke-width="0.920534988334276" stroke="lightgray" x1="234.9607300501284" y1="281.994334650511" x2="246.29884839411258" y2="322.6626889625294"></line><line stroke-width="0.460267494167138" stroke="lightgray" x1="234.9607300501284" y1="281.994334650511" x2="262.29802540229474" y2="260.66648729630936"></line><line stroke-width="0.6509165325706461" stroke="lightgray" x1="234.9607300501284" y1="281.994334650511" x2="199.38474645906365" y2="269.9491032351759"></line><line stroke-width="0.7972066849698949" stroke="lightgray" x1="234.9607300501284" y1="281.994334650511" x2="216.5379734284389" y2="307.1269723511668"></line><line stroke-width="1.841069976668552" stroke="lightgray" x1="251.24387134004647" y1="289.4498230115025" x2="299.19281647858867" y2="190.96429519680026"></line><line stroke-width="0.6509165325706461" stroke="lightgray" x1="251.24387134004647" y1="289.4498230115025" x2="272.74204429634585" y2="310.8889474530621"></line><line stroke-width="0.460267494167138" stroke="lightgray" x1="251.24387134004647" y1="289.4498230115025" x2="216.5379734284389" y2="307.1269723511668"></line><line stroke-width="0.460267494167138" stroke="lightgray" x1="251.24387134004647" y1="289.4498230115025" x2="231.5126261300884" y2="318.3663437039191"></line><line stroke-width="0.6509165325706461" stroke="lightgray" x1="251.24387134004647" y1="289.4498230115025" x2="246.29884839411258" y2="322.6626889625294"></line><line stroke-width="2.2548410117978417" stroke="lightgray" x1="251.24387134004647" y1="289.4498230115025" x2="236.35055196040994" y2="215.52357153013443"></line><line stroke-width="0.7972066849698949" stroke="lightgray" x1="251.24387134004647" y1="289.4498230115025" x2="201.6191148062996" y2="303.4884669544098"></line><line stroke-width="0.6509165325706461" stroke="lightgray" x1="251.24387134004647" y1="289.4498230115025" x2="278.01361677709417" y2="294.3492973064963"></line><line stroke-width="0.460267494167138" stroke="lightgray" x1="251.24387134004647" y1="289.4498230115025" x2="213.26535008271128" y2="365.99078107209226"></line><line stroke-width="0.7972066849698949" stroke="lightgray" x1="251.24387134004647" y1="289.4498230115025" x2="216.69570892922968" y2="330.8507943345166"></line><line stroke-width="1.0291894047912087" stroke="lightgray" x1="251.24387134004647" y1="289.4498230115025" x2="290.4058280097436" y2="288.57574154877267"></line><line stroke-width="0.460267494167138" stroke="lightgray" x1="251.24387134004647" y1="289.4498230115025" x2="260.58745088026785" y2="319.9059897233964"></line><line stroke-width="0.6509165325706461" stroke="lightgray" x1="299.19281647858867" y1="190.96429519680026" x2="333.83064134476047" y2="199.8258227260809"></line><line stroke-width="1.3018330651412922" stroke="lightgray" x1="299.19281647858867" y1="190.96429519680026" x2="331.57395448362576" y2="177.90866110048745"></line><line stroke-width="2.4355066522662385" stroke="lightgray" x1="299.19281647858867" y1="190.96429519680026" x2="319.3207870301443" y2="122.0251905972436"></line><line stroke-width="4.038830869990847" stroke="lightgray" x1="299.19281647858867" y1="190.96429519680026" x2="338.791242859614" y2="147.2489626217018"></line><line stroke-width="1.8977314944894705" stroke="lightgray" x1="299.19281647858867" y1="190.96429519680026" x2="356.3542520548188" y2="107.79615924447916"></line><line stroke-width="2.0583788095824174" stroke="lightgray" x1="299.19281647858867" y1="190.96429519680026" x2="236.35055196040994" y2="215.52357153013443"></line><line stroke-width="1.4554936145064206" stroke="lightgray" x1="299.19281647858867" y1="190.96429519680026" x2="298.47822591420385" y2="156.1414320885191"></line><line stroke-width="2.391620054909685" stroke="lightgray" x1="236.35055196040994" y1="215.52357153013443" x2="199.0661057962545" y2="214.4245971868202"></line><line stroke-width="0.6509165325706461" stroke="lightgray" x1="236.35055196040994" y1="215.52357153013443" x2="207.52236788359804" y2="188.84857522783054"></line><line stroke-width="0.6509165325706461" stroke="lightgray" x1="236.35055196040994" y1="215.52357153013443" x2="218.0961368321028" y2="181.11751723390202"></line><line stroke-width="0.7972066849698949" stroke="lightgray" x1="236.35055196040994" y1="215.52357153013443" x2="200.64063150769155" y2="200.09019407437236"></line><line stroke-width="0.6509165325706461" stroke="lightgray" x1="236.35055196040994" y1="215.52357153013443" x2="231.73483363809183" y2="177.90289781241464"></line><line stroke-width="0.6509165325706461" stroke="lightgray" x1="236.35055196040994" y1="215.52357153013443" x2="248.24027133460814" y2="181.93498390974005"></line><line stroke-width="2.982874281603174" stroke="lightgray" x1="213.26535008271128" y1="365.99078107209226" x2="207.5451204790527" y2="411.7957312884151"></line><line stroke-width="0.6509165325706461" stroke="lightgray" x1="213.26535008271128" y1="365.99078107209226" x2="182.62096229159727" y2="434.93474957632264"></line><line stroke-width="0.7972066849698949" stroke="lightgray" x1="213.26535008271128" y1="365.99078107209226" x2="216.69570892922968" y2="330.8507943345166"></line><line stroke-width="0.460267494167138" stroke="lightgray" x1="213.26535008271128" y1="365.99078107209226" x2="187.3766531424203" y2="391.41971417216484"></line><line stroke-width="1.841069976668552" stroke="lightgray" x1="356.3542520548188" y1="107.79615924447916" x2="358.22817002792" y2="70.01912293410969"></line><line stroke-width="0.7972066849698949" stroke="lightgray" x1="356.3542520548188" y1="107.79615924447916" x2="374.9048544268273" y2="74.37069213566637"></line><line stroke-width="2.683797617249572" stroke="lightgray" x1="356.3542520548188" y1="107.79615924447916" x2="329.791032551574" y2="81.33810556674223"></line><line stroke-width="1.5265345813494893" stroke="lightgray" x1="356.3542520548188" y1="107.79615924447916" x2="319.3207870301443" y2="122.0251905972436"></line><line stroke-width="0.7972066849698949" stroke="lightgray" x1="356.3542520548188" y1="107.79615924447916" x2="387.1658082849559" y2="85.65653352284069"></line><line stroke-width="1.3018330651412922" stroke="lightgray" x1="356.3542520548188" y1="107.79615924447916" x2="338.791242859614" y2="147.2489626217018"></line><line stroke-width="0.7972066849698949" stroke="lightgray" x1="356.3542520548188" y1="107.79615924447916" x2="393.01156540736105" y2="102.78136605866152"></line><line stroke-width="1.1274205058989208" stroke="lightgray" x1="207.5451204790527" y1="411.7957312884151" x2="182.62096229159727" y2="434.93474957632264"></line><line stroke-width="0.920534988334276" stroke="lightgray" x1="338.791242859614" y1="147.2489626217018" x2="319.3207870301443" y2="122.0251905972436"></line><line stroke-width="0.460267494167138" stroke="lightgray" x1="216.69570892922968" y1="330.8507943345166" x2="201.6191148062996" y2="303.4884669544098"></line><line stroke-width="0.460267494167138" stroke="lightgray" x1="319.3207870301443" y1="122.0251905972436" x2="329.791032551574" y2="81.33810556674223"></line><line stroke-width="2.562660951392866" stroke="lightgray" x1="182.62096229159727" y1="434.93474957632264" x2="153.84959551483792" y2="491.6288229969026"></line><line stroke-width="0.7972066849698949" stroke="lightgray" x1="153.84959551483792" y1="491.6288229969026" x2="150.75228497593238" y2="527.5048397936615"></line><line stroke-width="0.6509165325706461" stroke="lightgray" x1="153.84959551483792" y1="491.6288229969026" x2="127.26981402028126" y2="516.2008575664646"></line></g><g class="nodes"><circle r="8.536690293567665" fill="rgb(217, 240, 211)" stroke="black" stroke-width="1px" transform="translate(234.9607300501284,281.994334650511)"></circle><circle r="7.590925977957882" fill="rgb(226, 244, 220)" stroke="black" stroke-width="1px" transform="translate(251.24387134004647,289.4498230115025)"></circle><circle r="7.364279906674208" fill="rgb(218, 241, 212)" stroke="black" stroke-width="1px" transform="translate(299.19281647858867,190.96429519680026)"></circle><circle r="6.57393473515876" fill="rgb(218, 241, 212)" stroke="black" stroke-width="1px" transform="translate(236.35055196040994,215.52357153013443)"></circle><circle r="5.0419777808343795" fill="rgb(216, 240, 210)" stroke="black" stroke-width="1px" transform="translate(213.26535008271128,365.99078107209226)"></circle><circle r="6.826870187803282" fill="rgb(158, 217, 187)" stroke="black" stroke-width="1px" transform="translate(356.3542520548188,107.79615924447916)"></circle><circle r="5.894299895208167" fill="rgb(174, 224, 187)" stroke="black" stroke-width="1px" transform="translate(207.5451204790527,411.7957312884151)"></circle><circle r="5.674558772310695" fill="rgb(184, 227, 189)" stroke="black" stroke-width="1px" transform="translate(338.791242859614,147.2489626217018)"></circle><circle r="3.9054991954238756" fill="rgb(188, 229, 191)" stroke="black" stroke-width="1px" transform="translate(216.69570892922968,330.8507943345166)"></circle><circle r="3.56521667941989" fill="rgb(175, 224, 187)" stroke="black" stroke-width="1px" transform="translate(319.3207870301443,122.0251905972436)"></circle><circle r="2.761604965002828" fill="rgb(145, 212, 189)" stroke="black" stroke-width="1px" transform="translate(182.62096229159727,434.93474957632264)"></circle><circle r="2.2548410117978417" fill="rgb(196, 232, 195)" stroke="black" stroke-width="1px" transform="translate(199.0661057962545,214.4245971868202)"></circle><circle r="2.2548410117978417" fill="rgb(195, 231, 194)" stroke="black" stroke-width="1px" transform="translate(201.6191148062996,303.4884669544098)"></circle><circle r="2.0583788095824174" fill="rgb(178, 225, 188)" stroke="black" stroke-width="1px" transform="translate(246.29884839411258,322.6626889625294)"></circle><circle r="1.841069976668552" fill="rgb(195, 231, 194)" stroke="black" stroke-width="1px" transform="translate(278.01361677709417,294.3492973064963)"></circle><circle r="1.5944133699397898" fill="rgb(190, 229, 191)" stroke="black" stroke-width="1px" transform="translate(272.74204429634585,310.8889474530621)"></circle><circle r="1.3018330651412922" fill="rgb(201, 234, 197)" stroke="black" stroke-width="1px" transform="translate(298.47822591420385,156.1414320885191)"></circle><circle r="1.3018330651412922" fill="rgb(190, 229, 191)" stroke="black" stroke-width="1px" transform="translate(331.57395448362576,177.90866110048745)"></circle><circle r="0.920534988334276" fill="rgb(201, 234, 198)" stroke="black" stroke-width="1px" transform="translate(290.4058280097436,288.57574154877267)"></circle><circle r="0.920534988334276" fill="rgb(193, 231, 193)" stroke="black" stroke-width="1px" transform="translate(216.5379734284389,307.1269723511668)"></circle><circle r="0.920534988334276" fill="rgb(164, 220, 186)" stroke="black" stroke-width="1px" transform="translate(211.01232510758217,256.5340692011852)"></circle><circle r="0.920534988334276" fill="rgb(200, 233, 197)" stroke="black" stroke-width="1px" transform="translate(199.38474645906365,269.9491032351759)"></circle><circle r="0.920534988334276" fill="rgb(184, 227, 189)" stroke="black" stroke-width="1px" transform="translate(196.7282217583548,284.8154048483852)"></circle><circle r="0.920534988334276" fill="rgb(166, 220, 186)" stroke="black" stroke-width="1px" transform="translate(262.29802540229474,260.66648729630936)"></circle><circle r="0.920534988334276" fill="rgb(183, 227, 189)" stroke="black" stroke-width="1px" transform="translate(187.3766531424203,391.41971417216484)"></circle><circle r="0.920534988334276" fill="rgb(201, 234, 197)" stroke="black" stroke-width="1px" transform="translate(248.24027133460814,181.93498390974005)"></circle><circle r="0.920534988334276" fill="rgb(196, 232, 195)" stroke="black" stroke-width="1px" transform="translate(231.5126261300884,318.3663437039191)"></circle><circle r="0.920534988334276" fill="rgb(186, 228, 190)" stroke="black" stroke-width="1px" transform="translate(333.83064134476047,199.8258227260809)"></circle><circle r="0.920534988334276" fill="rgb(185, 228, 190)" stroke="black" stroke-width="1px" transform="translate(231.73483363809183,177.90289781241464)"></circle><circle r="0.920534988334276" fill="rgb(194, 231, 194)" stroke="black" stroke-width="1px" transform="translate(218.0961368321028,181.11751723390202)"></circle><circle r="0.920534988334276" fill="rgb(186, 228, 190)" stroke="black" stroke-width="1px" transform="translate(200.64063150769155,200.09019407437236)"></circle><circle r="0.920534988334276" fill="rgb(195, 231, 194)" stroke="black" stroke-width="1px" transform="translate(207.52236788359804,188.84857522783054)"></circle><circle r="0.920534988334276" fill="rgb(200, 234, 197)" stroke="black" stroke-width="1px" transform="translate(260.58745088026785,319.9059897233964)"></circle><circle r="3.56521667941989" fill="rgb(79, 176, 205)" stroke="black" stroke-width="1px" transform="translate(153.84959551483792,491.6288229969026)"></circle><circle r="2.761604965002828" fill="rgb(107, 194, 201)" stroke="black" stroke-width="1px" transform="translate(329.791032551574,81.33810556674223)"></circle><circle r="1.5944133699397898" fill="rgb(89, 184, 205)" stroke="black" stroke-width="1px" transform="translate(387.1658082849559,85.65653352284069)"></circle><circle r="1.5944133699397898" fill="rgb(113, 198, 199)" stroke="black" stroke-width="1px" transform="translate(358.22817002792,70.01912293410969)"></circle><circle r="0.920534988334276" fill="rgb(112, 197, 200)" stroke="black" stroke-width="1px" transform="translate(374.9048544268273,74.37069213566637)"></circle><circle r="0.920534988334276" fill="rgb(108, 195, 201)" stroke="black" stroke-width="1px" transform="translate(393.01156540736105,102.78136605866152)"></circle><circle r="1.3018330651412922" fill="rgb(13, 101, 166)" stroke="black" stroke-width="1px" transform="translate(150.75228497593238,527.5048397936615)"></circle><circle r="1.3018330651412922" fill="rgb(36, 133, 187)" stroke="black" stroke-width="1px" transform="translate(127.26981402028126,516.2008575664646)"></circle></g></g><g><text x="505" y="495" font-family="sans-serif" text-anchor="end" font-size="10px" fill="red">41 nodes</text><text x="505" y="505" font-family="sans-serif" text-anchor="end" font-size="10px" fill="red">59 edges</text></g></svg>