<svg height="512" width="512" style="border-style: solid; border-width: 1px; cursor: auto;" id="figure"><g transform="translate(-57.13600860789302,-68.50635893363653) scale(1.2991061348464534)"><g class="links"><line stroke-width="1.018296827370961" stroke="lightgray" x1="345.38529010839943" y1="273.0025895901315" x2="379.66121447528934" y2="246.44523873679765"></line><line stroke-width="0.3848800237242333" stroke="lightgray" x1="345.38529010839943" y1="273.0025895901315" x2="263.8289824573803" y2="243.85309097673928"></line><line stroke-width="2.8543466496570016" stroke="lightgray" x1="345.38529010839943" y1="273.0025895901315" x2="302.95058632160317" y2="304.5171704453918"></line><line stroke-width="1.6329076483118676" stroke="lightgray" x1="345.38529010839943" y1="273.0025895901315" x2="392.4692884761335" y2="298.67615659164545"></line><line stroke-width="2.1080747092688608" stroke="lightgray" x1="345.38529010839943" y1="273.0025895901315" x2="324.6036837651184" y2="205.92032297410026"></line><line stroke-width="0.7697600474484666" stroke="lightgray" x1="345.38529010839943" y1="273.0025895901315" x2="350.8040651908402" y2="330.6229950789379"></line><line stroke-width="0.3848800237242333" stroke="lightgray" x1="345.38529010839943" y1="273.0025895901315" x2="368.5916906425365" y2="247.78083079024327"></line><line stroke-width="0.3848800237242333" stroke="lightgray" x1="345.38529010839943" y1="273.0025895901315" x2="367.27717331360844" y2="313.8744145039518"></line><line stroke-width="0.8606178962291174" stroke="lightgray" x1="350.8040651908402" y1="330.6229950789379" x2="377.5626069100058" y2="342.66955491456616"></line><line stroke-width="2.801968866901311" stroke="lightgray" x1="350.8040651908402" y1="330.6229950789379" x2="392.4692884761335" y2="298.67615659164545"></line><line stroke-width="2.036593654741922" stroke="lightgray" x1="350.8040651908402" y1="330.6229950789379" x2="302.95058632160317" y2="304.5171704453918"></line><line stroke-width="0.7697600474484666" stroke="lightgray" x1="350.8040651908402" y1="330.6229950789379" x2="367.27717331360844" y2="313.8744145039518"></line><line stroke-width="0.9427596703146556" stroke="lightgray" x1="210.74147877395382" y1="253.24192386365564" x2="236.36719638291922" y2="242.05662201851447"></line><line stroke-width="3.288416364197749" stroke="lightgray" x1="210.74147877395382" y1="253.24192386365564" x2="187.35952527459938" y2="287.11706517461306"></line><line stroke-width="0.6666317559086868" stroke="lightgray" x1="210.74147877395382" y1="253.24192386365564" x2="253.5613709187445" y2="269.9275428069385"></line><line stroke-width="1.586900991005245" stroke="lightgray" x1="210.74147877395382" y1="253.24192386365564" x2="263.8289824573803" y2="243.85309097673928"></line><line stroke-width="0.6666317559086868" stroke="lightgray" x1="210.74147877395382" y1="253.24192386365564" x2="215.29958236074114" y2="286.6951810957178"></line><line stroke-width="0.9427596703146556" stroke="lightgray" x1="82.13165833738859" y1="258.0902443717123" x2="85.99478217126243" y2="300.73131405178714"></line><line stroke-width="0.3848800237242333" stroke="lightgray" x1="82.13165833738859" y1="258.0902443717123" x2="122.69136133355661" y2="265.6990779783313"></line><line stroke-width="0.3848800237242333" stroke="lightgray" x1="215.29958236074114" y1="286.6951810957178" x2="153.202689579506" y2="313.728814166718"></line><line stroke-width="1.9244001186211663" stroke="lightgray" x1="215.29958236074114" y1="286.6951810957178" x2="187.35952527459938" y2="287.11706517461306"></line><line stroke-width="1.018296827370961" stroke="lightgray" x1="215.29958236074114" y1="286.6951810957178" x2="263.8289824573803" y2="243.85309097673928"></line><line stroke-width="0.6666317559086868" stroke="lightgray" x1="215.29958236074114" y1="286.6951810957178" x2="253.5613709187445" y2="269.9275428069385"></line><line stroke-width="0.7697600474484666" stroke="lightgray" x1="253.5613709187445" y1="269.9275428069385" x2="236.36719638291922" y2="242.05662201851447"></line><line stroke-width="2.341133786970056" stroke="lightgray" x1="253.5613709187445" y1="269.9275428069385" x2="187.35952527459938" y2="287.11706517461306"></line><line stroke-width="1.3877046604395198" stroke="lightgray" x1="253.5613709187445" y1="269.9275428069385" x2="263.8289824573803" y2="243.85309097673928"></line><line stroke-width="0.5443025494372893" stroke="lightgray" x1="253.5613709187445" y1="269.9275428069385" x2="324.6036837651184" y2="205.92032297410026"></line><line stroke-width="0.3848800237242333" stroke="lightgray" x1="253.5613709187445" y1="269.9275428069385" x2="302.95058632160317" y2="304.5171704453918"></line><line stroke-width="0.3848800237242333" stroke="lightgray" x1="367.27717331360844" y1="313.8744145039518" x2="377.5626069100058" y2="342.66955491456616"></line><line stroke-width="0.5443025494372893" stroke="lightgray" x1="367.27717331360844" y1="313.8744145039518" x2="302.95058632160317" y2="304.5171704453918"></line><line stroke-width="2.1429212800569593" stroke="lightgray" x1="367.27717331360844" y1="313.8744145039518" x2="392.4692884761335" y2="298.67615659164545"></line><line stroke-width="1.490633922171871" stroke="lightgray" x1="224.1363790557395" y1="318.04690303977196" x2="187.35952527459938" y2="287.11706517461306"></line><line stroke-width="2.581853688687352" stroke="lightgray" x1="224.1363790557395" y1="318.04690303977196" x2="153.202689579506" y2="313.728814166718"></line><line stroke-width="0.3848800237242333" stroke="lightgray" x1="224.1363790557395" y1="318.04690303977196" x2="302.95058632160317" y2="304.5171704453918"></line><line stroke-width="0.7697600474484666" stroke="lightgray" x1="379.66121447528934" y1="246.44523873679765" x2="324.6036837651184" y2="205.92032297410026"></line><line stroke-width="0.7697600474484666" stroke="lightgray" x1="379.66121447528934" y1="246.44523873679765" x2="392.4692884761335" y2="298.67615659164545"></line><line stroke-width="1.8855193406293111" stroke="lightgray" x1="66.61317127486821" y1="332.9767326272149" x2="85.99478217126243" y2="300.73131405178714"></line><line stroke-width="1.8458197504700251" stroke="lightgray" x1="326.6554644431518" y1="167.08131410529805" x2="324.6036837651184" y2="205.92032297410026"></line><line stroke-width="1.0886050988745786" stroke="lightgray" x1="295.61893180784455" y1="158.48189112749125" x2="324.6036837651184" y2="205.92032297410026"></line><line stroke-width="0.3848800237242333" stroke="lightgray" x1="295.61893180784455" y1="158.48189112749125" x2="273.9663140123384" y2="186.2996041473988"></line><line stroke-width="0.3848800237242333" stroke="lightgray" x1="269.2861730486564" y1="280.4362264885338" x2="236.36719638291922" y2="242.05662201851447"></line><line stroke-width="1.018296827370961" stroke="lightgray" x1="269.2861730486564" y1="280.4362264885338" x2="302.95058632160317" y2="304.5171704453918"></line><line stroke-width="0.6666317559086868" stroke="lightgray" x1="269.2861730486564" y1="280.4362264885338" x2="263.8289824573803" y2="243.85309097673928"></line><line stroke-width="0.5443025494372893" stroke="lightgray" x1="417.462784244427" y1="333.77894842326475" x2="377.5626069100058" y2="342.66955491456616"></line><line stroke-width="1.018296827370961" stroke="lightgray" x1="417.462784244427" y1="333.77894842326475" x2="392.4692884761335" y2="298.67615659164545"></line><line stroke-width="0.3848800237242333" stroke="lightgray" x1="304.09554585338805" y1="169.9159545438815" x2="273.9663140123384" y2="186.2996041473988"></line><line stroke-width="1.018296827370961" stroke="lightgray" x1="304.09554585338805" y1="169.9159545438815" x2="324.6036837651184" y2="205.92032297410026"></line><line stroke-width="1.6329076483118676" stroke="lightgray" x1="146.29375510306318" y1="290.0124084541391" x2="187.35952527459938" y2="287.11706517461306"></line><line stroke-width="0.8606178962291174" stroke="lightgray" x1="146.29375510306318" y1="290.0124084541391" x2="122.69136133355661" y2="265.6990779783313"></line><line stroke-width="0.6666317559086868" stroke="lightgray" x1="368.5916906425365" y1="247.78083079024327" x2="392.4692884761335" y2="298.67615659164545"></line><line stroke-width="0.3848800237242333" stroke="lightgray" x1="368.5916906425365" y1="247.78083079024327" x2="324.6036837651184" y2="205.92032297410026"></line><line stroke-width="1.018296827370961" stroke="lightgray" x1="76.60714475547078" y1="267.89057547454144" x2="85.99478217126243" y2="300.73131405178714"></line><line stroke-width="0.6666317559086868" stroke="lightgray" x1="76.60714475547078" y1="267.89057547454144" x2="122.69136133355661" y2="265.6990779783313"></line><line stroke-width="1.2170975008682188" stroke="lightgray" x1="337.33286127002134" y1="165.07642798491227" x2="324.6036837651184" y2="205.92032297410026"></line><line stroke-width="0.9427596703146556" stroke="lightgray" x1="349.51571642238736" y1="309.7926164389205" x2="392.4692884761335" y2="298.67615659164545"></line><line stroke-width="0.5443025494372893" stroke="lightgray" x1="349.51571642238736" y1="309.7926164389205" x2="302.95058632160317" y2="304.5171704453918"></line><line stroke-width="1.018296827370961" stroke="lightgray" x1="348.39444624351296" y1="168.2108910694954" x2="324.6036837651184" y2="205.92032297410026"></line><line stroke-width="0.7697600474484666" stroke="lightgray" x1="431.4048027486996" y1="299.63704219501716" x2="392.4692884761335" y2="298.67615659164545"></line><line stroke-width="0.9427596703146556" stroke="lightgray" x1="349.714994978892" y1="179.13386247400123" x2="324.6036837651184" y2="205.92032297410026"></line><line stroke-width="1.018296827370961" stroke="lightgray" x1="151.43429010892908" y1="266.3551186074238" x2="187.35952527459938" y2="287.11706517461306"></line><line stroke-width="0.6666317559086868" stroke="lightgray" x1="151.43429010892908" y1="266.3551186074238" x2="122.69136133355661" y2="265.6990779783313"></line><line stroke-width="0.3848800237242333" stroke="lightgray" x1="48.461462516129664" y1="290.33665538115014" x2="85.99478217126243" y2="300.73131405178714"></line><line stroke-width="0.6666317559086868" stroke="lightgray" x1="166.55512977322314" y1="258.6762868508539" x2="187.35952527459938" y2="287.11706517461306"></line><line stroke-width="0.6666317559086868" stroke="lightgray" x1="210.78774866354854" y1="212.16901379303684" x2="236.36719638291922" y2="242.05662201851447"></line><line stroke-width="0.5443025494372893" stroke="lightgray" x1="308.26793915463406" y1="157.29942430146795" x2="273.9663140123384" y2="186.2996041473988"></line><line stroke-width="0.7697600474484666" stroke="lightgray" x1="308.26793915463406" y1="157.29942430146795" x2="324.6036837651184" y2="205.92032297410026"></line><line stroke-width="0.5443025494372893" stroke="lightgray" x1="47.45055449208865" y1="306.7783107074916" x2="85.99478217126243" y2="300.73131405178714"></line><line stroke-width="0.3848800237242333" stroke="lightgray" x1="113.10286862677569" y1="307.9859258927676" x2="122.69136133355661" y2="265.6990779783313"></line><line stroke-width="0.3848800237242333" stroke="lightgray" x1="113.10286862677569" y1="307.9859258927676" x2="153.202689579506" y2="313.728814166718"></line><line stroke-width="0.5443025494372893" stroke="lightgray" x1="113.10286862677569" y1="307.9859258927676" x2="85.99478217126243" y2="300.73131405178714"></line><line stroke-width="0.5443025494372893" stroke="lightgray" x1="362.7266519588166" y1="193.0634261275322" x2="324.6036837651184" y2="205.92032297410026"></line><line stroke-width="0.5443025494372893" stroke="lightgray" x1="289.47966902280456" y1="212.55895474469594" x2="263.8289824573803" y2="243.85309097673928"></line><line stroke-width="0.3848800237242333" stroke="lightgray" x1="289.47966902280456" y1="212.55895474469594" x2="324.6036837651184" y2="205.92032297410026"></line><line stroke-width="0.5443025494372893" stroke="lightgray" x1="254.27367680990875" y1="207.51221845924545" x2="263.8289824573803" y2="243.85309097673928"></line><line stroke-width="0.5443025494372893" stroke="lightgray" x1="287.84241856062886" y1="248.13614792428083" x2="236.36719638291922" y2="242.05662201851447"></line><line stroke-width="0.3848800237242333" stroke="lightgray" x1="287.84241856062886" y1="248.13614792428083" x2="273.9663140123384" y2="186.2996041473988"></line><line stroke-width="0.3848800237242333" stroke="lightgray" x1="287.84241856062886" y1="248.13614792428083" x2="263.8289824573803" y2="243.85309097673928"></line><line stroke-width="0.3848800237242333" stroke="lightgray" x1="287.84241856062886" y1="248.13614792428083" x2="302.95058632160317" y2="304.5171704453918"></line><line stroke-width="0.7697600474484666" stroke="lightgray" x1="240.0368350657511" y1="214.60400685412748" x2="263.8289824573803" y2="243.85309097673928"></line><line stroke-width="0.6666317559086868" stroke="lightgray" x1="362.7225588429375" y1="206.05846176656885" x2="324.6036837651184" y2="205.92032297410026"></line><line stroke-width="0.9427596703146556" stroke="lightgray" x1="53.49131702833879" y1="321.6261556445564" x2="85.99478217126243" y2="300.73131405178714"></line><line stroke-width="0.7697600474484666" stroke="lightgray" x1="360.77272745872176" y1="180.51993074648425" x2="324.6036837651184" y2="205.92032297410026"></line><line stroke-width="2.403574977781365" stroke="lightgray" x1="324.6036837651184" y1="205.92032297410026" x2="273.9663140123384" y2="186.2996041473988"></line><line stroke-width="0.5443025494372893" stroke="lightgray" x1="324.6036837651184" y1="205.92032297410026" x2="236.36719638291922" y2="242.05662201851447"></line><line stroke-width="1.018296827370961" stroke="lightgray" x1="324.6036837651184" y1="205.92032297410026" x2="263.8289824573803" y2="243.85309097673928"></line><line stroke-width="1.5395200948969332" stroke="lightgray" x1="187.35952527459938" y1="287.11706517461306" x2="236.36719638291922" y2="242.05662201851447"></line><line stroke-width="1.8855193406293111" stroke="lightgray" x1="187.35952527459938" y1="287.11706517461306" x2="122.69136133355661" y2="265.6990779783313"></line><line stroke-width="1.7637418421926985" stroke="lightgray" x1="187.35952527459938" y1="287.11706517461306" x2="263.8289824573803" y2="243.85309097673928"></line><line stroke-width="1.0886050988745786" stroke="lightgray" x1="187.35952527459938" y1="287.11706517461306" x2="153.202689579506" y2="313.728814166718"></line><line stroke-width="0.3848800237242333" stroke="lightgray" x1="187.35952527459938" y1="287.11706517461306" x2="302.95058632160317" y2="304.5171704453918"></line><line stroke-width="0.3848800237242333" stroke="lightgray" x1="187.35952527459938" y1="287.11706517461306" x2="85.99478217126243" y2="300.73131405178714"></line><line stroke-width="2.464434608412368" stroke="lightgray" x1="85.99478217126243" y1="300.73131405178714" x2="122.69136133355661" y2="265.6990779783313"></line><line stroke-width="0.5443025494372893" stroke="lightgray" x1="85.99478217126243" y1="300.73131405178714" x2="153.202689579506" y2="313.728814166718"></line><line stroke-width="1.67765312880147" stroke="lightgray" x1="392.4692884761335" y1="298.67615659164545" x2="377.5626069100058" y2="342.66955491456616"></line><line stroke-width="0.6666317559086868" stroke="lightgray" x1="392.4692884761335" y1="298.67615659164545" x2="302.95058632160317" y2="304.5171704453918"></line><line stroke-width="2.2109674076849006" stroke="lightgray" x1="263.8289824573803" y1="243.85309097673928" x2="236.36719638291922" y2="242.05662201851447"></line><line stroke-width="0.7697600474484666" stroke="lightgray" x1="263.8289824573803" y1="243.85309097673928" x2="302.95058632160317" y2="304.5171704453918"></line><line stroke-width="0.9427596703146556" stroke="lightgray" x1="263.8289824573803" y1="243.85309097673928" x2="273.9663140123384" y2="186.2996041473988"></line><line stroke-width="1.2170975008682188" stroke="lightgray" x1="302.95058632160317" y1="304.5171704453918" x2="236.36719638291922" y2="242.05662201851447"></line><line stroke-width="0.3848800237242333" stroke="lightgray" x1="302.95058632160317" y1="304.5171704453918" x2="377.5626069100058" y2="342.66955491456616"></line><line stroke-width="2.523827094803555" stroke="lightgray" x1="153.202689579506" y1="313.728814166718" x2="122.69136133355661" y2="265.6990779783313"></line><line stroke-width="0.3848800237242333" stroke="lightgray" x1="122.69136133355661" y1="265.6990779783313" x2="236.36719638291922" y2="242.05662201851447"></line><line stroke-width="0.9427596703146556" stroke="lightgray" x1="236.36719638291922" y1="242.05662201851447" x2="273.9663140123384" y2="186.2996041473988"></line></g><g class="nodes"><circle r="5.6565580218879346" fill="rgb(253, 214, 175)" stroke="black" stroke-width="1px" transform="translate(345.38529010839943,273.0025895901315)"></circle><circle r="4.618560284690799" fill="rgb(253, 215, 177)" stroke="black" stroke-width="1px" transform="translate(350.8040651908402,330.6229950789379)"></circle><circle r="4.421934815369801" fill="rgb(253, 216, 179)" stroke="black" stroke-width="1px" transform="translate(210.74147877395382,253.24192386365564)"></circle><circle r="4.073187309483844" fill="rgb(254, 221, 188)" stroke="black" stroke-width="1px" transform="translate(82.13165833738859,258.0902443717123)"></circle><circle r="3.6916395009400502" fill="rgb(253, 214, 175)" stroke="black" stroke-width="1px" transform="translate(215.29958236074114,286.6951810957178)"></circle><circle r="3.527483684385397" fill="rgb(253, 209, 165)" stroke="black" stroke-width="1px" transform="translate(253.5613709187445,269.9275428069385)"></circle><circle r="2.981267844343742" fill="rgb(253, 213, 173)" stroke="black" stroke-width="1px" transform="translate(367.27717331360844,313.8744145039518)"></circle><circle r="2.981267844343742" fill="rgb(253, 209, 165)" stroke="black" stroke-width="1px" transform="translate(224.1363790557395,318.04690303977196)"></circle><circle r="2.553005255992733" fill="rgb(254, 220, 187)" stroke="black" stroke-width="1px" transform="translate(379.66121447528934,246.44523873679765)"></circle><circle r="2.036593654741922" fill="rgb(253, 203, 154)" stroke="black" stroke-width="1px" transform="translate(66.61317127486821,332.9767326272149)"></circle><circle r="1.5395200948969332" fill="rgb(253, 204, 157)" stroke="black" stroke-width="1px" transform="translate(326.6554644431518,167.08131410529805)"></circle><circle r="1.5395200948969332" fill="rgb(253, 207, 161)" stroke="black" stroke-width="1px" transform="translate(295.61893180784455,158.48189112749125)"></circle><circle r="1.3332635118173737" fill="rgb(253, 213, 172)" stroke="black" stroke-width="1px" transform="translate(269.2861730486564,280.4362264885338)"></circle><circle r="1.3332635118173737" fill="rgb(253, 198, 147)" stroke="black" stroke-width="1px" transform="translate(417.462784244427,333.77894842326475)"></circle><circle r="1.3332635118173737" fill="rgb(253, 209, 165)" stroke="black" stroke-width="1px" transform="translate(304.09554585338805,169.9159545438815)"></circle><circle r="1.3332635118173737" fill="rgb(253, 199, 148)" stroke="black" stroke-width="1px" transform="translate(146.29375510306318,290.0124084541391)"></circle><circle r="1.3332635118173737" fill="rgb(254, 227, 200)" stroke="black" stroke-width="1px" transform="translate(368.5916906425365,247.78083079024327)"></circle><circle r="1.3332635118173737" fill="rgb(253, 201, 152)" stroke="black" stroke-width="1px" transform="translate(76.60714475547078,267.89057547454144)"></circle><circle r="1.0886050988745786" fill="rgb(253, 213, 172)" stroke="black" stroke-width="1px" transform="translate(337.33286127002134,165.07642798491227)"></circle><circle r="1.0886050988745786" fill="rgb(253, 210, 167)" stroke="black" stroke-width="1px" transform="translate(349.51571642238736,309.7926164389205)"></circle><circle r="1.0886050988745786" fill="rgb(253, 213, 172)" stroke="black" stroke-width="1px" transform="translate(348.39444624351296,168.2108910694954)"></circle><circle r="1.0886050988745786" fill="rgb(254, 232, 209)" stroke="black" stroke-width="1px" transform="translate(431.4048027486996,299.63704219501716)"></circle><circle r="1.0886050988745786" fill="rgb(253, 216, 179)" stroke="black" stroke-width="1px" transform="translate(349.714994978892,179.13386247400123)"></circle><circle r="0.7697600474484666" fill="rgb(253, 187, 128)" stroke="black" stroke-width="1px" transform="translate(151.43429010892908,266.3551186074238)"></circle><circle r="0.7697600474484666" fill="rgb(254, 231, 208)" stroke="black" stroke-width="1px" transform="translate(48.461462516129664,290.33665538115014)"></circle><circle r="0.7697600474484666" fill="rgb(253, 191, 135)" stroke="black" stroke-width="1px" transform="translate(166.55512977322314,258.6762868508539)"></circle><circle r="0.7697600474484666" fill="rgb(253, 205, 158)" stroke="black" stroke-width="1px" transform="translate(210.78774866354854,212.16901379303684)"></circle><circle r="0.7697600474484666" fill="rgb(253, 199, 149)" stroke="black" stroke-width="1px" transform="translate(308.26793915463406,157.29942430146795)"></circle><circle r="0.7697600474484666" fill="rgb(254, 236, 217)" stroke="black" stroke-width="1px" transform="translate(47.45055449208865,306.7783107074916)"></circle><circle r="0.7697600474484666" fill="rgb(253, 191, 135)" stroke="black" stroke-width="1px" transform="translate(113.10286862677569,307.9859258927676)"></circle><circle r="0.7697600474484666" fill="rgb(254, 229, 205)" stroke="black" stroke-width="1px" transform="translate(362.7266519588166,193.0634261275322)"></circle><circle r="0.7697600474484666" fill="rgb(254, 221, 188)" stroke="black" stroke-width="1px" transform="translate(289.47966902280456,212.55895474469594)"></circle><circle r="0.7697600474484666" fill="rgb(254, 220, 187)" stroke="black" stroke-width="1px" transform="translate(254.27367680990875,207.51221845924545)"></circle><circle r="0.7697600474484666" fill="rgb(254, 219, 183)" stroke="black" stroke-width="1px" transform="translate(287.84241856062886,248.13614792428083)"></circle><circle r="0.7697600474484666" fill="rgb(254, 221, 188)" stroke="black" stroke-width="1px" transform="translate(240.0368350657511,214.60400685412748)"></circle><circle r="0.7697600474484666" fill="rgb(254, 227, 200)" stroke="black" stroke-width="1px" transform="translate(362.7225588429375,206.05846176656885)"></circle><circle r="0.7697600474484666" fill="rgb(253, 191, 134)" stroke="black" stroke-width="1px" transform="translate(53.49131702833879,321.6261556445564)"></circle><circle r="0.7697600474484666" fill="rgb(253, 201, 152)" stroke="black" stroke-width="1px" transform="translate(360.77272745872176,180.51993074648425)"></circle><circle r="5.912639115337927" fill="rgb(252, 151, 75)" stroke="black" stroke-width="1px" transform="translate(324.6036837651184,205.92032297410026)"></circle><circle r="5.277209010495006" fill="rgb(252, 151, 75)" stroke="black" stroke-width="1px" transform="translate(187.35952527459938,287.11706517461306)"></circle><circle r="4.421934815369801" fill="rgb(253, 158, 84)" stroke="black" stroke-width="1px" transform="translate(85.99478217126243,300.73131405178714)"></circle><circle r="4.354420395498314" fill="rgb(253, 169, 101)" stroke="black" stroke-width="1px" transform="translate(392.4692884761335,298.67615659164545)"></circle><circle r="3.9997905354521217" fill="rgb(252, 147, 69)" stroke="black" stroke-width="1px" transform="translate(263.8289824573803,243.85309097673928)"></circle><circle r="3.17380198201049" fill="rgb(253, 162, 91)" stroke="black" stroke-width="1px" transform="translate(302.95058632160317,304.5171704453918)"></circle><circle r="3.0790401897938664" fill="rgb(251, 139, 59)" stroke="black" stroke-width="1px" transform="translate(153.202689579506,313.728814166718)"></circle><circle r="2.981267844343742" fill="rgb(204, 69, 3)" stroke="black" stroke-width="1px" transform="translate(122.69136133355661,265.6990779783313)"></circle><circle r="2.177210197749157" fill="rgb(207, 71, 3)" stroke="black" stroke-width="1px" transform="translate(236.36719638291922,242.05662201851447)"></circle><circle r="1.7212357924582349" fill="rgb(214, 76, 5)" stroke="black" stroke-width="1px" transform="translate(273.9663140123384,186.2996041473988)"></circle><circle r="0.7697600474484666" fill="rgb(205, 70, 3)" stroke="black" stroke-width="1px" transform="translate(377.5626069100058,342.66955491456616)"></circle></g></g><g><text x="505" y="495" font-family="sans-serif" text-anchor="end" font-size="10px" fill="red">49 nodes</text><text x="505" y="505" font-family="sans-serif" text-anchor="end" font-size="10px" fill="red">103 edges</text></g></svg>