<svg height="512" width="512" style="border-style: solid; border-width: 1px; cursor: auto;" id="figure"><g transform="translate(117.29166013924737,61.44776336319305) scale(0.6234902146108324)"><g class="links"><line stroke-width="3.845955727072767" stroke="lightgray" x1="289.8028720866333" y1="234.97386816129892" x2="271.8662493101628" y2="321.7289337723953"></line><line stroke-width="2.5359481079764796" stroke="lightgray" x1="289.8028720866333" y1="234.97386816129892" x2="316.3130955981123" y2="245.9563256459334"></line><line stroke-width="1.134110471369477" stroke="lightgray" x1="289.8028720866333" y1="234.97386816129892" x2="307.22402378659245" y2="282.3040864160009"></line><line stroke-width="3.6749379441473455" stroke="lightgray" x1="289.8028720866333" y1="234.97386816129892" x2="220.31105046791026" y2="304.16199244955016"></line><line stroke-width="1.134110471369477" stroke="lightgray" x1="289.8028720866333" y1="234.97386816129892" x2="252.51701719004052" y2="332.6182093763335"></line><line stroke-width="1.134110471369477" stroke="lightgray" x1="289.8028720866333" y1="234.97386816129892" x2="379.972005716826" y2="114.19095940927049"></line><line stroke-width="4.464997390781254" stroke="lightgray" x1="289.8028720866333" y1="234.97386816129892" x2="249.69629597535373" y2="200.72778833346064"></line><line stroke-width="1.9643369578078225" stroke="lightgray" x1="289.8028720866333" y1="234.97386816129892" x2="321.79928867818927" y2="181.30164399782834"></line><line stroke-width="2.1217264113086403" stroke="lightgray" x1="289.8028720866333" y1="234.97386816129892" x2="235.65344505261712" y2="356.4726317865269"></line><line stroke-width="2.268220942738954" stroke="lightgray" x1="289.8028720866333" y1="234.97386816129892" x2="229.59543621455205" y2="237.4678067976002"></line><line stroke-width="1.3889959834012644" stroke="lightgray" x1="289.8028720866333" y1="234.97386816129892" x2="252.40631513940326" y2="289.53017647753956"></line><line stroke-width="1.134110471369477" stroke="lightgray" x1="289.8028720866333" y1="234.97386816129892" x2="338.6147185916858" y2="234.39089825454155"></line><line stroke-width="1.3889959834012644" stroke="lightgray" x1="289.8028720866333" y1="234.97386816129892" x2="282.50734046491857" y2="202.69910308061182"></line><line stroke-width="1.6038744098400581" stroke="lightgray" x1="289.8028720866333" y1="234.97386816129892" x2="293.09149585294483" y2="142.74613446434478"></line><line stroke-width="1.3889959834012644" stroke="lightgray" x1="289.8028720866333" y1="234.97386816129892" x2="317.8132381195699" y2="216.82403727407961"></line><line stroke-width="0.8019372049200291" stroke="lightgray" x1="289.8028720866333" y1="234.97386816129892" x2="388.37884531562514" y2="80.60412303394835"></line><line stroke-width="0.8019372049200291" stroke="lightgray" x1="289.8028720866333" y1="234.97386816129892" x2="244.26096551659512" y2="258.7548207469596"></line><line stroke-width="2.5359481079764796" stroke="lightgray" x1="252.51701719004052" y1="332.6182093763335" x2="271.8662493101628" y2="321.7289337723953"></line><line stroke-width="2.8914257120414373" stroke="lightgray" x1="252.51701719004052" y1="332.6182093763335" x2="220.31105046791026" y2="304.16199244955016"></line><line stroke-width="6.898524680465107" stroke="lightgray" x1="252.51701719004052" y1="332.6182093763335" x2="166.51155561455948" y2="418.59683723265107"></line><line stroke-width="1.6038744098400581" stroke="lightgray" x1="252.51701719004052" y1="332.6182093763335" x2="280.07482697253437" y2="298.6566440800436"></line><line stroke-width="0.8019372049200291" stroke="lightgray" x1="252.51701719004052" y1="332.6182093763335" x2="152.19624336585008" y2="467.15762206455213"></line><line stroke-width="1.134110471369477" stroke="lightgray" x1="252.51701719004052" y1="332.6182093763335" x2="316.3130955981123" y2="245.9563256459334"></line><line stroke-width="0.8019372049200291" stroke="lightgray" x1="252.51701719004052" y1="332.6182093763335" x2="321.79928867818927" y2="181.30164399782834"></line><line stroke-width="1.3889959834012644" stroke="lightgray" x1="252.51701719004052" y1="332.6182093763335" x2="252.40631513940326" y2="289.53017647753956"></line><line stroke-width="1.7931861038873638" stroke="lightgray" x1="252.51701719004052" y1="332.6182093763335" x2="235.65344505261712" y2="356.4726317865269"></line><line stroke-width="1.3889959834012644" stroke="lightgray" x1="316.3130955981123" y1="245.9563256459334" x2="271.8662493101628" y2="321.7289337723953"></line><line stroke-width="3.7614189043456556" stroke="lightgray" x1="316.3130955981123" y1="245.9563256459334" x2="388.37884531562514" y2="80.60412303394835"></line><line stroke-width="1.6038744098400581" stroke="lightgray" x1="316.3130955981123" y1="245.9563256459334" x2="359.1062769999198" y2="182.4573598527644"></line><line stroke-width="1.9643369578078225" stroke="lightgray" x1="316.3130955981123" y1="245.9563256459334" x2="379.972005716826" y2="114.19095940927049"></line><line stroke-width="1.6038744098400581" stroke="lightgray" x1="316.3130955981123" y1="245.9563256459334" x2="338.6147185916858" y2="234.39089825454155"></line><line stroke-width="0.8019372049200291" stroke="lightgray" x1="316.3130955981123" y1="245.9563256459334" x2="252.40631513940326" y2="289.53017647753956"></line><line stroke-width="0.8019372049200291" stroke="lightgray" x1="316.3130955981123" y1="245.9563256459334" x2="307.22402378659245" y2="282.3040864160009"></line><line stroke-width="0.8019372049200291" stroke="lightgray" x1="316.3130955981123" y1="245.9563256459334" x2="220.31105046791026" y2="304.16199244955016"></line><line stroke-width="0.8019372049200291" stroke="lightgray" x1="316.3130955981123" y1="245.9563256459334" x2="280.07482697253437" y2="298.6566440800436"></line><line stroke-width="3.4023314141084304" stroke="lightgray" x1="321.79928867818927" y1="181.30164399782834" x2="249.69629597535373" y2="200.72778833346064"></line><line stroke-width="3.4023314141084304" stroke="lightgray" x1="321.79928867818927" y1="181.30164399782834" x2="379.972005716826" y2="114.19095940927049"></line><line stroke-width="2.5359481079764796" stroke="lightgray" x1="321.79928867818927" y1="181.30164399782834" x2="293.09149585294483" y2="142.74613446434478"></line><line stroke-width="1.6038744098400581" stroke="lightgray" x1="321.79928867818927" y1="181.30164399782834" x2="350.3474107496287" y2="161.45833018933055"></line><line stroke-width="0.8019372049200291" stroke="lightgray" x1="321.79928867818927" y1="181.30164399782834" x2="388.37884531562514" y2="80.60412303394835"></line><line stroke-width="1.134110471369477" stroke="lightgray" x1="271.8662493101628" y1="321.7289337723953" x2="307.22402378659245" y2="282.3040864160009"></line><line stroke-width="4.943472935510828" stroke="lightgray" x1="271.8662493101628" y1="321.7289337723953" x2="220.31105046791026" y2="304.16199244955016"></line><line stroke-width="1.3889959834012644" stroke="lightgray" x1="271.8662493101628" y1="321.7289337723953" x2="252.40631513940326" y2="289.53017647753956"></line><line stroke-width="2.777991966802529" stroke="lightgray" x1="271.8662493101628" y1="321.7289337723953" x2="235.65344505261712" y2="356.4726317865269"></line><line stroke-width="0.8019372049200291" stroke="lightgray" x1="271.8662493101628" y1="321.7289337723953" x2="166.51155561455948" y2="418.59683723265107"></line><line stroke-width="2.1217264113086403" stroke="lightgray" x1="252.40631513940326" y1="289.53017647753956" x2="220.31105046791026" y2="304.16199244955016"></line><line stroke-width="1.9643369578078225" stroke="lightgray" x1="252.40631513940326" y1="289.53017647753956" x2="194.58033455228556" y2="293.3642934574444"></line><line stroke-width="1.3889959834012644" stroke="lightgray" x1="252.40631513940326" y1="289.53017647753956" x2="280.07482697253437" y2="298.6566440800436"></line><line stroke-width="1.3889959834012644" stroke="lightgray" x1="252.40631513940326" y1="289.53017647753956" x2="235.65344505261712" y2="356.4726317865269"></line><line stroke-width="0.8019372049200291" stroke="lightgray" x1="252.40631513940326" y1="289.53017647753956" x2="204.75094035198916" y2="263.64487508960264"></line><line stroke-width="1.7931861038873638" stroke="lightgray" x1="220.31105046791026" y1="304.16199244955016" x2="191.2356516191761" y2="326.4085158344411"></line><line stroke-width="3.4023314141084304" stroke="lightgray" x1="220.31105046791026" y1="304.16199244955016" x2="202.40202995417746" y2="338.3939249072313"></line><line stroke-width="1.6038744098400581" stroke="lightgray" x1="220.31105046791026" y1="304.16199244955016" x2="184.16855970074346" y2="315.4067595529979"></line><line stroke-width="4.009686024600145" stroke="lightgray" x1="220.31105046791026" y1="304.16199244955016" x2="161.77882791226588" y2="364.36437202412446"></line><line stroke-width="4.166987950203794" stroke="lightgray" x1="220.31105046791026" y1="304.16199244955016" x2="235.65344505261712" y2="356.4726317865269"></line><line stroke-width="0.8019372049200291" stroke="lightgray" x1="220.31105046791026" y1="304.16199244955016" x2="190.54497789762695" y2="279.49213148732656"></line><line stroke-width="2.405811614760087" stroke="lightgray" x1="220.31105046791026" y1="304.16199244955016" x2="163.14224537508892" y2="310.36023105827064"></line><line stroke-width="1.6038744098400581" stroke="lightgray" x1="220.31105046791026" y1="304.16199244955016" x2="181.4027509459735" y2="300.97997862770575"></line><line stroke-width="1.3889959834012644" stroke="lightgray" x1="220.31105046791026" y1="304.16199244955016" x2="229.59543621455205" y2="237.4678067976002"></line><line stroke-width="1.7931861038873638" stroke="lightgray" x1="220.31105046791026" y1="304.16199244955016" x2="244.26096551659512" y2="258.7548207469596"></line><line stroke-width="1.6038744098400581" stroke="lightgray" x1="220.31105046791026" y1="304.16199244955016" x2="198.38545699899103" y2="355.61682813660616"></line><line stroke-width="1.134110471369477" stroke="lightgray" x1="220.31105046791026" y1="304.16199244955016" x2="194.58033455228556" y2="293.3642934574444"></line><line stroke-width="1.3889959834012644" stroke="lightgray" x1="220.31105046791026" y1="304.16199244955016" x2="166.51155561455948" y2="418.59683723265107"></line><line stroke-width="1.3889959834012644" stroke="lightgray" x1="220.31105046791026" y1="304.16199244955016" x2="204.75094035198916" y2="263.64487508960264"></line><line stroke-width="1.134110471369477" stroke="lightgray" x1="220.31105046791026" y1="304.16199244955016" x2="249.69629597535373" y2="200.72778833346064"></line><line stroke-width="0.8019372049200291" stroke="lightgray" x1="220.31105046791026" y1="304.16199244955016" x2="166.2217832623595" y2="282.6691104336778"></line><line stroke-width="1.134110471369477" stroke="lightgray" x1="220.31105046791026" y1="304.16199244955016" x2="280.07482697253437" y2="298.6566440800436"></line><line stroke-width="1.6038744098400581" stroke="lightgray" x1="166.51155561455948" y1="418.59683723265107" x2="235.65344505261712" y2="356.4726317865269"></line><line stroke-width="3.845955727072767" stroke="lightgray" x1="166.51155561455948" y1="418.59683723265107" x2="107.87773195706379" y2="511.33107019543917"></line><line stroke-width="1.6038744098400581" stroke="lightgray" x1="166.51155561455948" y1="418.59683723265107" x2="161.77882791226588" y2="364.36437202412446"></line><line stroke-width="0.8019372049200291" stroke="lightgray" x1="166.51155561455948" y1="418.59683723265107" x2="132.5051846714063" y2="429.72241451402425"></line><line stroke-width="2.8914257120414373" stroke="lightgray" x1="166.51155561455948" y1="418.59683723265107" x2="78.22699737882702" y2="510.3603088408582"></line><line stroke-width="0.8019372049200291" stroke="lightgray" x1="166.51155561455948" y1="418.59683723265107" x2="205.18757800217864" y2="401.17363858999306"></line><line stroke-width="0.8019372049200291" stroke="lightgray" x1="166.51155561455948" y1="418.59683723265107" x2="121.54596389273708" y2="448.4568992015613"></line><line stroke-width="0.8019372049200291" stroke="lightgray" x1="166.51155561455948" y1="418.59683723265107" x2="131.68939266390188" y2="474.9380284802037"></line><line stroke-width="1.6038744098400581" stroke="lightgray" x1="249.69629597535373" y1="200.72778833346064" x2="293.09149585294483" y2="142.74613446434478"></line><line stroke-width="1.134110471369477" stroke="lightgray" x1="249.69629597535373" y1="200.72778833346064" x2="229.59543621455205" y2="237.4678067976002"></line><line stroke-width="1.134110471369477" stroke="lightgray" x1="249.69629597535373" y1="200.72778833346064" x2="220.3647815353555" y2="173.24968749579588"></line><line stroke-width="0.8019372049200291" stroke="lightgray" x1="249.69629597535373" y1="200.72778833346064" x2="252.3143504900692" y2="154.08714837279666"></line><line stroke-width="2.5359481079764796" stroke="lightgray" x1="379.972005716826" y1="114.19095940927049" x2="388.37884531562514" y2="80.60412303394835"></line><line stroke-width="1.134110471369477" stroke="lightgray" x1="379.972005716826" y1="114.19095940927049" x2="415.1426654332119" y2="122.52871402336926"></line><line stroke-width="1.6038744098400581" stroke="lightgray" x1="379.972005716826" y1="114.19095940927049" x2="359.1062769999198" y2="182.4573598527644"></line><line stroke-width="3.4955632353118755" stroke="lightgray" x1="379.972005716826" y1="114.19095940927049" x2="433.4866092280886" y2="43.09731237851026"></line><line stroke-width="4.318564013467151" stroke="lightgray" x1="379.972005716826" y1="114.19095940927049" x2="402.93721284463487" y2="23.34040733861582"></line><line stroke-width="1.134110471369477" stroke="lightgray" x1="379.972005716826" y1="114.19095940927049" x2="418.11658628106227" y2="83.43128803557603"></line><line stroke-width="1.6038744098400581" stroke="lightgray" x1="379.972005716826" y1="114.19095940927049" x2="450.21431105641074" y2="-7.35754644467269"></line><line stroke-width="2.5359481079764796" stroke="lightgray" x1="379.972005716826" y1="114.19095940927049" x2="369.2083328510514" y2="81.63028893607496"></line><line stroke-width="0.8019372049200291" stroke="lightgray" x1="379.972005716826" y1="114.19095940927049" x2="438.80807912891726" y2="23.20394938480631"></line><line stroke-width="1.134110471369477" stroke="lightgray" x1="379.972005716826" y1="114.19095940927049" x2="293.09149585294483" y2="142.74613446434478"></line><line stroke-width="3.4023314141084304" stroke="lightgray" x1="235.65344505261712" y1="356.4726317865269" x2="198.38545699899103" y2="355.61682813660616"></line><line stroke-width="1.6038744098400581" stroke="lightgray" x1="235.65344505261712" y1="356.4726317865269" x2="202.40202995417746" y2="338.3939249072313"></line><line stroke-width="0.8019372049200291" stroke="lightgray" x1="235.65344505261712" y1="356.4726317865269" x2="246.0338298076532" y2="392.60067977796695"></line><line stroke-width="0.8019372049200291" stroke="lightgray" x1="235.65344505261712" y1="356.4726317865269" x2="205.18757800217864" y2="401.17363858999306"></line><line stroke-width="4.2434528226172805" stroke="lightgray" x1="388.37884531562514" y1="80.60412303394835" x2="425.5375266049286" y2="-8.008071010145057"></line><line stroke-width="3.845955727072767" stroke="lightgray" x1="388.37884531562514" y1="80.60412303394835" x2="402.93721284463487" y2="23.34040733861582"></line><line stroke-width="2.1217264113086403" stroke="lightgray" x1="388.37884531562514" y1="80.60412303394835" x2="438.80807912891726" y2="23.20394938480631"></line><line stroke-width="0.8019372049200291" stroke="lightgray" x1="388.37884531562514" y1="80.60412303394835" x2="420.1554902472441" y2="-31.364182679658068"></line><line stroke-width="2.1217264113086403" stroke="lightgray" x1="388.37884531562514" y1="80.60412303394835" x2="450.21431105641074" y2="-7.35754644467269"></line><line stroke-width="0.8019372049200291" stroke="lightgray" x1="388.37884531562514" y1="80.60412303394835" x2="433.4866092280886" y2="43.09731237851026"></line><line stroke-width="4.089093456563283" stroke="lightgray" x1="293.09149585294483" y1="142.74613446434478" x2="252.3143504900692" y2="154.08714837279666"></line><line stroke-width="1.134110471369477" stroke="lightgray" x1="293.09149585294483" y1="142.74613446434478" x2="272.15542770163313" y2="108.57013302710418"></line><line stroke-width="1.134110471369477" stroke="lightgray" x1="293.09149585294483" y1="142.74613446434478" x2="285.1282514597693" y2="104.27670806324029"></line><line stroke-width="1.3889959834012644" stroke="lightgray" x1="293.09149585294483" y1="142.74613446434478" x2="262.1264780426731" y2="118.3979509055659"></line><line stroke-width="1.134110471369477" stroke="lightgray" x1="293.09149585294483" y1="142.74613446434478" x2="300.69181528647346" y2="106.24533088167199"></line><line stroke-width="1.7931861038873638" stroke="lightgray" x1="229.59543621455205" y1="237.4678067976002" x2="195.5089737515236" y2="212.2337656275726"></line><line stroke-width="0.8019372049200291" stroke="lightgray" x1="229.59543621455205" y1="237.4678067976002" x2="204.75094035198916" y2="263.64487508960264"></line><line stroke-width="0.8019372049200291" stroke="lightgray" x1="194.58033455228556" y1="293.3642934574444" x2="204.75094035198916" y2="263.64487508960264"></line><line stroke-width="0.8019372049200291" stroke="lightgray" x1="194.58033455228556" y1="293.3642934574444" x2="202.40202995417746" y2="338.3939249072313"></line><line stroke-width="1.3889959834012644" stroke="lightgray" x1="152.19624336585008" y1="467.15762206455213" x2="107.87773195706379" y2="511.33107019543917"></line><line stroke-width="0.8019372049200291" stroke="lightgray" x1="152.19624336585008" y1="467.15762206455213" x2="55.429668977991724" y2="566.8644552404758"></line><line stroke-width="1.134110471369477" stroke="lightgray" x1="152.19624336585008" y1="467.15762206455213" x2="121.54596389273708" y2="448.4568992015613"></line><line stroke-width="1.3889959834012644" stroke="lightgray" x1="107.87773195706379" y1="511.33107019543917" x2="78.22699737882702" y2="510.3603088408582"></line><line stroke-width="3.4955632353118755" stroke="lightgray" x1="107.87773195706379" y1="511.33107019543917" x2="131.68939266390188" y2="474.9380284802037"></line><line stroke-width="1.9643369578078225" stroke="lightgray" x1="107.87773195706379" y1="511.33107019543917" x2="99.92011538180628" y2="546.7030164447342"></line><line stroke-width="1.134110471369477" stroke="lightgray" x1="107.87773195706379" y1="511.33107019543917" x2="24.431928691323005" y2="598.2971020684664"></line><line stroke-width="2.777991966802529" stroke="lightgray" x1="402.93721284463487" y1="23.34040733861582" x2="383.99152010550443" y2="-8.899008612938653"></line><line stroke-width="1.3889959834012644" stroke="lightgray" x1="402.93721284463487" y1="23.34040733861582" x2="420.1554902472441" y2="-31.364182679658068"></line><line stroke-width="1.134110471369477" stroke="lightgray" x1="402.93721284463487" y1="23.34040733861582" x2="425.5375266049286" y2="-8.008071010145057"></line><line stroke-width="1.134110471369477" stroke="lightgray" x1="402.93721284463487" y1="23.34040733861582" x2="438.80807912891726" y2="23.20394938480631"></line><line stroke-width="2.1217264113086403" stroke="lightgray" x1="402.93721284463487" y1="23.34040733861582" x2="450.21431105641074" y2="-7.35754644467269"></line><line stroke-width="1.7931861038873638" stroke="lightgray" x1="402.93721284463487" y1="23.34040733861582" x2="433.4866092280886" y2="43.09731237851026"></line><line stroke-width="0.8019372049200291" stroke="lightgray" x1="161.77882791226588" y1="364.36437202412446" x2="198.38545699899103" y2="355.61682813660616"></line><line stroke-width="2.1217264113086403" stroke="lightgray" x1="161.77882791226588" y1="364.36437202412446" x2="120.85270645894077" y2="369.8460802326838"></line><line stroke-width="2.8914257120414373" stroke="lightgray" x1="450.21431105641074" y1="-7.35754644467269" x2="475.3992952785134" y2="-41.22786373797336"></line><line stroke-width="1.7931861038873638" stroke="lightgray" x1="450.21431105641074" y1="-7.35754644467269" x2="448.7092294967906" y2="-54.29478862122372"></line><line stroke-width="1.9643369578078225" stroke="lightgray" x1="450.21431105641074" y1="-7.35754644467269" x2="420.1554902472441" y2="-31.364182679658068"></line><line stroke-width="0.8019372049200291" stroke="lightgray" x1="450.21431105641074" y1="-7.35754644467269" x2="494.1742133317986" y2="-15.486563524081522"></line><line stroke-width="0.8019372049200291" stroke="lightgray" x1="450.21431105641074" y1="-7.35754644467269" x2="438.80807912891726" y2="23.20394938480631"></line><line stroke-width="1.134110471369477" stroke="lightgray" x1="450.21431105641074" y1="-7.35754644467269" x2="433.4866092280886" y2="43.09731237851026"></line><line stroke-width="1.3889959834012644" stroke="lightgray" x1="450.21431105641074" y1="-7.35754644467269" x2="425.5375266049286" y2="-8.008071010145057"></line><line stroke-width="0.8019372049200291" stroke="lightgray" x1="450.21431105641074" y1="-7.35754644467269" x2="445.54080926991037" y2="-76.76861355393895"></line><line stroke-width="1.134110471369477" stroke="lightgray" x1="450.21431105641074" y1="-7.35754644467269" x2="480.0101419773336" y2="-68.6153015148359"></line><line stroke-width="0.8019372049200291" stroke="lightgray" x1="433.4866092280886" y1="43.09731237851026" x2="418.11658628106227" y2="83.43128803557603"></line><line stroke-width="0.8019372049200291" stroke="lightgray" x1="433.4866092280886" y1="43.09731237851026" x2="475.3992952785134" y2="-41.22786373797336"></line><line stroke-width="2.1217264113086403" stroke="lightgray" x1="438.80807912891726" y1="23.20394938480631" x2="475.3992952785134" y2="-41.22786373797336"></line><line stroke-width="1.6038744098400581" stroke="lightgray" x1="438.80807912891726" y1="23.20394938480631" x2="476.2678763398695" y2="26.003506913998354"></line><line stroke-width="1.134110471369477" stroke="lightgray" x1="438.80807912891726" y1="23.20394938480631" x2="448.7092294967906" y2="-54.29478862122372"></line><line stroke-width="0.8019372049200291" stroke="lightgray" x1="425.5375266049286" y1="-8.008071010145057" x2="448.7092294967906" y2="-54.29478862122372"></line><line stroke-width="2.405811614760087" stroke="lightgray" x1="425.5375266049286" y1="-8.008071010145057" x2="420.1554902472441" y2="-31.364182679658068"></line><line stroke-width="0.8019372049200291" stroke="lightgray" x1="425.5375266049286" y1="-8.008071010145057" x2="475.3992952785134" y2="-41.22786373797336"></line><line stroke-width="0.8019372049200291" stroke="lightgray" x1="78.22699737882702" y1="510.3603088408582" x2="24.431928691323005" y2="598.2971020684664"></line><line stroke-width="1.134110471369477" stroke="lightgray" x1="78.22699737882702" y1="510.3603088408582" x2="42.122476170793455" y2="521.49698987604"></line><line stroke-width="1.9643369578078225" stroke="lightgray" x1="244.26096551659512" y1="258.7548207469596" x2="211.14480971797482" y2="234.80852414553567"></line><line stroke-width="1.134110471369477" stroke="lightgray" x1="163.14224537508892" y1="310.36023105827064" x2="166.2217832623595" y2="282.6691104336778"></line><line stroke-width="1.9643369578078225" stroke="lightgray" x1="121.54596389273708" y1="448.4568992015613" x2="131.68939266390188" y2="474.9380284802037"></line><line stroke-width="1.3889959834012644" stroke="lightgray" x1="55.429668977991724" y1="566.8644552404758" x2="-8.939629369051852" y2="625.7644344190059"></line><line stroke-width="1.7931861038873638" stroke="lightgray" x1="55.429668977991724" y1="566.8644552404758" x2="24.431928691323005" y2="598.2971020684664"></line><line stroke-width="1.7931861038873638" stroke="lightgray" x1="475.3992952785134" y1="-41.22786373797336" x2="480.0101419773336" y2="-68.6153015148359"></line><line stroke-width="2.8914257120414373" stroke="lightgray" x1="475.3992952785134" y1="-41.22786373797336" x2="509.78000417109706" y2="-80.77651880195448"></line><line stroke-width="1.3889959834012644" stroke="lightgray" x1="475.3992952785134" y1="-41.22786373797336" x2="507.6790079376348" y2="-62.220223806936154"></line><line stroke-width="1.9643369578078225" stroke="lightgray" x1="475.3992952785134" y1="-41.22786373797336" x2="448.7092294967906" y2="-54.29478862122372"></line><line stroke-width="2.405811614760087" stroke="lightgray" x1="475.3992952785134" y1="-41.22786373797336" x2="474.2030311198228" y2="-92.69643607208428"></line><line stroke-width="0.8019372049200291" stroke="lightgray" x1="475.3992952785134" y1="-41.22786373797336" x2="445.54080926991037" y2="-76.76861355393895"></line><line stroke-width="1.3889959834012644" stroke="lightgray" x1="475.3992952785134" y1="-41.22786373797336" x2="514.0835118603352" y2="-46.572079862796585"></line><line stroke-width="0.8019372049200291" stroke="lightgray" x1="475.3992952785134" y1="-41.22786373797336" x2="420.1554902472441" y2="-31.364182679658068"></line><line stroke-width="1.134110471369477" stroke="lightgray" x1="475.3992952785134" y1="-41.22786373797336" x2="494.1742133317986" y2="-15.486563524081522"></line><line stroke-width="1.134110471369477" stroke="lightgray" x1="448.7092294967906" y1="-54.29478862122372" x2="474.2030311198228" y2="-92.69643607208428"></line><line stroke-width="3.4023314141084304" stroke="lightgray" x1="448.7092294967906" y1="-54.29478862122372" x2="445.54080926991037" y2="-76.76861355393895"></line><line stroke-width="1.134110471369477" stroke="lightgray" x1="448.7092294967906" y1="-54.29478862122372" x2="420.1554902472441" y2="-31.364182679658068"></line><line stroke-width="1.3889959834012644" stroke="lightgray" x1="448.7092294967906" y1="-54.29478862122372" x2="480.0101419773336" y2="-68.6153015148359"></line><line stroke-width="3.4023314141084304" stroke="lightgray" x1="24.431928691323005" y1="598.2971020684664" x2="-8.939629369051852" y2="625.7644344190059"></line><line stroke-width="1.7931861038873638" stroke="lightgray" x1="24.431928691323005" y1="598.2971020684664" x2="-19.852828561514823" y2="671.4207209803981"></line><line stroke-width="1.3889959834012644" stroke="lightgray" x1="24.431928691323005" y1="598.2971020684664" x2="4.79446934142734" y2="651.9651347334475"></line><line stroke-width="1.134110471369477" stroke="lightgray" x1="24.431928691323005" y1="598.2971020684664" x2="-34.145491217281595" y2="642.2476229059955"></line><line stroke-width="1.6038744098400581" stroke="lightgray" x1="420.1554902472441" y1="-31.364182679658068" x2="445.54080926991037" y2="-76.76861355393895"></line><line stroke-width="1.3889959834012644" stroke="lightgray" x1="480.0101419773336" y1="-68.6153015148359" x2="509.78000417109706" y2="-80.77651880195448"></line><line stroke-width="1.3889959834012644" stroke="lightgray" x1="445.54080926991037" y1="-76.76861355393895" x2="474.2030311198228" y2="-92.69643607208428"></line><line stroke-width="2.777991966802529" stroke="lightgray" x1="-8.939629369051852" y1="625.7644344190059" x2="4.79446934142734" y2="651.9651347334475"></line><line stroke-width="1.7931861038873638" stroke="lightgray" x1="-8.939629369051852" y1="625.7644344190059" x2="-34.145491217281595" y2="642.2476229059955"></line><line stroke-width="0.8019372049200291" stroke="lightgray" x1="-8.939629369051852" y1="625.7644344190059" x2="-57.95723099803154" y2="671.0273899632421"></line><line stroke-width="2.5359481079764796" stroke="lightgray" x1="-8.939629369051852" y1="625.7644344190059" x2="-19.852828561514823" y2="671.4207209803981"></line><line stroke-width="1.134110471369477" stroke="lightgray" x1="-19.852828561514823" y1="671.4207209803981" x2="-30.146423699421508" y2="707.0927632876669"></line><line stroke-width="1.6038744098400581" stroke="lightgray" x1="-19.852828561514823" y1="671.4207209803981" x2="4.79446934142734" y2="651.9651347334475"></line><line stroke-width="0.8019372049200291" stroke="lightgray" x1="-19.852828561514823" y1="671.4207209803981" x2="-57.95723099803154" y2="671.0273899632421"></line><line stroke-width="0.8019372049200291" stroke="lightgray" x1="-19.852828561514823" y1="671.4207209803981" x2="-34.145491217281595" y2="642.2476229059955"></line><line stroke-width="0.8019372049200291" stroke="lightgray" x1="4.79446934142734" y1="651.9651347334475" x2="-34.145491217281595" y2="642.2476229059955"></line><line stroke-width="0.8019372049200291" stroke="lightgray" x1="-34.145491217281595" y1="642.2476229059955" x2="-57.95723099803154" y2="671.0273899632421"></line><line stroke-width="0.8019372049200291" stroke="lightgray" x1="-57.95723099803154" y1="671.0273899632421" x2="-86.00830189589723" y2="696.4467068034419"></line></g><g class="nodes"><circle r="8.01937204920029" fill="rgb(233, 247, 228)" stroke="black" stroke-width="1px" transform="translate(289.8028720866333,234.97386816129892)"></circle><circle r="6.991126470623751" fill="rgb(231, 246, 226)" stroke="black" stroke-width="1px" transform="translate(252.51701719004052,332.6182093763335)"></circle><circle r="5.782851424082875" fill="rgb(233, 246, 227)" stroke="black" stroke-width="1px" transform="translate(316.3130955981123,245.9563256459334)"></circle><circle r="5.555983933605058" fill="rgb(231, 246, 226)" stroke="black" stroke-width="1px" transform="translate(321.79928867818927,181.30164399782834)"></circle><circle r="5.3194496282921735" fill="rgb(234, 247, 228)" stroke="black" stroke-width="1px" transform="translate(271.8662493101628,321.7289337723953)"></circle><circle r="3.5863722077747275" fill="rgb(228, 245, 223)" stroke="black" stroke-width="1px" transform="translate(252.40631513940326,289.53017647753956)"></circle><circle r="11.56570284816575" fill="rgb(213, 239, 207)" stroke="black" stroke-width="1px" transform="translate(220.31105046791026,304.16199244955016)"></circle><circle r="9.213557024505423" fill="rgb(215, 239, 209)" stroke="black" stroke-width="1px" transform="translate(166.51155561455948,418.59683723265107)"></circle><circle r="9.072883770955816" fill="rgb(216, 240, 210)" stroke="black" stroke-width="1px" transform="translate(249.69629597535373,200.72778833346064)"></circle><circle r="8.333975900407587" fill="rgb(214, 239, 208)" stroke="black" stroke-width="1px" transform="translate(379.972005716826,114.19095940927049)"></circle><circle r="7.522837808691311" fill="rgb(214, 239, 209)" stroke="black" stroke-width="1px" transform="translate(235.65344505261712,356.4726317865269)"></circle><circle r="7.172744415549455" fill="rgb(214, 239, 208)" stroke="black" stroke-width="1px" transform="translate(388.37884531562514,80.60412303394835)"></circle><circle r="5.3194496282921735" fill="rgb(213, 238, 207)" stroke="black" stroke-width="1px" transform="translate(293.09149585294483,142.74613446434478)"></circle><circle r="3.5863722077747275" fill="rgb(217, 240, 211)" stroke="black" stroke-width="1px" transform="translate(229.59543621455205,237.4678067976002)"></circle><circle r="3.2077488196801163" fill="rgb(217, 240, 211)" stroke="black" stroke-width="1px" transform="translate(280.07482697253437,298.6566440800436)"></circle><circle r="2.777991966802529" fill="rgb(207, 236, 202)" stroke="black" stroke-width="1px" transform="translate(194.58033455228556,293.3642934574444)"></circle><circle r="2.268220942738954" fill="rgb(224, 243, 218)" stroke="black" stroke-width="1px" transform="translate(338.6147185916858,234.39089825454155)"></circle><circle r="1.6038744098400581" fill="rgb(209, 237, 204)" stroke="black" stroke-width="1px" transform="translate(152.19624336585008,467.15762206455213)"></circle><circle r="1.6038744098400581" fill="rgb(222, 242, 216)" stroke="black" stroke-width="1px" transform="translate(282.50734046491857,202.69910308061182)"></circle><circle r="1.6038744098400581" fill="rgb(222, 242, 216)" stroke="black" stroke-width="1px" transform="translate(317.8132381195699,216.82403727407961)"></circle><circle r="1.6038744098400581" fill="rgb(223, 243, 217)" stroke="black" stroke-width="1px" transform="translate(307.22402378659245,282.3040864160009)"></circle><circle r="1.6038744098400581" fill="rgb(220, 241, 214)" stroke="black" stroke-width="1px" transform="translate(350.3474107496287,161.45833018933055)"></circle><circle r="8.01937204920029" fill="rgb(179, 225, 188)" stroke="black" stroke-width="1px" transform="translate(107.87773195706379,511.33107019543917)"></circle><circle r="6.804662828216861" fill="rgb(185, 228, 189)" stroke="black" stroke-width="1px" transform="translate(402.93721284463487,23.34040733861582)"></circle><circle r="6.612943601995749" fill="rgb(190, 229, 191)" stroke="black" stroke-width="1px" transform="translate(161.77882791226588,364.36437202412446)"></circle><circle r="6.001148533035749" fill="rgb(180, 226, 188)" stroke="black" stroke-width="1px" transform="translate(450.21431105641074,-7.35754644467269)"></circle><circle r="6.001148533035749" fill="rgb(189, 229, 191)" stroke="black" stroke-width="1px" transform="translate(433.4866092280886,43.09731237851026)"></circle><circle r="5.555983933605058" fill="rgb(182, 227, 189)" stroke="black" stroke-width="1px" transform="translate(438.80807912891726,23.20394938480631)"></circle><circle r="5.3194496282921735" fill="rgb(181, 226, 188)" stroke="black" stroke-width="1px" transform="translate(425.5375266049286,-8.008071010145057)"></circle><circle r="3.928673915615645" fill="rgb(188, 229, 191)" stroke="black" stroke-width="1px" transform="translate(78.22699737882702,510.3603088408582)"></circle><circle r="3.928673915615645" fill="rgb(196, 232, 195)" stroke="black" stroke-width="1px" transform="translate(252.3143504900692,154.08714837279666)"></circle><circle r="3.928673915615645" fill="rgb(195, 231, 194)" stroke="black" stroke-width="1px" transform="translate(198.38545699899103,355.61682813660616)"></circle><circle r="3.2077488196801163" fill="rgb(195, 231, 194)" stroke="black" stroke-width="1px" transform="translate(202.40202995417746,338.3939249072313)"></circle><circle r="2.777991966802529" fill="rgb(188, 229, 191)" stroke="black" stroke-width="1px" transform="translate(244.26096551659512,258.7548207469596)"></circle><circle r="2.268220942738954" fill="rgb(201, 234, 197)" stroke="black" stroke-width="1px" transform="translate(369.2083328510514,81.63028893607496)"></circle><circle r="2.268220942738954" fill="rgb(200, 233, 197)" stroke="black" stroke-width="1px" transform="translate(163.14224537508892,310.36023105827064)"></circle><circle r="2.268220942738954" fill="rgb(190, 229, 191)" stroke="black" stroke-width="1px" transform="translate(359.1062769999198,182.4573598527644)"></circle><circle r="2.268220942738954" fill="rgb(180, 226, 188)" stroke="black" stroke-width="1px" transform="translate(121.54596389273708,448.4568992015613)"></circle><circle r="1.6038744098400581" fill="rgb(201, 234, 198)" stroke="black" stroke-width="1px" transform="translate(195.5089737515236,212.2337656275726)"></circle><circle r="1.6038744098400581" fill="rgb(183, 227, 189)" stroke="black" stroke-width="1px" transform="translate(55.429668977991724,566.8644552404758)"></circle><circle r="1.6038744098400581" fill="rgb(193, 231, 193)" stroke="black" stroke-width="1px" transform="translate(181.4027509459735,300.97997862770575)"></circle><circle r="1.6038744098400581" fill="rgb(200, 233, 197)" stroke="black" stroke-width="1px" transform="translate(205.18757800217864,401.17363858999306)"></circle><circle r="1.6038744098400581" fill="rgb(184, 227, 189)" stroke="black" stroke-width="1px" transform="translate(191.2356516191761,326.4085158344411)"></circle><circle r="1.6038744098400581" fill="rgb(183, 227, 189)" stroke="black" stroke-width="1px" transform="translate(132.5051846714063,429.72241451402425)"></circle><circle r="1.6038744098400581" fill="rgb(201, 234, 197)" stroke="black" stroke-width="1px" transform="translate(220.3647815353555,173.24968749579588)"></circle><circle r="1.6038744098400581" fill="rgb(196, 232, 195)" stroke="black" stroke-width="1px" transform="translate(184.16855970074346,315.4067595529979)"></circle><circle r="1.6038744098400581" fill="rgb(186, 228, 190)" stroke="black" stroke-width="1px" transform="translate(415.1426654332119,122.52871402336926)"></circle><circle r="1.6038744098400581" fill="rgb(185, 228, 190)" stroke="black" stroke-width="1px" transform="translate(300.69181528647346,106.24533088167199)"></circle><circle r="1.6038744098400581" fill="rgb(194, 231, 194)" stroke="black" stroke-width="1px" transform="translate(285.1282514597693,104.27670806324029)"></circle><circle r="1.6038744098400581" fill="rgb(186, 228, 190)" stroke="black" stroke-width="1px" transform="translate(262.1264780426731,118.3979509055659)"></circle><circle r="1.6038744098400581" fill="rgb(195, 231, 194)" stroke="black" stroke-width="1px" transform="translate(272.15542770163313,108.57013302710418)"></circle><circle r="1.6038744098400581" fill="rgb(200, 234, 197)" stroke="black" stroke-width="1px" transform="translate(204.75094035198916,263.64487508960264)"></circle><circle r="6.612943601995749" fill="rgb(138, 209, 191)" stroke="black" stroke-width="1px" transform="translate(475.3992952785134,-41.22786373797336)"></circle><circle r="4.2434528226172805" fill="rgb(138, 209, 191)" stroke="black" stroke-width="1px" transform="translate(448.7092294967906,-54.29478862122372)"></circle><circle r="4.2434528226172805" fill="rgb(149, 214, 188)" stroke="black" stroke-width="1px" transform="translate(131.68939266390188,474.9380284802037)"></circle><circle r="4.2434528226172805" fill="rgb(134, 208, 192)" stroke="black" stroke-width="1px" transform="translate(24.431928691323005,598.2971020684664)"></circle><circle r="3.5863722077747275" fill="rgb(154, 216, 187)" stroke="black" stroke-width="1px" transform="translate(420.1554902472441,-31.364182679658068)"></circle><circle r="3.5863722077747275" fill="rgb(130, 206, 194)" stroke="black" stroke-width="1px" transform="translate(480.0101419773336,-68.6153015148359)"></circle><circle r="2.268220942738954" fill="rgb(162, 219, 186)" stroke="black" stroke-width="1px" transform="translate(383.99152010550443,-8.899008612938653)"></circle><circle r="2.268220942738954" fill="rgb(161, 218, 186)" stroke="black" stroke-width="1px" transform="translate(418.11658628106227,83.43128803557603)"></circle><circle r="2.268220942738954" fill="rgb(161, 218, 186)" stroke="black" stroke-width="1px" transform="translate(211.14480971797482,234.80852414553567)"></circle><circle r="1.6038744098400581" fill="rgb(157, 217, 187)" stroke="black" stroke-width="1px" transform="translate(99.92011538180628,546.7030164447342)"></circle><circle r="1.6038744098400581" fill="rgb(134, 208, 192)" stroke="black" stroke-width="1px" transform="translate(42.122476170793455,521.49698987604)"></circle><circle r="1.6038744098400581" fill="rgb(164, 220, 186)" stroke="black" stroke-width="1px" transform="translate(190.54497789762695,279.49213148732656)"></circle><circle r="1.6038744098400581" fill="rgb(162, 219, 186)" stroke="black" stroke-width="1px" transform="translate(120.85270645894077,369.8460802326838)"></circle><circle r="1.6038744098400581" fill="rgb(161, 218, 186)" stroke="black" stroke-width="1px" transform="translate(476.2678763398695,26.003506913998354)"></circle><circle r="1.6038744098400581" fill="rgb(166, 220, 186)" stroke="black" stroke-width="1px" transform="translate(246.0338298076532,392.60067977796695)"></circle><circle r="1.6038744098400581" fill="rgb(165, 220, 186)" stroke="black" stroke-width="1px" transform="translate(166.2217832623595,282.6691104336778)"></circle><circle r="3.928673915615645" fill="rgb(108, 195, 201)" stroke="black" stroke-width="1px" transform="translate(445.54080926991037,-76.76861355393895)"></circle><circle r="3.5863722077747275" fill="rgb(103, 193, 202)" stroke="black" stroke-width="1px" transform="translate(-8.939629369051852,625.7644344190059)"></circle><circle r="2.777991966802529" fill="rgb(104, 193, 202)" stroke="black" stroke-width="1px" transform="translate(474.2030311198228,-92.69643607208428)"></circle><circle r="2.777991966802529" fill="rgb(89, 184, 205)" stroke="black" stroke-width="1px" transform="translate(514.0835118603352,-46.572079862796585)"></circle><circle r="2.777991966802529" fill="rgb(113, 198, 199)" stroke="black" stroke-width="1px" transform="translate(509.78000417109706,-80.77651880195448)"></circle><circle r="1.6038744098400581" fill="rgb(112, 197, 200)" stroke="black" stroke-width="1px" transform="translate(507.6790079376348,-62.220223806936154)"></circle><circle r="1.6038744098400581" fill="rgb(108, 195, 201)" stroke="black" stroke-width="1px" transform="translate(494.1742133317986,-15.486563524081522)"></circle><circle r="3.2077488196801163" fill="rgb(73, 171, 204)" stroke="black" stroke-width="1px" transform="translate(-19.852828561514823,671.4207209803981)"></circle><circle r="3.2077488196801163" fill="rgb(73, 171, 204)" stroke="black" stroke-width="1px" transform="translate(4.79446934142734,651.9651347334475)"></circle><circle r="2.268220942738954" fill="rgb(50, 148, 194)" stroke="black" stroke-width="1px" transform="translate(-34.145491217281595,642.2476229059955)"></circle><circle r="2.268220942738954" fill="rgb(36, 133, 187)" stroke="black" stroke-width="1px" transform="translate(-30.146423699421508,707.0927632876669)"></circle><circle r="1.6038744098400581" fill="rgb(38, 135, 188)" stroke="black" stroke-width="1px" transform="translate(-57.95723099803154,671.0273899632421)"></circle><circle r="1.6038744098400581" fill="rgb(8, 64, 129)" stroke="black" stroke-width="1px" transform="translate(-86.00830189589723,696.4467068034419)"></circle></g></g><g><text x="505" y="495" font-family="sans-serif" text-anchor="end" font-size="10px" fill="red">81 nodes</text><text x="505" y="505" font-family="sans-serif" text-anchor="end" font-size="10px" fill="red">178 edges</text></g></svg>