<svg height="512" width="512" style="border-style: solid; border-width: 1px; cursor: auto;" id="figure"><g transform="translate(-327.2850315822635,-358.1486834431614) scale(2.356783860360103)"><g class="links"><line stroke-width="0.36746068163081996" stroke="lightgray" x1="301.0671600469796" y1="339.7586318996493" x2="293.90802202798676" y2="300.102780162476"></line><line stroke-width="0.2121535234561573" stroke="lightgray" x1="301.0671600469796" y1="339.7586318996493" x2="267.4663509025869" y2="313.62917390281365"></line><line stroke-width="0.3000303901769362" stroke="lightgray" x1="301.0671600469796" y1="339.7586318996493" x2="323.74555944793525" y2="365.44694502779697"></line><line stroke-width="0.2121535234561573" stroke="lightgray" x1="293.90802202798676" y1="300.102780162476" x2="260.31858853262213" y2="267.80333862499066"></line><line stroke-width="1.1226109256622012" stroke="lightgray" x1="293.90802202798676" y1="300.102780162476" x2="267.4663509025869" y2="313.62917390281365"></line><line stroke-width="0.8216670631849218" stroke="lightgray" x1="267.4663509025869" y1="313.62917390281365" x2="260.31858853262213" y2="267.80333862499066"></line><line stroke-width="0.2121535234561573" stroke="lightgray" x1="293.40382358964195" y1="261.4561588738527" x2="260.31858853262213" y2="267.80333862499066"></line><line stroke-width="1.587611596339699" stroke="lightgray" x1="260.31858853262213" y1="267.80333862499066" x2="227.4998797812827" y2="237.53883788816535"></line><line stroke-width="1.0607676172807865" stroke="lightgray" x1="260.31858853262213" y1="267.80333862499066" x2="267.5461327991375" y2="233.31581176173785"></line><line stroke-width="1.1620127045113873" stroke="lightgray" x1="260.31858853262213" y1="267.80333862499066" x2="245.3390958545764" y2="215.26301735307482"></line><line stroke-width="1.200121560707745" stroke="lightgray" x1="207.99754485648074" y1="193.0863860006847" x2="227.4998797812827" y2="237.53883788816535"></line><line stroke-width="1.0607676172807865" stroke="lightgray" x1="207.99754485648074" y1="193.0863860006847" x2="173.77295981336755" y2="176.57016132195162"></line><line stroke-width="0.6708883477514145" stroke="lightgray" x1="207.99754485648074" y1="193.0863860006847" x2="197.92917622870348" y2="156.0286511952123"></line><line stroke-width="0.47438970011406384" stroke="lightgray" x1="207.99754485648074" y1="193.0863860006847" x2="245.3390958545764" y2="215.26301735307482"></line><line stroke-width="0.6000607803538724" stroke="lightgray" x1="227.4998797812827" y1="237.53883788816535" x2="267.5461327991375" y2="233.31581176173785"></line><line stroke-width="0.7649304070915273" stroke="lightgray" x1="227.4998797812827" y1="237.53883788816535" x2="245.3390958545764" y2="215.26301735307482"></line><line stroke-width="0.5196678796011677" stroke="lightgray" x1="173.77295981336755" y1="176.57016132195162" x2="197.92917622870348" y2="156.0286511952123"></line><line stroke-width="0.3000303901769362" stroke="lightgray" x1="245.3390958545764" y1="215.26301735307482" x2="267.5461327991375" y2="233.31581176173785"></line></g><g class="nodes"><circle r="2.0786715184046707" fill="rgb(233, 242, 248)" stroke="black" stroke-width="1px" transform="translate(301.0671600469796,339.7586318996493)"></circle><circle r="2.0786715184046707" fill="rgb(160, 185, 216)" stroke="black" stroke-width="1px" transform="translate(293.90802202798676,300.102780162476)"></circle><circle r="1.94441916037886" fill="rgb(152, 173, 210)" stroke="black" stroke-width="1px" transform="translate(267.4663509025869,313.62917390281365)"></circle><circle r="0.7349213632616399" fill="rgb(246, 251, 252)" stroke="black" stroke-width="1px" transform="translate(323.74555944793525,365.44694502779697)"></circle><circle r="0.4243070469123146" fill="rgb(143, 151, 199)" stroke="black" stroke-width="1px" transform="translate(293.40382358964195,261.4561588738527)"></circle><circle r="4.781697574873387" fill="rgb(138, 83, 165)" stroke="black" stroke-width="1px" transform="translate(260.31858853262213,267.80333862499066)"></circle><circle r="4.724883309392062" fill="rgb(111, 13, 109)" stroke="black" stroke-width="1px" transform="translate(207.99754485648074,193.0863860006847)"></circle><circle r="4.490443702648805" fill="rgb(133, 45, 143)" stroke="black" stroke-width="1px" transform="translate(227.4998797812827,237.53883788816535)"></circle><circle r="3.1180072776070062" fill="rgb(90, 4, 87)" stroke="black" stroke-width="1px" transform="translate(173.77295981336755,176.57016132195162)"></circle><circle r="2.4374584123553413" fill="rgb(137, 73, 160)" stroke="black" stroke-width="1px" transform="translate(245.3390958545764,215.26301735307482)"></circle><circle r="1.7494627721133809" fill="rgb(90, 4, 87)" stroke="black" stroke-width="1px" transform="translate(197.92917622870348,156.0286511952123)"></circle><circle r="1.587611596339699" fill="rgb(136, 70, 159)" stroke="black" stroke-width="1px" transform="translate(267.5461327991375,233.31581176173785)"></circle></g></g><g><text x="505" y="495" font-family="sans-serif" text-anchor="end" font-size="10px" fill="red">12 nodes</text><text x="505" y="505" font-family="sans-serif" text-anchor="end" font-size="10px" fill="red">18 edges</text></g></svg>