<svg height="512" width="512" style="border-style: solid; border-width: 1px; cursor: auto;" id="figure"><g transform="translate(38.396754347427446,13.949189336199396) scale(0.9349377757738249)"><g class="links"><line stroke-width="2.6199494835426838" stroke="lightgray" x1="173.0791717581705" y1="4.258982143218436" x2="187.16577669768978" y2="36.84011069902693"></line><line stroke-width="1.4149344371473105" stroke="lightgray" x1="173.0791717581705" y1="4.258982143218436" x2="147.89713841550676" y2="17.40054167270583"></line><line stroke-width="0.5347949488789908" stroke="lightgray" x1="173.0791717581705" y1="4.258982143218436" x2="198.4175528097619" y2="-6.57046099848622"></line><line stroke-width="0.7563142697932949" stroke="lightgray" x1="173.0791717581705" y1="4.258982143218436" x2="199.4411816810592" y2="54.88886174396548"></line><line stroke-width="0.5347949488789908" stroke="lightgray" x1="187.16577669768978" y1="36.84011069902693" x2="209.00856898536247" y2="113.11763766774844"></line><line stroke-width="0.5347949488789908" stroke="lightgray" x1="187.16577669768978" y1="36.84011069902693" x2="198.4175528097619" y2="-6.57046099848622"></line><line stroke-width="0.5347949488789908" stroke="lightgray" x1="187.16577669768978" y1="36.84011069902693" x2="220.57281840184953" y2="75.79944925751981"></line><line stroke-width="1.0695898977579816" stroke="lightgray" x1="187.16577669768978" y1="36.84011069902693" x2="147.89713841550676" y2="17.40054167270583"></line><line stroke-width="0.5347949488789908" stroke="lightgray" x1="199.4411816810592" y1="54.88886174396548" x2="230.21529656698206" y2="112.48081979517127"></line><line stroke-width="0.5347949488789908" stroke="lightgray" x1="199.4411816810592" y1="54.88886174396548" x2="220.57281840184953" y2="75.79944925751981"></line><line stroke-width="1.0695898977579816" stroke="lightgray" x1="250.00813377072862" y1="92.05322720331219" x2="209.00856898536247" y2="113.11763766774844"></line><line stroke-width="1.6043848466369723" stroke="lightgray" x1="250.00813377072862" y1="92.05322720331219" x2="240.4409642160833" y2="138.41221204703686"></line><line stroke-width="0.7563142697932949" stroke="lightgray" x1="250.00813377072862" y1="92.05322720331219" x2="230.21529656698206" y2="112.48081979517127"></line><line stroke-width="1.5126285395865897" stroke="lightgray" x1="250.00813377072862" y1="92.05322720331219" x2="220.57281840184953" y2="75.79944925751981"></line><line stroke-width="1.3099747417713419" stroke="lightgray" x1="220.57281840184953" y1="75.79944925751981" x2="209.00856898536247" y2="113.11763766774844"></line><line stroke-width="1.691170119610923" stroke="lightgray" x1="220.57281840184953" y1="75.79944925751981" x2="240.4409642160833" y2="138.41221204703686"></line><line stroke-width="0.5347949488789908" stroke="lightgray" x1="220.57281840184953" y1="75.79944925751981" x2="230.21529656698206" y2="112.48081979517127"></line><line stroke-width="0.5347949488789908" stroke="lightgray" x1="209.00856898536247" y1="113.11763766774844" x2="238.75602564042603" y2="201.7927369291273"></line><line stroke-width="0.9262920230896123" stroke="lightgray" x1="209.00856898536247" y1="113.11763766774844" x2="240.4409642160833" y2="138.41221204703686"></line><line stroke-width="0.7563142697932949" stroke="lightgray" x1="240.4409642160833" y1="138.41221204703686" x2="261.65413112891713" y2="193.26946916958053"></line><line stroke-width="1.691170119610923" stroke="lightgray" x1="240.4409642160833" y1="138.41221204703686" x2="230.21529656698206" y2="112.48081979517127"></line><line stroke-width="0.7563142697932949" stroke="lightgray" x1="240.4409642160833" y1="138.41221204703686" x2="238.75602564042603" y2="201.7927369291273"></line><line stroke-width="1.7737141852089096" stroke="lightgray" x1="230.21529656698206" y1="112.48081979517127" x2="261.65413112891713" y2="193.26946916958053"></line><line stroke-width="0.5347949488789908" stroke="lightgray" x1="287.25261714464506" y1="170.68740969779049" x2="261.65413112891713" y2="193.26946916958053"></line><line stroke-width="2.205016062274876" stroke="lightgray" x1="238.75602564042603" y1="201.7927369291273" x2="278.2135333477939" y2="239.06022320060657"></line><line stroke-width="0.7563142697932949" stroke="lightgray" x1="238.75602564042603" y1="201.7927369291273" x2="280.5416179723751" y2="272.0502616207849"></line><line stroke-width="1.4149344371473105" stroke="lightgray" x1="238.75602564042603" y1="201.7927369291273" x2="261.65413112891713" y2="193.26946916958053"></line><line stroke-width="0.9262920230896123" stroke="lightgray" x1="238.75602564042603" y1="201.7927369291273" x2="254.41323508589096" y2="260.52892241951446"></line><line stroke-width="1.1958378597169483" stroke="lightgray" x1="261.65413112891713" y1="193.26946916958053" x2="280.5416179723751" y2="272.0502616207849"></line><line stroke-width="1.1958378597169483" stroke="lightgray" x1="261.65413112891713" y1="193.26946916958053" x2="278.2135333477939" y2="239.06022320060657"></line><line stroke-width="0.5347949488789908" stroke="lightgray" x1="261.65413112891713" y1="193.26946916958053" x2="254.41323508589096" y2="260.52892241951446"></line><line stroke-width="1.7737141852089096" stroke="lightgray" x1="280.5416179723751" y1="272.0502616207849" x2="274.038092620516" y2="302.2029776959652"></line><line stroke-width="1.928230610042344" stroke="lightgray" x1="280.5416179723751" y1="272.0502616207849" x2="285.89525905573055" y2="340.1885060263224"></line><line stroke-width="0.9262920230896123" stroke="lightgray" x1="280.5416179723751" y1="272.0502616207849" x2="313.4091697951995" y2="272.1050469345165"></line><line stroke-width="2.001019470882468" stroke="lightgray" x1="280.5416179723751" y1="272.0502616207849" x2="278.2135333477939" y2="239.06022320060657"></line><line stroke-width="1.0695898977579816" stroke="lightgray" x1="280.5416179723751" y1="272.0502616207849" x2="294.01697074964983" y2="369.03542443493455"></line><line stroke-width="1.928230610042344" stroke="lightgray" x1="280.5416179723751" y1="272.0502616207849" x2="254.41323508589096" y2="260.52892241951446"></line><line stroke-width="0.5347949488789908" stroke="lightgray" x1="280.5416179723751" y1="272.0502616207849" x2="303.7670532324415" y2="317.1096105283059"></line><line stroke-width="1.1958378597169483" stroke="lightgray" x1="278.2135333477939" y1="239.06022320060657" x2="313.4091697951995" y2="272.1050469345165"></line><line stroke-width="0.7563142697932949" stroke="lightgray" x1="278.2135333477939" y1="239.06022320060657" x2="274.038092620516" y2="302.2029776959652"></line><line stroke-width="0.9262920230896123" stroke="lightgray" x1="254.41323508589096" y1="260.52892241951446" x2="285.89525905573055" y2="340.1885060263224"></line><line stroke-width="0.9262920230896123" stroke="lightgray" x1="254.41323508589096" y1="260.52892241951446" x2="274.038092620516" y2="302.2029776959652"></line><line stroke-width="2.205016062274876" stroke="lightgray" x1="313.4091697951995" y1="272.1050469345165" x2="303.7670532324415" y2="317.1096105283059"></line><line stroke-width="2.9776122577899478" stroke="lightgray" x1="274.038092620516" y1="302.2029776959652" x2="285.89525905573055" y2="340.1885060263224"></line><line stroke-width="2.508410656495984" stroke="lightgray" x1="274.038092620516" y1="302.2029776959652" x2="303.7670532324415" y2="317.1096105283059"></line><line stroke-width="2.3311171376795214" stroke="lightgray" x1="274.038092620516" y1="302.2029776959652" x2="294.01697074964983" y2="369.03542443493455"></line><line stroke-width="0.9262920230896123" stroke="lightgray" x1="274.038092620516" y1="302.2029776959652" x2="257.88452482259004" y2="325.329449266665"></line><line stroke-width="1.5126285395865897" stroke="lightgray" x1="274.038092620516" y1="302.2029776959652" x2="263.48098528293355" y2="344.5563031198247"></line><line stroke-width="3.2087696932739447" stroke="lightgray" x1="294.01697074964983" y1="369.03542443493455" x2="285.89525905573055" y2="340.1885060263224"></line><line stroke-width="1.928230610042344" stroke="lightgray" x1="294.01697074964983" y1="369.03542443493455" x2="276.01559282918686" y2="393.2258244150573"></line><line stroke-width="1.1958378597169483" stroke="lightgray" x1="294.01697074964983" y1="369.03542443493455" x2="276.24619234415076" y2="430.17000092461524"></line><line stroke-width="2.001019470882468" stroke="lightgray" x1="294.01697074964983" y1="369.03542443493455" x2="286.03124600184316" y2="418.3315742397782"></line><line stroke-width="0.7563142697932949" stroke="lightgray" x1="294.01697074964983" y1="369.03542443493455" x2="307.5377290204188" y2="424.8944136442923"></line><line stroke-width="2.1391797955159633" stroke="lightgray" x1="294.01697074964983" y1="369.03542443493455" x2="303.7670532324415" y2="317.1096105283059"></line><line stroke-width="0.5347949488789908" stroke="lightgray" x1="294.01697074964983" y1="369.03542443493455" x2="263.48098528293355" y2="344.5563031198247"></line><line stroke-width="1.8525840461792247" stroke="lightgray" x1="285.89525905573055" y1="340.1885060263224" x2="286.03124600184316" y2="418.3315742397782"></line><line stroke-width="1.691170119610923" stroke="lightgray" x1="285.89525905573055" y1="340.1885060263224" x2="303.7670532324415" y2="317.1096105283059"></line><line stroke-width="0.5347949488789908" stroke="lightgray" x1="285.89525905573055" y1="340.1885060263224" x2="257.88452482259004" y2="325.329449266665"></line><line stroke-width="0.7563142697932949" stroke="lightgray" x1="285.89525905573055" y1="340.1885060263224" x2="263.48098528293355" y2="344.5563031198247"></line><line stroke-width="1.1958378597169483" stroke="lightgray" x1="285.89525905573055" y1="340.1885060263224" x2="276.01559282918686" y2="393.2258244150573"></line><line stroke-width="0.5347949488789908" stroke="lightgray" x1="303.7670532324415" y1="317.1096105283059" x2="263.48098528293355" y2="344.5563031198247"></line><line stroke-width="0.5347949488789908" stroke="lightgray" x1="303.7670532324415" y1="317.1096105283059" x2="257.88452482259004" y2="325.329449266665"></line><line stroke-width="2.564786474342278" stroke="lightgray" x1="276.01559282918686" y1="393.2258244150573" x2="307.5377290204188" y2="424.8944136442923"></line><line stroke-width="1.928230610042344" stroke="lightgray" x1="276.01559282918686" y1="393.2258244150573" x2="276.24619234415076" y2="430.17000092461524"></line><line stroke-width="0.5347949488789908" stroke="lightgray" x1="276.01559282918686" y1="393.2258244150573" x2="286.03124600184316" y2="418.3315742397782"></line><line stroke-width="1.691170119610923" stroke="lightgray" x1="286.03124600184316" y1="418.3315742397782" x2="291.6389596029375" y2="475.18371848235415"></line><line stroke-width="1.8525840461792247" stroke="lightgray" x1="286.03124600184316" y1="418.3315742397782" x2="264.4258320244437" y2="482.871077063617"></line><line stroke-width="0.9262920230896123" stroke="lightgray" x1="307.5377290204188" y1="424.8944136442923" x2="291.6389596029375" y2="475.18371848235415"></line><line stroke-width="1.691170119610923" stroke="lightgray" x1="307.5377290204188" y1="424.8944136442923" x2="276.24619234415076" y2="430.17000092461524"></line><line stroke-width="1.691170119610923" stroke="lightgray" x1="276.24619234415076" y1="430.17000092461524" x2="291.6389596029375" y2="475.18371848235415"></line><line stroke-width="2.268942809379884" stroke="lightgray" x1="290.81802959159205" y1="516.814553916752" x2="264.4258320244437" y2="482.871077063617"></line><line stroke-width="1.3099747417713419" stroke="lightgray" x1="290.81802959159205" y1="516.814553916752" x2="262.72626831525696" y2="516.9152659673236"></line><line stroke-width="1.0695898977579816" stroke="lightgray" x1="290.81802959159205" y1="516.814553916752" x2="291.6389596029375" y2="475.18371848235415"></line><line stroke-width="3.16388958516679" stroke="lightgray" x1="291.6389596029375" y1="475.18371848235415" x2="264.4258320244437" y2="482.871077063617"></line><line stroke-width="0.7563142697932949" stroke="lightgray" x1="291.6389596029375" y1="475.18371848235415" x2="262.72626831525696" y2="516.9152659673236"></line><line stroke-width="1.5126285395865897" stroke="lightgray" x1="264.4258320244437" y1="482.871077063617" x2="262.72626831525696" y2="516.9152659673236"></line></g><g class="nodes"><circle r="3.547428370417819" fill="rgb(235, 243, 248)" stroke="black" stroke-width="1px" transform="translate(173.0791717581705,4.258982143218436)"></circle><circle r="3.0252570791731794" fill="rgb(233, 242, 248)" stroke="black" stroke-width="1px" transform="translate(187.16577669768978,36.84011069902693)"></circle><circle r="2.1391797955159633" fill="rgb(237, 245, 249)" stroke="black" stroke-width="1px" transform="translate(147.89713841550676,17.40054167270583)"></circle><circle r="1.8525840461792247" fill="rgb(246, 251, 252)" stroke="black" stroke-width="1px" transform="translate(198.4175528097619,-6.57046099848622)"></circle><circle r="1.0695898977579816" fill="rgb(190, 210, 230)" stroke="black" stroke-width="1px" transform="translate(199.4411816810592,54.88886174396548)"></circle><circle r="3.382340239221846" fill="rgb(159, 183, 215)" stroke="black" stroke-width="1px" transform="translate(250.00813377072862,92.05322720331219)"></circle><circle r="3.2087696932739447" fill="rgb(160, 185, 216)" stroke="black" stroke-width="1px" transform="translate(220.57281840184953,75.79944925751981)"></circle><circle r="2.829868874294621" fill="rgb(161, 186, 217)" stroke="black" stroke-width="1px" transform="translate(209.00856898536247,113.11763766774844)"></circle><circle r="3.382340239221846" fill="rgb(154, 177, 212)" stroke="black" stroke-width="1px" transform="translate(240.4409642160833,138.41221204703686)"></circle><circle r="3.2087696932739447" fill="rgb(149, 167, 207)" stroke="black" stroke-width="1px" transform="translate(230.21529656698206,112.48081979517127)"></circle><circle r="1.0695898977579816" fill="rgb(143, 151, 199)" stroke="black" stroke-width="1px" transform="translate(287.25261714464506,170.68740969779049)"></circle><circle r="2.829868874294621" fill="rgb(140, 127, 187)" stroke="black" stroke-width="1px" transform="translate(238.75602564042603,201.7927369291273)"></circle><circle r="2.6199494835426838" fill="rgb(141, 137, 192)" stroke="black" stroke-width="1px" transform="translate(261.65413112891713,193.26946916958053)"></circle><circle r="4.142503861288357" fill="rgb(138, 90, 169)" stroke="black" stroke-width="1px" transform="translate(280.5416179723751,272.0502616207849)"></circle><circle r="3.2087696932739447" fill="rgb(139, 107, 177)" stroke="black" stroke-width="1px" transform="translate(278.2135333477939,239.06022320060657)"></circle><circle r="2.829868874294621" fill="rgb(138, 92, 170)" stroke="black" stroke-width="1px" transform="translate(254.41323508589096,260.52892241951446)"></circle><circle r="2.3916757194338967" fill="rgb(138, 86, 167)" stroke="black" stroke-width="1px" transform="translate(313.4091697951995,272.1050469345165)"></circle><circle r="8.145753977648964" fill="rgb(136, 71, 159)" stroke="black" stroke-width="1px" transform="translate(274.038092620516,302.2029776959652)"></circle><circle r="6.931734781006053" fill="rgb(135, 61, 153)" stroke="black" stroke-width="1px" transform="translate(294.01697074964983,369.03542443493455)"></circle><circle r="6.050514158346359" fill="rgb(135, 63, 154)" stroke="black" stroke-width="1px" transform="translate(285.89525905573055,340.1885060263224)"></circle><circle r="5.9552245155798955" fill="rgb(137, 73, 160)" stroke="black" stroke-width="1px" transform="translate(303.7670532324415,317.1096105283059)"></circle><circle r="2.3916757194338967" fill="rgb(137, 73, 160)" stroke="black" stroke-width="1px" transform="translate(263.48098528293355,344.5563031198247)"></circle><circle r="2.1391797955159633" fill="rgb(136, 67, 156)" stroke="black" stroke-width="1px" transform="translate(257.88452482259004,325.329449266665)"></circle><circle r="5.858385142816908" fill="rgb(131, 39, 139)" stroke="black" stroke-width="1px" transform="translate(276.01559282918686,393.2258244150573)"></circle><circle r="5.453859760209659" fill="rgb(126, 28, 129)" stroke="black" stroke-width="1px" transform="translate(286.03124600184316,418.3315742397782)"></circle><circle r="5.453859760209659" fill="rgb(127, 29, 130)" stroke="black" stroke-width="1px" transform="translate(307.5377290204188,424.8944136442923)"></circle><circle r="4.410032124549752" fill="rgb(126, 27, 128)" stroke="black" stroke-width="1px" transform="translate(276.24619234415076,430.17000092461524)"></circle><circle r="7.932290981565547" fill="rgb(90, 4, 87)" stroke="black" stroke-width="1px" transform="translate(290.81802959159205,516.814553916752)"></circle><circle r="7.17502715830169" fill="rgb(108, 11, 106)" stroke="black" stroke-width="1px" transform="translate(291.6389596029375,475.18371848235415)"></circle><circle r="7.094856740835638" fill="rgb(102, 8, 99)" stroke="black" stroke-width="1px" transform="translate(264.4258320244437,482.871077063617)"></circle><circle r="4.410032124549752" fill="rgb(90, 4, 87)" stroke="black" stroke-width="1px" transform="translate(262.72626831525696,516.9152659673236)"></circle></g></g><g><text x="505" y="495" font-family="sans-serif" text-anchor="end" font-size="10px" fill="red">31 nodes</text><text x="505" y="505" font-family="sans-serif" text-anchor="end" font-size="10px" fill="red">76 edges</text></g></svg>