<svg height="512" width="512" style="border-style: solid; border-width: 1px; cursor: auto;" id="figure"><g transform="translate(24.491503178132405,72.55163626809335) scale(0.8094749058073542)"><g class="links"><line stroke-width="3.757227362243795" stroke="lightgray" x1="281.90118491157205" y1="227.31831156854278" x2="231.50032836007787" y2="286.62643971694945"></line><line stroke-width="4.7445236984879635" stroke="lightgray" x1="281.90118491157205" y1="227.31831156854278" x2="224.24562166278847" y2="213.5497756341095"></line><line stroke-width="2.5467779149406473" stroke="lightgray" x1="281.90118491157205" y1="227.31831156854278" x2="284.87837271919176" y2="167.7469905172812"></line><line stroke-width="1.6342392408235134" stroke="lightgray" x1="281.90118491157205" y1="227.31831156854278" x2="249.82373941222275" y2="172.52741249324214"></line><line stroke-width="0.8735376181690195" stroke="lightgray" x1="281.90118491157205" y1="227.31831156854278" x2="308.8794403717805" y2="195.37109693032562"></line><line stroke-width="2.2270926804505966" stroke="lightgray" x1="281.90118491157205" y1="227.31831156854278" x2="250.41651420754675" y2="218.41627217448408"></line><line stroke-width="0.8735376181690195" stroke="lightgray" x1="281.90118491157205" y1="227.31831156854278" x2="247.89295638921172" y2="196.45861712911878"></line><line stroke-width="2.470737493715435" stroke="lightgray" x1="281.90118491157205" y1="227.31831156854278" x2="257.439898168771" y2="326.7509718754659"></line><line stroke-width="1.381184247626293" stroke="lightgray" x1="281.90118491157205" y1="227.31831156854278" x2="290.5151669273576" y2="293.90556162612705"></line><line stroke-width="0.6176843734288587" stroke="lightgray" x1="281.90118491157205" y1="227.31831156854278" x2="279.87751444340256" y2="278.59486444226445"></line><line stroke-width="1.2353687468577175" stroke="lightgray" x1="281.90118491157205" y1="227.31831156854278" x2="259.11811285142613" y2="247.1259569081775"></line><line stroke-width="0.6176843734288587" stroke="lightgray" x1="281.90118491157205" y1="227.31831156854278" x2="297.57728889895753" y2="99.07693237671631"></line><line stroke-width="0.8735376181690195" stroke="lightgray" x1="281.90118491157205" y1="227.31831156854278" x2="318.3237881727158" y2="228.99886647163544"></line><line stroke-width="1.5130115369914436" stroke="lightgray" x1="281.90118491157205" y1="227.31831156854278" x2="258.79096205511684" y2="277.00504496030396"></line><line stroke-width="1.747075236338039" stroke="lightgray" x1="257.439898168771" y1="326.7509718754659" x2="231.50032836007787" y2="286.62643971694945"></line><line stroke-width="4.41114874427153" stroke="lightgray" x1="257.439898168771" y1="326.7509718754659" x2="258.79096205511684" y2="277.00504496030396"></line><line stroke-width="1.747075236338039" stroke="lightgray" x1="257.439898168771" y1="326.7509718754659" x2="214.97899589920715" y2="422.309584143289"></line><line stroke-width="3.3263321497060168" stroke="lightgray" x1="257.439898168771" y1="326.7509718754659" x2="240.1663905060151" y2="407.3328257918609"></line><line stroke-width="1.5130115369914436" stroke="lightgray" x1="257.439898168771" y1="326.7509718754659" x2="290.5151669273576" y2="293.90556162612705"></line><line stroke-width="2.962310189547786" stroke="lightgray" x1="257.439898168771" y1="326.7509718754659" x2="276.4472883009867" y2="344.96723169245587"></line><line stroke-width="1.381184247626293" stroke="lightgray" x1="257.439898168771" y1="326.7509718754659" x2="279.87751444340256" y2="278.59486444226445"></line><line stroke-width="1.5130115369914436" stroke="lightgray" x1="257.439898168771" y1="326.7509718754659" x2="273.86280913664433" y2="358.92759082036156"></line><line stroke-width="1.5130115369914436" stroke="lightgray" x1="231.50032836007787" y1="286.62643971694945" x2="284.87837271919176" y2="167.7469905172812"></line><line stroke-width="3.439121041854191" stroke="lightgray" x1="231.50032836007787" y1="286.62643971694945" x2="224.24562166278847" y2="213.5497756341095"></line><line stroke-width="1.0698607178201307" stroke="lightgray" x1="231.50032836007787" y1="286.62643971694945" x2="214.97899589920715" y2="422.309584143289"></line><line stroke-width="3.857437675705192" stroke="lightgray" x1="231.50032836007787" y1="286.62643971694945" x2="240.1663905060151" y2="407.3328257918609"></line><line stroke-width="1.381184247626293" stroke="lightgray" x1="231.50032836007787" y1="286.62643971694945" x2="194.41589271923496" y2="294.98097612357896"></line><line stroke-width="1.747075236338039" stroke="lightgray" x1="231.50032836007787" y1="286.62643971694945" x2="203.22796698569707" y2="309.553029122789"></line><line stroke-width="1.0698607178201307" stroke="lightgray" x1="231.50032836007787" y1="286.62643971694945" x2="221.48740415939207" y2="364.7410922909255"></line><line stroke-width="1.0698607178201307" stroke="lightgray" x1="231.50032836007787" y1="286.62643971694945" x2="250.41651420754675" y2="218.41627217448408"></line><line stroke-width="1.747075236338039" stroke="lightgray" x1="231.50032836007787" y1="286.62643971694945" x2="249.82373941222275" y2="172.52741249324214"></line><line stroke-width="1.0698607178201307" stroke="lightgray" x1="231.50032836007787" y1="286.62643971694945" x2="258.79096205511684" y2="277.00504496030396"></line><line stroke-width="0.8735376181690195" stroke="lightgray" x1="231.50032836007787" y1="286.62643971694945" x2="194.83983951958382" y2="279.0042908314288"></line><line stroke-width="3.149584673355083" stroke="lightgray" x1="284.87837271919176" y1="167.7469905172812" x2="224.24562166278847" y2="213.5497756341095"></line><line stroke-width="1.6342392408235134" stroke="lightgray" x1="284.87837271919176" y1="167.7469905172812" x2="249.82373941222275" y2="172.52741249324214"></line><line stroke-width="4.539034610974332" stroke="lightgray" x1="284.87837271919176" y1="167.7469905172812" x2="297.57728889895753" y2="99.07693237671631"></line><line stroke-width="0.6176843734288587" stroke="lightgray" x1="284.87837271919176" y1="167.7469905172812" x2="330.90435589851256" y2="65.00627437538795"></line><line stroke-width="1.6342392408235134" stroke="lightgray" x1="284.87837271919176" y1="167.7469905172812" x2="250.41651420754675" y2="218.41627217448408"></line><line stroke-width="0.6176843734288587" stroke="lightgray" x1="284.87837271919176" y1="167.7469905172812" x2="308.8794403717805" y2="195.37109693032562"></line><line stroke-width="0.8735376181690195" stroke="lightgray" x1="284.87837271919176" y1="167.7469905172812" x2="312.183765955004" y2="144.41848451967178"></line><line stroke-width="1.381184247626293" stroke="lightgray" x1="240.1663905060151" y1="407.3328257918609" x2="238.75199318246734" y2="484.84058961082405"></line><line stroke-width="2.5467779149406473" stroke="lightgray" x1="240.1663905060151" y1="407.3328257918609" x2="221.48740415939207" y2="364.7410922909255"></line><line stroke-width="1.0698607178201307" stroke="lightgray" x1="240.1663905060151" y1="407.3328257918609" x2="197.44141191444058" y2="496.7902432104647"></line><line stroke-width="3.0884218671442936" stroke="lightgray" x1="240.1663905060151" y1="407.3328257918609" x2="243.94834493825937" y2="448.9553580634401"></line><line stroke-width="1.8530531202865763" stroke="lightgray" x1="240.1663905060151" y1="407.3328257918609" x2="219.73000445163945" y2="471.9137955901368"></line><line stroke-width="2.830585396829115" stroke="lightgray" x1="240.1663905060151" y1="407.3328257918609" x2="214.97899589920715" y2="422.309584143289"></line><line stroke-width="1.381184247626293" stroke="lightgray" x1="240.1663905060151" y1="407.3328257918609" x2="264.7220408433177" y2="433.56839173766423"></line><line stroke-width="0.6176843734288587" stroke="lightgray" x1="240.1663905060151" y1="407.3328257918609" x2="276.4472883009867" y2="344.96723169245587"></line><line stroke-width="0.6176843734288587" stroke="lightgray" x1="240.1663905060151" y1="407.3328257918609" x2="198.44849940316544" y2="400.6842968487897"></line><line stroke-width="0.6176843734288587" stroke="lightgray" x1="224.24562166278847" y1="213.5497756341095" x2="183.80663762334078" y2="211.86984386756632"></line><line stroke-width="2.2270926804505966" stroke="lightgray" x1="224.24562166278847" y1="213.5497756341095" x2="250.41651420754675" y2="218.41627217448408"></line><line stroke-width="1.0698607178201307" stroke="lightgray" x1="224.24562166278847" y1="213.5497756341095" x2="202.96448192884773" y2="179.20667378959877"></line><line stroke-width="0.8735376181690195" stroke="lightgray" x1="224.24562166278847" y1="213.5497756341095" x2="258.79096205511684" y2="277.00504496030396"></line><line stroke-width="1.0698607178201307" stroke="lightgray" x1="224.24562166278847" y1="213.5497756341095" x2="249.82373941222275" y2="172.52741249324214"></line><line stroke-width="1.0698607178201307" stroke="lightgray" x1="224.24562166278847" y1="213.5497756341095" x2="187.5634243480111" y2="195.94613229598946"></line><line stroke-width="2.620612854507058" stroke="lightgray" x1="297.57728889895753" y1="99.07693237671631" x2="280.5593045330498" y2="55.83455282609113"></line><line stroke-width="0.6176843734288587" stroke="lightgray" x1="297.57728889895753" y1="99.07693237671631" x2="249.82373941222275" y2="172.52741249324214"></line><line stroke-width="1.381184247626293" stroke="lightgray" x1="297.57728889895753" y1="99.07693237671631" x2="333.79191175377673" y2="7.677812988313223"></line><line stroke-width="3.548326578949669" stroke="lightgray" x1="297.57728889895753" y1="99.07693237671631" x2="308.16907252987886" y2="36.348024016634064"></line><line stroke-width="0.8735376181690195" stroke="lightgray" x1="297.57728889895753" y1="99.07693237671631" x2="300.4087149579772" y2="65.04156184365628"></line><line stroke-width="0.6176843734288587" stroke="lightgray" x1="297.57728889895753" y1="99.07693237671631" x2="330.90435589851256" y2="65.00627437538795"></line><line stroke-width="3.654270033979025" stroke="lightgray" x1="214.97899589920715" y1="422.309584143289" x2="197.44141191444058" y2="496.7902432104647"></line><line stroke-width="1.0698607178201307" stroke="lightgray" x1="214.97899589920715" y1="422.309584143289" x2="198.44849940316544" y2="400.6842968487897"></line><line stroke-width="1.0698607178201307" stroke="lightgray" x1="214.97899589920715" y1="422.309584143289" x2="177.44523190103973" y2="425.50430996993333"></line><line stroke-width="1.5130115369914436" stroke="lightgray" x1="214.97899589920715" y1="422.309584143289" x2="183.68518948738785" y2="441.66124058336635"></line><line stroke-width="1.2353687468577175" stroke="lightgray" x1="214.97899589920715" y1="422.309584143289" x2="238.75199318246734" y2="484.84058961082405"></line><line stroke-width="0.6176843734288587" stroke="lightgray" x1="214.97899589920715" y1="422.309584143289" x2="189.54436409798933" y2="462.97073801404963"></line><line stroke-width="1.8530531202865763" stroke="lightgray" x1="214.97899589920715" y1="422.309584143289" x2="243.94834493825937" y2="448.9553580634401"></line><line stroke-width="1.6342392408235134" stroke="lightgray" x1="214.97899589920715" y1="422.309584143289" x2="219.73000445163945" y2="471.9137955901368"></line><line stroke-width="0.6176843734288587" stroke="lightgray" x1="214.97899589920715" y1="422.309584143289" x2="221.48740415939207" y2="364.7410922909255"></line><line stroke-width="1.6342392408235134" stroke="lightgray" x1="249.82373941222275" y1="172.52741249324214" x2="231.60681550650412" y2="138.0334867943487"></line><line stroke-width="0.8735376181690195" stroke="lightgray" x1="249.82373941222275" y1="172.52741249324214" x2="250.41651420754675" y2="218.41627217448408"></line><line stroke-width="1.381184247626293" stroke="lightgray" x1="249.82373941222275" y1="172.52741249324214" x2="248.79171002130747" y2="135.18492810038208"></line><line stroke-width="2.311163298534923" stroke="lightgray" x1="249.82373941222275" y1="172.52741249324214" x2="219.32893452168386" y2="148.0750867923359"></line><line stroke-width="0.6176843734288587" stroke="lightgray" x1="250.41651420754675" y1="218.41627217448408" x2="213.7013831430567" y2="224.75434781840974"></line><line stroke-width="0.6176843734288587" stroke="lightgray" x1="276.4472883009867" y1="344.96723169245587" x2="290.5151669273576" y2="293.90556162612705"></line><line stroke-width="0.6176843734288587" stroke="lightgray" x1="276.4472883009867" y1="344.96723169245587" x2="258.79096205511684" y2="277.00504496030396"></line><line stroke-width="2.2270926804505966" stroke="lightgray" x1="330.90435589851256" y1="65.00627437538795" x2="308.16907252987886" y2="36.348024016634064"></line><line stroke-width="1.0698607178201307" stroke="lightgray" x1="330.90435589851256" y1="65.00627437538795" x2="365.6425070206235" y2="-10.366277312779722"></line><line stroke-width="1.381184247626293" stroke="lightgray" x1="330.90435589851256" y1="65.00627437538795" x2="333.79191175377673" y2="7.677812988313223"></line><line stroke-width="1.0698607178201307" stroke="lightgray" x1="247.89295638921172" y1="196.45861712911878" x2="202.96448192884773" y2="179.20667378959877"></line><line stroke-width="2.1397214356402614" stroke="lightgray" x1="197.44141191444058" y1="496.7902432104647" x2="238.75199318246734" y2="484.84058961082405"></line><line stroke-width="2.2270926804505966" stroke="lightgray" x1="197.44141191444058" y1="496.7902432104647" x2="229.93768482520227" y2="525.6965939285875"></line><line stroke-width="1.0698607178201307" stroke="lightgray" x1="197.44141191444058" y1="496.7902432104647" x2="184.1650908975025" y2="533.4991068415275"></line><line stroke-width="1.953289495129183" stroke="lightgray" x1="197.44141191444058" y1="496.7902432104647" x2="218.51655507734407" y2="519.5154670142507"></line><line stroke-width="1.0698607178201307" stroke="lightgray" x1="197.44141191444058" y1="496.7902432104647" x2="167.9553308391043" y2="521.8609531837011"></line><line stroke-width="0.6176843734288587" stroke="lightgray" x1="197.44141191444058" y1="496.7902432104647" x2="219.73000445163945" y2="471.9137955901368"></line><line stroke-width="0.8735376181690195" stroke="lightgray" x1="197.44141191444058" y1="496.7902432104647" x2="189.54436409798933" y2="462.97073801404963"></line><line stroke-width="0.6176843734288587" stroke="lightgray" x1="308.16907252987886" y1="36.348024016634064" x2="280.5593045330498" y2="55.83455282609113"></line><line stroke-width="0.8735376181690195" stroke="lightgray" x1="308.16907252987886" y1="36.348024016634064" x2="333.79191175377673" y2="7.677812988313223"></line><line stroke-width="2.830585396829115" stroke="lightgray" x1="238.75199318246734" y1="484.84058961082405" x2="218.51655507734407" y2="519.5154670142507"></line><line stroke-width="1.2353687468577175" stroke="lightgray" x1="238.75199318246734" y1="484.84058961082405" x2="219.73000445163945" y2="471.9137955901368"></line><line stroke-width="1.0698607178201307" stroke="lightgray" x1="238.75199318246734" y1="484.84058961082405" x2="229.93768482520227" y2="525.6965939285875"></line><line stroke-width="0.6176843734288587" stroke="lightgray" x1="243.94834493825937" y1="448.9553580634401" x2="219.73000445163945" y2="471.9137955901368"></line><line stroke-width="3.0884218671442936" stroke="lightgray" x1="333.79191175377673" y1="7.677812988313223" x2="365.6425070206235" y2="-10.366277312779722"></line><line stroke-width="0.6176843734288587" stroke="lightgray" x1="333.79191175377673" y1="7.677812988313223" x2="338.0187085204447" y2="-37.9134475893408"></line><line stroke-width="0.8735376181690195" stroke="lightgray" x1="333.79191175377673" y1="7.677812988313223" x2="363.792290528563" y2="-51.53235922846213"></line><line stroke-width="1.2353687468577175" stroke="lightgray" x1="219.73000445163945" y1="471.9137955901368" x2="218.51655507734407" y2="519.5154670142507"></line><line stroke-width="2.2270926804505966" stroke="lightgray" x1="365.6425070206235" y1="-10.366277312779722" x2="338.0187085204447" y2="-37.9134475893408"></line><line stroke-width="1.6342392408235134" stroke="lightgray" x1="365.6425070206235" y1="-10.366277312779722" x2="363.792290528563" y2="-51.53235922846213"></line><line stroke-width="0.8735376181690195" stroke="lightgray" x1="365.6425070206235" y1="-10.366277312779722" x2="396.05956895929114" y2="-30.37455425191433"></line><line stroke-width="0.6176843734288587" stroke="lightgray" x1="363.792290528563" y1="-51.53235922846213" x2="377.87592800294885" y2="-85.94987411236704"></line><line stroke-width="0.8735376181690195" stroke="lightgray" x1="363.792290528563" y1="-51.53235922846213" x2="338.0187085204447" y2="-37.9134475893408"></line></g><g class="nodes"><circle r="8.647581228004022" fill="rgb(229, 245, 224)" stroke="black" stroke-width="1px" transform="translate(281.90118491157205,227.31831156854278)"></circle><circle r="8.100854612363483" fill="rgb(224, 243, 219)" stroke="black" stroke-width="1px" transform="translate(257.439898168771,326.7509718754659)"></circle><circle r="7.51445472448759" fill="rgb(228, 244, 222)" stroke="black" stroke-width="1px" transform="translate(231.50032836007787,286.62643971694945)"></circle><circle r="7.203375735322672" fill="rgb(225, 243, 220)" stroke="black" stroke-width="1px" transform="translate(284.87837271919176,167.7469905172812)"></circle><circle r="8.378678492028987" fill="rgb(202, 234, 198)" stroke="black" stroke-width="1px" transform="translate(240.1663905060151,407.3328257918609)"></circle><circle r="8.100854612363483" fill="rgb(206, 236, 202)" stroke="black" stroke-width="1px" transform="translate(224.24562166278847,213.5497756341095)"></circle><circle r="7.096653157899338" fill="rgb(202, 234, 198)" stroke="black" stroke-width="1px" transform="translate(297.57728889895753,99.07693237671631)"></circle><circle r="6.878242083708382" fill="rgb(192, 230, 193)" stroke="black" stroke-width="1px" transform="translate(214.97899589920715,422.309584143289)"></circle><circle r="5.66117079365823" fill="rgb(199, 233, 196)" stroke="black" stroke-width="1px" transform="translate(249.82373941222275,172.52741249324214)"></circle><circle r="5.524736990505172" fill="rgb(205, 236, 201)" stroke="black" stroke-width="1px" transform="translate(250.41651420754675,218.41627217448408)"></circle><circle r="5.241225709014116" fill="rgb(203, 235, 199)" stroke="black" stroke-width="1px" transform="translate(276.4472883009867,344.96723169245587)"></circle><circle r="4.94147498743087" fill="rgb(209, 237, 204)" stroke="black" stroke-width="1px" transform="translate(258.79096205511684,277.00504496030396)"></circle><circle r="2.762368495252586" fill="rgb(209, 237, 204)" stroke="black" stroke-width="1px" transform="translate(290.5151669273576,293.90556162612705)"></circle><circle r="2.762368495252586" fill="rgb(191, 230, 192)" stroke="black" stroke-width="1px" transform="translate(330.90435589851256,65.00627437538795)"></circle><circle r="1.747075236338039" fill="rgb(190, 229, 191)" stroke="black" stroke-width="1px" transform="translate(203.22796698569707,309.553029122789)"></circle><circle r="1.747075236338039" fill="rgb(201, 234, 198)" stroke="black" stroke-width="1px" transform="translate(194.41589271923496,294.98097612357896)"></circle><circle r="1.2353687468577175" fill="rgb(202, 234, 198)" stroke="black" stroke-width="1px" transform="translate(194.83983951958382,279.0042908314288)"></circle><circle r="1.2353687468577175" fill="rgb(215, 239, 209)" stroke="black" stroke-width="1px" transform="translate(308.8794403717805,195.37109693032562)"></circle><circle r="1.2353687468577175" fill="rgb(214, 239, 209)" stroke="black" stroke-width="1px" transform="translate(279.87751444340256,278.59486444226445)"></circle><circle r="1.2353687468577175" fill="rgb(209, 237, 204)" stroke="black" stroke-width="1px" transform="translate(318.3237881727158,228.99886647163544)"></circle><circle r="1.2353687468577175" fill="rgb(200, 233, 197)" stroke="black" stroke-width="1px" transform="translate(247.89295638921172,196.45861712911878)"></circle><circle r="1.2353687468577175" fill="rgb(217, 240, 211)" stroke="black" stroke-width="1px" transform="translate(273.86280913664433,358.92759082036156)"></circle><circle r="1.2353687468577175" fill="rgb(212, 238, 206)" stroke="black" stroke-width="1px" transform="translate(312.183765955004,144.41848451967178)"></circle><circle r="1.2353687468577175" fill="rgb(208, 237, 203)" stroke="black" stroke-width="1px" transform="translate(259.11811285142613,247.1259569081775)"></circle><circle r="6.176843734288587" fill="rgb(148, 213, 189)" stroke="black" stroke-width="1px" transform="translate(197.44141191444058,496.7902432104647)"></circle><circle r="5.093555829881295" fill="rgb(163, 219, 186)" stroke="black" stroke-width="1px" transform="translate(308.16907252987886,36.348024016634064)"></circle><circle r="4.622326597069846" fill="rgb(143, 211, 190)" stroke="black" stroke-width="1px" transform="translate(238.75199318246734,484.84058961082405)"></circle><circle r="3.494150472676078" fill="rgb(169, 221, 186)" stroke="black" stroke-width="1px" transform="translate(243.94834493825937,448.9553580634401)"></circle><circle r="3.494150472676078" fill="rgb(140, 210, 191)" stroke="black" stroke-width="1px" transform="translate(333.79191175377673,7.677812988313223)"></circle><circle r="3.2684784816470267" fill="rgb(162, 219, 186)" stroke="black" stroke-width="1px" transform="translate(219.73000445163945,471.9137955901368)"></circle><circle r="3.0260230739828873" fill="rgb(176, 224, 187)" stroke="black" stroke-width="1px" transform="translate(280.5593045330498,55.83455282609113)"></circle><circle r="2.1397214356402614" fill="rgb(171, 222, 186)" stroke="black" stroke-width="1px" transform="translate(221.48740415939207,364.7410922909255)"></circle><circle r="2.1397214356402614" fill="rgb(165, 220, 186)" stroke="black" stroke-width="1px" transform="translate(202.96448192884773,179.20667378959877)"></circle><circle r="1.747075236338039" fill="rgb(161, 218, 186)" stroke="black" stroke-width="1px" transform="translate(177.44523190103973,425.50430996993333)"></circle><circle r="1.747075236338039" fill="rgb(167, 221, 186)" stroke="black" stroke-width="1px" transform="translate(219.32893452168386,148.0750867923359)"></circle><circle r="1.747075236338039" fill="rgb(174, 223, 187)" stroke="black" stroke-width="1px" transform="translate(264.7220408433177,433.56839173766423)"></circle><circle r="1.2353687468577175" fill="rgb(177, 225, 187)" stroke="black" stroke-width="1px" transform="translate(183.68518948738785,441.66124058336635)"></circle><circle r="1.2353687468577175" fill="rgb(134, 208, 192)" stroke="black" stroke-width="1px" transform="translate(300.4087149579772,65.04156184365628)"></circle><circle r="1.2353687468577175" fill="rgb(164, 220, 186)" stroke="black" stroke-width="1px" transform="translate(183.80663762334078,211.86984386756632)"></circle><circle r="1.2353687468577175" fill="rgb(176, 224, 187)" stroke="black" stroke-width="1px" transform="translate(231.60681550650412,138.0334867943487)"></circle><circle r="1.2353687468577175" fill="rgb(166, 220, 186)" stroke="black" stroke-width="1px" transform="translate(213.7013831430567,224.75434781840974)"></circle><circle r="1.2353687468577175" fill="rgb(175, 224, 187)" stroke="black" stroke-width="1px" transform="translate(198.44849940316544,400.6842968487897)"></circle><circle r="1.2353687468577175" fill="rgb(165, 220, 186)" stroke="black" stroke-width="1px" transform="translate(187.5634243480111,195.94613229598946)"></circle><circle r="1.2353687468577175" fill="rgb(179, 225, 188)" stroke="black" stroke-width="1px" transform="translate(248.79171002130747,135.18492810038208)"></circle><circle r="4.09725461105859" fill="rgb(88, 183, 205)" stroke="black" stroke-width="1px" transform="translate(365.6425070206235,-10.366277312779722)"></circle><circle r="3.7061062405731526" fill="rgb(107, 194, 201)" stroke="black" stroke-width="1px" transform="translate(218.51655507734407,519.5154670142507)"></circle><circle r="2.1397214356402614" fill="rgb(89, 184, 205)" stroke="black" stroke-width="1px" transform="translate(167.9553308391043,521.8609531837011)"></circle><circle r="2.1397214356402614" fill="rgb(113, 198, 199)" stroke="black" stroke-width="1px" transform="translate(229.93768482520227,525.6965939285875)"></circle><circle r="1.2353687468577175" fill="rgb(112, 197, 200)" stroke="black" stroke-width="1px" transform="translate(184.1650908975025,533.4991068415275)"></circle><circle r="1.2353687468577175" fill="rgb(108, 195, 201)" stroke="black" stroke-width="1px" transform="translate(189.54436409798933,462.97073801404963)"></circle><circle r="2.1397214356402614" fill="rgb(46, 144, 192)" stroke="black" stroke-width="1px" transform="translate(363.792290528563,-51.53235922846213)"></circle><circle r="1.747075236338039" fill="rgb(65, 164, 202)" stroke="black" stroke-width="1px" transform="translate(338.0187085204447,-37.9134475893408)"></circle><circle r="1.747075236338039" fill="rgb(36, 133, 187)" stroke="black" stroke-width="1px" transform="translate(396.05956895929114,-30.37455425191433)"></circle><circle r="1.2353687468577175" fill="rgb(8, 64, 129)" stroke="black" stroke-width="1px" transform="translate(377.87592800294885,-85.94987411236704)"></circle></g></g><g><text x="505" y="495" font-family="sans-serif" text-anchor="end" font-size="10px" fill="red">54 nodes</text><text x="505" y="505" font-family="sans-serif" text-anchor="end" font-size="10px" fill="red">103 edges</text></g></svg>