<svg height="512" width="512" style="border-style: solid; border-width: 1px; cursor: auto;" id="figure"><g transform="translate(138.82434856358594,68.35886819414719) scale(0.5942774344224167)"><g class="links"><line stroke-width="3.4690073918294932" stroke="lightgray" x1="219.98066890615837" y1="391.44381480565136" x2="255.78809846056652" y2="307.98249024623317"></line><line stroke-width="3.2585650420763517" stroke="lightgray" x1="219.98066890615837" y1="391.44381480565136" x2="238.73371396429422" y2="358.1390869522486"></line><line stroke-width="5.117780162904981" stroke="lightgray" x1="219.98066890615837" y1="391.44381480565136" x2="187.7613646413014" y2="484.65620660139376"></line><line stroke-width="1.8813334042146859" stroke="lightgray" x1="219.98066890615837" y1="391.44381480565136" x2="230.452083106383" y2="424.48711060035606"></line><line stroke-width="0.8413578760330254" stroke="lightgray" x1="219.98066890615837" y1="391.44381480565136" x2="259.1963527638628" y2="371.29295606505656"></line><line stroke-width="1.457274588637437" stroke="lightgray" x1="219.98066890615837" y1="391.44381480565136" x2="245.36259372073235" y2="332.6208682233737"></line><line stroke-width="2.914549177274874" stroke="lightgray" x1="255.78809846056652" y1="307.98249024623317" x2="253.64242602084852" y2="255.85621732559716"></line><line stroke-width="6.008497054480679" stroke="lightgray" x1="255.78809846056652" y1="307.98249024623317" x2="285.91712310928574" y2="290.84829560618033"></line><line stroke-width="2.060897487352736" stroke="lightgray" x1="255.78809846056652" y1="307.98249024623317" x2="287.39581850830433" y2="331.57363070736324"></line><line stroke-width="2.226023703588896" stroke="lightgray" x1="255.78809846056652" y1="307.98249024623317" x2="282.96068157247475" y2="365.0794701292458"></line><line stroke-width="2.660607215585953" stroke="lightgray" x1="255.78809846056652" y1="307.98249024623317" x2="238.73371396429422" y2="358.1390869522486"></line><line stroke-width="2.060897487352736" stroke="lightgray" x1="255.78809846056652" y1="307.98249024623317" x2="259.1963527638628" y2="371.29295606505656"></line><line stroke-width="1.8813334042146859" stroke="lightgray" x1="255.78809846056652" y1="307.98249024623317" x2="245.36259372073235" y2="332.6208682233737"></line><line stroke-width="1.457274588637437" stroke="lightgray" x1="255.78809846056652" y1="307.98249024623317" x2="302.2840559151976" y2="208.9856700637191"></line><line stroke-width="1.1898597190953257" stroke="lightgray" x1="255.78809846056652" y1="307.98249024623317" x2="282.5995195514525" y2="267.7841183858103"></line><line stroke-width="4.833233027029891" stroke="lightgray" x1="238.73371396429422" y1="358.1390869522486" x2="282.96068157247475" y2="365.0794701292458"></line><line stroke-width="3.1480729117794035" stroke="lightgray" x1="238.73371396429422" y1="358.1390869522486" x2="287.39581850830433" y2="331.57363070736324"></line><line stroke-width="3.3654315041321015" stroke="lightgray" x1="238.73371396429422" y1="358.1390869522486" x2="259.1963527638628" y2="371.29295606505656"></line><line stroke-width="1.8813334042146859" stroke="lightgray" x1="238.73371396429422" y1="358.1390869522486" x2="245.36259372073235" y2="332.6208682233737"></line><line stroke-width="3.1480729117794035" stroke="lightgray" x1="238.73371396429422" y1="358.1390869522486" x2="230.452083106383" y2="424.48711060035606"></line><line stroke-width="1.457274588637437" stroke="lightgray" x1="238.73371396429422" y1="358.1390869522486" x2="203.3720723851393" y2="366.2102038179397"></line><line stroke-width="2.3797194381906515" stroke="lightgray" x1="238.73371396429422" y1="358.1390869522486" x2="285.91712310928574" y2="290.84829560618033"></line><line stroke-width="2.914549177274874" stroke="lightgray" x1="245.36259372073235" y1="332.6208682233737" x2="287.39581850830433" y2="331.57363070736324"></line><line stroke-width="2.5240736280990763" stroke="lightgray" x1="245.36259372073235" y1="332.6208682233737" x2="282.96068157247475" y2="365.0794701292458"></line><line stroke-width="2.226023703588896" stroke="lightgray" x1="245.36259372073235" y1="332.6208682233737" x2="253.64242602084852" y2="255.85621732559716"></line><line stroke-width="2.226023703588896" stroke="lightgray" x1="245.36259372073235" y1="332.6208682233737" x2="259.1963527638628" y2="371.29295606505656"></line><line stroke-width="1.6827157520660507" stroke="lightgray" x1="245.36259372073235" y1="332.6208682233737" x2="282.5995195514525" y2="267.7841183858103"></line><line stroke-width="2.5240736280990763" stroke="lightgray" x1="245.36259372073235" y1="332.6208682233737" x2="285.91712310928574" y2="290.84829560618033"></line><line stroke-width="2.060897487352736" stroke="lightgray" x1="245.36259372073235" y1="332.6208682233737" x2="230.452083106383" y2="424.48711060035606"></line><line stroke-width="3.2585650420763517" stroke="lightgray" x1="205.79559096553822" y1="449.96597954919946" x2="230.452083106383" y2="424.48711060035606"></line><line stroke-width="1.1898597190953257" stroke="lightgray" x1="285.91712310928574" y1="290.84829560618033" x2="277.73901584863745" y2="147.83298272322403"></line><line stroke-width="2.3797194381906515" stroke="lightgray" x1="285.91712310928574" y1="290.84829560618033" x2="282.96068157247475" y2="365.0794701292458"></line><line stroke-width="1.457274588637437" stroke="lightgray" x1="285.91712310928574" y1="290.84829560618033" x2="287.39581850830433" y2="331.57363070736324"></line><line stroke-width="4.290100227807375" stroke="lightgray" x1="285.91712310928574" y1="290.84829560618033" x2="331.32246064645364" y2="192.2366413195288"></line><line stroke-width="2.060897487352736" stroke="lightgray" x1="285.91712310928574" y1="290.84829560618033" x2="321.0932348594486" y2="266.2453253981426"></line><line stroke-width="1.1898597190953257" stroke="lightgray" x1="285.91712310928574" y1="290.84829560618033" x2="305.7981651326507" y2="330.8451226895936"></line><line stroke-width="2.060897487352736" stroke="lightgray" x1="285.91712310928574" y1="290.84829560618033" x2="253.64242602084852" y2="255.85621732559716"></line><line stroke-width="2.660607215585953" stroke="lightgray" x1="285.91712310928574" y1="290.84829560618033" x2="321.7908088852606" y2="299.423474221424"></line><line stroke-width="0.8413578760330254" stroke="lightgray" x1="285.91712310928574" y1="290.84829560618033" x2="259.1963527638628" y2="371.29295606505656"></line><line stroke-width="1.457274588637437" stroke="lightgray" x1="285.91712310928574" y1="290.84829560618033" x2="282.5995195514525" y2="267.7841183858103"></line><line stroke-width="1.1898597190953257" stroke="lightgray" x1="285.91712310928574" y1="290.84829560618033" x2="287.4419974800326" y2="254.43060886318972"></line><line stroke-width="2.5240736280990763" stroke="lightgray" x1="282.96068157247475" y1="365.0794701292458" x2="287.39581850830433" y2="331.57363070736324"></line><line stroke-width="1.457274588637437" stroke="lightgray" x1="282.96068157247475" y1="365.0794701292458" x2="305.7981651326507" y2="330.8451226895936"></line><line stroke-width="1.457274588637437" stroke="lightgray" x1="282.96068157247475" y1="365.0794701292458" x2="259.1963527638628" y2="371.29295606505656"></line><line stroke-width="1.1898597190953257" stroke="lightgray" x1="282.96068157247475" y1="365.0794701292458" x2="230.452083106383" y2="424.48711060035606"></line><line stroke-width="1.457274588637437" stroke="lightgray" x1="282.96068157247475" y1="365.0794701292458" x2="308.7005702510269" y2="393.7594271980541"></line><line stroke-width="1.1898597190953257" stroke="lightgray" x1="230.452083106383" y1="424.48711060035606" x2="259.1963527638628" y2="371.29295606505656"></line><line stroke-width="3.3654315041321015" stroke="lightgray" x1="230.452083106383" y1="424.48711060035606" x2="243.2407261147964" y2="459.1853099204814"></line><line stroke-width="0.8413578760330254" stroke="lightgray" x1="230.452083106383" y1="424.48711060035606" x2="187.7613646413014" y2="484.65620660139376"></line><line stroke-width="0.8413578760330254" stroke="lightgray" x1="230.452083106383" y1="424.48711060035606" x2="218.59492051026186" y2="470.64181680398525"></line><line stroke-width="0.8413578760330254" stroke="lightgray" x1="259.1963527638628" y1="371.29295606505656" x2="271.74233311360473" y2="406.2072159688426"></line><line stroke-width="1.1898597190953257" stroke="lightgray" x1="259.1963527638628" y1="371.29295606505656" x2="287.39581850830433" y2="331.57363070736324"></line><line stroke-width="3.66739395697998" stroke="lightgray" x1="187.7613646413014" y1="484.65620660139376" x2="136.63756793496466" y2="591.1894467409489"></line><line stroke-width="0.8413578760330254" stroke="lightgray" x1="187.7613646413014" y1="484.65620660139376" x2="218.59492051026186" y2="470.64181680398525"></line><line stroke-width="0.8413578760330254" stroke="lightgray" x1="287.39581850830433" y1="331.57363070736324" x2="320.5348170767642" y2="352.1117723276062"></line><line stroke-width="1.1898597190953257" stroke="lightgray" x1="287.39581850830433" y1="331.57363070736324" x2="321.0932348594486" y2="266.2453253981426"></line><line stroke-width="3.4690073918294932" stroke="lightgray" x1="253.64242602084852" y1="255.85621732559716" x2="277.73901584863745" y2="147.83298272322403"></line><line stroke-width="0.8413578760330254" stroke="lightgray" x1="253.64242602084852" y1="255.85621732559716" x2="287.4419974800326" y2="254.43060886318972"></line><line stroke-width="1.8813334042146859" stroke="lightgray" x1="282.5995195514525" y1="267.7841183858103" x2="321.0932348594486" y2="266.2453253981426"></line><line stroke-width="2.914549177274874" stroke="lightgray" x1="282.5995195514525" y1="267.7841183858103" x2="331.32246064645364" y2="192.2366413195288"></line><line stroke-width="2.060897487352736" stroke="lightgray" x1="302.2840559151976" y1="208.9856700637191" x2="331.32246064645364" y2="192.2366413195288"></line><line stroke-width="1.1898597190953257" stroke="lightgray" x1="302.2840559151976" y1="208.9856700637191" x2="341.15672559511495" y2="152.90047592907808"></line><line stroke-width="1.1898597190953257" stroke="lightgray" x1="302.2840559151976" y1="208.9856700637191" x2="314.8997431251886" y2="131.25415503146118"></line><line stroke-width="12.016994108961358" stroke="lightgray" x1="136.63756793496466" y1="591.1894467409489" x2="129.3931293637127" y2="636.1141846682051"></line><line stroke-width="3.7626668084293717" stroke="lightgray" x1="136.63756793496466" y1="591.1894467409489" x2="97.63432921504499" y2="653.3344950325024"></line><line stroke-width="0.8413578760330254" stroke="lightgray" x1="136.63756793496466" y1="591.1894467409489" x2="102.8175969922778" y2="597.7243959522249"></line><line stroke-width="1.1898597190953257" stroke="lightgray" x1="136.63756793496466" y1="591.1894467409489" x2="117.17662318811222" y2="618.737730235245"></line><line stroke-width="3.0335589630525477" stroke="lightgray" x1="331.32246064645364" y1="192.2366413195288" x2="341.15672559511495" y2="152.90047592907808"></line><line stroke-width="8.455542006982354" stroke="lightgray" x1="331.32246064645364" y1="192.2366413195288" x2="345.5640731687106" y2="122.97693344513151"></line><line stroke-width="3.3654315041321015" stroke="lightgray" x1="331.32246064645364" y1="192.2366413195288" x2="363.15490052187533" y2="132.84757852042807"></line><line stroke-width="2.226023703588896" stroke="lightgray" x1="331.32246064645364" y1="192.2366413195288" x2="314.8997431251886" y2="131.25415503146118"></line><line stroke-width="1.6827157520660507" stroke="lightgray" x1="331.32246064645364" y1="192.2366413195288" x2="317.3404618330572" y2="79.97233999888746"></line><line stroke-width="0.8413578760330254" stroke="lightgray" x1="331.32246064645364" y1="192.2366413195288" x2="321.0932348594486" y2="266.2453253981426"></line><line stroke-width="4.684482398563038" stroke="lightgray" x1="277.73901584863745" y1="147.83298272322403" x2="317.3404618330572" y2="79.97233999888746"></line><line stroke-width="9.100676889157644" stroke="lightgray" x1="277.73901584863745" y1="147.83298272322403" x2="272.65332699197194" y2="50.717944711243646"></line><line stroke-width="2.226023703588896" stroke="lightgray" x1="277.73901584863745" y1="147.83298272322403" x2="302.3330762308469" y2="165.7008944317424"></line><line stroke-width="2.660607215585953" stroke="lightgray" x1="277.73901584863745" y1="147.83298272322403" x2="243.9873331377739" y2="140.1941821587928"></line><line stroke-width="2.226023703588896" stroke="lightgray" x1="277.73901584863745" y1="147.83298272322403" x2="301.5989359433953" y2="22.848046240818924"></line><line stroke-width="1.1898597190953257" stroke="lightgray" x1="277.73901584863745" y1="147.83298272322403" x2="314.8997431251886" y2="131.25415503146118"></line><line stroke-width="1.1898597190953257" stroke="lightgray" x1="341.15672559511495" y1="152.90047592907808" x2="345.5640731687106" y2="122.97693344513151"></line><line stroke-width="9.178130855025637" stroke="lightgray" x1="341.15672559511495" y1="152.90047592907808" x2="363.15490052187533" y2="132.84757852042807"></line><line stroke-width="1.6827157520660507" stroke="lightgray" x1="341.15672559511495" y1="152.90047592907808" x2="314.8997431251886" y2="131.25415503146118"></line><line stroke-width="1.1898597190953257" stroke="lightgray" x1="341.15672559511495" y1="152.90047592907808" x2="317.3404618330572" y2="79.97233999888746"></line><line stroke-width="5.829098354549748" stroke="lightgray" x1="314.8997431251886" y1="131.25415503146118" x2="317.3404618330572" y2="79.97233999888746"></line><line stroke-width="2.3797194381906515" stroke="lightgray" x1="314.8997431251886" y1="131.25415503146118" x2="363.15490052187533" y2="132.84757852042807"></line><line stroke-width="1.1898597190953257" stroke="lightgray" x1="314.8997431251886" y1="131.25415503146118" x2="345.5640731687106" y2="122.97693344513151"></line><line stroke-width="0.8413578760330254" stroke="lightgray" x1="314.8997431251886" y1="131.25415503146118" x2="272.65332699197194" y2="50.717944711243646"></line><line stroke-width="2.914549177274874" stroke="lightgray" x1="317.3404618330572" y1="79.97233999888746" x2="312.36186428181276" y2="-3.6841408729879106"></line><line stroke-width="3.2585650420763517" stroke="lightgray" x1="317.3404618330572" y1="79.97233999888746" x2="272.65332699197194" y2="50.717944711243646"></line><line stroke-width="3.8555861534686104" stroke="lightgray" x1="317.3404618330572" y1="79.97233999888746" x2="283.213542715916" y2="-11.93655754378824"></line><line stroke-width="1.457274588637437" stroke="lightgray" x1="317.3404618330572" y1="79.97233999888746" x2="350.70936293629734" y2="67.06444769451781"></line><line stroke-width="1.457274588637437" stroke="lightgray" x1="317.3404618330572" y1="79.97233999888746" x2="276.73779916568344" y2="19.45885210421869"></line><line stroke-width="0.8413578760330254" stroke="lightgray" x1="317.3404618330572" y1="79.97233999888746" x2="345.5640731687106" y2="122.97693344513151"></line><line stroke-width="2.660607215585953" stroke="lightgray" x1="317.3404618330572" y1="79.97233999888746" x2="363.15490052187533" y2="132.84757852042807"></line><line stroke-width="0.8413578760330254" stroke="lightgray" x1="317.3404618330572" y1="79.97233999888746" x2="301.5989359433953" y2="22.848046240818924"></line><line stroke-width="2.660607215585953" stroke="lightgray" x1="272.65332699197194" y1="50.717944711243646" x2="256.9783343241291" y2="-30.46142449312431"></line><line stroke-width="2.226023703588896" stroke="lightgray" x1="272.65332699197194" y1="50.717944711243646" x2="301.5989359433953" y2="22.848046240818924"></line><line stroke-width="3.5695791572859767" stroke="lightgray" x1="272.65332699197194" y1="50.717944711243646" x2="276.73779916568344" y2="19.45885210421869"></line><line stroke-width="2.660607215585953" stroke="lightgray" x1="272.65332699197194" y1="50.717944711243646" x2="283.213542715916" y2="-11.93655754378824"></line><line stroke-width="2.5240736280990763" stroke="lightgray" x1="272.65332699197194" y1="50.717944711243646" x2="237.76149310928562" y2="-14.447521304563777"></line><line stroke-width="1.8813334042146859" stroke="lightgray" x1="129.3931293637127" y1="636.1141846682051" x2="97.63432921504499" y2="653.3344950325024"></line><line stroke-width="1.1898597190953257" stroke="lightgray" x1="363.15490052187533" y1="132.84757852042807" x2="345.5640731687106" y2="122.97693344513151"></line><line stroke-width="4.759438876381303" stroke="lightgray" x1="97.63432921504499" y1="653.3344950325024" x2="58.635882992397065" y2="702.7013856158217"></line><line stroke-width="4.206789380165127" stroke="lightgray" x1="301.5989359433953" y1="22.848046240818924" x2="322.9189084532438" y2="-53.60885195296384"></line><line stroke-width="0.8413578760330254" stroke="lightgray" x1="301.5989359433953" y1="22.848046240818924" x2="298.5504735818804" y2="-39.660704647353846"></line><line stroke-width="0.8413578760330254" stroke="lightgray" x1="301.5989359433953" y1="22.848046240818924" x2="256.9783343241291" y2="-30.46142449312431"></line><line stroke-width="0.8413578760330254" stroke="lightgray" x1="301.5989359433953" y1="22.848046240818924" x2="283.213542715916" y2="-11.93655754378824"></line><line stroke-width="1.457274588637437" stroke="lightgray" x1="58.635882992397065" y1="702.7013856158217" x2="46.30572694736445" y2="736.6649888694848"></line><line stroke-width="1.1898597190953257" stroke="lightgray" x1="58.635882992397065" y1="702.7013856158217" x2="26.95700674895502" y2="720.1591498809878"></line><line stroke-width="0.8413578760330254" stroke="lightgray" x1="283.213542715916" y1="-11.93655754378824" x2="322.9189084532438" y2="-53.60885195296384"></line><line stroke-width="2.060897487352736" stroke="lightgray" x1="283.213542715916" y1="-11.93655754378824" x2="281.90458839743155" y2="-42.28768144566917"></line><line stroke-width="0.8413578760330254" stroke="lightgray" x1="283.213542715916" y1="-11.93655754378824" x2="256.9783343241291" y2="-30.46142449312431"></line><line stroke-width="0.8413578760330254" stroke="lightgray" x1="283.213542715916" y1="-11.93655754378824" x2="262.9512313193389" y2="-75.6038597997048"></line><line stroke-width="0.8413578760330254" stroke="lightgray" x1="283.213542715916" y1="-11.93655754378824" x2="241.1924794555416" y2="-59.7176687012546"></line><line stroke-width="1.1898597190953257" stroke="lightgray" x1="283.213542715916" y1="-11.93655754378824" x2="276.73779916568344" y2="19.45885210421869"></line><line stroke-width="2.790468389211897" stroke="lightgray" x1="256.9783343241291" y1="-30.46142449312431" x2="262.9512313193389" y2="-75.6038597997048"></line><line stroke-width="4.035010624266618" stroke="lightgray" x1="256.9783343241291" y1="-30.46142449312431" x2="241.1924794555416" y2="-59.7176687012546"></line><line stroke-width="1.6827157520660507" stroke="lightgray" x1="256.9783343241291" y1="-30.46142449312431" x2="281.90458839743155" y2="-42.28768144566917"></line><line stroke-width="0.8413578760330254" stroke="lightgray" x1="256.9783343241291" y1="-30.46142449312431" x2="237.76149310928562" y2="-14.447521304563777"></line><line stroke-width="1.1898597190953257" stroke="lightgray" x1="256.9783343241291" y1="-30.46142449312431" x2="291.3731505983244" y2="-72.58751133068253"></line><line stroke-width="0.8413578760330254" stroke="lightgray" x1="276.73779916568344" y1="19.45885210421869" x2="281.90458839743155" y2="-42.28768144566917"></line><line stroke-width="0.8413578760330254" stroke="lightgray" x1="276.73779916568344" y1="19.45885210421869" x2="237.76149310928562" y2="-14.447521304563777"></line><line stroke-width="1.1898597190953257" stroke="lightgray" x1="322.9189084532438" y1="-53.60885195296384" x2="350.22158937780273" y2="-80.4622423621951"></line><line stroke-width="1.457274588637437" stroke="lightgray" x1="322.9189084532438" y1="-53.60885195296384" x2="300.6145340561063" y2="-102.98899321826812"></line><line stroke-width="0.8413578760330254" stroke="lightgray" x1="322.9189084532438" y1="-53.60885195296384" x2="291.3731505983244" y2="-72.58751133068253"></line><line stroke-width="2.060897487352736" stroke="lightgray" x1="237.76149310928562" y1="-14.447521304563777" x2="262.9512313193389" y2="-75.6038597997048"></line><line stroke-width="1.6827157520660507" stroke="lightgray" x1="237.76149310928562" y1="-14.447521304563777" x2="241.1924794555416" y2="-59.7176687012546"></line><line stroke-width="1.457274588637437" stroke="lightgray" x1="312.36186428181276" y1="-3.6841408729879106" x2="281.90458839743155" y2="-42.28768144566917"></line><line stroke-width="0.8413578760330254" stroke="lightgray" x1="312.36186428181276" y1="-3.6841408729879106" x2="291.3731505983244" y2="-72.58751133068253"></line><line stroke-width="0.8413578760330254" stroke="lightgray" x1="298.5504735818804" y1="-39.660704647353846" x2="262.9512313193389" y2="-75.6038597997048"></line><line stroke-width="1.1898597190953257" stroke="lightgray" x1="298.5504735818804" y1="-39.660704647353846" x2="291.3731505983244" y2="-72.58751133068253"></line><line stroke-width="2.226023703588896" stroke="lightgray" x1="241.1924794555416" y1="-59.7176687012546" x2="262.9512313193389" y2="-75.6038597997048"></line><line stroke-width="2.060897487352736" stroke="lightgray" x1="241.1924794555416" y1="-59.7176687012546" x2="291.3731505983244" y2="-72.58751133068253"></line><line stroke-width="3.0335589630525477" stroke="lightgray" x1="291.3731505983244" y1="-72.58751133068253" x2="262.9512313193389" y2="-75.6038597997048"></line><line stroke-width="2.226023703588896" stroke="lightgray" x1="291.3731505983244" y1="-72.58751133068253" x2="300.6145340561063" y2="-102.98899321826812"></line><line stroke-width="2.060897487352736" stroke="lightgray" x1="262.9512313193389" y1="-75.6038597997048" x2="300.6145340561063" y2="-102.98899321826812"></line><line stroke-width="1.1898597190953257" stroke="lightgray" x1="262.9512313193389" y1="-75.6038597997048" x2="281.90458839743155" y2="-42.28768144566917"></line></g><g class="nodes"><circle r="8.904094814355584" fill="rgb(234, 247, 250)" stroke="black" stroke-width="1px" transform="translate(219.98066890615837,391.44381480565136)"></circle><circle r="7.711172306937221" fill="rgb(232, 246, 248)" stroke="black" stroke-width="1px" transform="translate(255.78809846056652,307.98249024623317)"></circle><circle r="7.5253336168587435" fill="rgb(228, 245, 247)" stroke="black" stroke-width="1px" transform="translate(238.73371396429422,358.1390869522486)"></circle><circle r="6.296145823558807" fill="rgb(231, 246, 248)" stroke="black" stroke-width="1px" transform="translate(245.36259372073235,332.6208682233737)"></circle><circle r="1.6827157520660507" fill="rgb(228, 245, 247)" stroke="black" stroke-width="1px" transform="translate(205.79559096553822,449.96597954919946)"></circle><circle r="8.743647531824623" fill="rgb(200, 234, 228)" stroke="black" stroke-width="1px" transform="translate(285.91712310928574,290.84829560618033)"></circle><circle r="7.89263648279374" fill="rgb(200, 234, 228)" stroke="black" stroke-width="1px" transform="translate(282.96068157247475,365.0794701292458)"></circle><circle r="7.89263648279374" fill="rgb(200, 234, 228)" stroke="black" stroke-width="1px" transform="translate(230.452083106383,424.48711060035606)"></circle><circle r="6.067117926105095" fill="rgb(200, 234, 228)" stroke="black" stroke-width="1px" transform="translate(259.1963527638628,371.29295606505656)"></circle><circle r="5.829098354549748" fill="rgb(200, 234, 228)" stroke="black" stroke-width="1px" transform="translate(187.7613646413014,484.65620660139376)"></circle><circle r="5.580936778423794" fill="rgb(200, 234, 228)" stroke="black" stroke-width="1px" transform="translate(287.39581850830433,331.57363070736324)"></circle><circle r="5.321214431171906" fill="rgb(200, 234, 228)" stroke="black" stroke-width="1px" transform="translate(253.64242602084852,255.85621732559716)"></circle><circle r="3.7626668084293717" fill="rgb(200, 234, 228)" stroke="black" stroke-width="1px" transform="translate(282.5995195514525,267.7841183858103)"></circle><circle r="2.914549177274874" fill="rgb(200, 234, 228)" stroke="black" stroke-width="1px" transform="translate(302.2840559151976,208.9856700637191)"></circle><circle r="1.6827157520660507" fill="rgb(200, 234, 228)" stroke="black" stroke-width="1px" transform="translate(203.3720723851393,366.2102038179397)"></circle><circle r="11.034305098047735" fill="rgb(117, 200, 174)" stroke="black" stroke-width="1px" transform="translate(136.63756793496466,591.1894467409489)"></circle><circle r="10.905244458266447" fill="rgb(136, 209, 188)" stroke="black" stroke-width="1px" transform="translate(331.32246064645364,192.2366413195288)"></circle><circle r="9.061701648436966" fill="rgb(117, 200, 174)" stroke="black" stroke-width="1px" transform="translate(277.73901584863745,147.83298272322403)"></circle><circle r="6.9380147836589865" fill="rgb(110, 197, 167)" stroke="black" stroke-width="1px" transform="translate(341.15672559511495,152.90047592907808)"></circle><circle r="5.321214431171906" fill="rgb(109, 196, 167)" stroke="black" stroke-width="1px" transform="translate(314.8997431251886,131.25415503146118)"></circle><circle r="3.7626668084293717" fill="rgb(153, 216, 200)" stroke="black" stroke-width="1px" transform="translate(321.0932348594486,266.2453253981426)"></circle><circle r="3.3654315041321015" fill="rgb(153, 216, 200)" stroke="black" stroke-width="1px" transform="translate(305.7981651326507,330.8451226895936)"></circle><circle r="2.914549177274874" fill="rgb(153, 216, 200)" stroke="black" stroke-width="1px" transform="translate(243.2407261147964,459.1853099204814)"></circle><circle r="2.914549177274874" fill="rgb(153, 216, 200)" stroke="black" stroke-width="1px" transform="translate(321.7908088852606,299.423474221424)"></circle><circle r="1.6827157520660507" fill="rgb(153, 216, 200)" stroke="black" stroke-width="1px" transform="translate(320.5348170767642,352.1117723276062)"></circle><circle r="1.6827157520660507" fill="rgb(153, 216, 200)" stroke="black" stroke-width="1px" transform="translate(308.7005702510269,393.7594271980541)"></circle><circle r="1.6827157520660507" fill="rgb(153, 216, 200)" stroke="black" stroke-width="1px" transform="translate(218.59492051026186,470.64181680398525)"></circle><circle r="1.6827157520660507" fill="rgb(153, 216, 200)" stroke="black" stroke-width="1px" transform="translate(287.4419974800326,254.43060886318972)"></circle><circle r="1.6827157520660507" fill="rgb(153, 216, 200)" stroke="black" stroke-width="1px" transform="translate(271.74233311360473,406.2072159688426)"></circle><circle r="10.235560325809962" fill="rgb(76, 179, 131)" stroke="black" stroke-width="1px" transform="translate(317.3404618330572,79.97233999888746)"></circle><circle r="9.95508064150123" fill="rgb(80, 181, 136)" stroke="black" stroke-width="1px" transform="translate(272.65332699197194,50.717944711243646)"></circle><circle r="9.666466054059782" fill="rgb(95, 190, 154)" stroke="black" stroke-width="1px" transform="translate(129.3931293637127,636.1141846682051)"></circle><circle r="7.89263648279374" fill="rgb(95, 190, 153)" stroke="black" stroke-width="1px" transform="translate(363.15490052187533,132.84757852042807)"></circle><circle r="6.067117926105095" fill="rgb(104, 194, 163)" stroke="black" stroke-width="1px" transform="translate(345.5640731687106,122.97693344513151)"></circle><circle r="5.829098354549748" fill="rgb(75, 178, 129)" stroke="black" stroke-width="1px" transform="translate(97.63432921504499,653.3344950325024)"></circle><circle r="4.452047407177792" fill="rgb(66, 172, 118)" stroke="black" stroke-width="1px" transform="translate(301.5989359433953,22.848046240818924)"></circle><circle r="2.3797194381906515" fill="rgb(104, 194, 163)" stroke="black" stroke-width="1px" transform="translate(302.3330762308469,165.7008944317424)"></circle><circle r="2.3797194381906515" fill="rgb(104, 194, 163)" stroke="black" stroke-width="1px" transform="translate(243.9873331377739,140.1941821587928)"></circle><circle r="1.6827157520660507" fill="rgb(104, 194, 163)" stroke="black" stroke-width="1px" transform="translate(102.8175969922778,597.7243959522249)"></circle><circle r="1.6827157520660507" fill="rgb(104, 194, 163)" stroke="black" stroke-width="1px" transform="translate(117.17662318811222,618.737730235245)"></circle><circle r="5.829098354549748" fill="rgb(34, 140, 73)" stroke="black" stroke-width="1px" transform="translate(58.635882992397065,702.7013856158217)"></circle><circle r="5.321214431171906" fill="rgb(34, 140, 73)" stroke="black" stroke-width="1px" transform="translate(283.213542715916,-11.93655754378824)"></circle><circle r="5.048147256198153" fill="rgb(34, 140, 73)" stroke="black" stroke-width="1px" transform="translate(256.9783343241291,-30.46142449312431)"></circle><circle r="4.121794974705472" fill="rgb(34, 140, 73)" stroke="black" stroke-width="1px" transform="translate(276.73779916568344,19.45885210421869)"></circle><circle r="4.121794974705472" fill="rgb(34, 140, 73)" stroke="black" stroke-width="1px" transform="translate(322.9189084532438,-53.60885195296384)"></circle><circle r="3.7626668084293717" fill="rgb(34, 140, 73)" stroke="black" stroke-width="1px" transform="translate(237.76149310928562,-14.447521304563777)"></circle><circle r="3.3654315041321015" fill="rgb(34, 140, 73)" stroke="black" stroke-width="1px" transform="translate(312.36186428181276,-3.6841408729879106)"></circle><circle r="2.3797194381906515" fill="rgb(34, 140, 73)" stroke="black" stroke-width="1px" transform="translate(350.70936293629734,67.06444769451781)"></circle><circle r="1.6827157520660507" fill="rgb(34, 140, 73)" stroke="black" stroke-width="1px" transform="translate(298.5504735818804,-39.660704647353846)"></circle><circle r="6.067117926105095" fill="rgb(6, 107, 45)" stroke="black" stroke-width="1px" transform="translate(241.1924794555416,-59.7176687012546)"></circle><circle r="5.829098354549748" fill="rgb(0, 85, 34)" stroke="black" stroke-width="1px" transform="translate(291.3731505983244,-72.58751133068253)"></circle><circle r="5.580936778423794" fill="rgb(6, 107, 45)" stroke="black" stroke-width="1px" transform="translate(262.9512313193389,-75.6038597997048)"></circle><circle r="3.7626668084293717" fill="rgb(0, 84, 34)" stroke="black" stroke-width="1px" transform="translate(300.6145340561063,-102.98899321826812)"></circle><circle r="3.3654315041321015" fill="rgb(0, 78, 31)" stroke="black" stroke-width="1px" transform="translate(350.22158937780273,-80.4622423621951)"></circle><circle r="3.3654315041321015" fill="rgb(6, 107, 45)" stroke="black" stroke-width="1px" transform="translate(281.90458839743155,-42.28768144566917)"></circle><circle r="2.3797194381906515" fill="rgb(6, 107, 45)" stroke="black" stroke-width="1px" transform="translate(26.95700674895502,720.1591498809878)"></circle><circle r="2.3797194381906515" fill="rgb(1, 88, 36)" stroke="black" stroke-width="1px" transform="translate(46.30572694736445,736.6649888694848)"></circle></g></g><g><text x="505" y="495" font-family="sans-serif" text-anchor="end" font-size="10px" fill="red">57 nodes</text><text x="505" y="505" font-family="sans-serif" text-anchor="end" font-size="10px" fill="red">137 edges</text></g></svg>