<svg height="512" width="512" style="border-style: solid; border-width: 1px; cursor: auto;" id="figure"><g transform="translate(6.396982809180884,106.19976137972913) scale(0.861513160399266)"><g class="links"><line stroke-width="0.5803741869343892" stroke="lightgray" x1="67.11213227731545" y1="-77.65800809989446" x2="62.82377435772253" y2="-33.88407553542492"></line><line stroke-width="0.5803741869343892" stroke="lightgray" x1="67.11213227731545" y1="-77.65800809989446" x2="33.36358908194332" y2="-76.62224165855443"></line><line stroke-width="0.5803741869343892" stroke="lightgray" x1="27.861786034093534" y1="-113.25347338485409" x2="33.36358908194332" y2="-76.62224165855443"></line><line stroke-width="0.5803741869343892" stroke="lightgray" x1="62.82377435772253" y1="-33.88407553542492" x2="90.51294991156195" y2="52.4382329420403"></line><line stroke-width="1.924883416068954" stroke="lightgray" x1="62.82377435772253" y1="-33.88407553542492" x2="22.388829391745883" y2="-49.341999986543165"></line><line stroke-width="2.3929440751124558" stroke="lightgray" x1="62.82377435772253" y1="-33.88407553542492" x2="33.36358908194332" y2="-76.62224165855443"></line><line stroke-width="0.5803741869343892" stroke="lightgray" x1="62.82377435772253" y1="-33.88407553542492" x2="58.15873145944024" y2="18.748541974823468"></line><line stroke-width="2.321496747737557" stroke="lightgray" x1="22.388829391745883" y1="-49.341999986543165" x2="33.36358908194332" y2="-76.62224165855443"></line><line stroke-width="0.5803741869343892" stroke="lightgray" x1="22.388829391745883" y1="-49.341999986543165" x2="28.870696187680892" y2="-7.142096879167457"></line><line stroke-width="0.5803741869343892" stroke="lightgray" x1="33.36358908194332" y1="-76.62224165855443" x2="28.870696187680892" y2="-7.142096879167457"></line><line stroke-width="0.5803741869343892" stroke="lightgray" x1="28.870696187680892" y1="-7.142096879167457" x2="49.581206440227106" y2="84.53060336961502"></line><line stroke-width="0.5803741869343892" stroke="lightgray" x1="28.870696187680892" y1="-7.142096879167457" x2="58.15873145944024" y2="18.748541974823468"></line><line stroke-width="1.0052375791718393" stroke="lightgray" x1="58.15873145944024" y1="18.748541974823468" x2="62.232380108665545" y2="49.294839771845325"></line><line stroke-width="0.8207730464138712" stroke="lightgray" x1="58.15873145944024" y1="18.748541974823468" x2="38.182406292520795" y2="53.0855291601066"></line><line stroke-width="0.5803741869343892" stroke="lightgray" x1="58.15873145944024" y1="18.748541974823468" x2="80.81683081120592" y2="95.06174711976757"></line><line stroke-width="1.1607483738687785" stroke="lightgray" x1="38.182406292520795" y1="53.0855291601066" x2="90.51294991156195" y2="52.4382329420403"></line><line stroke-width="1.7411225608031675" stroke="lightgray" x1="38.182406292520795" y1="53.0855291601066" x2="80.81683081120592" y2="95.06174711976757"></line><line stroke-width="0.8207730464138712" stroke="lightgray" x1="38.182406292520795" y1="53.0855291601066" x2="49.581206440227106" y2="84.53060336961502"></line><line stroke-width="1.421620617871913" stroke="lightgray" x1="38.182406292520795" y1="53.0855291601066" x2="62.232380108665545" y2="49.294839771845325"></line><line stroke-width="1.421620617871913" stroke="lightgray" x1="62.232380108665545" y1="49.294839771845325" x2="90.51294991156195" y2="52.4382329420403"></line><line stroke-width="1.7411225608031675" stroke="lightgray" x1="62.232380108665545" y1="49.294839771845325" x2="80.81683081120592" y2="95.06174711976757"></line><line stroke-width="0.5803741869343892" stroke="lightgray" x1="62.232380108665545" y1="49.294839771845325" x2="49.581206440227106" y2="84.53060336961502"></line><line stroke-width="0.5803741869343892" stroke="lightgray" x1="90.51294991156195" y1="52.4382329420403" x2="122.17959581967484" y2="154.07369850460546"></line><line stroke-width="1.0052375791718393" stroke="lightgray" x1="90.51294991156195" y1="52.4382329420403" x2="80.81683081120592" y2="95.06174711976757"></line><line stroke-width="0.8207730464138712" stroke="lightgray" x1="80.81683081120592" y1="95.06174711976757" x2="97.03755334605616" y2="166.44320770913205"></line><line stroke-width="1.7411225608031675" stroke="lightgray" x1="80.81683081120592" y1="95.06174711976757" x2="49.581206440227106" y2="84.53060336961502"></line><line stroke-width="0.5803741869343892" stroke="lightgray" x1="80.81683081120592" y1="95.06174711976757" x2="86.37573008794112" y2="130.57085544770226"></line><line stroke-width="0.5803741869343892" stroke="lightgray" x1="80.81683081120592" y1="95.06174711976757" x2="115.43099654152104" y2="188.7212236257176"></line><line stroke-width="0.5803741869343892" stroke="lightgray" x1="80.81683081120592" y1="95.06174711976757" x2="122.17959581967484" y2="154.07369850460546"></line><line stroke-width="1.5355257659897061" stroke="lightgray" x1="49.581206440227106" y1="84.53060336961502" x2="97.03755334605616" y2="166.44320770913205"></line><line stroke-width="0.5803741869343892" stroke="lightgray" x1="49.581206440227106" y1="84.53060336961502" x2="86.37573008794112" y2="130.57085544770226"></line><line stroke-width="0.5803741869343892" stroke="lightgray" x1="60.500679417758285" y1="166.69457882419374" x2="97.03755334605616" y2="166.44320770913205"></line><line stroke-width="1.0052375791718393" stroke="lightgray" x1="86.37573008794112" y1="130.57085544770226" x2="97.03755334605616" y2="166.44320770913205"></line><line stroke-width="0.5803741869343892" stroke="lightgray" x1="86.37573008794112" y1="130.57085544770226" x2="136.23167432843397" y2="186.81799320643287"></line><line stroke-width="1.0052375791718393" stroke="lightgray" x1="97.03755334605616" y1="166.44320770913205" x2="107.07549072542716" y2="230.18934923378472"></line><line stroke-width="0.5803741869343892" stroke="lightgray" x1="97.03755334605616" y1="166.44320770913205" x2="138.89836289386434" y2="219.38339805924073"></line><line stroke-width="1.1607483738687785" stroke="lightgray" x1="97.03755334605616" y1="166.44320770913205" x2="115.43099654152104" y2="188.7212236257176"></line><line stroke-width="1.421620617871913" stroke="lightgray" x1="97.03755334605616" y1="166.44320770913205" x2="136.23167432843397" y2="186.81799320643287"></line><line stroke-width="0.5803741869343892" stroke="lightgray" x1="97.03755334605616" y1="166.44320770913205" x2="187.82586099502464" y2="233.5179201115289"></line><line stroke-width="0.5803741869343892" stroke="lightgray" x1="122.17959581967484" y1="154.07369850460546" x2="168.9513640165228" y2="251.99679709175928"></line><line stroke-width="1.0052375791718393" stroke="lightgray" x1="122.17959581967484" y1="154.07369850460546" x2="115.43099654152104" y2="188.7212236257176"></line><line stroke-width="0.5803741869343892" stroke="lightgray" x1="122.17959581967484" y1="154.07369850460546" x2="126.59398140118712" y2="229.73817455507626"></line><line stroke-width="1.6415460928277423" stroke="lightgray" x1="115.43099654152104" y1="188.7212236257176" x2="107.07549072542716" y2="230.18934923378472"></line><line stroke-width="1.0052375791718393" stroke="lightgray" x1="115.43099654152104" y1="188.7212236257176" x2="187.82586099502464" y2="233.5179201115289"></line><line stroke-width="1.421620617871913" stroke="lightgray" x1="115.43099654152104" y1="188.7212236257176" x2="168.19430226612403" y2="226.16490174514013"></line><line stroke-width="1.0052375791718393" stroke="lightgray" x1="115.43099654152104" y1="188.7212236257176" x2="126.59398140118712" y2="229.73817455507626"></line><line stroke-width="1.0052375791718393" stroke="lightgray" x1="115.43099654152104" y1="188.7212236257176" x2="136.23167432843397" y2="186.81799320643287"></line><line stroke-width="0.5803741869343892" stroke="lightgray" x1="136.23167432843397" y1="186.81799320643287" x2="168.9513640165228" y2="251.99679709175928"></line><line stroke-width="0.8207730464138712" stroke="lightgray" x1="136.23167432843397" y1="186.81799320643287" x2="138.89836289386434" y2="219.38339805924073"></line><line stroke-width="0.8207730464138712" stroke="lightgray" x1="136.23167432843397" y1="186.81799320643287" x2="107.07549072542716" y2="230.18934923378472"></line><line stroke-width="0.5803741869343892" stroke="lightgray" x1="136.23167432843397" y1="186.81799320643287" x2="168.19430226612403" y2="226.16490174514013"></line><line stroke-width="1.6415460928277423" stroke="lightgray" x1="126.59398140118712" y1="229.73817455507626" x2="168.9513640165228" y2="251.99679709175928"></line><line stroke-width="0.8207730464138712" stroke="lightgray" x1="126.59398140118712" y1="229.73817455507626" x2="168.19430226612403" y2="226.16490174514013"></line><line stroke-width="1.1607483738687785" stroke="lightgray" x1="126.59398140118712" y1="229.73817455507626" x2="107.07549072542716" y2="230.18934923378472"></line><line stroke-width="1.0052375791718393" stroke="lightgray" x1="126.59398140118712" y1="229.73817455507626" x2="140.84078746203895" y2="275.70340266447954"></line><line stroke-width="1.2977561343714645" stroke="lightgray" x1="107.07549072542716" y1="230.18934923378472" x2="168.9513640165228" y2="251.99679709175928"></line><line stroke-width="0.8207730464138712" stroke="lightgray" x1="107.07549072542716" y1="230.18934923378472" x2="140.84078746203895" y2="275.70340266447954"></line><line stroke-width="0.8207730464138712" stroke="lightgray" x1="107.07549072542716" y1="230.18934923378472" x2="168.19430226612403" y2="226.16490174514013"></line><line stroke-width="1.0052375791718393" stroke="lightgray" x1="168.19430226612403" y1="226.16490174514013" x2="168.9513640165228" y2="251.99679709175928"></line><line stroke-width="0.5803741869343892" stroke="lightgray" x1="168.19430226612403" y1="226.16490174514013" x2="259.7801639868236" y2="292.23166504324274"></line><line stroke-width="0.8207730464138712" stroke="lightgray" x1="138.89836289386434" y1="219.38339805924073" x2="168.9513640165228" y2="251.99679709175928"></line><line stroke-width="0.5803741869343892" stroke="lightgray" x1="138.89836289386434" y1="219.38339805924073" x2="140.84078746203895" y2="275.70340266447954"></line><line stroke-width="0.5803741869343892" stroke="lightgray" x1="138.89836289386434" y1="219.38339805924073" x2="187.82586099502464" y2="233.5179201115289"></line><line stroke-width="1.2977561343714645" stroke="lightgray" x1="168.9513640165228" y1="251.99679709175928" x2="222.43077561491035" y2="303.09565468148094"></line><line stroke-width="2.321496747737557" stroke="lightgray" x1="168.9513640165228" y1="251.99679709175928" x2="259.7801639868236" y2="292.23166504324274"></line><line stroke-width="0.8207730464138712" stroke="lightgray" x1="168.9513640165228" y1="251.99679709175928" x2="140.84078746203895" y2="275.70340266447954"></line><line stroke-width="2.0104751583436786" stroke="lightgray" x1="168.9513640165228" y1="251.99679709175928" x2="187.82586099502464" y2="233.5179201115289"></line><line stroke-width="1.7411225608031675" stroke="lightgray" x1="168.9513640165228" y1="251.99679709175928" x2="252.20959546183877" y2="308.6212338507557"></line><line stroke-width="0.8207730464138712" stroke="lightgray" x1="187.82586099502464" y1="233.5179201115289" x2="259.7801639868236" y2="292.23166504324274"></line><line stroke-width="1.1607483738687785" stroke="lightgray" x1="187.82586099502464" y1="233.5179201115289" x2="252.20959546183877" y2="308.6212338507557"></line><line stroke-width="2.3929440751124558" stroke="lightgray" x1="140.84078746203895" y1="275.70340266447954" x2="219.44306106559267" y2="326.7762923118128"></line><line stroke-width="3.433539993955417" stroke="lightgray" x1="259.7801639868236" y1="292.23166504324274" x2="321.8941741988291" y2="351.92546435414636"></line><line stroke-width="3.015712737515518" stroke="lightgray" x1="259.7801639868236" y1="292.23166504324274" x2="252.20959546183877" y2="308.6212338507557"></line><line stroke-width="3.2313867151197413" stroke="lightgray" x1="259.7801639868236" y1="292.23166504324274" x2="222.43077561491035" y2="303.09565468148094"></line><line stroke-width="1.835304325881006" stroke="lightgray" x1="259.7801639868236" y1="292.23166504324274" x2="295.31065543772064" y2="350.5860880544349"></line><line stroke-width="0.5803741869343892" stroke="lightgray" x1="259.7801639868236" y1="292.23166504324274" x2="325.93071584694803" y2="390.41751985501577"></line><line stroke-width="0.5803741869343892" stroke="lightgray" x1="259.7801639868236" y1="292.23166504324274" x2="367.93137886905987" y2="335.79066868178626"></line><line stroke-width="0.5803741869343892" stroke="lightgray" x1="259.7801639868236" y1="292.23166504324274" x2="273.3694930982699" y2="326.3811374438684"></line><line stroke-width="1.1607483738687785" stroke="lightgray" x1="259.7801639868236" y1="292.23166504324274" x2="219.44306106559267" y2="326.7762923118128"></line><line stroke-width="2.959339304363997" stroke="lightgray" x1="252.20959546183877" y1="308.6212338507557" x2="222.43077561491035" y2="303.09565468148094"></line><line stroke-width="1.7411225608031675" stroke="lightgray" x1="252.20959546183877" y1="308.6212338507557" x2="321.8941741988291" y2="351.92546435414636"></line><line stroke-width="0.5803741869343892" stroke="lightgray" x1="252.20959546183877" y1="308.6212338507557" x2="219.44306106559267" y2="326.7762923118128"></line><line stroke-width="0.5803741869343892" stroke="lightgray" x1="252.20959546183877" y1="308.6212338507557" x2="367.93137886905987" y2="335.79066868178626"></line><line stroke-width="1.5355257659897061" stroke="lightgray" x1="252.20959546183877" y1="308.6212338507557" x2="275.2565319035177" y2="364.6437927018283"></line><line stroke-width="0.5803741869343892" stroke="lightgray" x1="252.20959546183877" y1="308.6212338507557" x2="273.3694930982699" y2="326.3811374438684"></line><line stroke-width="2.1715613636359774" stroke="lightgray" x1="222.43077561491035" y1="303.09565468148094" x2="219.44306106559267" y2="326.7762923118128"></line><line stroke-width="1.0052375791718393" stroke="lightgray" x1="222.43077561491035" y1="303.09565468148094" x2="275.2565319035177" y2="364.6437927018283"></line><line stroke-width="1.0052375791718393" stroke="lightgray" x1="222.43077561491035" y1="303.09565468148094" x2="273.3694930982699" y2="326.3811374438684"></line><line stroke-width="0.5803741869343892" stroke="lightgray" x1="219.44306106559267" y1="326.7762923118128" x2="295.31065543772064" y2="350.5860880544349"></line><line stroke-width="0.5803741869343892" stroke="lightgray" x1="273.3694930982699" y1="326.3811374438684" x2="321.8941741988291" y2="351.92546435414636"></line><line stroke-width="1.835304325881006" stroke="lightgray" x1="321.8941741988291" y1="351.92546435414636" x2="367.93137886905987" y2="335.79066868178626"></line><line stroke-width="1.924883416068954" stroke="lightgray" x1="321.8941741988291" y1="351.92546435414636" x2="295.31065543772064" y2="350.5860880544349"></line><line stroke-width="2.0925688899476627" stroke="lightgray" x1="321.8941741988291" y1="351.92546435414636" x2="275.2565319035177" y2="364.6437927018283"></line><line stroke-width="0.5803741869343892" stroke="lightgray" x1="321.8941741988291" y1="351.92546435414636" x2="416.90175794201184" y2="360.02177357529905"></line><line stroke-width="1.0052375791718393" stroke="lightgray" x1="321.8941741988291" y1="351.92546435414636" x2="309.15942928139657" y2="409.756056058926"></line><line stroke-width="0.8207730464138712" stroke="lightgray" x1="321.8941741988291" y1="351.92546435414636" x2="325.93071584694803" y2="390.41751985501577"></line><line stroke-width="1.7411225608031675" stroke="lightgray" x1="321.8941741988291" y1="351.92546435414636" x2="350.12426400819083" y2="377.1388268443244"></line><line stroke-width="0.8207730464138712" stroke="lightgray" x1="321.8941741988291" y1="351.92546435414636" x2="360.09815650048904" y2="420.1387024666047"></line><line stroke-width="1.5355257659897061" stroke="lightgray" x1="295.31065543772064" y1="350.5860880544349" x2="367.93137886905987" y2="335.79066868178626"></line><line stroke-width="1.1607483738687785" stroke="lightgray" x1="295.31065543772064" y1="350.5860880544349" x2="350.12426400819083" y2="377.1388268443244"></line><line stroke-width="1.5355257659897061" stroke="lightgray" x1="295.31065543772064" y1="350.5860880544349" x2="275.2565319035177" y2="364.6437927018283"></line><line stroke-width="0.8207730464138712" stroke="lightgray" x1="295.31065543772064" y1="350.5860880544349" x2="309.15942928139657" y2="409.756056058926"></line><line stroke-width="0.8207730464138712" stroke="lightgray" x1="295.31065543772064" y1="350.5860880544349" x2="325.93071584694803" y2="390.41751985501577"></line><line stroke-width="1.1607483738687785" stroke="lightgray" x1="275.2565319035177" y1="364.6437927018283" x2="309.15942928139657" y2="409.756056058926"></line><line stroke-width="0.8207730464138712" stroke="lightgray" x1="275.2565319035177" y1="364.6437927018283" x2="350.12426400819083" y2="377.1388268443244"></line><line stroke-width="1.5355257659897061" stroke="lightgray" x1="309.15942928139657" y1="409.756056058926" x2="360.09815650048904" y2="420.1387024666047"></line><line stroke-width="1.421620617871913" stroke="lightgray" x1="309.15942928139657" y1="409.756056058926" x2="346.6357997595652" y2="451.78497530981645"></line><line stroke-width="2.0104751583436786" stroke="lightgray" x1="309.15942928139657" y1="409.756056058926" x2="325.93071584694803" y2="390.41751985501577"></line><line stroke-width="1.835304325881006" stroke="lightgray" x1="309.15942928139657" y1="409.756056058926" x2="350.12426400819083" y2="377.1388268443244"></line><line stroke-width="1.835304325881006" stroke="lightgray" x1="360.09815650048904" y1="420.1387024666047" x2="346.6357997595652" y2="451.78497530981645"></line><line stroke-width="0.5803741869343892" stroke="lightgray" x1="360.09815650048904" y1="420.1387024666047" x2="389.2913228465585" y2="450.4734216358601"></line><line stroke-width="0.5803741869343892" stroke="lightgray" x1="360.09815650048904" y1="420.1387024666047" x2="435.95020269012053" y2="424.1258625311744"></line><line stroke-width="1.5355257659897061" stroke="lightgray" x1="360.09815650048904" y1="420.1387024666047" x2="325.93071584694803" y2="390.41751985501577"></line><line stroke-width="0.8207730464138712" stroke="lightgray" x1="360.09815650048904" y1="420.1387024666047" x2="400.27655218926907" y2="412.5255589484178"></line><line stroke-width="1.1607483738687785" stroke="lightgray" x1="360.09815650048904" y1="420.1387024666047" x2="350.12426400819083" y2="377.1388268443244"></line><line stroke-width="1.7411225608031675" stroke="lightgray" x1="325.93071584694803" y1="390.41751985501577" x2="400.27655218926907" y2="412.5255589484178"></line><line stroke-width="0.8207730464138712" stroke="lightgray" x1="325.93071584694803" y1="390.41751985501577" x2="346.6357997595652" y2="451.78497530981645"></line><line stroke-width="1.0052375791718393" stroke="lightgray" x1="325.93071584694803" y1="390.41751985501577" x2="350.12426400819083" y2="377.1388268443244"></line><line stroke-width="1.5355257659897061" stroke="lightgray" x1="367.93137886905987" y1="335.79066868178626" x2="414.50500596661504" y2="380.9744183624626"></line><line stroke-width="1.7411225608031675" stroke="lightgray" x1="367.93137886905987" y1="335.79066868178626" x2="416.90175794201184" y2="360.02177357529905"></line><line stroke-width="0.5803741869343892" stroke="lightgray" x1="367.93137886905987" y1="335.79066868178626" x2="456.9278986925683" y2="367.3518220469901"></line><line stroke-width="0.5803741869343892" stroke="lightgray" x1="367.93137886905987" y1="335.79066868178626" x2="490.0830322167949" y2="369.69505984051347"></line><line stroke-width="1.6415460928277423" stroke="lightgray" x1="346.6357997595652" y1="451.78497530981645" x2="389.2913228465585" y2="450.4734216358601"></line><line stroke-width="0.5803741869343892" stroke="lightgray" x1="346.6357997595652" y1="451.78497530981645" x2="400.31365913721163" y2="460.54759839004515"></line><line stroke-width="0.5803741869343892" stroke="lightgray" x1="350.12426400819083" y1="377.1388268443244" x2="414.50500596661504" y2="380.9744183624626"></line><line stroke-width="0.5803741869343892" stroke="lightgray" x1="350.12426400819083" y1="377.1388268443244" x2="416.90175794201184" y2="360.02177357529905"></line><line stroke-width="0.8207730464138712" stroke="lightgray" x1="414.50500596661504" y1="380.9744183624626" x2="481.05529093368796" y2="416.67033454025585"></line><line stroke-width="1.5355257659897061" stroke="lightgray" x1="414.50500596661504" y1="380.9744183624626" x2="416.90175794201184" y2="360.02177357529905"></line><line stroke-width="0.5803741869343892" stroke="lightgray" x1="414.50500596661504" y1="380.9744183624626" x2="456.9278986925683" y2="367.3518220469901"></line><line stroke-width="0.8207730464138712" stroke="lightgray" x1="400.27655218926907" y1="412.5255589484178" x2="471.2248830755182" y2="400.0214006301784"></line><line stroke-width="1.6415460928277423" stroke="lightgray" x1="400.27655218926907" y1="412.5255589484178" x2="435.95020269012053" y2="424.1258625311744"></line><line stroke-width="1.6415460928277423" stroke="lightgray" x1="416.90175794201184" y1="360.02177357529905" x2="490.0830322167949" y2="369.69505984051347"></line><line stroke-width="1.5355257659897061" stroke="lightgray" x1="416.90175794201184" y1="360.02177357529905" x2="471.2248830755182" y2="400.0214006301784"></line><line stroke-width="0.5803741869343892" stroke="lightgray" x1="416.90175794201184" y1="360.02177357529905" x2="435.95020269012053" y2="424.1258625311744"></line><line stroke-width="0.5803741869343892" stroke="lightgray" x1="416.90175794201184" y1="360.02177357529905" x2="456.9278986925683" y2="367.3518220469901"></line><line stroke-width="0.5803741869343892" stroke="lightgray" x1="400.31365913721163" y1="460.54759839004515" x2="435.95020269012053" y2="424.1258625311744"></line><line stroke-width="0.5803741869343892" stroke="lightgray" x1="389.2913228465585" y1="450.4734216358601" x2="435.95020269012053" y2="424.1258625311744"></line><line stroke-width="2.529792430286587" stroke="lightgray" x1="490.0830322167949" y1="369.69505984051347" x2="456.9278986925683" y2="367.3518220469901"></line><line stroke-width="1.6415460928277423" stroke="lightgray" x1="490.0830322167949" y1="369.69505984051347" x2="520.4397216370081" y2="417.4037367298723"></line><line stroke-width="1.0052375791718393" stroke="lightgray" x1="490.0830322167949" y1="369.69505984051347" x2="546.1182216129207" y2="367.8015532343893"></line><line stroke-width="2.1715613636359774" stroke="lightgray" x1="490.0830322167949" y1="369.69505984051347" x2="517.1853376097138" y2="348.14466999731997"></line><line stroke-width="2.3929440751124558" stroke="lightgray" x1="490.0830322167949" y1="369.69505984051347" x2="471.2248830755182" y2="400.0214006301784"></line><line stroke-width="0.5803741869343892" stroke="lightgray" x1="490.0830322167949" y1="369.69505984051347" x2="543.4654754114247" y2="354.4723890481159"></line><line stroke-width="0.8207730464138712" stroke="lightgray" x1="490.0830322167949" y1="369.69505984051347" x2="435.95020269012053" y2="424.1258625311744"></line><line stroke-width="1.1607483738687785" stroke="lightgray" x1="490.0830322167949" y1="369.69505984051347" x2="531.0567954599956" y2="391.5373239453247"></line><line stroke-width="1.6415460928277423" stroke="lightgray" x1="435.95020269012053" y1="424.1258625311744" x2="481.05529093368796" y2="416.67033454025585"></line><line stroke-width="2.1715613636359774" stroke="lightgray" x1="435.95020269012053" y1="424.1258625311744" x2="471.2248830755182" y2="400.0214006301784"></line><line stroke-width="0.8207730464138712" stroke="lightgray" x1="435.95020269012053" y1="424.1258625311744" x2="456.9278986925683" y2="367.3518220469901"></line><line stroke-width="1.5355257659897061" stroke="lightgray" x1="471.2248830755182" y1="400.0214006301784" x2="481.05529093368796" y2="416.67033454025585"></line><line stroke-width="1.7411225608031675" stroke="lightgray" x1="471.2248830755182" y1="400.0214006301784" x2="456.9278986925683" y2="367.3518220469901"></line><line stroke-width="0.8207730464138712" stroke="lightgray" x1="471.2248830755182" y1="400.0214006301784" x2="531.0567954599956" y2="391.5373239453247"></line><line stroke-width="0.8207730464138712" stroke="lightgray" x1="471.2248830755182" y1="400.0214006301784" x2="520.4397216370081" y2="417.4037367298723"></line><line stroke-width="0.8207730464138712" stroke="lightgray" x1="456.9278986925683" y1="367.3518220469901" x2="481.05529093368796" y2="416.67033454025585"></line><line stroke-width="0.8207730464138712" stroke="lightgray" x1="456.9278986925683" y1="367.3518220469901" x2="517.1853376097138" y2="348.14466999731997"></line><line stroke-width="0.8207730464138712" stroke="lightgray" x1="481.05529093368796" y1="416.67033454025585" x2="531.0567954599956" y2="391.5373239453247"></line><line stroke-width="1.835304325881006" stroke="lightgray" x1="531.0567954599956" y1="391.5373239453247" x2="543.4654754114247" y2="354.4723890481159"></line><line stroke-width="2.1715613636359774" stroke="lightgray" x1="531.0567954599956" y1="391.5373239453247" x2="517.1853376097138" y2="348.14466999731997"></line><line stroke-width="1.421620617871913" stroke="lightgray" x1="531.0567954599956" y1="391.5373239453247" x2="546.1182216129207" y2="367.8015532343893"></line><line stroke-width="1.421620617871913" stroke="lightgray" x1="531.0567954599956" y1="391.5373239453247" x2="520.4397216370081" y2="417.4037367298723"></line><line stroke-width="1.421620617871913" stroke="lightgray" x1="517.1853376097138" y1="348.14466999731997" x2="543.4654754114247" y2="354.4723890481159"></line><line stroke-width="1.5355257659897061" stroke="lightgray" x1="517.1853376097138" y1="348.14466999731997" x2="546.1182216129207" y2="367.8015532343893"></line><line stroke-width="0.8207730464138712" stroke="lightgray" x1="520.4397216370081" y1="417.4037367298723" x2="552.5799506139361" y2="438.67578531300103"></line></g><g class="nodes"><circle r="2.0104751583436786" fill="rgb(246, 251, 252)" stroke="black" stroke-width="1px" transform="translate(67.11213227731545,-77.65800809989446)"></circle><circle r="1.1607483738687785" fill="rgb(240, 247, 250)" stroke="black" stroke-width="1px" transform="translate(27.861786034093534,-113.25347338485409)"></circle><circle r="3.2830921856554847" fill="rgb(233, 242, 248)" stroke="black" stroke-width="1px" transform="translate(62.82377435772253,-33.88407553542492)"></circle><circle r="3.0710515319794123" fill="rgb(235, 243, 248)" stroke="black" stroke-width="1px" transform="translate(22.388829391745883,-49.341999986543165)"></circle><circle r="3.0710515319794123" fill="rgb(236, 244, 248)" stroke="black" stroke-width="1px" transform="translate(33.36358908194332,-76.62224165855443)"></circle><circle r="1.1607483738687785" fill="rgb(190, 210, 230)" stroke="black" stroke-width="1px" transform="translate(28.870696187680892,-7.142096879167457)"></circle><circle r="1.1607483738687785" fill="rgb(168, 193, 221)" stroke="black" stroke-width="1px" transform="translate(58.15873145944024,18.748541974823468)"></circle><circle r="3.670608651762012" fill="rgb(159, 183, 215)" stroke="black" stroke-width="1px" transform="translate(38.182406292520795,53.0855291601066)"></circle><circle r="3.2830921856554847" fill="rgb(159, 184, 216)" stroke="black" stroke-width="1px" transform="translate(62.232380108665545,49.294839771845325)"></circle><circle r="3.0710515319794123" fill="rgb(161, 186, 217)" stroke="black" stroke-width="1px" transform="translate(90.51294991156195,52.4382329420403)"></circle><circle r="3.670608651762012" fill="rgb(154, 177, 212)" stroke="black" stroke-width="1px" transform="translate(80.81683081120592,95.06174711976757)"></circle><circle r="3.2830921856554847" fill="rgb(150, 169, 208)" stroke="black" stroke-width="1px" transform="translate(49.581206440227106,84.53060336961502)"></circle><circle r="1.1607483738687785" fill="rgb(143, 151, 199)" stroke="black" stroke-width="1px" transform="translate(60.500679417758285,166.69457882419374)"></circle><circle r="1.1607483738687785" fill="rgb(143, 150, 198)" stroke="black" stroke-width="1px" transform="translate(86.37573008794112,130.57085544770226)"></circle><circle r="2.321496747737557" fill="rgb(142, 142, 194)" stroke="black" stroke-width="1px" transform="translate(97.03755334605616,166.44320770913205)"></circle><circle r="1.1607483738687785" fill="rgb(141, 140, 193)" stroke="black" stroke-width="1px" transform="translate(122.17959581967484,154.07369850460546)"></circle><circle r="2.843241235743826" fill="rgb(140, 125, 186)" stroke="black" stroke-width="1px" transform="translate(115.43099654152104,188.7212236257176)"></circle><circle r="1.6415460928277423" fill="rgb(140, 127, 187)" stroke="black" stroke-width="1px" transform="translate(136.23167432843397,186.81799320643287)"></circle><circle r="2.321496747737557" fill="rgb(139, 105, 176)" stroke="black" stroke-width="1px" transform="translate(126.59398140118712,229.73817455507626)"></circle><circle r="2.0104751583436786" fill="rgb(140, 113, 180)" stroke="black" stroke-width="1px" transform="translate(107.07549072542716,230.18934923378472)"></circle><circle r="1.6415460928277423" fill="rgb(139, 107, 177)" stroke="black" stroke-width="1px" transform="translate(168.19430226612403,226.16490174514013)"></circle><circle r="1.1607483738687785" fill="rgb(139, 106, 177)" stroke="black" stroke-width="1px" transform="translate(138.89836289386434,219.38339805924073)"></circle><circle r="4.343122727271955" fill="rgb(138, 88, 168)" stroke="black" stroke-width="1px" transform="translate(168.9513640165228,251.99679709175928)"></circle><circle r="3.0710515319794123" fill="rgb(138, 92, 170)" stroke="black" stroke-width="1px" transform="translate(187.82586099502464,233.5179201115289)"></circle><circle r="2.595512268742929" fill="rgb(138, 86, 167)" stroke="black" stroke-width="1px" transform="translate(140.84078746203895,275.70340266447954)"></circle><circle r="7.786536806228788" fill="rgb(136, 69, 158)" stroke="black" stroke-width="1px" transform="translate(259.7801639868236,292.23166504324274)"></circle><circle r="6.96449024321267" fill="rgb(136, 72, 159)" stroke="black" stroke-width="1px" transform="translate(252.20959546183877,308.6212338507557)"></circle><circle r="5.5667536420338655" fill="rgb(136, 71, 159)" stroke="black" stroke-width="1px" transform="translate(222.43077561491035,303.09565468148094)"></circle><circle r="5.319217286050578" fill="rgb(137, 78, 163)" stroke="black" stroke-width="1px" transform="translate(219.44306106559267,326.7762923118128)"></circle><circle r="2.595512268742929" fill="rgb(136, 67, 157)" stroke="black" stroke-width="1px" transform="translate(273.3694930982699,326.3811374438684)"></circle><circle r="4.642993495475114" fill="rgb(134, 56, 150)" stroke="black" stroke-width="1px" transform="translate(321.8941741988291,351.92546435414636)"></circle><circle r="4.642993495475114" fill="rgb(134, 53, 148)" stroke="black" stroke-width="1px" transform="translate(295.31065543772064,350.5860880544349)"></circle><circle r="3.670608651762012" fill="rgb(135, 58, 151)" stroke="black" stroke-width="1px" transform="translate(275.2565319035177,364.6437927018283)"></circle><circle r="6.031425475031036" fill="rgb(131, 38, 138)" stroke="black" stroke-width="1px" transform="translate(309.15942928139657,409.756056058926)"></circle><circle r="4.185137779895325" fill="rgb(128, 30, 131)" stroke="black" stroke-width="1px" transform="translate(360.09815650048904,420.1387024666047)"></circle><circle r="3.849766832137908" fill="rgb(129, 33, 134)" stroke="black" stroke-width="1px" transform="translate(325.93071584694803,390.41751985501577)"></circle><circle r="3.849766832137908" fill="rgb(130, 36, 136)" stroke="black" stroke-width="1px" transform="translate(367.93137886905987,335.79066868178626)"></circle><circle r="3.2830921856554847" fill="rgb(127, 28, 130)" stroke="black" stroke-width="1px" transform="translate(346.6357997595652,451.78497530981645)"></circle><circle r="2.843241235743826" fill="rgb(132, 41, 141)" stroke="black" stroke-width="1px" transform="translate(350.12426400819083,377.1388268443244)"></circle><circle r="3.0710515319794123" fill="rgb(124, 23, 124)" stroke="black" stroke-width="1px" transform="translate(414.50500596661504,380.9744183624626)"></circle><circle r="3.0710515319794123" fill="rgb(120, 20, 120)" stroke="black" stroke-width="1px" transform="translate(400.27655218926907,412.5255589484178)"></circle><circle r="3.0710515319794123" fill="rgb(119, 19, 118)" stroke="black" stroke-width="1px" transform="translate(416.90175794201184,360.02177357529905)"></circle><circle r="1.1607483738687785" fill="rgb(118, 18, 117)" stroke="black" stroke-width="1px" transform="translate(400.31365913721163,460.54759839004515)"></circle><circle r="1.1607483738687785" fill="rgb(126, 27, 128)" stroke="black" stroke-width="1px" transform="translate(389.2913228465585,450.4734216358601)"></circle><circle r="5.686482471487652" fill="rgb(102, 8, 99)" stroke="black" stroke-width="1px" transform="translate(490.0830322167949,369.69505984051347)"></circle><circle r="4.9246382784832266" fill="rgb(110, 12, 107)" stroke="black" stroke-width="1px" transform="translate(435.95020269012053,424.1258625311744)"></circle><circle r="4.642993495475114" fill="rgb(107, 10, 104)" stroke="black" stroke-width="1px" transform="translate(471.2248830755182,400.0214006301784)"></circle><circle r="4.185137779895325" fill="rgb(105, 9, 102)" stroke="black" stroke-width="1px" transform="translate(456.9278986925683,367.3518220469901)"></circle><circle r="4.185137779895325" fill="rgb(108, 11, 105)" stroke="black" stroke-width="1px" transform="translate(481.05529093368796,416.67033454025585)"></circle><circle r="6.1421030639588245" fill="rgb(89, 4, 87)" stroke="black" stroke-width="1px" transform="translate(531.0567954599956,391.5373239453247)"></circle><circle r="5.319217286050578" fill="rgb(92, 4, 89)" stroke="black" stroke-width="1px" transform="translate(517.1853376097138,348.14466999731997)"></circle><circle r="4.185137779895325" fill="rgb(93, 5, 90)" stroke="black" stroke-width="1px" transform="translate(520.4397216370081,417.4037367298723)"></circle><circle r="2.843241235743826" fill="rgb(90, 4, 87)" stroke="black" stroke-width="1px" transform="translate(543.4654754114247,354.4723890481159)"></circle><circle r="2.595512268742929" fill="rgb(92, 5, 89)" stroke="black" stroke-width="1px" transform="translate(546.1182216129207,367.8015532343893)"></circle><circle r="2.321496747737557" fill="rgb(78, 0, 76)" stroke="black" stroke-width="1px" transform="translate(552.5799506139361,438.67578531300103)"></circle></g></g><g><text x="505" y="495" font-family="sans-serif" text-anchor="end" font-size="10px" fill="red">55 nodes</text><text x="505" y="505" font-family="sans-serif" text-anchor="end" font-size="10px" fill="red">162 edges</text></g></svg>