<svg height="512" width="512" style="border-style: solid; border-width: 1px; cursor: auto;" id="figure"><g transform="translate(18.91710286815868,29.182468806186478) scale(0.8655642147986682)"><g class="links"><line stroke-width="8.025079914308387" stroke="lightgray" x1="253.6017802031569" y1="133.50837648305824" x2="259.74351120194814" y2="94.68959120091364"></line><line stroke-width="11.553157846672322" stroke="lightgray" x1="253.6017802031569" y1="133.50837648305824" x2="251.45396240179483" y2="257.7322829451185"></line><line stroke-width="9.224456804967188" stroke="lightgray" x1="253.6017802031569" y1="133.50837648305824" x2="209.9828883929554" y2="139.23317738142921"></line><line stroke-width="6.380439965252279" stroke="lightgray" x1="253.6017802031569" y1="133.50837648305824" x2="249.26754463686655" y2="172.51842031838805"></line><line stroke-width="7.962464549956248" stroke="lightgray" x1="253.6017802031569" y1="133.50837648305824" x2="216.6867594407033" y2="179.8400054598438"></line><line stroke-width="5.6006010582864825" stroke="lightgray" x1="253.6017802031569" y1="133.50837648305824" x2="276.8624676456963" y2="101.63948175384614"></line><line stroke-width="5.068927433323474" stroke="lightgray" x1="253.6017802031569" y1="133.50837648305824" x2="217.89778332505614" y2="75.61940477937907"></line><line stroke-width="8.874148926842194" stroke="lightgray" x1="253.6017802031569" y1="133.50837648305824" x2="235.18622208952988" y2="174.61306341115323"></line><line stroke-width="8.930374297726855" stroke="lightgray" x1="253.6017802031569" y1="133.50837648305824" x2="254.29373513843626" y2="493.3347090621634"></line><line stroke-width="3.8750469449916607" stroke="lightgray" x1="253.6017802031569" y1="133.50837648305824" x2="287.8766853829217" y2="42.713280801675104"></line><line stroke-width="5.570730972996663" stroke="lightgray" x1="253.6017802031569" y1="133.50837648305824" x2="137.76534994355254" y2="13.665677845677287"></line><line stroke-width="5.388034124804005" stroke="lightgray" x1="253.6017802031569" y1="133.50837648305824" x2="205.53590559090864" y2="97.07804451296363"></line><line stroke-width="2.6471610174074462" stroke="lightgray" x1="253.6017802031569" y1="133.50837648305824" x2="409.57447718462987" y2="43.330917939192716"></line><line stroke-width="0.5776578923336161" stroke="lightgray" x1="224.4531310522508" y1="285.9840384805752" x2="251.45396240179483" y2="257.7322829451185"></line><line stroke-width="1.0005328189149751" stroke="lightgray" x1="212.47358833968477" y1="262.64327933929104" x2="251.45396240179483" y2="257.7322829451185"></line><line stroke-width="1.1553157846672322" stroke="lightgray" x1="173.51326687804803" y1="164.72613053208767" x2="216.6867594407033" y2="179.8400054598438"></line><line stroke-width="0.5776578923336161" stroke="lightgray" x1="215.54735718603752" y1="295.7578995150288" x2="251.45396240179483" y2="257.7322829451185"></line><line stroke-width="0.5776578923336161" stroke="lightgray" x1="415.5542539511644" y1="4.960177116741567" x2="409.57447718462987" y2="43.330917939192716"></line><line stroke-width="0.5776578923336161" stroke="lightgray" x1="241.0566417816401" y1="305.7821278406591" x2="251.45396240179483" y2="257.7322829451185"></line><line stroke-width="0.8169316257500571" stroke="lightgray" x1="200.2173021964108" y1="280.36661871435933" x2="251.45396240179483" y2="257.7322829451185"></line><line stroke-width="0.5776578923336161" stroke="lightgray" x1="219.11282889170292" y1="305.8964167360749" x2="251.45396240179483" y2="257.7322829451185"></line><line stroke-width="0.8169316257500571" stroke="lightgray" x1="216.63867213838628" y1="273.6878756621524" x2="251.45396240179483" y2="257.7322829451185"></line><line stroke-width="0.8169316257500571" stroke="lightgray" x1="215.70940800767605" y1="496.5809853635702" x2="254.29373513843626" y2="493.3347090621634"></line><line stroke-width="0.5776578923336161" stroke="lightgray" x1="211.71246916317955" y1="283.86495311364183" x2="251.45396240179483" y2="257.7322829451185"></line><line stroke-width="1.6338632515001141" stroke="lightgray" x1="201.4199222340028" y1="269.90727919196223" x2="251.45396240179483" y2="257.7322829451185"></line><line stroke-width="0.5776578923336161" stroke="lightgray" x1="205.07080767556064" y1="292.16734813269574" x2="251.45396240179483" y2="257.7322829451185"></line><line stroke-width="0.5776578923336161" stroke="lightgray" x1="97.65443286877183" y1="12.457869188430726" x2="137.76534994355254" y2="13.665677845677287"></line><line stroke-width="1.0005328189149751" stroke="lightgray" x1="200.83682324825722" y1="243.46453843517818" x2="251.45396240179483" y2="257.7322829451185"></line><line stroke-width="0.5776578923336161" stroke="lightgray" x1="214.68441868318823" y1="247.6259572396516" x2="251.45396240179483" y2="257.7322829451185"></line><line stroke-width="0.5776578923336161" stroke="lightgray" x1="204.14798182117755" y1="254.22821753139195" x2="251.45396240179483" y2="257.7322829451185"></line><line stroke-width="0.8169316257500571" stroke="lightgray" x1="195.7455018767757" y1="260.38577955823615" x2="251.45396240179483" y2="257.7322829451185"></line><line stroke-width="0.5776578923336161" stroke="lightgray" x1="254.57327564208884" y1="221.43317993475878" x2="251.45396240179483" y2="257.7322829451185"></line><line stroke-width="0.5776578923336161" stroke="lightgray" x1="223.3713468760097" y1="234.20692572368534" x2="251.45396240179483" y2="257.7322829451185"></line><line stroke-width="0.8169316257500571" stroke="lightgray" x1="292.9481978414469" y1="496.92450310763667" x2="254.29373513843626" y2="493.3347090621634"></line><line stroke-width="0.5776578923336161" stroke="lightgray" x1="213.67907546050176" y1="519.214580627427" x2="254.29373513843626" y2="493.3347090621634"></line><line stroke-width="0.5776578923336161" stroke="lightgray" x1="214.90408886404856" y1="507.9076377781507" x2="254.29373513843626" y2="493.3347090621634"></line><line stroke-width="0.5776578923336161" stroke="lightgray" x1="286.0026160749195" y1="267.70144566947994" x2="251.45396240179483" y2="257.7322829451185"></line><line stroke-width="1.2916823149972203" stroke="lightgray" x1="177.83616559884965" y1="113.73428822958351" x2="209.9828883929554" y2="139.23317738142921"></line><line stroke-width="1.0005328189149751" stroke="lightgray" x1="284.87783273601946" y1="2.0284564777586467" x2="287.8766853829217" y2="42.713280801675104"></line><line stroke-width="0.8169316257500571" stroke="lightgray" x1="209.5450670687745" y1="236.07137269285664" x2="251.45396240179483" y2="257.7322829451185"></line><line stroke-width="0.5776578923336161" stroke="lightgray" x1="225.99412971132247" y1="516.9761582420557" x2="254.29373513843626" y2="493.3347090621634"></line><line stroke-width="0.5776578923336161" stroke="lightgray" x1="255.6001222426349" y1="307.8964624418398" x2="251.45396240179483" y2="257.7322829451185"></line><line stroke-width="0.8169316257500571" stroke="lightgray" x1="215.16357434056357" y1="226.05994506928693" x2="251.45396240179483" y2="257.7322829451185"></line><line stroke-width="0.5776578923336161" stroke="lightgray" x1="282.80436979114165" y1="517.5932498571847" x2="254.29373513843626" y2="493.3347090621634"></line><line stroke-width="0.5776578923336161" stroke="lightgray" x1="219.57494843686962" y1="529.6607555360371" x2="254.29373513843626" y2="493.3347090621634"></line><line stroke-width="0.8169316257500571" stroke="lightgray" x1="237.10920049572982" y1="222.3004302172936" x2="251.45396240179483" y2="257.7322829451185"></line><line stroke-width="1.2916823149972203" stroke="lightgray" x1="227.30236351559023" y1="220.61282483720083" x2="251.45396240179483" y2="257.7322829451185"></line><line stroke-width="0.5776578923336161" stroke="lightgray" x1="284.6025571924497" y1="242.97926558590424" x2="251.45396240179483" y2="257.7322829451185"></line><line stroke-width="0.8169316257500571" stroke="lightgray" x1="293.577743542737" y1="508.2549285300493" x2="254.29373513843626" y2="493.3347090621634"></line><line stroke-width="0.5776578923336161" stroke="lightgray" x1="270.0171196216549" y1="289.4465255916023" x2="251.45396240179483" y2="257.7322829451185"></line><line stroke-width="0.5776578923336161" stroke="lightgray" x1="138.35086122418667" y1="-25.96223876869534" x2="137.76534994355254" y2="13.665677845677287"></line><line stroke-width="1.1553157846672322" stroke="lightgray" x1="294.7769416588948" y1="520.0030248740501" x2="254.29373513843626" y2="493.3347090621634"></line><line stroke-width="0.5776578923336161" stroke="lightgray" x1="263.2043780106375" y1="529.4531477904897" x2="254.29373513843626" y2="493.3347090621634"></line><line stroke-width="0.8169316257500571" stroke="lightgray" x1="262.2789948942592" y1="212.5842785896271" x2="251.45396240179483" y2="257.7322829451185"></line><line stroke-width="0.5776578923336161" stroke="lightgray" x1="244.74837170215727" y1="530.2119643531319" x2="254.29373513843626" y2="493.3347090621634"></line><line stroke-width="0.5776578923336161" stroke="lightgray" x1="232.99934729600096" y1="527.9288633682132" x2="254.29373513843626" y2="493.3347090621634"></line><line stroke-width="0.5776578923336161" stroke="lightgray" x1="281.1949216361716" y1="231.19308497893851" x2="251.45396240179483" y2="257.7322829451185"></line><line stroke-width="0.8169316257500571" stroke="lightgray" x1="169.2194287858241" y1="127.1557198348162" x2="209.9828883929554" y2="139.23317738142921"></line><line stroke-width="0.8169316257500571" stroke="lightgray" x1="288.2204375874468" y1="530.8355554009777" x2="254.29373513843626" y2="493.3347090621634"></line><line stroke-width="0.5776578923336161" stroke="lightgray" x1="301.168704471931" y1="3.9820168606922097" x2="287.8766853829217" y2="42.713280801675104"></line><line stroke-width="0.5776578923336161" stroke="lightgray" x1="275.92437078743785" y1="529.070035262927" x2="254.29373513843626" y2="493.3347090621634"></line><line stroke-width="0.8169316257500571" stroke="lightgray" x1="98.89702610559924" y1="-1.2121942454181356" x2="137.76534994355254" y2="13.665677845677287"></line><line stroke-width="0.5776578923336161" stroke="lightgray" x1="280.5073639297026" y1="281.3046191839425" x2="251.45396240179483" y2="257.7322829451185"></line><line stroke-width="1.1553157846672322" stroke="lightgray" x1="170.10207432945722" y1="72.97455077090402" x2="205.53590559090864" y2="97.07804451296363"></line><line stroke-width="0.5776578923336161" stroke="lightgray" x1="247.3423216076179" y1="315.2967701659093" x2="251.45396240179483" y2="257.7322829451185"></line><line stroke-width="0.5776578923336161" stroke="lightgray" x1="248.09857193226392" y1="296.24698993832493" x2="251.45396240179483" y2="257.7322829451185"></line><line stroke-width="0.8169316257500571" stroke="lightgray" x1="269.5151696492139" y1="224.96400558881882" x2="251.45396240179483" y2="257.7322829451185"></line><line stroke-width="0.8169316257500571" stroke="lightgray" x1="428.7725018287255" y1="7.565102296560813" x2="409.57447718462987" y2="43.330917939192716"></line><line stroke-width="0.5776578923336161" stroke="lightgray" x1="259.7524721593363" y1="296.0297616407955" x2="251.45396240179483" y2="257.7322829451185"></line><line stroke-width="0.5776578923336161" stroke="lightgray" x1="231.96445277944386" y1="311.61218072464976" x2="251.45396240179483" y2="257.7322829451185"></line><line stroke-width="1.0005328189149751" stroke="lightgray" x1="245.75858003863266" y1="214.2905612588799" x2="251.45396240179483" y2="257.7322829451185"></line><line stroke-width="0.5776578923336161" stroke="lightgray" x1="228.6418280004751" y1="299.7695030792686" x2="251.45396240179483" y2="257.7322829451185"></line><line stroke-width="0.5776578923336161" stroke="lightgray" x1="439.7126289451437" y1="12.696556444839898" x2="409.57447718462987" y2="43.330917939192716"></line><line stroke-width="0.8169316257500571" stroke="lightgray" x1="274.9503326385683" y1="215.26696353657704" x2="251.45396240179483" y2="257.7322829451185"></line><line stroke-width="0.8169316257500571" stroke="lightgray" x1="285.67024390108514" y1="220.2047504104719" x2="251.45396240179483" y2="257.7322829451185"></line><line stroke-width="0.8169316257500571" stroke="lightgray" x1="294.18969212908576" y1="228.47332841444512" x2="251.45396240179483" y2="257.7322829451185"></line><line stroke-width="0.5776578923336161" stroke="lightgray" x1="444.15454311792877" y1="23.019431827485167" x2="409.57447718462987" y2="43.330917939192716"></line><line stroke-width="0.5776578923336161" stroke="lightgray" x1="269.00849902749775" y1="541.1121852385398" x2="254.29373513843626" y2="493.3347090621634"></line><line stroke-width="0.5776578923336161" stroke="lightgray" x1="295.7761311982462" y1="243.92125693528996" x2="251.45396240179483" y2="257.7322829451185"></line><line stroke-width="0.5776578923336161" stroke="lightgray" x1="290.845778870873" y1="254.98847864857706" x2="251.45396240179483" y2="257.7322829451185"></line><line stroke-width="0.5776578923336161" stroke="lightgray" x1="195.47537237261244" y1="41.31291864489146" x2="217.89778332505614" y2="75.61940477937907"></line><line stroke-width="0.5776578923336161" stroke="lightgray" x1="307.097890613948" y1="248.7982673484761" x2="251.45396240179483" y2="257.7322829451185"></line><line stroke-width="0.5776578923336161" stroke="lightgray" x1="450.22994304081726" y1="42.927116985275774" x2="409.57447718462987" y2="43.330917939192716"></line><line stroke-width="0.5776578923336161" stroke="lightgray" x1="253.960985445841" y1="537.4498948025752" x2="254.29373513843626" y2="493.3347090621634"></line><line stroke-width="0.5776578923336161" stroke="lightgray" x1="247.2954923118768" y1="547.4151237558214" x2="254.29373513843626" y2="493.3347090621634"></line><line stroke-width="0.5776578923336161" stroke="lightgray" x1="304.2262316530288" y1="258.30260558921543" x2="251.45396240179483" y2="257.7322829451185"></line><line stroke-width="0.5776578923336161" stroke="lightgray" x1="447.5240502785767" y1="55.408868143619785" x2="409.57447718462987" y2="43.330917939192716"></line><line stroke-width="0.5776578923336161" stroke="lightgray" x1="123.9447213081366" y1="-25.22313055142583" x2="137.76534994355254" y2="13.665677845677287"></line><line stroke-width="0.5776578923336161" stroke="lightgray" x1="314.6975950829527" y1="13.084621439756292" x2="287.8766853829217" y2="42.713280801675104"></line><line stroke-width="0.8169316257500571" stroke="lightgray" x1="104.50265060149758" y1="-11.83784346527486" x2="137.76534994355254" y2="13.665677845677287"></line><line stroke-width="0.5776578923336161" stroke="lightgray" x1="237.36124746857834" y1="542.6863479811167" x2="254.29373513843626" y2="493.3347090621634"></line><line stroke-width="0.5776578923336161" stroke="lightgray" x1="297.5785037455093" y1="267.59886083900176" x2="251.45396240179483" y2="257.7322829451185"></line><line stroke-width="0.8169316257500571" stroke="lightgray" x1="279.8435295864775" y1="540.8065243540202" x2="254.29373513843626" y2="493.3347090621634"></line><line stroke-width="0.8169316257500571" stroke="lightgray" x1="451.74374187420506" y1="31.21727447110058" x2="409.57447718462987" y2="43.330917939192716"></line><line stroke-width="0.5776578923336161" stroke="lightgray" x1="293.36886005966534" y1="279.48391291141667" x2="251.45396240179483" y2="257.7322829451185"></line><line stroke-width="0.8169316257500571" stroke="lightgray" x1="112.96566666421283" y1="-20.202803183283454" x2="137.76534994355254" y2="13.665677845677287"></line><line stroke-width="0.5776578923336161" stroke="lightgray" x1="288.499576923143" y1="290.6034253282861" x2="251.45396240179483" y2="257.7322829451185"></line><line stroke-width="0.5776578923336161" stroke="lightgray" x1="278.9481974055421" y1="298.03058014084746" x2="251.45396240179483" y2="257.7322829451185"></line><line stroke-width="0.8169316257500571" stroke="lightgray" x1="303.1727095817768" y1="236.24430664596827" x2="251.45396240179483" y2="257.7322829451185"></line><line stroke-width="0.5776578923336161" stroke="lightgray" x1="309.3965649878986" y1="267.7612383861533" x2="251.45396240179483" y2="257.7322829451185"></line><line stroke-width="0.5776578923336161" stroke="lightgray" x1="260.2265637742556" y1="548.1124562015376" x2="254.29373513843626" y2="493.3347090621634"></line><line stroke-width="0.5776578923336161" stroke="lightgray" x1="269.2360131160003" y1="305.53362567956407" x2="251.45396240179483" y2="257.7322829451185"></line><line stroke-width="0.5776578923336161" stroke="lightgray" x1="305.76040081517885" y1="279.6324649200361" x2="251.45396240179483" y2="257.7322829451185"></line><line stroke-width="0.5776578923336161" stroke="lightgray" x1="226.7063567305414" y1="538.8165089076963" x2="254.29373513843626" y2="493.3347090621634"></line><line stroke-width="0.5776578923336161" stroke="lightgray" x1="236.56761701564403" y1="291.38917923647153" x2="251.45396240179483" y2="257.7322829451185"></line><line stroke-width="0.5776578923336161" stroke="lightgray" x1="300.4293706924009" y1="290.2971964281337" x2="251.45396240179483" y2="257.7322829451185"></line><line stroke-width="0.5776578923336161" stroke="lightgray" x1="213.46943771251796" y1="34.72780343140762" x2="217.89778332505614" y2="75.61940477937907"></line><line stroke-width="0.5776578923336161" stroke="lightgray" x1="291.72126217932964" y1="301.2656218869146" x2="251.45396240179483" y2="257.7322829451185"></line><line stroke-width="0.5776578923336161" stroke="lightgray" x1="253.26006639103332" y1="388.007883496091" x2="254.29373513843626" y2="493.3347090621634"></line><line stroke-width="0.5776578923336161" stroke="lightgray" x1="253.26006639103332" y1="388.007883496091" x2="251.45396240179483" y2="257.7322829451185"></line><line stroke-width="0.5776578923336161" stroke="lightgray" x1="280.1272461850484" y1="309.24670743619345" x2="251.45396240179483" y2="257.7322829451185"></line><line stroke-width="0.5776578923336161" stroke="lightgray" x1="264.07737063170555" y1="314.68668035699676" x2="251.45396240179483" y2="257.7322829451185"></line><line stroke-width="1.5283391259884729" stroke="lightgray" x1="251.45396240179483" y1="257.7322829451185" x2="216.6867594407033" y2="179.8400054598438"></line><line stroke-width="2.082775150485309" stroke="lightgray" x1="251.45396240179483" y1="257.7322829451185" x2="209.9828883929554" y2="139.23317738142921"></line><line stroke-width="2.2372593968133723" stroke="lightgray" x1="251.45396240179483" y1="257.7322829451185" x2="235.18622208952988" y2="174.61306341115323"></line><line stroke-width="0.5776578923336161" stroke="lightgray" x1="251.45396240179483" y1="257.7322829451185" x2="249.26754463686655" y2="172.51842031838805"></line><line stroke-width="0.5776578923336161" stroke="lightgray" x1="205.53590559090864" y1="97.07804451296363" x2="209.9828883929554" y2="139.23317738142921"></line><line stroke-width="0.5776578923336161" stroke="lightgray" x1="217.89778332505614" y1="75.61940477937907" x2="209.9828883929554" y2="139.23317738142921"></line><line stroke-width="0.5776578923336161" stroke="lightgray" x1="235.18622208952988" y1="174.61306341115323" x2="209.9828883929554" y2="139.23317738142921"></line><line stroke-width="0.5776578923336161" stroke="lightgray" x1="249.26754463686655" y1="172.51842031838805" x2="209.9828883929554" y2="139.23317738142921"></line></g><g class="nodes"><circle r="23.106315693344644" fill="rgb(255, 251, 193)" stroke="black" stroke-width="1px" transform="translate(253.6017802031569,133.50837648305824)"></circle><circle r="1.1553157846672322" fill="rgb(255, 255, 204)" stroke="black" stroke-width="1px" transform="translate(224.4531310522508,285.9840384805752)"></circle><circle r="2.3106315693344643" fill="rgb(255, 252, 198)" stroke="black" stroke-width="1px" transform="translate(212.47358833968477,262.64327933929104)"></circle><circle r="4.901589754500342" fill="rgb(255, 251, 194)" stroke="black" stroke-width="1px" transform="translate(173.51326687804803,164.72613053208767)"></circle><circle r="2.5833646299944406" fill="rgb(255, 251, 195)" stroke="black" stroke-width="1px" transform="translate(215.54735718603752,295.7578995150288)"></circle><circle r="1.1553157846672322" fill="rgb(255, 254, 202)" stroke="black" stroke-width="1px" transform="translate(415.5542539511644,4.960177116741567)"></circle><circle r="1.6338632515001141" fill="rgb(255, 253, 199)" stroke="black" stroke-width="1px" transform="translate(241.0566417816401,305.7821278406591)"></circle><circle r="1.6338632515001141" fill="rgb(255, 254, 201)" stroke="black" stroke-width="1px" transform="translate(200.2173021964108,280.36661871435933)"></circle><circle r="3.0566782519769458" fill="rgb(255, 251, 194)" stroke="black" stroke-width="1px" transform="translate(219.11282889170292,305.8964167360749)"></circle><circle r="1.6338632515001141" fill="rgb(255, 254, 201)" stroke="black" stroke-width="1px" transform="translate(216.63867213838628,273.6878756621524)"></circle><circle r="2.0010656378299503" fill="rgb(255, 253, 199)" stroke="black" stroke-width="1px" transform="translate(215.70940800767605,496.5809853635702)"></circle><circle r="2.3106315693344643" fill="rgb(255, 252, 196)" stroke="black" stroke-width="1px" transform="translate(211.71246916317955,283.86495311364183)"></circle><circle r="2.3106315693344643" fill="rgb(255, 253, 198)" stroke="black" stroke-width="1px" transform="translate(201.4199222340028,269.90727919196223)"></circle><circle r="2.5833646299944406" fill="rgb(255, 251, 195)" stroke="black" stroke-width="1px" transform="translate(205.07080767556064,292.16734813269574)"></circle><circle r="1.1553157846672322" fill="rgb(255, 255, 204)" stroke="black" stroke-width="1px" transform="translate(97.65443286877183,12.457869188430726)"></circle><circle r="2.3106315693344643" fill="rgb(255, 253, 199)" stroke="black" stroke-width="1px" transform="translate(200.83682324825722,243.46453843517818)"></circle><circle r="1.1553157846672322" fill="rgb(255, 255, 203)" stroke="black" stroke-width="1px" transform="translate(214.68441868318823,247.6259572396516)"></circle><circle r="1.1553157846672322" fill="rgb(255, 255, 204)" stroke="black" stroke-width="1px" transform="translate(204.14798182117755,254.22821753139195)"></circle><circle r="1.6338632515001141" fill="rgb(255, 254, 201)" stroke="black" stroke-width="1px" transform="translate(195.7455018767757,260.38577955823615)"></circle><circle r="1.1553157846672322" fill="rgb(255, 255, 204)" stroke="black" stroke-width="1px" transform="translate(254.57327564208884,221.43317993475878)"></circle><circle r="1.1553157846672322" fill="rgb(255, 255, 203)" stroke="black" stroke-width="1px" transform="translate(223.3713468760097,234.20692572368534)"></circle><circle r="1.6338632515001141" fill="rgb(255, 253, 200)" stroke="black" stroke-width="1px" transform="translate(292.9481978414469,496.92450310763667)"></circle><circle r="1.1553157846672322" fill="rgb(255, 255, 203)" stroke="black" stroke-width="1px" transform="translate(213.67907546050176,519.214580627427)"></circle><circle r="1.1553157846672322" fill="rgb(255, 255, 203)" stroke="black" stroke-width="1px" transform="translate(214.90408886404856,507.9076377781507)"></circle><circle r="1.1553157846672322" fill="rgb(255, 255, 204)" stroke="black" stroke-width="1px" transform="translate(286.0026160749195,267.70144566947994)"></circle><circle r="2.5833646299944406" fill="rgb(255, 252, 197)" stroke="black" stroke-width="1px" transform="translate(177.83616559884965,113.73428822958351)"></circle><circle r="2.0010656378299503" fill="rgb(255, 253, 199)" stroke="black" stroke-width="1px" transform="translate(284.87783273601946,2.0284564777586467)"></circle><circle r="1.6338632515001141" fill="rgb(255, 253, 200)" stroke="black" stroke-width="1px" transform="translate(209.5450670687745,236.07137269285664)"></circle><circle r="1.1553157846672322" fill="rgb(255, 255, 203)" stroke="black" stroke-width="1px" transform="translate(225.99412971132247,516.9761582420557)"></circle><circle r="1.1553157846672322" fill="rgb(255, 255, 204)" stroke="black" stroke-width="1px" transform="translate(255.6001222426349,307.8964624418398)"></circle><circle r="1.1553157846672322" fill="rgb(255, 255, 203)" stroke="black" stroke-width="1px" transform="translate(215.16357434056357,226.05994506928693)"></circle><circle r="1.1553157846672322" fill="rgb(255, 255, 203)" stroke="black" stroke-width="1px" transform="translate(282.80436979114165,517.5932498571847)"></circle><circle r="1.6338632515001141" fill="rgb(255, 253, 199)" stroke="black" stroke-width="1px" transform="translate(219.57494843686962,529.6607555360371)"></circle><circle r="1.1553157846672322" fill="rgb(255, 254, 202)" stroke="black" stroke-width="1px" transform="translate(237.10920049572982,222.3004302172936)"></circle><circle r="2.5833646299944406" fill="rgb(255, 252, 197)" stroke="black" stroke-width="1px" transform="translate(227.30236351559023,220.61282483720083)"></circle><circle r="1.1553157846672322" fill="rgb(255, 255, 204)" stroke="black" stroke-width="1px" transform="translate(284.6025571924497,242.97926558590424)"></circle><circle r="1.6338632515001141" fill="rgb(255, 253, 200)" stroke="black" stroke-width="1px" transform="translate(293.577743542737,508.2549285300493)"></circle><circle r="1.6338632515001141" fill="rgb(255, 253, 200)" stroke="black" stroke-width="1px" transform="translate(270.0171196216549,289.4465255916023)"></circle><circle r="1.1553157846672322" fill="rgb(255, 255, 204)" stroke="black" stroke-width="1px" transform="translate(138.35086122418667,-25.96223876869534)"></circle><circle r="2.0010656378299503" fill="rgb(255, 252, 197)" stroke="black" stroke-width="1px" transform="translate(294.7769416588948,520.0030248740501)"></circle><circle r="1.1553157846672322" fill="rgb(255, 255, 203)" stroke="black" stroke-width="1px" transform="translate(263.2043780106375,529.4531477904897)"></circle><circle r="1.1553157846672322" fill="rgb(255, 254, 202)" stroke="black" stroke-width="1px" transform="translate(262.2789948942592,212.5842785896271)"></circle><circle r="1.1553157846672322" fill="rgb(255, 255, 203)" stroke="black" stroke-width="1px" transform="translate(244.74837170215727,530.2119643531319)"></circle><circle r="1.1553157846672322" fill="rgb(255, 255, 203)" stroke="black" stroke-width="1px" transform="translate(232.99934729600096,527.9288633682132)"></circle><circle r="1.1553157846672322" fill="rgb(255, 255, 203)" stroke="black" stroke-width="1px" transform="translate(281.1949216361716,231.19308497893851)"></circle><circle r="1.6338632515001141" fill="rgb(255, 254, 201)" stroke="black" stroke-width="1px" transform="translate(169.2194287858241,127.1557198348162)"></circle><circle r="1.6338632515001141" fill="rgb(255, 253, 200)" stroke="black" stroke-width="1px" transform="translate(288.2204375874468,530.8355554009777)"></circle><circle r="1.1553157846672322" fill="rgb(255, 255, 203)" stroke="black" stroke-width="1px" transform="translate(301.168704471931,3.9820168606922097)"></circle><circle r="1.1553157846672322" fill="rgb(255, 255, 203)" stroke="black" stroke-width="1px" transform="translate(275.92437078743785,529.070035262927)"></circle><circle r="2.0010656378299503" fill="rgb(255, 253, 199)" stroke="black" stroke-width="1px" transform="translate(98.89702610559924,-1.2121942454181356)"></circle><circle r="1.1553157846672322" fill="rgb(255, 255, 204)" stroke="black" stroke-width="1px" transform="translate(280.5073639297026,281.3046191839425)"></circle><circle r="2.3106315693344643" fill="rgb(255, 253, 198)" stroke="black" stroke-width="1px" transform="translate(170.10207432945722,72.97455077090402)"></circle><circle r="1.1553157846672322" fill="rgb(255, 255, 203)" stroke="black" stroke-width="1px" transform="translate(247.3423216076179,315.2967701659093)"></circle><circle r="1.1553157846672322" fill="rgb(255, 255, 203)" stroke="black" stroke-width="1px" transform="translate(248.09857193226392,296.24698993832493)"></circle><circle r="1.6338632515001141" fill="rgb(255, 254, 200)" stroke="black" stroke-width="1px" transform="translate(269.5151696492139,224.96400558881882)"></circle><circle r="1.6338632515001141" fill="rgb(255, 253, 199)" stroke="black" stroke-width="1px" transform="translate(428.7725018287255,7.565102296560813)"></circle><circle r="1.1553157846672322" fill="rgb(255, 255, 204)" stroke="black" stroke-width="1px" transform="translate(259.7524721593363,296.0297616407955)"></circle><circle r="1.1553157846672322" fill="rgb(255, 255, 204)" stroke="black" stroke-width="1px" transform="translate(231.96445277944386,311.61218072464976)"></circle><circle r="1.6338632515001141" fill="rgb(255, 254, 201)" stroke="black" stroke-width="1px" transform="translate(245.75858003863266,214.2905612588799)"></circle><circle r="1.1553157846672322" fill="rgb(255, 255, 204)" stroke="black" stroke-width="1px" transform="translate(228.6418280004751,299.7695030792686)"></circle><circle r="1.1553157846672322" fill="rgb(255, 254, 202)" stroke="black" stroke-width="1px" transform="translate(439.7126289451437,12.696556444839898)"></circle><circle r="1.6338632515001141" fill="rgb(255, 254, 201)" stroke="black" stroke-width="1px" transform="translate(274.9503326385683,215.26696353657704)"></circle><circle r="1.6338632515001141" fill="rgb(255, 254, 201)" stroke="black" stroke-width="1px" transform="translate(285.67024390108514,220.2047504104719)"></circle><circle r="1.6338632515001141" fill="rgb(255, 254, 201)" stroke="black" stroke-width="1px" transform="translate(294.18969212908576,228.47332841444512)"></circle><circle r="1.1553157846672322" fill="rgb(255, 254, 202)" stroke="black" stroke-width="1px" transform="translate(444.15454311792877,23.019431827485167)"></circle><circle r="1.1553157846672322" fill="rgb(255, 255, 203)" stroke="black" stroke-width="1px" transform="translate(269.00849902749775,541.1121852385398)"></circle><circle r="1.1553157846672322" fill="rgb(255, 255, 203)" stroke="black" stroke-width="1px" transform="translate(295.7761311982462,243.92125693528996)"></circle><circle r="1.1553157846672322" fill="rgb(255, 255, 204)" stroke="black" stroke-width="1px" transform="translate(290.845778870873,254.98847864857706)"></circle><circle r="1.1553157846672322" fill="rgb(255, 255, 204)" stroke="black" stroke-width="1px" transform="translate(195.47537237261244,41.31291864489146)"></circle><circle r="1.1553157846672322" fill="rgb(255, 255, 204)" stroke="black" stroke-width="1px" transform="translate(307.097890613948,248.7982673484761)"></circle><circle r="1.1553157846672322" fill="rgb(255, 254, 202)" stroke="black" stroke-width="1px" transform="translate(450.22994304081726,42.927116985275774)"></circle><circle r="1.1553157846672322" fill="rgb(255, 255, 203)" stroke="black" stroke-width="1px" transform="translate(253.960985445841,537.4498948025752)"></circle><circle r="1.1553157846672322" fill="rgb(255, 255, 203)" stroke="black" stroke-width="1px" transform="translate(247.2954923118768,547.4151237558214)"></circle><circle r="1.1553157846672322" fill="rgb(255, 255, 204)" stroke="black" stroke-width="1px" transform="translate(304.2262316530288,258.30260558921543)"></circle><circle r="1.1553157846672322" fill="rgb(255, 254, 202)" stroke="black" stroke-width="1px" transform="translate(447.5240502785767,55.408868143619785)"></circle><circle r="1.1553157846672322" fill="rgb(255, 255, 204)" stroke="black" stroke-width="1px" transform="translate(123.9447213081366,-25.22313055142583)"></circle><circle r="1.1553157846672322" fill="rgb(255, 255, 203)" stroke="black" stroke-width="1px" transform="translate(314.6975950829527,13.084621439756292)"></circle><circle r="1.6338632515001141" fill="rgb(255, 254, 201)" stroke="black" stroke-width="1px" transform="translate(104.50265060149758,-11.83784346527486)"></circle><circle r="1.1553157846672322" fill="rgb(255, 255, 203)" stroke="black" stroke-width="1px" transform="translate(237.36124746857834,542.6863479811167)"></circle><circle r="1.1553157846672322" fill="rgb(255, 255, 204)" stroke="black" stroke-width="1px" transform="translate(297.5785037455093,267.59886083900176)"></circle><circle r="2.0010656378299503" fill="rgb(255, 253, 198)" stroke="black" stroke-width="1px" transform="translate(279.8435295864775,540.8065243540202)"></circle><circle r="1.6338632515001141" fill="rgb(255, 253, 199)" stroke="black" stroke-width="1px" transform="translate(451.74374187420506,31.21727447110058)"></circle><circle r="1.1553157846672322" fill="rgb(255, 255, 203)" stroke="black" stroke-width="1px" transform="translate(293.36886005966534,279.48391291141667)"></circle><circle r="1.6338632515001141" fill="rgb(255, 254, 201)" stroke="black" stroke-width="1px" transform="translate(112.96566666421283,-20.202803183283454)"></circle><circle r="1.1553157846672322" fill="rgb(255, 255, 204)" stroke="black" stroke-width="1px" transform="translate(288.499576923143,290.6034253282861)"></circle><circle r="1.1553157846672322" fill="rgb(255, 255, 204)" stroke="black" stroke-width="1px" transform="translate(278.9481974055421,298.03058014084746)"></circle><circle r="1.6338632515001141" fill="rgb(255, 254, 201)" stroke="black" stroke-width="1px" transform="translate(303.1727095817768,236.24430664596827)"></circle><circle r="1.1553157846672322" fill="rgb(255, 255, 204)" stroke="black" stroke-width="1px" transform="translate(309.3965649878986,267.7612383861533)"></circle><circle r="1.1553157846672322" fill="rgb(255, 255, 203)" stroke="black" stroke-width="1px" transform="translate(260.2265637742556,548.1124562015376)"></circle><circle r="1.1553157846672322" fill="rgb(255, 255, 203)" stroke="black" stroke-width="1px" transform="translate(269.2360131160003,305.53362567956407)"></circle><circle r="1.1553157846672322" fill="rgb(255, 255, 204)" stroke="black" stroke-width="1px" transform="translate(305.76040081517885,279.6324649200361)"></circle><circle r="1.1553157846672322" fill="rgb(255, 255, 203)" stroke="black" stroke-width="1px" transform="translate(226.7063567305414,538.8165089076963)"></circle><circle r="1.1553157846672322" fill="rgb(255, 255, 204)" stroke="black" stroke-width="1px" transform="translate(236.56761701564403,291.38917923647153)"></circle><circle r="1.1553157846672322" fill="rgb(255, 255, 204)" stroke="black" stroke-width="1px" transform="translate(300.4293706924009,290.2971964281337)"></circle><circle r="1.1553157846672322" fill="rgb(255, 255, 204)" stroke="black" stroke-width="1px" transform="translate(213.46943771251796,34.72780343140762)"></circle><circle r="1.1553157846672322" fill="rgb(255, 255, 203)" stroke="black" stroke-width="1px" transform="translate(291.72126217932964,301.2656218869146)"></circle><circle r="1.1553157846672322" fill="rgb(255, 254, 202)" stroke="black" stroke-width="1px" transform="translate(253.26006639103332,388.007883496091)"></circle><circle r="1.1553157846672322" fill="rgb(255, 255, 203)" stroke="black" stroke-width="1px" transform="translate(280.1272461850484,309.24670743619345)"></circle><circle r="1.1553157846672322" fill="rgb(255, 255, 204)" stroke="black" stroke-width="1px" transform="translate(264.07737063170555,314.68668035699676)"></circle><circle r="8.004262551319801" fill="rgb(254, 195, 95)" stroke="black" stroke-width="1px" transform="translate(251.45396240179483,257.7322829451185)"></circle><circle r="2.3106315693344643" fill="rgb(254, 184, 85)" stroke="black" stroke-width="1px" transform="translate(254.29373513843626,493.3347090621634)"></circle><circle r="1.1553157846672322" fill="rgb(254, 184, 85)" stroke="black" stroke-width="1px" transform="translate(276.8624676456963,101.63948175384614)"></circle><circle r="1.1553157846672322" fill="rgb(254, 170, 74)" stroke="black" stroke-width="1px" transform="translate(137.76534994355254,13.665677845677287)"></circle><circle r="1.1553157846672322" fill="rgb(254, 210, 112)" stroke="black" stroke-width="1px" transform="translate(409.57447718462987,43.330917939192716)"></circle><circle r="1.6338632515001141" fill="rgb(254, 210, 113)" stroke="black" stroke-width="1px" transform="translate(259.74351120194814,94.68959120091364)"></circle><circle r="1.1553157846672322" fill="rgb(254, 202, 102)" stroke="black" stroke-width="1px" transform="translate(205.53590559090864,97.07804451296363)"></circle><circle r="1.1553157846672322" fill="rgb(254, 204, 105)" stroke="black" stroke-width="1px" transform="translate(287.8766853829217,42.713280801675104)"></circle><circle r="1.1553157846672322" fill="rgb(254, 202, 103)" stroke="black" stroke-width="1px" transform="translate(217.89778332505614,75.61940477937907)"></circle><circle r="1.1553157846672322" fill="rgb(253, 134, 59)" stroke="black" stroke-width="1px" transform="translate(216.6867594407033,179.8400054598438)"></circle><circle r="1.1553157846672322" fill="rgb(239, 54, 36)" stroke="black" stroke-width="1px" transform="translate(235.18622208952988,174.61306341115323)"></circle><circle r="1.1553157846672322" fill="rgb(253, 137, 60)" stroke="black" stroke-width="1px" transform="translate(249.26754463686655,172.51842031838805)"></circle><circle r="1.1553157846672322" fill="rgb(128, 0, 38)" stroke="black" stroke-width="1px" transform="translate(209.9828883929554,139.23317738142921)"></circle></g></g><g><text x="505" y="495" font-family="sans-serif" text-anchor="end" font-size="10px" fill="red">112 nodes</text><text x="505" y="505" font-family="sans-serif" text-anchor="end" font-size="10px" fill="red">120 edges</text></g></svg>