<svg height="512" width="512" style="border-style: solid; border-width: 1px; cursor: auto;" id="figure"><g transform="translate(100.59981880856353,140.6638705446072) scale(0.6356749772358599)"><g class="links"><line stroke-width="15.731309801564858" stroke="lightgray" x1="245.51317464738852" y1="91.95591903221681" x2="302.25774173361265" y2="341.36462731040507"></line><line stroke-width="5.036476553848244" stroke="lightgray" x1="245.51317464738852" y1="91.95591903221681" x2="210.46584730318523" y2="104.71211854402941"></line><line stroke-width="15.731309801564858" stroke="lightgray" x1="245.51317464738852" y1="91.95591903221681" x2="187.67202680852185" y2="156.70904991685612"></line><line stroke-width="15.731309801564858" stroke="lightgray" x1="245.51317464738852" y1="91.95591903221681" x2="132.09605655424903" y2="190.46965137061434"></line><line stroke-width="12.18542017509804" stroke="lightgray" x1="245.51317464738852" y1="91.95591903221681" x2="235.73145765211677" y2="153.47980632765035"></line><line stroke-width="9.438785880938914" stroke="lightgray" x1="245.51317464738852" y1="91.95591903221681" x2="298.245641045008" y2="187.67623196799312"></line><line stroke-width="3.3371147512898736" stroke="lightgray" x1="245.51317464738852" y1="91.95591903221681" x2="376.4520457304231" y2="32.91614230372481"></line><line stroke-width="10.52352903557465" stroke="lightgray" x1="245.51317464738852" y1="91.95591903221681" x2="270.9965342825153" y2="173.80980019575043"></line><line stroke-width="4.586425534791653" stroke="lightgray" x1="245.51317464738852" y1="91.95591903221681" x2="283.94289132059566" y2="30.97245689345761"></line><line stroke-width="7.37863834159246" stroke="lightgray" x1="245.51317464738852" y1="91.95591903221681" x2="281.0552312913714" y2="205.04896834512533"></line><line stroke-width="5.5618579188164565" stroke="lightgray" x1="245.51317464738852" y1="91.95591903221681" x2="264.30737873858527" y2="53.41722165669094"></line><line stroke-width="11.506461133595925" stroke="lightgray" x1="245.51317464738852" y1="91.95591903221681" x2="255.17897803255772" y2="184.29459446318722"></line><line stroke-width="10.669493414098575" stroke="lightgray" x1="245.51317464738852" y1="91.95591903221681" x2="114.13925970322391" y2="505.60866394083234"></line><line stroke-width="10.195053967026386" stroke="lightgray" x1="245.51317464738852" y1="91.95591903221681" x2="32.42396850950013" y2="273.888371057482"></line><line stroke-width="5.726283202885393" stroke="lightgray" x1="245.51317464738852" y1="91.95591903221681" x2="129.67413750229386" y2="81.94313582329164"></line><line stroke-width="7.294308276708236" stroke="lightgray" x1="245.51317464738852" y1="91.95591903221681" x2="10.391833514295952" y2="401.22932226261145"></line><line stroke-width="5.097526983513193" stroke="lightgray" x1="245.51317464738852" y1="91.95591903221681" x2="246.1393510119023" y2="49.9012180762134"></line><line stroke-width="8.211984805748296" stroke="lightgray" x1="245.51317464738852" y1="91.95591903221681" x2="220.85432923019957" y2="200.0937600262864"></line><line stroke-width="5.392421320571607" stroke="lightgray" x1="245.51317464738852" y1="91.95591903221681" x2="273.8577694273258" y2="-3.010215246002452"></line><line stroke-width="4.784491090673591" stroke="lightgray" x1="245.51317464738852" y1="91.95591903221681" x2="272.5208329623243" y2="102.02681559281349"></line><line stroke-width="6.766292189483835" stroke="lightgray" x1="245.51317464738852" y1="91.95591903221681" x2="237.88305606323144" y2="-7.839783998867974"></line><line stroke-width="7.03525561828155" stroke="lightgray" x1="245.51317464738852" y1="91.95591903221681" x2="139.0594173650022" y2="-73.3154994817612"></line><line stroke-width="7.122653449026295" stroke="lightgray" x1="245.51317464738852" y1="91.95591903221681" x2="465.5314729013073" y2="201.39226841792308"></line><line stroke-width="7.336594476038341" stroke="lightgray" x1="245.51317464738852" y1="91.95591903221681" x2="230.23351791870374" y2="23.885400148027102"></line><line stroke-width="2.8360022059875662" stroke="lightgray" x1="245.51317464738852" y1="91.95591903221681" x2="331.4695788997791" y2="-86.83810622941904"></line><line stroke-width="4.010712782627632" stroke="lightgray" x1="245.51317464738852" y1="91.95591903221681" x2="179.18817478760343" y2="56.36927442293549"></line><line stroke-width="3.6044958973235848" stroke="lightgray" x1="245.51317464738852" y1="91.95591903221681" x2="246.30044553694958" y2="-160.4404029256507"></line><line stroke-width="2.7247427845916605" stroke="lightgray" x1="245.51317464738852" y1="91.95591903221681" x2="448.6088059399389" y2="-76.72768162517603"></line><line stroke-width="1.3623713922958303" stroke="lightgray" x1="276.24577286251133" y1="313.56218292836206" x2="302.25774173361265" y2="341.36462731040507"></line><line stroke-width="1.1123715837632913" stroke="lightgray" x1="468.7388840512033" y1="-120.45895661629825" x2="448.6088059399389" y2="-76.72768162517603"></line><line stroke-width="0.7865654900782428" stroke="lightgray" x1="269.14208373756514" y1="359.13403880216094" x2="302.25774173361265" y2="341.36462731040507"></line><line stroke-width="1.3623713922958303" stroke="lightgray" x1="283.9089879810236" y1="304.8269213183858" x2="302.25774173361265" y2="341.36462731040507"></line><line stroke-width="1.3623713922958303" stroke="lightgray" x1="243.6499366715682" y1="264.6672814158257" x2="220.85432923019957" y2="200.0937600262864"></line><line stroke-width="1.3623713922958303" stroke="lightgray" x1="243.6499366715682" y1="264.6672814158257" x2="302.25774173361265" y2="341.36462731040507"></line><line stroke-width="1.3623713922958303" stroke="lightgray" x1="93.37576977039595" y1="171.1362553516236" x2="132.09605655424903" y2="190.46965137061434"></line><line stroke-width="1.5731309801564857" stroke="lightgray" x1="-38.496639209670356" y1="409.1126620927538" x2="10.391833514295952" y2="401.22932226261145"></line><line stroke-width="1.1123715837632913" stroke="lightgray" x1="-5.8565110680802865" y1="293.5159310276134" x2="32.42396850950013" y2="273.888371057482"></line><line stroke-width="1.3623713922958303" stroke="lightgray" x1="268.65247164407987" y1="327.42561376817906" x2="302.25774173361265" y2="341.36462731040507"></line><line stroke-width="0.7865654900782428" stroke="lightgray" x1="250.13566834295932" y1="335.7899699228111" x2="302.25774173361265" y2="341.36462731040507"></line><line stroke-width="1.5731309801564857" stroke="lightgray" x1="300.53477510348637" y1="135.21041499836994" x2="270.9965342825153" y2="173.80980019575043"></line><line stroke-width="0.7865654900782428" stroke="lightgray" x1="263.14386192300464" y1="348.86800127626776" x2="302.25774173361265" y2="341.36462731040507"></line><line stroke-width="0.7865654900782428" stroke="lightgray" x1="221.88336790541487" y1="-197.5509172952066" x2="246.30044553694958" y2="-160.4404029256507"></line><line stroke-width="0.7865654900782428" stroke="lightgray" x1="93.45648627712312" y1="45.507802570470545" x2="129.67413750229386" y2="81.94313582329164"></line><line stroke-width="1.1123715837632913" stroke="lightgray" x1="89.96656428143129" y1="183.30828852173968" x2="132.09605655424903" y2="190.46965137061434"></line><line stroke-width="1.9266840999738795" stroke="lightgray" x1="-16.36917908964687" y1="445.1680053053088" x2="10.391833514295952" y2="401.22932226261145"></line><line stroke-width="1.3623713922958303" stroke="lightgray" x1="244.77737918822234" y1="363.27943603382346" x2="302.25774173361265" y2="341.36462731040507"></line><line stroke-width="0.7865654900782428" stroke="lightgray" x1="-10.02337792320227" y1="254.39660481041224" x2="32.42396850950013" y2="273.888371057482"></line><line stroke-width="0.7865654900782428" stroke="lightgray" x1="413.750933514117" y1="11.625551893372808" x2="376.4520457304231" y2="32.91614230372481"></line><line stroke-width="0.7865654900782428" stroke="lightgray" x1="261.7797496410592" y1="337.92727903783555" x2="302.25774173361265" y2="341.36462731040507"></line><line stroke-width="0.7865654900782428" stroke="lightgray" x1="185.88290532602852" y1="116.0107118781706" x2="187.67202680852185" y2="156.70904991685612"></line><line stroke-width="1.1123715837632913" stroke="lightgray" x1="258.9965986506675" y1="304.5011620038896" x2="302.25774173361265" y2="341.36462731040507"></line><line stroke-width="1.7588139045703874" stroke="lightgray" x1="333.7832082833253" y1="284.0295128620174" x2="302.25774173361265" y2="341.36462731040507"></line><line stroke-width="1.7588139045703874" stroke="lightgray" x1="306.98194450745984" y1="280.7393497058336" x2="302.25774173361265" y2="341.36462731040507"></line><line stroke-width="1.1123715837632913" stroke="lightgray" x1="248.246278081747" y1="346.90862482243773" x2="302.25774173361265" y2="341.36462731040507"></line><line stroke-width="1.1123715837632913" stroke="lightgray" x1="92.99738520654638" y1="543.8496625733877" x2="114.13925970322391" y2="505.60866394083234"></line><line stroke-width="1.5731309801564857" stroke="lightgray" x1="322.800678139107" y1="280.54632619604274" x2="302.25774173361265" y2="341.36462731040507"></line><line stroke-width="1.1123715837632913" stroke="lightgray" x1="477.401466824103" y1="-114.2072815722652" x2="448.6088059399389" y2="-76.72768162517603"></line><line stroke-width="0.7865654900782428" stroke="lightgray" x1="161.58852955720928" y1="114.2671764322651" x2="187.67202680852185" y2="156.70904991685612"></line><line stroke-width="1.3623713922958303" stroke="lightgray" x1="269.61876930648936" y1="302.8645606088624" x2="302.25774173361265" y2="341.36462731040507"></line><line stroke-width="1.3623713922958303" stroke="lightgray" x1="294.2907814600931" y1="300.21209518101955" x2="302.25774173361265" y2="341.36462731040507"></line><line stroke-width="1.1123715837632913" stroke="lightgray" x1="344.76601875081195" y1="299.2247403344679" x2="302.25774173361265" y2="341.36462731040507"></line><line stroke-width="0.7865654900782428" stroke="lightgray" x1="278.7088354521834" y1="-50.01961805300769" x2="273.8577694273258" y2="-3.010215246002452"></line><line stroke-width="0.7865654900782428" stroke="lightgray" x1="263.68304182667407" y1="315.37015230563526" x2="302.25774173361265" y2="341.36462731040507"></line><line stroke-width="1.1123715837632913" stroke="lightgray" x1="256.26428449890926" y1="325.3203676711509" x2="302.25774173361265" y2="341.36462731040507"></line><line stroke-width="2.2247431675265825" stroke="lightgray" x1="344.00163292407245" y1="287.0903612060017" x2="302.25774173361265" y2="341.36462731040507"></line><line stroke-width="0.7865654900782428" stroke="lightgray" x1="98.52138602439479" y1="157.49742377578505" x2="132.09605655424903" y2="190.46965137061434"></line><line stroke-width="0.7865654900782428" stroke="lightgray" x1="251.29511167842762" y1="314.1050108960477" x2="302.25774173361265" y2="341.36462731040507"></line><line stroke-width="0.7865654900782428" stroke="lightgray" x1="513.3359426231876" y1="192.7518115861841" x2="465.5314729013073" y2="201.39226841792308"></line><line stroke-width="0.7865654900782428" stroke="lightgray" x1="-30.435491182525965" y1="422.87053108740434" x2="10.391833514295952" y2="401.22932226261145"></line><line stroke-width="1.3623713922958303" stroke="lightgray" x1="174.32012163929355" y1="112.2775181576723" x2="187.67202680852185" y2="156.70904991685612"></line><line stroke-width="0.7865654900782428" stroke="lightgray" x1="259.34626598335143" y1="366.8622553790674" x2="302.25774173361265" y2="341.36462731040507"></line><line stroke-width="0.7865654900782428" stroke="lightgray" x1="87.40625986250484" y1="160.606528719274" x2="132.09605655424903" y2="190.46965137061434"></line><line stroke-width="0.7865654900782428" stroke="lightgray" x1="295.09596722057285" y1="285.20885280572855" x2="302.25774173361265" y2="341.36462731040507"></line><line stroke-width="0.7865654900782428" stroke="lightgray" x1="353.22759266591646" y1="360.77036305642383" x2="302.25774173361265" y2="341.36462731040507"></line><line stroke-width="1.1123715837632913" stroke="lightgray" x1="275.047496931337" y1="294.05880850780494" x2="302.25774173361265" y2="341.36462731040507"></line><line stroke-width="0.7865654900782428" stroke="lightgray" x1="239.59756962023462" y1="333.3209483930287" x2="302.25774173361265" y2="341.36462731040507"></line><line stroke-width="1.1123715837632913" stroke="lightgray" x1="237.3927681130096" y1="345.06449311460034" x2="302.25774173361265" y2="341.36462731040507"></line><line stroke-width="0.7865654900782428" stroke="lightgray" x1="338.726773651596" y1="358.8014408331038" x2="302.25774173361265" y2="341.36462731040507"></line><line stroke-width="0.7865654900782428" stroke="lightgray" x1="273.54118295194166" y1="370.0156711734558" x2="302.25774173361265" y2="341.36462731040507"></line><line stroke-width="1.1123715837632913" stroke="lightgray" x1="70.31116689958675" y1="523.392633991203" x2="114.13925970322391" y2="505.60866394083234"></line><line stroke-width="1.1123715837632913" stroke="lightgray" x1="397.67481348506425" y1="-8.293279331866174" x2="376.4520457304231" y2="32.91614230372481"></line><line stroke-width="0.7865654900782428" stroke="lightgray" x1="66.24784367392816" y1="533.1240930958587" x2="114.13925970322391" y2="505.60866394083234"></line><line stroke-width="0.7865654900782428" stroke="lightgray" x1="92.96709333779141" y1="555.4327137489528" x2="114.13925970322391" y2="505.60866394083234"></line><line stroke-width="0.7865654900782428" stroke="lightgray" x1="319.4037419208588" y1="380.51375648646473" x2="302.25774173361265" y2="341.36462731040507"></line><line stroke-width="0.7865654900782428" stroke="lightgray" x1="284.5234036842956" y1="374.1198168109831" x2="302.25774173361265" y2="341.36462731040507"></line><line stroke-width="0.7865654900782428" stroke="lightgray" x1="354.48816907742923" y1="326.8439514931561" x2="302.25774173361265" y2="341.36462731040507"></line><line stroke-width="1.7588139045703874" stroke="lightgray" x1="252.42280878389002" y1="115.47607835841153" x2="235.73145765211677" y2="153.47980632765035"></line><line stroke-width="0.7865654900782428" stroke="lightgray" x1="253.37312733614033" y1="356.7959965642816" x2="302.25774173361265" y2="341.36462731040507"></line><line stroke-width="1.3623713922958303" stroke="lightgray" x1="332.56182405901933" y1="-132.01643814206628" x2="331.4695788997791" y2="-86.83810622941904"></line><line stroke-width="1.3623713922958303" stroke="lightgray" x1="99.60095291907304" y1="-96.59772930679105" x2="139.0594173650022" y2="-73.3154994817612"></line><line stroke-width="1.1123715837632913" stroke="lightgray" x1="351.02619405757696" y1="-124.73862463824513" x2="331.4695788997791" y2="-86.83810622941904"></line><line stroke-width="0.7865654900782428" stroke="lightgray" x1="327.5918169111745" y1="367.39461183518057" x2="302.25774173361265" y2="341.36462731040507"></line><line stroke-width="1.1123715837632913" stroke="lightgray" x1="356.04327020922824" y1="303.8544722249596" x2="302.25774173361265" y2="341.36462731040507"></line><line stroke-width="0.7865654900782428" stroke="lightgray" x1="343.9624598225551" y1="368.3136901855991" x2="302.25774173361265" y2="341.36462731040507"></line><line stroke-width="0.7865654900782428" stroke="lightgray" x1="274.1734685619447" y1="383.2775682705757" x2="302.25774173361265" y2="341.36462731040507"></line><line stroke-width="0.7865654900782428" stroke="lightgray" x1="250.80762024385393" y1="374.2968843137268" x2="302.25774173361265" y2="341.36462731040507"></line><line stroke-width="1.1123715837632913" stroke="lightgray" x1="115.44306186348285" y1="-109.31712463786987" x2="139.0594173650022" y2="-73.3154994817612"></line><line stroke-width="0.7865654900782428" stroke="lightgray" x1="308.9412226805052" y1="376.8095082557683" x2="302.25774173361265" y2="341.36462731040507"></line><line stroke-width="1.1123715837632913" stroke="lightgray" x1="333.77121734401305" y1="297.40391528187814" x2="302.25774173361265" y2="341.36462731040507"></line><line stroke-width="0.7865654900782428" stroke="lightgray" x1="298.3299927389399" y1="382.08357739712926" x2="302.25774173361265" y2="341.36462731040507"></line><line stroke-width="0.7865654900782428" stroke="lightgray" x1="287.53261600851374" y1="386.20637605799453" x2="302.25774173361265" y2="341.36462731040507"></line><line stroke-width="0.7865654900782428" stroke="lightgray" x1="69.027397481065" y1="543.562289101008" x2="114.13925970322391" y2="505.60866394083234"></line><line stroke-width="1.7588139045703874" stroke="lightgray" x1="213.54839789060344" y1="-22.59669563585829" x2="230.23351791870374" y2="23.885400148027102"></line><line stroke-width="0.7865654900782428" stroke="lightgray" x1="265.77864825674754" y1="393.28957675289314" x2="302.25774173361265" y2="341.36462731040507"></line><line stroke-width="0.7865654900782428" stroke="lightgray" x1="-11.552836535463594" y1="269.06108485602977" x2="32.42396850950013" y2="273.888371057482"></line><line stroke-width="1.1123715837632913" stroke="lightgray" x1="-0.05459514727015483" y1="307.7271649453289" x2="32.42396850950013" y2="273.888371057482"></line><line stroke-width="1.1123715837632913" stroke="lightgray" x1="146.33360639672946" y1="19.809453815213594" x2="179.18817478760343" y2="56.36927442293549"></line><line stroke-width="1.1123715837632913" stroke="lightgray" x1="304.35045104944646" y1="292.9048389487028" x2="302.25774173361265" y2="341.36462731040507"></line><line stroke-width="1.3623713922958303" stroke="lightgray" x1="371.8826255634856" y1="309.6590265072697" x2="302.25774173361265" y2="341.36462731040507"></line><line stroke-width="1.3623713922958303" stroke="lightgray" x1="-22.35380019531216" y1="433.5945686309233" x2="10.391833514295952" y2="401.22932226261145"></line><line stroke-width="0.7865654900782428" stroke="lightgray" x1="422.8517593862989" y1="26.21446383086167" x2="376.4520457304231" y2="32.91614230372481"></line><line stroke-width="0.7865654900782428" stroke="lightgray" x1="73.81868758346134" y1="554.1623099288789" x2="114.13925970322391" y2="505.60866394083234"></line><line stroke-width="1.1123715837632913" stroke="lightgray" x1="77.22681068742398" y1="181.48126928208254" x2="132.09605655424903" y2="190.46965137061434"></line><line stroke-width="1.7588139045703874" stroke="lightgray" x1="354.47403059531723" y1="292.1523577043796" x2="302.25774173361265" y2="341.36462731040507"></line><line stroke-width="1.1123715837632913" stroke="lightgray" x1="365.3746149532481" y1="300.875812196323" x2="302.25774173361265" y2="341.36462731040507"></line><line stroke-width="0.7865654900782428" stroke="lightgray" x1="-42.16548192851816" y1="420.7467662234678" x2="10.391833514295952" y2="401.22932226261145"></line><line stroke-width="1.1123715837632913" stroke="lightgray" x1="-29.076666149440538" y1="442.5688825460291" x2="10.391833514295952" y2="401.22932226261145"></line><line stroke-width="0.7865654900782428" stroke="lightgray" x1="151.44272480874952" y1="122.56201348392092" x2="187.67202680852185" y2="156.70904991685612"></line><line stroke-width="0.7865654900782428" stroke="lightgray" x1="202.48358005405947" y1="448.0590971087526" x2="114.13925970322391" y2="505.60866394083234"></line><line stroke-width="0.7865654900782428" stroke="lightgray" x1="202.48358005405947" y1="448.0590971087526" x2="302.25774173361265" y2="341.36462731040507"></line><line stroke-width="0.7865654900782428" stroke="lightgray" x1="223.96002609675588" y1="-54.34826896006215" x2="237.88305606323144" y2="-7.839783998867974"></line><line stroke-width="1.1123715837632913" stroke="lightgray" x1="244.7588241382243" y1="322.5573620398359" x2="302.25774173361265" y2="341.36462731040507"></line><line stroke-width="1.1123715837632913" stroke="lightgray" x1="336.71589822785825" y1="308.5772913259675" x2="302.25774173361265" y2="341.36462731040507"></line><line stroke-width="0.7865654900782428" stroke="lightgray" x1="314.54439608515753" y1="288.1040966913545" x2="302.25774173361265" y2="341.36462731040507"></line><line stroke-width="0.7865654900782428" stroke="lightgray" x1="263.45746491795137" y1="378.0032115178094" x2="302.25774173361265" y2="341.36462731040507"></line><line stroke-width="0.7865654900782428" stroke="lightgray" x1="257.31907892199723" y1="386.08430383390555" x2="302.25774173361265" y2="341.36462731040507"></line><line stroke-width="0.7865654900782428" stroke="lightgray" x1="518.0078123504769" y1="211.107885750191" x2="465.5314729013073" y2="201.39226841792308"></line><line stroke-width="0.7865654900782428" stroke="lightgray" x1="294.2767350412295" y1="-45.842901111582286" x2="273.8577694273258" y2="-3.010215246002452"></line><line stroke-width="0.7865654900782428" stroke="lightgray" x1="310.37944764598063" y1="390.8025211391386" x2="302.25774173361265" y2="341.36462731040507"></line><line stroke-width="0.7865654900782428" stroke="lightgray" x1="238.5898394176338" y1="371.342708072141" x2="302.25774173361265" y2="341.36462731040507"></line><line stroke-width="1.1123715837632913" stroke="lightgray" x1="324.66932018321717" y1="293.28556784195206" x2="302.25774173361265" y2="341.36462731040507"></line><line stroke-width="1.3623713922958303" stroke="lightgray" x1="194.5515704296822" y1="452.95037673215785" x2="302.25774173361265" y2="341.36462731040507"></line><line stroke-width="0.7865654900782428" stroke="lightgray" x1="194.5515704296822" y1="452.95037673215785" x2="114.13925970322391" y2="505.60866394083234"></line><line stroke-width="0.7865654900782428" stroke="lightgray" x1="116.21487466849378" y1="551.1110760261688" x2="114.13925970322391" y2="505.60866394083234"></line><line stroke-width="1.1123715837632913" stroke="lightgray" x1="286.00466833739387" y1="291.18559865532046" x2="302.25774173361265" y2="341.36462731040507"></line><line stroke-width="0.7865654900782428" stroke="lightgray" x1="81.8683513626361" y1="545.8954366412264" x2="114.13925970322391" y2="505.60866394083234"></line><line stroke-width="0.7865654900782428" stroke="lightgray" x1="333.17954410978444" y1="376.7247503595031" x2="302.25774173361265" y2="341.36462731040507"></line><line stroke-width="0.7865654900782428" stroke="lightgray" x1="326.8604998379211" y1="387.93291223815197" x2="302.25774173361265" y2="341.36462731040507"></line><line stroke-width="0.7865654900782428" stroke="lightgray" x1="79.90926655558607" y1="534.0155387941066" x2="114.13925970322391" y2="505.60866394083234"></line><line stroke-width="0.7865654900782428" stroke="lightgray" x1="299.7150746264216" y1="395.16209014676616" x2="302.25774173361265" y2="341.36462731040507"></line><line stroke-width="0.7865654900782428" stroke="lightgray" x1="281.4501552761986" y1="408.4190145437277" x2="302.25774173361265" y2="341.36462731040507"></line><line stroke-width="1.1123715837632913" stroke="lightgray" x1="234.64762615526325" y1="112.19414381076655" x2="235.73145765211677" y2="153.47980632765035"></line><line stroke-width="1.1123715837632913" stroke="lightgray" x1="107.99354139897004" y1="561.1976905859223" x2="114.13925970322391" y2="505.60866394083234"></line><line stroke-width="0.7865654900782428" stroke="lightgray" x1="133.15167598213088" y1="-117.84768030007899" x2="139.0594173650022" y2="-73.3154994817612"></line><line stroke-width="0.7865654900782428" stroke="lightgray" x1="239.47188303520517" y1="-56.17946602257517" x2="237.88305606323144" y2="-7.839783998867974"></line><line stroke-width="0.7865654900782428" stroke="lightgray" x1="249.42842271099266" y1="392.6204083755505" x2="302.25774173361265" y2="341.36462731040507"></line><line stroke-width="0.7865654900782428" stroke="lightgray" x1="288.78336436460256" y1="398.1816201974171" x2="302.25774173361265" y2="341.36462731040507"></line><line stroke-width="1.1123715837632913" stroke="lightgray" x1="-12.213028203198432" y1="281.76381869383965" x2="32.42396850950013" y2="273.888371057482"></line><line stroke-width="0.7865654900782428" stroke="lightgray" x1="485.1001054626134" y1="-101.24495762222737" x2="448.6088059399389" y2="-76.72768162517603"></line><line stroke-width="0.7865654900782428" stroke="lightgray" x1="123.54714806521626" y1="559.9736200514479" x2="114.13925970322391" y2="505.60866394083234"></line><line stroke-width="1.1123715837632913" stroke="lightgray" x1="509.9571778632283" y1="174.50655287933768" x2="465.5314729013073" y2="201.39226841792308"></line><line stroke-width="0.7865654900782428" stroke="lightgray" x1="235.72118534694002" y1="239.21318723478188" x2="187.67202680852185" y2="156.70904991685612"></line><line stroke-width="1.1123715837632913" stroke="lightgray" x1="235.72118534694002" y1="239.21318723478188" x2="302.25774173361265" y2="341.36462731040507"></line><line stroke-width="1.1123715837632913" stroke="lightgray" x1="265.6885989437072" y1="252.09342038897023" x2="220.85432923019957" y2="200.0937600262864"></line><line stroke-width="1.1123715837632913" stroke="lightgray" x1="265.6885989437072" y1="252.09342038897023" x2="302.25774173361265" y2="341.36462731040507"></line><line stroke-width="0.7865654900782428" stroke="lightgray" x1="237.19641202713873" y1="356.256552957963" x2="302.25774173361265" y2="341.36462731040507"></line><line stroke-width="0.7865654900782428" stroke="lightgray" x1="244.25634824136313" y1="382.4893424737484" x2="302.25774173361265" y2="341.36462731040507"></line><line stroke-width="1.1123715837632913" stroke="lightgray" x1="351.7919491644529" y1="338.59344328996025" x2="302.25774173361265" y2="341.36462731040507"></line><line stroke-width="1.5731309801564857" stroke="lightgray" x1="315.8426176805167" y1="301.27614923180164" x2="302.25774173361265" y2="341.36462731040507"></line><line stroke-width="1.1123715837632913" stroke="lightgray" x1="344.8025833771557" y1="323.90654661970655" x2="302.25774173361265" y2="341.36462731040507"></line><line stroke-width="0.7865654900782428" stroke="lightgray" x1="257.9953945097432" y1="400.61406953964945" x2="302.25774173361265" y2="341.36462731040507"></line><line stroke-width="1.1123715837632913" stroke="lightgray" x1="338.6968975920853" y1="347.0821339690886" x2="302.25774173361265" y2="341.36462731040507"></line><line stroke-width="1.1123715837632913" stroke="lightgray" x1="-37.99980986198974" y1="432.49527462231146" x2="10.391833514295952" y2="401.22932226261145"></line><line stroke-width="1.1123715837632913" stroke="lightgray" x1="333.3352819059206" y1="319.75928570339295" x2="302.25774173361265" y2="341.36462731040507"></line><line stroke-width="1.3623713922958303" stroke="lightgray" x1="347.5233991254472" y1="312.98226777940715" x2="302.25774173361265" y2="341.36462731040507"></line><line stroke-width="1.1123715837632913" stroke="lightgray" x1="339.4809838781778" y1="334.22086921249246" x2="302.25774173361265" y2="341.36462731040507"></line><line stroke-width="0.7865654900782428" stroke="lightgray" x1="313.4075139481671" y1="402.31257115182717" x2="302.25774173361265" y2="341.36462731040507"></line><line stroke-width="1.1123715837632913" stroke="lightgray" x1="366.868637025208" y1="-116.13655593216767" x2="331.4695788997791" y2="-86.83810622941904"></line><line stroke-width="0.7865654900782428" stroke="lightgray" x1="277.72883917906006" y1="394.534048063849" x2="302.25774173361265" y2="341.36462731040507"></line><line stroke-width="0.7865654900782428" stroke="lightgray" x1="292.33569964560775" y1="409.233145316406" x2="302.25774173361265" y2="341.36462731040507"></line><line stroke-width="1.1123715837632913" stroke="lightgray" x1="305.44350708022165" y1="306.0875520979532" x2="302.25774173361265" y2="341.36462731040507"></line><line stroke-width="1.5731309801564857" stroke="lightgray" x1="358.479588877664" y1="314.99474737603714" x2="302.25774173361265" y2="341.36462731040507"></line><line stroke-width="1.1123715837632913" stroke="lightgray" x1="246.0845779067283" y1="-201.11944144573664" x2="246.30044553694958" y2="-160.4404029256507"></line><line stroke-width="0.7865654900782428" stroke="lightgray" x1="264.9658379750217" y1="410.5050600351218" x2="302.25774173361265" y2="341.36462731040507"></line><line stroke-width="1.9266840999738795" stroke="lightgray" x1="323.9707156749132" y1="309.6800598722114" x2="302.25774173361265" y2="341.36462731040507"></line><line stroke-width="0.7865654900782428" stroke="lightgray" x1="156.01214052968666" y1="133.44047630053763" x2="187.67202680852185" y2="156.70904991685612"></line><line stroke-width="0.7865654900782428" stroke="lightgray" x1="271.7803105811299" y1="404.18727102476987" x2="302.25774173361265" y2="341.36462731040507"></line><line stroke-width="1.1123715837632913" stroke="lightgray" x1="362.95850364757945" y1="341.14029944614026" x2="302.25774173361265" y2="341.36462731040507"></line><line stroke-width="1.1123715837632913" stroke="lightgray" x1="254.75557609064137" y1="257.5294649236079" x2="302.25774173361265" y2="341.36462731040507"></line><line stroke-width="1.1123715837632913" stroke="lightgray" x1="254.75557609064137" y1="257.5294649236079" x2="220.85432923019957" y2="200.0937600262864"></line><line stroke-width="1.3623713922958303" stroke="lightgray" x1="365.7465389679368" y1="330.04368296822895" x2="302.25774173361265" y2="341.36462731040507"></line><line stroke-width="1.1123715837632913" stroke="lightgray" x1="-20.02690215596916" y1="260.8038566654629" x2="32.42396850950013" y2="273.888371057482"></line><line stroke-width="0.7865654900782428" stroke="lightgray" x1="407.8051497851484" y1="-3.3499747051271465" x2="376.4520457304231" y2="32.91614230372481"></line><line stroke-width="0.7865654900782428" stroke="lightgray" x1="167.32114456709505" y1="123.73175338863417" x2="187.67202680852185" y2="156.70904991685612"></line><line stroke-width="0.7865654900782428" stroke="lightgray" x1="495.06218974829363" y1="-87.25942267699632" x2="448.6088059399389" y2="-76.72768162517603"></line><line stroke-width="0.7865654900782428" stroke="lightgray" x1="230.92193488078095" y1="-204.18817898125806" x2="246.30044553694958" y2="-160.4404029256507"></line><line stroke-width="0.7865654900782428" stroke="lightgray" x1="158.92636792842322" y1="12.427217477185309" x2="179.18817478760343" y2="56.36927442293549"></line><line stroke-width="0.7865654900782428" stroke="lightgray" x1="104.25486155118564" y1="-108.87240569527718" x2="139.0594173650022" y2="-73.3154994817612"></line><line stroke-width="1.1123715837632913" stroke="lightgray" x1="146.05636393023437" y1="143.9469023425429" x2="187.67202680852185" y2="156.70904991685612"></line><line stroke-width="1.1123715837632913" stroke="lightgray" x1="-17.903367100913528" y1="295.2779778136696" x2="32.42396850950013" y2="273.888371057482"></line><line stroke-width="1.1123715837632913" stroke="lightgray" x1="351.0131340640396" y1="349.52232682480565" x2="302.25774173361265" y2="341.36462731040507"></line><line stroke-width="1.9266840999738795" stroke="lightgray" x1="367.88900175149274" y1="319.91979834783854" x2="302.25774173361265" y2="341.36462731040507"></line><line stroke-width="0.7865654900782428" stroke="lightgray" x1="496.4462031135694" y1="-99.31659479707159" x2="448.6088059399389" y2="-76.72768162517603"></line><line stroke-width="1.5731309801564857" stroke="lightgray" x1="378.12470289009644" y1="319.96386018920475" x2="302.25774173361265" y2="341.36462731040507"></line><line stroke-width="1.1123715837632913" stroke="lightgray" x1="362.9781677216558" y1="353.4289796467818" x2="302.25774173361265" y2="341.36462731040507"></line><line stroke-width="1.1123715837632913" stroke="lightgray" x1="381.69289000456365" y1="329.90317603627255" x2="302.25774173361265" y2="341.36462731040507"></line><line stroke-width="0.7865654900782428" stroke="lightgray" x1="488.832292639932" y1="-113.04736534846782" x2="448.6088059399389" y2="-76.72768162517603"></line><line stroke-width="1.1123715837632913" stroke="lightgray" x1="80.44070735182612" y1="170.66602258409722" x2="132.09605655424903" y2="190.46965137061434"></line><line stroke-width="0.7865654900782428" stroke="lightgray" x1="192.60178435139235" y1="440.9817702543693" x2="114.13925970322391" y2="505.60866394083234"></line><line stroke-width="0.7865654900782428" stroke="lightgray" x1="192.60178435139235" y1="440.9817702543693" x2="302.25774173361265" y2="341.36462731040507"></line><line stroke-width="1.5731309801564857" stroke="lightgray" x1="-11.517882190408443" y1="305.034033933995" x2="32.42396850950013" y2="273.888371057482"></line><line stroke-width="0.7865654900782428" stroke="lightgray" x1="345.28244679196223" y1="-135.21498049521517" x2="331.4695788997791" y2="-86.83810622941904"></line><line stroke-width="0.7865654900782428" stroke="lightgray" x1="272.1275267112489" y1="-196.62787213681668" x2="246.30044553694958" y2="-160.4404029256507"></line><line stroke-width="0.7865654900782428" stroke="lightgray" x1="345.38807759018556" y1="379.72427481858864" x2="302.25774173361265" y2="341.36462731040507"></line><line stroke-width="0.7865654900782428" stroke="lightgray" x1="-23.904058775744513" y1="285.2882530697096" x2="32.42396850950013" y2="273.888371057482"></line><line stroke-width="1.1123715837632913" stroke="lightgray" x1="373.8487726875717" y1="337.0969229073584" x2="302.25774173361265" y2="341.36462731040507"></line><line stroke-width="0.7865654900782428" stroke="lightgray" x1="103.85122402028246" y1="550.076106508512" x2="114.13925970322391" y2="505.60866394083234"></line><line stroke-width="0.7865654900782428" stroke="lightgray" x1="288.4640589042176" y1="420.6468582721464" x2="302.25774173361265" y2="341.36462731040507"></line><line stroke-width="0.7865654900782428" stroke="lightgray" x1="355.83401857204825" y1="373.23582924151066" x2="302.25774173361265" y2="341.36462731040507"></line><line stroke-width="0.7865654900782428" stroke="lightgray" x1="337.6973875285417" y1="388.33106912652016" x2="302.25774173361265" y2="341.36462731040507"></line><line stroke-width="0.7865654900782428" stroke="lightgray" x1="324.00683432272734" y1="397.60629949637877" x2="302.25774173361265" y2="341.36462731040507"></line><line stroke-width="0.7865654900782428" stroke="lightgray" x1="298.40830229712304" y1="424.85768747032915" x2="302.25774173361265" y2="341.36462731040507"></line><line stroke-width="0.7865654900782428" stroke="lightgray" x1="303.5109483249098" y1="404.7524028340851" x2="302.25774173361265" y2="341.36462731040507"></line><line stroke-width="0.7865654900782428" stroke="lightgray" x1="302.0527805999371" y1="414.83272725335536" x2="302.25774173361265" y2="341.36462731040507"></line><line stroke-width="0.7865654900782428" stroke="lightgray" x1="314.4304862049949" y1="413.6625451004831" x2="302.25774173361265" y2="341.36462731040507"></line><line stroke-width="0.7865654900782428" stroke="lightgray" x1="254.81976946383904" y1="-209.45049009044774" x2="246.30044553694958" y2="-160.4404029256507"></line><line stroke-width="0.7865654900782428" stroke="lightgray" x1="130.9656791232487" y1="553.6679014064675" x2="114.13925970322391" y2="505.60866394083234"></line><line stroke-width="0.7865654900782428" stroke="lightgray" x1="82.73168903611509" y1="560.9769224242684" x2="114.13925970322391" y2="505.60866394083234"></line><line stroke-width="0.7865654900782428" stroke="lightgray" x1="277.28840132347597" y1="417.69521519541274" x2="302.25774173361265" y2="341.36462731040507"></line><line stroke-width="0.7865654900782428" stroke="lightgray" x1="353.4920101533457" y1="386.1327130123418" x2="302.25774173361265" y2="341.36462731040507"></line><line stroke-width="1.1123715837632913" stroke="lightgray" x1="373.24616642389884" y1="348.2834889093378" x2="302.25774173361265" y2="341.36462731040507"></line><line stroke-width="0.7865654900782428" stroke="lightgray" x1="264.70840845849" y1="-204.69639167967546" x2="246.30044553694958" y2="-160.4404029256507"></line><line stroke-width="0.7865654900782428" stroke="lightgray" x1="309.4798355787563" y1="424.09523538696476" x2="302.25774173361265" y2="341.36462731040507"></line><line stroke-width="0.7865654900782428" stroke="lightgray" x1="523.9577845148583" y1="202.89123511578393" x2="465.5314729013073" y2="201.39226841792308"></line><line stroke-width="0.7865654900782428" stroke="lightgray" x1="120.23610324518354" y1="-119.45181866214182" x2="139.0594173650022" y2="-73.3154994817612"></line><line stroke-width="1.1123715837632913" stroke="lightgray" x1="518.8321961420123" y1="180.82805791434365" x2="465.5314729013073" y2="201.39226841792308"></line><line stroke-width="0.7865654900782428" stroke="lightgray" x1="361.3766748267545" y1="-128.58808673937668" x2="331.4695788997791" y2="-86.83810622941904"></line><line stroke-width="0.7865654900782428" stroke="lightgray" x1="118.6110762325883" y1="568.6054164814366" x2="114.13925970322391" y2="505.60866394083234"></line><line stroke-width="0.7865654900782428" stroke="lightgray" x1="199.84612820998473" y1="265.3353020454784" x2="302.25774173361265" y2="341.36462731040507"></line><line stroke-width="0.7865654900782428" stroke="lightgray" x1="199.84612820998473" y1="265.3353020454784" x2="132.09605655424903" y2="190.46965137061434"></line><line stroke-width="0.7865654900782428" stroke="lightgray" x1="146.79762825758135" y1="155.13320194821546" x2="187.67202680852185" y2="156.70904991685612"></line><line stroke-width="0.7865654900782428" stroke="lightgray" x1="311.8828874612802" y1="-10.069083044522776" x2="283.94289132059566" y2="30.97245689345761"></line><line stroke-width="1.1123715837632913" stroke="lightgray" x1="384.1581916331402" y1="351.1923782469142" x2="302.25774173361265" y2="341.36462731040507"></line><line stroke-width="1.1123715837632913" stroke="lightgray" x1="364.61007901905407" y1="364.65888258481914" x2="302.25774173361265" y2="341.36462731040507"></line><line stroke-width="1.1123715837632913" stroke="lightgray" x1="240.92580758485707" y1="-211.46664062170439" x2="246.30044553694958" y2="-160.4404029256507"></line><line stroke-width="0.7865654900782428" stroke="lightgray" x1="91.84254056777658" y1="199.27142774384615" x2="132.09605655424903" y2="190.46965137061434"></line><line stroke-width="1.1123715837632913" stroke="lightgray" x1="524.8375597864472" y1="191.4762246827046" x2="465.5314729013073" y2="201.39226841792308"></line><line stroke-width="0.7865654900782428" stroke="lightgray" x1="325.31620135850454" y1="407.88985878386256" x2="302.25774173361265" y2="341.36462731040507"></line><line stroke-width="0.7865654900782428" stroke="lightgray" x1="79.88010468768718" y1="192.0742158404135" x2="132.09605655424903" y2="190.46965137061434"></line><line stroke-width="0.7865654900782428" stroke="lightgray" x1="345.69439253136056" y1="394.99802722483753" x2="302.25774173361265" y2="341.36462731040507"></line><line stroke-width="0.7865654900782428" stroke="lightgray" x1="336.08491615405956" y1="401.04782398965347" x2="302.25774173361265" y2="341.36462731040507"></line><line stroke-width="1.1123715837632913" stroke="lightgray" x1="84.17117318049829" y1="56.29532414173686" x2="129.67413750229386" y2="81.94313582329164"></line><line stroke-width="0.7865654900782428" stroke="lightgray" x1="374.6625602483566" y1="360.11588868993107" x2="302.25774173361265" y2="341.36462731040507"></line><line stroke-width="0.7865654900782428" stroke="lightgray" x1="103.94260417908731" y1="570.4584503322284" x2="114.13925970322391" y2="505.60866394083234"></line><line stroke-width="0.7865654900782428" stroke="lightgray" x1="91.55758160526645" y1="212.6747154642086" x2="132.09605655424903" y2="190.46965137061434"></line><line stroke-width="0.7865654900782428" stroke="lightgray" x1="370.8845435332629" y1="372.30070607738736" x2="302.25774173361265" y2="341.36462731040507"></line><line stroke-width="0.7865654900782428" stroke="lightgray" x1="415.1102708706764" y1="267.6486798513456" x2="302.25774173361265" y2="341.36462731040507"></line><line stroke-width="0.7865654900782428" stroke="lightgray" x1="415.1102708706764" y1="267.6486798513456" x2="465.5314729013073" y2="201.39226841792308"></line><line stroke-width="0.7865654900782428" stroke="lightgray" x1="143.70462475035433" y1="132.5742911018861" x2="187.67202680852185" y2="156.70904991685612"></line><line stroke-width="1.3623713922958303" stroke="lightgray" x1="384.79878585551575" y1="341.0056424360889" x2="302.25774173361265" y2="341.36462731040507"></line><line stroke-width="0.7865654900782428" stroke="lightgray" x1="363.85045308745504" y1="379.58214778398036" x2="302.25774173361265" y2="341.36462731040507"></line><line stroke-width="1.1123715837632913" stroke="lightgray" x1="384.872014393919" y1="361.32538897140466" x2="302.25774173361265" y2="341.36462731040507"></line><line stroke-width="0.7865654900782428" stroke="lightgray" x1="93.14128048729013" y1="566.6552979638723" x2="114.13925970322391" y2="505.60866394083234"></line><line stroke-width="0.7865654900782428" stroke="lightgray" x1="326.0739973122332" y1="418.1084759120395" x2="302.25774173361265" y2="341.36462731040507"></line><line stroke-width="0.7865654900782428" stroke="lightgray" x1="364.30706967844293" y1="389.68875186367825" x2="302.25774173361265" y2="341.36462731040507"></line><line stroke-width="0.7865654900782428" stroke="lightgray" x1="348.14147258629487" y1="406.22969734595216" x2="302.25774173361265" y2="341.36462731040507"></line><line stroke-width="0.7865654900782428" stroke="lightgray" x1="-23.81796377977821" y1="273.0857011223703" x2="32.42396850950013" y2="273.888371057482"></line><line stroke-width="0.7865654900782428" stroke="lightgray" x1="381.9287958545238" y1="371.4959458852802" x2="302.25774173361265" y2="341.36462731040507"></line><line stroke-width="0.7865654900782428" stroke="lightgray" x1="337.53050943083804" y1="411.6341179143644" x2="302.25774173361265" y2="341.36462731040507"></line><line stroke-width="0.7865654900782428" stroke="lightgray" x1="377.8704303872552" y1="381.4322376876854" x2="302.25774173361265" y2="341.36462731040507"></line><line stroke-width="0.7865654900782428" stroke="lightgray" x1="81.29017151898935" y1="203.38176477679102" x2="132.09605655424903" y2="190.46965137061434"></line><line stroke-width="0.7865654900782428" stroke="lightgray" x1="356.63574318385025" y1="398.04299476555036" x2="302.25774173361265" y2="341.36462731040507"></line><line stroke-width="0.7865654900782428" stroke="lightgray" x1="373.9760563390126" y1="391.02700898085345" x2="302.25774173361265" y2="341.36462731040507"></line><line stroke-width="0.7865654900782428" stroke="lightgray" x1="206.5468232019396" y1="458.4462643724787" x2="114.13925970322391" y2="505.60866394083234"></line><line stroke-width="0.7865654900782428" stroke="lightgray" x1="206.5468232019396" y1="458.4462643724787" x2="302.25774173361265" y2="341.36462731040507"></line><line stroke-width="0.7865654900782428" stroke="lightgray" x1="367.1301721340409" y1="401.11365776247493" x2="302.25774173361265" y2="341.36462731040507"></line><line stroke-width="0.7865654900782428" stroke="lightgray" x1="347.27306598827926" y1="416.8942365415843" x2="302.25774173361265" y2="341.36462731040507"></line><line stroke-width="0.7865654900782428" stroke="lightgray" x1="320.25086922396844" y1="425.969876845909" x2="302.25774173361265" y2="341.36462731040507"></line><line stroke-width="0.7865654900782428" stroke="lightgray" x1="418.9495786308782" y1="1.256832899432216" x2="376.4520457304231" y2="32.91614230372481"></line><line stroke-width="0.7865654900782428" stroke="lightgray" x1="425.67709926953285" y1="14.373953392146262" x2="376.4520457304231" y2="32.91614230372481"></line><line stroke-width="0.7865654900782428" stroke="lightgray" x1="335.38510867147886" y1="422.4480309937314" x2="302.25774173361265" y2="341.36462731040507"></line><line stroke-width="0.7865654900782428" stroke="lightgray" x1="358.0912545038438" y1="409.89576766994674" x2="302.25774173361265" y2="341.36462731040507"></line><line stroke-width="9.918213445925742" stroke="lightgray" x1="302.25774173361265" y1="341.36462731040507" x2="187.67202680852185" y2="156.70904991685612"></line><line stroke-width="3.04635504377451" stroke="lightgray" x1="302.25774173361265" y1="341.36462731040507" x2="270.9965342825153" y2="173.80980019575043"></line><line stroke-width="3.6044958973235848" stroke="lightgray" x1="302.25774173361265" y1="341.36462731040507" x2="235.73145765211677" y2="153.47980632765035"></line><line stroke-width="2.7247427845916605" stroke="lightgray" x1="302.25774173361265" y1="341.36462731040507" x2="298.245641045008" y2="187.67623196799312"></line><line stroke-width="1.9266840999738795" stroke="lightgray" x1="302.25774173361265" y1="341.36462731040507" x2="281.0552312913714" y2="205.04896834512533"></line><line stroke-width="1.5731309801564857" stroke="lightgray" x1="302.25774173361265" y1="341.36462731040507" x2="220.85432923019957" y2="200.0937600262864"></line><line stroke-width="4.235784795675857" stroke="lightgray" x1="302.25774173361265" y1="341.36462731040507" x2="132.09605655424903" y2="190.46965137061434"></line><line stroke-width="4.3794113046895715" stroke="lightgray" x1="302.25774173361265" y1="341.36462731040507" x2="255.17897803255772" y2="184.29459446318722"></line><line stroke-width="1.9266840999738795" stroke="lightgray" x1="302.25774173361265" y1="341.36462731040507" x2="114.13925970322391" y2="505.60866394083234"></line><line stroke-width="2.4873384775338208" stroke="lightgray" x1="302.25774173361265" y1="341.36462731040507" x2="465.5314729013073" y2="201.39226841792308"></line><line stroke-width="0.7865654900782428" stroke="lightgray" x1="210.46584730318523" y1="104.71211854402941" x2="187.67202680852185" y2="156.70904991685612"></line><line stroke-width="0.7865654900782428" stroke="lightgray" x1="210.46584730318523" y1="104.71211854402941" x2="235.73145765211677" y2="153.47980632765035"></line><line stroke-width="0.7865654900782428" stroke="lightgray" x1="129.67413750229386" y1="81.94313582329164" x2="132.09605655424903" y2="190.46965137061434"></line><line stroke-width="0.7865654900782428" stroke="lightgray" x1="376.4520457304231" y1="32.91614230372481" x2="220.85432923019957" y2="200.0937600262864"></line><line stroke-width="1.5731309801564857" stroke="lightgray" x1="32.42396850950013" y1="273.888371057482" x2="114.13925970322391" y2="505.60866394083234"></line><line stroke-width="0.7865654900782428" stroke="lightgray" x1="32.42396850950013" y1="273.888371057482" x2="220.85432923019957" y2="200.0937600262864"></line><line stroke-width="0.7865654900782428" stroke="lightgray" x1="32.42396850950013" y1="273.888371057482" x2="187.67202680852185" y2="156.70904991685612"></line><line stroke-width="0.7865654900782428" stroke="lightgray" x1="10.391833514295952" y1="401.22932226261145" x2="114.13925970322391" y2="505.60866394083234"></line><line stroke-width="0.7865654900782428" stroke="lightgray" x1="179.18817478760343" y1="56.36927442293549" x2="187.67202680852185" y2="156.70904991685612"></line><line stroke-width="0.7865654900782428" stroke="lightgray" x1="272.5208329623243" y1="102.02681559281349" x2="235.73145765211677" y2="153.47980632765035"></line><line stroke-width="1.5731309801564857" stroke="lightgray" x1="187.67202680852185" y1="156.70904991685612" x2="235.73145765211677" y2="153.47980632765035"></line><line stroke-width="1.1123715837632913" stroke="lightgray" x1="187.67202680852185" y1="156.70904991685612" x2="270.9965342825153" y2="173.80980019575043"></line><line stroke-width="1.7588139045703874" stroke="lightgray" x1="187.67202680852185" y1="156.70904991685612" x2="255.17897803255772" y2="184.29459446318722"></line><line stroke-width="1.3623713922958303" stroke="lightgray" x1="132.09605655424903" y1="190.46965137061434" x2="235.73145765211677" y2="153.47980632765035"></line><line stroke-width="0.7865654900782428" stroke="lightgray" x1="132.09605655424903" y1="190.46965137061434" x2="220.85432923019957" y2="200.0937600262864"></line><line stroke-width="0.7865654900782428" stroke="lightgray" x1="298.245641045008" y1="187.67623196799312" x2="270.9965342825153" y2="173.80980019575043"></line><line stroke-width="0.7865654900782428" stroke="lightgray" x1="298.245641045008" y1="187.67623196799312" x2="255.17897803255772" y2="184.29459446318722"></line><line stroke-width="0.7865654900782428" stroke="lightgray" x1="220.85432923019957" y1="200.0937600262864" x2="235.73145765211677" y2="153.47980632765035"></line><line stroke-width="0.7865654900782428" stroke="lightgray" x1="255.17897803255772" y1="184.29459446318722" x2="235.73145765211677" y2="153.47980632765035"></line></g><g class="nodes"><circle r="31.462619603129717" fill="rgb(255, 251, 193)" stroke="black" stroke-width="1px" transform="translate(245.51317464738852,91.95591903221681)"></circle><circle r="4.1621133532253465" fill="rgb(255, 252, 195)" stroke="black" stroke-width="1px" transform="translate(276.24577286251133,313.56218292836206)"></circle><circle r="2.7247427845916605" fill="rgb(255, 252, 197)" stroke="black" stroke-width="1px" transform="translate(468.7388840512033,-120.45895661629825)"></circle><circle r="1.5731309801564857" fill="rgb(255, 255, 204)" stroke="black" stroke-width="1px" transform="translate(269.14208373756514,359.13403880216094)"></circle><circle r="2.7247427845916605" fill="rgb(255, 253, 200)" stroke="black" stroke-width="1px" transform="translate(283.9089879810236,304.8269213183858)"></circle><circle r="2.7247427845916605" fill="rgb(255, 253, 199)" stroke="black" stroke-width="1px" transform="translate(243.6499366715682,264.6672814158257)"></circle><circle r="3.1462619603129713" fill="rgb(255, 252, 198)" stroke="black" stroke-width="1px" transform="translate(93.37576977039595,171.1362553516236)"></circle><circle r="3.1462619603129713" fill="rgb(255, 253, 198)" stroke="black" stroke-width="1px" transform="translate(-38.496639209670356,409.1126620927538)"></circle><circle r="1.5731309801564857" fill="rgb(255, 254, 202)" stroke="black" stroke-width="1px" transform="translate(-5.8565110680802865,293.5159310276134)"></circle><circle r="2.7247427845916605" fill="rgb(255, 253, 199)" stroke="black" stroke-width="1px" transform="translate(268.65247164407987,327.42561376817906)"></circle><circle r="1.5731309801564857" fill="rgb(255, 255, 204)" stroke="black" stroke-width="1px" transform="translate(250.13566834295932,335.7899699228111)"></circle><circle r="6.674229502579747" fill="rgb(255, 251, 194)" stroke="black" stroke-width="1px" transform="translate(300.53477510348637,135.21041499836994)"></circle><circle r="3.517627809140775" fill="rgb(255, 251, 195)" stroke="black" stroke-width="1px" transform="translate(263.14386192300464,348.86800127626776)"></circle><circle r="1.5731309801564857" fill="rgb(255, 254, 202)" stroke="black" stroke-width="1px" transform="translate(221.88336790541487,-197.5509172952066)"></circle><circle r="2.2247431675265825" fill="rgb(255, 253, 199)" stroke="black" stroke-width="1px" transform="translate(93.45648627712312,45.507802570470545)"></circle><circle r="2.2247431675265825" fill="rgb(255, 254, 201)" stroke="black" stroke-width="1px" transform="translate(89.96656428143129,183.30828852173968)"></circle><circle r="4.1621133532253465" fill="rgb(255, 251, 195)" stroke="black" stroke-width="1px" transform="translate(-16.36917908964687,445.1680053053088)"></circle><circle r="2.7247427845916605" fill="rgb(255, 253, 200)" stroke="black" stroke-width="1px" transform="translate(244.77737918822234,363.27943603382346)"></circle><circle r="1.5731309801564857" fill="rgb(255, 255, 203)" stroke="black" stroke-width="1px" transform="translate(-10.02337792320227,254.39660481041224)"></circle><circle r="1.5731309801564857" fill="rgb(255, 254, 203)" stroke="black" stroke-width="1px" transform="translate(413.750933514117,11.625551893372808)"></circle><circle r="1.5731309801564857" fill="rgb(255, 255, 203)" stroke="black" stroke-width="1px" transform="translate(261.7797496410592,337.92727903783555)"></circle><circle r="4.1621133532253465" fill="rgb(255, 251, 194)" stroke="black" stroke-width="1px" transform="translate(185.88290532602852,116.0107118781706)"></circle><circle r="2.2247431675265825" fill="rgb(255, 254, 201)" stroke="black" stroke-width="1px" transform="translate(258.9965986506675,304.5011620038896)"></circle><circle r="3.517627809140775" fill="rgb(255, 252, 197)" stroke="black" stroke-width="1px" transform="translate(333.7832082833253,284.0295128620174)"></circle><circle r="3.517627809140775" fill="rgb(255, 252, 197)" stroke="black" stroke-width="1px" transform="translate(306.98194450745984,280.7393497058336)"></circle><circle r="2.2247431675265825" fill="rgb(255, 254, 201)" stroke="black" stroke-width="1px" transform="translate(248.246278081747,346.90862482243773)"></circle><circle r="2.7247427845916605" fill="rgb(255, 253, 199)" stroke="black" stroke-width="1px" transform="translate(92.99738520654638,543.8496625733877)"></circle><circle r="2.2247431675265825" fill="rgb(255, 253, 199)" stroke="black" stroke-width="1px" transform="translate(322.800678139107,280.54632619604274)"></circle><circle r="2.2247431675265825" fill="rgb(255, 253, 198)" stroke="black" stroke-width="1px" transform="translate(477.401466824103,-114.2072815722652)"></circle><circle r="3.1462619603129713" fill="rgb(255, 252, 196)" stroke="black" stroke-width="1px" transform="translate(161.58852955720928,114.2671764322651)"></circle><circle r="2.7247427845916605" fill="rgb(255, 253, 198)" stroke="black" stroke-width="1px" transform="translate(269.61876930648936,302.8645606088624)"></circle><circle r="2.7247427845916605" fill="rgb(255, 253, 198)" stroke="black" stroke-width="1px" transform="translate(294.2907814600931,300.21209518101955)"></circle><circle r="2.2247431675265825" fill="rgb(255, 254, 201)" stroke="black" stroke-width="1px" transform="translate(344.76601875081195,299.2247403344679)"></circle><circle r="1.5731309801564857" fill="rgb(255, 255, 203)" stroke="black" stroke-width="1px" transform="translate(278.7088354521834,-50.01961805300769)"></circle><circle r="2.2247431675265825" fill="rgb(255, 253, 200)" stroke="black" stroke-width="1px" transform="translate(263.68304182667407,315.37015230563526)"></circle><circle r="1.5731309801564857" fill="rgb(255, 254, 202)" stroke="black" stroke-width="1px" transform="translate(256.26428449890926,325.3203676711509)"></circle><circle r="3.1462619603129713" fill="rgb(255, 253, 198)" stroke="black" stroke-width="1px" transform="translate(344.00163292407245,287.0903612060017)"></circle><circle r="3.517627809140775" fill="rgb(255, 251, 195)" stroke="black" stroke-width="1px" transform="translate(98.52138602439479,157.49742377578505)"></circle><circle r="1.5731309801564857" fill="rgb(255, 255, 203)" stroke="black" stroke-width="1px" transform="translate(251.29511167842762,314.1050108960477)"></circle><circle r="1.5731309801564857" fill="rgb(255, 255, 204)" stroke="black" stroke-width="1px" transform="translate(513.3359426231876,192.7518115861841)"></circle><circle r="1.5731309801564857" fill="rgb(255, 255, 203)" stroke="black" stroke-width="1px" transform="translate(-30.435491182525965,422.87053108740434)"></circle><circle r="3.1462619603129713" fill="rgb(255, 253, 199)" stroke="black" stroke-width="1px" transform="translate(174.32012163929355,112.2775181576723)"></circle><circle r="1.5731309801564857" fill="rgb(255, 255, 204)" stroke="black" stroke-width="1px" transform="translate(259.34626598335143,366.8622553790674)"></circle><circle r="1.5731309801564857" fill="rgb(255, 255, 203)" stroke="black" stroke-width="1px" transform="translate(87.40625986250484,160.606528719274)"></circle><circle r="1.5731309801564857" fill="rgb(255, 255, 203)" stroke="black" stroke-width="1px" transform="translate(295.09596722057285,285.20885280572855)"></circle><circle r="1.5731309801564857" fill="rgb(255, 255, 204)" stroke="black" stroke-width="1px" transform="translate(353.22759266591646,360.77036305642383)"></circle><circle r="2.2247431675265825" fill="rgb(255, 254, 201)" stroke="black" stroke-width="1px" transform="translate(275.047496931337,294.05880850780494)"></circle><circle r="1.5731309801564857" fill="rgb(255, 255, 203)" stroke="black" stroke-width="1px" transform="translate(239.59756962023462,333.3209483930287)"></circle><circle r="2.2247431675265825" fill="rgb(255, 254, 201)" stroke="black" stroke-width="1px" transform="translate(237.3927681130096,345.06449311460034)"></circle><circle r="1.5731309801564857" fill="rgb(255, 255, 204)" stroke="black" stroke-width="1px" transform="translate(338.726773651596,358.8014408331038)"></circle><circle r="1.5731309801564857" fill="rgb(255, 255, 203)" stroke="black" stroke-width="1px" transform="translate(273.54118295194166,370.0156711734558)"></circle><circle r="2.2247431675265825" fill="rgb(255, 253, 200)" stroke="black" stroke-width="1px" transform="translate(70.31116689958675,523.392633991203)"></circle><circle r="2.2247431675265825" fill="rgb(255, 253, 199)" stroke="black" stroke-width="1px" transform="translate(397.67481348506425,-8.293279331866174)"></circle><circle r="1.5731309801564857" fill="rgb(255, 255, 203)" stroke="black" stroke-width="1px" transform="translate(66.24784367392816,533.1240930958587)"></circle><circle r="1.5731309801564857" fill="rgb(255, 255, 203)" stroke="black" stroke-width="1px" transform="translate(92.96709333779141,555.4327137489528)"></circle><circle r="1.5731309801564857" fill="rgb(255, 255, 203)" stroke="black" stroke-width="1px" transform="translate(319.4037419208588,380.51375648646473)"></circle><circle r="1.5731309801564857" fill="rgb(255, 255, 204)" stroke="black" stroke-width="1px" transform="translate(284.5234036842956,374.1198168109831)"></circle><circle r="1.5731309801564857" fill="rgb(255, 255, 203)" stroke="black" stroke-width="1px" transform="translate(354.48816907742923,326.8439514931561)"></circle><circle r="3.517627809140775" fill="rgb(255, 252, 197)" stroke="black" stroke-width="1px" transform="translate(252.42280878389002,115.47607835841153)"></circle><circle r="2.2247431675265825" fill="rgb(255, 253, 199)" stroke="black" stroke-width="1px" transform="translate(253.37312733614033,356.7959965642816)"></circle><circle r="3.517627809140775" fill="rgb(255, 252, 196)" stroke="black" stroke-width="1px" transform="translate(332.56182405901933,-132.01643814206628)"></circle><circle r="2.7247427845916605" fill="rgb(255, 253, 199)" stroke="black" stroke-width="1px" transform="translate(99.60095291907304,-96.59772930679105)"></circle><circle r="2.2247431675265825" fill="rgb(255, 253, 198)" stroke="black" stroke-width="1px" transform="translate(351.02619405757696,-124.73862463824513)"></circle><circle r="1.5731309801564857" fill="rgb(255, 255, 203)" stroke="black" stroke-width="1px" transform="translate(327.5918169111745,367.39461183518057)"></circle><circle r="2.2247431675265825" fill="rgb(255, 253, 200)" stroke="black" stroke-width="1px" transform="translate(356.04327020922824,303.8544722249596)"></circle><circle r="1.5731309801564857" fill="rgb(255, 255, 203)" stroke="black" stroke-width="1px" transform="translate(343.9624598225551,368.3136901855991)"></circle><circle r="1.5731309801564857" fill="rgb(255, 255, 203)" stroke="black" stroke-width="1px" transform="translate(274.1734685619447,383.2775682705757)"></circle><circle r="1.5731309801564857" fill="rgb(255, 255, 203)" stroke="black" stroke-width="1px" transform="translate(250.80762024385393,374.2968843137268)"></circle><circle r="2.2247431675265825" fill="rgb(255, 254, 200)" stroke="black" stroke-width="1px" transform="translate(115.44306186348285,-109.31712463786987)"></circle><circle r="1.5731309801564857" fill="rgb(255, 255, 204)" stroke="black" stroke-width="1px" transform="translate(308.9412226805052,376.8095082557683)"></circle><circle r="1.5731309801564857" fill="rgb(255, 255, 203)" stroke="black" stroke-width="1px" transform="translate(333.77121734401305,297.40391528187814)"></circle><circle r="1.5731309801564857" fill="rgb(255, 255, 203)" stroke="black" stroke-width="1px" transform="translate(298.3299927389399,382.08357739712926)"></circle><circle r="1.5731309801564857" fill="rgb(255, 254, 203)" stroke="black" stroke-width="1px" transform="translate(287.53261600851374,386.20637605799453)"></circle><circle r="1.5731309801564857" fill="rgb(255, 255, 203)" stroke="black" stroke-width="1px" transform="translate(69.027397481065,543.562289101008)"></circle><circle r="3.517627809140775" fill="rgb(255, 252, 196)" stroke="black" stroke-width="1px" transform="translate(213.54839789060344,-22.59669563585829)"></circle><circle r="2.7247427845916605" fill="rgb(255, 252, 196)" stroke="black" stroke-width="1px" transform="translate(265.77864825674754,393.28957675289314)"></circle><circle r="1.5731309801564857" fill="rgb(255, 255, 203)" stroke="black" stroke-width="1px" transform="translate(-11.552836535463594,269.06108485602977)"></circle><circle r="1.5731309801564857" fill="rgb(255, 254, 202)" stroke="black" stroke-width="1px" transform="translate(-0.05459514727015483,307.7271649453289)"></circle><circle r="2.2247431675265825" fill="rgb(255, 253, 200)" stroke="black" stroke-width="1px" transform="translate(146.33360639672946,19.809453815213594)"></circle><circle r="1.5731309801564857" fill="rgb(255, 254, 201)" stroke="black" stroke-width="1px" transform="translate(304.35045104944646,292.9048389487028)"></circle><circle r="2.7247427845916605" fill="rgb(255, 254, 201)" stroke="black" stroke-width="1px" transform="translate(371.8826255634856,309.6590265072697)"></circle><circle r="2.7247427845916605" fill="rgb(255, 252, 197)" stroke="black" stroke-width="1px" transform="translate(-22.35380019531216,433.5945686309233)"></circle><circle r="1.5731309801564857" fill="rgb(255, 254, 203)" stroke="black" stroke-width="1px" transform="translate(422.8517593862989,26.21446383086167)"></circle><circle r="2.2247431675265825" fill="rgb(255, 253, 199)" stroke="black" stroke-width="1px" transform="translate(73.81868758346134,554.1623099288789)"></circle><circle r="1.5731309801564857" fill="rgb(255, 254, 202)" stroke="black" stroke-width="1px" transform="translate(77.22681068742398,181.48126928208254)"></circle><circle r="3.517627809140775" fill="rgb(255, 252, 197)" stroke="black" stroke-width="1px" transform="translate(354.47403059531723,292.1523577043796)"></circle><circle r="2.7247427845916605" fill="rgb(255, 253, 199)" stroke="black" stroke-width="1px" transform="translate(365.3746149532481,300.875812196323)"></circle><circle r="1.5731309801564857" fill="rgb(255, 255, 203)" stroke="black" stroke-width="1px" transform="translate(-42.16548192851816,420.7467662234678)"></circle><circle r="2.2247431675265825" fill="rgb(255, 253, 200)" stroke="black" stroke-width="1px" transform="translate(-29.076666149440538,442.5688825460291)"></circle><circle r="1.5731309801564857" fill="rgb(255, 255, 204)" stroke="black" stroke-width="1px" transform="translate(151.44272480874952,122.56201348392092)"></circle><circle r="1.5731309801564857" fill="rgb(255, 254, 202)" stroke="black" stroke-width="1px" transform="translate(202.48358005405947,448.0590971087526)"></circle><circle r="1.5731309801564857" fill="rgb(255, 255, 203)" stroke="black" stroke-width="1px" transform="translate(223.96002609675588,-54.34826896006215)"></circle><circle r="2.2247431675265825" fill="rgb(255, 254, 201)" stroke="black" stroke-width="1px" transform="translate(244.7588241382243,322.5573620398359)"></circle><circle r="2.2247431675265825" fill="rgb(255, 253, 200)" stroke="black" stroke-width="1px" transform="translate(336.71589822785825,308.5772913259675)"></circle><circle r="1.5731309801564857" fill="rgb(255, 255, 204)" stroke="black" stroke-width="1px" transform="translate(314.54439608515753,288.1040966913545)"></circle><circle r="2.2247431675265825" fill="rgb(255, 253, 200)" stroke="black" stroke-width="1px" transform="translate(263.45746491795137,378.0032115178094)"></circle><circle r="1.5731309801564857" fill="rgb(255, 254, 203)" stroke="black" stroke-width="1px" transform="translate(257.31907892199723,386.08430383390555)"></circle><circle r="1.5731309801564857" fill="rgb(255, 255, 204)" stroke="black" stroke-width="1px" transform="translate(518.0078123504769,211.107885750191)"></circle><circle r="1.5731309801564857" fill="rgb(255, 255, 203)" stroke="black" stroke-width="1px" transform="translate(294.2767350412295,-45.842901111582286)"></circle><circle r="1.5731309801564857" fill="rgb(255, 255, 203)" stroke="black" stroke-width="1px" transform="translate(310.37944764598063,390.8025211391386)"></circle><circle r="1.5731309801564857" fill="rgb(255, 255, 203)" stroke="black" stroke-width="1px" transform="translate(238.5898394176338,371.342708072141)"></circle><circle r="2.2247431675265825" fill="rgb(255, 254, 201)" stroke="black" stroke-width="1px" transform="translate(324.66932018321717,293.28556784195206)"></circle><circle r="2.7247427845916605" fill="rgb(255, 252, 197)" stroke="black" stroke-width="1px" transform="translate(194.5515704296822,452.95037673215785)"></circle><circle r="1.5731309801564857" fill="rgb(255, 255, 203)" stroke="black" stroke-width="1px" transform="translate(116.21487466849378,551.1110760261688)"></circle><circle r="1.5731309801564857" fill="rgb(255, 254, 202)" stroke="black" stroke-width="1px" transform="translate(286.00466833739387,291.18559865532046)"></circle><circle r="1.5731309801564857" fill="rgb(255, 255, 203)" stroke="black" stroke-width="1px" transform="translate(81.8683513626361,545.8954366412264)"></circle><circle r="1.5731309801564857" fill="rgb(255, 255, 203)" stroke="black" stroke-width="1px" transform="translate(333.17954410978444,376.7247503595031)"></circle><circle r="1.5731309801564857" fill="rgb(255, 255, 203)" stroke="black" stroke-width="1px" transform="translate(326.8604998379211,387.93291223815197)"></circle><circle r="1.5731309801564857" fill="rgb(255, 255, 203)" stroke="black" stroke-width="1px" transform="translate(79.90926655558607,534.0155387941066)"></circle><circle r="1.5731309801564857" fill="rgb(255, 255, 203)" stroke="black" stroke-width="1px" transform="translate(299.7150746264216,395.16209014676616)"></circle><circle r="1.5731309801564857" fill="rgb(255, 255, 204)" stroke="black" stroke-width="1px" transform="translate(281.4501552761986,408.4190145437277)"></circle><circle r="2.2247431675265825" fill="rgb(255, 254, 201)" stroke="black" stroke-width="1px" transform="translate(234.64762615526325,112.19414381076655)"></circle><circle r="2.2247431675265825" fill="rgb(255, 253, 200)" stroke="black" stroke-width="1px" transform="translate(107.99354139897004,561.1976905859223)"></circle><circle r="1.5731309801564857" fill="rgb(255, 255, 203)" stroke="black" stroke-width="1px" transform="translate(133.15167598213088,-117.84768030007899)"></circle><circle r="1.5731309801564857" fill="rgb(255, 255, 203)" stroke="black" stroke-width="1px" transform="translate(239.47188303520517,-56.17946602257517)"></circle><circle r="1.5731309801564857" fill="rgb(255, 255, 204)" stroke="black" stroke-width="1px" transform="translate(249.42842271099266,392.6204083755505)"></circle><circle r="1.5731309801564857" fill="rgb(255, 255, 204)" stroke="black" stroke-width="1px" transform="translate(288.78336436460256,398.1816201974171)"></circle><circle r="1.5731309801564857" fill="rgb(255, 254, 202)" stroke="black" stroke-width="1px" transform="translate(-12.213028203198432,281.76381869383965)"></circle><circle r="1.5731309801564857" fill="rgb(255, 254, 202)" stroke="black" stroke-width="1px" transform="translate(485.1001054626134,-101.24495762222737)"></circle><circle r="1.5731309801564857" fill="rgb(255, 255, 203)" stroke="black" stroke-width="1px" transform="translate(123.54714806521626,559.9736200514479)"></circle><circle r="2.7247427845916605" fill="rgb(255, 253, 199)" stroke="black" stroke-width="1px" transform="translate(509.9571778632283,174.50655287933768)"></circle><circle r="1.5731309801564857" fill="rgb(255, 254, 200)" stroke="black" stroke-width="1px" transform="translate(235.72118534694002,239.21318723478188)"></circle><circle r="2.2247431675265825" fill="rgb(255, 253, 200)" stroke="black" stroke-width="1px" transform="translate(265.6885989437072,252.09342038897023)"></circle><circle r="1.5731309801564857" fill="rgb(255, 255, 204)" stroke="black" stroke-width="1px" transform="translate(237.19641202713873,356.256552957963)"></circle><circle r="1.5731309801564857" fill="rgb(255, 255, 204)" stroke="black" stroke-width="1px" transform="translate(244.25634824136313,382.4893424737484)"></circle><circle r="1.5731309801564857" fill="rgb(255, 254, 202)" stroke="black" stroke-width="1px" transform="translate(351.7919491644529,338.59344328996025)"></circle><circle r="3.1462619603129713" fill="rgb(255, 253, 198)" stroke="black" stroke-width="1px" transform="translate(315.8426176805167,301.27614923180164)"></circle><circle r="1.5731309801564857" fill="rgb(255, 255, 203)" stroke="black" stroke-width="1px" transform="translate(344.8025833771557,323.90654661970655)"></circle><circle r="1.5731309801564857" fill="rgb(255, 255, 203)" stroke="black" stroke-width="1px" transform="translate(257.9953945097432,400.61406953964945)"></circle><circle r="1.5731309801564857" fill="rgb(255, 254, 202)" stroke="black" stroke-width="1px" transform="translate(338.6968975920853,347.0821339690886)"></circle><circle r="2.2247431675265825" fill="rgb(255, 253, 200)" stroke="black" stroke-width="1px" transform="translate(-37.99980986198974,432.49527462231146)"></circle><circle r="2.2247431675265825" fill="rgb(255, 254, 200)" stroke="black" stroke-width="1px" transform="translate(333.3352819059206,319.75928570339295)"></circle><circle r="2.7247427845916605" fill="rgb(255, 253, 199)" stroke="black" stroke-width="1px" transform="translate(347.5233991254472,312.98226777940715)"></circle><circle r="2.7247427845916605" fill="rgb(255, 253, 198)" stroke="black" stroke-width="1px" transform="translate(339.4809838781778,334.22086921249246)"></circle><circle r="1.5731309801564857" fill="rgb(255, 255, 203)" stroke="black" stroke-width="1px" transform="translate(313.4075139481671,402.31257115182717)"></circle><circle r="2.2247431675265825" fill="rgb(255, 253, 198)" stroke="black" stroke-width="1px" transform="translate(366.868637025208,-116.13655593216767)"></circle><circle r="1.5731309801564857" fill="rgb(255, 255, 203)" stroke="black" stroke-width="1px" transform="translate(277.72883917906006,394.534048063849)"></circle><circle r="1.5731309801564857" fill="rgb(255, 255, 203)" stroke="black" stroke-width="1px" transform="translate(292.33569964560775,409.233145316406)"></circle><circle r="2.2247431675265825" fill="rgb(255, 254, 200)" stroke="black" stroke-width="1px" transform="translate(305.44350708022165,306.0875520979532)"></circle><circle r="2.7247427845916605" fill="rgb(255, 253, 199)" stroke="black" stroke-width="1px" transform="translate(358.479588877664,314.99474737603714)"></circle><circle r="2.2247431675265825" fill="rgb(255, 253, 199)" stroke="black" stroke-width="1px" transform="translate(246.0845779067283,-201.11944144573664)"></circle><circle r="1.5731309801564857" fill="rgb(255, 255, 204)" stroke="black" stroke-width="1px" transform="translate(264.9658379750217,410.5050600351218)"></circle><circle r="2.2247431675265825" fill="rgb(255, 254, 201)" stroke="black" stroke-width="1px" transform="translate(323.9707156749132,309.6800598722114)"></circle><circle r="1.5731309801564857" fill="rgb(255, 255, 204)" stroke="black" stroke-width="1px" transform="translate(156.01214052968666,133.44047630053763)"></circle><circle r="1.5731309801564857" fill="rgb(255, 255, 204)" stroke="black" stroke-width="1px" transform="translate(271.7803105811299,404.18727102476987)"></circle><circle r="1.5731309801564857" fill="rgb(255, 254, 203)" stroke="black" stroke-width="1px" transform="translate(362.95850364757945,341.14029944614026)"></circle><circle r="2.2247431675265825" fill="rgb(255, 254, 201)" stroke="black" stroke-width="1px" transform="translate(254.75557609064137,257.5294649236079)"></circle><circle r="2.2247431675265825" fill="rgb(255, 254, 201)" stroke="black" stroke-width="1px" transform="translate(365.7465389679368,330.04368296822895)"></circle><circle r="1.5731309801564857" fill="rgb(255, 254, 202)" stroke="black" stroke-width="1px" transform="translate(-20.02690215596916,260.8038566654629)"></circle><circle r="1.5731309801564857" fill="rgb(255, 254, 203)" stroke="black" stroke-width="1px" transform="translate(407.8051497851484,-3.3499747051271465)"></circle><circle r="1.5731309801564857" fill="rgb(255, 255, 204)" stroke="black" stroke-width="1px" transform="translate(167.32114456709505,123.73175338863417)"></circle><circle r="1.5731309801564857" fill="rgb(255, 254, 202)" stroke="black" stroke-width="1px" transform="translate(495.06218974829363,-87.25942267699632)"></circle><circle r="1.5731309801564857" fill="rgb(255, 254, 202)" stroke="black" stroke-width="1px" transform="translate(230.92193488078095,-204.18817898125806)"></circle><circle r="1.5731309801564857" fill="rgb(255, 255, 203)" stroke="black" stroke-width="1px" transform="translate(158.92636792842322,12.427217477185309)"></circle><circle r="1.5731309801564857" fill="rgb(255, 255, 203)" stroke="black" stroke-width="1px" transform="translate(104.25486155118564,-108.87240569527718)"></circle><circle r="2.2247431675265825" fill="rgb(255, 254, 201)" stroke="black" stroke-width="1px" transform="translate(146.05636393023437,143.9469023425429)"></circle><circle r="1.5731309801564857" fill="rgb(255, 254, 202)" stroke="black" stroke-width="1px" transform="translate(-17.903367100913528,295.2779778136696)"></circle><circle r="2.2247431675265825" fill="rgb(255, 254, 201)" stroke="black" stroke-width="1px" transform="translate(351.0131340640396,349.52232682480565)"></circle><circle r="4.1621133532253465" fill="rgb(255, 252, 196)" stroke="black" stroke-width="1px" transform="translate(367.88900175149274,319.91979834783854)"></circle><circle r="1.5731309801564857" fill="rgb(255, 254, 202)" stroke="black" stroke-width="1px" transform="translate(496.4462031135694,-99.31659479707159)"></circle><circle r="2.2247431675265825" fill="rgb(255, 254, 201)" stroke="black" stroke-width="1px" transform="translate(378.12470289009644,319.96386018920475)"></circle><circle r="2.2247431675265825" fill="rgb(255, 254, 201)" stroke="black" stroke-width="1px" transform="translate(362.9781677216558,353.4289796467818)"></circle><circle r="1.5731309801564857" fill="rgb(255, 254, 203)" stroke="black" stroke-width="1px" transform="translate(381.69289000456365,329.90317603627255)"></circle><circle r="1.5731309801564857" fill="rgb(255, 254, 202)" stroke="black" stroke-width="1px" transform="translate(488.832292639932,-113.04736534846782)"></circle><circle r="2.2247431675265825" fill="rgb(255, 254, 201)" stroke="black" stroke-width="1px" transform="translate(80.44070735182612,170.66602258409722)"></circle><circle r="1.5731309801564857" fill="rgb(255, 254, 202)" stroke="black" stroke-width="1px" transform="translate(192.60178435139235,440.9817702543693)"></circle><circle r="2.2247431675265825" fill="rgb(255, 253, 200)" stroke="black" stroke-width="1px" transform="translate(-11.517882190408443,305.034033933995)"></circle><circle r="1.5731309801564857" fill="rgb(255, 254, 202)" stroke="black" stroke-width="1px" transform="translate(345.28244679196223,-135.21498049521517)"></circle><circle r="1.5731309801564857" fill="rgb(255, 254, 202)" stroke="black" stroke-width="1px" transform="translate(272.1275267112489,-196.62787213681668)"></circle><circle r="1.5731309801564857" fill="rgb(255, 255, 203)" stroke="black" stroke-width="1px" transform="translate(345.38807759018556,379.72427481858864)"></circle><circle r="1.5731309801564857" fill="rgb(255, 255, 203)" stroke="black" stroke-width="1px" transform="translate(-23.904058775744513,285.2882530697096)"></circle><circle r="1.5731309801564857" fill="rgb(255, 254, 203)" stroke="black" stroke-width="1px" transform="translate(373.8487726875717,337.0969229073584)"></circle><circle r="1.5731309801564857" fill="rgb(255, 255, 203)" stroke="black" stroke-width="1px" transform="translate(103.85122402028246,550.076106508512)"></circle><circle r="1.5731309801564857" fill="rgb(255, 255, 203)" stroke="black" stroke-width="1px" transform="translate(288.4640589042176,420.6468582721464)"></circle><circle r="1.5731309801564857" fill="rgb(255, 255, 203)" stroke="black" stroke-width="1px" transform="translate(355.83401857204825,373.23582924151066)"></circle><circle r="1.5731309801564857" fill="rgb(255, 255, 204)" stroke="black" stroke-width="1px" transform="translate(337.6973875285417,388.33106912652016)"></circle><circle r="1.5731309801564857" fill="rgb(255, 255, 203)" stroke="black" stroke-width="1px" transform="translate(324.00683432272734,397.60629949637877)"></circle><circle r="1.5731309801564857" fill="rgb(255, 255, 204)" stroke="black" stroke-width="1px" transform="translate(298.40830229712304,424.85768747032915)"></circle><circle r="1.5731309801564857" fill="rgb(255, 255, 204)" stroke="black" stroke-width="1px" transform="translate(303.5109483249098,404.7524028340851)"></circle><circle r="1.5731309801564857" fill="rgb(255, 255, 204)" stroke="black" stroke-width="1px" transform="translate(302.0527805999371,414.83272725335536)"></circle><circle r="1.5731309801564857" fill="rgb(255, 255, 204)" stroke="black" stroke-width="1px" transform="translate(314.4304862049949,413.6625451004831)"></circle><circle r="1.5731309801564857" fill="rgb(255, 254, 202)" stroke="black" stroke-width="1px" transform="translate(254.81976946383904,-209.45049009044774)"></circle><circle r="1.5731309801564857" fill="rgb(255, 255, 203)" stroke="black" stroke-width="1px" transform="translate(130.9656791232487,553.6679014064675)"></circle><circle r="1.5731309801564857" fill="rgb(255, 255, 203)" stroke="black" stroke-width="1px" transform="translate(82.73168903611509,560.9769224242684)"></circle><circle r="1.5731309801564857" fill="rgb(255, 255, 204)" stroke="black" stroke-width="1px" transform="translate(277.28840132347597,417.69521519541274)"></circle><circle r="1.5731309801564857" fill="rgb(255, 255, 204)" stroke="black" stroke-width="1px" transform="translate(353.4920101533457,386.1327130123418)"></circle><circle r="1.5731309801564857" fill="rgb(255, 254, 202)" stroke="black" stroke-width="1px" transform="translate(373.24616642389884,348.2834889093378)"></circle><circle r="1.5731309801564857" fill="rgb(255, 254, 202)" stroke="black" stroke-width="1px" transform="translate(264.70840845849,-204.69639167967546)"></circle><circle r="1.5731309801564857" fill="rgb(255, 255, 203)" stroke="black" stroke-width="1px" transform="translate(309.4798355787563,424.09523538696476)"></circle><circle r="1.5731309801564857" fill="rgb(255, 255, 204)" stroke="black" stroke-width="1px" transform="translate(523.9577845148583,202.89123511578393)"></circle><circle r="1.5731309801564857" fill="rgb(255, 255, 203)" stroke="black" stroke-width="1px" transform="translate(120.23610324518354,-119.45181866214182)"></circle><circle r="2.2247431675265825" fill="rgb(255, 254, 201)" stroke="black" stroke-width="1px" transform="translate(518.8321961420123,180.82805791434365)"></circle><circle r="1.5731309801564857" fill="rgb(255, 254, 202)" stroke="black" stroke-width="1px" transform="translate(361.3766748267545,-128.58808673937668)"></circle><circle r="1.5731309801564857" fill="rgb(255, 255, 203)" stroke="black" stroke-width="1px" transform="translate(118.6110762325883,568.6054164814366)"></circle><circle r="1.5731309801564857" fill="rgb(255, 254, 203)" stroke="black" stroke-width="1px" transform="translate(199.84612820998473,265.3353020454784)"></circle><circle r="1.5731309801564857" fill="rgb(255, 255, 204)" stroke="black" stroke-width="1px" transform="translate(146.79762825758135,155.13320194821546)"></circle><circle r="1.5731309801564857" fill="rgb(255, 255, 203)" stroke="black" stroke-width="1px" transform="translate(311.8828874612802,-10.069083044522776)"></circle><circle r="2.7247427845916605" fill="rgb(255, 253, 198)" stroke="black" stroke-width="1px" transform="translate(384.1581916331402,351.1923782469142)"></circle><circle r="1.5731309801564857" fill="rgb(255, 254, 202)" stroke="black" stroke-width="1px" transform="translate(364.61007901905407,364.65888258481914)"></circle><circle r="2.2247431675265825" fill="rgb(255, 253, 199)" stroke="black" stroke-width="1px" transform="translate(240.92580758485707,-211.46664062170439)"></circle><circle r="1.5731309801564857" fill="rgb(255, 255, 203)" stroke="black" stroke-width="1px" transform="translate(91.84254056777658,199.27142774384615)"></circle><circle r="2.2247431675265825" fill="rgb(255, 254, 201)" stroke="black" stroke-width="1px" transform="translate(524.8375597864472,191.4762246827046)"></circle><circle r="1.5731309801564857" fill="rgb(255, 255, 204)" stroke="black" stroke-width="1px" transform="translate(325.31620135850454,407.88985878386256)"></circle><circle r="1.5731309801564857" fill="rgb(255, 255, 204)" stroke="black" stroke-width="1px" transform="translate(79.88010468768718,192.0742158404135)"></circle><circle r="1.5731309801564857" fill="rgb(255, 255, 204)" stroke="black" stroke-width="1px" transform="translate(345.69439253136056,394.99802722483753)"></circle><circle r="1.5731309801564857" fill="rgb(255, 255, 203)" stroke="black" stroke-width="1px" transform="translate(336.08491615405956,401.04782398965347)"></circle><circle r="2.2247431675265825" fill="rgb(255, 254, 201)" stroke="black" stroke-width="1px" transform="translate(84.17117318049829,56.29532414173686)"></circle><circle r="1.5731309801564857" fill="rgb(255, 255, 204)" stroke="black" stroke-width="1px" transform="translate(374.6625602483566,360.11588868993107)"></circle><circle r="1.5731309801564857" fill="rgb(255, 255, 203)" stroke="black" stroke-width="1px" transform="translate(103.94260417908731,570.4584503322284)"></circle><circle r="1.5731309801564857" fill="rgb(255, 255, 203)" stroke="black" stroke-width="1px" transform="translate(91.55758160526645,212.6747154642086)"></circle><circle r="1.5731309801564857" fill="rgb(255, 255, 203)" stroke="black" stroke-width="1px" transform="translate(370.8845435332629,372.30070607738736)"></circle><circle r="1.5731309801564857" fill="rgb(255, 254, 202)" stroke="black" stroke-width="1px" transform="translate(415.1102708706764,267.6486798513456)"></circle><circle r="1.5731309801564857" fill="rgb(255, 255, 204)" stroke="black" stroke-width="1px" transform="translate(143.70462475035433,132.5742911018861)"></circle><circle r="1.5731309801564857" fill="rgb(255, 254, 203)" stroke="black" stroke-width="1px" transform="translate(384.79878585551575,341.0056424360889)"></circle><circle r="1.5731309801564857" fill="rgb(255, 255, 203)" stroke="black" stroke-width="1px" transform="translate(363.85045308745504,379.58214778398036)"></circle><circle r="1.5731309801564857" fill="rgb(255, 254, 202)" stroke="black" stroke-width="1px" transform="translate(384.872014393919,361.32538897140466)"></circle><circle r="1.5731309801564857" fill="rgb(255, 255, 203)" stroke="black" stroke-width="1px" transform="translate(93.14128048729013,566.6552979638723)"></circle><circle r="1.5731309801564857" fill="rgb(255, 255, 203)" stroke="black" stroke-width="1px" transform="translate(326.0739973122332,418.1084759120395)"></circle><circle r="1.5731309801564857" fill="rgb(255, 255, 204)" stroke="black" stroke-width="1px" transform="translate(364.30706967844293,389.68875186367825)"></circle><circle r="1.5731309801564857" fill="rgb(255, 255, 203)" stroke="black" stroke-width="1px" transform="translate(348.14147258629487,406.22969734595216)"></circle><circle r="2.2247431675265825" fill="rgb(255, 253, 200)" stroke="black" stroke-width="1px" transform="translate(-23.81796377977821,273.0857011223703)"></circle><circle r="1.5731309801564857" fill="rgb(255, 255, 204)" stroke="black" stroke-width="1px" transform="translate(381.9287958545238,371.4959458852802)"></circle><circle r="1.5731309801564857" fill="rgb(255, 255, 204)" stroke="black" stroke-width="1px" transform="translate(337.53050943083804,411.6341179143644)"></circle><circle r="2.2247431675265825" fill="rgb(255, 253, 199)" stroke="black" stroke-width="1px" transform="translate(377.8704303872552,381.4322376876854)"></circle><circle r="1.5731309801564857" fill="rgb(255, 255, 204)" stroke="black" stroke-width="1px" transform="translate(81.29017151898935,203.38176477679102)"></circle><circle r="1.5731309801564857" fill="rgb(255, 255, 204)" stroke="black" stroke-width="1px" transform="translate(356.63574318385025,398.04299476555036)"></circle><circle r="1.5731309801564857" fill="rgb(255, 255, 203)" stroke="black" stroke-width="1px" transform="translate(373.9760563390126,391.02700898085345)"></circle><circle r="1.5731309801564857" fill="rgb(255, 254, 202)" stroke="black" stroke-width="1px" transform="translate(206.5468232019396,458.4462643724787)"></circle><circle r="1.5731309801564857" fill="rgb(255, 255, 203)" stroke="black" stroke-width="1px" transform="translate(367.1301721340409,401.11365776247493)"></circle><circle r="1.5731309801564857" fill="rgb(255, 255, 204)" stroke="black" stroke-width="1px" transform="translate(347.27306598827926,416.8942365415843)"></circle><circle r="1.5731309801564857" fill="rgb(255, 255, 204)" stroke="black" stroke-width="1px" transform="translate(320.25086922396844,425.969876845909)"></circle><circle r="1.5731309801564857" fill="rgb(255, 254, 203)" stroke="black" stroke-width="1px" transform="translate(418.9495786308782,1.256832899432216)"></circle><circle r="1.5731309801564857" fill="rgb(255, 254, 203)" stroke="black" stroke-width="1px" transform="translate(425.67709926953285,14.373953392146262)"></circle><circle r="1.5731309801564857" fill="rgb(255, 255, 203)" stroke="black" stroke-width="1px" transform="translate(335.38510867147886,422.4480309937314)"></circle><circle r="1.5731309801564857" fill="rgb(255, 255, 204)" stroke="black" stroke-width="1px" transform="translate(358.0912545038438,409.89576766994674)"></circle><circle r="20.988185066117623" fill="rgb(254, 221, 129)" stroke="black" stroke-width="1px" transform="translate(302.25774173361265,341.36462731040507)"></circle><circle r="1.5731309801564857" fill="rgb(254, 226, 138)" stroke="black" stroke-width="1px" transform="translate(210.46584730318523,104.71211854402941)"></circle><circle r="1.5731309801564857" fill="rgb(254, 221, 129)" stroke="black" stroke-width="1px" transform="translate(273.8577694273258,-3.010215246002452)"></circle><circle r="2.2247431675265825" fill="rgb(254, 215, 119)" stroke="black" stroke-width="1px" transform="translate(139.0594173650022,-73.3154994817612)"></circle><circle r="1.5731309801564857" fill="rgb(254, 226, 137)" stroke="black" stroke-width="1px" transform="translate(448.6088059399389,-76.72768162517603)"></circle><circle r="1.5731309801564857" fill="rgb(254, 210, 112)" stroke="black" stroke-width="1px" transform="translate(246.30044553694958,-160.4404029256507)"></circle><circle r="1.5731309801564857" fill="rgb(254, 213, 117)" stroke="black" stroke-width="1px" transform="translate(129.67413750229386,81.94313582329164)"></circle><circle r="1.5731309801564857" fill="rgb(255, 228, 142)" stroke="black" stroke-width="1px" transform="translate(264.30737873858527,53.41722165669094)"></circle><circle r="2.2247431675265825" fill="rgb(255, 227, 140)" stroke="black" stroke-width="1px" transform="translate(230.23351791870374,23.885400148027102)"></circle><circle r="1.5731309801564857" fill="rgb(255, 227, 141)" stroke="black" stroke-width="1px" transform="translate(376.4520457304231,32.91614230372481)"></circle><circle r="3.517627809140775" fill="rgb(254, 225, 137)" stroke="black" stroke-width="1px" transform="translate(32.42396850950013,273.888371057482)"></circle><circle r="2.2247431675265825" fill="rgb(254, 226, 139)" stroke="black" stroke-width="1px" transform="translate(237.88305606323144,-7.839783998867974)"></circle><circle r="2.7247427845916605" fill="rgb(254, 222, 131)" stroke="black" stroke-width="1px" transform="translate(10.391833514295952,401.22932226261145)"></circle><circle r="1.5731309801564857" fill="rgb(255, 229, 143)" stroke="black" stroke-width="1px" transform="translate(283.94289132059566,30.97245689345761)"></circle><circle r="1.5731309801564857" fill="rgb(255, 227, 139)" stroke="black" stroke-width="1px" transform="translate(246.1393510119023,49.9012180762134)"></circle><circle r="1.5731309801564857" fill="rgb(255, 229, 144)" stroke="black" stroke-width="1px" transform="translate(179.18817478760343,56.36927442293549)"></circle><circle r="1.5731309801564857" fill="rgb(255, 230, 145)" stroke="black" stroke-width="1px" transform="translate(272.5208329623243,102.02681559281349)"></circle><circle r="1.5731309801564857" fill="rgb(254, 224, 134)" stroke="black" stroke-width="1px" transform="translate(331.4695788997791,-86.83810622941904)"></circle><circle r="4.719392940469457" fill="rgb(254, 167, 73)" stroke="black" stroke-width="1px" transform="translate(187.67202680852185,156.70904991685612)"></circle><circle r="2.7247427845916605" fill="rgb(254, 178, 80)" stroke="black" stroke-width="1px" transform="translate(114.13925970322391,505.60866394083234)"></circle><circle r="1.5731309801564857" fill="rgb(254, 184, 85)" stroke="black" stroke-width="1px" transform="translate(281.0552312913714,205.04896834512533)"></circle><circle r="1.5731309801564857" fill="rgb(254, 170, 74)" stroke="black" stroke-width="1px" transform="translate(465.5314729013073,201.39226841792308)"></circle><circle r="3.517627809140775" fill="rgb(254, 172, 76)" stroke="black" stroke-width="1px" transform="translate(132.09605655424903,190.46965137061434)"></circle><circle r="1.5731309801564857" fill="rgb(254, 173, 76)" stroke="black" stroke-width="1px" transform="translate(298.245641045008,187.67623196799312)"></circle><circle r="1.5731309801564857" fill="rgb(253, 134, 59)" stroke="black" stroke-width="1px" transform="translate(270.9965342825153,173.80980019575043)"></circle><circle r="1.5731309801564857" fill="rgb(253, 137, 60)" stroke="black" stroke-width="1px" transform="translate(220.85432923019957,200.0937600262864)"></circle><circle r="1.5731309801564857" fill="rgb(239, 54, 36)" stroke="black" stroke-width="1px" transform="translate(255.17897803255772,184.29459446318722)"></circle><circle r="1.5731309801564857" fill="rgb(128, 0, 38)" stroke="black" stroke-width="1px" transform="translate(235.73145765211677,153.47980632765035)"></circle></g></g><g><text x="505" y="495" font-family="sans-serif" text-anchor="end" font-size="10px" fill="red">263 nodes</text><text x="505" y="505" font-family="sans-serif" text-anchor="end" font-size="10px" fill="red">301 edges</text></g></svg>