<svg height="512" width="512" style="border-style: solid; border-width: 1px; cursor: auto;" id="figure"><g transform="translate(-238.1867118132463,-180.64437453373688) scale(1.7619339840083983)"><g class="links"><line stroke-width="5.67558154321424" stroke="lightgray" x1="263.61861807330655" y1="264.32386784368055" x2="305.13225988439274" y2="347.3268105964601"></line><line stroke-width="5.67558154321424" stroke="lightgray" x1="263.61861807330655" y1="264.32386784368055" x2="188.88267324036212" y2="335.1173760527919"></line><line stroke-width="5.67558154321424" stroke="lightgray" x1="263.61861807330655" y1="264.32386784368055" x2="250.3094444527455" y2="328.23338308597573"></line><line stroke-width="2.751340232616356" stroke="lightgray" x1="263.61861807330655" y1="264.32386784368055" x2="293.36910478428155" y2="249.45622909125007"></line><line stroke-width="4.003196518059398" stroke="lightgray" x1="263.61861807330655" y1="264.32386784368055" x2="217.2123972861655" y2="149.1844379346008"></line><line stroke-width="2.736666313414779" stroke="lightgray" x1="263.61861807330655" y1="264.32386784368055" x2="373.29092254541916" y2="220.22695228902938"></line><line stroke-width="0.491519779767362" stroke="lightgray" x1="200.878924221035" y1="369.3912634484979" x2="188.88267324036212" y2="335.1173760527919"></line><line stroke-width="0.5675581543214241" stroke="lightgray" x1="329.4778642407001" y1="322.6174308910465" x2="305.13225988439274" y2="347.3268105964601"></line><line stroke-width="0.4013242196384" stroke="lightgray" x1="187.41603870890322" y1="374.35256080061856" x2="188.88267324036212" y2="335.1173760527919"></line><line stroke-width="0.28377907716071205" stroke="lightgray" x1="340.8627002394226" y1="336.7063958553884" x2="305.13225988439274" y2="347.3268105964601"></line><line stroke-width="0.4013242196384" stroke="lightgray" x1="244.35059243089324" y1="121.94470867260773" x2="217.2123972861655" y2="149.1844379346008"></line><line stroke-width="0.28377907716071205" stroke="lightgray" x1="342.1137629100172" y1="361.02976930131246" x2="305.13225988439274" y2="347.3268105964601"></line><line stroke-width="0.28377907716071205" stroke="lightgray" x1="175.76378876360153" y1="371.73747542174806" x2="188.88267324036212" y2="335.1173760527919"></line><line stroke-width="0.28377907716071205" stroke="lightgray" x1="381.00813428281316" y1="184.39282963229823" x2="373.29092254541916" y2="220.22695228902938"></line><line stroke-width="0.491519779767362" stroke="lightgray" x1="344.0805077258617" y1="349.65214426767636" x2="305.13225988439274" y2="347.3268105964601"></line><line stroke-width="0.28377907716071205" stroke="lightgray" x1="151.77261745091008" y1="342.1828049878609" x2="188.88267324036212" y2="335.1173760527919"></line><line stroke-width="0.4013242196384" stroke="lightgray" x1="253.49717758810962" y1="146.42486708122368" x2="217.2123972861655" y2="149.1844379346008"></line><line stroke-width="0.28377907716071205" stroke="lightgray" x1="251.39115014466807" y1="132.1704263947031" x2="217.2123972861655" y2="149.1844379346008"></line><line stroke-width="0.28377907716071205" stroke="lightgray" x1="246.80586221191493" y1="166.09930267247972" x2="217.2123972861655" y2="149.1844379346008"></line><line stroke-width="0.6345493071235101" stroke="lightgray" x1="246.4435680365194" y1="363.99636020552566" x2="250.3094444527455" y2="328.23338308597573"></line><line stroke-width="0.28377907716071205" stroke="lightgray" x1="208.07580599212696" y1="181.63844390476976" x2="217.2123972861655" y2="149.1844379346008"></line><line stroke-width="0.28377907716071205" stroke="lightgray" x1="189.4646640447443" y1="172.32966570786235" x2="217.2123972861655" y2="149.1844379346008"></line><line stroke-width="0.4013242196384" stroke="lightgray" x1="164.56941571546952" y1="369.46879546672415" x2="188.88267324036212" y2="335.1173760527919"></line><line stroke-width="0.28377907716071205" stroke="lightgray" x1="336.4924916075766" y1="370.6214202532276" x2="305.13225988439274" y2="347.3268105964601"></line><line stroke-width="0.28377907716071205" stroke="lightgray" x1="404.37147514717446" y1="239.8624884896177" x2="373.29092254541916" y2="220.22695228902938"></line><line stroke-width="0.28377907716071205" stroke="lightgray" x1="181.12142644195873" y1="160.6845403557873" x2="217.2123972861655" y2="149.1844379346008"></line><line stroke-width="0.28377907716071205" stroke="lightgray" x1="202.97138878681446" y1="115.94357132224216" x2="217.2123972861655" y2="149.1844379346008"></line><line stroke-width="0.28377907716071205" stroke="lightgray" x1="227.33300642114597" y1="114.4518940798895" x2="217.2123972861655" y2="149.1844379346008"></line><line stroke-width="0.4013242196384" stroke="lightgray" x1="224.50442524299743" y1="310.03558223590045" x2="250.3094444527455" y2="328.23338308597573"></line><line stroke-width="0.4013242196384" stroke="lightgray" x1="176.40623047584705" y1="149.30437278181182" x2="217.2123972861655" y2="149.1844379346008"></line><line stroke-width="0.28377907716071205" stroke="lightgray" x1="180.56422589939027" y1="138.98246839553616" x2="217.2123972861655" y2="149.1844379346008"></line><line stroke-width="0.4013242196384" stroke="lightgray" x1="396.1630515773536" y1="189.3214760610132" x2="373.29092254541916" y2="220.22695228902938"></line><line stroke-width="0.28377907716071205" stroke="lightgray" x1="320.617209574106" y1="381.93320794318936" x2="305.13225988439274" y2="347.3268105964601"></line><line stroke-width="0.28377907716071205" stroke="lightgray" x1="310.8108438736879" y1="387.89574405034926" x2="305.13225988439274" y2="347.3268105964601"></line><line stroke-width="0.4013242196384" stroke="lightgray" x1="331.5856612413768" y1="380.5467801109299" x2="305.13225988439274" y2="347.3268105964601"></line><line stroke-width="0.4013242196384" stroke="lightgray" x1="159.50732659967375" y1="359.4202676229535" x2="188.88267324036212" y2="335.1173760527919"></line><line stroke-width="0.28377907716071205" stroke="lightgray" x1="178.9525860307015" y1="127.71802901687501" x2="217.2123972861655" y2="149.1844379346008"></line><line stroke-width="0.28377907716071205" stroke="lightgray" x1="189.6649911415476" y1="123.86815626461319" x2="217.2123972861655" y2="149.1844379346008"></line><line stroke-width="0.28377907716071205" stroke="lightgray" x1="191.62159092810518" y1="112.16339855614564" x2="217.2123972861655" y2="149.1844379346008"></line><line stroke-width="0.28377907716071205" stroke="lightgray" x1="411.4485429039902" y1="225.55415989890997" x2="373.29092254541916" y2="220.22695228902938"></line><line stroke-width="0.4013242196384" stroke="lightgray" x1="406.25829259717347" y1="199.00489047280513" x2="373.29092254541916" y2="220.22695228902938"></line><line stroke-width="0.28377907716071205" stroke="lightgray" x1="207.9933968813047" y1="106.26396819961523" x2="217.2123972861655" y2="149.1844379346008"></line><line stroke-width="0.28377907716071205" stroke="lightgray" x1="298.6920695735277" y1="385.42722267093257" x2="305.13225988439274" y2="347.3268105964601"></line><line stroke-width="0.28377907716071205" stroke="lightgray" x1="149.92596458614727" y1="353.6174827384248" x2="188.88267324036212" y2="335.1173760527919"></line><line stroke-width="0.4013242196384" stroke="lightgray" x1="411.60465108152846" y1="211.45138406298597" x2="373.29092254541916" y2="220.22695228902938"></line><line stroke-width="0.28377907716071205" stroke="lightgray" x1="148.3264552980088" y1="331.14490785941206" x2="188.88267324036212" y2="335.1173760527919"></line><line stroke-width="0.28377907716071205" stroke="lightgray" x1="219.97213509011215" y1="106.27879502063594" x2="217.2123972861655" y2="149.1844379346008"></line><line stroke-width="0.28377907716071205" stroke="lightgray" x1="154.27429966537125" y1="319.41845916070565" x2="188.88267324036212" y2="335.1173760527919"></line><line stroke-width="0.28377907716071205" stroke="lightgray" x1="286.6340274692875" y1="379.14716425987007" x2="305.13225988439274" y2="347.3268105964601"></line><line stroke-width="0.28377907716071205" stroke="lightgray" x1="237.92455644482487" y1="111.60451716917824" x2="217.2123972861655" y2="149.1844379346008"></line><line stroke-width="0.28377907716071205" stroke="lightgray" x1="164.48106204867346" y1="308.3341269177045" x2="188.88267324036212" y2="335.1173760527919"></line><line stroke-width="0.8973882361285185" stroke="lightgray" x1="305.13225988439274" y1="347.3268105964601" x2="250.3094444527455" y2="328.23338308597573"></line><line stroke-width="0.5675581543214241" stroke="lightgray" x1="188.88267324036212" y1="335.1173760527919" x2="250.3094444527455" y2="328.23338308597573"></line></g><g class="nodes"><circle r="11.35116308642848" fill="rgb(255, 250, 193)" stroke="black" stroke-width="1px" transform="translate(263.61861807330655,264.32386784368055)"></circle><circle r="1.1351163086428482" fill="rgb(255, 252, 198)" stroke="black" stroke-width="1px" transform="translate(200.878924221035,369.3912634484979)"></circle><circle r="2.4079453178303996" fill="rgb(255, 251, 194)" stroke="black" stroke-width="1px" transform="translate(329.4778642407001,322.6174308910465)"></circle><circle r="0.8026484392768" fill="rgb(255, 254, 201)" stroke="black" stroke-width="1px" transform="translate(187.41603870890322,374.35256080061856)"></circle><circle r="1.501617730901307" fill="rgb(255, 251, 194)" stroke="black" stroke-width="1px" transform="translate(340.8627002394226,336.7063958553884)"></circle><circle r="0.983039559534724" fill="rgb(255, 253, 199)" stroke="black" stroke-width="1px" transform="translate(244.35059243089324,121.94470867260773)"></circle><circle r="1.1351163086428482" fill="rgb(255, 252, 196)" stroke="black" stroke-width="1px" transform="translate(342.1137629100172,361.02976930131246)"></circle><circle r="1.2690986142470202" fill="rgb(255, 251, 195)" stroke="black" stroke-width="1px" transform="translate(175.76378876360153,371.73747542174806)"></circle><circle r="0.5675581543214241" fill="rgb(255, 255, 204)" stroke="black" stroke-width="1px" transform="translate(381.00813428281316,184.39282963229823)"></circle><circle r="1.1351163086428482" fill="rgb(255, 253, 199)" stroke="black" stroke-width="1px" transform="translate(344.0805077258617,349.65214426767636)"></circle><circle r="0.5675581543214241" fill="rgb(255, 255, 203)" stroke="black" stroke-width="1px" transform="translate(151.77261745091008,342.1828049878609)"></circle><circle r="0.8026484392768" fill="rgb(255, 253, 200)" stroke="black" stroke-width="1px" transform="translate(253.49717758810962,146.42486708122368)"></circle><circle r="0.5675581543214241" fill="rgb(255, 255, 203)" stroke="black" stroke-width="1px" transform="translate(251.39115014466807,132.1704263947031)"></circle><circle r="0.5675581543214241" fill="rgb(255, 255, 203)" stroke="black" stroke-width="1px" transform="translate(246.80586221191493,166.09930267247972)"></circle><circle r="1.2690986142470202" fill="rgb(255, 252, 197)" stroke="black" stroke-width="1px" transform="translate(246.4435680365194,363.99636020552566)"></circle><circle r="0.5675581543214241" fill="rgb(255, 255, 203)" stroke="black" stroke-width="1px" transform="translate(208.07580599212696,181.63844390476976)"></circle><circle r="0.8026484392768" fill="rgb(255, 253, 199)" stroke="black" stroke-width="1px" transform="translate(189.4646640447443,172.32966570786235)"></circle><circle r="0.5675581543214241" fill="rgb(255, 254, 202)" stroke="black" stroke-width="1px" transform="translate(164.56941571546952,369.46879546672415)"></circle><circle r="0.5675581543214241" fill="rgb(255, 255, 204)" stroke="black" stroke-width="1px" transform="translate(336.4924916075766,370.6214202532276)"></circle><circle r="0.5675581543214241" fill="rgb(255, 255, 204)" stroke="black" stroke-width="1px" transform="translate(404.37147514717446,239.8624884896177)"></circle><circle r="0.5675581543214241" fill="rgb(255, 255, 203)" stroke="black" stroke-width="1px" transform="translate(181.12142644195873,160.6845403557873)"></circle><circle r="0.5675581543214241" fill="rgb(255, 255, 203)" stroke="black" stroke-width="1px" transform="translate(202.97138878681446,115.94357132224216)"></circle><circle r="0.5675581543214241" fill="rgb(255, 255, 203)" stroke="black" stroke-width="1px" transform="translate(227.33300642114597,114.4518940798895)"></circle><circle r="0.8026484392768" fill="rgb(255, 254, 201)" stroke="black" stroke-width="1px" transform="translate(224.50442524299743,310.03558223590045)"></circle><circle r="0.8026484392768" fill="rgb(255, 253, 200)" stroke="black" stroke-width="1px" transform="translate(176.40623047584705,149.30437278181182)"></circle><circle r="0.5675581543214241" fill="rgb(255, 255, 203)" stroke="black" stroke-width="1px" transform="translate(180.56422589939027,138.98246839553616)"></circle><circle r="0.983039559534724" fill="rgb(255, 253, 199)" stroke="black" stroke-width="1px" transform="translate(396.1630515773536,189.3214760610132)"></circle><circle r="0.5675581543214241" fill="rgb(255, 255, 204)" stroke="black" stroke-width="1px" transform="translate(320.617209574106,381.93320794318936)"></circle><circle r="0.5675581543214241" fill="rgb(255, 255, 204)" stroke="black" stroke-width="1px" transform="translate(310.8108438736879,387.89574405034926)"></circle><circle r="0.8026484392768" fill="rgb(255, 254, 201)" stroke="black" stroke-width="1px" transform="translate(331.5856612413768,380.5467801109299)"></circle><circle r="0.8026484392768" fill="rgb(255, 254, 201)" stroke="black" stroke-width="1px" transform="translate(159.50732659967375,359.4202676229535)"></circle><circle r="0.5675581543214241" fill="rgb(255, 255, 203)" stroke="black" stroke-width="1px" transform="translate(178.9525860307015,127.71802901687501)"></circle><circle r="0.5675581543214241" fill="rgb(255, 255, 203)" stroke="black" stroke-width="1px" transform="translate(189.6649911415476,123.86815626461319)"></circle><circle r="0.5675581543214241" fill="rgb(255, 255, 203)" stroke="black" stroke-width="1px" transform="translate(191.62159092810518,112.16339855614564)"></circle><circle r="0.5675581543214241" fill="rgb(255, 255, 204)" stroke="black" stroke-width="1px" transform="translate(411.4485429039902,225.55415989890997)"></circle><circle r="0.8026484392768" fill="rgb(255, 254, 201)" stroke="black" stroke-width="1px" transform="translate(406.25829259717347,199.00489047280513)"></circle><circle r="0.5675581543214241" fill="rgb(255, 255, 203)" stroke="black" stroke-width="1px" transform="translate(207.9933968813047,106.26396819961523)"></circle><circle r="0.5675581543214241" fill="rgb(255, 255, 204)" stroke="black" stroke-width="1px" transform="translate(298.6920695735277,385.42722267093257)"></circle><circle r="0.5675581543214241" fill="rgb(255, 255, 203)" stroke="black" stroke-width="1px" transform="translate(149.92596458614727,353.6174827384248)"></circle><circle r="0.8026484392768" fill="rgb(255, 254, 201)" stroke="black" stroke-width="1px" transform="translate(411.60465108152846,211.45138406298597)"></circle><circle r="0.5675581543214241" fill="rgb(255, 255, 204)" stroke="black" stroke-width="1px" transform="translate(148.3264552980088,331.14490785941206)"></circle><circle r="0.5675581543214241" fill="rgb(255, 255, 203)" stroke="black" stroke-width="1px" transform="translate(219.97213509011215,106.27879502063594)"></circle><circle r="0.5675581543214241" fill="rgb(255, 255, 203)" stroke="black" stroke-width="1px" transform="translate(154.27429966537125,319.41845916070565)"></circle><circle r="0.5675581543214241" fill="rgb(255, 255, 204)" stroke="black" stroke-width="1px" transform="translate(286.6340274692875,379.14716425987007)"></circle><circle r="0.5675581543214241" fill="rgb(255, 255, 203)" stroke="black" stroke-width="1px" transform="translate(237.92455644482487,111.60451716917824)"></circle><circle r="0.5675581543214241" fill="rgb(255, 255, 204)" stroke="black" stroke-width="1px" transform="translate(164.48106204867346,308.3341269177045)"></circle><circle r="0.983039559534724" fill="rgb(254, 178, 80)" stroke="black" stroke-width="1px" transform="translate(217.2123972861655,149.1844379346008)"></circle><circle r="1.8823774445907906" fill="rgb(254, 165, 72)" stroke="black" stroke-width="1px" transform="translate(305.13225988439274,347.3268105964601)"></circle><circle r="1.3902278774432801" fill="rgb(254, 167, 73)" stroke="black" stroke-width="1px" transform="translate(188.88267324036212,335.1173760527919)"></circle><circle r="0.5675581543214241" fill="rgb(254, 184, 85)" stroke="black" stroke-width="1px" transform="translate(293.36910478428155,249.45622909125007)"></circle><circle r="0.5675581543214241" fill="rgb(254, 170, 74)" stroke="black" stroke-width="1px" transform="translate(373.29092254541916,220.22695228902938)"></circle><circle r="0.8026484392768" fill="rgb(197, 9, 35)" stroke="black" stroke-width="1px" transform="translate(250.3094444527455,328.23338308597573)"></circle></g></g><g><text x="505" y="495" font-family="sans-serif" text-anchor="end" font-size="10px" fill="red">52 nodes</text><text x="505" y="505" font-family="sans-serif" text-anchor="end" font-size="10px" fill="red">53 edges</text></g></svg>